<svg width="64" height="46" viewBox="0 0 64 46" fill="none" xmlns="http://www.w3.org/2000/svg">
<path fill-rule="evenodd" clip-rule="evenodd" d="M57.0044 1.96205C59.7581 2.69801 61.9265 4.86691 62.6624 7.62004C64 12.6116 64 23.0246 64 23.0246C64 23.0246 64 33.4381 62.6624 38.4292C61.9265 41.1823 59.7581 43.3517 57.0044 44.0872C52.0134 45.4247 31.9997 45.4247 31.9997 45.4247C31.9997 45.4247 11.9866 45.4247 6.99556 44.0872C4.24191 43.3517 2.07354 41.1823 1.33758 38.4292C0 33.4381 0 23.0246 0 23.0246C0 23.0246 0 12.6116 1.33758 7.62004C2.07354 4.86691 4.24191 2.69801 6.99556 1.96205C11.9866 0.625 31.9997 0.625 31.9997 0.625C31.9997 0.625 52.0134 0.625 57.0044 1.96205ZM42.2268 23.0251L25.6 32.6247V13.4245L42.2268 23.0251Z" fill="#E3F7FC"/>
</svg>
