<svg width="64" height="54" viewBox="0 0 64 54" fill="none" xmlns="http://www.w3.org/2000/svg">
<path d="M57.4479 13.652C57.4869 14.2307 57.4869 14.8093 57.4869 15.3932C57.4869 33.1866 44.2787 53.7077 20.1269 53.7077V53.697C12.9924 53.7077 6.00609 51.6118 0 47.6601C1.03742 47.7881 2.08003 47.8521 3.12525 47.8548C9.03774 47.8601 14.7812 45.8256 19.4327 42.0792C13.814 41.9699 8.88694 38.2129 7.16571 32.7279C9.13394 33.1172 11.162 33.0372 13.0938 32.4959C6.96811 31.2267 2.56104 25.7071 2.56104 19.2969C2.56104 19.2383 2.56104 19.1823 2.56104 19.1263C4.38627 20.1689 6.4299 20.7475 8.52033 20.8115C2.75084 16.8571 0.972415 8.98572 4.45647 2.83151C11.123 11.2442 20.9589 16.3585 31.5177 16.8998C30.4595 12.2228 31.9051 7.32184 35.3164 4.03409C40.6048 -1.06419 48.9224 -0.802878 53.8936 4.61805C56.8343 4.02343 59.6527 2.91684 62.232 1.34896C61.2518 4.46606 59.2003 7.11386 56.4599 8.7964C59.0625 8.48176 61.6054 7.76714 64 6.67656C62.2372 9.38569 60.0167 11.7455 57.4479 13.652Z" fill="#E3F7FC"/>
</svg>
