<svg width="79" height="24" viewBox="0 0 79 24" fill="none" xmlns="http://www.w3.org/2000/svg">
<path d="M53.4275 5.1126L46.1934 12.3466V5.09335H39.9158V23.5282H46.1967V16.0503L53.7484 23.5282H61.6436L52.0538 13.9321L60.0036 5.98556V16.9329C60.0036 20.5692 62.1828 23.9198 67.6837 23.9198C70.2994 23.9198 72.6904 22.437 73.8522 21.0955L76.6765 23.5314H78.0116V5.10939H71.75V17.042C71.044 18.2744 70.0555 19.0543 68.5342 19.0543C66.9873 19.0543 66.278 18.1364 66.278 15.2094V5.1126H53.4275ZM38.693 14.3204C38.7007 16.2279 38.1423 18.0948 37.0885 19.6848C36.0348 21.2749 34.533 22.5166 32.7734 23.2529C31.0137 23.9891 29.0751 24.1869 27.203 23.821C25.3309 23.4552 23.6094 22.5423 22.2564 21.1977C20.9033 19.8532 19.9795 18.1375 19.6018 16.2678C19.2241 14.398 19.4096 12.4583 20.1347 10.6939C20.8598 8.92964 22.092 7.42008 23.6753 6.35629C25.2587 5.2925 27.122 4.7223 29.0295 4.71784C30.2945 4.71193 31.5483 4.95561 32.719 5.43494C33.8897 5.91427 34.9544 6.61983 35.852 7.51121C36.7496 8.40259 37.4626 9.46229 37.9501 10.6296C38.4376 11.7969 38.6901 13.049 38.693 14.314M29.0295 9.27521C27.367 9.27521 25.9613 11.5346 25.9613 14.3204C25.9613 17.103 27.367 19.3592 29.0295 19.3592C30.7241 19.3592 32.1362 17.1062 32.1362 14.3204C32.1362 11.5314 30.7305 9.27521 29.0295 9.27521ZM21.9495 23.5475H14.8278L9.16961 15.7037H7.26322V23.5347H0.985596V0H9.97196C15.1584 0 19.3916 3.53036 19.3916 7.86307C19.3916 10.5141 17.7708 12.8762 15.306 14.3236L21.9495 23.5475ZM13.1236 7.86307C13.1261 7.34581 13.0267 6.83313 12.8309 6.35436C12.6351 5.87559 12.3468 5.44012 11.9825 5.07287C11.6182 4.70562 11.1851 4.4138 10.708 4.2141C10.2308 4.0144 9.71896 3.91075 9.2017 3.90907H7.26322V11.7818H9.20491C10.2426 11.7775 11.2366 11.3632 11.97 10.6291C12.7035 9.89507 13.117 8.90078 13.1204 7.86307H13.1236Z" fill="white"/>
</svg>
