<svg width="25" height="24" viewBox="0 0 25 24" fill="none" xmlns="http://www.w3.org/2000/svg">
<path d="M24.4328 7.05204C24.3752 5.77422 24.1687 4.89992 23.8759 4.13611C23.5686 3.34828 23.1605 2.67574 22.4932 2.01281C21.8259 1.34988 21.1585 0.931946 20.3712 0.629304C19.6078 0.331465 18.734 0.129704 17.457 0.0720576C16.1751 0.0144115 15.7671 0 12.512 0C9.25215 0 8.84407 0.0144115 7.56701 0.0720576C6.28996 0.129704 5.41618 0.336269 4.65283 0.629304C3.86067 0.93675 3.18854 1.34508 2.52601 2.01281C1.86347 2.68054 1.44579 3.34828 1.14333 4.13611C0.850471 4.89992 0.64403 5.77422 0.586419 7.05204C0.528807 8.33467 0.514404 8.743 0.514404 12C0.514404 15.2618 0.528807 15.6701 0.586419 16.948C0.64403 18.2258 0.850471 19.1001 1.14333 19.8639C1.45059 20.6517 1.85867 21.3243 2.52601 21.9872C3.18854 22.6549 3.86067 23.0681 4.64803 23.3707C5.41138 23.6685 6.28516 23.8703 7.56221 23.9279C8.84407 23.9856 9.25215 24 12.5072 24C15.7671 24 16.1751 23.9856 17.4522 23.9279C18.7292 23.8703 19.603 23.6637 20.3664 23.3707C21.1537 23.0633 21.8259 22.6549 22.4884 21.9872C23.1509 21.3195 23.5686 20.6517 23.8711 19.8639C24.1687 19.1001 24.3704 18.2258 24.428 16.948C24.4856 15.6653 24.5 15.257 24.5 12C24.5 8.743 24.4904 8.32986 24.4328 7.05204ZM22.2772 16.8519C22.2243 18.024 22.0275 18.6629 21.8643 19.0809C21.6482 19.6381 21.3842 20.0416 20.9617 20.4644C20.5392 20.8871 20.1407 21.1417 19.579 21.3675C19.1565 21.5308 18.518 21.7278 17.3514 21.7806C16.0887 21.8383 15.7094 21.8527 12.5024 21.8527C9.29536 21.8527 8.91608 21.8383 7.65343 21.7806C6.482 21.7278 5.84347 21.5308 5.42579 21.3675C4.86888 21.1513 4.46559 20.8871 4.04311 20.4644C3.62063 20.0416 3.36617 19.6429 3.14053 19.0809C2.9773 18.6581 2.78046 18.0192 2.72765 16.8519C2.67004 15.5885 2.65563 15.209 2.65563 12C2.65563 8.79103 2.67004 8.41153 2.72765 7.14812C2.78046 5.97598 2.9773 5.33707 3.14053 4.91914C3.35657 4.36189 3.62063 3.95837 4.04311 3.53563C4.46559 3.11289 4.86407 2.85829 5.42579 2.63251C5.84827 2.46918 6.4868 2.27222 7.65343 2.21938C8.91608 2.16173 9.29536 2.14732 12.5024 2.14732C15.7094 2.14732 16.0887 2.16173 17.3514 2.21938C18.5228 2.27222 19.1613 2.46918 19.579 2.63251C20.1359 2.84868 20.5392 3.11289 20.9617 3.53563C21.3842 3.95837 21.6386 4.35709 21.8643 4.91914C22.0275 5.34187 22.2243 5.98079 22.2772 7.14812C22.3348 8.41153 22.3492 8.79103 22.3492 12C22.3492 15.209 22.33 15.5885 22.2772 16.8519Z" fill="black"/>
<path d="M12.5024 5.83191C9.09376 5.83191 6.33801 8.59412 6.33801 12C6.33801 15.4108 9.09856 18.1682 12.5024 18.1682C15.9063 18.1682 18.6669 15.4012 18.6669 12C18.6669 8.58931 15.9111 5.83191 12.5024 5.83191ZM12.5024 16.0016C10.294 16.0016 8.50325 14.2098 8.50325 12C8.50325 9.79028 10.294 7.99844 12.5024 7.99844C14.7109 7.99844 16.5016 9.79028 16.5016 12C16.5016 14.2098 14.7109 16.0016 12.5024 16.0016Z" fill="black"/>
<path d="M18.9069 7.03282C19.7024 7.03282 20.3472 6.38759 20.3472 5.59167C20.3472 4.79574 19.7024 4.15051 18.9069 4.15051C18.1115 4.15051 17.4666 4.79574 17.4666 5.59167C17.4666 6.38759 18.1115 7.03282 18.9069 7.03282Z" fill="black"/>
<path d="M0.5 12C0.5 15.2618 0.514403 15.6701 0.572014 16.948C0.629626 18.2258 0.836067 19.1001 1.12893 19.8639C1.43619 20.6517 1.84427 21.3243 2.5116 21.9872C3.17413 22.6501 3.84627 23.0681 4.63363 23.3707C5.39698 23.6685 6.27075 23.8703 7.54781 23.9279C8.82967 23.9856 9.23775 24 12.4928 24C15.7527 24 16.1607 23.9856 17.4378 23.9279C18.7148 23.8703 19.5886 23.6637 20.352 23.3707C21.1393 23.0633 21.8115 22.6549 22.474 21.9872C23.1365 21.3243 23.5542 20.6517 23.8567 19.8639C24.1543 19.1001 24.356 18.2258 24.4136 16.948C24.4712 15.6653 24.4856 15.257 24.4856 12C24.4856 8.73819 24.4712 8.32986 24.4136 7.05204C24.356 5.77422 24.1495 4.89992 23.8567 4.13611C23.5494 3.34828 23.1413 2.67574 22.474 2.01281C21.8163 1.34508 21.1441 0.931946 20.3568 0.629304C19.5934 0.331465 18.7196 0.129704 17.4426 0.0720576C16.1607 0.0144115 15.7527 0 12.4976 0C9.23775 0 8.82967 0.0144115 7.55261 0.0720576C6.27555 0.129704 5.40178 0.336269 4.63843 0.629304C3.85107 0.93675 3.17894 1.34508 2.5164 2.01281C1.85387 2.68054 1.43619 3.34828 1.13373 4.13611C0.836067 4.89992 0.629626 5.77422 0.572014 7.05204C0.514403 8.32986 0.5 8.73819 0.5 12ZM2.66523 12C2.66523 8.79584 2.67964 8.41153 2.73725 7.14812C2.79006 5.97598 2.9869 5.33707 3.15013 4.91914C3.36617 4.36189 3.63023 3.95837 4.05271 3.53563C4.47519 3.11289 4.87367 2.85829 5.43539 2.63251C5.85787 2.46918 6.4964 2.27222 7.66303 2.21938C8.92568 2.16173 9.30496 2.14732 12.512 2.14732C15.719 2.14732 16.0983 2.16173 17.361 2.21938C18.5324 2.27222 19.1709 2.46918 19.5886 2.63251C20.1455 2.84868 20.5488 3.11289 20.9713 3.53563C21.3938 3.95837 21.6482 4.35709 21.8739 4.91914C22.0371 5.34187 22.2339 5.98079 22.2868 7.14812C22.3444 8.41153 22.3588 8.79103 22.3588 12C22.3588 15.209 22.3444 15.5885 22.2868 16.8519C22.2339 18.024 22.0371 18.6629 21.8739 19.0809C21.6578 19.6381 21.3938 20.0416 20.9713 20.4644C20.5488 20.8871 20.1503 21.1417 19.5886 21.3675C19.1661 21.5308 18.5276 21.7278 17.361 21.7806C16.0983 21.8383 15.719 21.8527 12.512 21.8527C9.30496 21.8527 8.92568 21.8383 7.66303 21.7806C6.4916 21.7278 5.85307 21.5308 5.43539 21.3675C4.87848 21.1513 4.47519 20.8871 4.05271 20.4644C3.63023 20.0416 3.37578 19.6429 3.15013 19.0809C2.9869 18.6581 2.79006 18.0192 2.73725 16.8519C2.67483 15.5885 2.66523 15.2042 2.66523 12Z" fill="black"/>
</svg>
