<svg width="39" height="32" viewBox="0 0 39 32" fill="none" xmlns="http://www.w3.org/2000/svg">
<path d="M34.7482 8.04547C34.7717 8.38586 34.7717 8.72626 34.7717 9.06979C34.7717 19.5372 26.8185 31.6094 12.2757 31.6094V31.6031C7.97976 31.6094 3.77301 30.3765 0.156494 28.0517C0.781165 28.127 1.40897 28.1647 2.03834 28.1663C5.59849 28.1694 9.05688 26.9725 11.8577 24.7686C8.47448 24.7043 5.50769 22.4941 4.47126 19.2674C5.65642 19.4965 6.87758 19.4494 8.04081 19.131C4.35228 18.3843 1.6986 15.1372 1.6986 11.3663C1.6986 11.3317 1.6986 11.2988 1.6986 11.2659C2.79765 11.8792 4.0282 12.2196 5.28694 12.2572C1.81289 9.93096 0.742025 5.30037 2.83992 1.67998C6.85409 6.629 12.7767 9.63763 19.1346 9.95606C18.4974 7.20469 19.3679 4.32155 21.4219 2.38743C24.6063 -0.611784 29.6147 -0.458058 32.6081 2.73096C34.3788 2.38116 36.0759 1.73018 37.6289 0.807824C37.0387 2.64155 35.8034 4.1992 34.1533 5.189C35.7205 5.0039 37.2516 4.58351 38.6935 3.94194C37.6321 5.53567 36.295 6.9239 34.7482 8.04547Z" fill="#B9F615"/>
</svg>
