<svg width="77" height="49" viewBox="0 0 77 49" fill="none" xmlns="http://www.w3.org/2000/svg">
<path d="M38.5343 25.3157C38.5343 16.1916 45.9459 8.79649 55.0904 8.79649C61.0952 8.79649 65.9162 11.9976 68.4382 16.7908L74.9234 14.9249C71.1147 7.46126 64.1663 2.39423 55.0904 2.39423C46.0146 2.39423 37.5221 8.09464 34.005 16.243L38.5686 25.932C38.5686 25.7265 38.5343 25.5211 38.5343 25.3157Z" fill="white"/>
<path d="M55.091 41.8371C50.8533 41.8371 46.993 40.228 44.0593 37.6089L48.6229 47.2807C50.6817 47.8799 52.8434 48.2222 55.091 48.2222C65.2991 48.2222 73.2426 41.5803 75.9705 32.4049H69.3138C67.1006 37.9341 62.0909 41.8371 55.091 41.8371Z" fill="white"/>
<path d="M76.8627 23.2456L53.4955 23.1771V29.5794H76.6397C76.8799 28.1928 77 26.772 77 25.3169C77 24.5808 76.9314 23.8448 76.8627 23.2456Z" fill="white"/>
<path d="M27.0557 48.241H33.987L22.0117 22.6148L18.5975 30.1469L27.0557 48.241Z" fill="white"/>
<path d="M33.0779 38.1397H33.0951L37.6587 48.2395H44.9674L22.4923 0L0 48.2395H7.30871L11.8724 38.1397H11.9067L17.0537 26.7902L22.4923 14.8587L33.0779 38.1397Z" fill="white"/>
</svg>
