<svg width="108" height="108" viewBox="0 0 108 108" fill="none" xmlns="http://www.w3.org/2000/svg">
<path d="M52.2773 1.82812V2.8125H53.2617H54.2461V1.82812V0.84375H53.2617H52.2773V1.82812Z" fill="#02393F"/>
<path d="M47.1832 1.26191C46.4941 1.36035 46.3711 1.45879 46.3711 2.0248C46.3711 3.08301 46.691 3.37832 47.6508 3.20605C48.4383 3.0584 48.4629 3.00918 48.3891 2.07402C48.3398 1.53262 48.2168 1.11426 48.1184 1.13887C48.0445 1.13887 47.6016 1.2127 47.1832 1.26191Z" fill="#02393F"/>
<path d="M58.3312 1.63125C58.0113 2.86172 58.1343 3.05859 59.1433 3.05859C60.0292 3.05859 60.1277 2.98477 60.2753 2.32031C60.4968 1.36055 60.2753 1.08984 59.3156 1.08984C58.6757 1.08984 58.4542 1.21289 58.3312 1.63125Z" fill="#02393F"/>
<path d="M64.2129 2.71364C64.1144 3.35349 64.139 3.67341 64.3851 3.82106C64.8773 4.14099 66.0586 4.09177 66.0586 3.72263C66.0586 3.57497 66.1324 3.18122 66.2062 2.88591C66.3539 2.36911 66.3293 2.3445 64.8035 1.92614C64.4836 1.85231 64.3605 2.04919 64.2129 2.71364Z" fill="#02393F"/>
<path d="M41.2277 2.36936C40.4402 2.59084 40.4156 2.64006 40.5878 3.50139C40.6863 3.99358 40.7847 4.43655 40.8093 4.46116C40.8339 4.48577 41.2769 4.41194 41.7937 4.26428C42.655 4.01819 42.7042 3.96897 42.5566 3.23069C42.3351 2.17248 42.2121 2.09866 41.2277 2.36936Z" fill="#02393F"/>
<path d="M69.9714 4.21496C69.6515 5.19933 69.7992 5.44543 70.9066 5.66691C71.5956 5.81457 71.6941 5.76535 71.8417 5.05168C72.0632 3.99347 72.0386 3.94426 71.1035 3.62433C70.2667 3.35363 70.2667 3.35363 69.9714 4.21496Z" fill="#02393F"/>
<path d="M35.6168 4.1413C35.1738 4.28896 34.8047 4.48583 34.8047 4.58427C34.8047 5.29794 34.8293 5.47021 35.1246 5.83935C35.3707 6.20849 35.543 6.2331 36.232 5.98701C37.0934 5.69169 37.1426 5.49482 36.6996 4.51044C36.4289 3.89521 36.3551 3.8706 35.6168 4.1413Z" fill="#02393F"/>
<path d="M75.5578 6.42983C75.3363 6.92202 75.1641 7.34038 75.2133 7.36499C75.2625 7.3896 75.6316 7.61108 76.0746 7.83257C76.8621 8.22632 76.8621 8.22632 77.2559 7.51265C77.7727 6.50366 77.7481 6.40522 76.7883 5.96226L75.9762 5.56851L75.5578 6.42983Z" fill="#02393F"/>
<path d="M29.8336 6.65166C29.4398 6.84854 29.1445 7.09463 29.1445 7.19307C29.1445 7.34072 29.5875 8.07901 30.0305 8.66963C30.1043 8.79268 31.6055 8.00518 31.6055 7.83291C31.6055 7.56221 30.8426 6.25791 30.6703 6.25791C30.5719 6.28252 30.2027 6.45479 29.8336 6.65166Z" fill="#02393F"/>
<path d="M80.7996 9.13711C80.6273 9.53086 80.4305 9.9 80.3812 9.99844C80.3074 10.1461 81.5871 10.9336 81.907 10.9336C81.9562 10.9336 82.2516 10.6137 82.5469 10.1953L83.0637 9.45703L82.2516 8.96484C81.218 8.34961 81.218 8.34961 80.7996 9.13711Z" fill="#02393F"/>
<path d="M24.7148 9.6293C24.3703 9.85078 24.0503 10.0723 24.0257 10.0969C23.8535 10.2199 24.8378 11.6719 25.0839 11.6719C25.207 11.6719 25.6007 11.4504 25.9453 11.1797C26.5359 10.7367 26.5605 10.6875 26.1421 10.023C25.6253 9.16172 25.4531 9.1125 24.7148 9.6293Z" fill="#02393F"/>
<path d="M85.7707 12.5578C85.1309 13.3699 85.1309 13.3945 85.9922 14.0836L86.6812 14.625L87.2227 13.8621L87.7641 13.1238L87.198 12.5086C86.509 11.7703 86.3859 11.7703 85.7707 12.5578Z" fill="#02393F"/>
<path d="M19.9653 13.1486C19.1532 13.7885 19.1286 14.0592 19.8176 14.7975L20.359 15.3389L21.0481 14.8467C21.9094 14.2561 21.9094 14.2068 21.1958 13.3209L20.6543 12.6072L19.9653 13.1486Z" fill="#02393F"/>
<path d="M90.1758 16.4707L89.5852 17.0859L90.2989 17.8242L91.0125 18.5625L91.7016 17.898L92.3907 17.2336L91.7262 16.5445C91.3571 16.1754 90.9879 15.8555 90.9141 15.8555C90.8157 15.8555 90.4958 16.1262 90.1758 16.4707Z" fill="#02393F"/>
<path d="M15.3634 17.4547L14.7974 18.07L15.3634 18.6852C16.1017 19.4727 16.4216 19.4481 16.963 18.6606C17.3567 18.0454 17.3567 17.9961 16.8153 17.4301C16.1263 16.6918 16.0771 16.6918 15.3634 17.4547Z" fill="#02393F"/>
<path d="M94.261 20.8516L93.5474 21.4422L94.1134 22.2051C94.6302 22.9188 94.7532 22.968 95.1962 22.6727C96.156 22.0328 96.2544 21.5652 95.5899 20.9008L94.9747 20.2856L94.261 20.8516Z" fill="#02393F"/>
<path d="M11.5981 21.9586C11.0074 22.7954 11.0567 23.0168 11.8934 23.5336C12.5578 23.9766 12.5824 23.952 13.1238 23.2137L13.6899 22.4508L13.0008 21.8602C12.607 21.5403 12.2379 21.2942 12.1641 21.2696C12.0903 21.2696 11.8442 21.5649 11.5981 21.9586Z" fill="#02393F"/>
<path d="M97.8047 25.6254C97.4602 25.8469 97.1648 26.0437 97.1156 26.093C96.9188 26.216 97.8539 27.668 98.1246 27.668C98.2723 27.668 98.6906 27.4465 99.0105 27.2004C99.552 26.782 99.5766 26.7328 99.1828 25.9945C98.7152 25.084 98.6168 25.0594 97.8047 25.6254Z" fill="#02393F"/>
<path d="M51.3177 25.7976C48.586 26.7082 45.9774 29.4891 45.3868 32.1715C45.2145 32.9344 45.1161 34.6816 45.1899 36.4043C45.2638 38.9391 45.3622 39.5543 45.9282 40.7355C46.2727 41.4984 46.9618 42.5566 47.454 43.098C48.2415 43.984 48.3399 44.2301 48.3399 45.4851C48.3399 46.9371 47.9216 48.2414 47.3063 48.7582C47.1095 48.9305 45.9774 49.3488 44.7962 49.6934C42.286 50.4316 40.6618 51.1945 38.5946 52.6465C35.2724 55.009 34.2388 56.707 30.3505 65.9848C28.6032 70.1684 26.979 73.7121 26.7575 73.8844C26.5114 74.0566 23.5337 76.1977 20.113 78.634C14.2067 82.8668 13.8868 83.1375 13.247 84.4172C12.7056 85.5492 12.6071 85.9676 12.7302 87.0258C12.8286 87.7395 13.1485 88.6746 13.4931 89.1914C14.2067 90.2988 16.2739 91.4062 17.5782 91.4062H18.4641L17.6028 93.1781C16.7661 94.8516 16.7169 95.073 16.7169 97.4109C16.7169 99.6012 16.7907 100.069 17.3813 101.324C18.3165 103.293 20.2606 105.286 22.2294 106.246L23.8536 107.033H35.6661C46.2481 107.033 47.7739 106.984 50.4317 106.541C54.1723 105.926 55.8704 105.926 59.5372 106.541C62.1704 106.984 63.6716 107.033 73.1954 107.033H83.9005L85.5001 106.27C88.3055 104.941 89.9544 103.12 90.9141 100.241C91.7263 97.9031 91.5294 95.4422 90.3727 93.1289L89.536 91.4062H90.422C91.7016 91.4062 93.695 90.3234 94.4579 89.216C94.8516 88.65 95.1716 87.7887 95.27 87.0258C95.3931 85.9676 95.2946 85.5492 94.7532 84.3926C94.1134 83.0883 93.8181 82.8422 87.6411 78.4371C84.0974 75.927 81.095 73.7859 80.9966 73.6875C80.8981 73.5891 79.397 70.1191 77.6497 65.9602C73.7614 56.707 72.7278 55.009 69.4056 52.6465C67.3384 51.1945 65.7141 50.4316 63.204 49.6934C62.0227 49.3488 60.8907 48.9305 60.6938 48.7582C60.054 48.2414 59.6602 46.9371 59.6602 45.4605C59.6848 44.1562 59.7587 43.9594 60.5462 43.1719C61.0138 42.7043 61.7028 41.6953 62.072 40.957C62.7118 39.6773 62.7364 39.4312 62.7364 35.9121C62.7364 32.3684 62.7118 32.1715 62.0227 30.6949C61.186 28.8738 59.2419 26.9051 57.5192 26.1422C56.0181 25.4777 52.8681 25.3055 51.3177 25.7976ZM56.7563 28.1109C58.1098 28.7016 59.4634 30.0797 60.177 31.5562C60.5954 32.4176 60.7677 33.2543 60.8415 35.1738C60.9645 38.0777 60.5708 39.8004 59.4141 41.4C58.5528 42.6059 56.5102 43.8363 55.0583 44.0578C54.0247 44.2055 54.0001 44.2301 54.0001 45.1652C54.0001 46.0019 54.0739 46.125 54.5661 46.125C54.886 46.125 55.6981 45.9527 56.3626 45.7559C57.027 45.559 57.5931 45.3867 57.6423 45.3867C57.6669 45.3867 57.6915 45.7559 57.6915 46.1742C57.6915 47.7246 58.2083 48.9305 59.2911 49.9641C60.1278 50.7762 60.6692 51.0715 62.0966 51.416C66.5263 52.4988 70.7591 55.575 72.5063 59.0203C72.8016 59.5863 74.4013 63.2777 76.0501 67.2645C77.7235 71.2512 79.2493 74.6965 79.4708 74.8934C79.6677 75.1148 82.6454 77.2805 86.0415 79.7168C92.7845 84.5402 93.4981 85.2293 93.3013 86.8043C93.0798 88.4039 91.5294 89.6098 90.0036 89.3637C89.4376 89.2652 86.8782 87.5918 82.0794 84.1711C78.1911 81.3902 74.795 78.8801 74.5489 78.6094C74.2782 78.3141 72.4079 74.3027 70.3653 69.7008C68.2981 65.0742 66.4524 61.1613 66.2309 61.0383C65.9356 60.8414 65.6895 60.8414 65.3942 61.0383C64.9759 61.2844 64.9513 62.1211 64.8774 71.6203C64.8036 82.5961 64.8528 83.1867 65.9848 84.5156C67.1415 85.9184 67.2645 85.943 78.9294 88.7238C81.7595 89.3883 84.5895 90.2004 85.2294 90.5203C86.6321 91.234 88.0841 92.7844 88.7731 94.3348C89.536 96.0082 89.4868 98.9859 88.6993 100.635C87.961 102.185 86.4352 103.686 84.8848 104.474L83.6544 105.064L72.9493 105.04C67.0677 105.015 61.7028 104.917 61.0138 104.794L59.7833 104.548L62.4657 103.637C66.0095 102.407 69.4548 100.758 70.3407 99.8719C72.8016 97.4109 72.0634 93.1781 68.8888 91.5785C67.5598 90.9141 66.6985 90.8895 64.0899 91.4062C57.2485 92.7352 49.9149 92.9812 41.9415 92.1691C39.579 91.923 37.561 91.7754 37.4626 91.8246C37.3395 91.8738 37.2657 92.2922 37.2657 92.7598C37.2657 93.7687 37.0196 93.6949 43.0489 94.2609C49.6196 94.8762 57.1501 94.6301 62.638 93.6703C64.902 93.2766 66.9938 92.9812 67.3384 93.0551C69.5286 93.4734 70.5868 96.6727 69.0856 98.3461C68.052 99.552 61.3829 102.161 56.1903 103.44C49.9641 104.966 48.6106 105.064 36.0352 105.064H24.5919L23.2138 104.425C20.3345 103.071 18.7102 100.512 18.6856 97.3125C18.6856 95.7867 18.8087 95.2207 19.3747 94.0641C20.113 92.5629 21.4419 91.2094 22.9184 90.4711C23.4352 90.2004 27.1266 89.1914 31.1134 88.2316C40.9325 85.8691 40.8587 85.8937 42.0399 84.5156C43.1474 83.1867 43.1966 82.5961 43.1227 71.6203C43.0489 62.1211 43.0243 61.2844 42.6306 61.0383C42.3106 60.8414 42.0645 60.8414 41.7692 61.0383C41.5477 61.1613 39.702 65.0742 37.6348 69.7008C35.5923 74.3027 33.722 78.3141 33.4513 78.6094C33.2052 78.8801 29.8091 81.3902 25.9208 84.1711C21.122 87.5918 18.5626 89.2652 17.9966 89.3637C15.6095 89.7328 13.813 87.0012 15.1665 85.0324C15.511 84.5156 18.1688 82.4238 21.8849 79.7906C25.2563 77.3789 28.2341 75.1887 28.4802 74.9672C28.7263 74.7211 30.2766 71.2512 31.9501 67.2645C33.5989 63.2777 35.1985 59.5863 35.4692 59.0449C37.2657 55.575 41.4739 52.4988 45.879 51.416C47.3802 51.0469 47.8723 50.8008 48.7337 49.9394C49.9641 48.6844 50.3087 47.6754 50.3087 45.1652C50.3087 43.3934 50.2841 43.3195 49.3489 42.3105C47.4786 40.2926 47.2325 39.5297 47.2325 35.8875C47.2325 32.8113 47.2571 32.6144 47.9708 31.2363C49.6688 27.9633 53.4095 26.6344 56.7563 28.1109ZM40.8341 82.8176C40.6126 83.2113 40.0958 83.7035 39.6528 83.925C38.9638 84.2203 24.6657 87.7641 24.5673 87.641C24.5427 87.6164 26.8313 85.943 29.686 83.9004C32.5407 81.8824 35.0509 79.9383 35.2724 79.5937C35.5184 79.2492 36.9212 76.2223 38.3977 72.8754L41.0802 66.7723L41.154 74.4258C41.2032 80.9473 41.154 82.1777 40.8341 82.8176ZM69.6763 72.9984C71.1528 76.3207 72.5309 79.323 72.7524 79.643C72.9493 79.9383 75.4595 81.8578 78.3141 83.9004C81.1688 85.9184 83.4821 87.6164 83.4575 87.641C83.3591 87.7148 69.1102 84.2449 68.4212 83.9742C68.052 83.8266 67.5106 83.359 67.2645 82.9406C66.8462 82.2269 66.797 81.5871 66.797 74.4504C66.797 70.193 66.8462 66.7723 66.8954 66.8215C66.9446 66.8707 68.1997 69.6516 69.6763 72.9984Z" fill="#02393F"/>
<path d="M8.10358 27.2004C7.88209 27.6188 7.73444 27.9879 7.78365 28.0371C7.83287 28.0617 8.20201 28.2832 8.64498 28.5047L9.43248 28.8984L9.85084 28.1109C10.2446 27.348 10.2446 27.3234 9.70319 26.8805C8.91569 26.2406 8.54654 26.3391 8.10358 27.2004Z" fill="#02393F"/>
<path d="M100.881 30.793C99.8965 31.3098 99.9212 31.2606 100.266 32.0973C100.61 32.9341 100.635 32.9341 101.718 32.5649C102.604 32.245 102.604 32.245 102.038 31.1868C101.619 30.4239 101.619 30.4239 100.881 30.793Z" fill="#02393F"/>
<path d="M5.39658 32.516C5.1997 33.0082 5.05205 33.4266 5.07666 33.4512C5.4458 33.648 6.57783 34.0664 6.72549 34.0664C6.84853 34.0664 6.99619 33.8695 7.07002 33.6234C7.11924 33.402 7.26689 33.0082 7.36533 32.7867C7.48838 32.4914 7.31611 32.2699 6.7747 31.9992C5.79033 31.4824 5.83955 31.4824 5.39658 32.516Z" fill="#02393F"/>
<path d="M102.923 36.3308C102.161 36.6015 102.136 36.6507 102.505 37.7089C102.727 38.3734 102.825 38.4226 103.465 38.2503C104.597 37.9304 104.671 37.832 104.375 36.8968C104.105 35.9863 103.982 35.937 102.923 36.3308Z" fill="#02393F"/>
<path d="M3.47698 37.4381C3.40315 37.5611 3.2801 37.9795 3.20627 38.3978C3.05862 39.0869 3.10784 39.1607 3.91995 39.4068C4.75666 39.6775 4.83049 39.6529 5.05198 39.0869C5.42112 38.1025 5.32268 37.8318 4.51057 37.5365C3.57541 37.2166 3.60002 37.2166 3.47698 37.4381Z" fill="#02393F"/>
<path d="M104.72 41.9908C103.932 42.2123 103.908 42.2616 104.031 43.0983C104.129 43.5658 104.203 44.0088 104.252 44.0334C104.302 44.0826 104.72 44.0334 105.187 43.935C106 43.7627 106.049 43.7135 105.975 42.9014C105.852 41.8186 105.729 41.7201 104.72 41.9908Z" fill="#02393F"/>
<path d="M1.75429 44.0574C1.65585 44.5742 1.63124 45.0171 1.65585 45.0417C1.68046 45.0663 2.12343 45.1402 2.61561 45.2386C3.50155 45.4109 3.52616 45.3863 3.69843 44.5249C3.8953 43.4667 3.84608 43.4421 2.76327 43.2699C1.92655 43.1222 1.90194 43.1468 1.75429 44.0574Z" fill="#02393F"/>
<path d="M104.941 48.832V49.8164H105.926H106.91V48.832V47.8477H105.926H104.941V48.832Z" fill="#02393F"/>
<path d="M1.08987 49.6683C1.08987 49.9883 1.01604 50.4312 0.942212 50.6281C0.843775 50.8988 1.06526 51.0219 1.80354 51.0957C2.78792 51.1695 2.81252 51.1449 2.96018 50.3574C3.13245 49.3976 2.83713 49.0777 1.77893 49.0777C1.21292 49.0777 1.08987 49.1761 1.08987 49.6683Z" fill="#02393F"/>
<path d="M105.188 54.8613V55.9688H106.172H107.156V54.8613V53.7539H106.172H105.188V54.8613Z" fill="#02393F"/>
<path d="M1.1637 55.157C0.794561 55.3047 0.745342 56.8551 1.08987 57.0766C1.23753 57.175 1.6805 57.175 2.07425 57.0766C2.7387 56.9289 2.81253 56.8305 2.81253 55.9445C2.81253 55.0586 2.76331 54.9848 2.14808 55.0094C1.75433 55.0094 1.31136 55.0832 1.1637 55.157Z" fill="#02393F"/>
<path d="M104.868 60.079C104.769 60.1528 104.695 60.5958 104.695 61.0387C104.695 61.7524 104.769 61.8262 105.557 61.9247C106.049 61.9739 106.492 61.9739 106.541 61.9001C106.615 61.8509 106.664 61.3587 106.664 60.8419C106.664 59.9559 106.639 59.9067 105.852 59.9067C105.384 59.9067 104.941 59.9805 104.868 60.079Z" fill="#02393F"/>
<path d="M2.00032 61.0628C1.33586 61.1612 1.28664 61.2351 1.45891 62.0718C1.55735 62.564 1.65578 63.0316 1.705 63.0808C1.75422 63.13 2.2218 63.0808 2.71399 63.0069C3.55071 62.8347 3.59992 62.7855 3.45227 62.0718C3.37844 61.6534 3.30461 61.2351 3.30461 61.112C3.30461 60.8905 3.23078 60.8905 2.00032 61.0628Z" fill="#02393F"/>
<path d="M103.859 65.7879C103.809 65.8617 103.686 66.2801 103.588 66.723C103.44 67.4613 103.489 67.5352 104.252 67.732C105.237 68.0027 105.458 67.8305 105.507 66.7723C105.557 66.0586 105.483 65.9602 104.745 65.7879C104.302 65.7141 103.908 65.6895 103.859 65.7879Z" fill="#02393F"/>
<path d="M2.98485 66.9692C2.61571 67.0676 2.56649 67.2399 2.68954 67.8551C2.91102 68.9133 3.10789 69.061 3.8954 68.8641C4.73211 68.6672 4.85516 68.4211 4.65829 67.5352C4.48602 66.7969 4.14149 66.6739 2.98485 66.9692Z" fill="#02393F"/>
<path d="M101.964 71.8664C101.841 72.2355 101.668 72.6293 101.595 72.7523C101.496 72.9246 102.899 73.6875 103.317 73.6875C103.416 73.6875 103.957 72.2602 103.957 71.9402C103.957 71.7926 102.653 71.2266 102.308 71.2266C102.259 71.2266 102.111 71.5219 101.964 71.8664Z" fill="#02393F"/>
<path d="M5.10116 72.6043C4.33827 72.9242 4.31366 72.9981 4.58437 73.6133C5.02733 74.6469 5.12577 74.6961 5.96249 74.4008C6.84843 74.1055 6.84843 74.0563 6.47929 72.9735C6.18398 72.1121 6.18398 72.1121 5.10116 72.6043Z" fill="#02393F"/>
<path d="M99.4535 77.5024L99.0352 78.3637L99.7734 78.7328C100.758 79.2496 100.856 79.225 101.299 78.2652L101.693 77.4531L100.856 77.0348C100.389 76.8133 99.9703 76.641 99.9457 76.641C99.8965 76.641 99.675 77.0348 99.4535 77.5024Z" fill="#02393F"/>
<path d="M7.56221 78.0436L6.79932 78.4373L7.19307 79.2494C7.63604 80.2092 7.75908 80.2338 8.71885 79.6678C9.40791 79.274 9.40791 79.2494 9.01416 78.4373C8.57119 77.5022 8.62041 77.5268 7.56221 78.0436Z" fill="#02393F"/>
</svg>
