<svg width="32" height="33" viewBox="0 0 32 33" fill="none" xmlns="http://www.w3.org/2000/svg">
<path d="M11.3332 23.1202C7.69317 22.4269 5.55984 21.0402 4.6665 19.1202" stroke="#D0C4B8" stroke-width="1.71392" stroke-miterlimit="10"/>
<path d="M6 13.7868C4.46667 11.2268 3.73333 6.61351 4.66667 5.78685C8.8 9.12018 12.8267 11.2402 16.6667 11.1202C16.6667 11.1202 16.6667 4.45351 22 4.45351C23.4529 4.38434 24.8792 4.85979 26 5.78685H30L28.6667 9.78685C28.9383 12.4753 28.5997 15.1903 27.6763 17.7297C26.7529 20.2692 25.2684 22.5675 23.3333 24.4535C16.6667 31.1202 6 29.7868 2 24.4535" stroke="#D0C4B8" stroke-width="1.71392" stroke-miterlimit="10"/>
<path d="M7.3335 19.1203C6.25915 18.3287 5.35245 17.3319 4.66585 16.1875C3.97926 15.0432 3.52641 13.7741 3.3335 12.4536" stroke="#D0C4B8" stroke-width="1.71392" stroke-miterlimit="10"/>
</svg>
