<svg width="359" height="202" viewBox="0 0 359 202" fill="none" xmlns="http://www.w3.org/2000/svg">
<path d="M244.245 0.568962C246.918 1.06523 249.52 1.51897 252.093 2.02942C271.985 5.99961 290.852 12.8907 308.995 21.852C310.687 22.6886 312.279 23.7236 313.929 24.6595C314.966 25.255 315.293 26.0065 315.151 27.2826C314.056 38.0447 308.952 46.8641 301.8 54.6485C292.359 64.9143 280.658 71.9897 268.089 77.7748C267.35 78.1152 266.624 78.4696 265.487 79.0084C266.468 79.5472 267.065 79.9443 267.719 80.242C277.444 84.5667 286.558 89.9406 294.649 96.8459C303.123 104.077 310.218 112.401 313.402 123.375C314.142 125.913 314.483 128.565 314.938 131.174C315.166 132.422 314.611 133.216 313.445 133.854C294.819 144.091 275.056 151.223 254.326 155.775C250.984 156.512 247.6 157.051 244.088 157.717C244.032 157.15 243.946 156.711 243.946 156.271C244.017 141.44 244.046 126.622 244.188 111.791C244.259 103.468 241.558 96.1653 236.354 89.7421C236.027 89.3309 235.103 89.0615 234.562 89.1891C219.434 92.819 204.05 94.3504 188.538 95.272C178.955 95.8392 169.485 94.875 159.988 94.2511C149.651 93.5705 139.428 91.8832 129.361 89.4018C127.271 88.8914 126.333 89.4018 125.238 90.9473C120.66 97.3989 118.257 104.446 118.371 112.457C118.598 126.991 118.513 141.51 118.57 156.044C118.57 156.512 118.499 156.966 118.456 157.604C115.598 157.108 112.826 156.696 110.081 156.129C91.4413 152.343 73.6827 145.963 56.564 137.796C54.0047 136.576 51.5876 135.059 49.0994 133.712C47.9761 133.102 47.6065 132.28 47.7202 130.975C48.5307 121.872 52.4833 114.13 58.0711 107.14C65.1518 98.2922 74.024 91.5287 83.863 86.0272C87.8726 83.7868 92.0812 81.8868 96.1902 79.8167C96.432 79.689 96.631 79.4763 97.1002 79.1077C96.3893 78.6965 95.8917 78.3562 95.3514 78.101C85.1711 73.3651 75.4743 67.8636 67.0002 60.4337C58.4977 52.9754 51.7013 44.3402 48.7724 33.167C48.2889 31.3521 48.1325 29.452 47.7344 27.6087C47.4216 26.1908 47.8908 25.3401 49.142 24.5602C56.7772 19.8527 65.0665 16.5348 73.37 13.2594C86.9768 7.88544 100.896 3.58914 115.371 1.22121C116.465 1.03688 117.532 0.739113 118.726 0.483887C118.783 1.05106 118.854 1.44807 118.854 1.84509C118.783 16.7333 118.769 31.6215 118.612 46.4955C118.513 54.9179 121.485 62.1777 126.504 68.7427C126.731 69.0404 127.428 69.1822 127.854 69.1113C136.826 67.5942 145.741 65.6232 154.769 64.6023C168.291 63.0568 181.884 62.0217 195.533 63.5247C203.524 64.4038 211.543 65.0561 219.519 66.1337C224.723 66.8285 229.842 68.133 235.017 69.083C235.543 69.1822 236.411 68.8561 236.752 68.4307C242.382 61.2702 244.828 53.2022 244.501 44.0425C244.117 33.72 244.33 23.3692 244.273 13.0325C244.245 9.24665 244.188 5.47497 244.145 1.68912C244.145 1.34882 244.216 1.00852 244.273 0.554783L244.245 0.568962ZM138.404 78.8808C138.916 79.292 139.272 79.689 139.712 79.9017C143.765 81.8159 147.746 83.957 151.926 85.5167C161.935 89.2317 172.4 89.9264 183.021 89.9406C196.983 89.9548 210.121 87.1048 222.377 80.3555C224.268 79.3204 224.325 79.1502 222.477 78.0443C214.031 72.9823 204.761 70.033 195.064 69.0546C187.685 68.3031 180.163 68.374 172.727 68.6292C160.528 69.0404 149.182 72.6703 138.418 78.895L138.404 78.8808Z" fill="black"/>
<path d="M246.349 195.335C247.785 192.371 249.065 189.663 250.401 186.997C251.482 184.842 252.648 182.715 253.785 180.588C254.823 178.646 256.33 177.582 258.648 177.753C260.169 177.866 261.705 177.781 263.326 177.781C263.397 178.291 263.482 178.688 263.482 179.071C263.496 186.033 263.482 193.009 263.525 199.971C263.525 201.219 263.283 201.829 261.833 201.63C260.511 201.446 259.131 201.588 257.61 201.588V185.92C257.525 185.877 257.425 185.821 257.34 185.778C256.984 186.402 256.615 187.026 256.274 187.664C254.141 191.733 251.994 195.803 249.89 199.886C249.236 201.148 248.297 201.389 246.904 201.574C244.33 201.9 243.122 200.78 242.041 198.653C239.851 194.356 237.42 190.188 234.847 185.537C234.847 187.352 234.818 188.756 234.847 190.159C234.932 193.463 235.046 196.767 235.174 200.056C235.216 201.248 234.832 201.758 233.524 201.63C232.131 201.489 230.695 201.602 229.159 201.602V177.88C231.335 177.88 233.581 177.554 235.643 178.008C236.866 178.277 238.174 179.568 238.814 180.744C241.145 184.97 243.221 189.337 245.397 193.662C245.638 194.13 245.908 194.583 246.321 195.335H246.349Z" fill="black"/>
<path d="M282.35 201.673C279.193 201.503 276.165 201.489 273.179 201.148C270.364 200.822 268.658 199.234 268.515 196.441C268.288 191.974 268.302 187.494 268.558 183.027C268.729 180.092 271.174 178.064 274.871 177.923C279.876 177.724 284.923 177.781 289.914 178.178C294.25 178.532 295.815 180.432 295.971 184.771C296.099 188.415 296.028 192.088 295.886 195.732C295.772 198.738 294.194 200.666 291.208 201.092C288.236 201.517 285.208 201.503 282.336 201.673H282.35ZM282.321 183.736C282.321 183.736 282.321 183.722 282.321 183.708C280.26 183.708 278.184 183.708 276.122 183.708C274.942 183.708 274.501 184.318 274.53 185.509C274.601 188.274 274.615 191.053 274.53 193.818C274.473 195.292 275.113 195.859 276.492 195.874C280.217 195.888 283.928 195.916 287.653 195.916C289.047 195.916 289.914 195.221 289.928 193.775C289.928 191.124 289.928 188.472 289.814 185.835C289.743 184.502 288.961 183.708 287.483 183.736C285.776 183.779 284.056 183.736 282.336 183.736H282.321Z" fill="black"/>
<path d="M71.7491 195.93C75.4458 195.93 78.8013 195.959 82.1568 195.93C84.6877 195.902 85.1711 195.434 85.1995 192.896C85.228 190.656 85.1711 188.401 85.0716 186.161C85.0147 184.885 84.5739 183.765 83.0384 183.765C78.9008 183.736 74.7633 183.765 70.3557 183.765C70.3557 184.998 70.3557 186.218 70.3557 187.437C70.3557 191.506 70.3415 195.59 70.3699 199.659C70.3699 201.092 70.0429 201.857 68.3367 201.602C67.0144 201.404 65.6494 201.559 64.1992 201.559V177.909C64.6257 177.866 65.0807 177.795 65.5357 177.795C70.9244 177.795 76.3131 177.724 81.7018 177.823C83.4507 177.852 85.2422 178.135 86.9484 178.561C89.593 179.227 91.0148 180.9 91.1001 183.637C91.2281 187.763 91.2423 191.903 91.1001 196.03C91.0148 198.823 89.2944 200.794 86.337 201.12C82.7113 201.517 79.0146 201.446 75.3605 201.517C74.9908 201.517 74.479 201.134 74.2799 200.794C73.441 199.319 72.6875 197.788 71.7491 195.973V195.93Z" fill="black"/>
<path d="M52.6966 193.477V177.767C54.5734 177.767 56.3365 177.71 58.0711 177.823C58.4123 177.852 58.9811 178.547 58.9811 178.944C59.0237 186.033 58.9953 193.123 59.0095 200.212C59.0095 201.248 58.6683 201.772 57.545 201.616C56.8483 201.517 56.1232 201.446 55.4265 201.517C52.981 201.786 51.2606 200.68 49.7534 198.894C46.2131 194.697 42.5874 190.556 39.0187 186.388C38.8338 186.161 38.7343 185.863 38.5921 185.608C38.4073 185.679 38.2082 185.75 38.0234 185.835C37.9949 186.53 37.9096 187.224 37.9238 187.905C38.066 192.031 38.2224 196.157 38.4073 200.283C38.4499 201.276 38.0518 201.659 37.0423 201.588C35.4072 201.474 33.1607 202.056 32.2792 201.205C31.4261 200.383 31.9095 198.128 31.9095 196.497C31.8811 190.769 31.938 185.041 31.8811 179.312C31.8811 178.178 32.1512 177.88 33.3171 177.724C37.5968 177.171 40.5684 178.731 43.0709 182.276C45.7865 186.118 49.0852 189.55 52.1421 193.165C52.2416 193.279 52.4122 193.321 52.725 193.492L52.6966 193.477Z" fill="black"/>
<path d="M197.879 201.503V177.909C198.192 177.866 198.519 177.781 198.86 177.781C204.434 177.781 209.993 177.753 215.567 177.781C223.316 177.809 227.325 184.601 223.515 191.407C222.818 192.655 221.396 193.506 220.031 194.824C221.282 196.809 222.704 199.064 224.211 201.446C222.15 201.446 220.188 201.517 218.24 201.389C217.799 201.361 217.316 200.695 217.003 200.227C216.093 198.922 215.169 197.603 214.401 196.214C213.733 195.009 212.823 194.512 211.514 194.782C208.998 195.278 207.405 194.314 206.595 191.903C206.353 191.194 205.998 190.514 205.699 189.847C209.069 189.847 212.339 189.933 215.609 189.791C216.448 189.762 217.699 189.252 218.012 188.6C218.737 187.125 218.595 185.466 217.486 184.105C217.259 183.821 216.633 183.765 216.178 183.765C212.623 183.722 209.069 183.765 205.514 183.679C204.164 183.651 204.149 184.374 204.149 185.367C204.149 190.145 204.093 194.938 204.149 199.716C204.164 201.077 203.851 201.673 202.372 201.531C200.965 201.389 199.543 201.503 197.879 201.503Z" fill="black"/>
<path d="M125.835 201.474V177.88C126.432 177.838 126.944 177.781 127.456 177.781C132.731 177.781 137.992 177.753 143.267 177.781C144.433 177.781 145.641 177.923 146.779 178.192C150.604 179.114 152.239 181.141 152.381 185.069C152.423 186.303 152.438 187.565 152.281 188.784C151.983 191.038 151.158 193.024 148.755 193.846C147.717 194.2 147.731 194.739 148.3 195.576C149.608 197.504 150.845 199.489 152.153 201.503C150.12 201.503 148.329 201.574 146.537 201.46C146.068 201.432 145.513 200.936 145.186 200.51C144.291 199.333 143.31 198.171 142.712 196.852C141.902 195.037 140.665 194.64 138.817 194.739C135.959 194.895 134.096 192.995 133.854 189.947C136.854 189.947 139.84 189.947 142.826 189.947C146.096 189.947 146.807 189.039 146.338 185.665C146.167 184.388 145.556 183.736 144.276 183.722C140.381 183.722 136.499 183.722 132.361 183.722V201.474H125.835Z" fill="black"/>
<path d="M353.839 194.796C355.204 196.951 356.654 199.22 358.105 201.517C356.171 201.517 354.323 201.588 352.488 201.474C352.019 201.446 351.465 200.95 351.152 200.51C350.228 199.277 349.275 198.057 348.578 196.696C347.796 195.179 346.787 194.654 345.081 194.725C341.725 194.881 340.247 193.392 339.792 189.89C343.147 189.89 346.503 189.933 349.872 189.876C351.906 189.833 352.432 189.138 352.375 186.898C352.318 184.403 351.749 183.722 349.673 183.722C346.36 183.722 343.033 183.765 339.72 183.679C338.441 183.651 338.114 184.076 338.128 185.31C338.185 190.145 338.114 194.995 338.156 199.83C338.156 201.106 337.858 201.673 336.464 201.559C334.943 201.432 333.408 201.531 331.787 201.531V177.753C336.82 177.753 341.782 177.724 346.73 177.753C348.621 177.767 350.541 177.753 352.375 178.079C356.526 178.83 358.446 181.283 358.446 185.48C358.446 187.593 358.801 189.833 357.323 191.606C356.37 192.74 355.105 193.633 353.853 194.768L353.839 194.796Z" fill="black"/>
<path d="M121.357 177.923C121.357 179.44 121.3 180.787 121.371 182.148C121.428 183.382 120.973 183.779 119.721 183.765C114.39 183.708 109.058 183.793 103.726 183.722C102.233 183.694 101.735 184.176 101.764 185.636C101.835 188.472 101.849 191.308 101.764 194.144C101.721 195.533 102.318 195.845 103.555 195.845C108.83 195.817 114.105 195.916 119.366 195.845C120.944 195.817 121.399 196.285 121.371 197.845C121.285 201.574 121.371 201.545 117.745 201.531C112.3 201.503 106.84 201.531 101.394 201.503C96.5315 201.474 95.394 200.326 95.394 195.562C95.394 191.251 95.394 186.941 95.394 182.63C95.394 180.12 96.6879 178.547 99.1476 178.022C99.7164 177.894 100.314 177.795 100.896 177.795C107.408 177.781 113.935 177.795 120.447 177.795C120.674 177.795 120.902 177.866 121.328 177.937L121.357 177.923Z" fill="black"/>
<path d="M300.379 177.767C302.056 177.767 303.72 177.823 305.369 177.753C306.549 177.696 306.876 178.164 306.862 179.298C306.791 183.665 306.791 188.033 306.819 192.4C306.834 195.59 307.047 195.76 310.274 195.845C312.649 195.902 315.009 196.03 317.384 196.001C320.426 195.973 320.881 195.491 320.881 192.471C320.881 188.217 320.824 183.963 320.796 179.723C320.796 179.142 320.796 178.575 320.796 177.88H327.066C327.095 178.348 327.166 178.859 327.166 179.355C327.166 184.204 327.18 189.039 327.166 193.889C327.152 198.951 324.55 201.531 319.488 201.531C315.578 201.531 311.668 201.545 307.758 201.517C302.966 201.474 300.634 199.518 300.435 194.768C300.208 189.181 300.379 183.58 300.379 177.767Z" fill="black"/>
<path d="M0.515625 177.781C2.42087 177.781 4.12706 177.795 5.83325 177.781C7.07024 177.767 6.87118 178.66 6.87118 179.397C6.87118 183.467 6.80009 187.55 6.82853 191.62C6.87118 195.774 6.89962 195.774 11.1082 195.874C13.1272 195.93 15.132 196.001 17.151 196.001C20.4212 196.001 20.9899 195.434 20.9615 192.187C20.9188 187.933 20.8762 183.679 20.8335 179.426C20.8335 178.958 20.8335 178.504 20.8335 177.909H27.1606C27.1606 178.405 27.1606 178.972 27.1606 179.539C27.1606 184.502 27.1606 189.465 27.1606 194.427C27.1606 198.568 24.8999 201.248 20.7766 201.432C16.042 201.645 11.2931 201.63 6.5726 201.432C2.54884 201.262 0.657808 198.908 0.572498 194.371C0.487188 189.706 0.529843 185.041 0.529843 180.376C0.529843 179.61 0.529843 178.844 0.529843 177.795L0.515625 177.781Z" fill="black"/>
<path d="M195.306 201.489C193.272 201.489 191.453 201.46 189.647 201.503C188.723 201.531 188.111 201.389 187.77 200.368C187.088 198.341 185.822 197.121 183.433 197.589C182.637 197.745 181.784 197.618 180.945 197.618C177.675 197.618 176.609 196.753 175.741 193.194H184.002C182.196 189.649 180.604 186.501 178.841 183.027C178.372 183.807 178.073 184.275 177.817 184.771C175.215 189.805 172.585 194.824 170.054 199.886C169.443 201.12 168.675 201.63 167.281 201.517C165.717 201.389 164.125 201.489 162.348 201.489C162.405 201.248 162.405 200.808 162.604 200.454C166.315 193.406 170.082 186.388 173.765 179.326C174.362 178.178 175.03 177.639 176.353 177.753C177.59 177.866 178.841 177.838 180.078 177.767C182.026 177.653 183.391 178.504 184.272 180.163C187.841 186.884 191.41 193.605 194.964 200.34C195.149 200.68 195.206 201.092 195.32 201.489H195.306Z" fill="black"/>
<path d="M120.859 191.932H111.631C110.508 191.932 109.385 191.932 108.262 191.932C105.162 191.932 104.152 191.053 103.498 187.621C107.536 187.621 111.532 187.593 115.541 187.621C119.011 187.664 119.537 188.103 120.859 191.918V191.932Z" fill="black"/>
</svg>
