<svg width="408" height="276" viewBox="0 0 408 276" fill="none" xmlns="http://www.w3.org/2000/svg">
<path d="M243.346 0.978826C247.133 7.61049 250.899 14.2753 254.73 20.8849C285.118 73.3413 315.528 125.798 345.927 178.243C346.359 178.984 346.746 179.746 347.311 180.774H345.052C319.648 180.774 294.243 180.763 268.839 180.807C267.399 180.807 266.547 180.476 265.782 179.15C238.518 131.777 211.197 84.4273 183.888 37.0661C183.622 36.6019 183.379 36.1266 183.024 35.4745C184.708 34.5019 186.336 33.5735 187.964 32.634C205.671 22.4875 223.379 12.33 241.087 2.17253C241.729 1.80778 242.327 1.36567 242.936 0.967773C243.069 0.967773 243.213 0.967773 243.346 0.967773V0.978826Z" fill="black"/>
<path d="M0 235.231C0.387599 233.607 0.730902 231.971 1.15172 230.346C5.42639 213.899 21.0079 202.681 37.9737 203.731C44.2638 204.118 50.1221 205.72 55.4821 209.08C55.7589 209.246 56.0579 209.379 56.6116 209.666V204.427H73.367V273.385H56.7335V269.02C55.8143 269.528 55.1831 269.86 54.574 270.213C33.5772 282.36 6.94356 271.164 1.04098 247.699C0.653382 246.118 0.343302 244.538 0 242.957C0 240.382 0 237.807 0 235.231ZM36.4233 258.873C47.3646 258.895 56.5452 250.053 56.6227 239.409C56.7002 228.622 47.42 219.393 36.4786 219.371C25.7587 219.36 16.6335 228.39 16.5339 239.144C16.4342 249.81 25.5373 258.851 36.4122 258.873H36.4233Z" fill="black"/>
<path d="M114.165 98.7296C134.253 87.1684 154.176 75.6956 174.331 64.0902C196.801 102.93 219.226 141.692 241.807 180.719H178.971V197.74H161.74C161.74 196.547 161.74 195.298 161.74 194.038C161.695 189.572 162.482 184.886 161.363 180.708C160.256 176.596 157.221 173.004 155.007 169.202C141.717 146.301 128.417 123.388 115.128 100.487C114.818 99.9675 114.541 99.4259 114.165 98.7296Z" fill="black"/>
<path d="M153.113 273.408H136.125V268.986C125.937 275.176 115.405 276.911 104.275 273.286C96.5344 270.766 90.3771 266.013 85.7702 259.326C76.8443 246.361 77.5531 228.942 87.4646 216.928C93.4225 209.721 101.086 205.367 110.333 204.062C119.436 202.769 128.007 204.471 136.047 209.766V180.929H153.124V273.397L153.113 273.408ZM115.981 258.873C126.856 258.928 136.036 250.009 136.092 239.332C136.136 228.699 126.955 219.448 116.291 219.382C105.316 219.304 96.0139 228.401 95.9696 239.232C95.9253 249.843 105.062 258.818 115.992 258.884L115.981 258.873Z" fill="black"/>
<path d="M259.127 273.397H242.416C242.349 272.026 242.294 270.766 242.227 269.174C231.186 275.651 219.813 277.177 207.986 272.369C200.577 269.362 194.863 264.267 190.787 257.414C182.736 243.886 184.608 226.665 195.173 215.182C205.704 203.72 225.217 199.078 242.272 209.589V180.907H259.127V273.408V273.397ZM242.294 239.166C242.205 228.301 232.936 219.271 221.939 219.371C211.408 219.47 202.427 228.71 202.493 239.376C202.559 250.064 211.618 258.951 222.36 258.862C233.302 258.785 242.371 249.81 242.294 239.155V239.166Z" fill="black"/>
<path d="M321.287 209.633V204.427H338.241V273.341H321.375C321.309 272.026 321.253 270.711 321.176 269.119C311.32 275.176 300.976 276.845 290.046 273.408C282.073 270.899 275.771 266.013 271.098 259.094C261.862 245.422 263.202 227.561 274.276 215.347C285.583 202.869 305.484 199.553 321.287 209.633ZM321.253 239.177C321.22 228.323 312.184 219.293 301.43 219.36C290.755 219.426 281.619 228.666 281.663 239.343C281.707 249.943 290.81 258.851 301.597 258.851C312.405 258.851 321.287 249.954 321.253 239.166V239.177Z" fill="black"/>
<path d="M103.755 125.72C114.342 144.024 124.862 162.228 135.527 180.675C134.563 180.719 133.921 180.785 133.268 180.785C107.941 180.785 82.614 180.774 57.2761 180.83C55.6925 180.83 54.8841 180.343 54.131 178.984C50.7091 172.838 47.1542 166.748 43.544 160.459C63.5995 148.887 83.5996 137.348 103.755 125.72Z" fill="black"/>
<path d="M404.842 226.201H387.633C387.533 225.881 387.389 225.571 387.345 225.251C386.647 220.089 384.698 217.757 379.559 217.193C376.315 216.839 372.959 217.348 369.659 217.591C368.884 217.646 368.109 218.077 367.4 218.453C365.506 219.448 364.443 221.04 364.421 223.184C364.399 225.262 365.606 226.787 367.411 227.395C370.855 228.555 374.399 229.484 377.943 230.302C382.106 231.252 386.326 231.949 390.512 232.789C391.509 232.988 392.472 233.33 393.424 233.673C402.096 236.801 407.278 242.968 407.588 250.473C407.987 260.332 403.524 268.113 394.643 271.728C383.258 276.359 371.575 276.569 360.102 272.048C352.062 268.876 346.957 262.907 345.44 254.209C345.351 253.678 345.296 253.137 345.251 252.595C345.229 252.275 345.251 251.954 345.251 251.512H363.003C365.185 261.028 376.891 265.66 385.207 260.321C386.215 259.68 387.145 258.796 387.843 257.823C390.025 254.806 389.305 251.258 385.827 249.92C382.583 248.671 379.039 248.174 375.606 247.411C370.645 246.306 365.617 245.477 360.733 244.129C353.025 241.996 348.208 236.856 347.001 228.931C345.761 220.785 348.718 214.132 355.406 209.29C361.176 205.112 367.865 203.731 374.842 203.665C382.383 203.587 389.582 204.958 395.794 209.6C401.265 213.689 404.177 219.205 404.853 226.19L404.842 226.201Z" fill="black"/>
<path d="M161.884 204.449H178.761V273.308H161.884V204.449Z" fill="black"/>
</svg>
