<svg width="82" height="111" viewBox="0 0 82 111" fill="none" xmlns="http://www.w3.org/2000/svg">
<path d="M19.9996 110.628C8.95415 110.561 0.0509625 101.553 0.113828 90.5074L0.606185 3.99992C0.618758 1.79081 2.41978 0.0108457 4.62888 0.0242543L61.8483 0.37156C72.8938 0.438604 81.797 9.44711 81.7341 20.4926L81.2418 107C81.2292 109.209 79.4282 110.989 77.2191 110.976L19.9996 110.628Z" fill="#95A6B5"/>
<path d="M24.0078 30.9141L21.125 48H17.6445L19.8594 35.2383L16.5664 36.4219L17.0938 33.4102L23.5977 30.9258L24.0078 30.9141ZM35.9328 37.9453L35.4758 40.9688C35.3586 41.7891 35.1672 42.6289 34.9016 43.4883C34.6438 44.3477 34.2844 45.1445 33.8234 45.8789C33.3703 46.6055 32.7961 47.1875 32.1008 47.625C31.4055 48.0625 30.5578 48.2656 29.5578 48.2344C28.8 48.2188 28.1672 48.0547 27.6594 47.7422C27.1594 47.4219 26.757 47.0078 26.4523 46.5C26.1555 45.9844 25.9406 45.4141 25.8078 44.7891C25.675 44.1562 25.6047 43.5117 25.5969 42.8555C25.5891 42.1992 25.6203 41.5742 25.6906 40.9805L26.1594 37.9453C26.2766 37.125 26.4641 36.2891 26.7219 35.4375C26.9875 34.5781 27.3508 33.7852 27.8117 33.0586C28.2727 32.3242 28.8508 31.7422 29.5461 31.3125C30.2492 30.875 31.0969 30.6719 32.0891 30.7031C32.8391 30.7188 33.468 30.8867 33.9758 31.207C34.4836 31.5195 34.8859 31.9336 35.1828 32.4492C35.4797 32.957 35.6945 33.5234 35.8273 34.1484C35.9602 34.7734 36.0305 35.4141 36.0383 36.0703C36.0461 36.7266 36.0109 37.3516 35.9328 37.9453ZM31.9484 41.4609L32.5344 37.4414C32.55 37.2852 32.5773 37.0586 32.6164 36.7617C32.6633 36.457 32.6984 36.1289 32.7219 35.7773C32.7453 35.418 32.7375 35.0742 32.6984 34.7461C32.6594 34.418 32.5695 34.1445 32.4289 33.9258C32.2883 33.6992 32.0734 33.582 31.7844 33.5742C31.3547 33.543 31.0109 33.6719 30.7531 33.9609C30.4953 34.2422 30.2922 34.6055 30.1438 35.0508C30.0031 35.4883 29.9016 35.9297 29.8391 36.375C29.7766 36.8203 29.7258 37.1758 29.6867 37.4414L29.1008 41.4609C29.093 41.6094 29.0656 41.8359 29.0188 42.1406C28.9797 42.4375 28.9484 42.7695 28.925 43.1367C28.9016 43.4961 28.9055 43.8398 28.9367 44.168C28.9758 44.4961 29.0656 44.7734 29.2063 45C29.3469 45.2188 29.5617 45.3398 29.8508 45.3633C30.2805 45.3945 30.6242 45.2656 30.882 44.9766C31.1477 44.6875 31.3508 44.3203 31.4914 43.875C31.632 43.4297 31.7336 42.9844 31.7961 42.5391C31.8586 42.0859 31.9094 41.7266 31.9484 41.4609ZM45.9477 38.3789L45.3852 41.6016H35.8344L36.3969 38.3789H45.9477ZM43.6156 33.8672L41.4594 46.2891H38.1898L40.3461 33.8672H43.6156ZM52.5359 46.3477L56.9422 35.3203H60.7508L54.2117 49.8984C54.0242 50.3359 53.8094 50.75 53.5672 51.1406C53.3328 51.5312 53.0594 51.8789 52.7469 52.1836C52.4344 52.4883 52.075 52.7266 51.6688 52.8984C51.2625 53.0703 50.8016 53.1562 50.2859 53.1562C50.0281 53.1562 49.7742 53.1289 49.5242 53.0742C49.282 53.0195 49.032 52.957 48.7742 52.8867L49.0906 50.2031C49.1531 50.2109 49.2156 50.2148 49.2781 50.2148C49.3328 50.2227 49.3875 50.2266 49.4422 50.2266C49.7625 50.2344 50.0359 50.1875 50.2625 50.0859C50.4969 49.9922 50.6961 49.8516 50.8602 49.6641C51.032 49.4844 51.1805 49.2578 51.3055 48.9844L52.5359 46.3477ZM54.1063 35.3203L54.3523 44.4727L54.0945 48.2578L51.8094 48.3516L50.4734 35.3203H54.1063Z" fill="#F0EAE1"/>
<path d="M9.46973 57.8906L11.3398 57.8955C11.7598 57.9085 12.1048 58.0046 12.375 58.1836C12.6484 58.3594 12.8438 58.6019 12.9609 58.9111C13.0814 59.2171 13.1237 59.5752 13.0879 59.9854C13.0586 60.3206 12.974 60.6217 12.834 60.8887C12.6973 61.1556 12.5117 61.3835 12.2773 61.5723C12.0462 61.7611 11.7744 61.9108 11.4619 62.0215L11.208 62.1191H9.43066L9.55273 61.3525L10.7441 61.3623C11.0176 61.359 11.2585 61.2988 11.4668 61.1816C11.6751 61.0612 11.8428 60.8968 11.9697 60.6885C12.0999 60.4801 12.1797 60.2441 12.209 59.9805C12.2383 59.7493 12.2318 59.5361 12.1895 59.3408C12.1471 59.1455 12.056 58.9876 11.916 58.8672C11.7793 58.7435 11.5807 58.6768 11.3203 58.667L10.2168 58.6621L9.11328 65H8.23926L9.46973 57.8906ZM11.5693 65L10.7588 61.7773L11.623 61.7725L12.5117 64.9365L12.5068 65H11.5693ZM17.2285 64.2334L17.0918 65H14.0938L14.2305 64.2334H17.2285ZM15.4902 57.8906L14.2549 65H13.3809L14.6113 57.8906H15.4902ZM17.3945 60.9473L17.2627 61.7139H14.665L14.8018 60.9473H17.3945ZM18.2832 57.8906L18.1465 58.6621H15.1924L15.3291 57.8906H18.2832ZM21.5352 63.1641C21.5579 62.9753 21.5482 62.8125 21.5059 62.6758C21.4668 62.5358 21.4001 62.4154 21.3057 62.3145C21.2113 62.2135 21.0973 62.124 20.9639 62.0459C20.8304 61.9678 20.6839 61.8945 20.5244 61.8262C20.2965 61.7285 20.0833 61.6162 19.8848 61.4893C19.6895 61.3623 19.5186 61.2174 19.3721 61.0547C19.2288 60.8887 19.1198 60.6999 19.0449 60.4883C18.9733 60.2767 18.9489 60.0358 18.9717 59.7656C18.9945 59.4727 19.0677 59.2041 19.1914 58.96C19.3151 58.7158 19.4762 58.5059 19.6748 58.3301C19.8766 58.1543 20.1061 58.0192 20.3633 57.9248C20.6237 57.8304 20.8988 57.7865 21.1885 57.793C21.5954 57.8027 21.9355 57.9069 22.209 58.1055C22.4857 58.3008 22.6908 58.5612 22.8242 58.8867C22.9577 59.209 23.0114 59.5605 22.9854 59.9414H22.1064C22.126 59.707 22.1097 59.4857 22.0576 59.2773C22.0088 59.069 21.9111 58.8997 21.7646 58.7695C21.6182 58.6393 21.4098 58.571 21.1396 58.5645C20.8988 58.5579 20.6855 58.6068 20.5 58.7109C20.3177 58.8118 20.1696 58.9535 20.0557 59.1357C19.945 59.318 19.8766 59.5247 19.8506 59.7559C19.8278 59.9251 19.8408 60.0749 19.8896 60.2051C19.9385 60.332 20.0101 60.446 20.1045 60.5469C20.2021 60.6445 20.3145 60.7308 20.4414 60.8057C20.5716 60.8805 20.7051 60.9473 20.8418 61.0059C21.0924 61.11 21.3187 61.2272 21.5205 61.3574C21.7223 61.4876 21.8932 61.6374 22.0332 61.8066C22.1764 61.9759 22.2806 62.1712 22.3457 62.3926C22.4141 62.6139 22.4352 62.8695 22.4092 63.1592C22.3831 63.4619 22.3066 63.7354 22.1797 63.9795C22.0527 64.2204 21.8867 64.4255 21.6816 64.5947C21.4766 64.764 21.2422 64.8926 20.9785 64.9805C20.7148 65.0651 20.4333 65.1042 20.1338 65.0977C19.8278 65.0911 19.5527 65.0326 19.3086 64.9219C19.0645 64.8079 18.8577 64.6533 18.6885 64.458C18.5192 64.2594 18.3939 64.0316 18.3125 63.7744C18.2311 63.514 18.1986 63.234 18.2148 62.9346L19.0938 62.9395C19.0775 63.1283 19.0856 63.3073 19.1182 63.4766C19.154 63.6426 19.2158 63.7891 19.3037 63.916C19.3916 64.043 19.5072 64.1439 19.6504 64.2188C19.7969 64.2904 19.9743 64.3278 20.1826 64.3311C20.4268 64.3376 20.6449 64.2936 20.8369 64.1992C21.029 64.1048 21.1852 63.9697 21.3057 63.7939C21.4294 63.6149 21.5059 63.4049 21.5352 63.1641ZM27.082 64.2334L26.9453 65H23.9473L24.084 64.2334H27.082ZM25.3438 57.8906L24.1084 65H23.2344L24.4648 57.8906H25.3438ZM27.248 60.9473L27.1162 61.7139H24.5186L24.6553 60.9473H27.248ZM28.1367 57.8906L28 58.6621H25.0459L25.1826 57.8906H28.1367ZM31.4131 58.5693L28.4297 65H27.502L30.959 57.8906H31.54L31.4131 58.5693ZM31.833 65L31.0664 58.4668L31.1592 57.8906H31.7109L32.6973 65H31.833ZM32.2822 62.3682L32.1455 63.1396H28.8154L28.9521 62.3682H32.2822ZM34.8896 57.8906L36.7598 57.8955C37.1797 57.9085 37.5247 58.0046 37.7949 58.1836C38.0684 58.3594 38.2637 58.6019 38.3809 58.9111C38.5013 59.2171 38.5436 59.5752 38.5078 59.9854C38.4785 60.3206 38.3939 60.6217 38.2539 60.8887C38.1172 61.1556 37.9316 61.3835 37.6973 61.5723C37.4661 61.7611 37.1943 61.9108 36.8818 62.0215L36.6279 62.1191H34.8506L34.9727 61.3525L36.1641 61.3623C36.4375 61.359 36.6784 61.2988 36.8867 61.1816C37.0951 61.0612 37.2627 60.8968 37.3896 60.6885C37.5199 60.4801 37.5996 60.2441 37.6289 59.9805C37.6582 59.7493 37.6517 59.5361 37.6094 59.3408C37.5671 59.1455 37.4759 58.9876 37.3359 58.8672C37.1992 58.7435 37.0007 58.6768 36.7402 58.667L35.6367 58.6621L34.5332 65H33.6592L34.8896 57.8906ZM36.9893 65L36.1787 61.7773L37.043 61.7725L37.9316 64.9365L37.9268 65H36.9893ZM42.6289 62.7441L43.4834 62.7344C43.4183 63.1934 43.2799 63.6035 43.0684 63.9648C42.86 64.3262 42.5801 64.6094 42.2285 64.8145C41.8802 65.0163 41.4603 65.1107 40.9688 65.0977C40.5684 65.0879 40.2396 64.9902 39.9824 64.8047C39.7285 64.6191 39.5332 64.3783 39.3965 64.082C39.263 63.7858 39.18 63.4652 39.1475 63.1201C39.1149 62.7718 39.1198 62.4316 39.1621 62.0996L39.3672 60.7861C39.4258 60.415 39.5234 60.0505 39.6602 59.6924C39.7969 59.3311 39.9792 59.0055 40.207 58.7158C40.4349 58.4261 40.71 58.1982 41.0322 58.0322C41.3545 57.863 41.7288 57.7832 42.1553 57.793C42.6208 57.8027 42.9886 57.9183 43.2588 58.1396C43.5322 58.361 43.7243 58.6507 43.835 59.0088C43.9456 59.3669 43.9928 59.7559 43.9766 60.1758L43.0977 60.1709C43.1074 59.9137 43.0928 59.6647 43.0537 59.4238C43.0179 59.1797 42.9284 58.9779 42.7852 58.8184C42.6419 58.6556 42.4141 58.5693 42.1016 58.5596C41.7956 58.5498 41.5335 58.6117 41.3154 58.7451C41.0973 58.8753 40.9167 59.0511 40.7734 59.2725C40.6302 59.4938 40.5163 59.7363 40.4316 60C40.347 60.2637 40.2852 60.5225 40.2461 60.7764L40.041 62.1045C40.0117 62.3096 39.9938 62.5374 39.9873 62.7881C39.984 63.0387 40.0101 63.2796 40.0654 63.5107C40.1208 63.7419 40.2233 63.9339 40.373 64.0869C40.5228 64.2399 40.7376 64.3229 41.0176 64.3359C41.3691 64.349 41.6507 64.2855 41.8623 64.1455C42.0739 64.0055 42.2383 63.8135 42.3555 63.5693C42.4727 63.3219 42.5638 63.0469 42.6289 62.7441ZM48.752 60.9473L48.6152 61.7139H45.6172L45.7539 60.9473H48.752ZM46.4082 57.8906L45.1729 65H44.2988L45.5293 57.8906H46.4082ZM50.0508 57.8906L48.8154 65H47.9414L49.1719 57.8906H50.0508ZM55.9443 58.5693L52.9609 65H52.0332L55.4902 57.8906H56.0713L55.9443 58.5693ZM56.3643 65L55.5977 58.4668L55.6904 57.8906H56.2422L57.2285 65H56.3643ZM56.8135 62.3682L56.6768 63.1396H53.3467L53.4834 62.3682H56.8135ZM63.9326 57.8906L62.7021 65H61.8428L60.0215 59.4775L59.0645 65H58.1855L59.416 57.8906H60.2705L62.1016 63.4277L63.0635 57.8906H63.9326ZM65.8223 65H64.5869L64.7334 64.2334L65.8467 64.2383C66.3024 64.2415 66.6816 64.1488 66.9844 63.96C67.2871 63.7679 67.5247 63.5075 67.6973 63.1787C67.8698 62.8467 67.9886 62.4707 68.0537 62.0508L68.2344 60.8301C68.2702 60.5729 68.2832 60.319 68.2734 60.0684C68.2637 59.8145 68.2181 59.5833 68.1367 59.375C68.0553 59.1667 67.9235 58.999 67.7412 58.8721C67.5589 58.7451 67.3115 58.6768 66.999 58.667L65.6611 58.6621L65.7979 57.8906L67.0234 57.8955C67.4434 57.9053 67.7982 57.9932 68.0879 58.1592C68.3776 58.3219 68.6055 58.5417 68.7715 58.8184C68.9375 59.0918 69.0465 59.4027 69.0986 59.751C69.1507 60.0993 69.1523 60.4639 69.1035 60.8447L68.9229 62.0508C68.8577 62.4772 68.7454 62.8711 68.5859 63.2324C68.4264 63.5938 68.2181 63.9079 67.9609 64.1748C67.7038 64.4385 67.3962 64.6436 67.0381 64.79C66.6833 64.9333 66.278 65.0033 65.8223 65ZM66.3105 57.8906L65.0752 65H64.2012L65.4316 57.8906H66.3105ZM12.082 76.2334L11.9453 77H8.94727L9.08398 76.2334H12.082ZM10.3438 69.8906L9.1084 77H8.23438L9.46484 69.8906H10.3438ZM12.248 72.9473L12.1162 73.7139H9.51855L9.65527 72.9473H12.248ZM13.1367 69.8906L13 70.6621H10.0459L10.1826 69.8906H13.1367ZM14.8359 69.8906L15.7148 72.6104L17.4385 69.8906H18.5029L16.125 73.4551L17.3799 77H16.3984L15.5098 74.2266L13.7471 77H12.668L15.0996 73.3672L13.8643 69.8906H14.8359ZM21.1494 74.2168L19.582 74.2119L19.7188 73.4453L21.1787 73.4551C21.4684 73.4518 21.7158 73.39 21.9209 73.2695C22.1292 73.1458 22.2952 72.9782 22.4189 72.7666C22.5426 72.5518 22.6208 72.306 22.6533 72.0293C22.6794 71.8079 22.6696 71.5964 22.624 71.3945C22.5785 71.1895 22.4857 71.0202 22.3457 70.8867C22.209 70.7533 22.0153 70.68 21.7646 70.667L20.3877 70.6621L19.2842 77H18.4102L19.6406 69.8906L21.7842 69.8955C22.1911 69.9085 22.5296 70.0111 22.7998 70.2031C23.0732 70.3919 23.2718 70.6442 23.3955 70.96C23.5192 71.2757 23.5632 71.6289 23.5273 72.0195C23.4883 72.472 23.3662 72.8626 23.1611 73.1914C22.9593 73.5202 22.6875 73.7741 22.3457 73.9531C22.0039 74.1322 21.6051 74.2201 21.1494 74.2168ZM27.6387 76.2334L27.502 77H24.5039L24.6406 76.2334H27.6387ZM25.9004 69.8906L24.665 77H23.791L25.0215 69.8906H25.9004ZM27.8047 72.9473L27.6729 73.7139H25.0752L25.2119 72.9473H27.8047ZM28.6934 69.8906L28.5566 70.6621H25.6025L25.7393 69.8906H28.6934ZM29.8506 69.8906L31.7207 69.8955C32.1406 69.9085 32.4857 70.0046 32.7559 70.1836C33.0293 70.3594 33.2246 70.6019 33.3418 70.9111C33.4622 71.2171 33.5046 71.5752 33.4688 71.9854C33.4395 72.3206 33.3548 72.6217 33.2148 72.8887C33.0781 73.1556 32.8926 73.3835 32.6582 73.5723C32.4271 73.7611 32.1553 73.9108 31.8428 74.0215L31.5889 74.1191H29.8115L29.9336 73.3525L31.125 73.3623C31.3984 73.359 31.6393 73.2988 31.8477 73.1816C32.056 73.0612 32.2236 72.8968 32.3506 72.6885C32.4808 72.4801 32.5605 72.2441 32.5898 71.9805C32.6191 71.7493 32.6126 71.5361 32.5703 71.3408C32.528 71.1455 32.4368 70.9876 32.2969 70.8672C32.1602 70.7435 31.9616 70.6768 31.7012 70.667L30.5977 70.6621L29.4941 77H28.6201L29.8506 69.8906ZM31.9502 77L31.1396 73.7773L32.0039 73.7725L32.8926 76.9365L32.8877 77H31.9502ZM35.9102 69.8906L34.6748 77H33.7959L35.0312 69.8906H35.9102ZM40.041 76.2334L39.9043 77H36.9062L37.043 76.2334H40.041ZM38.3027 69.8906L37.0674 77H36.1934L37.4238 69.8906H38.3027ZM40.207 72.9473L40.0752 73.7139H37.4775L37.6143 72.9473H40.207ZM41.0957 69.8906L40.959 70.6621H38.0049L38.1416 69.8906H41.0957ZM46.7646 69.8906L45.5342 77H44.6748L42.8535 71.4775L41.8965 77H41.0176L42.248 69.8906H43.1025L44.9336 75.4277L45.8955 69.8906H46.7646ZM50.8613 74.7441L51.7158 74.7344C51.6507 75.1934 51.5124 75.6035 51.3008 75.9648C51.0924 76.3262 50.8125 76.6094 50.4609 76.8145C50.1126 77.0163 49.6927 77.1107 49.2012 77.0977C48.8008 77.0879 48.472 76.9902 48.2148 76.8047C47.9609 76.6191 47.7656 76.3783 47.6289 76.082C47.4954 75.7858 47.4124 75.4652 47.3799 75.1201C47.3473 74.7718 47.3522 74.4316 47.3945 74.0996L47.5996 72.7861C47.6582 72.415 47.7559 72.0505 47.8926 71.6924C48.0293 71.3311 48.2116 71.0055 48.4395 70.7158C48.6673 70.4261 48.9424 70.1982 49.2646 70.0322C49.5869 69.863 49.9613 69.7832 50.3877 69.793C50.8532 69.8027 51.221 69.9183 51.4912 70.1396C51.7646 70.361 51.9567 70.6507 52.0674 71.0088C52.1781 71.3669 52.2253 71.7559 52.209 72.1758L51.3301 72.1709C51.3398 71.9137 51.3252 71.6647 51.2861 71.4238C51.2503 71.1797 51.1608 70.9779 51.0176 70.8184C50.8743 70.6556 50.6465 70.5693 50.334 70.5596C50.028 70.5498 49.766 70.6117 49.5479 70.7451C49.3298 70.8753 49.1491 71.0511 49.0059 71.2725C48.8626 71.4938 48.7487 71.7363 48.6641 72C48.5794 72.2637 48.5176 72.5225 48.4785 72.7764L48.2734 74.1045C48.2441 74.3096 48.2262 74.5374 48.2197 74.7881C48.2165 75.0387 48.2425 75.2796 48.2979 75.5107C48.3532 75.7419 48.4557 75.9339 48.6055 76.0869C48.7552 76.2399 48.9701 76.3229 49.25 76.3359C49.6016 76.349 49.8831 76.2855 50.0947 76.1455C50.3063 76.0055 50.4707 75.8135 50.5879 75.5693C50.7051 75.3219 50.7962 75.0469 50.8613 74.7441ZM56.3789 76.2334L56.2422 77H53.2441L53.3809 76.2334H56.3789ZM54.6406 69.8906L53.4053 77H52.5312L53.7617 69.8906H54.6406ZM56.5449 72.9473L56.4131 73.7139H53.8154L53.9521 72.9473H56.5449ZM57.4336 69.8906L57.2969 70.6621H54.3428L54.4795 69.8906H57.4336Z" fill="#F0EAE1"/>
</svg>
