<svg width="82" height="111" viewBox="0 0 82 111" fill="none" xmlns="http://www.w3.org/2000/svg">
<path d="M19.9996 110.628C8.95415 110.561 0.0509625 101.553 0.113828 90.5074L0.606185 3.99992C0.618758 1.79081 2.41978 0.0108457 4.62888 0.0242543L61.8483 0.37156C72.8938 0.438604 81.797 9.44711 81.7341 20.4926L81.2418 107C81.2292 109.209 79.4282 110.989 77.2191 110.976L19.9996 110.628Z" fill="#95A6B5"/>
<path d="M24.2539 45.1055L23.7969 48H13.918L14.3281 45.4102L19.5664 39.7148C19.8711 39.3555 20.1797 38.9688 20.4922 38.5547C20.8125 38.1406 21.0898 37.7031 21.3242 37.2422C21.5664 36.7734 21.7188 36.3008 21.7812 35.8242C21.8125 35.5664 21.8281 35.2617 21.8281 34.9102C21.8359 34.5508 21.7734 34.2383 21.6406 33.9727C21.5078 33.6992 21.25 33.5586 20.8672 33.5508C20.3984 33.5352 20.0352 33.6914 19.7773 34.0195C19.5273 34.3398 19.3477 34.7227 19.2383 35.168C19.1289 35.6133 19.0547 36.0078 19.0156 36.3516L15.5586 36.3633C15.6211 35.3477 15.8945 34.4062 16.3789 33.5391C16.8711 32.6719 17.5273 31.9766 18.3477 31.4531C19.168 30.9219 20.1133 30.6641 21.1836 30.6797C22.1523 30.6953 22.9609 30.9102 23.6094 31.3242C24.2656 31.7383 24.7461 32.3086 25.0508 33.0352C25.3633 33.7539 25.4805 34.582 25.4023 35.5195C25.3398 36.2148 25.168 36.8711 24.8867 37.4883C24.6133 38.0977 24.2773 38.6719 23.8789 39.2109C23.4805 39.75 23.0469 40.2734 22.5781 40.7812C22.1094 41.2812 21.6523 41.7734 21.207 42.2578L18.9688 45.0938L24.2539 45.1055ZM28.8781 40.3008L26.0656 39.5859L28.2688 30.9375H36.4953L36.0266 33.8906H30.7063L29.7219 37.418C29.9953 37.2305 30.2922 37.082 30.6125 36.9727C30.9328 36.8633 31.257 36.8008 31.5852 36.7852C32.3664 36.793 33.0031 36.9688 33.4953 37.3125C33.9953 37.6484 34.3781 38.0977 34.6438 38.6602C34.9172 39.2148 35.0969 39.8242 35.1828 40.4883C35.2766 41.1523 35.2961 41.7969 35.2414 42.4219C35.1789 43.1875 35.0031 43.9219 34.7141 44.625C34.425 45.3281 34.0383 45.957 33.5539 46.5117C33.0695 47.0586 32.4953 47.4922 31.8313 47.8125C31.175 48.125 30.4406 48.2695 29.6281 48.2461C28.925 48.2305 28.2961 48.0859 27.7414 47.8125C27.1867 47.5312 26.7141 47.1562 26.3234 46.6875C25.9406 46.2188 25.6516 45.6836 25.4563 45.082C25.2688 44.4805 25.1828 43.8477 25.1984 43.1836H28.6672C28.6672 43.4648 28.6906 43.7695 28.7375 44.0977C28.7844 44.418 28.8898 44.6992 29.0539 44.9414C29.218 45.1836 29.4797 45.3125 29.8391 45.3281C30.2297 45.3438 30.5461 45.2461 30.7883 45.0352C31.0305 44.8164 31.218 44.5391 31.3508 44.2031C31.4836 43.8672 31.5813 43.5195 31.6438 43.1602C31.7063 42.793 31.7453 42.4727 31.7609 42.1992C31.7844 41.9414 31.7961 41.6523 31.7961 41.332C31.8039 41.0117 31.7688 40.707 31.6906 40.418C31.6125 40.1289 31.4758 39.8906 31.2805 39.7031C31.093 39.5156 30.8234 39.4219 30.4719 39.4219C30.1281 39.4219 29.8234 39.5039 29.5578 39.668C29.3 39.8242 29.0734 40.0352 28.8781 40.3008ZM46.2172 41.4492L45.7133 44.3438H35.6117L35.8344 41.8945L43.1586 30.9375H46.0766L42.2563 36.3516L39.2914 41.4375L46.2172 41.4492ZM46.7211 30.9375L43.768 48H40.2758L43.2289 30.9375H46.7211ZM56.6727 29.9883L53.5438 48H50.0633L53.1922 29.9883H56.6727ZM62.4031 35.3203L56.8016 41.8477L53.8484 44.6836L52.8289 41.9766L55.3367 38.9766L58.032 35.3203H62.4031ZM56.4734 48L54.9266 42.0586L57.6336 40.0898L60.2938 48H56.4734Z" fill="#F0EAE1"/>
<path d="M12.6875 60.9473L12.5508 61.7139H9.55273L9.68945 60.9473H12.6875ZM10.3438 57.8906L9.1084 65H8.23438L9.46484 57.8906H10.3438ZM13.9863 57.8906L12.751 65H11.877L13.1074 57.8906H13.9863ZM17.6924 58.5693L14.709 65H13.7812L17.2383 57.8906H17.8193L17.6924 58.5693ZM18.1123 65L17.3457 58.4668L17.4385 57.8906H17.9902L18.9766 65H18.1123ZM18.5615 62.3682L18.4248 63.1396H15.0947L15.2314 62.3682H18.5615ZM22.6729 62.2168L21.1055 62.2119L21.2422 61.4453L22.7021 61.4551C22.9919 61.4518 23.2393 61.39 23.4443 61.2695C23.6527 61.1458 23.8187 60.9782 23.9424 60.7666C24.0661 60.5518 24.1442 60.306 24.1768 60.0293C24.2028 59.8079 24.193 59.5964 24.1475 59.3945C24.1019 59.1895 24.0091 59.0202 23.8691 58.8867C23.7324 58.7533 23.5387 58.68 23.2881 58.667L21.9111 58.6621L20.8076 65H19.9336L21.1641 57.8906L23.3076 57.8955C23.7145 57.9085 24.0531 58.0111 24.3232 58.2031C24.5967 58.3919 24.7952 58.6442 24.9189 58.96C25.0426 59.2757 25.0866 59.6289 25.0508 60.0195C25.0117 60.472 24.8896 60.8626 24.6846 61.1914C24.4827 61.5202 24.2109 61.7741 23.8691 61.9531C23.5273 62.1322 23.1286 62.2201 22.6729 62.2168ZM28.0537 62.2168L26.4863 62.2119L26.623 61.4453L28.083 61.4551C28.3727 61.4518 28.6201 61.39 28.8252 61.2695C29.0335 61.1458 29.1995 60.9782 29.3232 60.7666C29.4469 60.5518 29.5251 60.306 29.5576 60.0293C29.5837 59.8079 29.5739 59.5964 29.5283 59.3945C29.4827 59.1895 29.39 59.0202 29.25 58.8867C29.1133 58.7533 28.9196 58.68 28.6689 58.667L27.292 58.6621L26.1885 65H25.3145L26.5449 57.8906L28.6885 57.8955C29.0954 57.9085 29.4339 58.0111 29.7041 58.2031C29.9775 58.3919 30.1761 58.6442 30.2998 58.96C30.4235 59.2757 30.4674 59.6289 30.4316 60.0195C30.3926 60.472 30.2705 60.8626 30.0654 61.1914C29.8636 61.5202 29.5918 61.7741 29.25 61.9531C28.9082 62.1322 28.5094 62.2201 28.0537 62.2168ZM32.3018 57.8906L33.083 61.4502L35.1143 57.8906H36.1494L33.3809 62.3975L32.9316 65H32.0527L32.5264 62.29L31.3496 57.8906H32.3018ZM41.8965 62.7441L42.751 62.7344C42.6859 63.1934 42.5475 63.6035 42.3359 63.9648C42.1276 64.3262 41.8477 64.6094 41.4961 64.8145C41.1478 65.0163 40.7279 65.1107 40.2363 65.0977C39.8359 65.0879 39.5072 64.9902 39.25 64.8047C38.9961 64.6191 38.8008 64.3783 38.6641 64.082C38.5306 63.7858 38.4476 63.4652 38.415 63.1201C38.3825 62.7718 38.3874 62.4316 38.4297 62.0996L38.6348 60.7861C38.6934 60.415 38.791 60.0505 38.9277 59.6924C39.0645 59.3311 39.2467 59.0055 39.4746 58.7158C39.7025 58.4261 39.9775 58.1982 40.2998 58.0322C40.6221 57.863 40.9964 57.7832 41.4229 57.793C41.8883 57.8027 42.2562 57.9183 42.5264 58.1396C42.7998 58.361 42.9919 58.6507 43.1025 59.0088C43.2132 59.3669 43.2604 59.7559 43.2441 60.1758L42.3652 60.1709C42.375 59.9137 42.3604 59.6647 42.3213 59.4238C42.2855 59.1797 42.196 58.9779 42.0527 58.8184C41.9095 58.6556 41.6816 58.5693 41.3691 58.5596C41.0632 58.5498 40.8011 58.6117 40.583 58.7451C40.3649 58.8753 40.1842 59.0511 40.041 59.2725C39.8978 59.4938 39.7839 59.7363 39.6992 60C39.6146 60.2637 39.5527 60.5225 39.5137 60.7764L39.3086 62.1045C39.2793 62.3096 39.2614 62.5374 39.2549 62.7881C39.2516 63.0387 39.2777 63.2796 39.333 63.5107C39.3883 63.7419 39.4909 63.9339 39.6406 64.0869C39.7904 64.2399 40.0052 64.3229 40.2852 64.3359C40.6367 64.349 40.9183 64.2855 41.1299 64.1455C41.3415 64.0055 41.5059 63.8135 41.623 63.5693C41.7402 63.3219 41.8314 63.0469 41.8965 62.7441ZM47.2822 64.2334L47.1455 65H44.2793L44.416 64.2334H47.2822ZM45.6758 57.8906L44.4404 65H43.5664L44.7969 57.8906H45.6758ZM50.334 57.8906L49.0986 65H48.2197L49.4551 57.8906H50.334ZM54.4648 64.2334L54.3281 65H51.3301L51.4668 64.2334H54.4648ZM52.7266 57.8906L51.4912 65H50.6172L51.8477 57.8906H52.7266ZM54.6309 60.9473L54.499 61.7139H51.9014L52.0381 60.9473H54.6309ZM55.5195 57.8906L55.3828 58.6621H52.4287L52.5654 57.8906H55.5195ZM61.1885 57.8906L59.958 65H59.0986L57.2773 59.4775L56.3203 65H55.4414L56.6719 57.8906H57.5264L59.3574 63.4277L60.3193 57.8906H61.1885ZM64.7676 57.8906L63.5322 65H62.6631L63.8984 57.8906H64.7676ZM66.5791 57.8906L66.4424 58.6621H61.9502L62.0869 57.8906H66.5791ZM69.6113 63.1641C69.6341 62.9753 69.6243 62.8125 69.582 62.6758C69.543 62.5358 69.4762 62.4154 69.3818 62.3145C69.2874 62.2135 69.1735 62.124 69.04 62.0459C68.9066 61.9678 68.7601 61.8945 68.6006 61.8262C68.3727 61.7285 68.1595 61.6162 67.9609 61.4893C67.7656 61.3623 67.5947 61.2174 67.4482 61.0547C67.305 60.8887 67.196 60.6999 67.1211 60.4883C67.0495 60.2767 67.0251 60.0358 67.0479 59.7656C67.0706 59.4727 67.1439 59.2041 67.2676 58.96C67.3913 58.7158 67.5524 58.5059 67.751 58.3301C67.9528 58.1543 68.1823 58.0192 68.4395 57.9248C68.6999 57.8304 68.9749 57.7865 69.2646 57.793C69.6715 57.8027 70.0117 57.9069 70.2852 58.1055C70.5618 58.3008 70.7669 58.5612 70.9004 58.8867C71.0339 59.209 71.0876 59.5605 71.0615 59.9414H70.1826C70.2021 59.707 70.1859 59.4857 70.1338 59.2773C70.085 59.069 69.9873 58.8997 69.8408 58.7695C69.6943 58.6393 69.486 58.571 69.2158 58.5645C68.9749 58.5579 68.7617 58.6068 68.5762 58.7109C68.3939 58.8118 68.2458 58.9535 68.1318 59.1357C68.0212 59.318 67.9528 59.5247 67.9268 59.7559C67.904 59.9251 67.917 60.0749 67.9658 60.2051C68.0146 60.332 68.0863 60.446 68.1807 60.5469C68.2783 60.6445 68.3906 60.7308 68.5176 60.8057C68.6478 60.8805 68.7812 60.9473 68.918 61.0059C69.1686 61.11 69.3949 61.2272 69.5967 61.3574C69.7985 61.4876 69.9694 61.6374 70.1094 61.8066C70.2526 61.9759 70.3568 62.1712 70.4219 62.3926C70.4902 62.6139 70.5114 62.8695 70.4854 63.1592C70.4593 63.4619 70.3828 63.7354 70.2559 63.9795C70.1289 64.2204 69.9629 64.4255 69.7578 64.5947C69.5527 64.764 69.3184 64.8926 69.0547 64.9805C68.791 65.0651 68.5094 65.1042 68.21 65.0977C67.904 65.0911 67.6289 65.0326 67.3848 64.9219C67.1406 64.8079 66.9339 64.6533 66.7646 64.458C66.5954 64.2594 66.4701 64.0316 66.3887 63.7744C66.3073 63.514 66.2747 63.234 66.291 62.9346L67.1699 62.9395C67.1536 63.1283 67.1618 63.3073 67.1943 63.4766C67.2301 63.6426 67.292 63.7891 67.3799 63.916C67.4678 64.043 67.5833 64.1439 67.7266 64.2188C67.873 64.2904 68.0505 64.3278 68.2588 64.3311C68.5029 64.3376 68.721 64.2936 68.9131 64.1992C69.1051 64.1048 69.2614 63.9697 69.3818 63.7939C69.5055 63.6149 69.582 63.4049 69.6113 63.1641ZM10.3828 69.8906L9.14746 77H8.26855L9.50391 69.8906H10.3828ZM16.4131 69.8906L15.1826 77H14.3232L12.502 71.4775L11.5449 77H10.666L11.8965 69.8906H12.751L14.582 75.4277L15.5439 69.8906H16.4131ZM21.6963 74.2168L20.1289 74.2119L20.2656 73.4453L21.7256 73.4551C22.0153 73.4518 22.2627 73.39 22.4678 73.2695C22.6761 73.1458 22.8421 72.9782 22.9658 72.7666C23.0895 72.5518 23.1676 72.306 23.2002 72.0293C23.2262 71.8079 23.2165 71.5964 23.1709 71.3945C23.1253 71.1895 23.0326 71.0202 22.8926 70.8867C22.7559 70.7533 22.5622 70.68 22.3115 70.667L20.9346 70.6621L19.8311 77H18.957L20.1875 69.8906L22.3311 69.8955C22.738 69.9085 23.0765 70.0111 23.3467 70.2031C23.6201 70.3919 23.8187 70.6442 23.9424 70.96C24.0661 71.2757 24.11 71.6289 24.0742 72.0195C24.0352 72.472 23.9131 72.8626 23.708 73.1914C23.5062 73.5202 23.2344 73.7741 22.8926 73.9531C22.5508 74.1322 22.152 74.2201 21.6963 74.2168ZM25.5732 69.8906L27.4434 69.8955C27.8633 69.9085 28.2083 70.0046 28.4785 70.1836C28.752 70.3594 28.9473 70.6019 29.0645 70.9111C29.1849 71.2171 29.2272 71.5752 29.1914 71.9854C29.1621 72.3206 29.0775 72.6217 28.9375 72.8887C28.8008 73.1556 28.6152 73.3835 28.3809 73.5723C28.1497 73.7611 27.8779 73.9108 27.5654 74.0215L27.3115 74.1191H25.5342L25.6562 73.3525L26.8477 73.3623C27.1211 73.359 27.362 73.2988 27.5703 73.1816C27.7786 73.0612 27.9463 72.8968 28.0732 72.6885C28.2035 72.4801 28.2832 72.2441 28.3125 71.9805C28.3418 71.7493 28.3353 71.5361 28.293 71.3408C28.2507 71.1455 28.1595 70.9876 28.0195 70.8672C27.8828 70.7435 27.6842 70.6768 27.4238 70.667L26.3203 70.6621L25.2168 77H24.3428L25.5732 69.8906ZM27.6729 77L26.8623 73.7773L27.7266 73.7725L28.6152 76.9365L28.6104 77H27.6729ZM34.6846 72.8301L34.4941 74.0605C34.4355 74.4447 34.3395 74.819 34.2061 75.1836C34.0758 75.5482 33.9001 75.877 33.6787 76.1699C33.4606 76.4629 33.1888 76.694 32.8633 76.8633C32.541 77.0326 32.1602 77.1107 31.7207 77.0977C31.304 77.0879 30.9639 76.9919 30.7002 76.8096C30.4365 76.624 30.2363 76.3848 30.0996 76.0918C29.9629 75.7956 29.8766 75.4717 29.8408 75.1201C29.8083 74.7653 29.8148 74.4137 29.8604 74.0654L30.0508 72.8301C30.1061 72.4525 30.2005 72.0814 30.334 71.7168C30.4674 71.3522 30.6449 71.0234 30.8662 70.7305C31.0908 70.4342 31.3643 70.2015 31.6865 70.0322C32.012 69.8597 32.3929 69.7799 32.8291 69.793C33.249 69.8027 33.5908 69.8988 33.8545 70.0811C34.1182 70.2633 34.3184 70.5026 34.4551 70.7988C34.5918 71.0918 34.6748 71.4157 34.7041 71.7705C34.7367 72.1253 34.7301 72.4785 34.6846 72.8301ZM33.6299 74.0654L33.8203 72.8105C33.8496 72.5859 33.8659 72.3483 33.8691 72.0977C33.8724 71.8438 33.8431 71.6045 33.7812 71.3799C33.7227 71.1553 33.6136 70.9697 33.4541 70.8232C33.2979 70.6768 33.0716 70.5986 32.7754 70.5889C32.4629 70.5758 32.1976 70.6361 31.9795 70.7695C31.7614 70.8997 31.5791 71.0771 31.4326 71.3018C31.2894 71.5231 31.1771 71.7673 31.0957 72.0342C31.0143 72.2979 30.9541 72.5599 30.915 72.8203L30.7295 74.0703C30.7002 74.2884 30.6839 74.5244 30.6807 74.7783C30.6807 75.029 30.71 75.2682 30.7686 75.4961C30.8304 75.724 30.9395 75.9128 31.0957 76.0625C31.2552 76.2122 31.4798 76.2936 31.7695 76.3066C32.0885 76.3164 32.3571 76.2562 32.5752 76.126C32.7965 75.9958 32.9772 75.82 33.1172 75.5986C33.2604 75.3773 33.3711 75.1331 33.4492 74.8662C33.5306 74.596 33.5908 74.3291 33.6299 74.0654ZM40.2461 73.46L39.8359 76.1064C39.6634 76.3408 39.4583 76.5312 39.2207 76.6777C38.9863 76.8242 38.7324 76.9316 38.459 77C38.1888 77.0684 37.9121 77.1009 37.6289 77.0977C37.2122 77.0911 36.8656 77.0016 36.5889 76.8291C36.3154 76.6533 36.1038 76.4222 35.9541 76.1357C35.8044 75.846 35.7083 75.5254 35.666 75.1738C35.6237 74.8223 35.627 74.4674 35.6758 74.1094L35.8809 72.7764C35.9362 72.3825 36.029 72.0049 36.1592 71.6436C36.2894 71.2822 36.4635 70.9616 36.6816 70.6816C36.8997 70.3984 37.1699 70.1771 37.4922 70.0176C37.8177 69.8581 38.2035 69.7832 38.6494 69.793C39.0856 69.8027 39.4421 69.9036 39.7188 70.0957C39.9987 70.2878 40.2038 70.5465 40.334 70.8721C40.4642 71.1976 40.526 71.5654 40.5195 71.9756L39.6455 71.9707C39.6488 71.7266 39.6211 71.5003 39.5625 71.292C39.5039 71.0804 39.3981 70.9095 39.2451 70.7793C39.0921 70.6458 38.8773 70.5742 38.6006 70.5645C38.2816 70.5514 38.0114 70.6084 37.79 70.7354C37.5719 70.859 37.3929 71.0299 37.2529 71.248C37.1162 71.4629 37.0088 71.7038 36.9307 71.9707C36.8525 72.2344 36.7939 72.4997 36.7549 72.7666L36.5498 74.1143C36.5205 74.3356 36.5075 74.5732 36.5107 74.8271C36.514 75.0811 36.5498 75.3219 36.6182 75.5498C36.6898 75.7744 36.8086 75.96 36.9746 76.1064C37.1406 76.2497 37.3701 76.3229 37.6631 76.3262C37.8356 76.3294 37.9935 76.3132 38.1367 76.2773C38.2832 76.2415 38.4215 76.1895 38.5518 76.1211C38.6852 76.0495 38.8187 75.9632 38.9521 75.8623L39.25 74.2217H37.9805L38.1172 73.46H40.2461ZM42.2822 69.8906L44.1523 69.8955C44.5723 69.9085 44.9173 70.0046 45.1875 70.1836C45.4609 70.3594 45.6562 70.6019 45.7734 70.9111C45.8939 71.2171 45.9362 71.5752 45.9004 71.9854C45.8711 72.3206 45.7865 72.6217 45.6465 72.8887C45.5098 73.1556 45.3242 73.3835 45.0898 73.5723C44.8587 73.7611 44.5869 73.9108 44.2744 74.0215L44.0205 74.1191H42.2432L42.3652 73.3525L43.5566 73.3623C43.8301 73.359 44.071 73.2988 44.2793 73.1816C44.4876 73.0612 44.6553 72.8968 44.7822 72.6885C44.9124 72.4801 44.9922 72.2441 45.0215 71.9805C45.0508 71.7493 45.0443 71.5361 45.002 71.3408C44.9596 71.1455 44.8685 70.9876 44.7285 70.8672C44.5918 70.7435 44.3932 70.6768 44.1328 70.667L43.0293 70.6621L41.9258 77H41.0518L42.2822 69.8906ZM44.3818 77L43.5713 73.7773L44.4355 73.7725L45.3242 76.9365L45.3193 77H44.3818ZM50.041 76.2334L49.9043 77H46.9062L47.043 76.2334H50.041ZM48.3027 69.8906L47.0674 77H46.1934L47.4238 69.8906H48.3027ZM50.207 72.9473L50.0752 73.7139H47.4775L47.6143 72.9473H50.207ZM51.0957 69.8906L50.959 70.6621H48.0049L48.1416 69.8906H51.0957ZM54.3477 75.1641C54.3704 74.9753 54.3607 74.8125 54.3184 74.6758C54.2793 74.5358 54.2126 74.4154 54.1182 74.3145C54.0238 74.2135 53.9098 74.124 53.7764 74.0459C53.6429 73.9678 53.4964 73.8945 53.3369 73.8262C53.109 73.7285 52.8958 73.6162 52.6973 73.4893C52.502 73.3623 52.3311 73.2174 52.1846 73.0547C52.0413 72.8887 51.9323 72.6999 51.8574 72.4883C51.7858 72.2767 51.7614 72.0358 51.7842 71.7656C51.807 71.4727 51.8802 71.2041 52.0039 70.96C52.1276 70.7158 52.2887 70.5059 52.4873 70.3301C52.6891 70.1543 52.9186 70.0192 53.1758 69.9248C53.4362 69.8304 53.7113 69.7865 54.001 69.793C54.4079 69.8027 54.748 69.9069 55.0215 70.1055C55.2982 70.3008 55.5033 70.5612 55.6367 70.8867C55.7702 71.209 55.8239 71.5605 55.7979 71.9414H54.9189C54.9385 71.707 54.9222 71.4857 54.8701 71.2773C54.8213 71.069 54.7236 70.8997 54.5771 70.7695C54.4307 70.6393 54.2223 70.571 53.9521 70.5645C53.7113 70.5579 53.498 70.6068 53.3125 70.7109C53.1302 70.8118 52.9821 70.9535 52.8682 71.1357C52.7575 71.318 52.6891 71.5247 52.6631 71.7559C52.6403 71.9251 52.6533 72.0749 52.7021 72.2051C52.751 72.332 52.8226 72.446 52.917 72.5469C53.0146 72.6445 53.127 72.7308 53.2539 72.8057C53.3841 72.8805 53.5176 72.9473 53.6543 73.0059C53.9049 73.11 54.1312 73.2272 54.333 73.3574C54.5348 73.4876 54.7057 73.6374 54.8457 73.8066C54.9889 73.9759 55.0931 74.1712 55.1582 74.3926C55.2266 74.6139 55.2477 74.8695 55.2217 75.1592C55.1956 75.4619 55.1191 75.7354 54.9922 75.9795C54.8652 76.2204 54.6992 76.4255 54.4941 76.5947C54.2891 76.764 54.0547 76.8926 53.791 76.9805C53.5273 77.0651 53.2458 77.1042 52.9463 77.0977C52.6403 77.0911 52.3652 77.0326 52.1211 76.9219C51.877 76.8079 51.6702 76.6533 51.501 76.458C51.3317 76.2594 51.2064 76.0316 51.125 75.7744C51.0436 75.514 51.0111 75.234 51.0273 74.9346L51.9062 74.9395C51.89 75.1283 51.8981 75.3073 51.9307 75.4766C51.9665 75.6426 52.0283 75.7891 52.1162 75.916C52.2041 76.043 52.3197 76.1439 52.4629 76.2188C52.6094 76.2904 52.7868 76.3278 52.9951 76.3311C53.2393 76.3376 53.4574 76.2936 53.6494 76.1992C53.8415 76.1048 53.9977 75.9697 54.1182 75.7939C54.2419 75.6149 54.3184 75.4049 54.3477 75.1641ZM59.377 75.1641C59.3997 74.9753 59.39 74.8125 59.3477 74.6758C59.3086 74.5358 59.2419 74.4154 59.1475 74.3145C59.0531 74.2135 58.9391 74.124 58.8057 74.0459C58.6722 73.9678 58.5257 73.8945 58.3662 73.8262C58.1383 73.7285 57.9251 73.6162 57.7266 73.4893C57.5312 73.3623 57.3604 73.2174 57.2139 73.0547C57.0706 72.8887 56.9616 72.6999 56.8867 72.4883C56.8151 72.2767 56.7907 72.0358 56.8135 71.7656C56.8363 71.4727 56.9095 71.2041 57.0332 70.96C57.1569 70.7158 57.318 70.5059 57.5166 70.3301C57.7184 70.1543 57.9479 70.0192 58.2051 69.9248C58.4655 69.8304 58.7406 69.7865 59.0303 69.793C59.4372 69.8027 59.7773 69.9069 60.0508 70.1055C60.3275 70.3008 60.5326 70.5612 60.666 70.8867C60.7995 71.209 60.8532 71.5605 60.8271 71.9414H59.9482C59.9678 71.707 59.9515 71.4857 59.8994 71.2773C59.8506 71.069 59.7529 70.8997 59.6064 70.7695C59.46 70.6393 59.2516 70.571 58.9814 70.5645C58.7406 70.5579 58.5273 70.6068 58.3418 70.7109C58.1595 70.8118 58.0114 70.9535 57.8975 71.1357C57.7868 71.318 57.7184 71.5247 57.6924 71.7559C57.6696 71.9251 57.6826 72.0749 57.7314 72.2051C57.7803 72.332 57.8519 72.446 57.9463 72.5469C58.0439 72.6445 58.1562 72.7308 58.2832 72.8057C58.4134 72.8805 58.5469 72.9473 58.6836 73.0059C58.9342 73.11 59.1605 73.2272 59.3623 73.3574C59.5641 73.4876 59.735 73.6374 59.875 73.8066C60.0182 73.9759 60.1224 74.1712 60.1875 74.3926C60.2559 74.6139 60.277 74.8695 60.251 75.1592C60.2249 75.4619 60.1484 75.7354 60.0215 75.9795C59.8945 76.2204 59.7285 76.4255 59.5234 76.5947C59.3184 76.764 59.084 76.8926 58.8203 76.9805C58.5566 77.0651 58.2751 77.1042 57.9756 77.0977C57.6696 77.0911 57.3945 77.0326 57.1504 76.9219C56.9062 76.8079 56.6995 76.6533 56.5303 76.458C56.361 76.2594 56.2357 76.0316 56.1543 75.7744C56.0729 75.514 56.0404 75.234 56.0566 74.9346L56.9355 74.9395C56.9193 75.1283 56.9274 75.3073 56.96 75.4766C56.9958 75.6426 57.0576 75.7891 57.1455 75.916C57.2334 76.043 57.349 76.1439 57.4922 76.2188C57.6387 76.2904 57.8161 76.3278 58.0244 76.3311C58.2686 76.3376 58.4867 76.2936 58.6787 76.1992C58.8708 76.1048 59.027 75.9697 59.1475 75.7939C59.2712 75.6149 59.3477 75.4049 59.377 75.1641Z" fill="#F0EAE1"/>
</svg>
