<svg width="21" height="23" viewBox="0 0 21 23" fill="none" xmlns="http://www.w3.org/2000/svg">
<path d="M19.0577 0H1.11333C0.498393 0 0 0.544245 0 1.21576V20.8113C0 21.4825 0.498393 22.0268 1.11333 22.0268H10.7738V13.4969H8.14517V10.1727H10.7738V7.72099C10.7738 4.87587 12.3651 3.32696 14.6893 3.32696C15.8026 3.32696 16.7593 3.41721 17.0383 3.4579V6.4312L15.4263 6.43212C14.1623 6.43212 13.9177 7.08803 13.9177 8.05048V10.173H16.9322L16.5397 13.4972H13.9177V22.0268H19.058C19.6726 22.0268 20.171 21.4825 20.171 20.811V1.21576C20.171 0.544245 19.6726 0 19.0577 0Z" fill="#F0EAE1"/>
</svg>
