<svg width="20" height="22" viewBox="0 0 20 22" fill="none" xmlns="http://www.w3.org/2000/svg">
<path d="M18.5187 0H1.475C0.6625 0 0 0.710875 0 1.58537V20.4146C0 21.2919 0.6625 22 1.475 22H18.52C19.3337 22 20 21.2919 20 20.4146V1.58537C20 0.710875 19.3337 0 18.5187 0ZM5.9325 18.7467H2.96375V8.24862H5.93375V18.7467H5.9325ZM4.44875 6.81312C3.49625 6.81312 2.7275 5.96475 2.7275 4.91975C2.7275 3.87613 3.49625 3.02775 4.44875 3.02775C5.3975 3.02775 6.16875 3.87613 6.16875 4.91975C6.16875 5.96613 5.39875 6.81312 4.44875 6.81312ZM17.0413 18.7467H14.0775V13.6427C14.0775 12.4245 14.0563 10.8584 12.5363 10.8584C10.9925 10.8584 10.7575 12.1839 10.7575 13.5534V18.7481H7.79375V8.24862H10.6362V9.68275H10.6775C11.0737 8.85775 12.0412 7.98738 13.4837 7.98738C16.485 7.98738 17.04 10.1612 17.04 12.9896V18.7467H17.0413Z" fill="#F0EAE1"/>
</svg>
