<svg width="748" height="967" viewBox="0 0 748 967" fill="none" xmlns="http://www.w3.org/2000/svg">
<path fill-rule="evenodd" clip-rule="evenodd" d="M128.453 321.363C170.228 216.787 128.658 47.4436 232.76 6.9301C325.268 -29.071 430.762 92.5463 501.581 176.153C559.339 244.339 541.525 340.955 582.386 419.685C626.024 503.767 764.047 559.46 745.44 646.021C726.49 734.178 577.951 695.594 511.109 751.269C447.795 804.005 454.875 924.215 376.588 953.252C294.351 983.754 185.818 960.27 110.788 899.749C37.9295 840.979 13.4574 740.593 1.78601 650.926C-7.45467 579.933 28.7237 520.105 53.113 456.649C72.296 406.738 108.639 370.963 128.453 321.363Z" fill="#DBCBD8"/>
</svg>
