<svg width="859" height="866" viewBox="0 0 859 866" fill="none" xmlns="http://www.w3.org/2000/svg">
<path fill-rule="evenodd" clip-rule="evenodd" d="M388.338 0.345169C490.194 -0.190085 576.445 80.772 639.609 160.643C688.989 223.084 657.147 316.658 694.203 387.109C733.903 462.587 852.666 490.454 857.854 575.574C862.964 659.407 794.766 743.59 718.015 777.768C644.954 810.303 565.461 725.774 486.898 740.763C399.405 757.456 347.006 869.698 258.034 865.526C157.382 860.807 23.6748 816.579 2.70922 718.06C-19.794 612.315 144.688 554.333 169.411 449.08C191.923 353.248 89.8536 251.785 133.021 163.305C178.392 70.3066 284.837 0.889072 388.338 0.345169Z" fill="#DBCBD8"/>
</svg>
