<svg width="932" height="965" viewBox="0 0 932 965" fill="none" xmlns="http://www.w3.org/2000/svg">
<path fill-rule="evenodd" clip-rule="evenodd" d="M356.168 1.35661C467.861 -9.47495 570.632 70.6752 647.964 151.951C708.419 215.489 682.896 321.353 730.637 394.92C781.784 473.735 914.884 492.364 929.137 585.229C943.175 676.689 876.82 775.908 796.053 821.124C719.168 864.167 623.454 779.425 538.769 803.77C444.457 830.884 398.259 959.297 300.226 963.669C189.324 968.614 38.1831 933.539 5.2726 827.56C-30.0516 713.809 144.572 633.653 161.111 515.692C176.17 408.288 53.9838 307.237 92.4441 205.822C132.869 99.2284 242.669 12.3632 356.168 1.35661Z" fill="#DBCBD8"/>
</svg>
