<svg width="38" height="38" viewBox="0 0 38 38" fill="none" xmlns="http://www.w3.org/2000/svg">
<path d="M4 4C6.45106 6.04722 9.52397 7.4903 11.6531 10.2095C12.4302 11.2021 13.5392 12.328 14.5442 12.7163C15.4198 13.0546 15.9241 14.3841 16.7041 14.9701C17.9073 15.8741 18.9698 15.5195 20.2245 14.6711C22.5232 13.1169 24.9145 10.157 27.4184 9.40457C29.6364 8.73803 32.0572 7.79744 34 6.4838" stroke="#FBEDDE" stroke-width="8" stroke-linecap="round"/>
<path d="M4 22.5C5.77406 24.5711 8.17522 25.7479 10.0606 27.6739C11.2286 28.867 12.418 30.6321 13.697 31.5653C14.8496 32.4063 18.4048 35.1681 19.4545 33.4447C20.5426 31.6585 23.6142 30.3536 25.2121 29.3543C26.229 28.7183 27.4451 28.2599 28.4108 27.4528C29.6711 26.3994 33.4012 26.0628 34 24.4899" stroke="#FBEDDE" stroke-width="8" stroke-linecap="round"/>
</svg>
