<svg width="1282" height="1345" viewBox="0 0 1282 1345" fill="none" xmlns="http://www.w3.org/2000/svg">
<path fill-rule="evenodd" clip-rule="evenodd" d="M323.811 22.9256C436.003 -69.8481 583.478 156.29 722.299 214.82C819.666 255.872 942.101 232.9 1013.78 313.833C1084.71 393.916 1043.47 518.826 1080.68 619.449C1131.18 756.027 1334.08 879.444 1268.46 1002.51C1201.07 1128.88 981.577 979.168 855.662 1041.43C734.665 1101.26 722.577 1308.94 590.169 1337.91C451.721 1368.19 298.02 1290.37 190.17 1187.01C80.68 1082.08 -28.7199 923.21 7.3421 779.341C45.0418 628.938 299.161 657.389 358.439 515.703C421.794 364.274 200.118 125.21 323.811 22.9256Z" fill="#F2FDFF"/>
</svg>
