<svg width="568" height="479" viewBox="0 0 568 479" fill="none" xmlns="http://www.w3.org/2000/svg">
<path fill-rule="evenodd" clip-rule="evenodd" d="M214.695 22.0913C214.695 22.0913 254.327 -17.0375 315.766 8.8664C358.858 27.035 416.925 -13.7276 448.65 22.0914C480.041 57.5338 461.786 112.816 478.255 157.349C500.608 217.795 590.404 272.416 561.362 326.88C531.539 382.809 434.396 316.551 378.669 344.106C325.119 370.586 319.769 462.5 261.169 475.319C199.896 488.723 131.872 454.281 84.1403 408.537C35.683 362.096 -12.7344 291.785 3.22567 228.113C19.9105 161.549 132.377 174.14 158.612 111.434C186.651 44.415 214.695 22.0913 214.695 22.0913Z" fill="#F2FDFF"/>
</svg>
