<svg width="1108" height="1213" viewBox="0 0 1108 1213" fill="none" xmlns="http://www.w3.org/2000/svg">
<path fill-rule="evenodd" clip-rule="evenodd" d="M279.782 19.9848C376.789 -63.7392 504.302 140.34 624.334 193.161C708.522 230.209 814.385 209.477 876.365 282.516C937.694 354.786 902.03 467.512 934.204 558.319C977.876 681.575 1153.31 792.953 1096.57 904.011C1038.3 1018.06 848.518 882.949 739.646 939.138C635.026 993.132 624.574 1180.56 510.088 1206.69C390.38 1234.03 257.483 1163.8 164.23 1070.52C69.5601 975.822 -25.0322 832.45 6.14867 702.615C38.7456 566.883 258.469 592.559 309.724 464.694C364.503 328.036 172.831 112.292 279.782 19.9848Z" fill="#F2FDFF"/>
</svg>
