<svg width="21" height="22" viewBox="0 0 21 22" fill="none" xmlns="http://www.w3.org/2000/svg">
<path d="M8.13974 14.1876V7.68363L13.3735 10.9356L8.13974 14.1876ZM19.7839 5.63729C19.5536 4.68999 18.8739 3.94363 18.0126 3.69074C16.4504 3.23145 10.1877 3.23145 10.1877 3.23145C10.1877 3.23145 3.92496 3.23145 2.36272 3.69074C1.50149 3.94363 0.821768 4.68999 0.591438 5.63729C0.17334 7.35419 0.17334 10.9356 0.17334 10.9356C0.17334 10.9356 0.17334 14.517 0.591438 16.2339C0.821768 17.1812 1.50149 17.9276 2.36272 18.1805C3.92496 18.6398 10.1877 18.6398 10.1877 18.6398C10.1877 18.6398 16.4504 18.6398 18.0126 18.1805C18.8739 17.9276 19.5536 17.1812 19.7839 16.2339C20.202 14.517 20.202 10.9356 20.202 10.9356C20.202 10.9356 20.202 7.35419 19.7839 5.63729Z" fill="#F0EAE1"/>
</svg>
