<svg width="33" height="32" viewBox="0 0 33 32" fill="none" xmlns="http://www.w3.org/2000/svg">
<path d="M32.4219 16C32.4219 7.16347 25.2584 3.62396e-05 16.4219 3.62396e-05C7.58531 3.62396e-05 0.421875 7.16347 0.421875 16C0.421875 23.9861 6.27284 30.6053 13.9219 31.8057V20.625H9.85938V16H13.9219V12.475C13.9219 8.46504 16.3106 6.25004 19.9653 6.25004C21.7158 6.25004 23.5469 6.56254 23.5469 6.56254V10.5H21.5293C19.5417 10.5 18.9219 11.7334 18.9219 12.9987V16H23.3594L22.65 20.625H18.9219V31.8057C26.5709 30.6053 32.4219 23.9861 32.4219 16Z" fill="#F9F6FB"/>
</svg>
