<svg width="32" height="32" viewBox="0 0 32 32" fill="none" xmlns="http://www.w3.org/2000/svg">
<path d="M9.37347 0.112022C7.67107 0.192342 6.50851 0.464022 5.49219 0.863382C4.44035 1.2733 3.54883 1.82338 2.66179 2.71362C1.77475 3.60386 1.22851 4.49602 0.821466 5.54946C0.427546 6.56802 0.160666 7.73154 0.0854659 9.4349C0.010266 11.1383 -0.00637406 11.6858 0.00194594 16.0307C0.0102659 20.3757 0.0294659 20.9203 0.112026 22.6272C0.193306 24.3293 0.464026 25.4915 0.863386 26.5082C1.27395 27.56 1.82339 28.4512 2.71395 29.3386C3.60451 30.2259 4.49603 30.7709 5.55203 31.1786C6.56963 31.5719 7.73347 31.84 9.43651 31.9146C11.1395 31.9891 11.6877 32.0064 16.0314 31.9981C20.3751 31.9898 20.9219 31.9706 22.6285 31.8896C24.3351 31.8087 25.4912 31.536 26.5082 31.1386C27.56 30.7271 28.4519 30.1786 29.3386 29.2877C30.2253 28.3968 30.7712 27.504 31.1779 26.4499C31.5722 25.4323 31.84 24.2685 31.9139 22.5667C31.9885 20.8589 32.0061 20.3136 31.9978 15.9693C31.9895 11.625 31.9699 11.0803 31.889 9.3741C31.808 7.66786 31.537 6.50914 31.1379 5.49186C30.7267 4.44002 30.1779 3.54946 29.2877 2.66146C28.3975 1.77346 27.504 1.22786 26.4503 0.822102C25.432 0.428182 24.2688 0.159702 22.5658 0.0861023C20.8627 0.0125023 20.3146 -0.00637775 15.9693 0.00194225C11.624 0.0102622 11.08 0.0288223 9.37347 0.112022ZM9.56035 29.0362C8.00035 28.9683 7.15331 28.7091 6.58883 28.4922C5.84131 28.2042 5.30883 27.856 4.74627 27.2989C4.18371 26.7418 3.83811 26.2074 3.54627 25.4615C3.32707 24.897 3.06307 24.0509 2.99011 22.4909C2.91075 20.8048 2.89411 20.2986 2.88483 16.0269C2.87555 11.7552 2.89187 11.2496 2.96579 9.5629C3.03235 8.00418 3.29315 7.15618 3.50979 6.59202C3.79779 5.84354 4.14467 5.31202 4.70307 4.74978C5.26147 4.18754 5.79427 3.8413 6.54083 3.54946C7.10467 3.3293 7.95075 3.06754 9.51011 2.9933C11.1975 2.9133 11.7031 2.8973 15.9741 2.88802C20.2451 2.87874 20.752 2.89474 22.44 2.96898C23.9987 3.03682 24.8471 3.29506 25.4106 3.51298C26.1584 3.80098 26.6906 4.1469 27.2528 4.70626C27.8151 5.26562 28.1616 5.7965 28.4535 6.54466C28.6739 7.1069 28.9357 7.95266 29.0093 9.51298C29.0896 11.2003 29.1079 11.7063 29.1155 15.977C29.1232 20.2477 29.1082 20.7549 29.0343 22.441C28.9661 24.001 28.7075 24.8483 28.4903 25.4135C28.2023 26.1607 27.8551 26.6935 27.2963 27.2554C26.7376 27.8173 26.2055 28.1635 25.4586 28.4554C24.8954 28.6752 24.0483 28.9376 22.4903 29.0119C20.8029 29.0912 20.2973 29.1079 16.0247 29.1171C11.752 29.1264 11.248 29.1091 9.56067 29.0362M22.6039 7.44866C22.6045 7.82843 22.7177 8.19948 22.9293 8.51488C23.1408 8.83029 23.4411 9.07588 23.7922 9.22059C24.1433 9.36531 24.5295 9.40265 24.9018 9.32789C25.2741 9.25314 25.6159 9.06964 25.884 8.80061C26.152 8.53158 26.3343 8.18911 26.4077 7.8165C26.4811 7.44389 26.4423 7.05789 26.2963 6.70731C26.1503 6.35673 25.9036 6.05732 25.5874 5.84695C25.2713 5.63658 24.8998 5.5247 24.52 5.52546C24.0109 5.52648 23.5231 5.72965 23.1637 6.09031C22.8044 6.45096 22.603 6.93956 22.6039 7.44866ZM7.78467 16.016C7.79363 20.5536 11.4787 24.2237 16.0154 24.2151C20.552 24.2064 24.2247 20.5216 24.216 15.984C24.2074 11.4464 20.5213 7.77538 15.984 7.78434C11.4467 7.7933 7.77603 11.4791 7.78467 16.016ZM10.6666 16.0103C10.6645 14.9554 10.9753 13.9236 11.5596 13.0454C12.1439 12.1672 12.9755 11.4819 13.9492 11.0763C14.923 10.6707 15.9952 10.563 17.0302 10.7667C18.0651 10.9704 19.0165 11.4765 19.7638 12.2209C20.5112 12.9654 21.0211 13.9147 21.2289 14.9489C21.4367 15.983 21.3332 17.0556 20.9315 18.031C20.5298 19.0063 19.8478 19.8406 18.9719 20.4284C18.096 21.0162 17.0654 21.3311 16.0106 21.3331C15.3102 21.3346 14.6163 21.1981 13.9687 20.9314C13.321 20.6647 12.7322 20.273 12.236 19.7787C11.7397 19.2844 11.3457 18.6972 11.0764 18.0506C10.8072 17.404 10.6679 16.7107 10.6666 16.0103Z" fill="#F9F6FB"/>
</svg>
