<svg width="33" height="32" viewBox="0 0 33 32" fill="none" xmlns="http://www.w3.org/2000/svg">
<path d="M28.1544 27.0417H23.4051V19.6773C23.4051 17.9212 23.3735 15.6605 20.935 15.6605C18.4614 15.6605 18.0829 17.5738 18.0829 19.5494V27.0412H13.3335V11.897H17.8929V13.9666H17.9567C18.413 13.1941 19.0724 12.5586 19.8645 12.1278C20.6567 11.6971 21.5521 11.4871 22.4553 11.5203C27.2689 11.5203 28.1564 14.6553 28.1564 18.7338L28.1544 27.0417ZM7.97469 9.82686C7.42958 9.82695 6.89668 9.667 6.44338 9.36722C5.99009 9.06744 5.63678 8.64129 5.42809 8.14268C5.2194 7.64406 5.1647 7.09537 5.27095 6.56598C5.3772 6.0366 5.63962 5.5503 6.02499 5.16858C6.41037 4.78686 6.90142 4.52686 7.43603 4.42147C7.97064 4.31608 8.5248 4.37002 9.02845 4.57648C9.5321 4.78294 9.96261 5.13264 10.2655 5.58136C10.5685 6.03008 10.7302 6.55767 10.7303 7.09741C10.7304 7.45578 10.6591 7.81066 10.5207 8.14177C10.3822 8.47289 10.1793 8.77376 9.92342 9.02722C9.66754 9.28067 9.36372 9.48174 9.02936 9.61894C8.695 9.75614 8.33663 9.82679 7.97469 9.82686ZM10.3494 27.0417H5.59507V11.897H10.3494V27.0417ZM30.5222 0.00191814H3.20854C2.58859 -0.00500901 1.99121 0.232048 1.54769 0.660996C1.10418 1.08994 0.850828 1.67569 0.843262 2.28952V29.4464C0.850569 30.0605 1.10377 30.6466 1.54727 31.076C1.99077 31.5054 2.58829 31.743 3.20854 31.7364H30.5222C31.1437 31.7441 31.7429 31.5073 32.1881 31.0779C32.6334 30.6485 32.8883 30.0617 32.8969 29.4464V2.28756C32.888 1.67251 32.6329 1.0861 32.1877 0.657164C31.7424 0.228226 31.1434 -0.0081538 30.5222 -4.20539e-05" fill="#F9F6FB"/>
</svg>
