<svg width="240" height="72" viewBox="0 0 240 72" fill="none" xmlns="http://www.w3.org/2000/svg">
<path d="M30.9858 13.7468C29.9199 11.6451 28.3761 10.0258 26.3545 8.88889C24.3329 7.71749 21.9804 7.13178 19.2972 7.13178C16.614 7.13178 14.188 7.71749 12.0194 8.88889C9.88752 10.0258 8.19672 11.6796 6.947 13.8501C5.73403 15.9862 5.12754 18.4668 5.12754 21.292C5.12754 24.1171 5.73403 26.5978 6.947 28.7339C8.19672 30.8699 9.88752 32.5237 12.0194 33.6951C14.188 34.832 16.614 35.4005 19.2972 35.4005C23.0464 35.4005 26.1339 34.3497 28.5599 32.2481C30.9858 30.1464 32.4009 27.304 32.8053 23.7209H17.4778V19.8966H38.1533V23.5142C37.8593 26.4772 36.8669 29.199 35.1761 31.6796C33.4853 34.1258 31.2615 36.0724 28.5047 37.5194C25.748 38.932 22.6788 39.6382 19.2972 39.6382C15.7318 39.6382 12.4789 38.8631 9.53833 37.3127C6.59781 35.7278 4.26376 33.5401 2.5362 30.7494C0.845402 27.9587 0 24.8062 0 21.292C0 17.7778 0.845402 14.6253 2.5362 11.8346C4.26376 9.00948 6.59781 6.82171 9.53833 5.27132C12.4789 3.68648 15.7318 2.89406 19.2972 2.89406C23.3772 2.89406 26.9793 3.84152 30.1036 5.73643C33.2647 7.63135 35.562 10.3015 36.9955 13.7468H30.9858Z" fill="#131313"/>
<path d="M49.5288 15.6072C50.4109 13.9879 51.6607 12.7304 53.278 11.8346C54.932 10.9388 56.9352 10.491 59.2877 10.491V15.3488H57.9644C52.3407 15.3488 49.5288 18.2084 49.5288 23.9277V39.3282H44.5115V11.0078H49.5288V15.6072Z" fill="#131313"/>
<path d="M62.9291 25.0646C62.9291 22.1705 63.554 19.6382 64.8037 17.4677C66.0535 15.2627 67.7626 13.5573 69.9313 12.3514C72.1367 11.1456 74.581 10.5426 77.2642 10.5426C79.9107 10.5426 82.208 11.0767 84.1561 12.1447C86.1042 13.2127 87.5561 14.5564 88.5117 16.1757V11.0078H93.5841V39.3282H88.5117V34.0569C87.5193 35.7106 86.0307 37.0887 84.0458 38.1912C82.0977 39.2593 79.8188 39.7933 77.2091 39.7933C74.5258 39.7933 72.0999 39.1731 69.9313 37.9328C67.7626 36.6925 66.0535 34.9526 64.8037 32.7132C63.554 30.4737 62.9291 27.9242 62.9291 25.0646ZM88.5117 25.1163C88.5117 22.9802 88.0523 21.1197 87.1334 19.5349C86.2144 17.95 84.9647 16.7442 83.3842 15.9173C81.8404 15.056 80.1312 14.6253 78.2566 14.6253C76.3821 14.6253 74.6729 15.0388 73.1291 15.8656C71.5853 16.6925 70.354 17.8984 69.4351 19.4832C68.5161 21.068 68.0567 22.9285 68.0567 25.0646C68.0567 27.2351 68.5161 29.1301 69.4351 30.7494C70.354 32.3342 71.5853 33.5573 73.1291 34.4186C74.6729 35.2455 76.3821 35.6589 78.2566 35.6589C80.1312 35.6589 81.8404 35.2455 83.3842 34.4186C84.9647 33.5573 86.2144 32.3342 87.1334 30.7494C88.0523 29.1301 88.5117 27.2524 88.5117 25.1163Z" fill="#131313"/>
<path d="M99.9126 25.1163C99.9126 22.1878 100.537 19.6382 101.787 17.4677C103.037 15.2627 104.764 13.5573 106.97 12.3514C109.212 11.1456 111.767 10.5426 114.634 10.5426C118.346 10.5426 121.397 11.3867 123.786 13.0749C126.212 14.7631 127.811 17.1059 128.583 20.1034H123.18C122.665 18.3807 121.654 17.0198 120.147 16.0207C118.677 15.0215 116.839 14.522 114.634 14.522C111.767 14.522 109.451 15.4522 107.687 17.3127C105.922 19.1387 105.04 21.7399 105.04 25.1163C105.04 28.5271 105.922 31.1628 107.687 33.0233C109.451 34.8837 111.767 35.814 114.634 35.814C116.839 35.814 118.677 35.3316 120.147 34.3669C121.617 33.4022 122.628 32.0241 123.18 30.2326H128.583C127.774 33.1266 126.157 35.4522 123.731 37.2093C121.305 38.932 118.273 39.7933 114.634 39.7933C111.767 39.7933 109.212 39.1904 106.97 37.9845C104.764 36.7786 103.037 35.0732 101.787 32.8682C100.537 30.6632 99.9126 28.0792 99.9126 25.1163Z" fill="#131313"/>
<path d="M137.593 6.40827C136.637 6.40827 135.829 6.09819 135.167 5.47804C134.505 4.85788 134.175 4.09991 134.175 3.20413C134.175 2.30835 134.505 1.55039 135.167 0.930233C135.829 0.310078 136.637 0 137.593 0C138.512 0 139.284 0.310078 139.909 0.930233C140.57 1.55039 140.901 2.30835 140.901 3.20413C140.901 4.09991 140.57 4.85788 139.909 5.47804C139.284 6.09819 138.512 6.40827 137.593 6.40827ZM140.019 11.0078V39.3282H135.002V11.0078H140.019Z" fill="#131313"/>
<path d="M161.472 39.7933C158.641 39.7933 156.068 39.1904 153.753 37.9845C151.474 36.7786 149.673 35.0732 148.349 32.8682C147.063 30.6288 146.42 28.0448 146.42 25.1163C146.42 22.2222 147.081 19.6727 148.405 17.4677C149.765 15.2283 151.602 13.5228 153.918 12.3514C156.234 11.1456 158.825 10.5426 161.692 10.5426C164.559 10.5426 167.15 11.1456 169.466 12.3514C171.782 13.5228 173.601 15.211 174.924 17.416C176.284 19.621 176.964 22.1878 176.964 25.1163C176.964 28.0448 176.266 30.6288 174.869 32.8682C173.509 35.0732 171.653 36.7786 169.301 37.9845C166.948 39.1904 164.339 39.7933 161.472 39.7933ZM161.472 35.6589C163.273 35.6589 164.963 35.2627 166.544 34.4703C168.124 33.6779 169.393 32.4892 170.348 30.9044C171.341 29.3196 171.837 27.3902 171.837 25.1163C171.837 22.8424 171.359 20.913 170.403 19.3282C169.448 17.7433 168.198 16.5719 166.654 15.814C165.11 15.0215 163.438 14.6253 161.637 14.6253C159.799 14.6253 158.108 15.0215 156.565 15.814C155.058 16.5719 153.845 17.7433 152.926 19.3282C152.007 20.913 151.547 22.8424 151.547 25.1163C151.547 27.4246 151.988 29.3712 152.871 30.9561C153.789 32.5409 155.002 33.7295 156.509 34.522C158.016 35.2799 159.67 35.6589 161.472 35.6589Z" fill="#131313"/>
<path d="M210.081 11.0078V39.3282H205.064V35.1421C204.108 36.5891 202.767 37.7261 201.039 38.553C199.348 39.3454 197.474 39.7416 195.415 39.7416C193.063 39.7416 190.949 39.2937 189.075 38.3979C187.2 37.4677 185.712 36.0896 184.609 34.2636C183.543 32.4376 183.01 30.2153 183.01 27.5969V11.0078H187.972V26.9767C187.972 29.7674 188.726 31.9208 190.233 33.4367C191.74 34.9182 193.798 35.6589 196.408 35.6589C199.091 35.6589 201.204 34.8837 202.748 33.3333C204.292 31.7829 205.064 29.5263 205.064 26.5633V11.0078H210.081Z" fill="#131313"/>
<path d="M228.973 39.7933C226.657 39.7933 224.581 39.4315 222.743 38.708C220.905 37.95 219.453 36.9165 218.387 35.6072C217.321 34.2636 216.733 32.7304 216.623 31.0078H221.805C221.953 32.4203 222.651 33.5745 223.901 34.4703C225.187 35.3661 226.86 35.814 228.918 35.814C230.829 35.814 232.336 35.4177 233.439 34.6253C234.542 33.8329 235.093 32.8338 235.093 31.6279C235.093 30.3876 234.505 29.4746 233.329 28.8889C232.152 28.2687 230.333 27.6658 227.87 27.0801C225.628 26.5289 223.79 25.9776 222.357 25.4264C220.96 24.8407 219.747 23.9966 218.718 22.8941C217.725 21.7571 217.229 20.2756 217.229 18.4496C217.229 17.0026 217.689 15.6761 218.608 14.4703C219.527 13.2644 220.831 12.317 222.522 11.6279C224.213 10.9044 226.143 10.5426 228.311 10.5426C231.656 10.5426 234.358 11.3351 236.416 12.9199C238.475 14.5047 239.577 16.6753 239.724 19.4315H234.707C234.597 17.95 233.954 16.7614 232.777 15.8656C231.638 14.9699 230.094 14.522 228.146 14.522C226.345 14.522 224.911 14.8837 223.845 15.6072C222.78 16.3308 222.247 17.2782 222.247 18.4496C222.247 19.3798 222.559 20.155 223.184 20.7752C223.845 21.3609 224.654 21.8432 225.61 22.2222C226.602 22.5668 227.962 22.963 229.69 23.4109C231.858 23.9621 233.623 24.5134 234.983 25.0646C236.343 25.5814 237.501 26.3738 238.456 27.4419C239.449 28.5099 239.963 29.9053 240 31.6279C240 33.1783 239.541 34.5736 238.622 35.814C237.703 37.0543 236.398 38.0362 234.707 38.7597C233.053 39.4488 231.142 39.7933 228.973 39.7933Z" fill="#131313"/>
<path d="M32.2098 43.0181V71.6279H28.196V50.2946L18.0512 71.6279H15.2283L5.03933 50.2532V71.6279H1.02551V43.0181H5.34808L16.6397 66.6667L27.9313 43.0181H32.2098Z" fill="#131313"/>
<path d="M50.6614 72C48.3972 72 46.3388 71.5177 44.4863 70.553C42.6631 69.5883 41.2223 68.2239 40.1637 66.46C39.1345 64.6684 38.6199 62.6012 38.6199 60.2584C38.6199 57.9432 39.1492 55.9035 40.2078 54.1395C41.2958 52.348 42.7661 50.9836 44.6186 50.0465C46.4711 49.0818 48.5442 48.5995 50.8378 48.5995C53.1314 48.5995 55.2045 49.0818 57.057 50.0465C58.9096 50.9836 60.3651 52.3342 61.4237 54.0982C62.5117 55.8622 63.0557 57.9156 63.0557 60.2584C63.0557 62.6012 62.497 64.6684 61.3796 66.46C60.2916 68.2239 58.8066 69.5883 56.9247 70.553C55.0428 71.5177 52.955 72 50.6614 72ZM50.6614 68.6925C52.1022 68.6925 53.4549 68.3755 54.7193 67.7416C55.9837 67.1077 56.9982 66.1568 57.7628 64.8889C58.5567 63.621 58.9537 62.0775 58.9537 60.2584C58.9537 58.4393 58.5714 56.8958 57.8069 55.6279C57.0423 54.36 56.0425 53.4229 54.8075 52.8165C53.5725 52.1826 52.2346 51.8656 50.7937 51.8656C49.3234 51.8656 47.9708 52.1826 46.7358 52.8165C45.5302 53.4229 44.5598 54.36 43.8246 55.6279C43.0895 56.8958 42.722 58.4393 42.722 60.2584C42.722 62.1051 43.0748 63.6624 43.7805 64.9302C44.5157 66.1981 45.486 67.149 46.6917 67.783C47.8973 68.3893 49.2205 68.6925 50.6614 68.6925Z" fill="#131313"/>
<path d="M78.4338 68.155L85.9322 48.9716H90.2107L80.7275 71.6279H76.052L66.5688 48.9716H70.8914L78.4338 68.155Z" fill="#131313"/>
<path d="M117.317 59.4315C117.317 60.1481 117.273 60.9061 117.185 61.7054H97.8655C98.0125 63.938 98.8211 65.6882 100.291 66.9561C101.791 68.1964 103.599 68.8165 105.717 68.8165C107.452 68.8165 108.892 68.4445 110.039 67.7003C111.215 66.9285 112.039 65.9087 112.509 64.6408H116.832C116.185 66.8183 114.891 68.596 112.95 69.9742C111.01 71.3247 108.598 72 105.717 72C103.423 72 101.365 71.5177 99.5415 70.553C97.7478 69.5883 96.3364 68.2239 95.3072 66.46C94.278 64.6684 93.7634 62.6012 93.7634 60.2584C93.7634 57.9156 94.2633 55.8622 95.2631 54.0982C96.2629 52.3342 97.6596 50.9836 99.4533 50.0465C101.276 49.0818 103.364 48.5995 105.717 48.5995C108.01 48.5995 110.039 49.068 111.804 50.0052C113.568 50.9423 114.921 52.2377 115.861 53.8915C116.832 55.5177 117.317 57.3643 117.317 59.4315ZM113.171 58.646C113.171 57.2127 112.833 55.9862 112.156 54.9664C111.48 53.919 110.554 53.1335 109.378 52.6098C108.231 52.0586 106.952 51.7829 105.54 51.7829C103.511 51.7829 101.776 52.3893 100.336 53.6021C98.924 54.8148 98.1154 56.4961 97.9096 58.646H113.171Z" fill="#131313"/>
<path d="M152.785 48.5581C154.667 48.5581 156.343 48.9302 157.813 49.6744C159.284 50.391 160.445 51.4798 161.298 52.9406C162.151 54.4014 162.577 56.1792 162.577 58.2739V71.6279H158.607V58.8114C158.607 56.5513 158.004 54.8286 156.799 53.6434C155.623 52.4307 154.02 51.8243 151.991 51.8243C149.903 51.8243 148.242 52.4582 147.007 53.7261C145.772 54.9664 145.154 56.7718 145.154 59.1421V71.6279H141.185V58.8114C141.185 56.5513 140.582 54.8286 139.376 53.6434C138.2 52.4307 136.597 51.8243 134.568 51.8243C132.481 51.8243 130.819 52.4582 129.584 53.7261C128.349 54.9664 127.732 56.7718 127.732 59.1421V71.6279H123.718V48.9716H127.732V52.2377C128.526 51.0525 129.584 50.143 130.907 49.509C132.26 48.8751 133.745 48.5581 135.362 48.5581C137.391 48.5581 139.185 48.9854 140.743 49.8398C142.302 50.6942 143.463 51.9483 144.228 53.6021C144.904 52.0034 146.022 50.7631 147.58 49.8811C149.139 48.9991 150.874 48.5581 152.785 48.5581Z" fill="#131313"/>
<path d="M192.318 59.4315C192.318 60.1481 192.274 60.9061 192.185 61.7054H172.866C173.013 63.938 173.822 65.6882 175.292 66.9561C176.792 68.1964 178.6 68.8165 180.717 68.8165C182.452 68.8165 183.893 68.4445 185.04 67.7003C186.216 66.9285 187.039 65.9087 187.51 64.6408H191.833C191.186 66.8183 189.892 68.596 187.951 69.9742C186.01 71.3247 183.599 72 180.717 72C178.424 72 176.365 71.5177 174.542 70.553C172.749 69.5883 171.337 68.2239 170.308 66.46C169.279 64.6684 168.764 62.6012 168.764 60.2584C168.764 57.9156 169.264 55.8622 170.264 54.0982C171.264 52.3342 172.66 50.9836 174.454 50.0465C176.277 49.0818 178.365 48.5995 180.717 48.5995C183.011 48.5995 185.04 49.068 186.804 50.0052C188.569 50.9423 189.921 52.2377 190.862 53.8915C191.833 55.5177 192.318 57.3643 192.318 59.4315ZM188.172 58.646C188.172 57.2127 187.833 55.9862 187.157 54.9664C186.481 53.919 185.554 53.1335 184.378 52.6098C183.231 52.0586 181.952 51.7829 180.541 51.7829C178.512 51.7829 176.777 52.3893 175.336 53.6021C173.925 54.8148 173.116 56.4961 172.91 58.646H188.172Z" fill="#131313"/>
<path d="M210.495 48.5581C213.436 48.5581 215.818 49.3988 217.641 51.0801C219.464 52.7339 220.376 55.1318 220.376 58.2739V71.6279H216.406V58.8114C216.406 56.5513 215.803 54.8286 214.597 53.6434C213.392 52.4307 211.745 51.8243 209.657 51.8243C207.54 51.8243 205.849 52.4444 204.585 53.6848C203.35 54.9251 202.732 56.7304 202.732 59.1008V71.6279H198.719V48.9716H202.732V52.1964C203.526 51.0388 204.6 50.143 205.952 49.509C207.334 48.8751 208.849 48.5581 210.495 48.5581Z" fill="#131313"/>
<path d="M232.931 52.0724V65.4264C232.931 66.5289 233.181 67.3144 233.681 67.783C234.18 68.2239 235.048 68.4445 236.283 68.4445H239.238V71.6279H235.621C233.387 71.6279 231.71 71.1456 230.593 70.1809C229.476 69.2162 228.917 67.6314 228.917 65.4264V52.0724H225.785V48.9716H228.917V43.2661H232.931V48.9716H239.238V52.0724H232.931Z" fill="#131313"/>
</svg>
