<svg width="160" height="48" viewBox="0 0 160 48" fill="none" xmlns="http://www.w3.org/2000/svg">
<path d="M20.6572 9.16451C19.9466 7.76342 18.9174 6.68389 17.5697 5.92593C16.2219 5.14499 14.6536 4.75452 12.8648 4.75452C11.076 4.75452 9.4587 5.14499 8.01294 5.92593C6.59168 6.68389 5.46448 7.78639 4.63133 9.23342C3.82269 10.6575 3.41836 12.3112 3.41836 14.1947C3.41836 16.0781 3.82269 17.7318 4.63133 19.1559C5.46448 20.58 6.59168 21.6825 8.01294 22.4634C9.4587 23.2214 11.076 23.6003 12.8648 23.6003C15.3643 23.6003 17.4226 22.8998 19.0399 21.4987C20.6572 20.0976 21.6006 18.2027 21.8702 15.814H11.6518V13.2644H25.4356V15.6761C25.2395 17.6515 24.5779 19.466 23.4507 21.1197C22.3235 22.7505 20.841 24.0482 19.0032 25.0129C17.1653 25.9546 15.1192 26.4255 12.8648 26.4255C10.4879 26.4255 8.31924 25.9087 6.35889 24.8751C4.39854 23.8185 2.84251 22.36 1.6908 20.4996C0.563601 18.6391 0 16.5375 0 14.1947C0 11.8519 0.563601 9.75022 1.6908 7.88975C2.84251 6.00632 4.39854 4.5478 6.35889 3.51421C8.31924 2.45765 10.4879 1.92937 12.8648 1.92937C15.5848 1.92937 17.9862 2.56101 20.0691 3.82429C22.1765 5.08757 23.708 6.86764 24.6637 9.16451H20.6572Z" fill="#F9F6FB"/>
<path d="M33.0192 10.4048C33.6073 9.32529 34.4404 8.48694 35.5186 7.88975C36.6213 7.29256 37.9568 6.99397 39.5251 6.99397V10.2326H38.6429C34.8938 10.2326 33.0192 12.139 33.0192 15.9518V26.2188H29.6743V7.3385H33.0192V10.4048Z" fill="#F9F6FB"/>
<path d="M41.9528 16.7097C41.9528 14.7804 42.3693 13.0922 43.2025 11.6451C44.0356 10.1751 45.1751 9.03819 46.6209 8.23428C48.0911 7.43038 49.7207 7.02842 51.5095 7.02842C53.2738 7.02842 54.8053 7.38444 56.1041 8.09647C57.4028 8.8085 58.3707 9.70428 59.0078 10.7838V7.3385H62.3894V26.2188H59.0078V22.7046C58.3462 23.8071 57.3538 24.7258 56.0305 25.4608C54.7318 26.1728 53.2125 26.5289 51.4727 26.5289C49.6839 26.5289 48.0666 26.1154 46.6209 25.2885C45.1751 24.4617 44.0356 23.3018 43.2025 21.8088C42.3693 20.3158 41.9528 18.6161 41.9528 16.7097ZM59.0078 16.7442C59.0078 15.3201 58.7015 14.0798 58.0889 13.0233C57.4763 11.9667 56.6431 11.1628 55.5895 10.6115C54.5603 10.0373 53.4208 9.75022 52.1711 9.75022C50.9214 9.75022 49.7819 10.0258 48.7527 10.5771C47.7235 11.1283 46.9027 11.9322 46.29 12.9888C45.6774 14.0454 45.3711 15.2857 45.3711 16.7097C45.3711 18.1568 45.6774 19.42 46.29 20.4996C46.9027 21.5561 47.7235 22.3715 48.7527 22.9457C49.7819 23.497 50.9214 23.7726 52.1711 23.7726C53.4208 23.7726 54.5603 23.497 55.5895 22.9457C56.6431 22.3715 57.4763 21.5561 58.0889 20.4996C58.7015 19.42 59.0078 18.1682 59.0078 16.7442Z" fill="#F9F6FB"/>
<path d="M66.6084 16.7442C66.6084 14.7918 67.025 13.0922 67.8581 11.6451C68.6913 10.1751 69.843 9.03819 71.3132 8.23428C72.808 7.43038 74.5111 7.02842 76.4224 7.02842C78.8974 7.02842 80.9312 7.59116 82.524 8.71662C84.1413 9.84209 85.2072 11.404 85.7218 13.4022H82.1197C81.7766 12.2538 81.1027 11.3465 80.0981 10.6804C79.1179 10.0144 77.8927 9.68131 76.4224 9.68131C74.5111 9.68131 72.9673 10.3015 71.7911 11.5418C70.6149 12.7591 70.0268 14.4933 70.0268 16.7442C70.0268 19.0181 70.6149 20.7752 71.7911 22.0155C72.9673 23.2558 74.5111 23.876 76.4224 23.876C77.8927 23.876 79.1179 23.5544 80.0981 22.9113C81.0782 22.2682 81.7521 21.3494 82.1197 20.155H85.7218C85.1827 22.0844 84.1045 23.6348 82.4872 24.8062C80.8699 25.9546 78.8483 26.5289 76.4224 26.5289C74.5111 26.5289 72.808 26.1269 71.3132 25.323C69.843 24.5191 68.6913 23.3821 67.8581 21.9121C67.025 20.4422 66.6084 18.7195 66.6084 16.7442Z" fill="#F9F6FB"/>
<path d="M91.7286 4.27218C91.0915 4.27218 90.5524 4.06546 90.1114 3.65202C89.6703 3.23859 89.4497 2.73328 89.4497 2.13609C89.4497 1.5389 89.6703 1.03359 90.1114 0.620155C90.5524 0.206718 91.0915 0 91.7286 0C92.3413 0 92.8559 0.206718 93.2724 0.620155C93.7135 1.03359 93.934 1.5389 93.934 2.13609C93.934 2.73328 93.7135 3.23859 93.2724 3.65202C92.8559 4.06546 92.3413 4.27218 91.7286 4.27218ZM93.3459 7.3385V26.2188H90.0011V7.3385H93.3459Z" fill="#F9F6FB"/>
<path d="M107.648 26.5289C105.761 26.5289 104.046 26.1269 102.502 25.323C100.983 24.5191 99.7818 23.3821 98.8996 21.9121C98.042 20.4192 97.6132 18.6965 97.6132 16.7442C97.6132 14.8148 98.0542 13.1151 98.9364 11.6451C99.8431 10.1522 101.068 9.01522 102.612 8.23428C104.156 7.43038 105.883 7.02842 107.795 7.02842C109.706 7.02842 111.434 7.43038 112.977 8.23428C114.521 9.01522 115.734 10.1407 116.616 11.6107C117.523 13.0807 117.976 14.7918 117.976 16.7442C117.976 18.6965 117.511 20.4192 116.58 21.9121C115.673 23.3821 114.435 24.5191 112.867 25.323C111.299 26.1269 109.559 26.5289 107.648 26.5289ZM107.648 23.7726C108.848 23.7726 109.976 23.5085 111.029 22.9802C112.083 22.4519 112.928 21.6595 113.566 20.6029C114.227 19.5464 114.558 18.2601 114.558 16.7442C114.558 15.2283 114.239 13.942 113.602 12.8854C112.965 11.8289 112.132 11.0479 111.103 10.5426C110.074 10.0144 108.959 9.75022 107.758 9.75022C106.533 9.75022 105.406 10.0144 104.376 10.5426C103.372 11.0479 102.563 11.8289 101.95 12.8854C101.338 13.942 101.032 15.2283 101.032 16.7442C101.032 18.2831 101.326 19.5808 101.914 20.6374C102.526 21.6939 103.335 22.4864 104.34 23.0146C105.344 23.52 106.447 23.7726 107.648 23.7726Z" fill="#F9F6FB"/>
<path d="M140.054 7.3385V26.2188H136.709V23.4281C136.072 24.3928 135.178 25.1507 134.026 25.702C132.899 26.2303 131.649 26.4944 130.277 26.4944C128.709 26.4944 127.3 26.1958 126.05 25.5986C124.8 24.9785 123.808 24.0597 123.073 22.8424C122.362 21.625 122.007 20.1436 122.007 18.3979V7.3385H125.315V17.9845C125.315 19.845 125.817 21.2805 126.822 22.2911C127.826 23.2788 129.199 23.7726 130.938 23.7726C132.727 23.7726 134.136 23.2558 135.165 22.2222C136.195 21.1886 136.709 19.6842 136.709 17.7089V7.3385H140.054Z" fill="#F9F6FB"/>
<path d="M152.649 26.5289C151.105 26.5289 149.72 26.2877 148.495 25.8053C147.27 25.3 146.302 24.611 145.591 23.7382C144.881 22.8424 144.489 21.8203 144.415 20.6718H147.87C147.968 21.6136 148.434 22.383 149.267 22.9802C150.125 23.5774 151.24 23.876 152.612 23.876C153.886 23.876 154.891 23.6118 155.626 23.0835C156.361 22.5553 156.729 21.8892 156.729 21.0853C156.729 20.2584 156.337 19.6497 155.552 19.2593C154.768 18.8458 153.555 18.4439 151.914 18.0534C150.419 17.6859 149.194 17.3184 148.238 16.9509C147.307 16.5604 146.498 15.9977 145.812 15.2627C145.15 14.5047 144.82 13.5171 144.82 12.2997C144.82 11.3351 145.126 10.4508 145.738 9.64686C146.351 8.84295 147.221 8.21131 148.348 7.75194C149.475 7.2696 150.762 7.02842 152.208 7.02842C154.438 7.02842 156.239 7.5567 157.611 8.61326C158.983 9.66983 159.718 11.1169 159.816 12.9544H156.471C156.398 11.9667 155.969 11.1743 155.185 10.5771C154.425 9.9799 153.396 9.68131 152.097 9.68131C150.897 9.68131 149.941 9.92248 149.23 10.4048C148.52 10.8872 148.164 11.5188 148.164 12.2997C148.164 12.9199 148.373 13.4367 148.789 13.8501C149.23 14.2406 149.769 14.5622 150.407 14.8148C151.068 15.0445 151.975 15.3086 153.127 15.6072C154.572 15.9747 155.748 16.3422 156.655 16.7097C157.562 17.0543 158.334 17.5825 158.971 18.2946C159.632 19.0066 159.975 19.9368 160 21.0853C160 22.1189 159.694 23.0491 159.081 23.876C158.468 24.7028 157.599 25.3575 156.471 25.8398C155.369 26.2992 154.094 26.5289 152.649 26.5289Z" fill="#F9F6FB"/>
<path d="M21.4732 28.6787V47.7519H18.7973V33.5297L12.0341 47.7519H10.1522L3.35955 33.5022V47.7519H0.683673V28.6787H3.56539L11.0931 44.4444L18.6209 28.6787H21.4732Z" fill="#F9F6FB"/>
<path d="M33.7743 48C32.2648 48 30.8925 47.6784 29.6575 47.0353C28.4421 46.3922 27.4815 45.4826 26.7758 44.3066C26.0897 43.1123 25.7466 41.7341 25.7466 40.1723C25.7466 38.6288 26.0995 37.269 26.8052 36.093C27.5305 34.8987 28.5107 33.9891 29.7457 33.3643C30.9807 32.7212 32.3628 32.3997 33.8919 32.3997C35.4209 32.3997 36.803 32.7212 38.038 33.3643C39.273 33.9891 40.2434 34.8895 40.9491 36.0655C41.6745 37.2415 42.0371 38.6104 42.0371 40.1723C42.0371 41.7341 41.6647 43.1123 40.9197 44.3066C40.1944 45.4826 39.2044 46.3922 37.9498 47.0353C36.6952 47.6784 35.3033 48 33.7743 48ZM33.7743 45.795C34.7348 45.795 35.6366 45.5837 36.4795 45.1611C37.3225 44.7384 37.9988 44.1045 38.5085 43.2593C39.0378 42.414 39.3024 41.385 39.3024 40.1723C39.3024 38.9595 39.0476 37.9305 38.5379 37.0853C38.0282 36.24 37.3617 35.6153 36.5383 35.211C35.715 34.7884 34.823 34.5771 33.8625 34.5771C32.8823 34.5771 31.9805 34.7884 31.1572 35.211C30.3534 35.6153 29.7065 36.24 29.2164 37.0853C28.7263 37.9305 28.4813 38.9595 28.4813 40.1723C28.4813 41.4034 28.7165 42.4416 29.187 43.2868C29.6771 44.1321 30.324 44.766 31.1278 45.1886C31.9315 45.5929 32.8137 45.795 33.7743 45.795Z" fill="#F9F6FB"/>
<path d="M52.2892 45.4367L57.2881 32.6477H60.1404L53.8183 47.7519H50.7013L44.3792 32.6477H47.2609L52.2892 45.4367Z" fill="#F9F6FB"/>
<path d="M78.2114 39.621C78.2114 40.0988 78.182 40.6041 78.1231 41.137H65.2436C65.3417 42.6253 65.8808 43.7921 66.8609 44.6374C67.8607 45.4643 69.0663 45.8777 70.4778 45.8777C71.6344 45.8777 72.595 45.6296 73.3595 45.1335C74.1436 44.619 74.6925 43.9391 75.0062 43.0939H77.8879C77.4566 44.5455 76.5941 45.7307 75.3002 46.6494C74.0064 47.5498 72.3989 48 70.4778 48C68.9487 48 67.5765 47.6784 66.361 47.0353C65.1652 46.3922 64.2243 45.4826 63.5381 44.3066C62.852 43.1123 62.5089 41.7341 62.5089 40.1723C62.5089 38.6104 62.8422 37.2415 63.5087 36.0655C64.1752 34.8895 65.1064 33.9891 66.3022 33.3643C67.5176 32.7212 68.9095 32.3997 70.4778 32.3997C72.0069 32.3997 73.3595 32.712 74.5357 33.3368C75.7119 33.9615 76.6137 34.8252 77.241 35.9277C77.8879 37.0118 78.2114 38.2429 78.2114 39.621ZM75.4473 39.0973C75.4473 38.1418 75.2218 37.3241 74.7709 36.6443C74.3201 35.946 73.7026 35.4223 72.9184 35.0732C72.1539 34.7057 71.3011 34.522 70.3602 34.522C69.0075 34.522 67.8509 34.9262 66.8903 35.7347C65.9494 36.5432 65.4103 37.6641 65.273 39.0973H75.4473Z" fill="#F9F6FB"/>
<path d="M101.857 32.3721C103.111 32.3721 104.229 32.6202 105.209 33.1163C106.189 33.594 106.963 34.3198 107.532 35.2937C108.1 36.2676 108.385 37.4528 108.385 38.8493V47.7519H105.738V39.2076C105.738 37.7008 105.336 36.5524 104.533 35.7623C103.748 34.9538 102.68 34.5495 101.327 34.5495C99.9355 34.5495 98.8279 34.9721 98.0045 35.8174C97.1812 36.6443 96.7695 37.8478 96.7695 39.4281V47.7519H94.1231V39.2076C94.1231 37.7008 93.7212 36.5524 92.9174 35.7623C92.1333 34.9538 91.0649 34.5495 89.7123 34.5495C88.3204 34.5495 87.2128 34.9721 86.3895 35.8174C85.5661 36.6443 85.1544 37.8478 85.1544 39.4281V47.7519H82.4786V32.6477H85.1544V34.8251C85.6837 34.035 86.3895 33.4287 87.2716 33.006C88.1734 32.5834 89.1634 32.3721 90.2416 32.3721C91.5942 32.3721 92.79 32.6569 93.829 33.2265C94.868 33.7962 95.6423 34.6322 96.152 35.7347C96.6029 34.669 97.3478 33.8421 98.3868 33.2541C99.4258 32.6661 100.582 32.3721 101.857 32.3721Z" fill="#F9F6FB"/>
<path d="M128.212 39.621C128.212 40.0988 128.182 40.6041 128.124 41.137H115.244C115.342 42.6253 115.881 43.7921 116.861 44.6374C117.861 45.4643 119.067 45.8777 120.478 45.8777C121.635 45.8777 122.595 45.6296 123.36 45.1335C124.144 44.619 124.693 43.9391 125.007 43.0939H127.888C127.457 44.5455 126.595 45.7307 125.301 46.6494C124.007 47.5498 122.399 48 120.478 48C118.949 48 117.577 47.6784 116.361 47.0353C115.166 46.3922 114.225 45.4826 113.539 44.3066C112.852 43.1123 112.509 41.7341 112.509 40.1723C112.509 38.6104 112.843 37.2415 113.509 36.0655C114.176 34.8895 115.107 33.9891 116.303 33.3643C117.518 32.7212 118.91 32.3997 120.478 32.3997C122.007 32.3997 123.36 32.712 124.536 33.3368C125.712 33.9615 126.614 34.8252 127.241 35.9277C127.888 37.0118 128.212 38.2429 128.212 39.621ZM125.448 39.0973C125.448 38.1418 125.222 37.3241 124.771 36.6443C124.321 35.946 123.703 35.4223 122.919 35.0732C122.154 34.7057 121.302 34.522 120.361 34.522C119.008 34.522 117.851 34.9262 116.891 35.7347C115.95 36.5432 115.411 37.6641 115.273 39.0973H125.448Z" fill="#F9F6FB"/>
<path d="M140.33 32.3721C142.291 32.3721 143.878 32.9325 145.094 34.0534C146.309 35.1559 146.917 36.7545 146.917 38.8493V47.7519H144.271V39.2076C144.271 37.7008 143.869 36.5524 143.065 35.7623C142.261 34.9538 141.163 34.5495 139.772 34.5495C138.36 34.5495 137.233 34.963 136.39 35.7898C135.567 36.6167 135.155 37.8203 135.155 39.4005V47.7519H132.479V32.6477H135.155V34.7976C135.684 34.0258 136.4 33.4287 137.301 33.006C138.223 32.5834 139.232 32.3721 140.33 32.3721Z" fill="#F9F6FB"/>
<path d="M155.287 34.7149V43.6176C155.287 44.3526 155.454 44.8763 155.787 45.1886C156.12 45.4826 156.699 45.6296 157.522 45.6296H159.492V47.7519H157.081C155.591 47.7519 154.474 47.4304 153.729 46.7873C152.984 46.1441 152.611 45.0876 152.611 43.6176V34.7149H150.524V32.6477H152.611V28.8441H155.287V32.6477H159.492V34.7149H155.287Z" fill="#F9F6FB"/>
</svg>
