<svg width="128" height="38" viewBox="0 0 128 38" fill="none" xmlns="http://www.w3.org/2000/svg">
<path d="M16.5258 7.25524C15.9573 6.14604 15.1339 5.29142 14.0557 4.69136C12.9775 4.07312 11.7229 3.764 10.2918 3.764C8.86079 3.764 7.56696 4.07312 6.41035 4.69136C5.27335 5.29142 4.37158 6.16423 3.70506 7.30979C3.05815 8.43717 2.73469 9.74639 2.73469 11.2374C2.73469 12.7285 3.05815 14.0377 3.70506 15.1651C4.37158 16.2925 5.27335 17.1653 6.41035 17.7835C7.56696 18.3836 8.86079 18.6836 10.2918 18.6836C12.2914 18.6836 13.9381 18.129 15.2319 17.0198C16.5258 15.9106 17.2805 14.4105 17.4961 12.5194H9.32147V10.501H20.3484V12.4103C20.1916 13.9741 19.6623 15.4106 18.7606 16.7198C17.8588 18.0108 16.6728 19.0382 15.2025 19.8019C13.7323 20.5474 12.0954 20.9202 10.2918 20.9202C8.3903 20.9202 6.65539 20.5111 5.08711 19.6928C3.51883 18.8564 2.27401 17.7017 1.35264 16.2288C0.450881 14.756 0 13.0922 0 11.2374C0 9.38272 0.450881 7.71892 1.35264 6.24605C2.27401 4.755 3.51883 3.60034 5.08711 2.78208C6.65539 1.94564 8.3903 1.52742 10.2918 1.52742C12.4678 1.52742 14.389 2.02747 16.0553 3.02756C17.7412 4.02766 18.9664 5.43688 19.7309 7.25524H16.5258Z" fill="#F9F6FB"/>
<path d="M26.4154 8.23715C26.8858 7.38252 27.5524 6.71883 28.4149 6.24605C29.2971 5.77328 30.3655 5.53689 31.6201 5.53689V8.10078H30.9144C27.915 8.10078 26.4154 9.61001 26.4154 12.6285V20.7565H23.7395V5.80965H26.4154V8.23715Z" fill="#F9F6FB"/>
<path d="M33.5622 13.2285C33.5622 11.7011 33.8955 10.3646 34.562 9.21907C35.2285 8.05532 36.1401 7.15523 37.2967 6.51881C38.4729 5.88238 39.7765 5.56417 41.2076 5.56417C42.619 5.56417 43.8443 5.84601 44.8832 6.4097C45.9222 6.97339 46.6966 7.68255 47.2063 8.53718V5.80965H49.9115V20.7565H47.2063V17.9744C46.677 18.8473 45.883 19.5746 44.8244 20.1565C43.7854 20.7202 42.57 21.002 41.1782 21.002C39.7471 21.002 38.4533 20.6747 37.2967 20.0201C36.1401 19.3655 35.2285 18.4472 34.562 17.2653C33.8955 16.0834 33.5622 14.7378 33.5622 13.2285ZM47.2063 13.2558C47.2063 12.1284 46.9612 11.1465 46.4711 10.3101C45.981 9.47363 45.3145 8.83721 44.4716 8.40081C43.6482 7.94622 42.7367 7.71892 41.7369 7.71892C40.7371 7.71892 39.8255 7.93712 39.0022 8.37353C38.1788 8.80993 37.5221 9.44636 37.032 10.2828C36.5419 11.1192 36.2969 12.1012 36.2969 13.2285C36.2969 14.3741 36.5419 15.3742 37.032 16.2288C37.5221 17.0653 38.1788 17.7108 39.0022 18.1654C39.8255 18.6018 40.7371 18.82 41.7369 18.82C42.7367 18.82 43.6482 18.6018 44.4716 18.1654C45.3145 17.7108 45.981 17.0653 46.4711 16.2288C46.9612 15.3742 47.2063 14.3832 47.2063 13.2558Z" fill="#F9F6FB"/>
<path d="M53.2867 13.2558C53.2867 11.7102 53.62 10.3646 54.2865 9.21907C54.953 8.05532 55.8744 7.15523 57.0506 6.51881C58.2464 5.88238 59.6089 5.56417 61.1379 5.56417C63.1179 5.56417 64.745 6.00967 66.0192 6.90066C67.313 7.79166 68.1658 9.02814 68.5775 10.6101H65.6957C65.4213 9.70093 64.8822 8.98268 64.0785 8.45535C63.2943 7.92803 62.3141 7.66437 61.1379 7.66437C59.6089 7.66437 58.3738 8.15533 57.4329 9.13724C56.4919 10.101 56.0214 11.4738 56.0214 13.2558C56.0214 15.056 56.4919 16.447 57.4329 17.4289C58.3738 18.4109 59.6089 18.9018 61.1379 18.9018C62.3141 18.9018 63.2943 18.6472 64.0785 18.1381C64.8626 17.629 65.4017 16.9016 65.6957 15.9561H68.5775C68.1462 17.4835 67.2836 18.7109 65.9898 19.6382C64.696 20.5474 63.0787 21.002 61.1379 21.002C59.6089 21.002 58.2464 20.6838 57.0506 20.0474C55.8744 19.4109 54.953 18.5109 54.2865 17.3471C53.62 16.1834 53.2867 14.8196 53.2867 13.2558Z" fill="#F9F6FB"/>
<path d="M73.3829 3.38214C72.8732 3.38214 72.442 3.21849 72.0891 2.89119C71.7362 2.56388 71.5598 2.16384 71.5598 1.69107C71.5598 1.2183 71.7362 0.81826 72.0891 0.490956C72.442 0.163652 72.8732 0 73.3829 0C73.873 0 74.2847 0.163652 74.6179 0.490956C74.9708 0.81826 75.1472 1.2183 75.1472 1.69107C75.1472 2.16384 74.9708 2.56388 74.6179 2.89119C74.2847 3.21849 73.873 3.38214 73.3829 3.38214ZM74.6768 5.80965V20.7565H72.0009V5.80965H74.6768Z" fill="#F9F6FB"/>
<path d="M86.1182 21.002C84.6087 21.002 83.2364 20.6838 82.0014 20.0474C80.786 19.4109 79.8254 18.5109 79.1197 17.3471C78.4336 16.1652 78.0905 14.8014 78.0905 13.2558C78.0905 11.7284 78.4434 10.3828 79.1491 9.21907C79.8744 8.03713 80.8546 7.13705 82.0896 6.51881C83.3247 5.88238 84.7067 5.56417 86.2358 5.56417C87.7649 5.56417 89.1469 5.88238 90.3819 6.51881C91.617 7.13705 92.5873 8.02804 93.2931 9.19179C94.0184 10.3555 94.3811 11.7102 94.3811 13.2558C94.3811 14.8014 94.0086 16.1652 93.2636 17.3471C92.5383 18.5109 91.5483 19.4109 90.2937 20.0474C89.0391 20.6838 87.6472 21.002 86.1182 21.002ZM86.1182 18.82C87.0787 18.82 87.9805 18.6109 88.8234 18.1927C89.6664 17.7744 90.3427 17.1471 90.8524 16.3107C91.3817 15.4742 91.6464 14.4559 91.6464 13.2558C91.6464 12.0557 91.3915 11.0374 90.8818 10.201C90.3721 9.36453 89.7056 8.74629 88.8823 8.34625C88.0589 7.92803 87.167 7.71892 86.2064 7.71892C85.2262 7.71892 84.3244 7.92803 83.5011 8.34625C82.6973 8.74629 82.0504 9.36453 81.5603 10.201C81.0703 11.0374 80.8252 12.0557 80.8252 13.2558C80.8252 14.4741 81.0605 15.5015 81.5309 16.3379C82.021 17.1744 82.6679 17.8017 83.4717 18.2199C84.2754 18.62 85.1576 18.82 86.1182 18.82Z" fill="#F9F6FB"/>
<path d="M112.043 5.80965V20.7565H109.367V18.5472C108.858 19.3109 108.142 19.911 107.221 20.3474C106.319 20.7656 105.319 20.9747 104.221 20.9747C102.967 20.9747 101.84 20.7383 100.84 20.2656C99.8401 19.7746 99.0462 19.0473 98.458 18.0835C97.8895 17.1198 97.6053 15.947 97.6053 14.565V5.80965H100.252V14.2377C100.252 15.7106 100.654 16.8471 101.457 17.6471C102.261 18.429 103.359 18.82 104.751 18.82C106.182 18.82 107.309 18.4109 108.132 17.5926C108.956 16.7743 109.367 15.5833 109.367 14.0195V5.80965H112.043Z" fill="#F9F6FB"/>
<path d="M122.119 21.002C120.884 21.002 119.776 20.8111 118.796 20.4292C117.816 20.0292 117.042 19.4837 116.473 18.7927C115.905 18.0835 115.591 17.2744 115.532 16.3652H118.296C118.375 17.1107 118.747 17.7199 119.414 18.1927C120.1 18.6654 120.992 18.9018 122.09 18.9018C123.109 18.9018 123.913 18.6927 124.501 18.2745C125.089 17.8563 125.383 17.3289 125.383 16.6925C125.383 16.0379 125.069 15.556 124.442 15.2469C123.815 14.9196 122.844 14.6014 121.531 14.2923C120.335 14.0013 119.355 13.7104 118.59 13.4195C117.845 13.1103 117.198 12.6648 116.65 12.083C116.12 11.4829 115.856 10.701 115.856 9.7373C115.856 8.97359 116.101 8.27352 116.591 7.63709C117.081 7.00067 117.777 6.50062 118.679 6.13695C119.58 5.7551 120.609 5.56417 121.766 5.56417C123.55 5.56417 124.991 5.98239 126.089 6.81883C127.186 7.65528 127.775 8.80084 127.853 10.2555H125.177C125.118 9.47363 124.775 8.8463 124.148 8.37353C123.54 7.90076 122.717 7.66437 121.678 7.66437C120.717 7.66437 119.953 7.8553 119.384 8.23715C118.816 8.61901 118.532 9.11905 118.532 9.7373C118.532 10.2283 118.698 10.6374 119.031 10.9647C119.384 11.2738 119.816 11.5284 120.325 11.7284C120.855 11.9102 121.58 12.1193 122.501 12.3557C123.658 12.6467 124.599 12.9376 125.324 13.2285C126.049 13.5013 126.667 13.9195 127.177 14.4832C127.706 15.0469 127.98 15.7833 128 16.6925C128 17.5108 127.755 18.2472 127.265 18.9018C126.775 19.5564 126.079 20.0746 125.177 20.4565C124.295 20.8202 123.276 21.002 122.119 21.002Z" fill="#F9F6FB"/>
<path d="M17.1786 22.704V37.8036H15.0379V26.5444L9.62729 37.8036H8.12174L2.68764 26.5225V37.8036H0.546938V22.704H2.85231L8.87451 35.1852L14.8967 22.704H17.1786Z" fill="#F9F6FB"/>
<path d="M27.0194 38C25.8118 38 24.714 37.7454 23.726 37.2363C22.7537 36.7272 21.9852 36.0071 21.4206 35.0761C20.8717 34.1305 20.5973 33.0395 20.5973 31.803C20.5973 30.5811 20.8796 29.5046 21.4442 28.5736C22.0244 27.6281 22.8086 26.908 23.7966 26.4134C24.7846 25.9043 25.8902 25.6497 27.1135 25.6497C28.3368 25.6497 29.4424 25.9043 30.4304 26.4134C31.4184 26.908 32.1947 27.6208 32.7593 28.5518C33.3396 29.4828 33.6297 30.5666 33.6297 31.803C33.6297 33.0395 33.3317 34.1305 32.7358 35.0761C32.1555 36.0071 31.3635 36.7272 30.3598 37.2363C29.3561 37.7454 28.2427 38 27.0194 38ZM27.0194 36.2544C27.7879 36.2544 28.5093 36.0871 29.1836 35.7525C29.858 35.4179 30.399 34.9161 30.8068 34.2469C31.2302 33.5778 31.442 32.7631 31.442 31.803C31.442 30.843 31.2381 30.0283 30.8303 29.3592C30.4226 28.69 29.8894 28.1954 29.2307 27.8754C28.572 27.5408 27.8584 27.3735 27.09 27.3735C26.3058 27.3735 25.5844 27.5408 24.9257 27.8754C24.2827 28.1954 23.7652 28.69 23.3731 29.3592C22.9811 30.0283 22.785 30.843 22.785 31.803C22.785 32.7777 22.9732 33.5996 23.3496 34.2687C23.7417 34.9379 24.2592 35.4398 24.9022 35.7743C25.5452 36.0944 26.2509 36.2544 27.0194 36.2544Z" fill="#F9F6FB"/>
<path d="M41.8314 35.9707L45.8305 25.8461H48.1124L43.0546 37.8036H40.5611L35.5034 25.8461H37.8087L41.8314 35.9707Z" fill="#F9F6FB"/>
<path d="M62.5691 31.3666C62.5691 31.7449 62.5456 32.1449 62.4985 32.5668H52.1949C52.2733 33.745 52.7046 34.6688 53.4887 35.3379C54.2886 35.9925 55.2531 36.3198 56.3822 36.3198C57.3075 36.3198 58.076 36.1235 58.6876 35.7307C59.3149 35.3234 59.754 34.7851 60.005 34.116H62.3103C61.9653 35.2652 61.2753 36.2035 60.2402 36.9308C59.2051 37.6436 57.9191 38 56.3822 38C55.159 38 54.0612 37.7454 53.0888 37.2363C52.1322 36.7272 51.3794 36.0071 50.8305 35.0761C50.2816 34.1305 50.0072 33.0395 50.0072 31.803C50.0072 30.5666 50.2738 29.4828 50.807 28.5518C51.3402 27.6208 52.0851 26.908 53.0418 26.4134C54.0141 25.9043 55.1276 25.6497 56.3822 25.6497C57.6055 25.6497 58.6876 25.897 59.6286 26.3916C60.5695 26.8862 61.2909 27.5699 61.7928 28.4427C62.3103 29.301 62.5691 30.2756 62.5691 31.3666ZM60.3578 30.9521C60.3578 30.1956 60.1775 29.5483 59.8168 29.01C59.4561 28.4573 58.962 28.0427 58.3347 27.7663C57.7231 27.4754 57.0409 27.3299 56.2881 27.3299C55.206 27.3299 54.2807 27.6499 53.5123 28.29C52.7595 28.93 52.3282 29.8174 52.2184 30.9521H60.3578Z" fill="#F9F6FB"/>
<path d="M81.4853 25.6279C82.489 25.6279 83.3829 25.8243 84.1671 26.2171C84.9512 26.5953 85.5707 27.1699 86.0255 27.9409C86.4803 28.7118 86.7077 29.6501 86.7077 30.7557V37.8036H84.5905V31.0393C84.5905 29.8465 84.269 28.9373 83.626 28.3118C82.9987 27.6717 82.144 27.3517 81.0619 27.3517C79.9484 27.3517 79.0623 27.6863 78.4036 28.3554C77.745 29.01 77.4156 29.9629 77.4156 31.2139V37.8036H75.2984V31.0393C75.2984 29.8465 74.977 28.9373 74.334 28.3118C73.7066 27.6717 72.8519 27.3517 71.7698 27.3517C70.6563 27.3517 69.7703 27.6863 69.1116 28.3554C68.4529 29.01 68.1236 29.9629 68.1236 31.2139V37.8036H65.9829V25.8461H68.1236V27.5699C68.547 26.9444 69.1116 26.4644 69.8173 26.1298C70.5387 25.7952 71.3307 25.6279 72.1933 25.6279C73.2754 25.6279 74.232 25.8534 75.0632 26.3043C75.8944 26.7553 76.5139 27.4172 76.9216 28.29C77.2823 27.4463 77.8783 26.7917 78.7095 26.3262C79.5406 25.8607 80.4659 25.6279 81.4853 25.6279Z" fill="#F9F6FB"/>
<path d="M102.569 31.3666C102.569 31.7449 102.546 32.1449 102.499 32.5668H92.1953C92.2737 33.745 92.705 34.6688 93.4891 35.3379C94.2889 35.9925 95.2534 36.3198 96.3826 36.3198C97.3079 36.3198 98.0763 36.1235 98.688 35.7307C99.3153 35.3234 99.7544 34.7851 100.005 34.116H102.311C101.966 35.2652 101.276 36.2035 100.241 36.9308C99.2055 37.6436 97.9195 38 96.3826 38C95.1593 38 94.0615 37.7454 93.0892 37.2363C92.1325 36.7272 91.3798 36.0071 90.8309 35.0761C90.282 34.1305 90.0075 33.0395 90.0075 31.803C90.0075 30.5666 90.2741 29.4828 90.8073 28.5518C91.3406 27.6208 92.0855 26.908 93.0421 26.4134C94.0145 25.9043 95.128 25.6497 96.3826 25.6497C97.6058 25.6497 98.688 25.897 99.6289 26.3916C100.57 26.8862 101.291 27.5699 101.793 28.4427C102.311 29.301 102.569 30.2756 102.569 31.3666ZM100.358 30.9521C100.358 30.1956 100.178 29.5483 99.8171 29.01C99.4564 28.4573 98.9624 28.0427 98.3351 27.7663C97.7235 27.4754 97.0413 27.3299 96.2885 27.3299C95.2064 27.3299 94.2811 27.6499 93.5126 28.29C92.7598 28.93 92.3286 29.8174 92.2188 30.9521H100.358Z" fill="#F9F6FB"/>
<path d="M112.264 25.6279C113.832 25.6279 115.103 26.0716 116.075 26.9589C117.047 27.8318 117.534 29.0973 117.534 30.7557V37.8036H115.416V31.0393C115.416 29.8465 115.095 28.9373 114.452 28.3118C113.809 27.6717 112.931 27.3517 111.817 27.3517C110.688 27.3517 109.786 27.679 109.112 28.3336C108.453 28.9882 108.124 29.941 108.124 31.1921V37.8036H105.983V25.8461H108.124V27.5481C108.547 26.9371 109.12 26.4644 109.841 26.1298C110.578 25.7952 111.386 25.6279 112.264 25.6279Z" fill="#F9F6FB"/>
<path d="M124.23 27.4826V34.5306C124.23 35.1125 124.363 35.527 124.63 35.7743C124.896 36.0071 125.359 36.1235 126.018 36.1235H127.594V37.8036H125.665C124.473 37.8036 123.579 37.549 122.983 37.0399C122.387 36.5308 122.089 35.6943 122.089 34.5306V27.4826H120.419V25.8461H122.089V22.8349H124.23V25.8461H127.594V27.4826H124.23Z" fill="#F9F6FB"/>
</svg>
