<svg width="33" height="32" viewBox="0 0 33 32" fill="none" xmlns="http://www.w3.org/2000/svg">
<path d="M27.3107 27.0417H22.5614V19.6773C22.5614 17.9212 22.5297 15.6606 20.0912 15.6606C17.6176 15.6606 17.2391 17.5739 17.2391 19.5495V27.0413H12.4898V11.897H17.0491V13.9666H17.113C17.5693 13.1942 18.2286 12.5587 19.0208 12.1279C19.813 11.6971 20.7083 11.4871 21.6115 11.5203C26.4252 11.5203 27.3127 14.6554 27.3127 18.7339L27.3107 27.0417ZM7.13094 9.82692C6.58583 9.82702 6.05293 9.66706 5.59963 9.36728C5.14634 9.0675 4.79303 8.64135 4.58434 8.14274C4.37565 7.64412 4.32095 7.09543 4.4272 6.56605C4.53345 6.03666 4.79587 5.55036 5.18124 5.16864C5.56662 4.78692 6.05767 4.52692 6.59228 4.42153C7.12689 4.31614 7.68105 4.37008 8.1847 4.57654C8.68835 4.783 9.11886 5.1327 9.42178 5.58142C9.72471 6.03014 9.88645 6.55773 9.88655 7.09747C9.88662 7.45584 9.81538 7.81072 9.67694 8.14183C9.53849 8.47295 9.33555 8.77383 9.07967 9.02728C8.82379 9.28073 8.51997 9.4818 8.18561 9.619C7.85125 9.7562 7.49288 9.82685 7.13094 9.82692ZM9.50561 27.0417H4.75132V11.897H9.50561V27.0417ZM29.6784 0.00197918H2.36479C1.74484 -0.00494798 1.14746 0.232109 0.703943 0.661057C0.260431 1.09001 0.00707778 1.67575 -0.000488281 2.28958V29.4464C0.00681883 30.0606 0.260023 30.6467 0.70352 31.0761C1.14702 31.5055 1.74454 31.743 2.36479 31.7365H29.6784C30.2999 31.7442 30.8991 31.5074 31.3444 31.078C31.7896 30.6486 32.0445 30.0618 32.0531 29.4464V2.28762C32.0443 1.67258 31.7892 1.08616 31.3439 0.657225C30.8986 0.228287 30.2996 -0.00809276 29.6784 1.89812e-05" fill="white"/>
</svg>
