<svg width="64" height="73" viewBox="0 0 64 73" fill="none" xmlns="http://www.w3.org/2000/svg">
<path d="M29.783 0.597908C31.1549 -0.199303 32.8451 -0.199302 34.217 0.597909L61.783 16.6165C63.1549 17.4137 64 18.887 64 20.4814V52.5186C64 54.113 63.1549 55.5863 61.783 56.3835L34.217 72.4021C32.8451 73.1993 31.1549 73.1993 29.783 72.4021L2.21702 56.3835C0.845124 55.5863 0 54.113 0 52.5186V20.4814C0 18.887 0.845125 17.4137 2.21703 16.6165L29.783 0.597908Z" fill="#D0C4B8"/>
<path d="M32.628 23.5871C33.7249 24.7879 35.1149 27.4158 35.7912 29.5679L35.9264 29.9734L36.4223 29.4977C37.5118 28.4528 39.0746 27.3534 40.397 26.6906C41.6142 26.0902 41.802 26.1603 42.0725 27.33C42.3355 28.4918 42.4482 29.6069 42.4482 31.0884V32.4686L42.7562 32.3049C43.2521 32.0476 44.6872 31.4861 45.4085 31.2678C46.9713 30.7921 48.7971 30.527 49.1503 30.7219C49.4283 30.8701 49.4583 31.0572 49.3606 32.0086C49.0826 34.7221 48.0533 37.5293 46.3928 40.1103C45.5362 41.4437 44.9051 42.2391 43.8006 43.3931C41.5541 45.7402 38.774 47.5571 36.0617 48.4616L35.5056 48.6487L35.8438 48.7033C36.3472 48.7813 37.2864 48.7735 38.203 48.6877C42.6961 48.2432 47.0014 45.8104 49.3757 42.356C49.6161 42.0129 49.8115 41.701 49.8115 41.6698C49.8115 41.6308 49.4809 41.5217 49.0751 41.4281C48.2862 41.2254 48.0082 41.0382 48.0082 40.6951C48.0082 40.4456 48.3163 40.1103 48.5417 40.1103C48.6393 40.1103 49.1052 40.2195 49.5785 40.352C51.2466 40.8121 51.4494 41.0226 51.0211 41.857C50.6455 42.59 49.8941 43.6504 49.1878 44.438C47.1141 46.7539 44.1988 48.5162 41.0582 49.3505C39.5404 49.756 38.496 49.8885 36.8506 49.8885C35.3479 49.8807 34.4988 49.7794 33.3192 49.4519C32.5077 49.2257 31.5009 49.2257 30.6895 49.4519C29.5098 49.7794 28.6608 49.8807 27.1581 49.8885C25.5126 49.8885 24.4682 49.756 22.9505 49.3505C18.773 48.2432 15.1289 45.5609 13.1528 42.1455C12.6344 41.2488 12.6569 40.9992 13.273 40.7263C13.6863 40.547 15.219 40.1103 15.4595 40.1103C15.6924 40.1103 16.0005 40.4456 16.0005 40.6951C16.0005 41.0382 15.7225 41.2254 14.926 41.4281C14.5278 41.5217 14.1972 41.6308 14.1972 41.6698C14.1972 41.779 15.0237 42.9331 15.5046 43.4945C17.3379 45.6544 20.3433 47.4713 23.3562 48.251C24.8364 48.6409 26.7674 48.8437 27.917 48.7267L28.5105 48.6721L27.7216 48.3758C26.016 47.7442 24.8965 47.1672 23.4389 46.1535C22.1541 45.2645 21.3877 44.6095 20.2757 43.4633C17.12 40.2039 15.0537 35.9932 14.6405 31.9696C14.5203 30.7765 14.618 30.6284 15.4745 30.6674C16.9547 30.7297 19.2764 31.3692 21.0045 32.1957L21.5455 32.453L21.583 30.7219C21.6206 28.9909 21.7483 27.9304 22.0489 26.8777C22.2517 26.1603 22.5523 26.1369 23.7394 26.7607C25.1294 27.4781 26.5269 28.4762 27.6314 29.5445L28.0823 29.9812L28.21 29.5679C28.8411 27.5795 29.9231 25.4585 31.0726 23.9614C31.5385 23.3532 31.809 23.1115 32.0344 23.1115C32.1245 23.1115 32.365 23.2986 32.628 23.5871ZM31.6888 25.0375C30.0057 27.3378 28.7885 30.7142 28.473 33.9892C28.3978 34.7455 28.3678 34.8703 28.2025 35.0184C28.0973 35.1198 27.932 35.1978 27.8268 35.1978C27.6089 35.1978 27.2708 34.8781 27.2708 34.6754C27.2708 34.4024 27.4887 32.6948 27.6164 31.993L27.7366 31.2834L27.376 30.8935C26.8801 30.3711 25.6328 29.3106 24.9416 28.8271C24.2804 28.3671 23.0707 27.6809 23.0181 27.7277C22.8153 27.946 22.5974 31.4705 22.7176 32.648L22.7702 33.1626L23.2736 33.4667C25.0167 34.5428 27.5112 36.9289 28.8411 38.7847C29.6526 39.9154 30.434 41.2488 30.9449 42.3872C31.3356 43.245 31.8315 44.5706 31.9067 44.9448C31.9592 45.2412 32.0494 45.2412 32.102 44.9448C32.1771 44.555 32.6805 43.2294 33.0863 42.3326C33.5747 41.2644 34.2584 40.0791 34.9947 39.0264L35.5658 38.2155L35.6259 37.311C35.701 36.1959 35.5808 34.0281 35.3854 32.8117C34.9947 30.4646 34.2283 28.2189 33.2065 26.4332C32.7407 25.6223 32.0945 24.671 32.0043 24.671C31.9818 24.671 31.839 24.8347 31.6888 25.0375ZM40.4345 27.9772C39.3225 28.562 37.5118 29.9578 36.5951 30.9403L36.257 31.2912L36.3847 31.9852C36.5801 32.9989 36.7153 34.3089 36.7754 35.6033L36.828 36.7573L37.6245 35.9698C38.4735 35.1276 39.9612 33.9268 40.7501 33.4511L41.2385 33.1548L41.2911 32.648C41.3587 31.9852 41.2761 29.1156 41.1784 28.6088C41.1333 28.3905 41.0807 28.1019 41.0582 27.9616C41.0356 27.829 40.9981 27.7121 40.9755 27.7121C40.9605 27.7121 40.7125 27.829 40.4345 27.9772ZM46.8812 32.0943C44.4693 32.5778 41.787 33.9268 39.5179 35.7982C38.6989 36.4688 37.061 38.1687 36.4148 39.0186C34.3861 41.662 33.0788 44.7109 32.6505 47.7832L32.6129 48.0795L32.9661 48.0249C33.8076 47.9001 34.882 47.635 35.7235 47.3543C36.8581 46.9644 38.7891 45.9819 39.8184 45.2801C44.2139 42.2625 47.3019 37.5995 48.1284 32.7415C48.1885 32.3984 48.2336 32.0553 48.2336 31.9774C48.2336 31.8214 48.2486 31.8214 46.8812 32.0943ZM15.775 32.0086C15.775 32.3906 16.1808 34.2075 16.4438 35.0418C18.525 41.5139 24.3931 46.8709 30.5617 47.9469C30.99 48.0171 31.3507 48.0639 31.3657 48.0483C31.3807 48.0327 31.3281 47.635 31.253 47.1672C30.2912 41.3813 26.001 35.8294 20.471 33.2328C19.096 32.5934 17.7286 32.1645 16.1507 31.8994C15.7976 31.837 15.775 31.8448 15.775 32.0086Z" fill="#02393F"/>
</svg>
