<svg width="32" height="33" viewBox="0 0 32 33" fill="none" xmlns="http://www.w3.org/2000/svg">
<path d="M24.9067 2.05664H7.09333C4.28036 2.05664 2 4.40165 2 7.29437V25.6127C2 28.5054 4.28036 30.8505 7.09333 30.8505H24.9067C27.7196 30.8505 30 28.5054 30 25.6127V7.29437C30 4.40165 27.7196 2.05664 24.9067 2.05664Z" stroke="#D0C4B8" stroke-width="1.37113" stroke-miterlimit="10"/>
<path d="M16.0001 22.9939C19.5127 22.9939 22.3601 20.0658 22.3601 16.4536C22.3601 12.8415 19.5127 9.91333 16.0001 9.91333C12.4876 9.91333 9.64014 12.8415 9.64014 16.4536C9.64014 20.0658 12.4876 22.9939 16.0001 22.9939Z" stroke="#D0C4B8" stroke-width="1.37113" stroke-miterlimit="10"/>
<path d="M24.2665 9.91326C25.3196 9.91326 26.1732 9.03542 26.1732 7.95254C26.1732 6.86967 25.3196 5.99182 24.2665 5.99182C23.2135 5.99182 22.3599 6.86967 22.3599 7.95254C22.3599 9.03542 23.2135 9.91326 24.2665 9.91326Z" fill="#D0C4B8"/>
</svg>
