<?xml version="1.0" encoding="UTF-8" standalone="no"?>
<svg
   width="150"
   height="42"
   viewBox="0 0 150 42"
   fill="none"
   version="1.1"
   id="svg62"
   sodipodi:docname="learn-more-reverse.svg"
   inkscape:version="1.2.2 (b0a8486, 2022-12-01)"
   xmlns:inkscape="http://www.inkscape.org/namespaces/inkscape"
   xmlns:sodipodi="http://sodipodi.sourceforge.net/DTD/sodipodi-0.dtd"
   xmlns="http://www.w3.org/2000/svg"
   xmlns:svg="http://www.w3.org/2000/svg"><defs
   id="defs66" />
<sodipodi:namedview
   id="namedview64"
   pagecolor="#ffffff"
   bordercolor="#000000"
   borderopacity="0.25"
   inkscape:showpageshadow="2"
   inkscape:pageopacity="0.0"
   inkscape:pagecheckerboard="0"
   inkscape:deskcolor="#d1d1d1"
   showgrid="false"
   inkscape:zoom="4.4335452"
   inkscape:cx="102.73945"
   inkscape:cy="24.021408"
   inkscape:window-width="1390"
   inkscape:window-height="1205"
   inkscape:window-x="0"
   inkscape:window-y="25"
   inkscape:window-maximized="0"
   inkscape:current-layer="svg62" />
<path
   d="M 20.966323,0.837056 0.711323,40.8978 149.10774,41.2991 149.172,1.20598 Z"
   fill="#0962cf"
   id="path58"
   style="display:inline" />
<path
   d="m 40.386,26.793 h -6.888 l 1.806,-14.7 h 2.226 l -1.512,12.516 h 4.641 z m 11.8794,-4.368 h -7.623 c -0.042,0.728 0.126,1.288 0.504,1.68 0.392,0.378 0.903,0.609 1.533,0.693 0.644,0.07 1.323,0 2.037,-0.21 0.728,-0.224 1.414,-0.574 2.058,-1.05 l 1.071,1.764 c -0.798,0.616 -1.603,1.05 -2.415,1.302 -0.798,0.252 -1.568,0.378 -2.31,0.378 -1.792,0.014 -3.087,-0.49 -3.885,-1.512 -0.784,-1.022 -1.064,-2.457 -0.84,-4.305 0.182,-1.526 0.77,-2.737 1.764,-3.633 0.994,-0.91 2.275,-1.358 3.843,-1.344 1.148,0 2.079,0.238 2.793,0.714 0.728,0.476 1.211,1.155 1.449,2.037 0.168,0.462 0.245,0.98 0.231,1.554 0,0.574 -0.07,1.218 -0.21,1.932 z m -4.137,-4.158 c -0.924,0 -1.68,0.245 -2.268,0.735 -0.588,0.49 -0.924,1.085 -1.008,1.785 h 5.691 c 0.084,-0.686 -0.084,-1.274 -0.504,-1.764 -0.406,-0.504 -1.043,-0.756 -1.911,-0.756 z m 8.2435,8.631 c -1.064,-0.028 -1.862,-0.329 -2.394,-0.903 -0.532,-0.574 -0.735,-1.372 -0.609,-2.394 0.084,-0.728 0.336,-1.344 0.756,-1.848 0.42,-0.504 0.952,-0.889 1.596,-1.155 0.644,-0.28 1.351,-0.448 2.121,-0.504 0.784,-0.056 1.575,0 2.373,0.168 l 0.147,-0.756 c 0.042,-0.392 -0.056,-0.7 -0.294,-0.924 -0.224,-0.224 -0.539,-0.364 -0.945,-0.42 -0.392,-0.07 -0.826,-0.063 -1.302,0.021 -0.462,0.084 -0.917,0.231 -1.365,0.441 -0.434,0.21 -0.791,0.469 -1.071,0.777 l -1.197,-1.47 c 0.56,-0.518 1.204,-0.917 1.932,-1.197 0.728,-0.28 1.463,-0.441 2.205,-0.483 0.756,-0.056 1.449,0.021 2.079,0.231 0.644,0.196 1.162,0.525 1.554,0.987 0.294,0.252 0.476,0.581 0.546,0.987 0.084,0.392 0.105,0.84 0.063,1.344 -0.028,0.49 -0.077,1.015 -0.147,1.575 l -0.672,5.418 h -2.268 l 0.168,-0.924 c -0.518,0.392 -1.022,0.665 -1.512,0.819 -0.49,0.154 -1.078,0.224 -1.764,0.21 z m 3.36,-2.94 0.336,-2.079 c -1.512,-0.14 -2.653,-0.049 -3.423,0.273 -0.756,0.322 -1.176,0.875 -1.26,1.659 -0.056,0.434 0.056,0.742 0.336,0.924 0.294,0.182 0.672,0.266 1.134,0.252 0.476,-0.014 0.973,-0.112 1.491,-0.294 0.518,-0.182 0.98,-0.427 1.386,-0.735 z m 3.6525,2.835 1.302,-10.5 h 2.226 l -0.147,0.798 c 0.588,-0.546 1.246,-0.819 1.974,-0.819 0.742,-0.014 1.582,0.126 2.52,0.42 l -1.239,1.89 c -0.546,-0.196 -1.092,-0.238 -1.638,-0.126 -0.532,0.098 -0.987,0.294 -1.365,0.588 -0.364,0.294 -0.56,0.623 -0.588,0.987 l -0.819,6.762 z m 17.2912,0 h -2.226 l 0.777,-6.216 c 0.07,-0.602 0.007,-1.064 -0.189,-1.386 -0.196,-0.322 -0.462,-0.539 -0.798,-0.651 -0.322,-0.112 -0.651,-0.168 -0.987,-0.168 -0.35,0 -0.742,0.07 -1.176,0.21 -0.434,0.14 -0.819,0.378 -1.155,0.714 -0.336,0.336 -0.539,0.798 -0.609,1.386 l -0.756,6.111 h -2.247 l 1.302,-10.5 h 2.247 l -0.168,0.945 c 0.182,-0.238 0.427,-0.434 0.735,-0.588 0.322,-0.168 0.665,-0.287 1.029,-0.357 0.364,-0.084 0.707,-0.126 1.029,-0.126 0.882,0 1.638,0.189 2.268,0.567 0.644,0.364 1.113,0.889 1.407,1.575 0.308,0.672 0.399,1.463 0.273,2.373 z m 25.1344,0 h -2.226 l 0.756,-6.153 c 0.112,-0.812 -0.007,-1.386 -0.357,-1.722 -0.336,-0.336 -0.826,-0.504 -1.47,-0.504 -0.7,0 -1.323,0.189 -1.869,0.567 -0.546,0.364 -0.875,0.952 -0.987,1.764 l -0.735,6.048 h -2.163 l 0.756,-6.153 c 0.112,-0.826 -0.028,-1.4 -0.42,-1.722 -0.378,-0.322 -0.875,-0.483 -1.491,-0.483 -0.406,0 -0.819,0.077 -1.239,0.231 -0.42,0.154 -0.777,0.406 -1.071,0.756 -0.294,0.336 -0.476,0.777 -0.546,1.323 l -0.756,6.048 h -2.226 l 1.302,-10.5 h 2.226 l -0.147,0.861 c 0.378,-0.364 0.798,-0.616 1.26,-0.756 0.476,-0.14 0.938,-0.21 1.386,-0.21 0.686,0 1.323,0.126 1.911,0.378 0.588,0.252 1.029,0.623 1.323,1.113 0.448,-0.518 1.015,-0.896 1.701,-1.134 0.7,-0.238 1.365,-0.357 1.995,-0.357 0.784,0 1.484,0.189 2.1,0.567 0.63,0.378 1.106,0.91 1.428,1.596 0.322,0.686 0.427,1.484 0.315,2.394 z m 6.4534,0.21 c -1.022,0 -1.897,-0.224 -2.625,-0.672 -0.714,-0.448 -1.239,-1.078 -1.575,-1.89 -0.336,-0.812 -0.434,-1.75 -0.294,-2.814 0.14,-1.218 0.469,-2.226 0.987,-3.024 0.532,-0.812 1.197,-1.414 1.995,-1.806 0.798,-0.406 1.687,-0.609 2.667,-0.609 1.008,0 1.876,0.21 2.604,0.63 0.728,0.42 1.26,1.05 1.596,1.89 0.336,0.84 0.427,1.883 0.273,3.129 -0.126,1.036 -0.448,1.946 -0.966,2.73 -0.518,0.77 -1.176,1.372 -1.974,1.806 -0.798,0.42 -1.694,0.63 -2.688,0.63 z m 0.084,-2.142 c 0.644,0 1.211,-0.147 1.701,-0.441 0.49,-0.308 0.882,-0.707 1.176,-1.197 0.308,-0.504 0.497,-1.036 0.567,-1.596 0.112,-0.952 -0.042,-1.736 -0.462,-2.352 -0.406,-0.63 -1.071,-0.945 -1.995,-0.945 -0.952,0 -1.736,0.329 -2.352,0.987 -0.616,0.658 -0.987,1.498 -1.113,2.52 -0.084,0.826 0.077,1.54 0.483,2.142 0.42,0.588 1.085,0.882 1.995,0.882 z m 6.4565,1.932 1.3022,-10.5 h 2.226 l -0.147,0.798 c 0.588,-0.546 1.246,-0.819 1.974,-0.819 0.742,-0.014 1.582,0.126 2.52,0.42 l -1.239,1.89 c -0.546,-0.196 -1.092,-0.238 -1.638,-0.126 -0.532,0.098 -0.987,0.294 -1.365,0.588 -0.364,0.294 -0.56,0.623 -0.588,0.987 l -0.819,6.762 z m 17.1902,-4.368 h -7.623 c -0.042,0.728 0.126,1.288 0.504,1.68 0.392,0.378 0.903,0.609 1.533,0.693 0.644,0.07 1.323,0 2.037,-0.21 0.728,-0.224 1.414,-0.574 2.058,-1.05 l 1.071,1.764 c -0.798,0.616 -1.603,1.05 -2.415,1.302 -0.798,0.252 -1.568,0.378 -2.31,0.378 -1.792,0.014 -3.087,-0.49 -3.885,-1.512 -0.784,-1.022 -1.064,-2.457 -0.84,-4.305 0.182,-1.526 0.77,-2.737 1.764,-3.633 0.994,-0.91 2.275,-1.358 3.843,-1.344 1.148,0 2.079,0.238 2.793,0.714 0.728,0.476 1.211,1.155 1.449,2.037 0.168,0.462 0.245,0.98 0.231,1.554 0,0.574 -0.07,1.218 -0.21,1.932 z m -4.137,-4.158 c -0.924,0 -1.68,0.245 -2.268,0.735 -0.588,0.49 -0.924,1.085 -1.008,1.785 h 5.691 c 0.084,-0.686 -0.084,-1.274 -0.504,-1.764 -0.406,-0.504 -1.043,-0.756 -1.911,-0.756 z"
   fill="#ffffff"
   id="path60"
   style="display:inline" />
reverse /&gt;
</svg>
