<svg width="150" height="42" viewBox="0 0 150 42" fill="none" xmlns="http://www.w3.org/2000/svg">
<path d="M128.917 0.837056L149.172 40.8978L0.775585 41.2991L0.711323 1.20598L128.917 0.837056Z" fill="#0962CF"/>
<path d="M20.6859 26.793H13.7979L15.6039 12.093H17.8299L16.3179 24.609H20.9589L20.6859 26.793ZM32.5653 22.425H24.9423C24.9003 23.153 25.0683 23.713 25.4463 24.105C25.8383 24.483 26.3493 24.714 26.9793 24.798C27.6233 24.868 28.3023 24.798 29.0163 24.588C29.7443 24.364 30.4303 24.014 31.0743 23.538L32.1453 25.302C31.3473 25.918 30.5423 26.352 29.7303 26.604C28.9323 26.856 28.1623 26.982 27.4203 26.982C25.6283 26.996 24.3333 26.492 23.5353 25.47C22.7513 24.448 22.4713 23.013 22.6953 21.165C22.8773 19.639 23.4653 18.428 24.4593 17.532C25.4533 16.622 26.7343 16.174 28.3023 16.188C29.4503 16.188 30.3813 16.426 31.0953 16.902C31.8233 17.378 32.3063 18.057 32.5443 18.939C32.7123 19.401 32.7893 19.919 32.7753 20.493C32.7753 21.067 32.7053 21.711 32.5653 22.425ZM28.4283 18.267C27.5043 18.267 26.7483 18.512 26.1603 19.002C25.5723 19.492 25.2363 20.087 25.1523 20.787H30.8433C30.9273 20.101 30.7593 19.513 30.3393 19.023C29.9333 18.519 29.2963 18.267 28.4283 18.267ZM36.6718 26.898C35.6078 26.87 34.8098 26.569 34.2778 25.995C33.7458 25.421 33.5428 24.623 33.6688 23.601C33.7528 22.873 34.0048 22.257 34.4248 21.753C34.8448 21.249 35.3768 20.864 36.0208 20.598C36.6648 20.318 37.3718 20.15 38.1418 20.094C38.9258 20.038 39.7168 20.094 40.5148 20.262L40.6618 19.506C40.7038 19.114 40.6058 18.806 40.3678 18.582C40.1438 18.358 39.8288 18.218 39.4228 18.162C39.0308 18.092 38.5968 18.099 38.1208 18.183C37.6588 18.267 37.2038 18.414 36.7558 18.624C36.3218 18.834 35.9648 19.093 35.6848 19.401L34.4878 17.931C35.0478 17.413 35.6918 17.014 36.4198 16.734C37.1478 16.454 37.8828 16.293 38.6248 16.251C39.3808 16.195 40.0738 16.272 40.7038 16.482C41.3478 16.678 41.8658 17.007 42.2578 17.469C42.5518 17.721 42.7338 18.05 42.8038 18.456C42.8878 18.848 42.9088 19.296 42.8668 19.8C42.8388 20.29 42.7898 20.815 42.7198 21.375L42.0478 26.793H39.7798L39.9478 25.869C39.4298 26.261 38.9258 26.534 38.4358 26.688C37.9458 26.842 37.3578 26.912 36.6718 26.898ZM40.0318 23.958L40.3678 21.879C38.8558 21.739 37.7148 21.83 36.9448 22.152C36.1888 22.474 35.7688 23.027 35.6848 23.811C35.6288 24.245 35.7408 24.553 36.0208 24.735C36.3148 24.917 36.6928 25.001 37.1548 24.987C37.6308 24.973 38.1278 24.875 38.6458 24.693C39.1638 24.511 39.6258 24.266 40.0318 23.958ZM43.6843 26.793L44.9863 16.293H47.2123L47.0653 17.091C47.6533 16.545 48.3113 16.272 49.0393 16.272C49.7813 16.258 50.6213 16.398 51.5593 16.692L50.3203 18.582C49.7743 18.386 49.2283 18.344 48.6823 18.456C48.1503 18.554 47.6953 18.75 47.3173 19.044C46.9533 19.338 46.7573 19.667 46.7293 20.031L45.9103 26.793H43.6843ZM60.9755 26.793H58.7495L59.5265 20.577C59.5965 19.975 59.5335 19.513 59.3375 19.191C59.1415 18.869 58.8755 18.652 58.5395 18.54C58.2175 18.428 57.8885 18.372 57.5525 18.372C57.2025 18.372 56.8105 18.442 56.3765 18.582C55.9425 18.722 55.5575 18.96 55.2215 19.296C54.8855 19.632 54.6825 20.094 54.6125 20.682L53.8565 26.793H51.6095L52.9115 16.293H55.1585L54.9905 17.238C55.1725 17 55.4175 16.804 55.7255 16.65C56.0475 16.482 56.3905 16.363 56.7545 16.293C57.1185 16.209 57.4615 16.167 57.7835 16.167C58.6655 16.167 59.4215 16.356 60.0515 16.734C60.6955 17.098 61.1645 17.623 61.4585 18.309C61.7665 18.981 61.8575 19.772 61.7315 20.682L60.9755 26.793ZM86.1099 26.793H83.8839L84.6399 20.64C84.7519 19.828 84.6329 19.254 84.2829 18.918C83.9469 18.582 83.4569 18.414 82.8129 18.414C82.1129 18.414 81.4899 18.603 80.9439 18.981C80.3979 19.345 80.0689 19.933 79.9569 20.745L79.2219 26.793H77.0589L77.8149 20.64C77.9269 19.814 77.7869 19.24 77.3949 18.918C77.0169 18.596 76.5199 18.435 75.9039 18.435C75.4979 18.435 75.0849 18.512 74.6649 18.666C74.2449 18.82 73.8879 19.072 73.5939 19.422C73.2999 19.758 73.1179 20.199 73.0479 20.745L72.2919 26.793H70.0659L71.3679 16.293H73.5939L73.4469 17.154C73.8249 16.79 74.2449 16.538 74.7069 16.398C75.1829 16.258 75.6449 16.188 76.0929 16.188C76.7789 16.188 77.4159 16.314 78.0039 16.566C78.5919 16.818 79.0329 17.189 79.3269 17.679C79.7749 17.161 80.3419 16.783 81.0279 16.545C81.7279 16.307 82.3929 16.188 83.0229 16.188C83.8069 16.188 84.5069 16.377 85.1229 16.755C85.7529 17.133 86.2289 17.665 86.5509 18.351C86.8729 19.037 86.9779 19.835 86.8659 20.745L86.1099 26.793ZM92.5633 27.003C91.5413 27.003 90.6663 26.779 89.9383 26.331C89.2243 25.883 88.6993 25.253 88.3633 24.441C88.0273 23.629 87.9293 22.691 88.0693 21.627C88.2093 20.409 88.5383 19.401 89.0563 18.603C89.5883 17.791 90.2533 17.189 91.0513 16.797C91.8493 16.391 92.7383 16.188 93.7183 16.188C94.7263 16.188 95.5943 16.398 96.3223 16.818C97.0503 17.238 97.5823 17.868 97.9183 18.708C98.2543 19.548 98.3453 20.591 98.1913 21.837C98.0653 22.873 97.7433 23.783 97.2253 24.567C96.7073 25.337 96.0493 25.939 95.2513 26.373C94.4533 26.793 93.5573 27.003 92.5633 27.003ZM92.6473 24.861C93.2913 24.861 93.8583 24.714 94.3483 24.42C94.8383 24.112 95.2303 23.713 95.5243 23.223C95.8323 22.719 96.0213 22.187 96.0913 21.627C96.2033 20.675 96.0493 19.891 95.6293 19.275C95.2233 18.645 94.5583 18.33 93.6343 18.33C92.6823 18.33 91.8983 18.659 91.2823 19.317C90.6663 19.975 90.2953 20.815 90.1693 21.837C90.0853 22.663 90.2463 23.377 90.6523 23.979C91.0723 24.567 91.7373 24.861 92.6473 24.861ZM99.1038 26.793L100.406 16.293H102.632L102.485 17.091C103.073 16.545 103.731 16.272 104.459 16.272C105.201 16.258 106.041 16.398 106.979 16.692L105.74 18.582C105.194 18.386 104.648 18.344 104.102 18.456C103.57 18.554 103.115 18.75 102.737 19.044C102.373 19.338 102.177 19.667 102.149 20.031L101.33 26.793H99.1038ZM116.294 22.425H108.671C108.629 23.153 108.797 23.713 109.175 24.105C109.567 24.483 110.078 24.714 110.708 24.798C111.352 24.868 112.031 24.798 112.745 24.588C113.473 24.364 114.159 24.014 114.803 23.538L115.874 25.302C115.076 25.918 114.271 26.352 113.459 26.604C112.661 26.856 111.891 26.982 111.149 26.982C109.357 26.996 108.062 26.492 107.264 25.47C106.48 24.448 106.2 23.013 106.424 21.165C106.606 19.639 107.194 18.428 108.188 17.532C109.182 16.622 110.463 16.174 112.031 16.188C113.179 16.188 114.11 16.426 114.824 16.902C115.552 17.378 116.035 18.057 116.273 18.939C116.441 19.401 116.518 19.919 116.504 20.493C116.504 21.067 116.434 21.711 116.294 22.425ZM112.157 18.267C111.233 18.267 110.477 18.512 109.889 19.002C109.301 19.492 108.965 20.087 108.881 20.787H114.572C114.656 20.101 114.488 19.513 114.068 19.023C113.662 18.519 113.025 18.267 112.157 18.267Z" fill="white"/>
</svg>
