<svg width="250" height="57" viewBox="0 0 250 57" fill="none" xmlns="http://www.w3.org/2000/svg">
<path d="M219.291 0L237.553 47.7417L1.10207 48.4642L1.06187 0.666809L219.291 0Z" fill="#B9F615" fill-opacity="0.25"/>
<path d="M230.697 8.28153L250 55.9112L0.0395203 56.6737L-0.000610352 8.98527L230.697 8.28153Z" fill="#B9F615"/>
<path d="M51.166 32.9187C50.9524 34.6512 50.4422 36.2649 49.6353 37.7601C48.8284 39.2552 47.8079 40.5723 46.5738 41.7115C45.3398 42.8506 43.9514 43.7406 42.4089 44.3813C40.89 44.9984 39.2999 45.3069 37.6387 45.3069C35.93 45.3069 34.3637 44.9746 32.9397 44.3101C31.5395 43.6456 30.3411 42.732 29.3443 41.5691C28.3476 40.3825 27.6237 39.0179 27.1728 37.4753C26.7456 35.9327 26.6388 34.2952 26.8524 32.5627C27.066 30.8303 27.5763 29.2165 28.3832 27.7214C29.19 26.2025 30.2105 24.8735 31.4446 23.7344C32.6787 22.5715 34.0551 21.6697 35.574 21.0289C37.1166 20.3644 38.7185 20.0322 40.3798 20.0322C42.0647 20.0322 43.6073 20.3763 45.0075 21.0645C46.4315 21.729 47.6418 22.6546 48.6385 23.8412C49.6353 25.0278 50.3591 26.4042 50.81 27.9706C51.2609 29.5132 51.3796 31.1625 51.166 32.9187ZM47.3214 32.5627C47.5113 30.9489 47.3095 29.4776 46.7162 28.1486C46.1467 26.7958 45.2923 25.7279 44.1532 24.9447C43.014 24.1378 41.7088 23.7344 40.2374 23.7344C39.0745 23.7344 37.9591 23.9836 36.8911 24.4819C35.8232 24.9566 34.8502 25.6211 33.9721 26.4754C33.094 27.3298 32.3583 28.3147 31.765 29.4301C31.1954 30.5218 30.8394 31.6846 30.697 32.9187C30.5072 34.5088 30.697 35.9683 31.2666 37.2973C31.8599 38.6026 32.7261 39.6468 33.8653 40.4299C35.0044 41.2131 36.3097 41.6047 37.7811 41.6047C38.9202 41.6047 40.0238 41.3674 41.0917 40.8927C42.1834 40.4181 43.1683 39.7654 44.0464 38.9348C44.9245 38.1042 45.6483 37.143 46.2179 36.0514C46.8112 34.9597 47.179 33.7968 47.3214 32.5627ZM66.9758 45.1289H63.1668L63.4516 43.2422C62.9057 44.0016 62.1938 44.5475 61.3157 44.8797C60.4376 45.1882 59.512 45.3188 58.539 45.2713C57.566 45.2476 56.6405 45.0696 55.7624 44.7373C54.908 44.4051 54.2079 43.9423 53.6621 43.349C52.9976 42.7557 52.5229 41.9607 52.2381 40.9639C51.9534 39.9672 51.894 38.8399 52.0601 37.5821L53.3061 27.3298H57.1151L55.798 37.7601C55.6556 39.1128 55.9285 40.0858 56.6167 40.6791C57.305 41.2487 58.2305 41.5335 59.3934 41.5335C60.0341 41.5335 60.6986 41.3911 61.3869 41.1063C62.0751 40.8215 62.6684 40.3943 63.1668 39.8248C63.6889 39.2315 64.0093 38.4839 64.1279 37.5821L65.3739 27.3298H69.1829L66.9758 45.1289ZM70.0353 45.1289L72.2424 27.3298H76.0158L75.7666 28.6825C76.7634 27.757 77.8788 27.2942 79.1128 27.2942C80.3707 27.2705 81.7946 27.5078 83.3846 28.0062L81.2843 31.21C80.3588 30.8778 79.4332 30.8066 78.5077 30.9964C77.6059 31.1625 76.8346 31.4948 76.1938 31.9932C75.5768 32.4915 75.2445 33.0492 75.197 33.6663L73.8087 45.1289H70.0353ZM111.054 42.7794C109.725 43.9186 108.349 44.6899 106.925 45.0933C105.525 45.4968 104.172 45.568 102.867 45.3069C101.585 45.0696 100.458 44.5475 99.4848 43.7406C98.5117 42.91 97.776 41.842 97.2777 40.5367C96.803 39.2315 96.6725 37.7245 96.8861 36.0158C97.0997 34.2833 97.5981 32.8001 98.3812 31.566C99.1644 30.3082 100.126 29.3114 101.265 28.5757C102.428 27.84 103.673 27.3891 105.002 27.223C106.331 27.0569 107.66 27.1993 108.989 27.6502C110.318 28.1011 111.541 28.8843 112.656 29.9997L109.915 32.5627C109.203 31.6846 108.349 31.1507 107.352 30.9608C106.379 30.771 105.406 30.8778 104.433 31.2812C103.46 31.6609 102.617 32.2898 101.905 33.1679C101.217 34.046 100.79 35.1139 100.624 36.3717C100.482 37.677 100.648 38.7568 101.122 39.6112C101.597 40.4655 102.273 41.0707 103.151 41.4267C104.029 41.7589 104.979 41.8064 105.999 41.5691C107.043 41.3318 108.052 40.7622 109.025 39.8604L111.054 42.7794ZM117.386 45.1289H113.612L116.674 20.2101H120.447L117.386 45.1289ZM125.672 45.3069C123.868 45.2594 122.516 44.7492 121.614 43.7762C120.712 42.8032 120.368 41.4504 120.581 39.718C120.724 38.4839 121.151 37.4397 121.863 36.5853C122.575 35.731 123.477 35.0783 124.568 34.6274C125.66 34.1528 126.859 33.868 128.164 33.7731C129.493 33.6781 130.834 33.7731 132.186 34.0579L132.436 32.7763C132.507 32.1118 132.341 31.5897 131.937 31.21C131.558 30.8303 131.024 30.593 130.335 30.498C129.671 30.3794 128.935 30.3912 128.128 30.5336C127.345 30.676 126.574 30.9252 125.814 31.2812C125.079 31.6372 124.474 32.0762 123.999 32.5983L121.97 30.1065C122.919 29.2284 124.011 28.552 125.245 28.0774C126.479 27.6027 127.725 27.3298 128.983 27.2586C130.264 27.1637 131.439 27.2942 132.507 27.6502C133.599 27.9824 134.477 28.5401 135.141 29.3233C135.639 29.7505 135.948 30.3082 136.067 30.9964C136.209 31.6609 136.245 32.4203 136.173 33.2747C136.126 34.1053 136.043 34.9953 135.924 35.9446L134.785 45.1289H130.941L131.225 43.5626C130.347 44.2271 129.493 44.6899 128.662 44.9509C127.832 45.212 126.835 45.3306 125.672 45.3069ZM131.368 40.3231L131.937 36.7989C129.374 36.5616 127.44 36.7159 126.135 37.2617C124.853 37.8075 124.141 38.745 123.999 40.074C123.904 40.8097 124.094 41.3318 124.568 41.6403C125.067 41.9488 125.708 42.0912 126.491 42.0675C127.298 42.0437 128.14 41.8776 129.018 41.5691C129.896 41.2606 130.679 40.8453 131.368 40.3231ZM137.274 42.7794L139.695 40.5011C140.858 41.5691 142.116 42.1031 143.469 42.1031C144.442 42.0793 145.237 41.7827 145.854 41.2131C146.471 40.6198 146.744 39.9316 146.672 39.1484C146.601 38.6975 146.328 38.3534 145.854 38.1161C145.403 37.855 144.845 37.6177 144.181 37.4041C143.54 37.1905 142.875 36.9413 142.187 36.6565C141.499 36.3717 140.906 35.9802 140.407 35.4818C139.505 34.6749 139.007 33.8087 138.912 32.8831C138.817 31.9338 139.031 31.032 139.553 30.1777C140.075 29.3233 140.834 28.6232 141.831 28.0774C142.828 27.5078 143.967 27.1993 145.248 27.1518C146.53 27.1281 147.681 27.3298 148.702 27.757C149.722 28.1842 150.493 28.7419 151.015 29.4301L148.452 31.4948C148.049 31.1151 147.562 30.854 146.993 30.7116C146.423 30.5455 145.877 30.4624 145.355 30.4624C144.691 30.4624 144.097 30.6167 143.575 30.9252C143.077 31.21 142.78 31.6846 142.685 32.3491C142.59 32.9187 142.792 33.3578 143.291 33.6663C143.789 33.9748 144.43 34.2596 145.213 34.5206C145.996 34.758 146.779 35.0902 147.562 35.5174C148.44 35.8971 149.117 36.4785 149.591 37.2617C150.066 38.0449 150.185 39.0653 149.947 40.3231C149.781 41.4386 149.354 42.376 148.666 43.1354C148.001 43.8948 147.183 44.4644 146.21 44.8441C145.237 45.2238 144.204 45.4018 143.113 45.3781C142.021 45.3544 140.965 45.1289 139.944 44.7017C138.924 44.2745 138.034 43.6338 137.274 42.7794ZM151.405 42.7794L153.826 40.5011C154.989 41.5691 156.246 42.1031 157.599 42.1031C158.572 42.0793 159.367 41.7827 159.984 41.2131C160.601 40.6198 160.874 39.9316 160.803 39.1484C160.732 38.6975 160.459 38.3534 159.984 38.1161C159.533 37.855 158.976 37.6177 158.311 37.4041C157.67 37.1905 157.006 36.9413 156.318 36.6565C155.629 36.3717 155.036 35.9802 154.538 35.4818C153.636 34.6749 153.137 33.8087 153.043 32.8831C152.948 31.9338 153.161 31.032 153.683 30.1777C154.205 29.3233 154.965 28.6232 155.962 28.0774C156.958 27.5078 158.098 27.1993 159.379 27.1518C160.661 27.1281 161.812 27.3298 162.832 27.757C163.853 28.1842 164.624 28.7419 165.146 29.4301L162.583 31.4948C162.179 31.1151 161.693 30.854 161.123 30.7116C160.554 30.5455 160.008 30.4624 159.486 30.4624C158.821 30.4624 158.228 30.6167 157.706 30.9252C157.208 31.21 156.911 31.6846 156.816 32.3491C156.721 32.9187 156.923 33.3578 157.421 33.6663C157.92 33.9748 158.56 34.2596 159.343 34.5206C160.127 34.758 160.91 35.0902 161.693 35.5174C162.571 35.8971 163.247 36.4785 163.722 37.2617C164.197 38.0449 164.315 39.0653 164.078 40.3231C163.912 41.4386 163.485 42.376 162.796 43.1354C162.132 43.8948 161.313 44.4644 160.34 44.8441C159.367 45.2238 158.335 45.4018 157.243 45.3781C156.151 45.3544 155.095 45.1289 154.075 44.7017C153.054 44.2745 152.164 43.6338 151.405 42.7794ZM183.264 37.7245H170.341C170.27 38.9585 170.555 39.9078 171.196 40.5723C171.86 41.2131 172.726 41.6047 173.794 41.7471C174.886 41.8657 176.037 41.7471 177.247 41.3911C178.481 41.0114 179.644 40.4181 180.736 39.6112L182.552 42.6014C181.199 43.6456 179.834 44.3813 178.458 44.8085C177.105 45.2357 175.8 45.4493 174.542 45.4493C171.504 45.473 169.309 44.6187 167.956 42.8862C166.627 41.1538 166.153 38.7212 166.532 35.5886C166.841 33.0018 167.838 30.9489 169.523 29.4301C171.208 27.8875 173.379 27.1281 176.037 27.1518C177.983 27.1518 179.561 27.5553 180.772 28.3621C182.006 29.169 182.824 30.32 183.228 31.8152C183.513 32.5983 183.643 33.4764 183.619 34.4494C183.619 35.4225 183.501 36.5141 183.264 37.7245ZM176.251 30.676C174.684 30.676 173.403 31.0913 172.406 31.922C171.409 32.7526 170.84 33.7612 170.697 34.9478H180.344C180.487 33.7849 180.202 32.7882 179.49 31.9576C178.802 31.1032 177.722 30.676 176.251 30.676ZM184.707 42.7794L187.128 40.5011C188.29 41.5691 189.548 42.1031 190.901 42.1031C191.874 42.0793 192.669 41.7827 193.286 41.2131C193.903 40.6198 194.176 39.9316 194.105 39.1484C194.034 38.6975 193.761 38.3534 193.286 38.1161C192.835 37.855 192.277 37.6177 191.613 37.4041C190.972 37.1905 190.308 36.9413 189.619 36.6565C188.931 36.3717 188.338 35.9802 187.84 35.4818C186.938 34.6749 186.439 33.8087 186.344 32.8831C186.249 31.9338 186.463 31.032 186.985 30.1777C187.507 29.3233 188.267 28.6232 189.263 28.0774C190.26 27.5078 191.399 27.1993 192.681 27.1518C193.962 27.1281 195.113 27.3298 196.134 27.757C197.154 28.1842 197.926 28.7419 198.448 29.4301L195.885 31.4948C195.481 31.1151 194.995 30.854 194.425 30.7116C193.856 30.5455 193.31 30.4624 192.788 30.4624C192.123 30.4624 191.53 30.6167 191.008 30.9252C190.509 31.21 190.213 31.6846 190.118 32.3491C190.023 32.9187 190.225 33.3578 190.723 33.6663C191.221 33.9748 191.862 34.2596 192.645 34.5206C193.428 34.758 194.212 35.0902 194.995 35.5174C195.873 35.8971 196.549 36.4785 197.024 37.2617C197.499 38.0449 197.617 39.0653 197.38 40.3231C197.214 41.4386 196.787 42.376 196.098 43.1354C195.434 43.8948 194.615 44.4644 193.642 44.8441C192.669 45.2238 191.637 45.4018 190.545 45.3781C189.453 45.3544 188.397 45.1289 187.377 44.7017C186.356 44.2745 185.466 43.6338 184.707 42.7794Z" fill="black"/>
</svg>
