<svg width="32" height="33" viewBox="0 0 32 33" fill="none" xmlns="http://www.w3.org/2000/svg">
<path d="M17.2532 2.60022V21.4936C17.2532 22.4943 16.8556 23.4541 16.148 24.1617C15.4404 24.8693 14.4806 25.2669 13.4798 25.2669C12.4791 25.2669 11.5193 24.8693 10.8117 24.1617C10.1041 23.4541 9.7065 22.4943 9.7065 21.4936C9.7065 20.4916 10.1036 19.5304 10.8109 18.8207C11.5181 18.1109 12.4779 17.7104 13.4798 17.7069V12.6802C11.1424 12.6802 8.90069 13.6088 7.24787 15.2616C5.59505 16.9144 4.6665 19.1561 4.6665 21.4936C4.6665 23.831 5.59505 26.0727 7.24787 27.7255C8.90069 29.3783 11.1424 30.3069 13.4798 30.3069C15.8173 30.3069 18.059 29.3783 19.7118 27.7255C21.3646 26.0727 22.2932 23.831 22.2932 21.4936V12.6802L22.5598 12.8136C24.0437 13.5488 25.6771 13.9321 27.3332 13.9336V8.89355H27.1865C25.7883 8.54523 24.5469 7.739 23.6601 6.60331C22.7733 5.46761 22.2921 4.0678 22.2932 2.62689H17.2532V2.60022Z" stroke="#D0C4B8" stroke-width="1.37113" stroke-miterlimit="10"/>
</svg>
