<svg width="21" height="21" viewBox="0 0 21 21" fill="none" xmlns="http://www.w3.org/2000/svg">
<path d="M21 10.5C21 4.701 16.299 -7.90681e-06 10.5 -7.90681e-06C4.70101 -7.90681e-06 0 4.701 0 10.5C0 15.7408 3.8397 20.0847 8.85937 20.8724V13.5351H6.19336V10.5H8.85937V8.18671C8.85937 5.55515 10.427 4.10155 12.8254 4.10155C13.9742 4.10155 15.1758 4.30663 15.1758 4.30663V6.89062H13.8518C12.5474 6.89062 12.1406 7.7 12.1406 8.53036V10.5H15.0527L14.5872 13.5351H12.1406V20.8724C17.1603 20.0847 21 15.7408 21 10.5Z" fill="white"/>
</svg>
