<svg width="22" height="22" viewBox="0 0 22 22" fill="none" xmlns="http://www.w3.org/2000/svg">
<path d="M6.44426 0.0770534C5.27386 0.132273 4.4746 0.319053 3.77588 0.593613C3.05274 0.875433 2.43982 1.25361 1.82998 1.86565C1.22014 2.47769 0.844598 3.09105 0.564758 3.81529C0.293938 4.51555 0.110458 5.31547 0.0587578 6.48653C0.00705784 7.65759 -0.00438216 8.03401 0.00133784 11.0212C0.00705784 14.0083 0.0202578 14.3828 0.0770178 15.5563C0.132898 16.7264 0.319018 17.5255 0.593578 18.2244C0.875838 18.9476 1.25358 19.5603 1.86584 20.1703C2.4781 20.7804 3.09102 21.155 3.81702 21.4353C4.51662 21.7057 5.31676 21.8901 6.4876 21.9413C7.65844 21.9926 8.0353 22.0045 11.0216 21.9987C14.0079 21.993 14.3838 21.9798 15.5571 21.9242C16.7304 21.8685 17.5252 21.6811 18.2244 21.4078C18.9475 21.1249 19.5607 20.7478 20.1703 20.1353C20.7799 19.5229 21.1552 18.9091 21.4348 18.1844C21.7059 17.4848 21.89 16.6846 21.9408 15.5147C21.9921 14.3405 22.0042 13.9657 21.9985 10.9789C21.9928 7.99221 21.9793 7.61777 21.9237 6.44473C21.868 5.27169 21.6817 4.47507 21.4073 3.77569C21.1246 3.05255 20.7473 2.44029 20.1353 1.82979C19.5233 1.21929 18.909 0.844193 18.1846 0.565233C17.4845 0.294413 16.6848 0.109833 15.514 0.0592334C14.3431 0.00863344 13.9663 -0.00434656 10.9789 0.00137344C7.99152 0.00709344 7.61752 0.0198534 6.44426 0.0770534ZM6.57274 19.9624C5.50024 19.9158 4.9179 19.7376 4.52982 19.5884C4.0159 19.3904 3.64982 19.1511 3.26306 18.768C2.8763 18.385 2.6387 18.0176 2.43806 17.5048C2.28736 17.1167 2.10586 16.535 2.0557 15.4625C2.00114 14.3034 1.9897 13.9553 1.98332 11.0185C1.97694 8.08175 1.98816 7.73415 2.03898 6.57453C2.08474 5.50291 2.26404 4.91991 2.41298 4.53205C2.61098 4.01747 2.84946 3.65205 3.23336 3.26551C3.61726 2.87897 3.98356 2.64093 4.49682 2.44029C4.88446 2.28893 5.46614 2.10897 6.5382 2.05793C7.69826 2.00293 8.04586 1.99193 10.9822 1.98555C13.9185 1.97917 14.267 1.99017 15.4275 2.04121C16.4991 2.08785 17.0824 2.26539 17.4698 2.41521C17.9839 2.61321 18.3498 2.85103 18.7363 3.23559C19.1229 3.62015 19.3611 3.98513 19.5618 4.49949C19.7133 4.88603 19.8933 5.46749 19.9439 6.54021C19.9991 7.70027 20.0117 8.04809 20.0169 10.9842C20.0222 13.9203 20.0119 14.269 19.9611 15.4282C19.9142 16.5007 19.7364 17.0833 19.5871 17.4718C19.3891 17.9855 19.1504 18.3518 18.7662 18.7381C18.3821 19.1244 18.0163 19.3625 17.5028 19.5631C17.1156 19.7143 16.5332 19.8947 15.4621 19.9457C14.302 20.0003 13.9544 20.0117 11.017 20.0181C8.07952 20.0245 7.73302 20.0126 6.57296 19.9624M15.5402 5.12099C15.5406 5.38208 15.6184 5.63718 15.7639 5.85402C15.9093 6.07086 16.1158 6.2397 16.3571 6.33919C16.5985 6.43869 16.864 6.46436 17.12 6.41296C17.376 6.36157 17.611 6.23542 17.7952 6.05046C17.9795 5.8655 18.1048 5.63005 18.1553 5.37388C18.2057 5.11771 18.1791 4.85234 18.0787 4.61131C17.9783 4.37029 17.8087 4.16445 17.5914 4.01982C17.374 3.87519 17.1186 3.79827 16.8575 3.79879C16.5075 3.79949 16.1721 3.93917 15.9251 4.18712C15.678 4.43507 15.5396 4.77098 15.5402 5.12099ZM5.35196 11.0111C5.35812 14.1307 7.89164 16.6538 11.0106 16.6479C14.1295 16.642 16.6545 14.1087 16.6485 10.9891C16.6426 7.86945 14.1084 5.34561 10.989 5.35177C7.86964 5.35793 5.34602 7.89189 5.35196 11.0111ZM7.33328 11.0071C7.33184 10.2819 7.54549 9.57253 7.9472 8.96874C8.34892 8.36496 8.92065 7.89385 9.59011 7.615C10.2596 7.33615 10.9967 7.26207 11.7082 7.40215C12.4198 7.54222 13.0738 7.89015 13.5876 8.40194C14.1015 8.91372 14.452 9.56638 14.5949 10.2774C14.7378 10.9884 14.6666 11.7258 14.3904 12.3963C14.1142 13.0669 13.6454 13.6405 13.0432 14.0446C12.441 14.4487 11.7325 14.6651 11.0073 14.6666C10.5257 14.6676 10.0487 14.5737 9.60346 14.3904C9.15819 14.207 8.75342 13.9377 8.41224 13.5979C8.07107 13.258 7.80018 12.8543 7.61505 12.4098C7.42992 11.9653 7.33417 11.4886 7.33328 11.0071Z" fill="white"/>
</svg>
