<svg width="22" height="21" viewBox="0 0 22 21" fill="none" xmlns="http://www.w3.org/2000/svg">
<path d="M18.0111 17.7461H14.879V12.9132C14.879 11.7607 14.8581 10.2772 13.2499 10.2772C11.6186 10.2772 11.369 11.5328 11.369 12.8293V17.7458H8.2368V7.80736H11.2437V9.16555H11.2858C11.5867 8.65861 12.0215 8.24158 12.544 7.95888C13.0664 7.67617 13.6569 7.53837 14.2526 7.56016C17.4271 7.56016 18.0125 9.61753 18.0125 12.294L18.0111 17.7461ZM4.70266 6.44885C4.34317 6.44892 3.99172 6.34395 3.69277 6.14721C3.39383 5.95048 3.16082 5.67082 3.02319 5.34361C2.88556 5.01639 2.84949 4.65631 2.91956 4.3089C2.98963 3.9615 3.16269 3.64236 3.41685 3.39186C3.671 3.14135 3.99485 2.97073 4.34742 2.90157C4.7 2.8324 5.06546 2.8678 5.39762 3.00329C5.72977 3.13878 6.01369 3.36827 6.21347 3.66275C6.41325 3.95722 6.51992 4.30345 6.51998 4.65765C6.52003 4.89283 6.47305 5.12572 6.38174 5.34302C6.29044 5.56031 6.1566 5.75776 5.98784 5.92409C5.81909 6.09042 5.61873 6.22237 5.39822 6.31241C5.17771 6.40244 4.94136 6.44881 4.70266 6.44885ZM6.26875 17.7461H3.13331V7.80736H6.26875V17.7461ZM19.5727 0.00123589H1.5594C1.15055 -0.00331005 0.756577 0.152258 0.464082 0.433756C0.171587 0.715253 0.00450151 1.09965 -0.000488281 1.50248V19.3242C0.00433074 19.7272 0.171318 20.1118 0.463803 20.3936C0.756288 20.6754 1.15035 20.8313 1.5594 20.827H19.5727C19.9825 20.8321 20.3777 20.6766 20.6713 20.3949C20.965 20.1131 21.1331 19.728 21.1388 19.3242V1.50119C21.1329 1.09756 20.9647 0.712731 20.671 0.431241C20.3774 0.14975 19.9823 -0.00537382 19.5727 -5.04861e-05" fill="white"/>
</svg>
