<svg width="68" height="24" viewBox="0 0 68 24" fill="none" xmlns="http://www.w3.org/2000/svg">
<path d="M62.268 7.8e-05H5.72081C5.50079 7.8e-05 5.28341 7.8e-05 5.06397 0.001278C4.88028 0.002478 4.69805 0.005964 4.5126 0.008898C4.10971 0.0136391 3.70776 0.0490838 3.31026 0.114924C2.91331 0.182198 2.5288 0.309027 2.16973 0.491124C1.8111 0.674761 1.48341 0.913379 1.19854 1.19832C0.912181 1.48246 0.673478 1.81089 0.49161 2.17097C0.30924 2.53034 0.182784 2.91544 0.11661 3.31297C0.0498066 3.70999 0.013859 4.11159 0.00909 4.51417C0.003522 4.69813 0.002934 4.8827 0 5.06668V18.9352C0.002934 19.1215 0.003522 19.302 0.00909 19.4884C0.0138605 19.8909 0.049808 20.2925 0.11661 20.6895C0.182602 21.0873 0.309065 21.4726 0.49161 21.8321C0.673395 22.191 0.912132 22.5181 1.19854 22.8007C1.48233 23.0869 1.81023 23.3257 2.16973 23.5079C2.5288 23.6905 2.91327 23.8181 3.31026 23.8864C3.70783 23.9517 4.10973 23.9872 4.5126 23.9925C4.69805 23.9965 4.88028 23.9989 5.06397 23.9989C5.2834 24.0001 5.5008 24.0001 5.72081 24.0001H62.268C62.4837 24.0001 62.7028 24.0001 62.9184 23.9989C63.1013 23.9989 63.2888 23.9965 63.4716 23.9925C63.8737 23.9874 64.2748 23.952 64.6716 23.8864C65.0699 23.8176 65.4557 23.69 65.8165 23.5079C66.1757 23.3256 66.5033 23.0868 66.7868 22.8007C67.0725 22.517 67.3117 22.1902 67.4958 21.8321C67.677 21.4723 67.8022 21.087 67.8672 20.6895C67.9342 20.2925 67.9714 19.891 67.9786 19.4884C67.9809 19.302 67.9809 19.1215 67.9809 18.9352C67.9856 18.7173 67.9856 18.5005 67.9856 18.279V5.72176C67.9856 5.50203 67.9856 5.28406 67.9809 5.06668C67.9809 4.8827 67.9809 4.69813 67.9786 4.51414C67.9714 4.11153 67.9342 3.71002 67.8672 3.31294C67.802 2.91565 67.6768 2.53058 67.4958 2.17095C67.1254 1.4492 66.5381 0.861693 65.8165 0.49107C65.4557 0.309418 65.0698 0.182622 64.6716 0.11487C64.2749 0.0487397 63.8737 0.0132827 63.4716 0.008814C63.2888 0.005886 63.1013 0.00237 62.9184 0.0012C62.7028 0 62.4837 7.8e-05 62.268 7.8e-05Z" fill="white"/>
<path d="M5.0669 23.475C4.88409 23.475 4.70567 23.4727 4.52432 23.4686C4.14859 23.4637 3.77374 23.431 3.40284 23.3707C3.05699 23.3112 2.72196 23.2004 2.40879 23.042C2.0985 22.8849 1.81548 22.679 1.57059 22.432C1.32216 22.188 1.11532 21.905 0.958288 21.5941C0.799521 21.2813 0.689645 20.946 0.632488 20.5998C0.570762 20.2279 0.537366 19.8518 0.532588 19.4748C0.528784 19.3483 0.523804 18.927 0.523804 18.927V5.06663C0.523804 5.06663 0.529108 4.65178 0.532618 4.5299C0.537193 4.15351 0.570395 3.77802 0.631936 3.40666C0.689199 3.05957 0.79916 2.72327 0.958012 2.4094C1.11447 2.09879 1.32016 1.81554 1.5671 1.57063C1.81376 1.3234 2.09768 1.11639 2.4085 0.95715C2.72095 0.799281 3.05534 0.689264 3.40049 0.630786C3.77261 0.569926 4.14876 0.537022 4.5258 0.53235L5.06719 0.525024H62.9155L63.4634 0.532644C63.837 0.537084 64.2097 0.569694 64.5784 0.630198C64.927 0.689409 65.2649 0.800194 65.5809 0.958908C66.2036 1.27982 66.7103 1.78752 67.0299 2.41087C67.1863 2.72257 67.2945 3.05613 67.3511 3.40022C67.4133 3.77462 67.4482 4.15307 67.4553 4.53254C67.4571 4.70246 67.4571 4.88498 67.4571 5.06663C67.4618 5.29163 67.4618 5.50579 67.4618 5.7217V18.2789C67.4618 18.4969 67.4618 18.7096 67.4571 18.924C67.4571 19.1191 67.4571 19.2979 67.4547 19.4818C67.4477 19.8545 67.4135 20.2262 67.3522 20.5939C67.2962 20.9426 67.1869 21.2805 67.0282 21.5959C66.87 21.9034 66.6644 22.184 66.4188 22.4274C66.1737 22.6756 65.8902 22.8828 65.5792 23.0409C65.2641 23.2005 64.9267 23.3117 64.5784 23.3707C64.2075 23.4313 63.8326 23.464 63.4569 23.4686C63.2811 23.4727 63.0971 23.475 62.9184 23.475L62.268 23.4762L5.0669 23.475Z" fill="white"/>
<path d="M14.8613 13.0439C14.8678 12.5431 15.0008 12.0521 15.248 11.6165C15.4952 11.1809 15.8486 10.815 16.2752 10.5527C16.0042 10.1656 15.6466 9.84702 15.2309 9.62229C14.8152 9.39756 14.3529 9.27285 13.8805 9.25807C12.873 9.15232 11.8962 9.86097 11.3828 9.86097C10.8594 9.86097 10.0689 9.26857 9.2177 9.28609C8.66709 9.30388 8.13049 9.46399 7.66016 9.75082C7.18983 10.0377 6.80183 10.4414 6.53395 10.9228C5.37355 12.9319 6.2391 15.8845 7.35067 17.5085C7.90681 18.3037 8.55677 19.1919 9.40724 19.1604C10.2395 19.1259 10.5503 18.6297 11.5549 18.6297C12.5501 18.6297 12.8418 19.1604 13.7095 19.1404C14.6025 19.1259 15.1652 18.3417 15.7018 17.5389C16.1014 16.9723 16.4089 16.3461 16.6128 15.6834C16.094 15.464 15.6513 15.0967 15.3398 14.6273C15.0283 14.1579 14.8619 13.6072 14.8613 13.0439Z" fill="#2E2E34"/>
<path d="M13.2223 8.19007C13.7093 7.60555 13.9491 6.85424 13.8911 6.0957C13.1472 6.17384 12.46 6.52937 11.9665 7.09147C11.7252 7.36607 11.5404 7.68553 11.4227 8.03159C11.3049 8.37765 11.2565 8.74353 11.2803 9.1083C11.6524 9.11213 12.0205 9.03149 12.3569 8.87243C12.6933 8.71338 12.9892 8.48007 13.2223 8.19007Z" fill="#2E2E34"/>
<path d="M25.3814 13.5326H22.5413L21.8593 15.5465H20.6564L23.3464 8.0957H24.5962L27.2863 15.5465H26.0628L25.3814 13.5326ZM22.8355 12.6033H25.0867L23.9769 9.33497H23.9458L22.8355 12.6033Z" fill="#2E2E34"/>
<path d="M33.0958 12.8306C33.0958 14.5187 32.1923 15.6033 30.8288 15.6033C30.4834 15.6214 30.1399 15.5418 29.8376 15.3737C29.5353 15.2056 29.2865 14.9558 29.1196 14.6529H29.0938V17.3435H27.9788V10.1142H29.0581V11.0178H29.0786C29.2532 10.7163 29.5062 10.4678 29.8108 10.2987C30.1153 10.1295 30.4601 10.0462 30.8083 10.0574C32.187 10.0574 33.0958 11.1472 33.0958 12.8306ZM31.9497 12.8306C31.9497 11.7308 31.3813 11.0078 30.5141 11.0078C29.6622 11.0078 29.0891 11.7461 29.0891 12.8306C29.0891 13.9252 29.6622 14.6582 30.5141 14.6582C31.3813 14.6582 31.9497 13.9404 31.9497 12.8306Z" fill="#2E2E34"/>
<path d="M39.0748 12.8306C39.0748 14.5187 38.1713 15.6033 36.8078 15.6033C36.4624 15.6214 36.1189 15.5418 35.8166 15.3737C35.5143 15.2056 35.2655 14.9558 35.0986 14.6529H35.0728V17.3435H33.9578V10.1142H35.0371V11.0177H35.0576C35.2321 10.7163 35.4852 10.4678 35.7898 10.2986C36.0943 10.1295 36.4391 10.0462 36.7873 10.0574C38.166 10.0574 39.0748 11.1472 39.0748 12.8306ZM37.9287 12.8306C37.9287 11.7308 37.3603 11.0078 36.4931 11.0078C35.6412 11.0078 35.0681 11.7461 35.0681 12.8306C35.0681 13.9252 35.6412 14.6582 36.4931 14.6582C37.3603 14.6582 37.9287 13.9404 37.9287 12.8306Z" fill="#2E2E34"/>
<path d="M39.9777 8.0957H41.0933V15.5465H39.9777V8.0957Z" fill="#2E2E34"/>
<path d="M46.8987 13.951C46.7487 14.9371 45.7884 15.6139 44.5597 15.6139C42.9794 15.6139 41.9985 14.5551 41.9985 12.8565C41.9985 11.1526 42.9847 10.0475 44.5128 10.0475C46.0157 10.0475 46.9608 11.0799 46.9608 12.727V13.109H43.1241V13.1764C43.1064 13.3763 43.1314 13.5777 43.1976 13.7672C43.2637 13.9567 43.3693 14.13 43.5075 14.2755C43.6458 14.421 43.8133 14.5355 43.9992 14.6113C44.185 14.6871 44.3849 14.7224 44.5855 14.7151C44.8489 14.7397 45.1134 14.6787 45.3394 14.5411C45.5654 14.4034 45.741 14.1964 45.8399 13.951L46.8987 13.951ZM43.1294 12.3297H45.8452C45.8552 12.15 45.828 11.9701 45.7652 11.8013C45.7024 11.6326 45.6053 11.4787 45.4802 11.3492C45.3551 11.2198 45.2046 11.1176 45.0381 11.049C44.8716 10.9805 44.6928 10.9471 44.5128 10.951C44.3312 10.9499 44.1512 10.9848 43.9832 11.0537C43.8152 11.1225 43.6624 11.2239 43.5338 11.3521C43.4052 11.4803 43.3032 11.6327 43.2338 11.8005C43.1644 11.9683 43.1289 12.1481 43.1294 12.3297Z" fill="#2E2E34"/>
<path d="M51.9548 15.5465V9.09179H49.6726V8.0957H55.3884V9.0918H53.1115V15.5465H51.9548Z" fill="#2E2E34"/>
<path d="M58.44 15.5465L55.7804 8.0957H57.0355L59.0646 14.2451H59.0956L61.13 8.0957H62.364L59.705 15.5465H58.44Z" fill="#2E2E34"/>
</svg>
