<svg width="24" height="24" viewBox="0 0 24 24" fill="none" xmlns="http://www.w3.org/2000/svg">
<g clip-path="url(#clip0_221_2363)">
<path d="M19.5736 12.6409C19.5617 10.6809 20.5555 9.2016 22.5672 8.11215C21.4416 6.67557 19.7413 5.88518 17.4961 5.73031C15.3707 5.58077 13.0477 6.83578 12.1976 6.83578C11.2995 6.83578 9.23997 5.78371 7.62346 5.78371C4.28269 5.83178 0.732361 8.16021 0.732361 12.8972C0.732361 14.2964 1.01974 15.7419 1.5945 17.2336C2.36084 19.1936 5.12686 24 8.01262 23.9199C9.52136 23.8878 10.5871 22.964 12.5508 22.964C14.4547 22.964 15.4426 23.9199 17.1249 23.9199C20.0346 23.8825 22.5372 19.514 23.2676 17.5487C19.3641 15.9092 19.5736 12.7423 19.5736 12.6409ZM16.185 3.87183C17.8194 2.14152 17.6697 0.566088 17.6218 0C16.179 0.0747664 14.5086 0.875834 13.5566 1.86382C12.5089 2.92123 11.8922 4.22964 12.0239 5.7036C13.5866 5.81041 15.0115 5.09479 16.185 3.87183Z" fill="#222322"/>
</g>
<defs>
<clipPath id="clip0_221_2363">
<rect width="24" height="24" fill="white"/>
</clipPath>
</defs>
</svg>
