<svg width="80" height="30" viewBox="0 0 80 30" fill="none" xmlns="http://www.w3.org/2000/svg">
<path fill-rule="evenodd" clip-rule="evenodd" d="M3.37996 0.782395C3.98083 0.782395 4.52067 1.04596 4.89202 1.46471C6.15165 1.46841 7.36907 1.48907 8.50237 1.56555C10.4824 1.69918 12.4293 2.012 14.1283 2.82586C15.8978 3.67347 17.3126 5.02343 18.2452 7.03305C19.1469 8.97635 19.5516 11.4346 19.5516 14.4711C19.5516 15.095 19.5636 15.7611 19.576 16.4497L19.576 16.4513C19.6025 17.9206 19.6308 19.4927 19.5485 20.9769C19.4831 22.1556 18.9456 23.1131 18.0494 23.7194C17.3044 24.2233 16.4581 24.3759 15.9452 24.4521C15.608 24.5022 15.3895 24.5261 15.2128 24.5455C15.0077 24.568 14.859 24.5843 14.6467 24.6281L14.6307 24.6314C13.8307 25.5341 12.7213 25.9836 11.7873 26.2326C10.7232 26.5162 9.53827 26.6295 8.43316 26.6704C7.31439 26.7118 6.18718 26.6814 5.21744 26.6434C4.91457 26.6316 4.63423 26.6194 4.37541 26.6082C3.76609 26.5817 3.27563 26.5604 2.88884 26.5604C1.76883 26.5604 0.860873 25.6447 0.860873 24.5151C0.860873 24.0051 1.04592 23.5387 1.35198 23.1805V5.44292C0.564324 5.16214 0 4.40451 0 3.51395C0 2.44197 0.817656 1.5626 1.85827 1.47565C2.22988 1.05055 2.77387 0.782395 3.37996 0.782395ZM5.40793 22.5571V5.5581C6.41334 5.56534 7.34967 5.58762 8.23156 5.64714C10.0276 5.76836 11.3742 6.03528 12.3883 6.52101C13.3319 6.97299 14.0498 7.64246 14.5716 8.76707C15.1243 9.958 15.4957 11.7488 15.4957 14.4711C15.4957 15.2585 15.5097 16.0073 15.5232 16.7345L15.5232 16.736C15.5465 17.9842 15.5686 19.1692 15.517 20.3782C15.4697 20.3869 15.4156 20.3959 15.354 20.405C15.2917 20.4143 15.1825 20.4276 15.0473 20.444C14.6982 20.4864 14.1748 20.55 13.834 20.6203C13.3051 20.7294 12.2936 20.9945 11.6053 21.9071C11.5888 21.923 11.3997 22.1047 10.7508 22.2777C10.105 22.4498 9.26 22.5463 8.28439 22.5824C7.33367 22.6176 6.34161 22.5933 5.40793 22.5571ZM14.5076 24.6631C14.4934 24.6678 14.4876 24.6708 14.4876 24.6708L14.4892 24.6703L14.4931 24.669C14.4965 24.6678 14.5015 24.6659 14.5076 24.6631Z" fill="#FBEDDE"/>
<path fill-rule="evenodd" clip-rule="evenodd" d="M27.1293 19.8723C27.0706 20.2219 27.0397 20.5393 27.0397 20.8197C27.0397 21.9493 26.1317 22.865 25.0117 22.865C23.8917 22.865 22.9837 21.9493 22.9837 20.8197C22.9837 19.0025 23.6342 16.9056 24.3094 15.1176C24.8326 13.7319 25.4487 12.3403 25.9499 11.2082L25.951 11.2059C26.1105 10.8455 26.2584 10.5115 26.3879 10.2123C26.6743 9.5509 26.9264 8.86033 27.2008 8.10418L27.224 8.04021C27.4634 7.37998 27.7218 6.66777 28.0166 5.96116C28.024 5.89479 28.0323 5.80626 28.0418 5.69145C28.0497 5.59565 28.0591 5.46908 28.0695 5.32864C28.0882 5.07611 28.1103 4.778 28.1329 4.53423C28.1667 4.16895 28.2242 3.62377 28.3561 3.17781C28.3932 3.05237 28.452 2.87887 28.5453 2.69338C28.6273 2.53022 28.8078 2.21106 29.1513 1.9341C29.5572 1.60686 30.1705 1.36626 30.8737 1.50227C31.4738 1.61836 31.8565 1.95811 32.0327 2.14126C32.732 2.86805 33.2742 3.85469 33.6993 4.79523C34.1405 5.77112 34.5306 6.86934 34.8694 7.94536C35.4137 9.67352 35.8641 11.473 36.1859 12.7589C36.2626 13.0655 36.3322 13.3434 36.3938 13.5836C36.6451 14.563 36.9562 15.5052 37.3096 16.4308C37.6376 16.7848 37.8423 17.2563 37.8549 17.7759C38.3797 19.0047 38.9653 20.2215 39.5692 21.4762L39.6801 21.7065C40.169 22.7228 39.7485 23.9465 38.7408 24.4396C37.7332 24.9327 36.52 24.5086 36.031 23.4924L35.8667 23.1512C35.3614 22.1021 34.8363 21.0119 34.3366 19.8723H27.1293ZM31.0613 9.36774C31.5379 10.9054 31.9297 12.4692 32.2395 13.7061C32.321 14.0314 32.397 14.3348 32.4672 14.6085C32.569 15.0053 32.6792 15.3962 32.7964 15.7816H28.4085C28.8048 14.7944 29.2272 13.84 29.6168 12.9598C29.7873 12.5747 29.952 12.2027 30.1049 11.8494C30.4485 11.056 30.7411 10.2504 31.0097 9.5098L31.0613 9.36774ZM27.999 6.08809C27.999 6.08809 28.0005 6.07604 28.0046 6.05626C28.0033 6.06542 28.0021 6.07237 28.0011 6.0774C27.9998 6.08483 27.999 6.08809 27.999 6.08809Z" fill="#FBEDDE"/>
<path fill-rule="evenodd" clip-rule="evenodd" d="M45.2914 3.50954C45.4463 3.50954 45.5972 3.52706 45.7421 3.56024C45.8871 3.52706 46.0379 3.50954 46.1928 3.50954C50.3892 3.50954 54.0881 4.53199 56.7611 6.88771C59.4791 9.28317 60.8393 12.7935 60.8393 17.1156C60.8393 18.6052 60.7334 19.8401 60.3617 20.8059C60.1593 21.3317 59.8663 21.8133 59.4481 22.2159C59.0342 22.6143 58.5861 22.8499 58.1967 23.0036C57.6484 23.22 57.2393 23.3199 56.8779 23.408C56.1979 23.574 55.6867 23.6987 54.7349 24.4813C53.878 25.1858 52.828 25.5128 51.984 25.7084C51.3534 25.8546 50.6425 25.9654 50.0223 26.0621C49.8141 26.0946 49.6161 26.1254 49.4348 26.1555C48.8174 26.258 48.3242 26.3598 47.9313 26.4835C47.9082 26.7146 47.8715 26.9593 47.808 27.1778C47.7784 27.28 47.7118 27.49 47.5748 27.7197C47.4743 27.8881 47.0886 28.4919 46.2655 28.6829C45.3036 28.9062 44.6213 28.3925 44.3689 28.1451C44.1186 27.8996 43.9876 27.6462 43.9384 27.5466L43.9263 27.5216C43.2899 26.9382 43.0757 25.9906 43.4414 25.1708C43.3369 24.2164 43.2635 23.1126 43.2635 22.2708V5.5549C43.2635 4.42528 44.1714 3.50954 45.2914 3.50954ZM48.7765 22.1191C48.3265 22.1937 47.8271 22.284 47.3202 22.4111C47.3197 22.3634 47.3194 22.3166 47.3194 22.2708V7.63042C50.3454 7.79658 52.5868 8.64134 54.0923 9.96809C55.7337 11.4147 56.7834 13.6848 56.7834 17.1156C56.7834 18.3507 56.6911 18.9501 56.614 19.2234C56.5833 19.2309 56.5471 19.2394 56.5058 19.2491C55.8584 19.401 53.9498 19.849 52.1721 21.3107C52.0543 21.4075 51.7514 21.565 51.0757 21.7216C50.5992 21.832 50.1111 21.9082 49.543 21.9968C49.3034 22.0342 49.0496 22.0737 48.7765 22.1191Z" fill="#FBEDDE"/>
<path fill-rule="evenodd" clip-rule="evenodd" d="M71.5517 0.754837C70.7346 0.111123 69.6669 -0.220766 68.5517 0.163492C67.619 0.484872 67.0231 1.1944 66.686 1.6764C66.1536 2.43784 65.704 3.51973 65.4659 4.09279C65.4125 4.22126 65.3697 4.32415 65.3391 4.39213C64.4707 6.31608 64.078 8.02799 64.2648 9.60098C64.4595 11.2395 65.2468 12.4375 66.1603 13.3631C66.8582 14.0703 67.7295 14.7069 68.4771 15.253C68.6296 15.3644 68.7769 15.472 68.9165 15.5757C69.8148 16.2427 70.6014 16.8822 71.2498 17.6803C72.0263 18.636 72.8538 19.3859 73.525 19.9936C74.2378 20.6391 74.7221 21.0818 75.0865 21.5568C75.4103 21.9788 75.6027 22.3852 75.6767 22.9071C75.7557 23.4637 75.7189 24.2915 75.3488 25.567C75.3364 25.6098 75.3294 25.6166 75.3052 25.6361C75.2603 25.6724 75.1322 25.7532 74.8566 25.8187C74.2774 25.9562 73.3897 25.9453 72.3279 25.7299C71.2926 25.5199 70.2573 25.1489 69.4471 24.7257C68.6526 24.3107 68.3538 23.9923 68.296 23.9307C68.2869 23.921 68.2837 23.9176 68.2856 23.9213C67.7751 22.9159 66.5531 22.5182 65.5562 23.0331C64.5593 23.548 64.165 24.7805 64.6755 25.786C65.2742 26.965 66.5302 27.8088 67.5817 28.3581C68.7429 28.9647 70.1389 29.4585 71.5281 29.7403C72.8909 30.0168 74.421 30.1248 75.7864 29.8004C77.1981 29.4651 78.7029 28.572 79.2415 26.7159C79.7176 25.0751 79.8773 23.6349 79.6918 22.3276C79.5014 20.9855 78.9682 19.9318 78.2943 19.0534C77.6911 18.2671 76.9496 17.5965 76.3268 17.0331L76.2345 16.9497C75.5522 16.3318 74.9426 15.7713 74.387 15.0876C73.4037 13.8772 72.2768 12.9911 71.3212 12.2814C71.1215 12.1332 70.9341 11.9956 70.7576 11.8662C70.0245 11.3282 69.4812 10.9295 69.0349 10.4773C68.5546 9.99054 68.3486 9.59138 68.292 9.1143C68.2275 8.57166 68.3253 7.64943 69.0305 6.08696C69.109 5.91317 69.1908 5.71801 69.2649 5.54129L69.2658 5.53912L69.2809 5.50303C69.3636 5.30578 69.4437 5.11549 69.5284 4.92618C69.6089 4.74616 69.6853 4.58594 69.7579 4.44593C70.1701 4.6801 70.5862 4.86131 70.9337 5.00546C71.1828 5.10883 71.3998 5.19482 71.6011 5.27456C71.9292 5.40457 72.2153 5.51794 72.5301 5.66285C73.0016 5.87986 73.2687 6.05537 73.4138 6.19479C73.5121 6.2892 73.5158 6.32463 73.5191 6.35672L73.5197 6.36238C73.6463 7.48475 74.6511 8.29107 75.764 8.16334C76.8768 8.03561 77.6763 7.02219 77.5496 5.89982C77.2832 3.53852 75.3588 2.46827 74.2141 1.94138C73.8101 1.75544 73.3339 1.56583 72.9392 1.40864C72.7647 1.33918 72.6061 1.27604 72.4767 1.22235C71.9493 1.00353 71.6827 0.857999 71.5517 0.754837ZM70.1024 3.90602L70.1042 3.90439C70.1042 3.90439 70.1009 3.90703 70.0984 3.90967L70.1024 3.90602Z" fill="#FBEDDE"/>
</svg>
