<svg width="80" height="30" viewBox="0 0 80 30" fill="none" xmlns="http://www.w3.org/2000/svg">
<path fill-rule="evenodd" clip-rule="evenodd" d="M3.60361 0.782395C4.20448 0.782395 4.74431 1.04596 5.11567 1.46471C6.3753 1.46841 7.59272 1.48907 8.72602 1.56555C10.706 1.69918 12.6529 2.012 14.352 2.82586C16.1215 3.67347 17.5363 5.02343 18.4688 7.03305C19.3706 8.97635 19.7753 11.4346 19.7753 14.4711C19.7753 15.095 19.7873 15.7611 19.7997 16.4497L19.7997 16.4513C19.8261 17.9206 19.8545 19.4927 19.7721 20.9769C19.7068 22.1556 19.1693 23.1131 18.273 23.7194C17.528 24.2233 16.6817 24.3759 16.1688 24.4521C15.8317 24.5022 15.6131 24.5261 15.4364 24.5455C15.2314 24.568 15.0827 24.5843 14.8704 24.6281L14.8543 24.6314C14.0543 25.5341 12.945 25.9836 12.011 26.2326C10.9469 26.5162 9.76192 26.6295 8.65681 26.6704C7.53804 26.7118 6.41083 26.6814 5.44109 26.6434C5.13822 26.6316 4.85788 26.6194 4.59906 26.6082C3.98974 26.5817 3.49928 26.5604 3.11249 26.5604C1.99247 26.5604 1.08452 25.6447 1.08452 24.5151C1.08452 24.0051 1.26957 23.5387 1.57563 23.1805V5.44292C0.787972 5.16214 0.223648 4.40451 0.223648 3.51395C0.223648 2.44197 1.0413 1.5626 2.08191 1.47565C2.45353 1.05055 2.99752 0.782395 3.60361 0.782395ZM5.63158 22.5571V5.5581C6.63699 5.56534 7.57332 5.58762 8.45521 5.64714C10.2513 5.76836 11.5979 6.03528 12.6119 6.52101C13.5555 6.97299 14.2734 7.64246 14.7953 8.76707C15.3479 9.958 15.7193 11.7488 15.7193 14.4711C15.7193 15.2585 15.7333 16.0073 15.7469 16.7345L15.7469 16.736C15.7702 17.9842 15.7923 19.1692 15.7407 20.3782C15.6933 20.3869 15.6392 20.3959 15.5777 20.405C15.5153 20.4143 15.4061 20.4276 15.271 20.444C14.9219 20.4864 14.3984 20.55 14.0576 20.6203C13.5288 20.7294 12.5172 20.9945 11.8289 21.9071C11.8124 21.923 11.6234 22.1047 10.9745 22.2777C10.3287 22.4498 9.48365 22.5463 8.50803 22.5824C7.55732 22.6176 6.56526 22.5933 5.63158 22.5571ZM14.7313 24.6631C14.717 24.6678 14.7113 24.6708 14.7113 24.6708L14.7128 24.6703L14.7167 24.669C14.7202 24.6678 14.7251 24.6659 14.7313 24.6631Z" fill="#FBEDDE"/>
<path fill-rule="evenodd" clip-rule="evenodd" d="M27.353 19.8723C27.2942 20.2219 27.2633 20.5393 27.2633 20.8197C27.2633 21.9493 26.3554 22.865 25.2353 22.865C24.1153 22.865 23.2074 21.9493 23.2074 20.8197C23.2074 19.0025 23.8579 16.9056 24.533 15.1176C25.0562 13.7319 25.6723 12.3403 26.1736 11.2082L26.1746 11.2059C26.3342 10.8455 26.4821 10.5115 26.6116 10.2123C26.898 9.5509 27.1501 8.86034 27.4244 8.10418L27.4476 8.04021C27.6871 7.37998 27.9454 6.66777 28.2403 5.96116C28.2476 5.89479 28.256 5.80626 28.2654 5.69145C28.2733 5.59565 28.2827 5.46908 28.2931 5.32864C28.3119 5.07611 28.334 4.778 28.3566 4.53423C28.3904 4.16895 28.4478 3.62377 28.5798 3.17781C28.6169 3.05237 28.6756 2.87887 28.7689 2.69338C28.851 2.53022 29.0314 2.21106 29.3749 1.9341C29.7809 1.60686 30.3942 1.36626 31.0973 1.50227C31.6974 1.61836 32.0801 1.95811 32.2563 2.14126C32.9557 2.86805 33.4978 3.85469 33.923 4.79523C34.3641 5.77112 34.7542 6.86934 35.0931 7.94536C35.6373 9.67352 36.0877 11.473 36.4095 12.7589C36.4863 13.0655 36.5558 13.3434 36.6175 13.5836C36.8687 14.563 37.1799 15.5052 37.5333 16.4308C37.8612 16.7848 38.0659 17.2563 38.0786 17.7759C38.6033 19.0047 39.189 20.2215 39.7929 21.4762L39.9037 21.7065C40.3927 22.7228 39.9722 23.9465 38.9645 24.4396C37.9568 24.9327 36.7436 24.5086 36.2547 23.4924L36.0904 23.1512C35.5851 22.1021 35.06 21.0119 34.5602 19.8723H27.353ZM31.2849 9.36774C31.7616 10.9054 32.1533 12.4692 32.4631 13.7061C32.5446 14.0314 32.6206 14.3348 32.6909 14.6085C32.7927 15.0053 32.9028 15.3962 33.0201 15.7816H28.6322C29.0284 14.7944 29.4509 13.84 29.8405 12.9598C30.011 12.5747 30.1756 12.2027 30.3286 11.8494C30.6721 11.056 30.9647 10.2504 31.2334 9.5098L31.2849 9.36774ZM28.2226 6.08809C28.2226 6.08809 28.2241 6.07604 28.2283 6.05626C28.2269 6.06542 28.2257 6.07237 28.2248 6.0774C28.2234 6.08483 28.2226 6.08809 28.2226 6.08809Z" fill="#FBEDDE"/>
<path fill-rule="evenodd" clip-rule="evenodd" d="M45.5151 3.50954C45.67 3.50954 45.8208 3.52706 45.9658 3.56024C46.1107 3.52706 46.2616 3.50954 46.4165 3.50954C50.6129 3.50954 54.3118 4.53199 56.9847 6.88771C59.7028 9.28317 61.063 12.7935 61.063 17.1156C61.063 18.6052 60.9571 19.8401 60.5854 20.8059C60.383 21.3317 60.09 21.8133 59.6718 22.2159C59.2579 22.6143 58.8097 22.8499 58.4204 23.0036C57.872 23.22 57.4629 23.3199 57.1015 23.408C56.4215 23.574 55.9103 23.6987 54.9586 24.4813C54.1017 25.1858 53.0517 25.5128 52.2076 25.7084C51.577 25.8546 50.8662 25.9654 50.246 26.0621C50.0378 26.0946 49.8398 26.1254 49.6585 26.1555C49.0411 26.258 48.5478 26.3598 48.1549 26.4835C48.1319 26.7146 48.0951 26.9593 48.0317 27.1778C48.002 27.28 47.9355 27.49 47.7985 27.7197C47.698 27.8881 47.3122 28.4919 46.4891 28.6829C45.5272 28.9062 44.8449 28.3925 44.5926 28.1451C44.3423 27.8996 44.2113 27.6462 44.1621 27.5466L44.1499 27.5216C43.5135 26.9382 43.2993 25.9906 43.665 25.1708C43.5605 24.2164 43.4871 23.1126 43.4871 22.2708V5.5549C43.4871 4.42528 44.3951 3.50954 45.5151 3.50954ZM49.0001 22.1191C48.5502 22.1937 48.0508 22.284 47.5439 22.4111C47.5433 22.3634 47.543 22.3166 47.543 22.2708V7.63042C50.569 7.79658 52.8105 8.64134 54.3159 9.96809C55.9574 11.4147 57.007 13.6848 57.007 17.1156C57.007 18.3507 56.9148 18.9501 56.8377 19.2234C56.807 19.2309 56.7708 19.2394 56.7294 19.2491C56.0821 19.401 54.1735 19.849 52.3958 21.3107C52.2779 21.4075 51.975 21.565 51.2993 21.7216C50.8229 21.832 50.3347 21.9082 49.7667 21.9968C49.5271 22.0342 49.2733 22.0737 49.0001 22.1191Z" fill="#FBEDDE"/>
<path fill-rule="evenodd" clip-rule="evenodd" d="M71.7754 0.754837C70.9582 0.111123 69.8905 -0.220766 68.7754 0.163492C67.8427 0.484872 67.2467 1.1944 66.9097 1.6764C66.3773 2.43784 65.9277 3.51973 65.6895 4.09279C65.6361 4.22126 65.5934 4.32415 65.5627 4.39213C64.6943 6.31608 64.3016 8.02799 64.4885 9.60098C64.6832 11.2395 65.4704 12.4375 66.3839 13.3631C67.0819 14.0703 67.9532 14.7069 68.7008 15.253C68.8532 15.3644 69.0005 15.472 69.1402 15.5757C70.0385 16.2427 70.8251 16.8822 71.4735 17.6803C72.2499 18.636 73.0774 19.3859 73.7486 19.9936C74.4614 20.6391 74.9458 21.0818 75.3102 21.5568C75.634 21.9788 75.8263 22.3852 75.9004 22.9071C75.9794 23.4637 75.9426 24.2915 75.5725 25.567C75.5601 25.6098 75.5531 25.6166 75.5289 25.6361C75.484 25.6724 75.3558 25.7532 75.0802 25.8187C74.501 25.9562 73.6133 25.9453 72.5515 25.7299C71.5162 25.5199 70.4809 25.1489 69.6708 24.7257C68.8763 24.3107 68.5774 23.9923 68.5196 23.9307C68.5105 23.921 68.5074 23.9176 68.5093 23.9213C67.9987 22.9159 66.7767 22.5182 65.7798 23.0331C64.7829 23.548 64.3887 24.7805 64.8992 25.786C65.4978 26.965 66.7538 27.8088 67.8054 28.3581C68.9666 28.9647 70.3625 29.4585 71.7517 29.7403C73.1145 30.0168 74.6447 30.1248 76.0101 29.8004C77.4218 29.4651 78.9266 28.572 79.4652 26.7159C79.9412 25.0751 80.1009 23.6349 79.9154 22.3276C79.725 20.9855 79.1919 19.9318 78.5179 19.0534C77.9147 18.2671 77.1732 17.5965 76.5505 17.0331L76.4582 16.9497C75.7758 16.3318 75.1662 15.7713 74.6107 15.0876C73.6274 13.8772 72.5005 12.9911 71.5448 12.2814C71.3451 12.1332 71.1577 11.9956 70.9813 11.8662C70.2482 11.3282 69.7049 10.9295 69.2586 10.4773C68.7782 9.99054 68.5723 9.59138 68.5156 9.1143C68.4511 8.57166 68.5489 7.64943 69.2542 6.08696C69.3326 5.91317 69.4144 5.71801 69.4885 5.54129L69.4894 5.53912L69.5046 5.50303C69.5873 5.30578 69.6674 5.11549 69.752 4.92618C69.8325 4.74616 69.9089 4.58594 69.9816 4.44593C70.3937 4.6801 70.8099 4.86131 71.1573 5.00546C71.4064 5.10883 71.6235 5.19482 71.8247 5.27456C72.1528 5.40457 72.439 5.51794 72.7538 5.66285C73.2252 5.87986 73.4924 6.05537 73.6375 6.19479C73.7358 6.2892 73.7394 6.32463 73.7427 6.35672L73.7433 6.36238C73.87 7.48475 74.8748 8.29107 75.9876 8.16334C77.1004 8.03561 77.8999 7.02219 77.7733 5.89982C77.5068 3.53852 75.5824 2.46827 74.4378 1.94138C74.0338 1.75544 73.5576 1.56583 73.1628 1.40864C72.9883 1.33918 72.8298 1.27604 72.7004 1.22235C72.173 1.00353 71.9063 0.857999 71.7754 0.754837ZM70.3261 3.90602L70.3278 3.90439C70.3278 3.90439 70.3246 3.90703 70.322 3.90967L70.3261 3.90602Z" fill="#FBEDDE"/>
</svg>
