<svg width="77" height="20" viewBox="0 0 77 20" fill="none" xmlns="http://www.w3.org/2000/svg">
<path fill-rule="evenodd" clip-rule="evenodd" d="M62.773 4.50663C61.9578 4.73792 61.011 4.98667 60.0299 5.07521C59.0149 5.16681 58.1173 4.42425 58.025 3.41665C57.9328 2.40905 58.6808 1.51797 59.6957 1.42637C60.3361 1.36858 61.0236 1.19377 61.8582 0.955492C61.9681 0.924115 62.0816 0.891313 62.198 0.857638C62.9082 0.652281 63.7306 0.414472 64.5472 0.269699C67.0876 -0.180652 70.3372 -0.123236 72.9219 0.874608C75.368 1.81897 76.32 3.97626 76.663 5.88966C77.001 7.7755 76.8337 9.83713 76.7136 11.2687C76.6403 12.1415 76.3892 13.9914 75.8357 15.6733C75.5621 16.5046 75.1741 17.4231 74.6089 18.169C74.0456 18.9124 73.0985 19.7383 71.7258 19.7383C71.15 19.7383 70.539 19.7941 69.8123 19.8613L69.7979 19.8626C69.1065 19.9265 68.3116 20 67.5078 20C66.6369 20 65.7849 19.9293 65.018 19.8656L64.9836 19.8628C64.1828 19.7963 63.4699 19.7383 62.7626 19.7383C61.7435 19.7383 60.9173 18.9181 60.9173 17.9063C60.9173 16.8946 61.7435 16.0744 62.7626 16.0744C63.0361 16.0744 63.3075 16.0813 63.5749 16.0928C63.5608 16.0015 63.5535 15.9079 63.5535 15.8127C63.5535 13.2579 63.3262 10.7865 63.0898 8.21729C62.9787 7.00862 62.8654 5.77748 62.773 4.50663ZM66.3605 3.72265C68.1688 3.56062 70.1274 3.72697 71.5842 4.28937C72.3119 4.57033 72.7936 5.21611 73.0294 6.53156C73.2701 7.87457 73.1613 9.46755 73.0356 10.9644C72.9762 11.6727 72.7611 13.2177 72.3274 14.5355C72.1075 15.2039 71.8717 15.6864 71.6595 15.9665C71.6224 16.0154 71.5923 16.0506 71.5691 16.0754C70.8643 16.0841 70.1578 16.1495 69.5299 16.2076L69.4701 16.2132C68.7495 16.2798 68.1181 16.3361 67.5078 16.3361C67.3952 16.3361 67.2824 16.3346 67.1691 16.3319C67.218 16.1673 67.2442 15.993 67.2442 15.8127C67.2442 13.0903 66.9917 10.3366 66.748 7.67792C66.6386 6.4847 66.5309 5.31062 66.4487 4.16711C66.4375 4.01239 66.4073 3.86354 66.3605 3.72265ZM71.5118 16.1278C71.5118 16.1278 71.5155 16.1243 71.5231 16.1198C71.5156 16.126 71.5118 16.1278 71.5118 16.1278Z" fill="#FBEDDE"/>
<path fill-rule="evenodd" clip-rule="evenodd" d="M47.9998 0.372018C47.1147 0.372018 46.3751 0.990693 46.1959 1.81622C45.0925 2.05074 44.0178 2.49128 43.024 3.25368C41.9662 4.06515 41.0849 5.17604 40.3508 6.60652C39.2389 8.77326 38.799 10.6994 39.3589 13.2005C39.7867 15.1118 41.3266 16.1987 42.5094 16.8334C43.1347 17.1689 43.7833 17.4422 44.3396 17.6682C44.4799 17.7252 44.6115 17.7781 44.7357 17.8281C45.1382 17.99 45.462 18.1202 45.7453 18.2534C49.003 19.7853 52.1514 18.9826 54.3647 17.0617C56.5102 15.1996 57.8211 12.2752 57.7534 9.31565C57.7021 7.07605 56.5889 5.06465 55.1051 3.55794C55.0055 2.71929 54.3284 2.03382 53.4472 1.95051C53.3132 1.93784 53.178 1.92454 53.0418 1.91083C51.5266 0.968943 49.7637 0.372018 47.9998 0.372018ZM47.1126 5.37026C48.3868 5.13377 49.8224 5.26972 51.7247 5.46189C51.8443 5.55462 51.9619 5.65145 52.0769 5.75227C53.3249 6.84563 54.0358 8.18657 54.0636 9.39889C54.1068 11.2867 53.2467 13.1654 51.9356 14.3033C50.6923 15.3823 49.0987 15.7762 47.3252 14.9422C46.9361 14.7592 46.4771 14.5749 46.0557 14.4056C45.9464 14.3617 45.8396 14.3188 45.7373 14.2772C45.2014 14.0595 44.7061 13.8472 44.2643 13.6102C43.3132 13.0998 43.0263 12.6941 42.9617 12.4057C42.6294 10.921 42.8196 9.86708 43.6394 8.26966C44.1813 7.21371 44.7419 6.56613 45.2807 6.15283C45.8119 5.74529 46.4048 5.50162 47.1126 5.37026Z" fill="#FBEDDE"/>
<path d="M15.1023 4.94977C13.9589 5.01447 12.7527 5.08273 11.5321 5.08273C10.7772 5.08273 9.9526 5.03463 9.1597 4.98826L9.13341 4.98672C8.32907 4.93968 7.53818 4.89342 6.75758 4.88271C5.80193 4.86959 4.95806 4.91377 4.23861 5.03955V8.74662H14.5199C15.539 8.74662 16.3652 9.56681 16.3652 10.5786C16.3652 11.5903 15.539 12.4105 14.5199 12.4105H4.23122C4.1999 13.2923 4.07464 14.1382 3.96516 14.8775L3.95539 14.9434C3.82074 15.8534 3.71136 16.6192 3.71136 17.3829C3.71136 18.3947 2.88517 19.2149 1.86601 19.2149C0.846853 19.2149 0.0206604 18.3947 0.0206604 17.3829C0.0206604 16.3244 0.170512 15.312 0.298307 14.4486L0.303875 14.4109C0.439222 13.4962 0.547904 12.7443 0.547904 12.0034V4.71806C0.516165 4.6655 0.486773 4.61087 0.459927 4.55424C0.0912694 3.77653 0.321419 2.87188 0.964405 2.35311C1.30282 1.94257 1.81721 1.68055 2.39326 1.68055C2.43034 1.68055 2.46717 1.68164 2.50371 1.68378C3.92801 1.26906 5.45733 1.20062 6.80859 1.21917C7.67333 1.23103 8.53565 1.28149 9.31679 1.3272L9.37676 1.33071C10.1941 1.37852 10.906 1.41884 11.5321 1.41884C12.6358 1.41884 13.743 1.35686 14.9076 1.29096L14.941 1.28907C16.0781 1.22472 17.2723 1.15714 18.4742 1.15714C19.4933 1.15714 20.3195 1.97733 20.3195 2.98908C20.3195 4.00084 19.4933 4.82103 18.4742 4.82103C17.3834 4.82103 16.283 4.88296 15.1176 4.94891L15.1023 4.94977Z" fill="#FBEDDE"/>
<path fill-rule="evenodd" clip-rule="evenodd" d="M33.4658 3.71638C33.8528 3.97348 34.4302 4.5004 34.5409 5.37892C34.5744 5.64521 34.5486 5.90528 34.4736 6.14604C34.5826 6.32584 34.6981 6.52107 34.8059 6.71967C35.1942 7.43492 35.5469 8.3012 35.607 9.43545C35.6173 9.62831 35.6781 9.91782 35.816 10.3889C35.8503 10.5061 35.8924 10.6441 35.9384 10.7944L35.9389 10.7959C36.0468 11.1487 36.1755 11.5696 36.2717 11.9492C36.5454 13.0284 36.8492 14.7744 35.7253 16.3086C34.939 17.3819 33.9827 18.1214 32.8841 18.5331C31.804 18.9378 30.7097 18.9799 29.7032 18.8612C28.083 18.67 26.3855 18.0028 25.0269 17.4688L25.0256 17.4683C24.7871 17.3745 24.559 17.2849 24.3437 17.2027C21.7549 16.2142 20.8641 13.9328 20.7721 11.8906C20.6827 9.90361 21.2944 7.83243 22.0375 6.35711C22.4738 5.49091 23.0225 4.78641 23.7535 4.23222C24.4658 3.69224 25.2537 3.37002 26.0452 3.12825C26.4988 2.98968 27.1949 2.92886 27.7719 2.8979C28.4306 2.86255 29.2217 2.85408 29.9978 2.89335C30.7515 2.93148 31.5905 3.01901 32.298 3.21218C32.6438 3.30658 33.0746 3.4565 33.4658 3.71638ZM30.493 6.60486C30.2862 6.58279 30.0571 6.565 29.8099 6.55249C29.1762 6.52042 28.515 6.52725 27.9711 6.55644C27.5194 6.58068 27.2598 6.61504 27.1663 6.62742C27.1302 6.63219 27.1188 6.6337 27.1306 6.63012C26.5496 6.80756 26.2212 6.97154 25.9935 7.14417C25.7845 7.30257 25.5695 7.53706 25.3386 7.99565C24.8027 9.05958 24.4044 10.5093 24.4592 11.7271C24.5115 12.8896 24.9192 13.4968 25.6686 13.783C25.9517 13.8911 26.2259 13.9978 26.4921 14.1015C27.8716 14.6387 29.0384 15.0931 30.1387 15.2229C30.7412 15.2939 31.2056 15.2458 31.5807 15.1053C31.9371 14.9717 32.3323 14.7109 32.7405 14.1536C32.8173 14.0488 32.9313 13.7845 32.6927 12.8435C32.6174 12.5466 32.5362 12.2823 32.4438 11.9814C32.3906 11.8079 32.3336 11.6222 32.2718 11.411C32.1258 10.9122 31.9557 10.2745 31.9214 9.62802C31.8988 9.2002 31.7794 8.86765 31.557 8.45802C31.4504 8.26166 31.3341 8.07192 31.1856 7.82963L31.1096 7.70548C30.9343 7.41883 30.7274 7.07516 30.532 6.68712C30.5183 6.65987 30.5053 6.63244 30.493 6.60486Z" fill="#FBEDDE"/>
</svg>
