<svg width="77" height="20" viewBox="0 0 77 20" fill="none" xmlns="http://www.w3.org/2000/svg">
<path fill-rule="evenodd" clip-rule="evenodd" d="M62.7523 4.50663C61.9371 4.73792 60.9904 4.98667 60.0092 5.07521C58.9942 5.16681 58.0966 4.42425 58.0044 3.41665C57.9121 2.40905 58.6601 1.51797 59.6751 1.42637C60.3154 1.36858 61.003 1.19377 61.8376 0.955492C61.9475 0.924115 62.0609 0.891313 62.1773 0.857638C62.8875 0.652281 63.7099 0.414472 64.5266 0.269699C67.067 -0.180652 70.3165 -0.123236 72.9012 0.874608C75.3473 1.81897 76.2994 3.97626 76.6423 5.88966C76.9804 7.7755 76.8131 9.83713 76.6929 11.2687C76.6196 12.1415 76.3685 13.9914 75.815 15.6733C75.5414 16.5046 75.1534 17.4231 74.5882 18.169C74.025 18.9124 73.0778 19.7383 71.7051 19.7383C71.1294 19.7383 70.5183 19.7941 69.7917 19.8613L69.7772 19.8626C69.0858 19.9265 68.2909 20 67.4872 20C66.6163 20 65.7643 19.9293 64.9974 19.8656L64.963 19.8628C64.1621 19.7963 63.4493 19.7383 62.742 19.7383C61.7228 19.7383 60.8966 18.9181 60.8966 17.9063C60.8966 16.8946 61.7228 16.0744 62.742 16.0744C63.0154 16.0744 63.2868 16.0813 63.5543 16.0928C63.5402 16.0015 63.5328 15.9079 63.5328 15.8127C63.5328 13.2579 63.3055 10.7865 63.0692 8.21729C62.958 7.00862 62.8448 5.77748 62.7523 4.50663ZM66.3399 3.72265C68.1481 3.56062 70.1068 3.72697 71.5635 4.28937C72.2913 4.57033 72.7729 5.21611 73.0087 6.53156C73.2495 7.87457 73.1406 9.46755 73.015 10.9644C72.9555 11.6727 72.7404 13.2177 72.3068 14.5355C72.0868 15.2039 71.851 15.6864 71.6388 15.9665C71.6018 16.0154 71.5716 16.0506 71.5484 16.0754C70.8436 16.0841 70.1371 16.1495 69.5093 16.2076L69.4495 16.2132C68.7288 16.2798 68.0974 16.3361 67.4872 16.3361C67.3745 16.3361 67.2617 16.3346 67.1484 16.3319C67.1973 16.1673 67.2235 15.993 67.2235 15.8127C67.2235 13.0903 66.9711 10.3366 66.7273 7.67792C66.6179 6.4847 66.5103 5.31062 66.428 4.16711C66.4169 4.01239 66.3867 3.86354 66.3399 3.72265ZM71.4911 16.1278C71.4911 16.1278 71.4949 16.1243 71.5024 16.1198C71.4949 16.126 71.4911 16.1278 71.4911 16.1278Z" fill="#FBEDDE"/>
<path fill-rule="evenodd" clip-rule="evenodd" d="M47.9792 0.372018C47.094 0.372018 46.3544 0.990693 46.1752 1.81622C45.0719 2.05074 43.9971 2.49128 43.0033 3.25368C41.9455 4.06515 41.0642 5.17604 40.3302 6.60652C39.2183 8.77326 38.7784 10.6994 39.3382 13.2005C39.7661 15.1118 41.3059 16.1987 42.4888 16.8334C43.1141 17.1689 43.7626 17.4422 44.3189 17.6682C44.4592 17.7252 44.5909 17.7781 44.715 17.8281C45.1175 17.99 45.4414 18.1202 45.7246 18.2534C48.9823 19.7853 52.1307 18.9826 54.3441 17.0617C56.4896 15.1996 57.8004 12.2752 57.7327 9.31565C57.6814 7.07605 56.5682 5.06465 55.0844 3.55794C54.9849 2.71929 54.3077 2.03382 53.4266 1.95051C53.2925 1.93784 53.1573 1.92454 53.0211 1.91083C51.5059 0.968943 49.743 0.372018 47.9792 0.372018ZM47.0919 5.37026C48.3662 5.13377 49.8018 5.26972 51.704 5.46189C51.8237 5.55462 51.9412 5.65145 52.0563 5.75227C53.3042 6.84563 54.0152 8.18657 54.0429 9.39889C54.0862 11.2867 53.226 13.1654 51.9149 14.3033C50.6717 15.3823 49.078 15.7762 47.3046 14.9422C46.9154 14.7592 46.4564 14.5749 46.035 14.4056C45.9258 14.3617 45.819 14.3188 45.7166 14.2772C45.1807 14.0595 44.6854 13.8472 44.2437 13.6102C43.2925 13.0998 43.0056 12.6941 42.9411 12.4057C42.6087 10.921 42.799 9.86708 43.6187 8.26966C44.1606 7.21371 44.7212 6.56613 45.26 6.15283C45.7913 5.74529 46.3842 5.50162 47.0919 5.37026Z" fill="#FBEDDE"/>
<path d="M15.0817 4.94977C13.9383 5.01447 12.732 5.08273 11.5115 5.08273C10.7566 5.08273 9.93194 5.03463 9.13904 4.98826L9.11275 4.98672C8.30841 4.93968 7.51752 4.89342 6.73692 4.88271C5.78127 4.86959 4.9374 4.91377 4.21795 5.03955V8.74662H14.4992C15.5184 8.74662 16.3445 9.56681 16.3445 10.5786C16.3445 11.5903 15.5184 12.4105 14.4992 12.4105H4.21056C4.17924 13.2923 4.05398 14.1382 3.9445 14.8775L3.93473 14.9434C3.80008 15.8534 3.6907 16.6192 3.6907 17.3829C3.6907 18.3947 2.86451 19.2149 1.84535 19.2149C0.826192 19.2149 0 18.3947 0 17.3829C0 16.3244 0.149852 15.312 0.277646 14.4486L0.283215 14.4109C0.418562 13.4962 0.527243 12.7443 0.527243 12.0034V4.71806C0.495504 4.6655 0.466112 4.61087 0.439266 4.55424C0.070609 3.77653 0.300759 2.87188 0.943744 2.35311C1.28215 1.94257 1.79655 1.68055 2.3726 1.68055C2.40968 1.68055 2.44651 1.68164 2.48305 1.68378C3.90735 1.26906 5.43667 1.20062 6.78793 1.21917C7.65267 1.23103 8.51499 1.28149 9.29613 1.3272L9.3561 1.33071C10.1735 1.37852 10.8853 1.41884 11.5115 1.41884C12.6151 1.41884 13.7223 1.35686 14.8869 1.29096L14.9204 1.28907C16.0574 1.22472 17.2516 1.15714 18.4535 1.15714C19.4727 1.15714 20.2989 1.97733 20.2989 2.98908C20.2989 4.00084 19.4727 4.82103 18.4535 4.82103C17.3627 4.82103 16.2624 4.88296 15.0969 4.94891L15.0817 4.94977Z" fill="#FBEDDE"/>
<path fill-rule="evenodd" clip-rule="evenodd" d="M33.4451 3.71638C33.8321 3.97348 34.4096 4.5004 34.5202 5.37892C34.5537 5.64521 34.5279 5.90528 34.453 6.14604C34.562 6.32584 34.6774 6.52107 34.7852 6.71967C35.1736 7.43492 35.5262 8.3012 35.5864 9.43545C35.5966 9.62831 35.6574 9.91782 35.7953 10.3889C35.8296 10.5061 35.8718 10.6441 35.9178 10.7944L35.9182 10.7959C36.0261 11.1487 36.1548 11.5696 36.2511 11.9492C36.5247 13.0284 36.8286 14.7744 35.7047 16.3086C34.9184 17.3819 33.9621 18.1214 32.8634 18.5331C31.7833 18.9378 30.6891 18.9799 29.6826 18.8612C28.0624 18.67 26.3648 18.0028 25.0062 17.4688L25.0049 17.4683C24.7664 17.3745 24.5384 17.2849 24.323 17.2027C21.7343 16.2142 20.8434 13.9328 20.7515 11.8906C20.6621 9.90361 21.2738 7.83243 22.0168 6.35711C22.4531 5.49091 23.0018 4.78641 23.7329 4.23222C24.4452 3.69224 25.233 3.37002 26.0245 3.12825C26.4782 2.98968 27.1742 2.92886 27.7512 2.8979C28.4099 2.86255 29.201 2.85408 29.9771 2.89335C30.7308 2.93148 31.5699 3.01901 32.2774 3.21218C32.6231 3.30658 33.054 3.4565 33.4451 3.71638ZM30.4724 6.60486C30.2655 6.58279 30.0364 6.565 29.7892 6.55249C29.1555 6.52042 28.4944 6.52725 27.9504 6.55644C27.4988 6.58068 27.2392 6.61504 27.1456 6.62742C27.1096 6.63219 27.0982 6.6337 27.1099 6.63012C26.529 6.80756 26.2005 6.97154 25.9728 7.14417C25.7639 7.30257 25.5489 7.53706 25.3179 7.99565C24.7821 9.05958 24.3837 10.5093 24.4385 11.7271C24.4908 12.8896 24.8985 13.4968 25.6479 13.783C25.9311 13.8911 26.2052 13.9978 26.4714 14.1015C27.851 14.6387 29.0177 15.0931 30.1181 15.2229C30.7205 15.2939 31.185 15.2458 31.56 15.1053C31.9164 14.9717 32.3116 14.7109 32.7198 14.1536C32.7966 14.0488 32.9106 13.7845 32.672 12.8435C32.5967 12.5466 32.5156 12.2823 32.4232 11.9814C32.3699 11.8079 32.3129 11.6222 32.2511 11.411C32.1051 10.9122 31.9351 10.2745 31.9008 9.62802C31.8781 9.2002 31.7588 8.86765 31.5364 8.45802C31.4298 8.26166 31.3135 8.07192 31.165 7.82963L31.0889 7.70548C30.9137 7.41883 30.7068 7.07516 30.5113 6.68712C30.4976 6.65987 30.4846 6.63244 30.4724 6.60486Z" fill="#FBEDDE"/>
</svg>
