<svg width="58" height="45" viewBox="0 0 58 45" fill="none" xmlns="http://www.w3.org/2000/svg">
<path fill-rule="evenodd" clip-rule="evenodd" d="M4.073 4C4.073 1.79086 5.86386 0 8.073 0H49.708C51.9171 0 53.708 1.79086 53.708 4C53.708 6.20914 51.9171 8 49.708 8H8.073C5.86386 8 4.073 6.20914 4.073 4Z" fill="#FBEDDE"/>
<path fill-rule="evenodd" clip-rule="evenodd" d="M5.77357e-05 20.9787C0.0118013 18.7696 1.81216 16.9883 4.02127 17.0001C11.7271 17.041 19.2735 17.1738 26.7921 17.3061C35.7536 17.4637 44.6755 17.6207 53.781 17.6207C55.9901 17.6207 57.781 19.4116 57.781 21.6207C57.781 23.8298 55.9901 25.6207 53.781 25.6207C44.7708 25.6207 35.6033 25.4611 26.4779 25.3022C18.9112 25.1705 11.3735 25.0393 3.97874 24.9999C1.76963 24.9882 -0.011686 23.1878 5.77357e-05 20.9787Z" fill="#FBEDDE"/>
<path fill-rule="evenodd" clip-rule="evenodd" d="M1.83334 38.1931C2.06961 35.9967 4.04174 34.4076 6.23821 34.6439C21.1051 36.2431 36.711 36.483 51.9709 36.483C54.1801 36.483 55.9709 38.2739 55.9709 40.483C55.9709 42.6921 54.1801 44.483 51.9709 44.483C36.6741 44.483 20.7043 44.2462 5.38258 42.598C3.18611 42.3617 1.59706 40.3896 1.83334 38.1931Z" fill="#FBEDDE"/>
</svg>
