<svg width="58" height="46" viewBox="0 0 58 46" fill="none" xmlns="http://www.w3.org/2000/svg">
<path fill-rule="evenodd" clip-rule="evenodd" d="M4.29199 4.75845C4.29199 2.54931 6.08285 0.758453 8.29199 0.758453H49.927C52.1361 0.758453 53.927 2.54931 53.927 4.75845C53.927 6.96759 52.1361 8.75845 49.927 8.75845H8.29199C6.08285 8.75845 4.29199 6.96759 4.29199 4.75845Z" fill="#FBEDDE"/>
<path fill-rule="evenodd" clip-rule="evenodd" d="M0.219052 21.7372C0.230795 19.5281 2.03115 17.7468 4.24026 17.7585C11.9461 17.7995 19.4925 17.9322 27.0111 18.0645C35.9726 18.2222 44.8945 18.3791 54 18.3791C56.2091 18.3791 58 20.17 58 22.3791C58 24.5883 56.2091 26.3791 54 26.3791C44.9898 26.3791 35.8222 26.2195 26.6969 26.0607C19.1302 25.9289 11.5925 25.7977 4.19773 25.7584C1.98862 25.7467 0.207308 23.9463 0.219052 21.7372Z" fill="#FBEDDE"/>
<path fill-rule="evenodd" clip-rule="evenodd" d="M2.05233 38.9517C2.28861 36.7552 4.26074 35.1662 6.4572 35.4024C21.3241 37.0017 36.93 37.2416 52.1899 37.2416C54.3991 37.2416 56.1899 39.0324 56.1899 41.2416C56.1899 43.4507 54.3991 45.2416 52.1899 45.2416C36.8931 45.2416 20.9233 45.0047 5.60157 43.3565C3.40511 43.1203 1.81606 41.1481 2.05233 38.9517Z" fill="#FBEDDE"/>
</svg>
