<svg width="283" height="60" viewBox="0 0 283 60" fill="none" xmlns="http://www.w3.org/2000/svg">
<path fill-rule="evenodd" clip-rule="evenodd" d="M40.9818 10.8039C48.3362 15.8177 53.0683 24.4713 51.5338 32.948C50.8606 36.6668 50.1602 40.3562 48.7957 43.5306C47.4614 46.6351 45.6007 48.9847 42.7351 50.2959C36.6281 53.0902 29.5998 54.5223 23.2692 53.1729C18.3843 52.1316 13.6888 49.9176 11.4307 46.2684C10.8452 45.3223 10.1684 44.4229 9.55113 43.618C9.44233 43.4761 9.33557 43.3374 9.23072 43.2012L9.23064 43.2011C8.71376 42.5295 8.24341 41.9185 7.80514 41.2876C6.74879 39.767 6.20045 38.5653 6.13989 37.398C5.82552 31.3389 5.91874 26.8063 7.41806 21.7033C8.26751 20.5789 9.12258 19.4025 9.95611 18.2558C10.7326 17.1875 11.4904 16.145 12.2076 15.1941C12.6728 14.5773 13.0787 14.0028 13.4739 13.4435C14.0862 12.5769 14.6724 11.7472 15.4126 10.8543C16.558 9.47271 17.562 8.62439 18.4666 8.27283C20.8304 7.35418 23.1997 6.62519 25.4272 6.41474C31.1149 5.87736 36.1239 7.492 40.9818 10.8039ZM0.154701 37.7039C-0.147265 31.8839 -0.114428 26.9664 1.24698 21.5526C1.08856 20.7309 1.27237 19.8479 1.82711 19.1371C1.88797 19.0591 1.94847 18.9813 2.00862 18.9037C2.20636 18.292 2.42178 17.6717 2.6562 17.0411C3.02003 16.0622 3.84041 15.3869 4.78582 15.1667L4.97584 14.9046C5.75078 13.836 6.54429 12.7418 7.42341 11.5762C7.67402 11.2439 7.98856 10.8018 8.34281 10.304L8.34289 10.3039C9.06501 9.28901 9.95215 8.04224 10.7993 7.02032C12.1347 5.4096 13.9392 3.59447 16.2934 2.67953C18.8484 1.68655 21.8187 0.728787 24.8588 0.441555C32.1957 -0.251631 38.574 1.90646 44.3523 5.84582C53.1256 11.827 59.4932 22.6315 57.431 34.0229C56.7762 37.6399 55.9787 42.0034 54.3013 45.9061C52.5938 49.8788 49.8687 53.6308 45.2305 55.753C38.3812 58.887 30.0077 60.7423 22.026 59.041C16.5959 57.8835 9.89352 55.1728 6.33656 49.4248C5.92427 48.7585 5.41122 48.0679 4.7985 47.269C4.70473 47.1467 4.60809 47.0212 4.5093 46.893C3.99198 46.2213 3.41585 45.4733 2.88574 44.7102C1.62502 42.8954 0.302969 40.5616 0.154701 37.7039ZM46.3484 34.9926C47.0936 33.5133 46.4999 31.7092 45.0223 30.9631C43.5447 30.217 41.7427 30.8114 40.9974 32.2907C40.26 33.7547 38.8111 35.3971 36.9713 36.6712C35.1231 37.9511 33.1849 38.6514 31.5683 38.6514C30.7034 38.6514 29.5796 38.7244 28.5456 38.7916H28.5455L28.5453 38.7916L28.5451 38.7916L28.5446 38.7916L28.5429 38.7917L28.5419 38.7918C27.9594 38.8296 27.4055 38.8656 26.9426 38.8856C25.3797 38.9531 24.2635 38.8935 23.5552 38.6772C21.3782 38.0123 20.8247 37.3679 19.3319 35.6301C18.9329 35.1656 18.4668 34.623 17.8847 33.981C16.7723 32.7542 14.8772 32.6626 13.6519 33.7762C12.4266 34.8899 12.335 36.7872 13.4474 38.0139C13.8116 38.4156 14.1561 38.8235 14.5003 39.2311C16.1844 41.2252 17.8616 43.2113 21.8067 44.4161C23.5765 44.9566 25.5945 44.9494 27.2009 44.88C28.0019 44.8454 28.6824 44.7989 29.2974 44.7569L29.2981 44.7568L29.2986 44.7568L29.2988 44.7568C30.1297 44.7 30.8409 44.6514 31.5683 44.6514C34.77 44.6514 37.882 43.3361 40.3806 41.6057C42.8874 39.8697 45.0817 37.5073 46.3484 34.9926ZM19.7898 23.7474C19.7898 22.0905 21.1313 20.7474 22.7862 20.7474H23.2609C24.9159 20.7474 26.2574 22.0905 26.2574 23.7474C26.2574 25.4042 24.9159 26.7474 23.2609 26.7474H22.7862C21.1313 26.7474 19.7898 25.4042 19.7898 23.7474ZM34.179 20.7474C32.5241 20.7474 31.1825 22.0905 31.1825 23.7474C31.1825 25.4042 32.5241 26.7474 34.179 26.7474H34.6537C36.3086 26.7474 37.6502 25.4042 37.6502 23.7474C37.6502 22.0905 36.3086 20.7474 34.6537 20.7474H34.179Z" fill="#FBEDDE"/>
<path d="M78.7652 27.688H75.8212V41H70.3492V27.688H68.3652V23.144H70.3492V22.632C70.3492 20.4347 70.9785 18.7707 72.2372 17.64C73.4958 16.488 75.3412 15.912 77.7732 15.912C78.1785 15.912 78.4772 15.9227 78.6692 15.944V20.584C77.6238 20.52 76.8878 20.6693 76.4612 21.032C76.0345 21.3947 75.8212 22.0453 75.8212 22.984V23.144H78.7652V27.688ZM84.0884 21.288C83.1284 21.288 82.3391 21.0107 81.7204 20.456C81.1231 19.88 80.8244 19.176 80.8244 18.344C80.8244 17.4907 81.1231 16.7867 81.7204 16.232C82.3391 15.656 83.1284 15.368 84.0884 15.368C85.0271 15.368 85.7951 15.656 86.3924 16.232C87.0111 16.7867 87.3204 17.4907 87.3204 18.344C87.3204 19.176 87.0111 19.88 86.3924 20.456C85.7951 21.0107 85.0271 21.288 84.0884 21.288ZM86.8084 23.144V41H81.3364V23.144H86.8084ZM100.726 36.36V41H97.9419C95.9579 41 94.4113 40.52 93.3019 39.56C92.1926 38.5787 91.6379 36.9893 91.6379 34.792V27.688H89.4619V23.144H91.6379V18.792H97.1099V23.144H100.694V27.688H97.1099V34.856C97.1099 35.3893 97.2379 35.7733 97.4939 36.008C97.7499 36.2427 98.1766 36.36 98.7739 36.36H100.726ZM116.027 25.672C116.561 24.84 117.297 24.168 118.235 23.656C119.174 23.144 120.273 22.888 121.531 22.888C123.003 22.888 124.337 23.2613 125.531 24.008C126.726 24.7547 127.665 25.8213 128.347 27.208C129.051 28.5947 129.403 30.2053 129.403 32.04C129.403 33.8747 129.051 35.496 128.347 36.904C127.665 38.2907 126.726 39.368 125.531 40.136C124.337 40.8827 123.003 41.256 121.531 41.256C120.294 41.256 119.195 41 118.235 40.488C117.297 39.976 116.561 39.3147 116.027 38.504V49.512H110.555V23.144H116.027V25.672ZM123.835 32.04C123.835 30.6747 123.451 29.608 122.683 28.84C121.937 28.0507 121.009 27.656 119.899 27.656C118.811 27.656 117.883 28.0507 117.115 28.84C116.369 29.6293 115.995 30.7067 115.995 32.072C115.995 33.4373 116.369 34.5147 117.115 35.304C117.883 36.0933 118.811 36.488 119.899 36.488C120.987 36.488 121.915 36.0933 122.683 35.304C123.451 34.4933 123.835 33.4053 123.835 32.04ZM131.186 32.04C131.186 30.2053 131.527 28.5947 132.21 27.208C132.914 25.8213 133.863 24.7547 135.058 24.008C136.253 23.2613 137.586 22.888 139.058 22.888C140.317 22.888 141.415 23.144 142.354 23.656C143.314 24.168 144.05 24.84 144.562 25.672V23.144H150.034V41H144.562V38.472C144.029 39.304 143.282 39.976 142.322 40.488C141.383 41 140.285 41.256 139.026 41.256C137.575 41.256 136.253 40.8827 135.058 40.136C133.863 39.368 132.914 38.2907 132.21 36.904C131.527 35.496 131.186 33.8747 131.186 32.04ZM144.562 32.072C144.562 30.7067 144.178 29.6293 143.41 28.84C142.663 28.0507 141.746 27.656 140.658 27.656C139.57 27.656 138.642 28.0507 137.874 28.84C137.127 29.608 136.754 30.6747 136.754 32.04C136.754 33.4053 137.127 34.4933 137.874 35.304C138.642 36.0933 139.57 36.488 140.658 36.488C141.746 36.488 142.663 36.0933 143.41 35.304C144.178 34.5147 144.562 33.4373 144.562 32.072ZM159.465 26.12C160.105 25.1387 160.905 24.3707 161.865 23.816C162.825 23.24 163.891 22.952 165.065 22.952V28.744H163.561C162.195 28.744 161.171 29.0427 160.489 29.64C159.806 30.216 159.465 31.24 159.465 32.712V41H153.993V23.144H159.465V26.12ZM184.512 31.784C184.512 32.296 184.48 32.8293 184.416 33.384H172.032C172.118 34.4933 172.47 35.3467 173.088 35.944C173.728 36.52 174.507 36.808 175.424 36.808C176.79 36.808 177.739 36.232 178.272 35.08H184.096C183.798 36.2533 183.254 37.3093 182.464 38.248C181.696 39.1867 180.726 39.9227 179.552 40.456C178.379 40.9893 177.067 41.256 175.616 41.256C173.867 41.256 172.31 40.8827 170.944 40.136C169.579 39.3893 168.512 38.3227 167.744 36.936C166.976 35.5493 166.592 33.928 166.592 32.072C166.592 30.216 166.966 28.5947 167.712 27.208C168.48 25.8213 169.547 24.7547 170.912 24.008C172.278 23.2613 173.846 22.888 175.616 22.888C177.344 22.888 178.88 23.2507 180.224 23.976C181.568 24.7013 182.614 25.736 183.36 27.08C184.128 28.424 184.512 29.992 184.512 31.784ZM178.912 30.344C178.912 29.4053 178.592 28.6587 177.952 28.104C177.312 27.5493 176.512 27.272 175.552 27.272C174.635 27.272 173.856 27.5387 173.216 28.072C172.598 28.6053 172.214 29.3627 172.064 30.344H178.912ZM198.279 22.952C200.37 22.952 202.034 23.6347 203.271 25C204.53 26.344 205.159 28.2 205.159 30.568V41H199.719V31.304C199.719 30.1093 199.41 29.1813 198.791 28.52C198.172 27.8587 197.34 27.528 196.295 27.528C195.25 27.528 194.418 27.8587 193.799 28.52C193.18 29.1813 192.871 30.1093 192.871 31.304V41H187.399V23.144H192.871V25.512C193.426 24.7227 194.172 24.104 195.111 23.656C196.05 23.1867 197.106 22.952 198.279 22.952ZM218.913 36.36V41H216.129C214.145 41 212.599 40.52 211.489 39.56C210.38 38.5787 209.825 36.9893 209.825 34.792V27.688H207.649V23.144H209.825V18.792H215.297V23.144H218.881V27.688H215.297V34.856C215.297 35.3893 215.425 35.7733 215.681 36.008C215.937 36.2427 216.364 36.36 216.961 36.36H218.913ZM229.225 41.256C227.668 41.256 226.281 40.9893 225.065 40.456C223.849 39.9227 222.889 39.1973 222.185 38.28C221.481 37.3413 221.087 36.296 221.001 35.144H226.409C226.473 35.7627 226.761 36.264 227.273 36.648C227.785 37.032 228.415 37.224 229.161 37.224C229.844 37.224 230.367 37.096 230.729 36.84C231.113 36.5627 231.305 36.2107 231.305 35.784C231.305 35.272 231.039 34.8987 230.505 34.664C229.972 34.408 229.108 34.1307 227.913 33.832C226.633 33.5333 225.567 33.224 224.713 32.904C223.86 32.5627 223.124 32.04 222.505 31.336C221.887 30.6107 221.577 29.64 221.577 28.424C221.577 27.4 221.855 26.472 222.409 25.64C222.985 24.7867 223.817 24.1147 224.905 23.624C226.015 23.1333 227.327 22.888 228.841 22.888C231.081 22.888 232.841 23.4427 234.121 24.552C235.423 25.6613 236.169 27.1333 236.361 28.968H231.305C231.22 28.3493 230.943 27.8587 230.473 27.496C230.025 27.1333 229.428 26.952 228.681 26.952C228.041 26.952 227.551 27.08 227.209 27.336C226.868 27.5707 226.697 27.9013 226.697 28.328C226.697 28.84 226.964 29.224 227.497 29.48C228.052 29.736 228.905 29.992 230.057 30.248C231.38 30.5893 232.457 30.9307 233.289 31.272C234.121 31.592 234.847 32.1253 235.465 32.872C236.105 33.5973 236.436 34.5787 236.457 35.816C236.457 36.8613 236.159 37.8 235.561 38.632C234.985 39.4427 234.143 40.0827 233.033 40.552C231.945 41.0213 230.676 41.256 229.225 41.256Z" fill="#FBEDDE"/>
</svg>
