<svg width="83" height="30" viewBox="0 0 83 30" fill="none" xmlns="http://www.w3.org/2000/svg">
<path d="M6.75197 9.31868C6.79803 8.92475 6.84392 8.53221 6.89072 8.14988C7.02503 8.48731 7.16921 8.80928 7.32272 9.08846C7.55535 9.51154 7.67156 9.82358 7.72913 10.0297C7.71256 10.0809 7.69717 10.1331 7.68323 10.1862C7.64131 10.3458 7.59283 10.5863 7.60143 10.8693C7.60569 11.0099 7.62577 11.2305 7.71221 11.4822C7.79374 11.7197 7.99089 12.1447 8.45191 12.465C8.69094 12.631 8.97107 12.7459 9.27448 12.7905C9.57294 12.8343 9.84405 12.803 10.0671 12.7418C10.4885 12.626 10.767 12.3979 10.9073 12.2638C11.1903 11.9934 11.3343 11.6986 11.4014 11.5418C11.4823 11.3528 11.5341 11.1656 11.5675 10.9948L11.5713 10.9752C11.6842 10.8289 11.8472 10.6389 12.0772 10.4065C12.8723 9.60317 13.6183 8.72684 14.3121 7.91184L14.3421 7.87658C14.5006 7.69041 14.6566 7.50729 14.8109 7.32738C14.9216 7.95762 14.9864 8.53967 14.9975 8.83036C15.0978 11.4653 15.4789 13.9778 15.8404 16.3613L15.8427 16.3759C15.8715 16.5661 15.9002 16.7555 15.9287 16.9441C16.3196 19.5361 16.6623 21.9977 16.6623 24.562C16.6623 25.6329 17.5231 26.501 18.5849 26.501C19.6467 26.501 20.5075 25.6329 20.5075 24.562C20.5075 21.6725 20.1205 18.9493 19.7301 16.3608C19.7024 16.1775 19.6748 15.9948 19.6472 15.8129C19.2803 13.3906 18.9314 11.0867 18.8398 8.68158C18.8102 7.90505 18.6003 6.3268 18.2376 5.04396C18.0724 4.45962 17.7976 3.63756 17.3165 3.03109C17.0736 2.7249 16.5571 2.19269 15.7224 2.07743C14.7943 1.94928 14.0964 2.40944 13.7066 2.80325C12.8949 3.62338 12.1388 4.51152 11.4396 5.33286L11.4248 5.35024C11.0711 5.76571 10.7317 6.16413 10.3966 6.54414C10.295 6.27489 10.1816 5.94633 10.0566 5.5605C9.96303 5.27171 9.85385 4.92096 9.74128 4.55931C9.59047 4.07478 9.43352 3.57057 9.29989 3.16981C9.1717 2.78536 9.03407 2.39778 8.88928 2.05125C8.75656 1.73362 8.56771 1.3257 8.30857 0.97806C8.18007 0.805676 7.95502 0.538615 7.61313 0.326336C7.2349 0.091486 6.65352 -0.105131 5.98113 0.0627797C5.36073 0.217707 4.97353 0.608169 4.77141 0.868964C4.56541 1.13478 4.4346 1.41397 4.34894 1.63034C3.72612 3.20351 3.39907 5.1798 3.16377 6.96951C3.06818 7.69663 2.98808 8.3859 2.91235 9.03759C2.78866 10.1021 2.67661 11.0663 2.52768 11.9315C2.2684 13.4378 1.88021 14.8242 1.46573 16.3044C1.32587 16.8039 1.18302 17.3141 1.04112 17.8432C0.494721 19.8804 0 22.0863 0 24.562C0 25.6329 0.860767 26.501 1.92257 26.501C2.98438 26.501 3.84515 25.6329 3.84515 24.562C3.84515 22.6051 4.23309 20.7938 4.75286 18.8558C4.87035 18.4178 4.99701 17.9659 5.12707 17.5018L5.12786 17.499L5.12848 17.4968C5.5557 15.9728 6.01957 14.3179 6.31616 12.5949C6.48069 11.6391 6.61702 10.4729 6.75197 9.31868Z" fill="#FBEDDE"/>
<path fill-rule="evenodd" clip-rule="evenodd" d="M28.4303 5.37384C27.4794 4.89725 26.3255 5.28833 25.853 6.24735C25.3804 7.20636 25.7682 8.37015 26.719 8.84674C26.8664 8.92058 27.0144 8.99091 27.1628 9.05807C27.05 9.2677 26.9323 9.48094 26.8116 9.69432C26.42 10.387 26.0133 11.0529 25.6627 11.5745C25.4868 11.8362 25.3362 12.0448 25.2174 12.1953C25.1449 12.2872 25.1024 12.3341 25.0875 12.3505L25.0837 12.3548C23.7303 13.4568 23.2526 14.834 23.1188 16.1245C23.0556 16.7339 23.0668 17.3352 23.0857 17.8528C23.0917 18.0182 23.0983 18.1723 23.1046 18.3197C23.1196 18.6707 23.1329 18.9834 23.1329 19.3158C23.1329 20.9235 23.8947 22.2353 24.8635 23.1871C25.8211 24.1279 27.0569 24.8038 28.2988 25.2357C29.5476 25.6699 30.9108 25.8955 32.1952 25.8483C33.4471 25.8023 34.8295 25.4869 35.9087 24.6215C36.3969 24.23 36.742 23.6984 36.9793 23.2683C37.2372 22.8007 37.4692 22.2628 37.6747 21.7038C38.0866 20.5832 38.4426 19.2386 38.6938 17.8965C38.9443 16.5587 39.1044 15.1504 39.0916 13.9079C39.0853 13.2872 39.0356 12.6589 38.9112 12.0779C38.7923 11.5226 38.5732 10.855 38.1226 10.2903C36.6243 8.41288 34.692 7.53603 32.9663 6.94343C32.64 6.83137 32.2953 6.72159 31.9533 6.61572C31.7566 5.86399 31.1194 5.2748 30.3074 5.18324C29.782 5.12401 29.2825 5.28421 28.8987 5.59138C28.7378 5.52199 28.5818 5.44981 28.4303 5.37384ZM30.1519 11.6153C30.3929 11.189 30.6292 10.7528 30.8468 10.3295C31.1391 10.4198 31.4276 10.5118 31.727 10.6146C33.1821 11.1143 34.277 11.6805 35.091 12.6772C35.1019 12.705 35.1262 12.7729 35.1527 12.8965C35.205 13.1408 35.242 13.491 35.2467 13.9479C35.256 14.8603 35.1353 16.0027 34.9154 17.177C34.6964 18.347 34.3928 19.4758 34.0694 20.3557C33.9072 20.7968 33.7526 21.1409 33.6192 21.3828C33.5437 21.5196 33.493 21.5907 33.4728 21.618C33.2543 21.7707 32.8007 21.9454 32.0552 21.9728C31.2894 22.0009 30.3981 21.8635 29.5522 21.5694C28.6994 21.2728 28.0002 20.8548 27.5465 20.4091C27.1039 19.9743 26.9781 19.607 26.9781 19.3158C26.9781 18.8934 26.9593 18.454 26.9431 18.0744C26.9375 17.9451 26.9323 17.8228 26.9282 17.7105C26.9106 17.2262 26.9095 16.8517 26.9431 16.5278C27.0017 15.9625 27.1467 15.6548 27.5116 15.3621C27.799 15.1317 28.0486 14.8352 28.226 14.6103C28.4261 14.3567 28.6364 14.0616 28.8454 13.7507C29.2645 13.1272 29.7238 12.3726 30.1519 11.6153Z" fill="#FBEDDE"/>
<path fill-rule="evenodd" clip-rule="evenodd" d="M47.4202 16.1408L47.2657 16.6214C45.998 20.5655 44.8601 24.1773 44.8601 27.794C44.8601 28.865 43.9993 29.7331 42.9375 29.7331C41.8757 29.7331 41.0149 28.865 41.0149 27.794C41.0149 23.4927 42.3552 19.3229 43.5792 15.5149L43.6079 15.4255C44.8782 11.4733 46.0136 7.90392 46.0136 4.36392C46.0136 4.20451 46.0154 4.05864 46.0206 3.93754C46.0231 3.87957 46.0275 3.79991 46.0368 3.71507C46.0414 3.6733 46.0498 3.60583 46.0654 3.52619C46.0754 3.47498 46.1122 3.28619 46.2119 3.06905C46.2594 2.96575 46.3802 2.72193 46.6242 2.4846C46.897 2.21916 47.4208 1.88257 48.1353 1.94793C48.7781 2.00674 49.1806 2.36047 49.3433 2.52946C49.5188 2.71157 49.6184 2.8871 49.6625 2.97006C49.8043 3.23726 49.8548 3.49518 49.8569 3.50612C49.8867 3.64036 49.9068 3.78539 49.9193 3.88128C49.9745 4.30195 50.0485 5.0999 50.1295 5.97424C50.2388 7.15346 50.3646 8.50976 50.4921 9.6162C50.725 8.96664 50.9412 8.31579 51.1331 7.64122C51.2692 7.16285 51.4237 6.71704 51.6127 6.34082C51.7604 6.0468 52.1057 5.42062 52.8044 5.07809C53.22 4.87436 53.71 4.79807 54.2071 4.90831C54.6674 5.0104 55.001 5.24237 55.2099 5.42824C55.593 5.76901 55.8186 6.19002 55.9356 6.42777C56.1921 6.94868 56.406 7.62198 56.5644 8.12226L56.6068 8.25618C56.7705 8.77346 56.8968 9.17273 57.0199 9.46634C58.1728 12.2165 58.6752 15.176 59.1306 17.8585C59.16 18.032 59.1893 18.2043 59.2185 18.3754C59.716 21.2873 60.2067 23.8549 61.318 26.0872C61.7944 27.0443 61.4114 28.2097 60.4624 28.6902C59.5135 29.1707 58.358 28.7844 57.8816 27.8273C56.478 25.0077 55.9167 21.8871 55.4292 19.0339L55.362 18.64C54.9407 16.1677 54.5525 13.8893 53.7942 11.7883C53.6699 12.119 53.5453 12.4435 53.4223 12.7627L53.3303 13.0013C52.8741 14.1839 52.4472 15.2904 52.0873 16.4654C51.957 16.8906 51.7715 17.4168 51.4725 17.8344C51.3349 18.0266 50.9789 18.4772 50.3376 18.6766C49.5117 18.9333 48.7948 18.6172 48.3774 18.2485C48.038 17.9488 47.8634 17.6021 47.785 17.4309C47.6915 17.2266 47.626 17.0233 47.579 16.8548C47.5161 16.6292 47.4641 16.3847 47.4202 16.1408ZM52.4762 8.12231C52.4731 8.11747 52.4707 8.11343 52.4689 8.11036C52.4665 8.10607 52.4653 8.10368 52.4653 8.10368C52.4653 8.10368 52.4691 8.10906 52.4762 8.12231Z" fill="#FBEDDE"/>
<path fill-rule="evenodd" clip-rule="evenodd" d="M74.2415 2.27481C73.4669 1.66455 72.4546 1.34991 71.3974 1.7142C70.5132 2.01887 69.9482 2.69153 69.6287 3.14848C69.124 3.87034 68.6977 4.896 68.472 5.43927C68.4214 5.56106 68.3808 5.65861 68.3517 5.72306C67.5285 7.54701 67.1562 9.16995 67.3334 10.6612C67.5179 12.2146 68.2643 13.3503 69.1303 14.2278C69.7919 14.8982 70.618 15.5017 71.3267 16.0195C71.4713 16.125 71.6109 16.2271 71.7433 16.3254C72.5949 16.9577 73.3406 17.564 73.9553 18.3206C74.6914 19.2266 75.4759 19.9375 76.1122 20.5137C77.3746 20.5137 77.2471 21.5453 77.5926 21.9956C77.8996 22.3957 78.0819 22.7809 78.1521 23.2757C78.227 23.8034 78.1921 24.5882 77.8413 25.7974C77.8295 25.8379 77.8229 25.8444 77.7999 25.8629C77.7574 25.8973 77.6359 25.9739 77.3746 26.036C76.8255 26.1664 75.9839 26.1561 74.9773 25.9519C73.9958 25.7528 73.0143 25.401 72.2463 24.9998C71.4931 24.6064 71.2098 24.3045 71.155 24.2461C71.1464 24.2369 71.1434 24.2338 71.1452 24.2372C70.6612 23.2841 69.5027 22.9071 68.5576 23.3952C67.6125 23.8834 67.2387 25.0518 67.7227 26.005C68.2903 27.1227 69.481 27.9227 70.4778 28.4435C71.5787 29.0185 72.9021 29.4867 74.2191 29.7538C75.5111 30.0159 76.9617 30.1183 78.2561 29.8108C79.5944 29.4929 81.0211 28.6462 81.5316 26.8866C81.983 25.3311 82.1344 23.9658 81.9585 22.7263C81.778 21.454 81.2726 20.4551 80.6336 19.6223C80.0618 18.8769 79.3588 18.2411 78.7684 17.7071L78.681 17.6279C78.0341 17.0422 77.4561 16.5109 76.9295 15.8626C75.9973 14.7152 74.9289 13.8751 74.0229 13.2023C73.8336 13.0617 73.656 12.9314 73.4887 12.8086C72.7937 12.2986 72.2786 11.9207 71.8555 11.492C71.4001 11.0305 71.2049 10.6521 71.1512 10.1998C71.0901 9.68536 71.1828 8.81106 71.8513 7.32981C71.9257 7.16504 72.0033 6.98003 72.0735 6.81249L72.0744 6.81044L72.0887 6.77622C72.1671 6.58922 72.2431 6.40882 72.3233 6.22935C72.3996 6.05869 72.4721 5.9068 72.541 5.77406C72.9317 5.99606 73.3262 6.16785 73.6556 6.30451C73.8918 6.4025 74.0975 6.48403 74.2883 6.55962C74.5994 6.68288 74.8706 6.79036 75.1691 6.92774C75.616 7.13347 75.8693 7.29986 76.0069 7.43203C76.1 7.52153 76.1035 7.55512 76.1066 7.58554L76.1072 7.5909C76.2273 8.65495 77.1798 9.41936 78.2348 9.29826C79.2898 9.17717 80.0477 8.21643 79.9277 7.15239C79.6751 4.91382 77.8507 3.89919 76.7655 3.39968C76.3826 3.2234 75.9311 3.04365 75.5569 2.89463C75.3914 2.82878 75.2411 2.76892 75.1184 2.71802C74.6184 2.51058 74.3657 2.37261 74.2415 2.27481ZM72.8676 5.26221L72.8692 5.26066C72.8692 5.26066 72.8661 5.26317 72.8637 5.26567L72.8676 5.26221Z" fill="#FBEDDE"/>
</svg>
