<svg width="96" height="48" viewBox="0 0 96 48" fill="none" xmlns="http://www.w3.org/2000/svg">
<path d="M31.746 7.95402C31.7854 7.61778 31.8245 7.28272 31.8645 6.95638C31.9791 7.24439 32.1022 7.51921 32.2332 7.75751C32.4318 8.11863 32.531 8.38497 32.5801 8.5609C32.566 8.60463 32.5528 8.64918 32.5409 8.69447C32.5051 8.83069 32.4638 9.03599 32.4711 9.27757C32.4747 9.39757 32.4919 9.58582 32.5657 9.80072C32.6353 10.0034 32.8035 10.3662 33.197 10.6396C33.4011 10.7813 33.6402 10.8794 33.8991 10.9174C34.1539 10.9548 34.3853 10.9281 34.5757 10.8758C34.9354 10.777 35.1731 10.5823 35.2928 10.4678C35.5344 10.237 35.6573 9.98545 35.7146 9.85159C35.7837 9.69022 35.8279 9.53047 35.8564 9.38469L35.8596 9.36793C35.956 9.24306 36.0951 9.08087 36.2915 8.88249C36.9701 8.19685 37.6068 7.44885 38.199 6.7532L38.2247 6.72311C38.3599 6.5642 38.4931 6.4079 38.6248 6.25433C38.7193 6.79228 38.7746 7.28909 38.7841 7.53721C38.8697 9.78623 39.195 11.9308 39.5036 13.9653L39.5055 13.9778C39.5301 14.1401 39.5546 14.3018 39.5789 14.4627C39.9126 16.6751 40.2051 18.7762 40.2051 20.965C40.2051 21.8791 40.9398 22.6201 41.8461 22.6201C42.7524 22.6201 43.4871 21.8791 43.4871 20.965C43.4871 18.4987 43.1568 16.1743 42.8236 13.9649C42.8 13.8084 42.7764 13.6525 42.7528 13.4972C42.4397 11.4296 42.1418 9.46314 42.0637 7.41021C42.0385 6.74741 41.8593 5.40028 41.5497 4.3053C41.4086 3.80653 41.1741 3.10486 40.7635 2.5872C40.5562 2.32585 40.1153 1.87158 39.4028 1.7732C38.6106 1.66382 38.0149 2.05659 37.6822 2.39273C36.9894 3.09276 36.344 3.85084 35.7472 4.55189L35.7346 4.56673C35.4327 4.92136 35.143 5.26143 34.857 5.58579C34.7702 5.35597 34.6735 5.07553 34.5667 4.7462C34.4869 4.4997 34.3937 4.20031 34.2976 3.89163C34.1689 3.47805 34.0349 3.04768 33.9208 2.70561C33.8114 2.37747 33.6939 2.04664 33.5704 1.75086C33.4571 1.47974 33.2959 1.13156 33.0747 0.83483C32.965 0.68769 32.7729 0.459739 32.4811 0.278546C32.1582 0.0780885 31.662 -0.0897355 31.0881 0.053586C30.5585 0.185825 30.228 0.519106 30.0555 0.741709C29.8797 0.968595 29.768 1.2069 29.6949 1.39159C29.1633 2.73437 28.8842 4.42125 28.6833 5.94886C28.6017 6.5695 28.5334 7.15783 28.4687 7.71409C28.3631 8.6227 28.2675 9.44573 28.1404 10.1842C27.9191 11.4699 27.5877 12.6533 27.2339 13.9167C27.1146 14.3431 26.9926 14.7785 26.8715 15.2301C26.4051 16.969 25.9829 18.8519 25.9829 20.965C25.9829 21.8791 26.7176 22.6201 27.6239 22.6201C28.5302 22.6201 29.2649 21.8791 29.2649 20.965C29.2649 19.2947 29.596 17.7486 30.0397 16.0945C30.14 15.7206 30.2481 15.3349 30.3591 14.9388L30.3594 14.9378L30.3598 14.9364L30.3603 14.9345C30.725 13.6336 31.1209 12.2212 31.3741 10.7504C31.5145 9.93459 31.6309 8.93923 31.746 7.95402Z" fill="#FBEDDE"/>
<path fill-rule="evenodd" clip-rule="evenodd" d="M50.2497 4.58688C49.4381 4.18008 48.4531 4.51389 48.0498 5.33246C47.6465 6.15104 47.9774 7.14439 48.7891 7.55119C48.9148 7.61422 49.0412 7.67424 49.1678 7.73157C49.0715 7.9105 48.9711 8.09251 48.8681 8.27464C48.5338 8.86591 48.1867 9.43431 47.8874 9.8795C47.7372 10.1029 47.6088 10.2809 47.5073 10.4094C47.4455 10.4878 47.4092 10.5279 47.3965 10.5419L47.3932 10.5455C46.238 11.4862 45.8302 12.6617 45.716 13.7631C45.6621 14.2833 45.6717 14.7965 45.6878 15.2383C45.6929 15.3795 45.6985 15.5111 45.7039 15.6369C45.7167 15.9365 45.7281 16.2034 45.7281 16.4871C45.7281 17.8594 46.3783 18.9791 47.2052 19.7915C48.0226 20.5945 49.0774 21.1714 50.1375 21.5401C51.2034 21.9107 52.367 22.1033 53.4632 22.063C54.5319 22.0237 55.7118 21.7545 56.633 21.0158C57.0496 20.6817 57.3442 20.2279 57.5467 19.8608C57.7669 19.4617 57.9649 19.0026 58.1403 18.5254C58.4919 17.5689 58.7958 16.4212 59.0102 15.2757C59.224 14.1338 59.3606 12.9317 59.3498 11.8711C59.3444 11.3414 59.3019 10.8051 59.1957 10.3092C59.0943 9.83517 58.9072 9.26533 58.5226 8.78337C57.2437 7.18086 55.5945 6.43243 54.1214 5.92661C53.8429 5.83096 53.5487 5.73726 53.2568 5.64689C53.0889 5.00524 52.5451 4.50234 51.8519 4.42419C51.4035 4.37363 50.9771 4.51037 50.6495 4.77256C50.5122 4.71333 50.379 4.65172 50.2497 4.58688ZM51.7192 9.91427C51.9249 9.55041 52.1266 9.17812 52.3123 8.81679C52.5619 8.89387 52.8081 8.97239 53.0636 9.06015C54.3056 9.48664 55.2402 9.96996 55.935 10.8207C55.9443 10.8444 55.9651 10.9024 55.9876 11.0078C56.0323 11.2164 56.0639 11.5153 56.0679 11.9053C56.0759 12.6841 55.9728 13.6592 55.7851 14.6615C55.5982 15.6602 55.339 16.6237 55.063 17.3747C54.9245 17.7513 54.7926 18.0449 54.6787 18.2514C54.6143 18.3682 54.571 18.4288 54.5538 18.4522C54.3673 18.5825 53.9801 18.7316 53.3438 18.755C52.6901 18.779 51.9294 18.6618 51.2073 18.4107C50.4794 18.1575 49.8826 17.8008 49.4953 17.4203C49.1176 17.0492 49.0102 16.7357 49.0102 16.4871C49.0102 16.1266 48.9941 15.7515 48.9803 15.4275C48.9756 15.3172 48.9711 15.2128 48.9676 15.1169C48.9525 14.7035 48.9516 14.3839 48.9803 14.1074C49.0303 13.6249 49.1541 13.3622 49.4656 13.1124C49.7109 12.9157 49.9239 12.6627 50.0754 12.4707C50.2462 12.2543 50.4256 12.0023 50.604 11.737C50.9618 11.2048 51.3538 10.5607 51.7192 9.91427Z" fill="#FBEDDE"/>
<path fill-rule="evenodd" clip-rule="evenodd" d="M66.4587 13.7771L66.3268 14.1873C65.2448 17.5538 64.2734 20.6367 64.2734 23.7238C64.2734 24.6379 63.5387 25.3789 62.6324 25.3789C61.7261 25.3789 60.9914 24.6379 60.9914 23.7238C60.9914 20.0523 62.1354 16.4932 63.1802 13.2428L63.2047 13.1666C64.2889 9.79313 65.258 6.74644 65.258 3.72485C65.258 3.58878 65.2595 3.46428 65.264 3.36091C65.2662 3.31143 65.2699 3.24343 65.2779 3.17102C65.2818 3.13537 65.289 3.07778 65.3022 3.0098L65.3024 3.009C65.3109 2.96528 65.3422 2.80494 65.4273 2.6196C65.4678 2.53143 65.571 2.32332 65.7792 2.12075C66.0121 1.89417 66.4592 1.60688 67.069 1.66267C67.6177 1.71286 67.9612 2.0148 68.1002 2.15904C68.2499 2.31448 68.335 2.4643 68.3726 2.53511C68.4936 2.76318 68.5367 2.98333 68.5386 2.99267C68.5639 3.10725 68.5811 3.23104 68.5918 3.31289C68.6389 3.67195 68.702 4.35305 68.7712 5.09935C68.8645 6.10588 68.9719 7.26356 69.0807 8.20797C69.2795 7.65353 69.4641 7.098 69.6279 6.52221C69.744 6.1139 69.8759 5.73337 70.0372 5.41224C70.1632 5.16128 70.458 4.62681 71.0544 4.33444C71.4091 4.16054 71.8273 4.09542 72.2516 4.18952C72.6446 4.27666 72.9293 4.47466 73.1076 4.6333C73.4346 4.92417 73.6272 5.28353 73.7271 5.48646C73.9459 5.93108 74.1285 6.50579 74.2638 6.9328L74.3 7.04711C74.4397 7.48864 74.5475 7.82944 74.6525 8.08005C75.6366 10.4275 76.0654 12.9536 76.4541 15.2433C76.4793 15.3913 76.5042 15.5384 76.5292 15.6844C76.9538 18.1699 77.3727 20.3615 78.3212 22.2669C78.7278 23.0838 78.4009 24.0785 77.591 24.4887C76.781 24.8988 75.7947 24.5691 75.3881 23.7522C74.19 21.3455 73.7109 18.6819 73.2948 16.2465L73.2375 15.9103C72.8779 13.8001 72.5465 11.8553 71.8992 10.062C71.7931 10.3442 71.6868 10.6213 71.5818 10.8937L71.5033 11.0973C71.1139 12.1067 70.7495 13.0512 70.4423 14.0542C70.3311 14.4171 70.1728 14.8662 69.9175 15.2226C69.8001 15.3867 69.4962 15.7714 68.9488 15.9415C68.2439 16.1606 67.6319 15.8908 67.2757 15.5761C66.986 15.3203 66.8369 15.0244 66.77 14.8782C66.6902 14.7039 66.6344 14.5303 66.5942 14.3865C66.5405 14.194 66.4961 13.9853 66.4587 13.7771ZM70.7743 6.93285C70.7716 6.92872 70.7695 6.92527 70.768 6.92264C70.7659 6.91898 70.7649 6.91694 70.7649 6.91694C70.7649 6.91694 70.7682 6.92154 70.7743 6.93285Z" fill="#FBEDDE"/>
<path fill-rule="evenodd" clip-rule="evenodd" d="M34.188 25.3786C34.6742 25.3786 35.111 25.5919 35.4115 25.9307C36.4308 25.9337 37.416 25.9504 38.333 26.0123C39.9352 26.1205 41.5106 26.3736 42.8855 27.0322C44.3174 27.718 45.4622 28.8104 46.2168 30.4366C46.9465 32.0091 47.274 33.9983 47.274 36.4554C47.274 36.9603 47.2837 37.4993 47.2938 38.0565L47.2938 38.0572V38.0578C47.3152 39.2467 47.3381 40.5189 47.2715 41.7199C47.2186 42.6737 46.7836 43.4485 46.0584 43.9391C45.4555 44.3469 44.7707 44.4703 44.3557 44.532C44.0829 44.5725 43.906 44.5919 43.763 44.6076C43.5971 44.6257 43.4768 44.6389 43.305 44.6744L43.292 44.6771C42.6446 45.4075 41.747 45.7712 40.9912 45.9727C40.1301 46.2023 39.1712 46.2939 38.277 46.327C37.3717 46.3605 36.4596 46.3359 35.6749 46.3052C35.4298 46.2956 35.2029 46.2858 34.9935 46.2767C34.5004 46.2553 34.1036 46.238 33.7906 46.238C32.8843 46.238 32.1496 45.497 32.1496 44.583C32.1496 44.1703 32.2993 43.7929 32.547 43.503V29.1499C31.9096 28.9227 31.4529 28.3096 31.4529 27.589C31.4529 26.7215 32.1146 26.0099 32.9566 25.9396C33.2573 25.5956 33.6975 25.3786 34.188 25.3786ZM35.829 42.9986V29.2431C36.6426 29.2489 37.4002 29.267 38.1139 29.3151C39.5672 29.4132 40.6569 29.6292 41.4775 30.0223C42.241 30.388 42.8219 30.9297 43.2442 31.8398C43.6914 32.8035 43.992 34.2525 43.992 36.4554C43.992 37.0926 44.0033 37.6985 44.0142 38.287V38.2875L44.0143 38.2882C44.0331 39.2982 44.051 40.2571 44.0092 41.2354C43.9709 41.2424 43.9271 41.2497 43.8773 41.2571C43.8269 41.2646 43.7385 41.2754 43.6291 41.2887L43.6285 41.2887L43.628 41.2888C43.3455 41.3231 42.9231 41.3744 42.6473 41.4313C42.2194 41.5196 41.4008 41.7341 40.8439 42.4726L40.843 42.4733C40.8297 42.4861 40.6775 42.6325 40.1525 42.7724C39.6299 42.9118 38.9461 42.9898 38.1566 43.0191C37.3873 43.0475 36.5845 43.0279 35.829 42.9986ZM43.1924 44.7027C43.1809 44.7065 43.1762 44.709 43.1762 44.709L43.1775 44.7086L43.1807 44.7075C43.1835 44.7065 43.1875 44.705 43.1924 44.7027Z" fill="#FBEDDE"/>
<path fill-rule="evenodd" clip-rule="evenodd" d="M53.4058 40.826C53.3583 41.109 53.3333 41.3658 53.3333 41.5926C53.3333 42.5067 52.5986 43.2477 51.6922 43.2477C50.7859 43.2477 50.0512 42.5067 50.0512 41.5926C50.0512 40.1222 50.5776 38.4254 51.1239 36.9786C51.5473 35.8572 52.0459 34.7312 52.4515 33.8151L52.4518 33.8143L52.4523 33.8132C52.5814 33.5216 52.7011 33.2513 52.8059 33.0092C53.0376 32.474 53.2416 31.9152 53.4636 31.3034L53.4824 31.2516C53.6762 30.7173 53.8852 30.141 54.1238 29.5692C54.1298 29.5155 54.1365 29.4439 54.1442 29.351C54.1506 29.2735 54.1582 29.171 54.1666 29.0574L54.1666 29.0567C54.1818 28.8523 54.1997 28.6118 54.2179 28.4146C54.2453 28.119 54.2918 27.6778 54.3986 27.317C54.4286 27.2155 54.4761 27.0751 54.5516 26.925C54.618 26.7929 54.764 26.5347 55.042 26.3106C55.3705 26.0458 55.8668 25.8511 56.4357 25.9611C56.9213 26.0551 57.231 26.33 57.3736 26.4782C57.9395 27.0663 58.3782 27.8647 58.7222 28.6258C59.0792 29.4155 59.3949 30.3041 59.6691 31.1748C60.1095 32.5732 60.4739 34.0294 60.7343 35.0699C60.7964 35.318 60.8527 35.5429 60.9026 35.7373C61.1059 36.5298 61.3577 37.2922 61.6437 38.0412C61.909 38.3276 62.0747 38.7092 62.0849 39.1296C62.5096 40.124 62.9835 41.1086 63.4721 42.1239L63.4725 42.1248L63.5618 42.3103C63.9575 43.1327 63.6172 44.1228 62.8018 44.5219C61.9864 44.9209 61.0047 44.5777 60.609 43.7554L60.4761 43.4793C60.0672 42.6304 59.6423 41.7482 59.2379 40.826H53.4058ZM56.5876 32.3258C56.9733 33.5701 57.2902 34.8355 57.5409 35.8364L57.5411 35.8369C57.607 36.1002 57.6684 36.3451 57.7252 36.5666C57.8076 36.8877 57.8967 37.204 57.9916 37.5159H54.4409C54.7616 36.717 55.1034 35.9448 55.4187 35.2325L55.419 35.2318C55.557 34.9201 55.6899 34.6199 55.8137 34.334C56.0917 33.6919 56.3284 33.04 56.5458 32.4408L56.5876 32.3258ZM54.1095 29.6719C54.1095 29.6719 54.1107 29.6622 54.1141 29.6462C54.113 29.6536 54.112 29.6592 54.1113 29.6633C54.1102 29.6693 54.1095 29.6719 54.1095 29.6719Z" fill="#FBEDDE"/>
<path fill-rule="evenodd" clip-rule="evenodd" d="M68.1025 27.5854C68.2278 27.5854 68.3499 27.5996 68.4672 27.6264C68.5845 27.5996 68.7066 27.5854 68.8319 27.5854C72.2276 27.5854 75.2207 28.4128 77.3837 30.319C79.5831 32.2574 80.6838 35.0979 80.6838 38.5954C80.6838 39.8007 80.5981 40.8 80.2973 41.5815C80.1335 42.007 79.8964 42.3967 79.558 42.7224C79.2231 43.0449 78.8605 43.2355 78.5454 43.3599C78.1017 43.535 77.7706 43.6158 77.4782 43.6871C76.9279 43.8214 76.5143 43.9224 75.7441 44.5556C75.0507 45.1257 74.201 45.3903 73.5181 45.5486C73.0078 45.6668 72.4326 45.7565 71.9307 45.8348C71.7622 45.8611 71.602 45.8861 71.4553 45.9104C70.9557 45.9933 70.5566 46.0757 70.2386 46.1757C70.22 46.3628 70.1903 46.5608 70.1389 46.7376C70.1149 46.8203 70.0611 46.9902 69.9502 47.1761C69.8689 47.3124 69.5567 47.801 68.8907 47.9556C68.1123 48.1362 67.5602 47.7205 67.356 47.5203C67.1535 47.3217 67.0475 47.1166 67.0076 47.036L66.9978 47.0158C66.4829 46.5438 66.3095 45.777 66.6055 45.1135C66.5209 44.3413 66.4615 43.448 66.4615 42.7669V29.2405C66.4615 28.3264 67.1962 27.5854 68.1025 27.5854ZM70.9226 42.6441C70.5585 42.7045 70.1544 42.7776 69.7442 42.8804C69.7437 42.8418 69.7435 42.8039 69.7435 42.7669V30.92C72.1921 31.0544 74.0059 31.738 75.2241 32.8116C76.5524 33.9822 77.4017 35.8191 77.4017 38.5954C77.4017 39.5948 77.3271 40.0798 77.2647 40.301C77.2398 40.307 77.2105 40.3139 77.1771 40.3217C76.6533 40.4447 75.1088 40.8072 73.6703 41.99C73.5749 42.0684 73.3298 42.1958 72.7831 42.3225C72.3975 42.4118 72.0025 42.4735 71.5429 42.5452C71.349 42.5754 71.1436 42.6074 70.9226 42.6441Z" fill="#FBEDDE"/>
<path fill-rule="evenodd" clip-rule="evenodd" d="M89.3522 17.1612C88.6909 16.6403 87.827 16.3717 86.9246 16.6827C86.1699 16.9427 85.6876 17.5169 85.4149 17.9069C84.984 18.5231 84.6202 19.3985 84.4275 19.8622C84.3843 19.9662 84.3497 20.0495 84.3249 20.1045C83.6222 21.6613 83.3044 23.0466 83.4557 24.3194C83.6132 25.6453 84.2503 26.6147 84.9894 27.3637C85.5542 27.936 86.2593 28.4511 86.8642 28.893C86.9876 28.9831 87.1068 29.0702 87.2198 29.1541C87.9467 29.6939 88.5832 30.2113 89.1078 30.8571C89.7362 31.6305 90.4058 32.2373 90.9489 32.7291C91.5257 33.2514 91.9176 33.6097 92.2125 33.994C92.4745 34.3355 92.6302 34.6643 92.6901 35.0867C92.754 35.5371 92.7242 36.2069 92.4248 37.239C92.4147 37.2736 92.409 37.2791 92.3895 37.295C92.3531 37.3243 92.2494 37.3897 92.0264 37.4427C91.5578 37.554 90.8394 37.5452 89.9802 37.3709C89.1425 37.2009 88.3047 36.9007 87.6491 36.5583C87.0062 36.2224 86.7644 35.9648 86.7176 35.9149C86.7103 35.9071 86.7077 35.9044 86.7093 35.9074C86.2961 35.0938 85.3073 34.772 84.5006 35.1887C83.6939 35.6053 83.3749 36.6026 83.788 37.4162C84.2724 38.3703 85.2888 39.0531 86.1397 39.4976C87.0793 39.9884 88.2089 40.388 89.333 40.6161C90.4358 40.8398 91.674 40.9272 92.7789 40.6647C93.9212 40.3933 95.1389 39.6707 95.5747 38.1687C95.9599 36.841 96.0891 35.6756 95.939 34.6177C95.785 33.5317 95.3536 32.6791 94.8082 31.9683C94.3201 31.332 93.7201 30.7893 93.2162 30.3335L93.1415 30.2659C92.5893 29.766 92.096 29.3125 91.6465 28.7591C90.8508 27.7797 89.9389 27.0627 89.1656 26.4884C89.004 26.3684 88.8523 26.2572 88.7096 26.1524C88.1163 25.7171 87.6767 25.3945 87.3156 25.0285C86.9269 24.6347 86.7603 24.3117 86.7144 23.9256C86.6622 23.4865 86.7414 22.7402 87.312 21.4759C87.3755 21.3353 87.4417 21.1774 87.5017 21.0344L87.502 21.0336L87.5024 21.0326L87.5028 21.0317L87.5146 21.0034C87.5816 20.8438 87.6464 20.6898 87.7149 20.5366C87.78 20.3909 87.8419 20.2613 87.9006 20.148C88.2341 20.3375 88.5709 20.4841 88.852 20.6008C89.0536 20.6844 89.2292 20.754 89.3921 20.8185C89.6576 20.9237 89.8891 21.0155 90.1439 21.1327C90.5254 21.3083 90.7415 21.4503 90.859 21.5632C90.9385 21.6396 90.9415 21.6682 90.9441 21.6942L90.9446 21.6988C91.0471 22.607 91.8602 23.2595 92.7607 23.1561C93.6612 23.0527 94.3081 22.2327 94.2056 21.3245C93.99 19.4137 92.4328 18.5477 91.5066 18.1213C91.1797 17.9709 90.7943 17.8174 90.4749 17.6902C90.3337 17.634 90.2054 17.5829 90.1007 17.5395C89.6739 17.3624 89.4581 17.2447 89.3522 17.1612ZM88.1794 19.7111L88.1808 19.7098C88.1797 19.7108 88.1782 19.7119 88.1761 19.7141C88.1774 19.7129 88.1785 19.712 88.1794 19.7111Z" fill="#FBEDDE"/>
<path fill-rule="evenodd" clip-rule="evenodd" d="M13.3524 24.121C13.1552 24.2303 12.9561 24.3426 12.7559 24.4574C12.9406 24.7806 13.1296 25.0829 13.3201 25.3604C14.5078 27.0907 15.8614 28.6632 17.4215 30.0269C17.6146 30.1957 17.8147 30.3591 18.0219 30.5192C18.6126 29.7381 19.1153 28.9615 19.4695 28.2472C19.9423 27.2933 21.0923 26.9067 22.0381 27.3836C22.9838 27.8606 23.3671 29.0204 22.8943 29.9743C22.4594 30.8516 21.88 31.7637 21.2143 32.663C21.671 32.9616 22.1347 33.2748 22.5814 33.6025C22.756 33.7305 23.0042 33.8812 23.3584 34.0826C23.4445 34.1316 23.5389 34.1846 23.6385 34.2406C23.9087 34.3925 24.2175 34.5661 24.5056 34.7392C25.2359 35.178 26.3415 35.8947 26.9531 36.9912C27.4715 37.9207 27.1446 39.098 26.223 39.6208C25.3015 40.1437 24.1341 39.814 23.6158 38.8846C23.5547 38.7751 23.2899 38.504 22.5458 38.0569C22.308 37.914 22.0762 37.7837 21.8248 37.6424L21.8238 37.6419C21.7131 37.5796 21.5985 37.5152 21.4779 37.4466C21.1171 37.2415 20.6988 36.9967 20.3293 36.7257C19.8041 36.3405 19.2644 35.9869 18.6881 35.6166C17.7025 36.6285 16.6855 37.5346 15.7513 38.2413C12.9065 40.3932 9.78676 40.8636 6.58552 40.6937C3.75929 40.5437 1.64942 38.9578 0.646902 36.7422C-0.330829 34.5814 -0.202376 31.9578 1.04673 29.6902C2.30391 27.4078 4.1515 25.8848 5.7433 24.5726L5.89924 24.444C6.51104 23.9392 7.18023 23.4438 7.87217 22.9691C7.34663 21.5153 6.94564 19.958 6.74089 18.4058C6.29874 15.0536 6.7172 11.1751 9.50795 8.64192C11.6296 6.71607 14.4297 6.71897 16.4493 7.08932C18.4084 7.44856 19.3657 9.03766 19.8254 10.2032C20.2733 11.3387 20.4648 12.6021 20.5805 13.3655L20.5974 13.4769C20.8943 15.4231 20.4382 17.5257 19.4625 19.1002C18.9561 19.9174 18.18 20.4292 17.7426 20.7141C17.626 20.79 17.5242 20.8557 17.4347 20.9135C17.0773 21.1441 16.9158 21.2483 16.7921 21.3731C15.9105 22.2622 14.6423 23.4055 13.3524 24.121ZM12.0695 11.5124C12.8696 10.7861 14.1678 10.5961 15.7644 10.8889L15.765 10.889C15.7921 10.894 15.8276 10.9005 15.9038 10.9826C16.0017 11.0882 16.1328 11.2892 16.2676 11.6307C16.5478 12.3413 16.684 13.2194 16.8129 14.0641C16.9685 15.0841 16.7111 16.2507 16.2185 17.0486C16.2143 17.0538 16.1871 17.0876 16.1136 17.1499C16.0126 17.2355 15.8742 17.3339 15.6653 17.4699C15.6192 17.4999 15.5646 17.5345 15.5033 17.5734C15.1387 17.8045 14.5373 18.1857 14.0845 18.6423C13.28 19.4538 12.3169 20.2879 11.5071 20.7371C11.4109 20.7905 11.314 20.8446 11.2164 20.8996C10.9082 19.9262 10.6699 18.9078 10.5365 17.8965C10.1592 15.0358 10.6736 12.7794 12.0695 11.5124ZM8.32395 27.4329C8.69365 27.1279 9.09456 26.8221 9.51587 26.5198C9.72941 26.8863 9.94878 27.2336 10.1719 27.5586C11.5168 29.5179 13.0794 31.3419 14.9137 32.9453C15.0948 33.1035 15.2784 33.2563 15.4635 33.4043C14.7863 34.0647 14.0994 34.6635 13.4539 35.1518C11.5788 36.5701 9.46631 36.9794 6.78677 36.8372C5.39127 36.7631 4.54296 36.0507 4.13036 35.1389C3.69298 34.1722 3.69248 32.8391 4.39393 31.5656C5.2791 29.9587 6.60393 28.8523 8.32395 27.4329Z" fill="#FBEDDE"/>
</svg>
