<svg width="84" height="30" viewBox="0 0 84 30" fill="none" xmlns="http://www.w3.org/2000/svg">
<path d="M7.74273 9.31868C7.78878 8.92475 7.83468 8.53221 7.88147 8.14988C8.01579 8.48731 8.15996 8.80928 8.31347 9.08846C8.54611 9.51154 8.66231 9.82358 8.71988 10.0297C8.70331 10.0809 8.68792 10.1331 8.67398 10.1862C8.63206 10.3458 8.58359 10.5863 8.59218 10.8693C8.59645 11.0099 8.61652 11.2305 8.70297 11.4822C8.7845 11.7197 8.98164 12.1447 9.44266 12.465C9.68169 12.631 9.96182 12.7459 10.2652 12.7905C10.5637 12.8343 10.8348 12.803 11.0578 12.7418C11.4793 12.626 11.7577 12.3979 11.898 12.2638C12.181 11.9934 12.3251 11.6986 12.3922 11.5418C12.4731 11.3528 12.5249 11.1656 12.5583 10.9948L12.5621 10.9752C12.675 10.8289 12.838 10.6389 13.068 10.4065C13.863 9.60317 14.6091 8.72684 15.3029 7.91184L15.3329 7.87658C15.4914 7.69041 15.6473 7.50729 15.8017 7.32738C15.9124 7.95762 15.9772 8.53967 15.9882 8.83036C16.0885 11.4653 16.4697 13.9778 16.8312 16.3613L16.8334 16.3759C16.8622 16.5661 16.891 16.7555 16.9194 16.9441C17.3104 19.5361 17.6531 21.9977 17.6531 24.562C17.6531 25.6329 18.5138 26.501 19.5756 26.501C20.6374 26.501 21.4982 25.6329 21.4982 24.562C21.4982 21.6725 21.1113 18.9493 20.7208 16.3608C20.6932 16.1775 20.6655 15.9948 20.638 15.8129C20.2711 13.3906 19.9221 11.0867 19.8306 8.68158C19.801 7.90505 19.5911 6.3268 19.2284 5.04396C19.0631 4.45962 18.7883 3.63756 18.3073 3.03109C18.0644 2.7249 17.5479 2.19269 16.7131 2.07743C15.7851 1.94928 15.0871 2.40944 14.6974 2.80325C13.8856 3.62338 13.1296 4.51152 12.4303 5.33286L12.4155 5.35024C12.0618 5.76571 11.7225 6.16413 11.3874 6.54414C11.2858 6.27489 11.1724 5.94633 11.0474 5.5605C10.9538 5.27171 10.8446 4.92096 10.732 4.55931C10.5812 4.07478 10.4243 3.57057 10.2906 3.16981C10.1625 2.78536 10.0248 2.39778 9.88003 2.05125C9.74731 1.73362 9.55847 1.3257 9.29932 0.97806C9.17082 0.805676 8.94577 0.538615 8.60389 0.326336C8.22565 0.091486 7.64428 -0.105131 6.97188 0.0627797C6.35148 0.217707 5.96428 0.608169 5.76216 0.868964C5.55616 1.13478 5.42535 1.41397 5.33969 1.63034C4.71687 3.20351 4.38982 5.1798 4.15452 6.96951C4.05893 7.69663 3.97883 8.3859 3.9031 9.03759C3.77941 10.1021 3.66736 11.0663 3.51843 11.9315C3.25915 13.4378 2.87096 14.8242 2.45649 16.3044C2.31663 16.8039 2.17377 17.3141 2.03187 17.8432C1.48547 19.8804 0.990753 22.0863 0.990753 24.562C0.990753 25.6329 1.85152 26.501 2.91333 26.501C3.97513 26.501 4.8359 25.6329 4.8359 24.562C4.8359 22.6051 5.22384 20.7938 5.74362 18.8558C5.8611 18.4178 5.98776 17.9659 6.11782 17.5018L6.11861 17.499L6.11923 17.4968C6.54645 15.9728 7.01032 14.3179 7.30691 12.5949C7.47144 11.6391 7.60778 10.4729 7.74273 9.31868Z" fill="#FBEDDE"/>
<path fill-rule="evenodd" clip-rule="evenodd" d="M29.421 5.37384C28.4701 4.89725 27.3162 5.28833 26.8437 6.24735C26.3712 7.20636 26.7589 8.37015 27.7098 8.84674C27.8571 8.92058 28.0052 8.99091 28.1535 9.05807C28.0407 9.2677 27.923 9.48094 27.8024 9.69432C27.4108 10.387 27.004 11.0529 26.6534 11.5745C26.4775 11.8362 26.327 12.0448 26.2082 12.1953C26.1357 12.2872 26.0931 12.3341 26.0783 12.3505L26.0745 12.3548C24.7211 13.4568 24.2433 14.834 24.1095 16.1245C24.0464 16.7339 24.0576 17.3352 24.0764 17.8528C24.0824 18.0182 24.089 18.1723 24.0953 18.3197C24.1103 18.6707 24.1237 18.9834 24.1237 19.3158C24.1237 20.9235 24.8855 22.2353 25.8542 23.1871C26.8118 24.1279 28.0477 24.8038 29.2896 25.2357C30.5383 25.6699 31.9016 25.8955 33.1859 25.8483C34.4379 25.8023 35.8203 25.4869 36.8995 24.6215C37.3876 24.23 37.7327 23.6984 37.97 23.2683C38.2279 22.8007 38.46 22.2628 38.6655 21.7038C39.0774 20.5832 39.4334 19.2386 39.6846 17.8965C39.935 16.5587 40.0951 15.1504 40.0824 13.9079C40.076 13.2872 40.0263 12.6589 39.9019 12.0779C39.783 11.5226 39.5639 10.855 39.1133 10.2903C37.615 8.41288 35.6828 7.53603 33.957 6.94343C33.6307 6.83137 33.286 6.72159 32.944 6.61572C32.7473 5.86399 32.1102 5.2748 31.2981 5.18324C30.7728 5.12401 30.2732 5.28421 29.8894 5.59138C29.7286 5.52199 29.5726 5.44981 29.421 5.37384ZM31.1427 11.6153C31.3837 11.189 31.6199 10.7528 31.8375 10.3295C32.1299 10.4198 32.4183 10.5118 32.7178 10.6146C34.1729 11.1143 35.2677 11.6805 36.0817 12.6772C36.0927 12.705 36.117 12.7729 36.1434 12.8965C36.1957 13.1408 36.2328 13.491 36.2375 13.9479C36.2468 14.8603 36.126 16.0027 35.9062 17.177C35.6872 18.347 35.3835 19.4758 35.0601 20.3557C34.8979 20.7968 34.7434 21.1409 34.6099 21.3828C34.5345 21.5196 34.4837 21.5907 34.4635 21.618C34.2451 21.7707 33.7915 21.9454 33.0459 21.9728C32.2801 22.0009 31.3889 21.8635 30.5429 21.5694C29.6901 21.2728 28.991 20.8548 28.5372 20.4091C28.0947 19.9743 27.9688 19.607 27.9688 19.3158C27.9688 18.8934 27.95 18.454 27.9338 18.0744C27.9283 17.9451 27.923 17.8228 27.919 17.7105C27.9013 17.2262 27.9002 16.8517 27.9338 16.5278C27.9924 15.9625 28.1375 15.6548 28.5024 15.3621C28.7897 15.1317 29.0393 14.8352 29.2168 14.6103C29.4169 14.3567 29.6272 14.0616 29.8361 13.7507C30.2553 13.1272 30.7145 12.3726 31.1427 11.6153Z" fill="#FBEDDE"/>
<path fill-rule="evenodd" clip-rule="evenodd" d="M48.4109 16.1408L48.2565 16.6214C46.9888 20.5655 45.8508 24.1773 45.8508 27.794C45.8508 28.865 44.99 29.7331 43.9282 29.7331C42.8664 29.7331 42.0057 28.865 42.0057 27.794C42.0057 23.4927 43.346 19.3229 44.57 15.5149L44.5987 15.4255C45.869 11.4733 47.0043 7.90392 47.0043 4.36392C47.0043 4.20451 47.0061 4.05864 47.0113 3.93754C47.0139 3.87957 47.0182 3.79991 47.0276 3.71507C47.0322 3.6733 47.0406 3.60583 47.0561 3.52619C47.0661 3.47498 47.1029 3.28619 47.2027 3.06905C47.2501 2.96575 47.371 2.72193 47.6149 2.4846C47.8878 2.21916 48.4115 1.88257 49.126 1.94793C49.7689 2.00674 50.1713 2.36047 50.3341 2.52946C50.5095 2.71157 50.6092 2.8871 50.6532 2.97006C50.795 3.23726 50.8455 3.49518 50.8477 3.50612C50.8774 3.64036 50.8975 3.78539 50.9101 3.88128C50.9652 4.30195 51.0392 5.0999 51.1203 5.97424C51.2295 7.15346 51.3554 8.50976 51.4828 9.6162C51.7157 8.96664 51.932 8.31579 52.1239 7.64122C52.2599 7.16285 52.4145 6.71704 52.6034 6.34082C52.7511 6.0468 53.0965 5.42062 53.7952 5.07809C54.2107 4.87436 54.7007 4.79807 55.1978 4.90831C55.6582 5.0104 55.9917 5.24237 56.2007 5.42824C56.5838 5.76901 56.8093 6.19002 56.9264 6.42777C57.1828 6.94868 57.3967 7.62198 57.5552 8.12226L57.5976 8.25618C57.7612 8.77346 57.8876 9.17273 58.0106 9.46634C59.1635 12.2165 59.6659 15.176 60.1213 17.8585C60.1508 18.032 60.18 18.2043 60.2093 18.3754C60.7068 21.2873 61.1974 23.8549 62.3087 26.0872C62.7851 27.0443 62.4021 28.2097 61.4532 28.6902C60.5043 29.1707 59.3488 28.7844 58.8724 27.8273C57.4688 25.0077 56.9074 21.8871 56.42 19.0339L56.3528 18.64C55.9315 16.1677 55.5432 13.8893 54.785 11.7883C54.6607 12.119 54.5361 12.4435 54.4131 12.7627L54.321 13.0013C53.8648 14.1839 53.438 15.2904 53.078 16.4654C52.9478 16.8906 52.7623 17.4168 52.4633 17.8344C52.3256 18.0266 51.9696 18.4772 51.3283 18.6766C50.5025 18.9333 49.7855 18.6172 49.3681 18.2485C49.0288 17.9488 48.8541 17.6021 48.7757 17.4309C48.6823 17.2266 48.6168 17.0233 48.5698 16.8548C48.5068 16.6292 48.4548 16.3847 48.4109 16.1408ZM53.467 8.12231C53.4639 8.11747 53.4614 8.11343 53.4597 8.11036C53.4572 8.10607 53.456 8.10368 53.456 8.10368C53.456 8.10368 53.4599 8.10906 53.467 8.12231Z" fill="#FBEDDE"/>
<path fill-rule="evenodd" clip-rule="evenodd" d="M75.2323 2.27481C74.4576 1.66455 73.4454 1.34991 72.3882 1.7142C71.504 2.01887 70.939 2.69153 70.6195 3.14848C70.1147 3.87034 69.6885 4.896 69.4627 5.43927C69.4121 5.56106 69.3716 5.65861 69.3425 5.72306C68.5192 7.54701 68.1469 9.16995 68.3241 10.6612C68.5087 12.2146 69.255 13.3503 70.121 14.2278C70.7827 14.8982 71.6087 15.5017 72.3175 16.0195C72.462 16.125 72.6016 16.2271 72.734 16.3254C73.5857 16.9577 74.3313 17.564 74.946 18.3206C75.6822 19.2266 76.4667 19.9375 77.103 20.5137C78.3654 20.5137 78.2379 21.5453 78.5834 21.9956C78.8903 22.3957 79.0727 22.7809 79.1429 23.2757C79.2178 23.8034 79.1829 24.5882 78.832 25.7974C78.8202 25.8379 78.8136 25.8444 78.7907 25.8629C78.7481 25.8973 78.6266 25.9739 78.3654 26.036C77.8163 26.1664 76.9747 26.1561 75.9681 25.9519C74.9866 25.7528 74.0051 25.401 73.2371 24.9998C72.4838 24.6064 72.2006 24.3045 72.1458 24.2461C72.1371 24.2369 72.1341 24.2338 72.1359 24.2372C71.6519 23.2841 70.4934 22.9071 69.5483 23.3952C68.6033 23.8834 68.2295 25.0518 68.7135 26.005C69.281 27.1227 70.4717 27.9227 71.4686 28.4435C72.5694 29.0185 73.8928 29.4867 75.2099 29.7538C76.5018 30.0159 77.9524 30.1183 79.2469 29.8108C80.5852 29.4929 82.0118 28.6462 82.5224 26.8866C82.9737 25.3311 83.1251 23.9658 82.9493 22.7263C82.7687 21.454 82.2633 20.4551 81.6244 19.6223C81.0525 18.8769 80.3496 18.2411 79.7592 17.7071L79.6717 17.6279C79.0248 17.0422 78.4469 16.5109 77.9202 15.8626C76.988 14.7152 75.9197 13.8751 75.0137 13.2023C74.8244 13.0617 74.6467 12.9314 74.4795 12.8086C73.7844 12.2986 73.2694 11.9207 72.8463 11.492C72.3909 11.0305 72.1957 10.6521 72.1419 10.1998C72.0808 9.68536 72.1735 8.81106 72.8421 7.32981C72.9165 7.16504 72.994 6.98003 73.0643 6.81249L73.0651 6.81044L73.0795 6.77622C73.1579 6.58922 73.2338 6.40882 73.3141 6.22935C73.3904 6.05869 73.4628 5.9068 73.5317 5.77406C73.9224 5.99606 74.317 6.16785 74.6463 6.30451C74.8825 6.4025 75.0883 6.48403 75.279 6.55962C75.5901 6.68288 75.8614 6.79036 76.1598 6.92774C76.6068 7.13347 76.86 7.29986 76.9976 7.43203C77.0908 7.52153 77.0942 7.55512 77.0974 7.58554L77.0979 7.5909C77.218 8.65495 78.1706 9.41936 79.2256 9.29826C80.2806 9.17717 81.0385 8.21643 80.9184 7.15239C80.6658 4.91382 78.8415 3.89919 77.7563 3.39968C77.3733 3.2234 76.9219 3.04365 76.5476 2.89463C76.3822 2.82878 76.2319 2.76892 76.1092 2.71802C75.6092 2.51058 75.3564 2.37261 75.2323 2.27481ZM73.8583 5.26221L73.8599 5.26066C73.8599 5.26066 73.8569 5.26317 73.8545 5.26567L73.8583 5.26221Z" fill="#FBEDDE"/>
</svg>
