<svg width="97" height="48" viewBox="0 0 97 48" fill="none" xmlns="http://www.w3.org/2000/svg">
<path d="M31.7667 7.95402C31.806 7.61778 31.8452 7.28272 31.8851 6.95638C31.9998 7.24439 32.1228 7.51921 32.2539 7.75751C32.4524 8.11863 32.5516 8.38497 32.6008 8.5609C32.5866 8.60463 32.5735 8.64918 32.5616 8.69447C32.5258 8.83069 32.4844 9.03599 32.4918 9.27757C32.4954 9.39757 32.5125 9.58582 32.5863 9.80072C32.6559 10.0034 32.8242 10.3662 33.2177 10.6396C33.4217 10.7813 33.6608 10.8794 33.9198 10.9174C34.1746 10.9548 34.406 10.9281 34.5963 10.8758C34.9561 10.777 35.1937 10.5823 35.3135 10.4678C35.5551 10.237 35.678 9.98545 35.7353 9.85159C35.8043 9.69022 35.8485 9.53047 35.8771 9.38469L35.8803 9.36793C35.9766 9.24306 36.1158 9.08087 36.3121 8.88249C36.9907 8.19685 37.6275 7.44885 38.2197 6.7532L38.2453 6.72311C38.3806 6.5642 38.5137 6.4079 38.6455 6.25433C38.74 6.79228 38.7953 7.28909 38.8047 7.53721C38.8903 9.78623 39.2156 11.9308 39.5242 13.9653L39.5261 13.9778C39.5507 14.1401 39.5752 14.3018 39.5995 14.4627C39.9332 16.6751 40.2257 18.7762 40.2257 20.965C40.2257 21.8791 40.9604 22.6201 41.8668 22.6201C42.7731 22.6201 43.5078 21.8791 43.5078 20.965C43.5078 18.4987 43.1775 16.1743 42.8442 13.9649C42.8206 13.8084 42.797 13.6525 42.7735 13.4972C42.4604 11.4296 42.1625 9.46314 42.0844 7.41021C42.0591 6.74741 41.8799 5.40028 41.5703 4.3053C41.4293 3.80653 41.1948 3.10486 40.7841 2.5872C40.5768 2.32585 40.136 1.87158 39.4235 1.7732C38.6313 1.66382 38.0356 2.05659 37.7029 2.39273C37.01 3.09276 36.3647 3.85084 35.7679 4.55189L35.7552 4.56673C35.4533 4.92136 35.1636 5.26143 34.8776 5.58579C34.7909 5.35597 34.6941 5.07553 34.5874 4.7462C34.5075 4.4997 34.4143 4.20031 34.3182 3.89163C34.1895 3.47805 34.0556 3.04768 33.9415 2.70561C33.8321 2.37747 33.7146 2.04664 33.591 1.75086C33.4777 1.47974 33.3165 1.13156 33.0954 0.83483C32.9857 0.68769 32.7936 0.459739 32.5018 0.278546C32.1789 0.0780885 31.6827 -0.0897355 31.1087 0.053586C30.5792 0.185825 30.2487 0.519106 30.0762 0.741709C29.9003 0.968595 29.7887 1.2069 29.7156 1.39159C29.184 2.73437 28.9048 4.42125 28.704 5.94886C28.6224 6.5695 28.554 7.15783 28.4894 7.71409C28.3838 8.6227 28.2882 9.44573 28.161 10.1842C27.9397 11.4699 27.6084 12.6533 27.2546 13.9167C27.1352 14.3431 27.0133 14.7785 26.8922 15.2301C26.4258 16.969 26.0035 18.8519 26.0035 20.965C26.0035 21.8791 26.7382 22.6201 27.6445 22.6201C28.5509 22.6201 29.2856 21.8791 29.2856 20.965C29.2856 19.2947 29.6167 17.7486 30.0604 16.0945C30.1606 15.7206 30.2687 15.3349 30.3798 14.9388L30.38 14.9378L30.3804 14.9364L30.381 14.9345C30.7456 13.6336 31.1416 12.2212 31.3947 10.7504C31.5351 9.93459 31.6515 8.93923 31.7667 7.95402Z" fill="#FBEDDE"/>
<path fill-rule="evenodd" clip-rule="evenodd" d="M50.2703 4.58688C49.4587 4.18008 48.4738 4.51389 48.0705 5.33246C47.6671 6.15104 47.9981 7.14439 48.8097 7.55119C48.9355 7.61422 49.0618 7.67424 49.1885 7.73157C49.0922 7.9105 48.9917 8.09251 48.8888 8.27464C48.5545 8.86591 48.2073 9.43431 47.9081 9.8795C47.7579 10.1029 47.6294 10.2809 47.528 10.4094C47.4661 10.4878 47.4298 10.5279 47.4171 10.5419L47.4139 10.5455C46.2587 11.4862 45.8509 12.6617 45.7367 13.7631C45.6828 14.2833 45.6923 14.7965 45.7084 15.2383C45.7136 15.3795 45.7192 15.5111 45.7246 15.6369C45.7374 15.9365 45.7488 16.2034 45.7488 16.4871C45.7488 17.8594 46.399 18.9791 47.2259 19.7915C48.0433 20.5945 49.0981 21.1714 50.1581 21.5401C51.224 21.9107 52.3876 22.1033 53.4839 22.063C54.5525 22.0237 55.7325 21.7545 56.6536 21.0158C57.0703 20.6817 57.3649 20.2279 57.5674 19.8608C57.7875 19.4617 57.9856 19.0026 58.161 18.5254C58.5126 17.5689 58.8164 16.4212 59.0309 15.2757C59.2446 14.1338 59.3813 12.9317 59.3704 11.8711C59.365 11.3414 59.3226 10.8051 59.2164 10.3092C59.1149 9.83517 58.9279 9.26533 58.5433 8.78337C57.2644 7.18086 55.6151 6.43243 54.1421 5.92661C53.8636 5.83096 53.5694 5.73726 53.2775 5.64689C53.1095 5.00524 52.5657 4.50234 51.8726 4.42419C51.4241 4.37363 50.9977 4.51037 50.6702 4.77256C50.5329 4.71333 50.3997 4.65172 50.2703 4.58688ZM51.7399 9.91427C51.9456 9.55041 52.1472 9.17812 52.333 8.81679C52.5825 8.89387 52.8287 8.97239 53.0843 9.06015C54.3263 9.48664 55.2608 9.96996 55.9557 10.8207C55.965 10.8444 55.9857 10.9024 56.0083 11.0078C56.0529 11.2164 56.0846 11.5153 56.0886 11.9053C56.0965 12.6841 55.9934 13.6592 55.8058 14.6615C55.6189 15.6602 55.3597 16.6237 55.0836 17.3747C54.9452 17.7513 54.8133 18.0449 54.6994 18.2514C54.635 18.3682 54.5917 18.4288 54.5744 18.4522C54.388 18.5825 54.0008 18.7316 53.3644 18.755C52.7107 18.779 51.95 18.6618 51.228 18.4107C50.5 18.1575 49.9033 17.8008 49.516 17.4203C49.1383 17.0492 49.0308 16.7357 49.0308 16.4871C49.0308 16.1266 49.0148 15.7515 49.0009 15.4275C48.9962 15.3172 48.9917 15.2128 48.9883 15.1169C48.9732 14.7035 48.9723 14.3839 49.0009 14.1074C49.051 13.6249 49.1748 13.3622 49.4862 13.1124C49.7315 12.9157 49.9446 12.6627 50.096 12.4707C50.2668 12.2543 50.4463 12.0023 50.6247 11.737C50.9824 11.2048 51.3744 10.5607 51.7399 9.91427Z" fill="#FBEDDE"/>
<path fill-rule="evenodd" clip-rule="evenodd" d="M66.4793 13.7771L66.3475 14.1873C65.2654 17.5538 64.2941 20.6367 64.2941 23.7238C64.2941 24.6379 63.5594 25.3789 62.6531 25.3789C61.7468 25.3789 61.012 24.6379 61.012 23.7238C61.012 20.0523 62.1561 16.4932 63.2008 13.2428L63.2253 13.1666C64.3096 9.79313 65.2787 6.74644 65.2787 3.72485C65.2787 3.58878 65.2802 3.46428 65.2847 3.36091C65.2868 3.31143 65.2906 3.24343 65.2985 3.17102C65.3025 3.13537 65.3096 3.07778 65.3229 3.0098L65.3231 3.009C65.3316 2.96528 65.3629 2.80494 65.448 2.6196C65.4885 2.53143 65.5917 2.32332 65.7999 2.12075C66.0328 1.89417 66.4798 1.60688 67.0897 1.66267C67.6384 1.71286 67.9819 2.0148 68.1208 2.15904C68.2706 2.31448 68.3557 2.4643 68.3932 2.53511C68.5143 2.76318 68.5574 2.98333 68.5592 2.99267C68.5846 3.10725 68.6017 3.23104 68.6125 3.31289C68.6596 3.67195 68.7227 4.35305 68.7919 5.09935C68.8851 6.10588 68.9925 7.26356 69.1013 8.20797C69.3001 7.65353 69.4847 7.098 69.6485 6.52221C69.7647 6.1139 69.8966 5.73337 70.0578 5.41224C70.1839 5.16128 70.4787 4.62681 71.075 4.33444C71.4298 4.16054 71.848 4.09542 72.2723 4.18952C72.6652 4.27666 72.9499 4.47466 73.1283 4.6333C73.4553 4.92417 73.6478 5.28353 73.7477 5.48646C73.9666 5.93108 74.1492 6.50579 74.2844 6.9328L74.3206 7.04711C74.4603 7.48864 74.5681 7.82944 74.6732 8.08005C75.6572 10.4275 76.0861 12.9536 76.4748 15.2433C76.4999 15.3913 76.5249 15.5384 76.5498 15.6844C76.9745 18.1699 77.3933 20.3615 78.3418 22.2669C78.7485 23.0838 78.4216 24.0785 77.6116 24.4887C76.8016 24.8988 75.8154 24.5691 75.4087 23.7522C74.2107 21.3455 73.7315 18.6819 73.3155 16.2465L73.2581 15.9103C72.8985 13.8001 72.5671 11.8553 71.9199 10.062C71.8138 10.3442 71.7074 10.6213 71.6025 10.8937L71.5239 11.0973C71.1345 12.1067 70.7702 13.0512 70.4629 14.0542C70.3518 14.4171 70.1934 14.8662 69.9382 15.2226C69.8207 15.3867 69.5169 15.7714 68.9695 15.9415C68.2646 16.1606 67.6526 15.8908 67.2963 15.5761C67.0067 15.3203 66.8576 15.0244 66.7907 14.8782C66.7109 14.7039 66.655 14.5303 66.6149 14.3865C66.5612 14.194 66.5168 13.9853 66.4793 13.7771ZM70.7949 6.93285C70.7923 6.92872 70.7902 6.92527 70.7887 6.92264C70.7866 6.91898 70.7856 6.91694 70.7856 6.91694C70.7856 6.91694 70.7888 6.92154 70.7949 6.93285Z" fill="#FBEDDE"/>
<path fill-rule="evenodd" clip-rule="evenodd" d="M34.2086 25.3786C34.6949 25.3786 35.1317 25.5919 35.4322 25.9307C36.4515 25.9337 37.4366 25.9504 38.3537 26.0123C39.9559 26.1205 41.5313 26.3736 42.9061 27.0322C44.338 27.718 45.4829 28.8104 46.2375 30.4366C46.9672 32.0091 47.2947 33.9983 47.2947 36.4554C47.2947 36.9603 47.3044 37.4993 47.3144 38.0565L47.3144 38.0572V38.0578C47.3358 39.2467 47.3587 40.5189 47.2921 41.7199C47.2392 42.6737 46.8043 43.4485 46.0791 43.9391C45.4762 44.3469 44.7914 44.4703 44.3763 44.532C44.1035 44.5725 43.9267 44.5919 43.7837 44.6076C43.6178 44.6257 43.4974 44.6389 43.3257 44.6744L43.3127 44.6771C42.6653 45.4075 41.7676 45.7712 41.0118 45.9727C40.1508 46.2023 39.1919 46.2939 38.2977 46.327C37.3924 46.3605 36.4802 46.3359 35.6955 46.3052C35.4504 46.2956 35.2236 46.2858 35.0142 46.2767C34.5211 46.2553 34.1242 46.238 33.8112 46.238C32.9049 46.238 32.1702 45.497 32.1702 44.583C32.1702 44.1703 32.32 43.7929 32.5676 43.503V29.1499C31.9302 28.9227 31.4736 28.3096 31.4736 27.589C31.4736 26.7215 32.1352 26.0099 32.9773 25.9396C33.278 25.5956 33.7182 25.3786 34.2086 25.3786ZM35.8497 42.9986V29.2431C36.6632 29.2489 37.4209 29.267 38.1345 29.3151C39.5879 29.4132 40.6776 29.6292 41.4981 30.0223C42.2617 30.388 42.8426 30.9297 43.2649 31.8398C43.7121 32.8035 44.0126 34.2525 44.0126 36.4554C44.0126 37.0926 44.0239 37.6985 44.0349 38.287V38.2875L44.0349 38.2882C44.0537 39.2982 44.0716 40.2571 44.0299 41.2354C43.9916 41.2424 43.9478 41.2497 43.898 41.2571C43.8475 41.2646 43.7592 41.2754 43.6498 41.2887L43.6492 41.2887L43.6486 41.2888C43.3661 41.3231 42.9437 41.3744 42.668 41.4313C42.24 41.5196 41.4215 41.7341 40.8645 42.4726L40.8637 42.4733C40.8503 42.4861 40.6982 42.6325 40.1731 42.7724C39.6505 42.9118 38.9667 42.9898 38.1773 43.0191C37.408 43.0475 36.6052 43.0279 35.8497 42.9986ZM43.2131 44.7027C43.2015 44.7065 43.1969 44.709 43.1969 44.709L43.1982 44.7086L43.2013 44.7075C43.2041 44.7065 43.2081 44.705 43.2131 44.7027Z" fill="#FBEDDE"/>
<path fill-rule="evenodd" clip-rule="evenodd" d="M53.4265 40.826C53.3789 41.109 53.3539 41.3658 53.3539 41.5926C53.3539 42.5067 52.6192 43.2477 51.7129 43.2477C50.8066 43.2477 50.0719 42.5067 50.0719 41.5926C50.0719 40.1222 50.5983 38.4254 51.1446 36.9786C51.568 35.8572 52.0665 34.7312 52.4721 33.8151L52.4725 33.8143L52.473 33.8132C52.6021 33.5216 52.7218 33.2513 52.8266 33.0092C53.0583 32.474 53.2623 31.9152 53.4843 31.3034L53.5031 31.2516C53.6968 30.7173 53.9059 30.141 54.1445 29.5692C54.1504 29.5155 54.1572 29.4439 54.1648 29.351C54.1712 29.2735 54.1788 29.171 54.1872 29.0574L54.1873 29.0567C54.2025 28.8523 54.2203 28.6118 54.2386 28.4146C54.2659 28.119 54.3124 27.6778 54.4192 27.317C54.4492 27.2155 54.4968 27.0751 54.5723 26.925C54.6387 26.7929 54.7847 26.5347 55.0627 26.3106C55.3911 26.0458 55.8874 25.8511 56.4564 25.9611C56.942 26.0551 57.2517 26.33 57.3943 26.4782C57.9602 27.0663 58.3988 27.8647 58.7429 28.6258C59.0999 29.4155 59.4155 30.3041 59.6897 31.1748C60.1301 32.5732 60.4946 34.0294 60.755 35.0699C60.8171 35.318 60.8734 35.5429 60.9233 35.7373C61.1266 36.5298 61.3784 37.2922 61.6643 38.0412C61.9297 38.3276 62.0954 38.7092 62.1056 39.1296C62.5302 40.124 63.0041 41.1086 63.4928 42.1239L63.4932 42.1248L63.5825 42.3103C63.9781 43.1327 63.6379 44.1228 62.8225 44.5219C62.0071 44.9209 61.0253 44.5777 60.6297 43.7554L60.4967 43.4793C60.0878 42.6304 59.663 41.7482 59.2586 40.826H53.4265ZM56.6082 32.3258C56.9939 33.5701 57.3109 34.8355 57.5616 35.8364L57.5617 35.8369C57.6277 36.1002 57.689 36.3451 57.7459 36.5666C57.8283 36.8877 57.9174 37.204 58.0122 37.5159H54.4616C54.7823 36.717 55.1241 35.9448 55.4394 35.2325L55.4397 35.2318C55.5776 34.9201 55.7105 34.6199 55.8343 34.334C56.1123 33.6919 56.3491 33.04 56.5665 32.4408L56.6082 32.3258ZM54.1302 29.6719C54.1302 29.6719 54.1314 29.6622 54.1348 29.6462C54.1337 29.6536 54.1327 29.6592 54.1319 29.6633C54.1308 29.6693 54.1302 29.6719 54.1302 29.6719Z" fill="#FBEDDE"/>
<path fill-rule="evenodd" clip-rule="evenodd" d="M68.1232 27.5854C68.2485 27.5854 68.3706 27.5996 68.4879 27.6264C68.6052 27.5996 68.7272 27.5854 68.8526 27.5854C72.2483 27.5854 75.2414 28.4128 77.4043 30.319C79.6038 32.2574 80.7044 35.0979 80.7044 38.5954C80.7044 39.8007 80.6187 40.8 80.3179 41.5815C80.1542 42.007 79.9171 42.3967 79.5787 42.7224C79.2437 43.0449 78.8811 43.2355 78.566 43.3599C78.1223 43.535 77.7913 43.6158 77.4988 43.6871C76.9486 43.8214 76.5349 43.9224 75.7648 44.5556C75.0714 45.1257 74.2217 45.3903 73.5387 45.5486C73.0285 45.6668 72.4532 45.7565 71.9514 45.8348C71.7829 45.8611 71.6227 45.8861 71.476 45.9104C70.9764 45.9933 70.5772 46.0757 70.2593 46.1757C70.2407 46.3628 70.2109 46.5608 70.1596 46.7376C70.1356 46.8203 70.0817 46.9902 69.9709 47.1761C69.8896 47.3124 69.5774 47.801 68.9113 47.9556C68.133 48.1362 67.5809 47.7205 67.3767 47.5203C67.1741 47.3217 67.0681 47.1166 67.0283 47.036L67.0185 47.0158C66.5035 46.5438 66.3302 45.777 66.6261 45.1135C66.5415 44.3413 66.4821 43.448 66.4821 42.7669V29.2405C66.4821 28.3264 67.2168 27.5854 68.1232 27.5854ZM70.9432 42.6441C70.5791 42.7045 70.175 42.7776 69.7649 42.8804C69.7644 42.8418 69.7642 42.8039 69.7642 42.7669V30.92C72.2128 31.0544 74.0266 31.738 75.2447 32.8116C76.573 33.9822 77.4224 35.8191 77.4224 38.5954C77.4224 39.5948 77.3477 40.0798 77.2853 40.301C77.2605 40.307 77.2312 40.3139 77.1977 40.3217C76.6739 40.4447 75.1295 40.8072 73.691 41.99C73.5956 42.0684 73.3505 42.1958 72.8037 42.3225C72.4182 42.4118 72.0232 42.4735 71.5635 42.5452C71.3696 42.5754 71.1643 42.6074 70.9432 42.6441Z" fill="#FBEDDE"/>
<path fill-rule="evenodd" clip-rule="evenodd" d="M89.3728 17.1612C88.7116 16.6403 87.8476 16.3717 86.9452 16.6827C86.1905 16.9427 85.7083 17.5169 85.4355 17.9069C85.0047 18.5231 84.6409 19.3985 84.4482 19.8622C84.405 19.9662 84.3704 20.0495 84.3456 20.1045C83.6429 21.6613 83.3251 23.0466 83.4763 24.3194C83.6338 25.6453 84.2709 26.6147 85.0101 27.3637C85.5749 27.936 86.2799 28.4511 86.8849 28.893C87.0082 28.9831 87.1274 29.0702 87.2404 29.1541C87.9673 29.6939 88.6038 30.2113 89.1285 30.8571C89.7568 31.6305 90.4264 32.2373 90.9696 32.7291C91.5464 33.2514 91.9383 33.6097 92.2332 33.994C92.4952 34.3355 92.6508 34.6643 92.7108 35.0867C92.7747 35.5371 92.7449 36.2069 92.4454 37.239C92.4354 37.2736 92.4297 37.2791 92.4101 37.295C92.3738 37.3243 92.2701 37.3897 92.0471 37.4427C91.5784 37.554 90.8601 37.5452 90.0009 37.3709C89.1631 37.2009 88.3254 36.9007 87.6698 36.5583C87.0269 36.2224 86.7851 35.9648 86.7383 35.9149C86.7309 35.9071 86.7284 35.9044 86.7299 35.9074C86.3168 35.0938 85.3279 34.772 84.5213 35.1887C83.7146 35.6053 83.3955 36.6026 83.8087 37.4162C84.2931 38.3703 85.3094 39.0531 86.1603 39.4976C87.1 39.9884 88.2295 40.388 89.3537 40.6161C90.4565 40.8398 91.6946 40.9272 92.7995 40.6647C93.9418 40.3933 95.1596 39.6707 95.5954 38.1687C95.9806 36.841 96.1098 35.6756 95.9597 34.6177C95.8056 33.5317 95.3742 32.6791 94.8289 31.9683C94.3407 31.332 93.7408 30.7893 93.2368 30.3335L93.1621 30.2659C92.61 29.766 92.1167 29.3125 91.6672 28.7591C90.8715 27.7797 89.9596 27.0627 89.1863 26.4884C89.0247 26.3684 88.873 26.2572 88.7303 26.1524C88.137 25.7171 87.6974 25.3945 87.3363 25.0285C86.9475 24.6347 86.7809 24.3117 86.7351 23.9256C86.6829 23.4865 86.762 22.7402 87.3327 21.4759C87.3962 21.3353 87.4624 21.1774 87.5223 21.0344L87.5226 21.0336L87.5231 21.0326L87.5235 21.0317L87.5353 21.0034C87.6022 20.8438 87.6671 20.6898 87.7355 20.5366C87.8007 20.3909 87.8625 20.2613 87.9213 20.148C88.2548 20.3375 88.5916 20.4841 88.8727 20.6008C89.0743 20.6844 89.2499 20.754 89.4128 20.8185C89.6783 20.9237 89.9098 21.0155 90.1646 21.1327C90.546 21.3083 90.7622 21.4503 90.8796 21.5632C90.9592 21.6396 90.9621 21.6682 90.9648 21.6942L90.9653 21.6988C91.0678 22.607 91.8808 23.2595 92.7813 23.1561C93.6818 23.0527 94.3288 22.2327 94.2263 21.3245C94.0107 19.4137 92.4535 18.5477 91.5272 18.1213C91.2003 17.9709 90.815 17.8174 90.4955 17.6902C90.3543 17.634 90.226 17.5829 90.1213 17.5395C89.6946 17.3624 89.4788 17.2447 89.3728 17.1612ZM88.2001 19.7111L88.2015 19.7098C88.2004 19.7108 88.1989 19.7119 88.1968 19.7141C88.1981 19.7129 88.1992 19.712 88.2001 19.7111Z" fill="#FBEDDE"/>
<path fill-rule="evenodd" clip-rule="evenodd" d="M13.373 24.121C13.1759 24.2303 12.9768 24.3426 12.7766 24.4574C12.9613 24.7806 13.1503 25.0829 13.3407 25.3604C14.5285 27.0907 15.8821 28.6632 17.4422 30.0269C17.6353 30.1957 17.8354 30.3591 18.0425 30.5192C18.6333 29.7381 19.136 28.9615 19.4901 28.2472C19.963 27.2933 21.113 26.9067 22.0587 27.3836C23.0045 27.8606 23.3878 29.0204 22.9149 29.9743C22.48 30.8516 21.9007 31.7637 21.235 32.663C21.6917 32.9616 22.1554 33.2748 22.6021 33.6025C22.7767 33.7305 23.0249 33.8812 23.379 34.0826C23.4652 34.1316 23.5595 34.1846 23.6591 34.2406C23.9293 34.3925 24.2381 34.5661 24.5262 34.7392C25.2565 35.178 26.3622 35.8947 26.9737 36.9912C27.4921 37.9207 27.1653 39.098 26.2437 39.6208C25.3221 40.1437 24.1548 39.814 23.6364 38.8846C23.5754 38.7751 23.3106 38.504 22.5665 38.0569C22.3287 37.914 22.0969 37.7837 21.8454 37.6424L21.8445 37.6419C21.7337 37.5796 21.6192 37.5152 21.4985 37.4466C21.1378 37.2415 20.7194 36.9967 20.35 36.7257C19.8247 36.3405 19.2851 35.9869 18.7088 35.6166C17.7232 36.6285 16.7062 37.5346 15.7719 38.2413C12.9272 40.3932 9.80742 40.8636 6.60618 40.6937C3.77995 40.5437 1.67008 38.9578 0.667562 36.7422C-0.310169 34.5814 -0.181716 31.9578 1.06739 29.6902C2.32457 27.4078 4.17216 25.8848 5.76396 24.5726L5.9199 24.444C6.5317 23.9392 7.20089 23.4438 7.89283 22.9691C7.36729 21.5153 6.9663 19.958 6.76155 18.4058C6.3194 15.0536 6.73786 11.1751 9.52861 8.64192C11.6503 6.71607 14.4504 6.71897 16.47 7.08932C18.429 7.44856 19.3863 9.03766 19.8461 10.2032C20.294 11.3387 20.4854 12.6021 20.6011 13.3655L20.6181 13.4769C20.9149 15.4231 20.4589 17.5257 19.4832 19.1002C18.9768 19.9174 18.2006 20.4292 17.7633 20.7141C17.6467 20.79 17.5449 20.8557 17.4554 20.9135C17.098 21.1441 16.9364 21.2483 16.8127 21.3731C15.9312 22.2622 14.6629 23.4055 13.373 24.121ZM12.0901 11.5124C12.8903 10.7861 14.1884 10.5961 15.785 10.8889L15.7856 10.889C15.8127 10.894 15.8482 10.9005 15.9244 10.9826C16.0224 11.0882 16.1535 11.2892 16.2882 11.6307C16.5685 12.3413 16.7047 13.2194 16.8335 14.0641C16.9891 15.0841 16.7318 16.2507 16.2391 17.0486C16.235 17.0538 16.2078 17.0876 16.1342 17.1499C16.0332 17.2355 15.8948 17.3339 15.686 17.4699C15.6399 17.4999 15.5853 17.5345 15.524 17.5734C15.1594 17.8045 14.5579 18.1857 14.1052 18.6423C13.3006 19.4538 12.3376 20.2879 11.5277 20.7371C11.4316 20.7905 11.3347 20.8446 11.2371 20.8996C10.9288 19.9262 10.6906 18.9078 10.5572 17.8965C10.1798 15.0358 10.6943 12.7794 12.0901 11.5124ZM8.34461 27.4329C8.71431 27.1279 9.11522 26.8221 9.53653 26.5198C9.75007 26.8863 9.96944 27.2336 10.1925 27.5586C11.5374 29.5179 13.1 31.3419 14.9344 32.9453C15.1154 33.1035 15.2991 33.2563 15.4842 33.4043C14.807 34.0647 14.1201 34.6635 13.4745 35.1518C11.5995 36.5701 9.48697 36.9794 6.80743 36.8372C5.41193 36.7631 4.56362 36.0507 4.15103 35.1389C3.71364 34.1722 3.71315 32.8391 4.41459 31.5656C5.29976 29.9587 6.62459 28.8523 8.34461 27.4329Z" fill="#FBEDDE"/>
</svg>
