<svg width="367" height="666" viewBox="0 0 367 666" fill="none" xmlns="http://www.w3.org/2000/svg">
<g filter="url(#filter0_di_221_2322)">
<path d="M33 52H333V612.833C333 622.498 325.165 630.333 315.5 630.333H50.5C40.835 630.333 33 622.498 33 612.833V52Z" fill="#F0F0F0"/>
<path d="M30.5 48.6665C30.5 36.2401 40.5736 26.1665 53 26.1665H313.833C326.26 26.1665 336.333 36.2401 336.333 48.6665V51.9998H30.5V48.6665Z" fill="#F0F0F0"/>
<path opacity="0.4" d="M290.304 37.9546C290.304 36.9575 291.112 36.1491 292.109 36.1491H306.538C307.535 36.1491 308.343 36.9575 308.343 37.9546V43.5449C308.343 44.5421 307.535 45.3505 306.538 45.3505H292.109C291.112 45.3505 290.304 44.5421 290.304 43.5449V37.9546Z" stroke="#727272" stroke-width="0.833333"/>
<path opacity="0.5" d="M309.618 38.979V42.5207C310.311 42.2207 310.761 41.5229 310.761 40.7498C310.761 39.9768 310.311 39.279 309.618 38.979Z" fill="#727272"/>
<path d="M291.603 38.6145C291.603 38.0009 292.1 37.5034 292.714 37.5034H305.933C306.547 37.5034 307.044 38.0009 307.044 38.6145V42.8854C307.044 43.499 306.547 43.9965 305.933 43.9965H292.714C292.1 43.9965 291.603 43.499 291.603 42.8854V38.6145Z" fill="#727272"/>
<path fill-rule="evenodd" clip-rule="evenodd" d="M279.022 37.7163C280.93 37.7163 282.766 38.458 284.149 39.7881C284.253 39.8908 284.419 39.8895 284.522 39.7852L285.518 38.7689C285.57 38.716 285.598 38.6443 285.598 38.5698C285.598 38.4952 285.568 38.4239 285.515 38.3716C281.885 34.8527 276.158 34.8527 272.527 38.3716C272.475 38.4239 272.445 38.4952 272.444 38.5697C272.444 38.6443 272.473 38.7159 272.525 38.7689L273.521 39.7852C273.623 39.8896 273.79 39.8909 273.894 39.7881C275.277 38.458 277.113 37.7162 279.022 37.7163ZM279.02 41.0151C280.07 41.0151 281.082 41.4194 281.86 42.1494C281.966 42.253 282.132 42.2508 282.234 42.1444L283.23 41.1021C283.282 41.0474 283.311 40.9733 283.31 40.8962C283.31 40.8191 283.279 40.7456 283.226 40.692C280.856 38.4082 277.186 38.4082 274.817 40.692C274.763 40.7456 274.733 40.8192 274.732 40.8963C274.731 40.9733 274.761 41.0475 274.813 41.1021L275.808 42.1444C275.911 42.2508 276.077 42.253 276.182 42.1494C276.96 41.4198 277.971 41.0156 279.02 41.0151ZM281.023 43.4267C281.024 43.5023 280.995 43.5753 280.941 43.6283L279.213 45.3912C279.162 45.4431 279.093 45.4722 279.021 45.4722C278.949 45.4722 278.88 45.4431 278.83 45.3912L277.101 43.6283C277.047 43.5752 277.018 43.5023 277.02 43.4266C277.021 43.3509 277.054 43.2793 277.109 43.2286C278.213 42.2849 279.83 42.2849 280.933 43.2286C280.989 43.2793 281.021 43.351 281.023 43.4267Z" fill="#727272"/>
<path fill-rule="evenodd" clip-rule="evenodd" d="M268.155 36.9132C268.155 36.4242 267.771 36.0278 267.297 36.0278H266.44C265.966 36.0278 265.582 36.4242 265.582 36.9132V44.5869C265.582 45.0759 265.966 45.4723 266.44 45.4723H267.297C267.771 45.4723 268.155 45.0759 268.155 44.5869V36.9132ZM262.436 38.0937H263.294C263.768 38.0937 264.152 38.4901 264.152 38.9791V44.5867C264.152 45.0757 263.768 45.4721 263.294 45.4721H262.436C261.963 45.4721 261.578 45.0757 261.578 44.5867V38.9791C261.578 38.4901 261.963 38.0937 262.436 38.0937ZM259.291 40.1599H258.433C257.959 40.1599 257.575 40.5563 257.575 41.0453V44.587C257.575 45.076 257.959 45.4724 258.433 45.4724H259.291C259.765 45.4724 260.149 45.076 260.149 44.587V41.0453C260.149 40.5563 259.765 40.1599 259.291 40.1599ZM256.145 42.8162C256.145 42.3272 255.761 41.9307 255.288 41.9307H254.43C253.956 41.9307 253.572 42.3272 253.572 42.8162V44.587C253.572 45.076 253.956 45.4724 254.43 45.4724H255.288C255.761 45.4724 256.145 45.076 256.145 44.587V42.8162Z" fill="#727272"/>
<path d="M61.4343 37.0115C61.947 37.0115 62.419 37.0908 62.8503 37.2495C63.2857 37.4082 63.6336 37.6483 63.894 37.9697C64.1544 38.2871 64.2846 38.6859 64.2846 39.166C64.2846 39.5241 64.2134 39.8374 64.071 40.106C63.9327 40.3745 63.7435 40.6105 63.5034 40.814C63.2633 41.0133 62.9907 41.1883 62.6855 41.3389C63.0029 41.5057 63.304 41.701 63.5888 41.9248C63.8737 42.1445 64.1056 42.4029 64.2846 42.7C64.4678 42.997 64.5593 43.3429 64.5593 43.7375C64.5593 44.234 64.4271 44.6653 64.1626 45.0315C63.8981 45.3936 63.5319 45.6744 63.0639 45.8738C62.596 46.0732 62.0528 46.1729 61.4343 46.1729C60.767 46.1729 60.1994 46.0772 59.7314 45.886C59.2635 45.6947 58.9075 45.4221 58.6633 45.0681C58.4192 44.71 58.2971 44.2828 58.2971 43.7864C58.2971 43.3795 58.3724 43.0255 58.5229 42.7244C58.6776 42.4233 58.8851 42.1649 59.1455 41.9492C59.4059 41.7295 59.6928 41.5423 60.0061 41.3877C59.7416 41.2209 59.4995 41.0317 59.2798 40.8201C59.0641 40.6085 58.8912 40.3664 58.761 40.0938C58.6348 39.8211 58.5718 39.5078 58.5718 39.1538C58.5718 38.6818 58.704 38.2871 58.9685 37.9697C59.237 37.6523 59.589 37.4143 60.0244 37.2556C60.4598 37.0929 60.9298 37.0115 61.4343 37.0115ZM60.0427 43.6765C60.0427 43.998 60.1566 44.2645 60.3845 44.4761C60.6164 44.6836 60.9582 44.7874 61.4099 44.7874C61.8778 44.7874 62.2278 44.6877 62.4597 44.4883C62.6916 44.2848 62.8076 44.0183 62.8076 43.6887C62.8076 43.4609 62.7405 43.2615 62.6062 43.0906C62.476 42.9197 62.3112 42.7671 62.1118 42.6328C61.9124 42.4945 61.711 42.3663 61.5076 42.2483L61.3428 42.1628C61.0823 42.2808 60.8545 42.4131 60.6592 42.5596C60.4679 42.7061 60.3174 42.8708 60.2075 43.054C60.0976 43.2371 60.0427 43.4446 60.0427 43.6765ZM61.4221 38.3909C61.1129 38.3909 60.8565 38.4702 60.6531 38.6289C60.4496 38.7876 60.3479 39.0114 60.3479 39.3003C60.3479 39.5037 60.3967 39.6828 60.4944 39.8374C60.5961 39.988 60.7283 40.1202 60.8911 40.2341C61.0579 40.3481 61.239 40.4539 61.4343 40.5515C61.6215 40.462 61.7964 40.3623 61.9592 40.2524C62.122 40.1426 62.2542 40.0103 62.3559 39.8557C62.4577 39.7011 62.5085 39.516 62.5085 39.3003C62.5085 39.0114 62.4048 38.7876 62.1972 38.6289C61.9938 38.4702 61.7354 38.3909 61.4221 38.3909ZM65.9191 45.178C65.9191 44.7955 66.0229 44.5269 66.2304 44.3723C66.442 44.2177 66.6963 44.1404 66.9933 44.1404C67.2822 44.1404 67.5304 44.2177 67.738 44.3723C67.9495 44.5269 68.0553 44.7955 68.0553 45.178C68.0553 45.5442 67.9495 45.8087 67.738 45.9714C67.5304 46.1342 67.2822 46.2156 66.9933 46.2156C66.6963 46.2156 66.442 46.1342 66.2304 45.9714C66.0229 45.8087 65.9191 45.5442 65.9191 45.178ZM65.9191 40.1365C65.9191 39.754 66.0229 39.4854 66.2304 39.3308C66.442 39.1762 66.6963 39.0989 66.9933 39.0989C67.2822 39.0989 67.5304 39.1762 67.738 39.3308C67.9495 39.4854 68.0553 39.754 68.0553 40.1365C68.0553 40.5068 67.9495 40.7733 67.738 40.936C67.5304 41.0947 67.2822 41.1741 66.9933 41.1741C66.6963 41.1741 66.442 41.0947 66.2304 40.936C66.0229 40.7733 65.9191 40.5068 65.9191 40.1365ZM74.1271 46.0508H72.2411V40.8872C72.2411 40.7448 72.2431 40.5698 72.2472 40.3623C72.2512 40.1507 72.2573 39.9351 72.2655 39.7153C72.2736 39.4915 72.2818 39.2901 72.2899 39.1111C72.2451 39.164 72.1536 39.2555 72.0152 39.3857C71.881 39.5119 71.7548 39.6258 71.6368 39.7275L70.6114 40.5515L69.702 39.4163L72.5768 37.1274H74.1271V46.0508ZM80.0584 40.3501C80.6036 40.3501 81.0879 40.4539 81.511 40.6614C81.9383 40.8689 82.274 41.1741 82.5181 41.5769C82.7622 41.9797 82.8843 42.4762 82.8843 43.0662C82.8843 43.7091 82.75 44.2645 82.4815 44.7324C82.217 45.1963 81.8203 45.5523 81.2913 45.8005C80.7664 46.0487 80.1113 46.1729 79.326 46.1729C78.858 46.1729 78.4165 46.1322 78.0015 46.0508C77.5905 45.9735 77.2304 45.8534 76.9212 45.6907V44.061C77.2304 44.2238 77.6007 44.3621 78.032 44.4761C78.4674 44.5859 78.8763 44.6409 79.2588 44.6409C79.6332 44.6409 79.9485 44.592 80.2049 44.4944C80.4612 44.3927 80.6545 44.238 80.7847 44.0305C80.919 43.8189 80.9861 43.5504 80.9861 43.2249C80.9861 42.7895 80.8396 42.4558 80.5467 42.2239C80.2537 41.9919 79.8041 41.876 79.1978 41.876C78.9659 41.876 78.7238 41.8984 78.4715 41.9431C78.2233 41.9879 78.0157 42.0326 77.8489 42.0774L77.0982 41.6746L77.4339 37.1274H82.274V38.7266H79.0879L78.9231 40.4783C79.0615 40.4498 79.212 40.4213 79.3748 40.3928C79.5376 40.3643 79.7654 40.3501 80.0584 40.3501Z" fill="#727272"/>
<path d="M133 26.1665H233C233 38.1327 223.299 47.8332 211.333 47.8332H154.667C142.7 47.8332 133 38.1327 133 26.1665Z" fill="white"/>
<rect x="158.333" y="34.5" width="45" height="3.33333" rx="1.66667" fill="#CFCFCF"/>
<circle cx="208.333" cy="36.1667" r="1.66667" fill="#CFCFCF"/>
<rect x="26.75" y="23.25" width="312.5" height="612.5" rx="41.25" stroke="white" stroke-width="12.5"/>
</g>
<defs>
<filter id="filter0_di_221_2322" x="1.33333" y="0.333333" width="365" height="665" filterUnits="userSpaceOnUse" color-interpolation-filters="sRGB">
<feFlood flood-opacity="0" result="BackgroundImageFix"/>
<feColorMatrix in="SourceAlpha" type="matrix" values="0 0 0 0 0 0 0 0 0 0 0 0 0 0 0 0 0 0 127 0" result="hardAlpha"/>
<feOffset dx="0.833333" dy="3.33333"/>
<feGaussianBlur stdDeviation="10"/>
<feColorMatrix type="matrix" values="0 0 0 0 0 0 0 0 0 0 0 0 0 0 0 0 0 0 0.35 0"/>
<feBlend mode="normal" in2="BackgroundImageFix" result="effect1_dropShadow_221_2322"/>
<feBlend mode="normal" in="SourceGraphic" in2="effect1_dropShadow_221_2322" result="shape"/>
<feColorMatrix in="SourceAlpha" type="matrix" values="0 0 0 0 0 0 0 0 0 0 0 0 0 0 0 0 0 0 127 0" result="hardAlpha"/>
<feOffset dx="-3.33333" dy="-7.5"/>
<feGaussianBlur stdDeviation="2.91667"/>
<feComposite in2="hardAlpha" operator="arithmetic" k2="-1" k3="1"/>
<feColorMatrix type="matrix" values="0 0 0 0 0 0 0 0 0 0 0 0 0 0 0 0 0 0 0.19 0"/>
<feBlend mode="normal" in2="shape" result="effect2_innerShadow_221_2322"/>
</filter>
</defs>
</svg>
