<svg width="196" height="92" viewBox="0 0 196 92" fill="none" xmlns="http://www.w3.org/2000/svg">
<path d="M0.795125 25.916C0.795125 24.828 1.04579 23.852 1.54713 22.988C2.05913 22.124 2.74713 21.452 3.61113 20.972C4.48579 20.4813 5.44046 20.236 6.47513 20.236C7.65913 20.236 8.70979 20.5293 9.62713 21.116C10.5551 21.692 11.2271 22.5133 11.6431 23.58H9.45113C9.16313 22.9933 8.76313 22.556 8.25113 22.268C7.73913 21.98 7.14713 21.836 6.47513 21.836C5.73913 21.836 5.08313 22.0013 4.50713 22.332C3.93113 22.6627 3.47779 23.1373 3.14713 23.756C2.82713 24.3747 2.66713 25.0947 2.66713 25.916C2.66713 26.7373 2.82713 27.4573 3.14713 28.076C3.47779 28.6947 3.93113 29.1747 4.50713 29.516C5.08313 29.8467 5.73913 30.012 6.47513 30.012C7.14713 30.012 7.73913 29.868 8.25113 29.58C8.76313 29.292 9.16313 28.8547 9.45113 28.268H11.6431C11.2271 29.3347 10.5551 30.156 9.62713 30.732C8.70979 31.308 7.65913 31.596 6.47513 31.596C5.42979 31.596 4.47513 31.356 3.61113 30.876C2.74713 30.3853 2.05913 29.708 1.54713 28.844C1.04579 27.98 0.795125 27.004 0.795125 25.916ZM19.3381 22.54C20.0101 22.54 20.6075 22.684 21.1301 22.972C21.6635 23.26 22.0795 23.6867 22.3781 24.252C22.6875 24.8173 22.8421 25.5 22.8421 26.3V31.5H21.0341V26.572C21.0341 25.7827 20.8368 25.18 20.4421 24.764C20.0475 24.3373 19.5088 24.124 18.8261 24.124C18.1435 24.124 17.5995 24.3373 17.1941 24.764C16.7995 25.18 16.6021 25.7827 16.6021 26.572V31.5H14.7781V19.66H16.6021V23.708C16.9115 23.3347 17.3008 23.0467 17.7701 22.844C18.2501 22.6413 18.7728 22.54 19.3381 22.54ZM29.9928 31.644C29.1608 31.644 28.4088 31.4573 27.7368 31.084C27.0648 30.7 26.5368 30.1667 26.1528 29.484C25.7688 28.7907 25.5768 27.9907 25.5768 27.084C25.5768 26.188 25.7741 25.3933 26.1688 24.7C26.5634 24.0067 27.1021 23.4733 27.7848 23.1C28.4674 22.7267 29.2301 22.54 30.0728 22.54C30.9154 22.54 31.6781 22.7267 32.3608 23.1C33.0434 23.4733 33.5821 24.0067 33.9768 24.7C34.3714 25.3933 34.5688 26.188 34.5688 27.084C34.5688 27.98 34.3661 28.7747 33.9608 29.468C33.5554 30.1613 33.0008 30.7 32.2968 31.084C31.6034 31.4573 30.8354 31.644 29.9928 31.644ZM29.9928 30.06C30.4621 30.06 30.8994 29.948 31.3048 29.724C31.7208 29.5 32.0568 29.164 32.3128 28.716C32.5688 28.268 32.6968 27.724 32.6968 27.084C32.6968 26.444 32.5741 25.9053 32.3288 25.468C32.0834 25.02 31.7581 24.684 31.3528 24.46C30.9474 24.236 30.5101 24.124 30.0408 24.124C29.5714 24.124 29.1341 24.236 28.7288 24.46C28.3341 24.684 28.0194 25.02 27.7848 25.468C27.5501 25.9053 27.4328 26.444 27.4328 27.084C27.4328 28.0333 27.6728 28.7693 28.1528 29.292C28.6434 29.804 29.2568 30.06 29.9928 30.06ZM41.1959 31.644C40.3639 31.644 39.6119 31.4573 38.9399 31.084C38.2679 30.7 37.7399 30.1667 37.3559 29.484C36.9719 28.7907 36.7799 27.9907 36.7799 27.084C36.7799 26.188 36.9772 25.3933 37.3719 24.7C37.7665 24.0067 38.3052 23.4733 38.9879 23.1C39.6705 22.7267 40.4332 22.54 41.2759 22.54C42.1185 22.54 42.8812 22.7267 43.5639 23.1C44.2465 23.4733 44.7852 24.0067 45.1799 24.7C45.5745 25.3933 45.7719 26.188 45.7719 27.084C45.7719 27.98 45.5692 28.7747 45.1639 29.468C44.7585 30.1613 44.2039 30.7 43.4999 31.084C42.8065 31.4573 42.0385 31.644 41.1959 31.644ZM41.1959 30.06C41.6652 30.06 42.1025 29.948 42.5079 29.724C42.9239 29.5 43.2599 29.164 43.5159 28.716C43.7719 28.268 43.8999 27.724 43.8999 27.084C43.8999 26.444 43.7772 25.9053 43.5319 25.468C43.2865 25.02 42.9612 24.684 42.5559 24.46C42.1505 24.236 41.7132 24.124 41.2439 24.124C40.7745 24.124 40.3372 24.236 39.9319 24.46C39.5372 24.684 39.2225 25.02 38.9879 25.468C38.7532 25.9053 38.6359 26.444 38.6359 27.084C38.6359 28.0333 38.8759 28.7693 39.3559 29.292C39.8465 29.804 40.4599 30.06 41.1959 30.06ZM51.775 31.644C51.0817 31.644 50.4577 31.5213 49.903 31.276C49.359 31.02 48.927 30.6787 48.607 30.252C48.287 29.8147 48.1163 29.3293 48.095 28.796H49.983C50.015 29.1693 50.191 29.484 50.511 29.74C50.8417 29.9853 51.2523 30.108 51.743 30.108C52.255 30.108 52.6497 30.012 52.927 29.82C53.215 29.6173 53.359 29.3613 53.359 29.052C53.359 28.7213 53.199 28.476 52.879 28.316C52.5697 28.156 52.0737 27.98 51.391 27.788C50.7297 27.6067 50.191 27.4307 49.775 27.26C49.359 27.0893 48.9963 26.828 48.687 26.476C48.3883 26.124 48.239 25.66 48.239 25.084C48.239 24.6147 48.3777 24.188 48.655 23.804C48.9323 23.4093 49.327 23.1 49.839 22.876C50.3617 22.652 50.959 22.54 51.631 22.54C52.6337 22.54 53.439 22.796 54.047 23.308C54.6657 23.8093 54.9963 24.4973 55.039 25.372H53.215C53.183 24.9773 53.023 24.6627 52.735 24.428C52.447 24.1933 52.0577 24.076 51.567 24.076C51.087 24.076 50.719 24.1667 50.463 24.348C50.207 24.5293 50.079 24.7693 50.079 25.068C50.079 25.3027 50.1643 25.5 50.335 25.66C50.5057 25.82 50.7137 25.948 50.959 26.044C51.2043 26.1293 51.567 26.2413 52.047 26.38C52.687 26.5507 53.2097 26.7267 53.615 26.908C54.031 27.0787 54.3883 27.3347 54.687 27.676C54.9857 28.0173 55.1403 28.4707 55.151 29.036C55.151 29.5373 55.0123 29.9853 54.735 30.38C54.4577 30.7747 54.063 31.084 53.551 31.308C53.0497 31.532 52.4577 31.644 51.775 31.644ZM66.2019 26.876C66.2019 27.2067 66.1805 27.5053 66.1379 27.772H59.4019C59.4552 28.476 59.7165 29.0413 60.1859 29.468C60.6552 29.8947 61.2312 30.108 61.9139 30.108C62.8952 30.108 63.5885 29.6973 63.9939 28.876H65.9619C65.6952 29.6867 65.2099 30.3533 64.5059 30.876C63.8125 31.388 62.9485 31.644 61.9139 31.644C61.0712 31.644 60.3139 31.4573 59.6419 31.084C58.9805 30.7 58.4579 30.1667 58.0739 29.484C57.7005 28.7907 57.5139 27.9907 57.5139 27.084C57.5139 26.1773 57.6952 25.3827 58.0579 24.7C58.4312 24.0067 58.9485 23.4733 59.6099 23.1C60.2819 22.7267 61.0499 22.54 61.9139 22.54C62.7459 22.54 63.4872 22.7213 64.1379 23.084C64.7885 23.4467 65.2952 23.9587 65.6579 24.62C66.0205 25.2707 66.2019 26.0227 66.2019 26.876ZM64.2979 26.3C64.2872 25.628 64.0472 25.0893 63.5779 24.684C63.1085 24.2787 62.5272 24.076 61.8339 24.076C61.2045 24.076 60.6659 24.2787 60.2179 24.684C59.7699 25.0787 59.5032 25.6173 59.4179 26.3H64.2979ZM82.0891 22.684L76.6811 35.644H74.7931L76.5851 31.356L73.1131 22.684H75.1451L77.6251 29.404L80.2011 22.684H82.0891ZM88.2896 31.644C87.4576 31.644 86.7056 31.4573 86.0336 31.084C85.3616 30.7 84.8336 30.1667 84.4496 29.484C84.0656 28.7907 83.8736 27.9907 83.8736 27.084C83.8736 26.188 84.071 25.3933 84.4656 24.7C84.8603 24.0067 85.399 23.4733 86.0816 23.1C86.7643 22.7267 87.527 22.54 88.3696 22.54C89.2123 22.54 89.975 22.7267 90.6576 23.1C91.3403 23.4733 91.879 24.0067 92.2736 24.7C92.6683 25.3933 92.8656 26.188 92.8656 27.084C92.8656 27.98 92.663 28.7747 92.2576 29.468C91.8523 30.1613 91.2976 30.7 90.5936 31.084C89.9003 31.4573 89.1323 31.644 88.2896 31.644ZM88.2896 30.06C88.759 30.06 89.1963 29.948 89.6016 29.724C90.0176 29.5 90.3536 29.164 90.6096 28.716C90.8656 28.268 90.9936 27.724 90.9936 27.084C90.9936 26.444 90.871 25.9053 90.6256 25.468C90.3803 25.02 90.055 24.684 89.6496 24.46C89.2443 24.236 88.807 24.124 88.3376 24.124C87.8683 24.124 87.431 24.236 87.0256 24.46C86.631 24.684 86.3163 25.02 86.0816 25.468C85.847 25.9053 85.7296 26.444 85.7296 27.084C85.7296 28.0333 85.9696 28.7693 86.4496 29.292C86.9403 29.804 87.5536 30.06 88.2896 30.06ZM103.653 22.684V31.5H101.829V30.46C101.541 30.8227 101.162 31.1107 100.693 31.324C100.234 31.5267 99.7434 31.628 99.2208 31.628C98.5274 31.628 97.9034 31.484 97.3488 31.196C96.8048 30.908 96.3728 30.4813 96.0528 29.916C95.7434 29.3507 95.5888 28.668 95.5888 27.868V22.684H97.3968V27.596C97.3968 28.3853 97.5941 28.9933 97.9888 29.42C98.3834 29.836 98.9221 30.044 99.6048 30.044C100.287 30.044 100.826 29.836 101.221 29.42C101.626 28.9933 101.829 28.3853 101.829 27.596V22.684H103.653ZM108.883 23.964C109.15 23.516 109.502 23.1693 109.939 22.924C110.387 22.668 110.915 22.54 111.523 22.54V24.428H111.059C110.345 24.428 109.801 24.6093 109.427 24.972C109.065 25.3347 108.883 25.964 108.883 26.86V31.5H107.059V22.684H108.883V23.964ZM121.18 23.98C121.49 23.5747 121.911 23.2333 122.444 22.956C122.978 22.6787 123.58 22.54 124.252 22.54C125.02 22.54 125.719 22.732 126.348 23.116C126.988 23.4893 127.49 24.0173 127.852 24.7C128.215 25.3827 128.396 26.1667 128.396 27.052C128.396 27.9373 128.215 28.732 127.852 29.436C127.49 30.1293 126.988 30.6733 126.348 31.068C125.719 31.452 125.02 31.644 124.252 31.644C123.58 31.644 122.983 31.5107 122.46 31.244C121.938 30.9667 121.511 30.6253 121.18 30.22V35.692H119.356V22.684H121.18V23.98ZM126.54 27.052C126.54 26.444 126.412 25.9213 126.156 25.484C125.911 25.036 125.58 24.7 125.164 24.476C124.759 24.2413 124.322 24.124 123.852 24.124C123.394 24.124 122.956 24.2413 122.54 24.476C122.135 24.7107 121.804 25.052 121.548 25.5C121.303 25.948 121.18 26.476 121.18 27.084C121.18 27.692 121.303 28.2253 121.548 28.684C121.804 29.132 122.135 29.4733 122.54 29.708C122.956 29.9427 123.394 30.06 123.852 30.06C124.322 30.06 124.759 29.9427 125.164 29.708C125.58 29.4627 125.911 29.1107 126.156 28.652C126.412 28.1933 126.54 27.66 126.54 27.052ZM133.024 23.964C133.291 23.516 133.643 23.1693 134.08 22.924C134.528 22.668 135.056 22.54 135.664 22.54V24.428H135.2C134.485 24.428 133.941 24.6093 133.568 24.972C133.205 25.3347 133.024 25.964 133.024 26.86V31.5H131.2V22.684H133.024V23.964ZM142.165 31.644C141.333 31.644 140.581 31.4573 139.909 31.084C139.237 30.7 138.709 30.1667 138.325 29.484C137.941 28.7907 137.749 27.9907 137.749 27.084C137.749 26.188 137.946 25.3933 138.341 24.7C138.735 24.0067 139.274 23.4733 139.957 23.1C140.639 22.7267 141.402 22.54 142.245 22.54C143.087 22.54 143.85 22.7267 144.533 23.1C145.215 23.4733 145.754 24.0067 146.149 24.7C146.543 25.3933 146.741 26.188 146.741 27.084C146.741 27.98 146.538 28.7747 146.133 29.468C145.727 30.1613 145.173 30.7 144.469 31.084C143.775 31.4573 143.007 31.644 142.165 31.644ZM142.165 30.06C142.634 30.06 143.071 29.948 143.477 29.724C143.893 29.5 144.229 29.164 144.485 28.716C144.741 28.268 144.869 27.724 144.869 27.084C144.869 26.444 144.746 25.9053 144.501 25.468C144.255 25.02 143.93 24.684 143.525 24.46C143.119 24.236 142.682 24.124 142.213 24.124C141.743 24.124 141.306 24.236 140.901 24.46C140.506 24.684 140.191 25.02 139.957 25.468C139.722 25.9053 139.605 26.444 139.605 27.084C139.605 28.0333 139.845 28.7693 140.325 29.292C140.815 29.804 141.429 30.06 142.165 30.06ZM153.096 22.54C153.778 22.54 154.381 22.6787 154.904 22.956C155.437 23.2227 155.853 23.5587 156.152 23.964V22.684H157.992V31.644C157.992 32.4547 157.821 33.1747 157.48 33.804C157.138 34.444 156.642 34.9453 155.992 35.308C155.352 35.6707 154.584 35.852 153.688 35.852C152.493 35.852 151.501 35.5693 150.712 35.004C149.922 34.4493 149.474 33.692 149.368 32.732H151.176C151.314 33.1907 151.608 33.5587 152.056 33.836C152.514 34.124 153.058 34.268 153.688 34.268C154.424 34.268 155.016 34.044 155.464 33.596C155.922 33.148 156.152 32.4973 156.152 31.644V30.172C155.842 30.588 155.421 30.94 154.888 31.228C154.365 31.5053 153.768 31.644 153.096 31.644C152.328 31.644 151.624 31.452 150.984 31.068C150.354 30.6733 149.853 30.1293 149.48 29.436C149.117 28.732 148.936 27.9373 148.936 27.052C148.936 26.1667 149.117 25.3827 149.48 24.7C149.853 24.0173 150.354 23.4893 150.984 23.116C151.624 22.732 152.328 22.54 153.096 22.54ZM156.152 27.084C156.152 26.476 156.024 25.948 155.768 25.5C155.522 25.052 155.197 24.7107 154.792 24.476C154.386 24.2413 153.949 24.124 153.48 24.124C153.01 24.124 152.573 24.2413 152.168 24.476C151.762 24.7 151.432 25.036 151.176 25.484C150.93 25.9213 150.808 26.444 150.808 27.052C150.808 27.66 150.93 28.1933 151.176 28.652C151.432 29.1107 151.762 29.4627 152.168 29.708C152.584 29.9427 153.021 30.06 153.48 30.06C153.949 30.06 154.386 29.9427 154.792 29.708C155.197 29.4733 155.522 29.132 155.768 28.684C156.024 28.2253 156.152 27.692 156.152 27.084ZM163.212 23.964C163.478 23.516 163.83 23.1693 164.268 22.924C164.716 22.668 165.244 22.54 165.852 22.54V24.428H165.388C164.673 24.428 164.129 24.6093 163.756 24.972C163.393 25.3347 163.212 25.964 163.212 26.86V31.5H161.388V22.684H163.212V23.964ZM167.92 27.052C167.92 26.1667 168.101 25.3827 168.464 24.7C168.837 24.0173 169.339 23.4893 169.968 23.116C170.608 22.732 171.312 22.54 172.08 22.54C172.773 22.54 173.376 22.6787 173.888 22.956C174.411 23.2227 174.827 23.5587 175.136 23.964V22.684H176.976V31.5H175.136V30.188C174.827 30.604 174.405 30.9507 173.872 31.228C173.339 31.5053 172.731 31.644 172.048 31.644C171.291 31.644 170.597 31.452 169.968 31.068C169.339 30.6733 168.837 30.1293 168.464 29.436C168.101 28.732 167.92 27.9373 167.92 27.052ZM175.136 27.084C175.136 26.476 175.008 25.948 174.752 25.5C174.507 25.052 174.181 24.7107 173.776 24.476C173.371 24.2413 172.933 24.124 172.464 24.124C171.995 24.124 171.557 24.2413 171.152 24.476C170.747 24.7 170.416 25.036 170.16 25.484C169.915 25.9213 169.792 26.444 169.792 27.052C169.792 27.66 169.915 28.1933 170.16 28.652C170.416 29.1107 170.747 29.4627 171.152 29.708C171.568 29.9427 172.005 30.06 172.464 30.06C172.933 30.06 173.371 29.9427 173.776 29.708C174.181 29.4733 174.507 29.132 174.752 28.684C175.008 28.2253 175.136 27.692 175.136 27.084ZM191.044 22.54C191.737 22.54 192.356 22.684 192.9 22.972C193.455 23.26 193.887 23.6867 194.196 24.252C194.516 24.8173 194.676 25.5 194.676 26.3V31.5H192.868V26.572C192.868 25.7827 192.671 25.18 192.276 24.764C191.881 24.3373 191.343 24.124 190.66 24.124C189.977 24.124 189.433 24.3373 189.028 24.764C188.633 25.18 188.436 25.7827 188.436 26.572V31.5H186.628V26.572C186.628 25.7827 186.431 25.18 186.036 24.764C185.641 24.3373 185.103 24.124 184.42 24.124C183.737 24.124 183.193 24.3373 182.788 24.764C182.393 25.18 182.196 25.7827 182.196 26.572V31.5H180.372V22.684H182.196V23.692C182.495 23.3293 182.873 23.0467 183.332 22.844C183.791 22.6413 184.281 22.54 184.804 22.54C185.508 22.54 186.137 22.6893 186.692 22.988C187.247 23.2867 187.673 23.7187 187.972 24.284C188.239 23.7507 188.655 23.3293 189.22 23.02C189.785 22.7 190.393 22.54 191.044 22.54Z" fill="#FBEDDE"/>
<path d="M83 57.5C85.4511 59.5472 88.524 60.9903 90.6531 63.7095C91.4302 64.7021 92.5392 65.828 93.5442 66.2163C94.4198 66.5546 94.9241 67.8841 95.7041 68.4701C96.9073 69.3741 97.9698 69.0195 99.2245 68.1711C101.523 66.6169 103.915 63.657 106.418 62.9046C108.636 62.238 111.057 61.2974 113 59.9838" stroke="#FBEDDE" stroke-width="8" stroke-linecap="round"/>
<path d="M83 76C84.7741 78.0711 87.1752 79.2479 89.0606 81.1739C90.2286 82.367 91.418 84.1321 92.697 85.0653C93.8496 85.9063 97.4048 88.6681 98.4545 86.9447C99.5426 85.1585 102.614 83.8536 104.212 82.8543C105.229 82.2183 106.445 81.7599 107.411 80.9528C108.671 79.8994 112.401 79.5628 113 77.9899" stroke="#FBEDDE" stroke-width="8" stroke-linecap="round"/>
</svg>
