<svg width="118" height="24" viewBox="0 0 118 24" fill="none" xmlns="http://www.w3.org/2000/svg">
<path d="M30.178 12.3032C30.178 9.72115 31.979 7.74672 34.5302 7.74672C36.5564 7.74672 37.6816 8.96194 38.2076 10.1772L36.7817 10.8612C36.4066 9.87395 35.581 9.26634 34.4559 9.26634C33.1054 9.26634 31.8292 10.4816 31.8292 12.3808C31.8292 14.2036 33.1054 15.4952 34.4559 15.4952C35.6565 15.4952 36.4821 14.8876 36.9327 13.9004L38.3586 14.508C37.8338 15.7232 36.6331 16.9385 34.6068 16.9385C31.979 16.8609 30.178 14.8852 30.178 12.3032ZM41.0595 8.04992L40.984 9.26515H41.0595C41.5101 8.50593 42.5598 7.82192 43.7604 7.82192C45.9365 7.82192 46.9874 9.26514 46.9874 11.3912V16.6317H45.4116V11.6204C45.4116 9.87395 44.5117 9.26634 43.3111 9.26634C41.9606 9.26634 41.0595 10.558 41.0595 11.9248V16.6341H39.4838V4.17626H41.0595V8.04992ZM48.6386 16.6329V8.04992H50.1388V9.41675H50.2143C50.5894 8.42953 51.79 7.82192 52.6911 7.82192C53.216 7.82192 53.5167 7.89832 53.8918 8.04992L53.2914 9.56835C53.0662 9.49195 52.7666 9.41675 52.4658 9.41675C51.415 9.41675 50.2898 10.3276 50.2898 11.9236V16.6329H48.6386ZM62.596 12.3032C62.596 14.8852 60.795 16.8597 58.2439 16.8597C55.6928 16.8597 53.8918 14.8852 53.8918 12.3032C53.8918 9.72115 55.6928 7.74672 58.2439 7.74672C60.795 7.74672 62.596 9.72115 62.596 12.3032ZM61.0203 12.3032C61.0203 10.3288 59.6698 9.18875 58.2439 9.18875C56.818 9.18875 55.4675 10.3276 55.4675 12.3032C55.4675 14.2788 56.818 15.4176 58.2439 15.4176C59.6698 15.4176 61.0203 14.2776 61.0203 12.3032ZM63.8722 8.04992H65.3724V9.26515H65.4479C65.8984 8.42953 67.0236 7.82192 68.0745 7.82192C69.425 7.82192 70.326 8.42953 70.7754 9.49315C71.3757 8.50593 72.4266 7.82192 73.7016 7.82192C75.7279 7.82192 76.7033 9.26514 76.7033 11.3912V16.6317H75.052V11.6204C75.052 9.87395 74.3762 9.26634 73.1756 9.26634C71.8994 9.26634 70.9995 10.558 70.9995 11.9248V16.6341H69.4238V11.6204C69.4238 9.87395 68.748 9.26634 67.5473 9.26634C66.2711 9.26634 65.3712 10.558 65.3712 11.9248V16.6341H63.7955V8.05112H63.8722V8.04992ZM77.8296 12.3032C77.8296 9.87275 79.4808 7.74672 81.9565 7.74672C84.4333 7.74672 86.0833 9.56955 86.0833 12.3032V12.6064H79.4042C79.4797 14.4292 80.7546 15.4165 82.1051 15.4165C83.005 15.4165 83.9816 15.0368 84.4309 13.9732L85.8569 14.5808C85.332 15.7961 84.1313 16.9349 82.1794 16.9349C79.5551 16.8609 77.8296 14.8852 77.8296 12.3032ZM81.9565 9.26515C80.7558 9.26515 79.8559 10.1008 79.5551 11.316H84.4333C84.3578 10.5568 83.7575 9.26515 81.9565 9.26515ZM86.9844 12.3032C86.9844 9.72115 88.7854 7.74672 91.3365 7.74672C93.3628 7.74672 94.488 8.96194 95.014 10.1772L93.5881 10.7848C93.213 9.79755 92.3874 9.18994 91.2622 9.18994C89.9118 9.18994 88.6356 10.4052 88.6356 12.3044C88.6356 14.1272 89.9118 15.4188 91.2622 15.4188C92.4629 15.4188 93.2885 14.8112 93.739 13.824L95.165 14.4316C94.6401 15.6468 93.4395 16.8621 91.4132 16.8621C88.7854 16.8609 86.9844 14.8852 86.9844 12.3032ZM95.9894 14.0508C95.9894 12.1516 97.7149 11.0892 99.6669 11.0892C100.792 11.0892 101.618 11.3924 101.918 11.6204V11.316C101.918 10.0244 100.868 9.26515 99.7424 9.26515C98.8425 9.26515 98.0169 9.72115 97.7161 10.4804L96.2902 9.87276C96.5897 9.11354 97.5663 7.82192 99.7424 7.82192C101.769 7.82192 103.494 9.03714 103.494 11.4676V16.6317H101.994V15.4165H101.918C101.468 16.1005 100.568 16.8597 99.142 16.8597C97.4153 16.8609 95.9894 15.7973 95.9894 14.0508ZM101.918 12.9108C101.918 12.9108 101.243 12.3796 99.8922 12.3796C98.2409 12.3796 97.5663 13.2904 97.5663 14.0508C97.5663 14.9616 98.4662 15.4176 99.2918 15.4176C100.642 15.4176 101.918 14.354 101.918 12.9108ZM104.47 14.4304L105.895 13.8228C106.346 14.8864 107.172 15.4176 108.147 15.4176C109.122 15.4176 109.798 14.9616 109.798 14.2024C109.798 13.7464 109.573 13.2916 108.673 13.0636L106.948 12.684C106.197 12.456 104.696 11.8484 104.696 10.33C104.696 8.81153 106.272 7.82312 107.997 7.82312C109.423 7.82312 110.698 8.50712 111.224 9.79755L109.874 10.4052C109.574 9.56955 108.749 9.26634 107.923 9.26634C107.023 9.26634 106.272 9.64595 106.272 10.33C106.272 10.8612 106.722 11.1656 107.397 11.3172L109.048 11.6968C110.699 12.0764 111.374 13.14 111.374 14.2036C111.374 15.722 110.024 16.8621 108.073 16.8621C106.122 16.8621 104.92 15.6456 104.47 14.4304ZM113.475 13.9744V9.49315H111.974V8.04992H113.475V5.46788H115.05V8.04992H117.077V9.49315H115.05V13.8228C115.05 14.81 115.425 15.1896 116.175 15.1896C116.476 15.1896 116.7 15.1896 116.926 15.038L117.45 16.4049C117.075 16.5565 116.7 16.6329 116.174 16.6329C114.45 16.7081 113.475 15.7209 113.475 13.9744ZM22.7488 7.36711H14.6449C16.1451 8.35433 17.196 10.0256 17.196 12C17.196 12.3796 17.1205 12.8356 17.0462 13.2152V13.2916C16.9707 13.8992 16.7466 14.4304 16.4459 14.9628L11.3436 24.0006H11.7942C18.3223 24.0006 23.651 18.6837 23.651 12C23.6499 10.3288 23.3491 8.73393 22.7488 7.36711ZM11.8685 17.3921C10.3682 17.3921 8.94229 16.7081 7.96689 15.7209C7.59183 15.3412 7.29108 14.9616 6.9915 14.5056L6.84171 14.354L1.8126 5.61948C0.687414 7.44231 0.0115967 9.64475 0.0115967 12C0.0115967 18.1525 4.5135 23.165 10.367 23.8478L14.4196 16.7081C13.6695 17.1641 12.7684 17.3921 11.8685 17.3921ZM11.8685 -0.000610352C7.96689 -0.000610352 4.51468 1.89862 2.33862 4.86027L6.39117 11.8472C6.46665 11.9236 6.46665 12.0752 6.46665 12.1504V11.9224C6.46665 9.26395 8.41744 6.98512 10.8943 6.60551H10.9697C11.4203 6.4539 11.8696 6.4539 12.3202 6.4539H22.3006C20.3474 2.65783 16.3704 -0.000610352 11.8685 -0.000610352ZM16.1451 12C16.1451 14.4304 14.1943 16.3297 11.8673 16.3297C9.46596 16.3297 7.58947 14.3552 7.58947 12C7.58947 9.64475 9.54144 7.67032 11.8685 7.67032C14.1943 7.59392 16.1451 9.56955 16.1451 12Z" fill="white"/>
</svg>
