<svg width="58" height="60" viewBox="0 0 58 60" fill="none" xmlns="http://www.w3.org/2000/svg">
<path fill-rule="evenodd" clip-rule="evenodd" d="M40.9818 10.8039C48.3362 15.8177 53.0683 24.4713 51.5338 32.948C50.8606 36.6668 50.1602 40.3562 48.7957 43.5306C47.4614 46.6351 45.6007 48.9847 42.7351 50.2959C36.6281 53.0902 29.5998 54.5223 23.2692 53.1729C18.3843 52.1316 13.6888 49.9176 11.4307 46.2684C10.8452 45.3223 10.1684 44.4229 9.55113 43.618C9.44233 43.4761 9.33557 43.3374 9.23072 43.2012L9.23064 43.2011C8.71376 42.5295 8.24341 41.9185 7.80514 41.2876C6.74879 39.767 6.20045 38.5653 6.13989 37.398C5.82552 31.3389 5.91874 26.8063 7.41806 21.7033C8.26751 20.5789 9.12258 19.4025 9.95611 18.2558C10.7326 17.1875 11.4904 16.145 12.2076 15.1941C12.6728 14.5773 13.0787 14.0028 13.4739 13.4435C14.0862 12.5769 14.6724 11.7472 15.4126 10.8543C16.558 9.47271 17.562 8.62439 18.4666 8.27283C20.8304 7.35418 23.1997 6.62519 25.4272 6.41474C31.1149 5.87736 36.1239 7.492 40.9818 10.8039ZM0.154701 37.7039C-0.147265 31.8839 -0.114428 26.9664 1.24698 21.5526C1.08856 20.7309 1.27237 19.8479 1.82711 19.1371C1.88797 19.0591 1.94847 18.9813 2.00862 18.9037C2.20636 18.292 2.42178 17.6717 2.6562 17.0411C3.02003 16.0622 3.84041 15.3869 4.78582 15.1667L4.97584 14.9046C5.75078 13.836 6.54429 12.7418 7.42341 11.5762C7.67402 11.2439 7.98856 10.8018 8.34281 10.304L8.34289 10.3039C9.06501 9.28901 9.95215 8.04224 10.7993 7.02032C12.1347 5.4096 13.9392 3.59447 16.2934 2.67953C18.8484 1.68655 21.8187 0.728787 24.8588 0.441555C32.1957 -0.251631 38.574 1.90646 44.3523 5.84582C53.1256 11.827 59.4932 22.6315 57.431 34.0229C56.7762 37.6399 55.9787 42.0034 54.3013 45.9061C52.5938 49.8788 49.8687 53.6308 45.2305 55.753C38.3812 58.887 30.0077 60.7423 22.026 59.041C16.5959 57.8835 9.89352 55.1728 6.33656 49.4248C5.92427 48.7585 5.41122 48.0679 4.7985 47.269C4.70473 47.1467 4.60809 47.0212 4.5093 46.893C3.99198 46.2213 3.41585 45.4733 2.88574 44.7102C1.62502 42.8954 0.302969 40.5616 0.154701 37.7039ZM46.3484 34.9926C47.0936 33.5133 46.4999 31.7092 45.0223 30.9631C43.5447 30.217 41.7427 30.8114 40.9974 32.2907C40.26 33.7547 38.8111 35.3971 36.9713 36.6712C35.1231 37.9511 33.1849 38.6514 31.5683 38.6514C30.7034 38.6514 29.5796 38.7244 28.5456 38.7916H28.5455L28.5453 38.7916L28.5451 38.7916L28.5446 38.7916L28.5429 38.7917L28.5419 38.7918C27.9594 38.8296 27.4055 38.8656 26.9426 38.8856C25.3797 38.9531 24.2635 38.8935 23.5552 38.6772C21.3782 38.0123 20.8247 37.3679 19.3319 35.6301C18.9329 35.1656 18.4668 34.623 17.8847 33.981C16.7723 32.7542 14.8772 32.6626 13.6519 33.7762C12.4266 34.8899 12.335 36.7872 13.4474 38.0139C13.8116 38.4156 14.1561 38.8235 14.5003 39.2311C16.1844 41.2252 17.8616 43.2113 21.8067 44.4161C23.5765 44.9566 25.5945 44.9494 27.2009 44.88C28.0019 44.8454 28.6824 44.7989 29.2974 44.7569L29.2981 44.7568L29.2986 44.7568L29.2988 44.7568C30.1297 44.7 30.8409 44.6514 31.5683 44.6514C34.77 44.6514 37.882 43.3361 40.3806 41.6057C42.8874 39.8697 45.0817 37.5073 46.3484 34.9926ZM19.7898 23.7474C19.7898 22.0905 21.1313 20.7474 22.7862 20.7474H23.2609C24.9159 20.7474 26.2574 22.0905 26.2574 23.7474C26.2574 25.4042 24.9159 26.7474 23.2609 26.7474H22.7862C21.1313 26.7474 19.7898 25.4042 19.7898 23.7474ZM34.179 20.7474C32.5241 20.7474 31.1825 22.0905 31.1825 23.7474C31.1825 25.4042 32.5241 26.7474 34.179 26.7474H34.6537C36.3086 26.7474 37.6502 25.4042 37.6502 23.7474C37.6502 22.0905 36.3086 20.7474 34.6537 20.7474H34.179Z" fill="#FBEDDE"/>
</svg>
