<svg width="129" height="126" viewBox="0 0 129 126" fill="none" xmlns="http://www.w3.org/2000/svg">
<path d="M19.9996 110.628C8.95415 110.561 0.0509625 101.553 0.113828 90.5074L0.606185 3.99992C0.618758 1.79081 2.41978 0.0108457 4.62888 0.0242543L61.8483 0.37156C72.8938 0.438604 81.797 9.44711 81.7341 20.4926L81.2418 107C81.2292 109.209 79.4282 110.989 77.2191 110.976L19.9996 110.628Z" fill="#95A6B5"/>
<path d="M20.1018 42.1055L19.6448 45H9.76587L10.176 42.4102L15.4143 36.7148C15.719 36.3555 16.0276 35.9688 16.3401 35.5547C16.6604 35.1406 16.9377 34.7031 17.1721 34.2422C17.4143 33.7734 17.5667 33.3008 17.6292 32.8242C17.6604 32.5664 17.676 32.2617 17.676 31.9102C17.6838 31.5508 17.6213 31.2383 17.4885 30.9727C17.3557 30.6992 17.0979 30.5586 16.7151 30.5508C16.2463 30.5352 15.8831 30.6914 15.6252 31.0195C15.3752 31.3398 15.1956 31.7227 15.0862 32.168C14.9768 32.6133 14.9026 33.0078 14.8635 33.3516L11.4065 33.3633C11.469 32.3477 11.7424 31.4062 12.2268 30.5391C12.719 29.6719 13.3752 28.9766 14.1956 28.4531C15.0159 27.9219 15.9612 27.6641 17.0315 27.6797C18.0002 27.6953 18.8088 27.9102 19.4573 28.3242C20.1135 28.7383 20.594 29.3086 20.8987 30.0352C21.2112 30.7539 21.3284 31.582 21.2502 32.5195C21.1877 33.2148 21.0159 33.8711 20.7346 34.4883C20.4612 35.0977 20.1252 35.6719 19.7268 36.2109C19.3284 36.75 18.8948 37.2734 18.426 37.7812C17.9573 38.2812 17.5002 38.7734 17.0549 39.2578L14.8167 42.0938L20.1018 42.1055ZM24.726 37.3008L21.9135 36.5859L24.1167 27.9375H32.3432L31.8745 30.8906H26.5542L25.5698 34.418C25.8432 34.2305 26.1401 34.082 26.4604 33.9727C26.7807 33.8633 27.1049 33.8008 27.4331 33.7852C28.2143 33.793 28.851 33.9688 29.3432 34.3125C29.8432 34.6484 30.226 35.0977 30.4917 35.6602C30.7651 36.2148 30.9448 36.8242 31.0307 37.4883C31.1245 38.1523 31.144 38.7969 31.0893 39.4219C31.0268 40.1875 30.851 40.9219 30.562 41.625C30.2729 42.3281 29.8862 42.957 29.4018 43.5117C28.9174 44.0586 28.3432 44.4922 27.6792 44.8125C27.0229 45.125 26.2885 45.2695 25.476 45.2461C24.7729 45.2305 24.144 45.0859 23.5893 44.8125C23.0346 44.5312 22.562 44.1562 22.1713 43.6875C21.7885 43.2188 21.4995 42.6836 21.3042 42.082C21.1167 41.4805 21.0307 40.8477 21.0463 40.1836H24.5151C24.5151 40.4648 24.5385 40.7695 24.5854 41.0977C24.6323 41.418 24.7377 41.6992 24.9018 41.9414C25.0659 42.1836 25.3276 42.3125 25.687 42.3281C26.0776 42.3438 26.394 42.2461 26.6362 42.0352C26.8784 41.8164 27.0659 41.5391 27.1987 41.2031C27.3315 40.8672 27.4292 40.5195 27.4917 40.1602C27.5542 39.793 27.5932 39.4727 27.6088 39.1992C27.6323 38.9414 27.644 38.6523 27.644 38.332C27.6518 38.0117 27.6167 37.707 27.5385 37.418C27.4604 37.1289 27.3237 36.8906 27.1284 36.7031C26.9409 36.5156 26.6713 36.4219 26.3198 36.4219C25.976 36.4219 25.6713 36.5039 25.4057 36.668C25.1479 36.8242 24.9213 37.0352 24.726 37.3008ZM42.0651 38.4492L41.5612 41.3438H31.4596L31.6823 38.8945L39.0065 27.9375H41.9245L38.1042 33.3516L35.1393 38.4375L42.0651 38.4492ZM42.569 27.9375L39.6159 45H36.1237L39.0768 27.9375H42.569ZM52.5206 26.9883L49.3917 45H45.9112L49.0401 26.9883H52.5206ZM58.251 32.3203L52.6495 38.8477L49.6963 41.6836L48.6768 38.9766L51.1846 35.9766L53.8799 32.3203H58.251ZM52.3213 45L50.7745 39.0586L53.4815 37.0898L56.1417 45H52.3213Z" fill="#F0EAE1"/>
<path d="M8.67554 51.9473L8.53882 52.7139H5.54077L5.67749 51.9473H8.67554ZM6.33179 48.8906L5.09644 56H4.22241L5.45288 48.8906H6.33179ZM9.97437 48.8906L8.73901 56H7.86499L9.09546 48.8906H9.97437ZM13.6804 49.5693L10.697 56H9.76929L13.2263 48.8906H13.8074L13.6804 49.5693ZM14.1003 56L13.3337 49.4668L13.4265 48.8906H13.9783L14.9646 56H14.1003ZM14.5496 53.3682L14.4128 54.1396H11.0828L11.2195 53.3682H14.5496ZM18.6609 53.2168L17.0935 53.2119L17.2302 52.4453L18.6902 52.4551C18.9799 52.4518 19.2273 52.39 19.4324 52.2695C19.6407 52.1458 19.8067 51.9782 19.9304 51.7666C20.0541 51.5518 20.1322 51.306 20.1648 51.0293C20.1908 50.8079 20.1811 50.5964 20.1355 50.3945C20.0899 50.1895 19.9972 50.0202 19.8572 49.8867C19.7205 49.7533 19.5268 49.68 19.2761 49.667L17.8992 49.6621L16.7957 56H15.9216L17.1521 48.8906L19.2957 48.8955C19.7026 48.9085 20.0411 49.0111 20.3113 49.2031C20.5847 49.3919 20.7833 49.6442 20.907 49.96C21.0307 50.2757 21.0746 50.6289 21.0388 51.0195C20.9998 51.472 20.8777 51.8626 20.6726 52.1914C20.4708 52.5202 20.199 52.7741 19.8572 52.9531C19.5154 53.1322 19.1166 53.2201 18.6609 53.2168ZM24.0417 53.2168L22.4744 53.2119L22.6111 52.4453L24.071 52.4551C24.3608 52.4518 24.6082 52.39 24.8132 52.2695C25.0216 52.1458 25.1876 51.9782 25.3113 51.7666C25.435 51.5518 25.5131 51.306 25.5457 51.0293C25.5717 50.8079 25.5619 50.5964 25.5164 50.3945C25.4708 50.1895 25.378 50.0202 25.238 49.8867C25.1013 49.7533 24.9076 49.68 24.657 49.667L23.28 49.6621L22.1765 56H21.3025L22.533 48.8906L24.6765 48.8955C25.0834 48.9085 25.422 49.0111 25.6921 49.2031C25.9656 49.3919 26.1641 49.6442 26.2878 49.96C26.4115 50.2757 26.4555 50.6289 26.4197 51.0195C26.3806 51.472 26.2585 51.8626 26.0535 52.1914C25.8516 52.5202 25.5798 52.7741 25.238 52.9531C24.8962 53.1322 24.4975 53.2201 24.0417 53.2168ZM28.2898 48.8906L29.071 52.4502L31.1023 48.8906H32.1375L29.3689 53.3975L28.9197 56H28.0408L28.5144 53.29L27.3376 48.8906H28.2898ZM37.8845 53.7441L38.739 53.7344C38.6739 54.1934 38.5356 54.6035 38.324 54.9648C38.1156 55.3262 37.8357 55.6094 37.4841 55.8145C37.1358 56.0163 36.7159 56.1107 36.2244 56.0977C35.824 56.0879 35.4952 55.9902 35.238 55.8047C34.9841 55.6191 34.7888 55.3783 34.6521 55.082C34.5186 54.7858 34.4356 54.4652 34.4031 54.1201C34.3705 53.7718 34.3754 53.4316 34.4177 53.0996L34.6228 51.7861C34.6814 51.415 34.7791 51.0505 34.9158 50.6924C35.0525 50.3311 35.2348 50.0055 35.4626 49.7158C35.6905 49.4261 35.9656 49.1982 36.2878 49.0322C36.6101 48.863 36.9845 48.7832 37.4109 48.793C37.8764 48.8027 38.2442 48.9183 38.5144 49.1396C38.7878 49.361 38.9799 49.6507 39.0906 50.0088C39.2013 50.3669 39.2485 50.7559 39.2322 51.1758L38.3533 51.1709C38.363 50.9137 38.3484 50.6647 38.3093 50.4238C38.2735 50.1797 38.184 49.9779 38.0408 49.8184C37.8975 49.6556 37.6697 49.5693 37.3572 49.5596C37.0512 49.5498 36.7891 49.6117 36.571 49.7451C36.3529 49.8753 36.1723 50.0511 36.0291 50.2725C35.8858 50.4938 35.7719 50.7363 35.6873 51C35.6026 51.2637 35.5408 51.5225 35.5017 51.7764L35.2966 53.1045C35.2673 53.3096 35.2494 53.5374 35.2429 53.7881C35.2397 54.0387 35.2657 54.2796 35.321 54.5107C35.3764 54.7419 35.4789 54.9339 35.6287 55.0869C35.7784 55.2399 35.9932 55.3229 36.2732 55.3359C36.6248 55.349 36.9063 55.2855 37.1179 55.1455C37.3295 55.0055 37.4939 54.8135 37.6111 54.5693C37.7283 54.3219 37.8194 54.0469 37.8845 53.7441ZM43.2703 55.2334L43.1335 56H40.2673L40.4041 55.2334H43.2703ZM41.6638 48.8906L40.4285 56H39.5544L40.7849 48.8906H41.6638ZM46.322 48.8906L45.0867 56H44.2078L45.4431 48.8906H46.322ZM50.4529 55.2334L50.3162 56H47.3181L47.4548 55.2334H50.4529ZM48.7146 48.8906L47.4792 56H46.6052L47.8357 48.8906H48.7146ZM50.6189 51.9473L50.4871 52.7139H47.8894L48.0261 51.9473H50.6189ZM51.5076 48.8906L51.3708 49.6621H48.4167L48.5535 48.8906H51.5076ZM57.1765 48.8906L55.946 56H55.0867L53.2654 50.4775L52.3083 56H51.4294L52.6599 48.8906H53.5144L55.3455 54.4277L56.3074 48.8906H57.1765ZM60.7556 48.8906L59.5203 56H58.6511L59.8865 48.8906H60.7556ZM62.5671 48.8906L62.4304 49.6621H57.9382L58.075 48.8906H62.5671ZM65.5994 54.1641C65.6222 53.9753 65.6124 53.8125 65.5701 53.6758C65.531 53.5358 65.4643 53.4154 65.3699 53.3145C65.2755 53.2135 65.1615 53.124 65.0281 53.0459C64.8946 52.9678 64.7481 52.8945 64.5886 52.8262C64.3608 52.7285 64.1475 52.6162 63.949 52.4893C63.7537 52.3623 63.5828 52.2174 63.4363 52.0547C63.2931 51.8887 63.184 51.6999 63.1091 51.4883C63.0375 51.2767 63.0131 51.0358 63.0359 50.7656C63.0587 50.4727 63.1319 50.2041 63.2556 49.96C63.3793 49.7158 63.5404 49.5059 63.739 49.3301C63.9408 49.1543 64.1703 49.0192 64.4275 48.9248C64.6879 48.8304 64.963 48.7865 65.2527 48.793C65.6596 48.8027 65.9998 48.9069 66.2732 49.1055C66.5499 49.3008 66.755 49.5612 66.8884 49.8867C67.0219 50.209 67.0756 50.5605 67.0496 50.9414H66.1707C66.1902 50.707 66.1739 50.4857 66.1218 50.2773C66.073 50.069 65.9753 49.8997 65.8289 49.7695C65.6824 49.6393 65.474 49.571 65.2039 49.5645C64.963 49.5579 64.7498 49.6068 64.5642 49.7109C64.3819 49.8118 64.2338 49.9535 64.1199 50.1357C64.0092 50.318 63.9408 50.5247 63.9148 50.7559C63.892 50.9251 63.905 51.0749 63.9539 51.2051C64.0027 51.332 64.0743 51.446 64.1687 51.5469C64.2664 51.6445 64.3787 51.7308 64.5056 51.8057C64.6358 51.8805 64.7693 51.9473 64.906 52.0059C65.1567 52.11 65.3829 52.2272 65.5847 52.3574C65.7865 52.4876 65.9574 52.6374 66.0974 52.8066C66.2406 52.9759 66.3448 53.1712 66.4099 53.3926C66.4783 53.6139 66.4994 53.8695 66.4734 54.1592C66.4473 54.4619 66.3708 54.7354 66.2439 54.9795C66.1169 55.2204 65.9509 55.4255 65.7458 55.5947C65.5408 55.764 65.3064 55.8926 65.0427 55.9805C64.7791 56.0651 64.4975 56.1042 64.198 56.0977C63.892 56.0911 63.6169 56.0326 63.3728 55.9219C63.1287 55.8079 62.922 55.6533 62.7527 55.458C62.5834 55.2594 62.4581 55.0316 62.3767 54.7744C62.2953 54.514 62.2628 54.234 62.2791 53.9346L63.158 53.9395C63.1417 54.1283 63.1498 54.3073 63.1824 54.4766C63.2182 54.6426 63.28 54.7891 63.3679 54.916C63.4558 55.043 63.5714 55.1439 63.7146 55.2188C63.8611 55.2904 64.0385 55.3278 64.2468 55.3311C64.491 55.3376 64.7091 55.2936 64.9011 55.1992C65.0932 55.1048 65.2494 54.9697 65.3699 54.7939C65.4936 54.6149 65.5701 54.4049 65.5994 54.1641ZM6.37085 60.8906L5.1355 68H4.25659L5.49194 60.8906H6.37085ZM12.4011 60.8906L11.1707 68H10.3113L8.48999 62.4775L7.53296 68H6.65405L7.88452 60.8906H8.73901L10.5701 66.4277L11.532 60.8906H12.4011ZM17.6843 65.2168L16.1169 65.2119L16.2537 64.4453L17.7136 64.4551C18.0033 64.4518 18.2507 64.39 18.4558 64.2695C18.6641 64.1458 18.8302 63.9782 18.9539 63.7666C19.0776 63.5518 19.1557 63.306 19.1882 63.0293C19.2143 62.8079 19.2045 62.5964 19.1589 62.3945C19.1134 62.1895 19.0206 62.0202 18.8806 61.8867C18.7439 61.7533 18.5502 61.68 18.2996 61.667L16.9226 61.6621L15.8191 68H14.9451L16.1755 60.8906L18.3191 60.8955C18.726 60.9085 19.0645 61.0111 19.3347 61.2031C19.6082 61.3919 19.8067 61.6442 19.9304 61.96C20.0541 62.2757 20.0981 62.6289 20.0623 63.0195C20.0232 63.472 19.9011 63.8626 19.696 64.1914C19.4942 64.5202 19.2224 64.7741 18.8806 64.9531C18.5388 65.1322 18.1401 65.2201 17.6843 65.2168ZM21.5613 60.8906L23.4314 60.8955C23.8513 60.9085 24.1964 61.0046 24.4666 61.1836C24.74 61.3594 24.9353 61.6019 25.0525 61.9111C25.1729 62.2171 25.2153 62.5752 25.1794 62.9854C25.1501 63.3206 25.0655 63.6217 24.9255 63.8887C24.7888 64.1556 24.6033 64.3835 24.3689 64.5723C24.1378 64.7611 23.866 64.9108 23.5535 65.0215L23.2996 65.1191H21.5222L21.6443 64.3525L22.8357 64.3623C23.1091 64.359 23.35 64.2988 23.5583 64.1816C23.7667 64.0612 23.9343 63.8968 24.0613 63.6885C24.1915 63.4801 24.2712 63.2441 24.3005 62.9805C24.3298 62.7493 24.3233 62.5361 24.281 62.3408C24.2387 62.1455 24.1475 61.9876 24.0076 61.8672C23.8708 61.7435 23.6723 61.6768 23.4119 61.667L22.3083 61.6621L21.2048 68H20.3308L21.5613 60.8906ZM23.6609 68L22.8503 64.7773L23.7146 64.7725L24.6033 67.9365L24.5984 68H23.6609ZM30.6726 63.8301L30.4822 65.0605C30.4236 65.4447 30.3276 65.819 30.1941 66.1836C30.0639 66.5482 29.8881 66.877 29.6667 67.1699C29.4486 67.4629 29.1768 67.694 28.8513 67.8633C28.5291 68.0326 28.1482 68.1107 27.7087 68.0977C27.2921 68.0879 26.9519 67.9919 26.6882 67.8096C26.4246 67.624 26.2244 67.3848 26.0876 67.0918C25.9509 66.7956 25.8647 66.4717 25.8289 66.1201C25.7963 65.7653 25.8028 65.4137 25.8484 65.0654L26.0388 63.8301C26.0942 63.4525 26.1886 63.0814 26.322 62.7168C26.4555 62.3522 26.6329 62.0234 26.8542 61.7305C27.0789 61.4342 27.3523 61.2015 27.6746 61.0322C28.0001 60.8597 28.3809 60.7799 28.8171 60.793C29.2371 60.8027 29.5789 60.8988 29.8425 61.0811C30.1062 61.2633 30.3064 61.5026 30.4431 61.7988C30.5798 62.0918 30.6628 62.4157 30.6921 62.7705C30.7247 63.1253 30.7182 63.4785 30.6726 63.8301ZM29.6179 65.0654L29.8083 63.8105C29.8376 63.5859 29.8539 63.3483 29.8572 63.0977C29.8604 62.8438 29.8311 62.6045 29.7693 62.3799C29.7107 62.1553 29.6016 61.9697 29.4421 61.8232C29.2859 61.6768 29.0597 61.5986 28.7634 61.5889C28.4509 61.5758 28.1856 61.6361 27.9675 61.7695C27.7494 61.8997 27.5671 62.0771 27.4207 62.3018C27.2774 62.5231 27.1651 62.7673 27.0837 63.0342C27.0024 63.2979 26.9421 63.5599 26.9031 63.8203L26.7175 65.0703C26.6882 65.2884 26.672 65.5244 26.6687 65.7783C26.6687 66.029 26.698 66.2682 26.7566 66.4961C26.8184 66.724 26.9275 66.9128 27.0837 67.0625C27.2432 67.2122 27.4679 67.2936 27.7576 67.3066C28.0766 67.3164 28.3451 67.2562 28.5632 67.126C28.7846 66.9958 28.9653 66.82 29.1052 66.5986C29.2485 66.3773 29.3591 66.1331 29.4373 65.8662C29.5186 65.596 29.5789 65.3291 29.6179 65.0654ZM36.2341 64.46L35.824 67.1064C35.6514 67.3408 35.4464 67.5312 35.2087 67.6777C34.9744 67.8242 34.7205 67.9316 34.447 68C34.1768 68.0684 33.9001 68.1009 33.6169 68.0977C33.2003 68.0911 32.8536 68.0016 32.5769 67.8291C32.3035 67.6533 32.0919 67.4222 31.9421 67.1357C31.7924 66.846 31.6964 66.5254 31.6541 66.1738C31.6117 65.8223 31.615 65.4674 31.6638 65.1094L31.8689 63.7764C31.9242 63.3825 32.017 63.0049 32.1472 62.6436C32.2774 62.2822 32.4516 61.9616 32.6697 61.6816C32.8878 61.3984 33.158 61.1771 33.4802 61.0176C33.8057 60.8581 34.1915 60.7832 34.6375 60.793C35.0736 60.8027 35.4301 60.9036 35.7068 61.0957C35.9867 61.2878 36.1918 61.5465 36.322 61.8721C36.4522 62.1976 36.5141 62.5654 36.5076 62.9756L35.6335 62.9707C35.6368 62.7266 35.6091 62.5003 35.5505 62.292C35.4919 62.0804 35.3861 61.9095 35.2332 61.7793C35.0802 61.6458 34.8653 61.5742 34.5886 61.5645C34.2696 61.5514 33.9994 61.6084 33.7781 61.7354C33.56 61.859 33.3809 62.0299 33.241 62.248C33.1042 62.4629 32.9968 62.7038 32.9187 62.9707C32.8406 63.2344 32.782 63.4997 32.7429 63.7666L32.5378 65.1143C32.5085 65.3356 32.4955 65.5732 32.4988 65.8271C32.502 66.0811 32.5378 66.3219 32.6062 66.5498C32.6778 66.7744 32.7966 66.96 32.9626 67.1064C33.1287 67.2497 33.3582 67.3229 33.6511 67.3262C33.8236 67.3294 33.9815 67.3132 34.1248 67.2773C34.2712 67.2415 34.4096 67.1895 34.5398 67.1211C34.6733 67.0495 34.8067 66.9632 34.9402 66.8623L35.238 65.2217H33.9685L34.1052 64.46H36.2341ZM38.2703 60.8906L40.1404 60.8955C40.5603 60.9085 40.9054 61.0046 41.1755 61.1836C41.449 61.3594 41.6443 61.6019 41.7615 61.9111C41.8819 62.2171 41.9242 62.5752 41.8884 62.9854C41.8591 63.3206 41.7745 63.6217 41.6345 63.8887C41.4978 64.1556 41.3123 64.3835 41.0779 64.5723C40.8468 64.7611 40.575 64.9108 40.2625 65.0215L40.0085 65.1191H38.2312L38.3533 64.3525L39.5447 64.3623C39.8181 64.359 40.059 64.2988 40.2673 64.1816C40.4757 64.0612 40.6433 63.8968 40.7703 63.6885C40.9005 63.4801 40.9802 63.2441 41.0095 62.9805C41.0388 62.7493 41.0323 62.5361 40.99 62.3408C40.9477 62.1455 40.8565 61.9876 40.7166 61.8672C40.5798 61.7435 40.3813 61.6768 40.1208 61.667L39.0173 61.6621L37.9138 68H37.0398L38.2703 60.8906ZM40.3699 68L39.5593 64.7773L40.4236 64.7725L41.3123 67.9365L41.3074 68H40.3699ZM46.0291 67.2334L45.8923 68H42.8943L43.031 67.2334H46.0291ZM44.2908 60.8906L43.0554 68H42.1814L43.4119 60.8906H44.2908ZM46.1951 63.9473L46.0632 64.7139H43.4656L43.6023 63.9473H46.1951ZM47.0837 60.8906L46.947 61.6621H43.9929L44.1296 60.8906H47.0837ZM50.3357 66.1641C50.3585 65.9753 50.3487 65.8125 50.3064 65.6758C50.2673 65.5358 50.2006 65.4154 50.1062 65.3145C50.0118 65.2135 49.8979 65.124 49.7644 65.0459C49.6309 64.9678 49.4845 64.8945 49.325 64.8262C49.0971 64.7285 48.8839 64.6162 48.6853 64.4893C48.49 64.3623 48.3191 64.2174 48.1726 64.0547C48.0294 63.8887 47.9203 63.6999 47.8455 63.4883C47.7738 63.2767 47.7494 63.0358 47.7722 62.7656C47.795 62.4727 47.8682 62.2041 47.9919 61.96C48.1156 61.7158 48.2768 61.5059 48.4753 61.3301C48.6772 61.1543 48.9067 61.0192 49.1638 60.9248C49.4242 60.8304 49.6993 60.7865 49.989 60.793C50.3959 60.8027 50.7361 60.9069 51.0095 61.1055C51.2862 61.3008 51.4913 61.5612 51.6248 61.8867C51.7582 62.209 51.8119 62.5605 51.7859 62.9414H50.907C50.9265 62.707 50.9102 62.4857 50.8582 62.2773C50.8093 62.069 50.7117 61.8997 50.5652 61.7695C50.4187 61.6393 50.2104 61.571 49.9402 61.5645C49.6993 61.5579 49.4861 61.6068 49.3005 61.7109C49.1182 61.8118 48.9701 61.9535 48.8562 62.1357C48.7455 62.318 48.6772 62.5247 48.6511 62.7559C48.6283 62.9251 48.6414 63.0749 48.6902 63.2051C48.739 63.332 48.8106 63.446 48.905 63.5469C49.0027 63.6445 49.115 63.7308 49.2419 63.8057C49.3722 63.8805 49.5056 63.9473 49.6423 64.0059C49.893 64.11 50.1192 64.2272 50.321 64.3574C50.5229 64.4876 50.6938 64.6374 50.8337 64.8066C50.977 64.9759 51.0811 65.1712 51.1462 65.3926C51.2146 65.6139 51.2358 65.8695 51.2097 66.1592C51.1837 66.4619 51.1072 66.7354 50.9802 66.9795C50.8533 67.2204 50.6873 67.4255 50.4822 67.5947C50.2771 67.764 50.0427 67.8926 49.7791 67.9805C49.5154 68.0651 49.2338 68.1042 48.9343 68.0977C48.6283 68.0911 48.3533 68.0326 48.1091 67.9219C47.865 67.8079 47.6583 67.6533 47.489 67.458C47.3197 67.2594 47.1944 67.0316 47.113 66.7744C47.0317 66.514 46.9991 66.234 47.0154 65.9346L47.8943 65.9395C47.878 66.1283 47.8861 66.3073 47.9187 66.4766C47.9545 66.6426 48.0164 66.7891 48.1042 66.916C48.1921 67.043 48.3077 67.1439 48.4509 67.2188C48.5974 67.2904 48.7748 67.3278 48.9832 67.3311C49.2273 67.3376 49.4454 67.2936 49.6375 67.1992C49.8295 67.1048 49.9858 66.9697 50.1062 66.7939C50.2299 66.6149 50.3064 66.4049 50.3357 66.1641ZM55.365 66.1641C55.3878 65.9753 55.378 65.8125 55.3357 65.6758C55.2966 65.5358 55.2299 65.4154 55.1355 65.3145C55.0411 65.2135 54.9272 65.124 54.7937 65.0459C54.6602 64.9678 54.5138 64.8945 54.3542 64.8262C54.1264 64.7285 53.9132 64.6162 53.7146 64.4893C53.5193 64.3623 53.3484 64.2174 53.2019 64.0547C53.0587 63.8887 52.9496 63.6999 52.8748 63.4883C52.8031 63.2767 52.7787 63.0358 52.8015 62.7656C52.8243 62.4727 52.8975 62.2041 53.0212 61.96C53.1449 61.7158 53.3061 61.5059 53.5046 61.3301C53.7065 61.1543 53.936 61.0192 54.1931 60.9248C54.4535 60.8304 54.7286 60.7865 55.0183 60.793C55.4252 60.8027 55.7654 60.9069 56.0388 61.1055C56.3155 61.3008 56.5206 61.5612 56.6541 61.8867C56.7875 62.209 56.8412 62.5605 56.8152 62.9414H55.9363C55.9558 62.707 55.9395 62.4857 55.8875 62.2773C55.8386 62.069 55.741 61.8997 55.5945 61.7695C55.448 61.6393 55.2397 61.571 54.9695 61.5645C54.7286 61.5579 54.5154 61.6068 54.3298 61.7109C54.1475 61.8118 53.9994 61.9535 53.8855 62.1357C53.7748 62.318 53.7065 62.5247 53.6804 62.7559C53.6576 62.9251 53.6707 63.0749 53.7195 63.2051C53.7683 63.332 53.8399 63.446 53.9343 63.5469C54.032 63.6445 54.1443 63.7308 54.2712 63.8057C54.4014 63.8805 54.5349 63.9473 54.6716 64.0059C54.9223 64.11 55.1485 64.2272 55.3503 64.3574C55.5522 64.4876 55.7231 64.6374 55.863 64.8066C56.0063 64.9759 56.1104 65.1712 56.1755 65.3926C56.2439 65.6139 56.2651 65.8695 56.239 66.1592C56.213 66.4619 56.1365 66.7354 56.0095 66.9795C55.8826 67.2204 55.7166 67.4255 55.5115 67.5947C55.3064 67.764 55.072 67.8926 54.8083 67.9805C54.5447 68.0651 54.2631 68.1042 53.9636 68.0977C53.6576 68.0911 53.3826 68.0326 53.1384 67.9219C52.8943 67.8079 52.6876 67.6533 52.5183 67.458C52.349 67.2594 52.2237 67.0316 52.1423 66.7744C52.061 66.514 52.0284 66.234 52.0447 65.9346L52.9236 65.9395C52.9073 66.1283 52.9154 66.3073 52.948 66.4766C52.9838 66.6426 53.0457 66.7891 53.1335 66.916C53.2214 67.043 53.337 67.1439 53.4802 67.2188C53.6267 67.2904 53.8041 67.3278 54.0125 67.3311C54.2566 67.3376 54.4747 67.2936 54.6667 67.1992C54.8588 67.1048 55.0151 66.9697 55.1355 66.7939C55.2592 66.6149 55.3357 66.4049 55.365 66.1641Z" fill="#F0EAE1"/>
</svg>
