<svg width="146" height="131" viewBox="0 0 146 131" fill="none" xmlns="http://www.w3.org/2000/svg">
<g filter="url(#filter0_d_293_2545)">
<path d="M23.9996 110.628C12.9542 110.561 4.05096 101.553 4.11383 90.5074L4.60618 3.99992C4.61876 1.79081 6.41978 0.0108457 8.62888 0.0242543L65.8483 0.37156C76.8938 0.438604 85.797 9.44711 85.7341 20.4926L85.2418 107C85.2292 109.209 83.4282 110.989 81.2191 110.976L23.9996 110.628Z" fill="#95A6B5"/>
<path d="M4.61382 90.5104L5.10618 4.00295C5.11718 2.06999 6.69307 0.512514 8.62603 0.524246L65.8455 0.871552C76.6148 0.936919 85.2954 9.72021 85.2342 20.4896L84.7418 106.997C84.7308 108.93 83.1549 110.488 81.2219 110.476L24.0025 110.128C13.2331 110.063 4.55252 101.28 4.61382 90.5104Z" stroke="black"/>
</g>
<path d="M25.8677 27.9141L22.9849 45H19.5044L21.7192 32.2383L18.4263 33.4219L18.9536 30.4102L25.4575 27.9258L25.8677 27.9141ZM30.738 37.3008L27.9255 36.5859L30.1286 27.9375H38.3552L37.8864 30.8906H32.5661L31.5817 34.418C31.8552 34.2305 32.1521 34.082 32.4724 33.9727C32.7927 33.8633 33.1169 33.8008 33.445 33.7852C34.2263 33.793 34.863 33.9688 35.3552 34.3125C35.8552 34.6484 36.238 35.0977 36.5036 35.6602C36.7771 36.2148 36.9567 36.8242 37.0427 37.4883C37.1364 38.1523 37.156 38.7969 37.1013 39.4219C37.0388 40.1875 36.863 40.9219 36.5739 41.625C36.2849 42.3281 35.8981 42.957 35.4138 43.5117C34.9294 44.0586 34.3552 44.4922 33.6911 44.8125C33.0349 45.125 32.3005 45.2695 31.488 45.2461C30.7849 45.2305 30.156 45.0859 29.6013 44.8125C29.0466 44.5312 28.5739 44.1562 28.1833 43.6875C27.8005 43.2188 27.5114 42.6836 27.3161 42.082C27.1286 41.4805 27.0427 40.8477 27.0583 40.1836H30.5271C30.5271 40.4648 30.5505 40.7695 30.5974 41.0977C30.6442 41.418 30.7497 41.6992 30.9138 41.9414C31.0778 42.1836 31.3396 42.3125 31.6989 42.3281C32.0896 42.3438 32.406 42.2461 32.6481 42.0352C32.8903 41.8164 33.0778 41.5391 33.2106 41.2031C33.3435 40.8672 33.4411 40.5195 33.5036 40.1602C33.5661 39.793 33.6052 39.4727 33.6208 39.1992C33.6442 38.9414 33.656 38.6523 33.656 38.332C33.6638 38.0117 33.6286 37.707 33.5505 37.418C33.4724 37.1289 33.3356 36.8906 33.1403 36.7031C32.9528 36.5156 32.6833 36.4219 32.3317 36.4219C31.988 36.4219 31.6833 36.5039 31.4177 36.668C31.1599 36.8242 30.9333 37.0352 30.738 37.3008ZM49.6286 34.9453L49.1716 37.9688C49.0544 38.7891 48.863 39.6289 48.5974 40.4883C48.3396 41.3477 47.9802 42.1445 47.5192 42.8789C47.0661 43.6055 46.4919 44.1875 45.7966 44.625C45.1013 45.0625 44.2536 45.2656 43.2536 45.2344C42.4958 45.2188 41.863 45.0547 41.3552 44.7422C40.8552 44.4219 40.4528 44.0078 40.1481 43.5C39.8513 42.9844 39.6364 42.4141 39.5036 41.7891C39.3708 41.1562 39.3005 40.5117 39.2927 39.8555C39.2849 39.1992 39.3161 38.5742 39.3864 37.9805L39.8552 34.9453C39.9724 34.125 40.1599 33.2891 40.4177 32.4375C40.6833 31.5781 41.0466 30.7852 41.5075 30.0586C41.9685 29.3242 42.5466 28.7422 43.2419 28.3125C43.945 27.875 44.7927 27.6719 45.7849 27.7031C46.5349 27.7188 47.1638 27.8867 47.6716 28.207C48.1794 28.5195 48.5817 28.9336 48.8786 29.4492C49.1755 29.957 49.3903 30.5234 49.5231 31.1484C49.656 31.7734 49.7263 32.4141 49.7341 33.0703C49.7419 33.7266 49.7067 34.3516 49.6286 34.9453ZM45.6442 38.4609L46.2302 34.4414C46.2458 34.2852 46.2731 34.0586 46.3122 33.7617C46.3591 33.457 46.3942 33.1289 46.4177 32.7773C46.4411 32.418 46.4333 32.0742 46.3942 31.7461C46.3552 31.418 46.2653 31.1445 46.1247 30.9258C45.9841 30.6992 45.7692 30.582 45.4802 30.5742C45.0505 30.543 44.7067 30.6719 44.4489 30.9609C44.1911 31.2422 43.988 31.6055 43.8396 32.0508C43.6989 32.4883 43.5974 32.9297 43.5349 33.375C43.4724 33.8203 43.4216 34.1758 43.3825 34.4414L42.7966 38.4609C42.7888 38.6094 42.7614 38.8359 42.7146 39.1406C42.6755 39.4375 42.6442 39.7695 42.6208 40.1367C42.5974 40.4961 42.6013 40.8398 42.6325 41.168C42.6716 41.4961 42.7614 41.7734 42.9021 42C43.0427 42.2188 43.2575 42.3398 43.5466 42.3633C43.9763 42.3945 44.32 42.2656 44.5778 41.9766C44.8435 41.6875 45.0466 41.3203 45.1872 40.875C45.3278 40.4297 45.4294 39.9844 45.4919 39.5391C45.5544 39.0859 45.6052 38.7266 45.6442 38.4609ZM60.8435 35.3789L60.281 38.6016H50.7302L51.2927 35.3789H60.8435ZM58.5114 30.8672L56.3552 43.2891H53.0856L55.2419 30.8672H58.5114Z" fill="#F0EAE1"/>
<path d="M19.9419 60.2334L19.8052 61H16.8071L16.9438 60.2334H19.9419ZM18.2036 53.8906L16.9683 61H16.0942L17.3247 53.8906H18.2036ZM20.1079 56.9473L19.9761 57.7139H17.3784L17.5151 56.9473H20.1079ZM20.9966 53.8906L20.8599 54.6621H17.9058L18.0425 53.8906H20.9966ZM22.6958 53.8906L23.5747 56.6104L25.2983 53.8906H26.3628L23.9849 57.4551L25.2397 61H24.2583L23.3696 58.2266L21.6069 61H20.5278L22.9595 57.3672L21.7241 53.8906H22.6958ZM29.0093 58.2168L27.4419 58.2119L27.5786 57.4453L29.0386 57.4551C29.3283 57.4518 29.5757 57.39 29.7808 57.2695C29.9891 57.1458 30.1551 56.9782 30.2788 56.7666C30.4025 56.5518 30.4806 56.306 30.5132 56.0293C30.5392 55.8079 30.5295 55.5964 30.4839 55.3945C30.4383 55.1895 30.3455 55.0202 30.2056 54.8867C30.0688 54.7533 29.8752 54.68 29.6245 54.667L28.2476 54.6621L27.144 61H26.27L27.5005 53.8906L29.644 53.8955C30.0509 53.9085 30.3895 54.0111 30.6597 54.2031C30.9331 54.3919 31.1317 54.6442 31.2554 54.96C31.3791 55.2757 31.423 55.6289 31.3872 56.0195C31.3481 56.472 31.2261 56.8626 31.021 57.1914C30.8192 57.5202 30.5474 57.7741 30.2056 57.9531C29.8638 58.1322 29.465 58.2201 29.0093 58.2168ZM35.4985 60.2334L35.3618 61H32.3638L32.5005 60.2334H35.4985ZM33.7603 53.8906L32.5249 61H31.6509L32.8813 53.8906H33.7603ZM35.6646 56.9473L35.5327 57.7139H32.9351L33.0718 56.9473H35.6646ZM36.5532 53.8906L36.4165 54.6621H33.4624L33.5991 53.8906H36.5532ZM37.7104 53.8906L39.5806 53.8955C40.0005 53.9085 40.3455 54.0046 40.6157 54.1836C40.8892 54.3594 41.0845 54.6019 41.2017 54.9111C41.3221 55.2171 41.3644 55.5752 41.3286 55.9854C41.2993 56.3206 41.2147 56.6217 41.0747 56.8887C40.938 57.1556 40.7524 57.3835 40.5181 57.5723C40.2869 57.7611 40.0151 57.9108 39.7026 58.0215L39.4487 58.1191H37.6714L37.7935 57.3525L38.9849 57.3623C39.2583 57.359 39.4992 57.2988 39.7075 57.1816C39.9159 57.0612 40.0835 56.8968 40.2104 56.6885C40.3407 56.4801 40.4204 56.2441 40.4497 55.9805C40.479 55.7493 40.4725 55.5361 40.4302 55.3408C40.3879 55.1455 40.2967 54.9876 40.1567 54.8672C40.02 54.7435 39.8215 54.6768 39.561 54.667L38.4575 54.6621L37.354 61H36.48L37.7104 53.8906ZM39.8101 61L38.9995 57.7773L39.8638 57.7725L40.7524 60.9365L40.7476 61H39.8101ZM43.77 53.8906L42.5347 61H41.6558L42.8911 53.8906H43.77ZM47.9009 60.2334L47.7642 61H44.7661L44.9028 60.2334H47.9009ZM46.1626 53.8906L44.9272 61H44.0532L45.2837 53.8906H46.1626ZM48.0669 56.9473L47.9351 57.7139H45.3374L45.4741 56.9473H48.0669ZM48.9556 53.8906L48.8188 54.6621H45.8647L46.0015 53.8906H48.9556ZM54.6245 53.8906L53.394 61H52.5347L50.7134 55.4775L49.7563 61H48.8774L50.1079 53.8906H50.9624L52.7935 59.4277L53.7554 53.8906H54.6245ZM58.7212 58.7441L59.5757 58.7344C59.5106 59.1934 59.3722 59.6035 59.1606 59.9648C58.9523 60.3262 58.6724 60.6094 58.3208 60.8145C57.9725 61.0163 57.5526 61.1107 57.061 61.0977C56.6606 61.0879 56.3319 60.9902 56.0747 60.8047C55.8208 60.6191 55.6255 60.3783 55.4888 60.082C55.3553 59.7858 55.2723 59.4652 55.2397 59.1201C55.2072 58.7718 55.2121 58.4316 55.2544 58.0996L55.4595 56.7861C55.5181 56.415 55.6157 56.0505 55.7524 55.6924C55.8892 55.3311 56.0715 55.0055 56.2993 54.7158C56.5272 54.4261 56.8022 54.1982 57.1245 54.0322C57.4468 53.863 57.8211 53.7832 58.2476 53.793C58.7131 53.8027 59.0809 53.9183 59.3511 54.1396C59.6245 54.361 59.8166 54.6507 59.9272 55.0088C60.0379 55.3669 60.0851 55.7559 60.0688 56.1758L59.1899 56.1709C59.1997 55.9137 59.1851 55.6647 59.146 55.4238C59.1102 55.1797 59.0207 54.9779 58.8774 54.8184C58.7342 54.6556 58.5063 54.5693 58.1938 54.5596C57.8879 54.5498 57.6258 54.6117 57.4077 54.7451C57.1896 54.8753 57.009 55.0511 56.8657 55.2725C56.7225 55.4938 56.6086 55.7363 56.5239 56C56.4393 56.2637 56.3774 56.5225 56.3384 56.7764L56.1333 58.1045C56.104 58.3096 56.0861 58.5374 56.0796 58.7881C56.0763 59.0387 56.1024 59.2796 56.1577 59.5107C56.2131 59.7419 56.3156 59.9339 56.4653 60.0869C56.6151 60.2399 56.8299 60.3229 57.1099 60.3359C57.4614 60.349 57.743 60.2855 57.9546 60.1455C58.1662 60.0055 58.3306 59.8135 58.4478 59.5693C58.5649 59.3219 58.6561 59.0469 58.7212 58.7441ZM64.2388 60.2334L64.1021 61H61.104L61.2407 60.2334H64.2388ZM62.5005 53.8906L61.2651 61H60.3911L61.6216 53.8906H62.5005ZM64.4048 56.9473L64.2729 57.7139H61.6753L61.812 56.9473H64.4048ZM65.2935 53.8906L65.1567 54.6621H62.2026L62.3394 53.8906H65.2935ZM66.8364 61H65.6011L65.7476 60.2334L66.8608 60.2383C67.3166 60.2415 67.6958 60.1488 67.9985 59.96C68.3013 59.7679 68.5389 59.5075 68.7114 59.1787C68.884 58.8467 69.0028 58.4707 69.0679 58.0508L69.2485 56.8301C69.2843 56.5729 69.2974 56.319 69.2876 56.0684C69.2778 55.8145 69.2323 55.5833 69.1509 55.375C69.0695 55.1667 68.9377 54.999 68.7554 54.8721C68.5731 54.7451 68.3257 54.6768 68.0132 54.667L66.6753 54.6621L66.812 53.8906L68.0376 53.8955C68.4575 53.9053 68.8123 53.9932 69.1021 54.1592C69.3918 54.3219 69.6196 54.5417 69.7856 54.8184C69.9517 55.0918 70.0607 55.4027 70.1128 55.751C70.1649 56.0993 70.1665 56.4639 70.1177 56.8447L69.937 58.0508C69.8719 58.4772 69.7596 58.8711 69.6001 59.2324C69.4406 59.5938 69.2323 59.9079 68.9751 60.1748C68.7179 60.4385 68.4103 60.6436 68.0522 60.79C67.6974 60.9333 67.2922 61.0033 66.8364 61ZM67.3247 53.8906L66.0894 61H65.2153L66.4458 53.8906H67.3247ZM19.5513 65.8906L18.3159 73H17.4468L18.6821 65.8906H19.5513ZM21.3628 65.8906L21.2261 66.6621H16.7339L16.8706 65.8906H21.3628ZM22.3784 65.8906L24.2485 65.8955C24.6685 65.9085 25.0135 66.0046 25.2837 66.1836C25.5571 66.3594 25.7524 66.6019 25.8696 66.9111C25.9901 67.2171 26.0324 67.5752 25.9966 67.9854C25.9673 68.3206 25.8826 68.6217 25.7427 68.8887C25.606 69.1556 25.4204 69.3835 25.186 69.5723C24.9549 69.7611 24.6831 69.9108 24.3706 70.0215L24.1167 70.1191H22.3394L22.4614 69.3525L23.6528 69.3623C23.9263 69.359 24.1672 69.2988 24.3755 69.1816C24.5838 69.0612 24.7515 68.8968 24.8784 68.6885C25.0086 68.4801 25.0884 68.2441 25.1177 67.9805C25.147 67.7493 25.1405 67.5361 25.0981 67.3408C25.0558 67.1455 24.9647 66.9876 24.8247 66.8672C24.688 66.7435 24.4894 66.6768 24.229 66.667L23.1255 66.6621L22.022 73H21.1479L22.3784 65.8906ZM24.478 73L23.6675 69.7773L24.5317 69.7725L25.4204 72.9365L25.4155 73H24.478ZM29.644 66.5693L26.6606 73H25.7329L29.1899 65.8906H29.771L29.644 66.5693ZM30.064 73L29.2974 66.4668L29.3901 65.8906H29.9419L30.9282 73H30.064ZM30.5132 70.3682L30.3765 71.1396H27.0464L27.1831 70.3682H30.5132ZM34.0337 65.8906L32.7983 73H31.9194L33.1548 65.8906H34.0337ZM40.064 65.8906L38.8335 73H37.9741L36.1528 67.4775L35.1958 73H34.3169L35.5474 65.8906H36.4019L38.2329 71.4277L39.1948 65.8906H40.064ZM44.1802 72.2334L44.0435 73H41.0454L41.1821 72.2334H44.1802ZM42.4419 65.8906L41.2065 73H40.3325L41.563 65.8906H42.4419ZM44.3462 68.9473L44.2144 69.7139H41.6167L41.7534 68.9473H44.3462ZM45.2349 65.8906L45.0981 66.6621H42.144L42.2808 65.8906H45.2349ZM46.3921 65.8906L48.2622 65.8955C48.6821 65.9085 49.0272 66.0046 49.2974 66.1836C49.5708 66.3594 49.7661 66.6019 49.8833 66.9111C50.0037 67.2171 50.0461 67.5752 50.0103 67.9854C49.981 68.3206 49.8963 68.6217 49.7563 68.8887C49.6196 69.1556 49.4341 69.3835 49.1997 69.5723C48.9686 69.7611 48.6968 69.9108 48.3843 70.0215L48.1304 70.1191H46.353L46.4751 69.3525L47.6665 69.3623C47.9399 69.359 48.1808 69.2988 48.3892 69.1816C48.5975 69.0612 48.7651 68.8968 48.8921 68.6885C49.0223 68.4801 49.1021 68.2441 49.1313 67.9805C49.1606 67.7493 49.1541 67.5361 49.1118 67.3408C49.0695 67.1455 48.9784 66.9876 48.8384 66.8672C48.7017 66.7435 48.5031 66.6768 48.2427 66.667L47.1392 66.6621L46.0356 73H45.1616L46.3921 65.8906ZM48.4917 73L47.6812 69.7773L48.5454 69.7725L49.4341 72.9365L49.4292 73H48.4917ZM53.6333 71.1641C53.6561 70.9753 53.6463 70.8125 53.604 70.6758C53.5649 70.5358 53.4982 70.4154 53.4038 70.3145C53.3094 70.2135 53.1955 70.124 53.062 70.0459C52.9285 69.9678 52.7821 69.8945 52.6226 69.8262C52.3947 69.7285 52.1815 69.6162 51.9829 69.4893C51.7876 69.3623 51.6167 69.2174 51.4702 69.0547C51.327 68.8887 51.2179 68.6999 51.1431 68.4883C51.0715 68.2767 51.047 68.0358 51.0698 67.7656C51.0926 67.4727 51.1659 67.2041 51.2896 66.96C51.4132 66.7158 51.5744 66.5059 51.7729 66.3301C51.9748 66.1543 52.2043 66.0192 52.4614 65.9248C52.7218 65.8304 52.9969 65.7865 53.2866 65.793C53.6935 65.8027 54.0337 65.9069 54.3071 66.1055C54.5838 66.3008 54.7889 66.5612 54.9224 66.8867C55.0558 67.209 55.1095 67.5605 55.0835 67.9414H54.2046C54.2241 67.707 54.2078 67.4857 54.1558 67.2773C54.1069 67.069 54.0093 66.8997 53.8628 66.7695C53.7163 66.6393 53.508 66.571 53.2378 66.5645C52.9969 66.5579 52.7837 66.6068 52.5981 66.7109C52.4159 66.8118 52.2677 66.9535 52.1538 67.1357C52.0431 67.318 51.9748 67.5247 51.9487 67.7559C51.9259 67.9251 51.939 68.0749 51.9878 68.2051C52.0366 68.332 52.1082 68.446 52.2026 68.5469C52.3003 68.6445 52.4126 68.7308 52.5396 68.8057C52.6698 68.8805 52.8032 68.9473 52.9399 69.0059C53.1906 69.11 53.4168 69.2272 53.6187 69.3574C53.8205 69.4876 53.9914 69.6374 54.1313 69.8066C54.2746 69.9759 54.3787 70.1712 54.4438 70.3926C54.5122 70.6139 54.5334 70.8695 54.5073 71.1592C54.4813 71.4619 54.4048 71.7354 54.2778 71.9795C54.1509 72.2204 53.9849 72.4255 53.7798 72.5947C53.5747 72.764 53.3403 72.8926 53.0767 72.9805C52.813 73.0651 52.5314 73.1042 52.2319 73.0977C51.9259 73.0911 51.6509 73.0326 51.4067 72.9219C51.1626 72.8079 50.9559 72.6533 50.7866 72.458C50.6174 72.2594 50.492 72.0316 50.4106 71.7744C50.3293 71.514 50.2967 71.234 50.313 70.9346L51.1919 70.9395C51.1756 71.1283 51.1838 71.3073 51.2163 71.4766C51.2521 71.6426 51.314 71.7891 51.4019 71.916C51.4897 72.043 51.6053 72.1439 51.7485 72.2188C51.895 72.2904 52.0724 72.3278 52.2808 72.3311C52.5249 72.3376 52.743 72.2936 52.9351 72.1992C53.1271 72.1048 53.2834 71.9697 53.4038 71.7939C53.5275 71.6149 53.604 71.4049 53.6333 71.1641Z" fill="#F0EAE1"/>
<defs>
<filter id="filter0_d_293_2545" x="0.113525" y="0.0241699" width="89.6208" height="118.952" filterUnits="userSpaceOnUse" color-interpolation-filters="sRGB">
<feFlood flood-opacity="0" result="BackgroundImageFix"/>
<feColorMatrix in="SourceAlpha" type="matrix" values="0 0 0 0 0 0 0 0 0 0 0 0 0 0 0 0 0 0 127 0" result="hardAlpha"/>
<feOffset dy="4"/>
<feGaussianBlur stdDeviation="2"/>
<feComposite in2="hardAlpha" operator="out"/>
<feColorMatrix type="matrix" values="0 0 0 0 0 0 0 0 0 0 0 0 0 0 0 0 0 0 0.25 0"/>
<feBlend mode="normal" in2="BackgroundImageFix" result="effect1_dropShadow_293_2545"/>
<feBlend mode="normal" in="SourceGraphic" in2="effect1_dropShadow_293_2545" result="shape"/>
</filter>
</defs>
</svg>
