<svg width="82" height="111" viewBox="0 0 82 111" fill="none" xmlns="http://www.w3.org/2000/svg">
<path d="M19.9996 110.628C8.95415 110.561 0.0509625 101.553 0.113828 90.5074L0.606185 3.99992C0.618758 1.79081 2.41978 0.0108457 4.62888 0.0242543L61.8483 0.37156C72.8938 0.438604 81.797 9.44711 81.7341 20.4926L81.2418 107C81.2292 109.209 79.4282 110.989 77.2191 110.976L19.9996 110.628Z" fill="#95A6B5"/>
<path d="M24.0078 30.9141L21.125 48H17.6445L19.8594 35.2383L16.5664 36.4219L17.0938 33.4102L23.5977 30.9258L24.0078 30.9141ZM28.8781 40.3008L26.0656 39.5859L28.2688 30.9375H36.4953L36.0266 33.8906H30.7063L29.7219 37.418C29.9953 37.2305 30.2922 37.082 30.6125 36.9727C30.9328 36.8633 31.257 36.8008 31.5852 36.7852C32.3664 36.793 33.0031 36.9688 33.4953 37.3125C33.9953 37.6484 34.3781 38.0977 34.6438 38.6602C34.9172 39.2148 35.0969 39.8242 35.1828 40.4883C35.2766 41.1523 35.2961 41.7969 35.2414 42.4219C35.1789 43.1875 35.0031 43.9219 34.7141 44.625C34.425 45.3281 34.0383 45.957 33.5539 46.5117C33.0695 47.0586 32.4953 47.4922 31.8313 47.8125C31.175 48.125 30.4406 48.2695 29.6281 48.2461C28.925 48.2305 28.2961 48.0859 27.7414 47.8125C27.1867 47.5312 26.7141 47.1562 26.3234 46.6875C25.9406 46.2188 25.6516 45.6836 25.4563 45.082C25.2688 44.4805 25.1828 43.8477 25.1984 43.1836H28.6672C28.6672 43.4648 28.6906 43.7695 28.7375 44.0977C28.7844 44.418 28.8898 44.6992 29.0539 44.9414C29.218 45.1836 29.4797 45.3125 29.8391 45.3281C30.2297 45.3438 30.5461 45.2461 30.7883 45.0352C31.0305 44.8164 31.218 44.5391 31.3508 44.2031C31.4836 43.8672 31.5813 43.5195 31.6438 43.1602C31.7063 42.793 31.7453 42.4727 31.7609 42.1992C31.7844 41.9414 31.7961 41.6523 31.7961 41.332C31.8039 41.0117 31.7688 40.707 31.6906 40.418C31.6125 40.1289 31.4758 39.8906 31.2805 39.7031C31.093 39.5156 30.8234 39.4219 30.4719 39.4219C30.1281 39.4219 29.8234 39.5039 29.5578 39.668C29.3 39.8242 29.0734 40.0352 28.8781 40.3008ZM47.7687 37.9453L47.3117 40.9688C47.1945 41.7891 47.0031 42.6289 46.7375 43.4883C46.4797 44.3477 46.1203 45.1445 45.6594 45.8789C45.2062 46.6055 44.632 47.1875 43.9367 47.625C43.2414 48.0625 42.3937 48.2656 41.3937 48.2344C40.6359 48.2188 40.0031 48.0547 39.4953 47.7422C38.9953 47.4219 38.593 47.0078 38.2883 46.5C37.9914 45.9844 37.7766 45.4141 37.6437 44.7891C37.5109 44.1562 37.4406 43.5117 37.4328 42.8555C37.425 42.1992 37.4562 41.5742 37.5266 40.9805L37.9953 37.9453C38.1125 37.125 38.3 36.2891 38.5578 35.4375C38.8234 34.5781 39.1867 33.7852 39.6477 33.0586C40.1086 32.3242 40.6867 31.7422 41.382 31.3125C42.0852 30.875 42.9328 30.6719 43.925 30.7031C44.675 30.7188 45.3039 30.8867 45.8117 31.207C46.3195 31.5195 46.7219 31.9336 47.0187 32.4492C47.3156 32.957 47.5305 33.5234 47.6633 34.1484C47.7961 34.7734 47.8664 35.4141 47.8742 36.0703C47.882 36.7266 47.8469 37.3516 47.7687 37.9453ZM43.7844 41.4609L44.3703 37.4414C44.3859 37.2852 44.4133 37.0586 44.4523 36.7617C44.4992 36.457 44.5344 36.1289 44.5578 35.7773C44.5812 35.418 44.5734 35.0742 44.5344 34.7461C44.4953 34.418 44.4055 34.1445 44.2648 33.9258C44.1242 33.6992 43.9094 33.582 43.6203 33.5742C43.1906 33.543 42.8469 33.6719 42.5891 33.9609C42.3312 34.2422 42.1281 34.6055 41.9797 35.0508C41.8391 35.4883 41.7375 35.9297 41.675 36.375C41.6125 36.8203 41.5617 37.1758 41.5227 37.4414L40.9367 41.4609C40.9289 41.6094 40.9016 41.8359 40.8547 42.1406C40.8156 42.4375 40.7844 42.7695 40.7609 43.1367C40.7375 43.4961 40.7414 43.8398 40.7727 44.168C40.8117 44.4961 40.9016 44.7734 41.0422 45C41.1828 45.2188 41.3977 45.3398 41.6867 45.3633C42.1164 45.3945 42.4602 45.2656 42.718 44.9766C42.9836 44.6875 43.1867 44.3203 43.3273 43.875C43.468 43.4297 43.5695 42.9844 43.632 42.5391C43.6945 42.0859 43.7453 41.7266 43.7844 41.4609ZM58.9836 38.3789L58.4211 41.6016H48.8703L49.4328 38.3789H58.9836ZM56.6516 33.8672L54.4953 46.2891H51.2258L53.382 33.8672H56.6516Z" fill="#F0EAE1"/>
<path d="M12.082 64.2334L11.9453 65H8.94727L9.08398 64.2334H12.082ZM10.3438 57.8906L9.1084 65H8.23438L9.46484 57.8906H10.3438ZM12.248 60.9473L12.1162 61.7139H9.51855L9.65527 60.9473H12.248ZM13.1367 57.8906L13 58.6621H10.0459L10.1826 57.8906H13.1367ZM14.8359 57.8906L15.7148 60.6104L17.4385 57.8906H18.5029L16.125 61.4551L17.3799 65H16.3984L15.5098 62.2266L13.7471 65H12.668L15.0996 61.3672L13.8643 57.8906H14.8359ZM21.1494 62.2168L19.582 62.2119L19.7188 61.4453L21.1787 61.4551C21.4684 61.4518 21.7158 61.39 21.9209 61.2695C22.1292 61.1458 22.2952 60.9782 22.4189 60.7666C22.5426 60.5518 22.6208 60.306 22.6533 60.0293C22.6794 59.8079 22.6696 59.5964 22.624 59.3945C22.5785 59.1895 22.4857 59.0202 22.3457 58.8867C22.209 58.7533 22.0153 58.68 21.7646 58.667L20.3877 58.6621L19.2842 65H18.4102L19.6406 57.8906L21.7842 57.8955C22.1911 57.9085 22.5296 58.0111 22.7998 58.2031C23.0732 58.3919 23.2718 58.6442 23.3955 58.96C23.5192 59.2757 23.5632 59.6289 23.5273 60.0195C23.4883 60.472 23.3662 60.8626 23.1611 61.1914C22.9593 61.5202 22.6875 61.7741 22.3457 61.9531C22.0039 62.1322 21.6051 62.2201 21.1494 62.2168ZM27.6387 64.2334L27.502 65H24.5039L24.6406 64.2334H27.6387ZM25.9004 57.8906L24.665 65H23.791L25.0215 57.8906H25.9004ZM27.8047 60.9473L27.6729 61.7139H25.0752L25.2119 60.9473H27.8047ZM28.6934 57.8906L28.5566 58.6621H25.6025L25.7393 57.8906H28.6934ZM29.8506 57.8906L31.7207 57.8955C32.1406 57.9085 32.4857 58.0046 32.7559 58.1836C33.0293 58.3594 33.2246 58.6019 33.3418 58.9111C33.4622 59.2171 33.5046 59.5752 33.4688 59.9854C33.4395 60.3206 33.3548 60.6217 33.2148 60.8887C33.0781 61.1556 32.8926 61.3835 32.6582 61.5723C32.4271 61.7611 32.1553 61.9108 31.8428 62.0215L31.5889 62.1191H29.8115L29.9336 61.3525L31.125 61.3623C31.3984 61.359 31.6393 61.2988 31.8477 61.1816C32.056 61.0612 32.2236 60.8968 32.3506 60.6885C32.4808 60.4801 32.5605 60.2441 32.5898 59.9805C32.6191 59.7493 32.6126 59.5361 32.5703 59.3408C32.528 59.1455 32.4368 58.9876 32.2969 58.8672C32.1602 58.7435 31.9616 58.6768 31.7012 58.667L30.5977 58.6621L29.4941 65H28.6201L29.8506 57.8906ZM31.9502 65L31.1396 61.7773L32.0039 61.7725L32.8926 64.9365L32.8877 65H31.9502ZM35.9102 57.8906L34.6748 65H33.7959L35.0312 57.8906H35.9102ZM40.041 64.2334L39.9043 65H36.9062L37.043 64.2334H40.041ZM38.3027 57.8906L37.0674 65H36.1934L37.4238 57.8906H38.3027ZM40.207 60.9473L40.0752 61.7139H37.4775L37.6143 60.9473H40.207ZM41.0957 57.8906L40.959 58.6621H38.0049L38.1416 57.8906H41.0957ZM46.7646 57.8906L45.5342 65H44.6748L42.8535 59.4775L41.8965 65H41.0176L42.248 57.8906H43.1025L44.9336 63.4277L45.8955 57.8906H46.7646ZM50.8613 62.7441L51.7158 62.7344C51.6507 63.1934 51.5124 63.6035 51.3008 63.9648C51.0924 64.3262 50.8125 64.6094 50.4609 64.8145C50.1126 65.0163 49.6927 65.1107 49.2012 65.0977C48.8008 65.0879 48.472 64.9902 48.2148 64.8047C47.9609 64.6191 47.7656 64.3783 47.6289 64.082C47.4954 63.7858 47.4124 63.4652 47.3799 63.1201C47.3473 62.7718 47.3522 62.4316 47.3945 62.0996L47.5996 60.7861C47.6582 60.415 47.7559 60.0505 47.8926 59.6924C48.0293 59.3311 48.2116 59.0055 48.4395 58.7158C48.6673 58.4261 48.9424 58.1982 49.2646 58.0322C49.5869 57.863 49.9613 57.7832 50.3877 57.793C50.8532 57.8027 51.221 57.9183 51.4912 58.1396C51.7646 58.361 51.9567 58.6507 52.0674 59.0088C52.1781 59.3669 52.2253 59.7559 52.209 60.1758L51.3301 60.1709C51.3398 59.9137 51.3252 59.6647 51.2861 59.4238C51.2503 59.1797 51.1608 58.9779 51.0176 58.8184C50.8743 58.6556 50.6465 58.5693 50.334 58.5596C50.028 58.5498 49.766 58.6117 49.5479 58.7451C49.3298 58.8753 49.1491 59.0511 49.0059 59.2725C48.8626 59.4938 48.7487 59.7363 48.6641 60C48.5794 60.2637 48.5176 60.5225 48.4785 60.7764L48.2734 62.1045C48.2441 62.3096 48.2262 62.5374 48.2197 62.7881C48.2165 63.0387 48.2425 63.2796 48.2979 63.5107C48.3532 63.7419 48.4557 63.9339 48.6055 64.0869C48.7552 64.2399 48.9701 64.3229 49.25 64.3359C49.6016 64.349 49.8831 64.2855 50.0947 64.1455C50.3063 64.0055 50.4707 63.8135 50.5879 63.5693C50.7051 63.3219 50.7962 63.0469 50.8613 62.7441ZM56.3789 64.2334L56.2422 65H53.2441L53.3809 64.2334H56.3789ZM54.6406 57.8906L53.4053 65H52.5312L53.7617 57.8906H54.6406ZM56.5449 60.9473L56.4131 61.7139H53.8154L53.9521 60.9473H56.5449ZM57.4336 57.8906L57.2969 58.6621H54.3428L54.4795 57.8906H57.4336ZM58.9766 65H57.7412L57.8877 64.2334L59.001 64.2383C59.4567 64.2415 59.8359 64.1488 60.1387 63.96C60.4414 63.7679 60.679 63.5075 60.8516 63.1787C61.0241 62.8467 61.1429 62.4707 61.208 62.0508L61.3887 60.8301C61.4245 60.5729 61.4375 60.319 61.4277 60.0684C61.418 59.8145 61.3724 59.5833 61.291 59.375C61.2096 59.1667 61.0778 58.999 60.8955 58.8721C60.7132 58.7451 60.4658 58.6768 60.1533 58.667L58.8154 58.6621L58.9521 57.8906L60.1777 57.8955C60.5977 57.9053 60.9525 57.9932 61.2422 58.1592C61.5319 58.3219 61.7598 58.5417 61.9258 58.8184C62.0918 59.0918 62.2008 59.4027 62.2529 59.751C62.305 60.0993 62.3066 60.4639 62.2578 60.8447L62.0771 62.0508C62.012 62.4772 61.8997 62.8711 61.7402 63.2324C61.5807 63.5938 61.3724 63.9079 61.1152 64.1748C60.8581 64.4385 60.5505 64.6436 60.1924 64.79C59.8376 64.9333 59.4323 65.0033 58.9766 65ZM59.4648 57.8906L58.2295 65H57.3555L58.5859 57.8906H59.4648ZM11.6914 69.8906L10.4561 77H9.58691L10.8223 69.8906H11.6914ZM13.5029 69.8906L13.3662 70.6621H8.87402L9.01074 69.8906H13.5029ZM14.5186 69.8906L16.3887 69.8955C16.8086 69.9085 17.1536 70.0046 17.4238 70.1836C17.6973 70.3594 17.8926 70.6019 18.0098 70.9111C18.1302 71.2171 18.1725 71.5752 18.1367 71.9854C18.1074 72.3206 18.0228 72.6217 17.8828 72.8887C17.7461 73.1556 17.5605 73.3835 17.3262 73.5723C17.0951 73.7611 16.8232 73.9108 16.5107 74.0215L16.2568 74.1191H14.4795L14.6016 73.3525L15.793 73.3623C16.0664 73.359 16.3073 73.2988 16.5156 73.1816C16.724 73.0612 16.8916 72.8968 17.0186 72.6885C17.1488 72.4801 17.2285 72.2441 17.2578 71.9805C17.2871 71.7493 17.2806 71.5361 17.2383 71.3408C17.196 71.1455 17.1048 70.9876 16.9648 70.8672C16.8281 70.7435 16.6296 70.6768 16.3691 70.667L15.2656 70.6621L14.1621 77H13.2881L14.5186 69.8906ZM16.6182 77L15.8076 73.7773L16.6719 73.7725L17.5605 76.9365L17.5557 77H16.6182ZM21.7842 70.5693L18.8008 77H17.873L21.3301 69.8906H21.9111L21.7842 70.5693ZM22.2041 77L21.4375 70.4668L21.5303 69.8906H22.082L23.0684 77H22.2041ZM22.6533 74.3682L22.5166 75.1396H19.1865L19.3232 74.3682H22.6533ZM26.1738 69.8906L24.9385 77H24.0596L25.2949 69.8906H26.1738ZM32.2041 69.8906L30.9736 77H30.1143L28.293 71.4775L27.3359 77H26.457L27.6875 69.8906H28.542L30.373 75.4277L31.335 69.8906H32.2041ZM36.3203 76.2334L36.1836 77H33.1855L33.3223 76.2334H36.3203ZM34.582 69.8906L33.3467 77H32.4727L33.7031 69.8906H34.582ZM36.4863 72.9473L36.3545 73.7139H33.7568L33.8936 72.9473H36.4863ZM37.375 69.8906L37.2383 70.6621H34.2842L34.4209 69.8906H37.375ZM38.5322 69.8906L40.4023 69.8955C40.8223 69.9085 41.1673 70.0046 41.4375 70.1836C41.7109 70.3594 41.9062 70.6019 42.0234 70.9111C42.1439 71.2171 42.1862 71.5752 42.1504 71.9854C42.1211 72.3206 42.0365 72.6217 41.8965 72.8887C41.7598 73.1556 41.5742 73.3835 41.3398 73.5723C41.1087 73.7611 40.8369 73.9108 40.5244 74.0215L40.2705 74.1191H38.4932L38.6152 73.3525L39.8066 73.3623C40.0801 73.359 40.321 73.2988 40.5293 73.1816C40.7376 73.0612 40.9053 72.8968 41.0322 72.6885C41.1624 72.4801 41.2422 72.2441 41.2715 71.9805C41.3008 71.7493 41.2943 71.5361 41.252 71.3408C41.2096 71.1455 41.1185 70.9876 40.9785 70.8672C40.8418 70.7435 40.6432 70.6768 40.3828 70.667L39.2793 70.6621L38.1758 77H37.3018L38.5322 69.8906ZM40.6318 77L39.8213 73.7773L40.6855 73.7725L41.5742 76.9365L41.5693 77H40.6318ZM45.7734 75.1641C45.7962 74.9753 45.7865 74.8125 45.7441 74.6758C45.7051 74.5358 45.6383 74.4154 45.5439 74.3145C45.4495 74.2135 45.3356 74.124 45.2021 74.0459C45.0687 73.9678 44.9222 73.8945 44.7627 73.8262C44.5348 73.7285 44.3216 73.6162 44.123 73.4893C43.9277 73.3623 43.7568 73.2174 43.6104 73.0547C43.4671 72.8887 43.3581 72.6999 43.2832 72.4883C43.2116 72.2767 43.1872 72.0358 43.21 71.7656C43.2327 71.4727 43.306 71.2041 43.4297 70.96C43.5534 70.7158 43.7145 70.5059 43.9131 70.3301C44.1149 70.1543 44.3444 70.0192 44.6016 69.9248C44.862 69.8304 45.137 69.7865 45.4268 69.793C45.8337 69.8027 46.1738 69.9069 46.4473 70.1055C46.724 70.3008 46.929 70.5612 47.0625 70.8867C47.196 71.209 47.2497 71.5605 47.2236 71.9414H46.3447C46.3643 71.707 46.348 71.4857 46.2959 71.2773C46.2471 71.069 46.1494 70.8997 46.0029 70.7695C45.8564 70.6393 45.6481 70.571 45.3779 70.5645C45.137 70.5579 44.9238 70.6068 44.7383 70.7109C44.556 70.8118 44.4079 70.9535 44.2939 71.1357C44.1833 71.318 44.1149 71.5247 44.0889 71.7559C44.0661 71.9251 44.0791 72.0749 44.1279 72.2051C44.1768 72.332 44.2484 72.446 44.3428 72.5469C44.4404 72.6445 44.5527 72.7308 44.6797 72.8057C44.8099 72.8805 44.9434 72.9473 45.0801 73.0059C45.3307 73.11 45.557 73.2272 45.7588 73.3574C45.9606 73.4876 46.1315 73.6374 46.2715 73.8066C46.4147 73.9759 46.5189 74.1712 46.584 74.3926C46.6523 74.6139 46.6735 74.8695 46.6475 75.1592C46.6214 75.4619 46.5449 75.7354 46.418 75.9795C46.291 76.2204 46.125 76.4255 45.9199 76.5947C45.7148 76.764 45.4805 76.8926 45.2168 76.9805C44.9531 77.0651 44.6715 77.1042 44.3721 77.0977C44.0661 77.0911 43.791 77.0326 43.5469 76.9219C43.3027 76.8079 43.096 76.6533 42.9268 76.458C42.7575 76.2594 42.6322 76.0316 42.5508 75.7744C42.4694 75.514 42.4368 75.234 42.4531 74.9346L43.332 74.9395C43.3158 75.1283 43.3239 75.3073 43.3564 75.4766C43.3923 75.6426 43.4541 75.7891 43.542 75.916C43.6299 76.043 43.7454 76.1439 43.8887 76.2188C44.0352 76.2904 44.2126 76.3278 44.4209 76.3311C44.665 76.3376 44.8831 76.2936 45.0752 76.1992C45.2673 76.1048 45.4235 75.9697 45.5439 75.7939C45.6676 75.6149 45.7441 75.4049 45.7734 75.1641Z" fill="#F0EAE1"/>
</svg>
