<svg width="142" height="131" viewBox="0 0 142 131" fill="none" xmlns="http://www.w3.org/2000/svg">
<path d="M20.4454 110.628C9.39995 110.561 0.496763 101.553 0.559629 90.5074L1.05199 3.99992C1.06456 1.79081 2.86558 0.0108457 5.07468 0.0242543L62.2941 0.37156C73.3396 0.438604 82.2428 9.44711 82.1799 20.4926L81.6876 107C81.675 109.209 79.874 110.989 77.6649 110.976L20.4454 110.628Z" fill="#95A6B5"/>
<path d="M21.8677 27.9141L18.9849 45H15.5044L17.7192 32.2383L14.4263 33.4219L14.9536 30.4102L21.4575 27.9258L21.8677 27.9141ZM33.7927 34.9453L33.3356 37.9688C33.2185 38.7891 33.0271 39.6289 32.7614 40.4883C32.5036 41.3477 32.1442 42.1445 31.6833 42.8789C31.2302 43.6055 30.656 44.1875 29.9606 44.625C29.2653 45.0625 28.4177 45.2656 27.4177 45.2344C26.6599 45.2188 26.0271 45.0547 25.5192 44.7422C25.0192 44.4219 24.6169 44.0078 24.3122 43.5C24.0153 42.9844 23.8005 42.4141 23.6677 41.7891C23.5349 41.1562 23.4646 40.5117 23.4567 39.8555C23.4489 39.1992 23.4802 38.5742 23.5505 37.9805L24.0192 34.9453C24.1364 34.125 24.3239 33.2891 24.5817 32.4375C24.8474 31.5781 25.2106 30.7852 25.6716 30.0586C26.1325 29.3242 26.7106 28.7422 27.406 28.3125C28.1091 27.875 28.9567 27.6719 29.9489 27.7031C30.6989 27.7188 31.3278 27.8867 31.8356 28.207C32.3435 28.5195 32.7458 28.9336 33.0427 29.4492C33.3396 29.957 33.5544 30.5234 33.6872 31.1484C33.82 31.7734 33.8903 32.4141 33.8981 33.0703C33.906 33.7266 33.8708 34.3516 33.7927 34.9453ZM29.8083 38.4609L30.3942 34.4414C30.4099 34.2852 30.4372 34.0586 30.4763 33.7617C30.5231 33.457 30.5583 33.1289 30.5817 32.7773C30.6052 32.418 30.5974 32.0742 30.5583 31.7461C30.5192 31.418 30.4294 31.1445 30.2888 30.9258C30.1481 30.6992 29.9333 30.582 29.6442 30.5742C29.2146 30.543 28.8708 30.6719 28.613 30.9609C28.3552 31.2422 28.1521 31.6055 28.0036 32.0508C27.863 32.4883 27.7614 32.9297 27.6989 33.375C27.6364 33.8203 27.5856 34.1758 27.5466 34.4414L26.9606 38.4609C26.9528 38.6094 26.9255 38.8359 26.8786 39.1406C26.8396 39.4375 26.8083 39.7695 26.7849 40.1367C26.7614 40.4961 26.7653 40.8398 26.7966 41.168C26.8356 41.4961 26.9255 41.7734 27.0661 42C27.2067 42.2188 27.4216 42.3398 27.7106 42.3633C28.1403 42.3945 28.4841 42.2656 28.7419 41.9766C29.0075 41.6875 29.2106 41.3203 29.3513 40.875C29.4919 40.4297 29.5935 39.9844 29.656 39.5391C29.7185 39.0859 29.7692 38.7266 29.8083 38.4609ZM45.0075 35.3789L44.445 38.6016H34.8942L35.4567 35.3789H45.0075ZM42.6755 30.8672L40.5192 43.2891H37.2497L39.406 30.8672H42.6755ZM53.9958 43.3477L58.4021 32.3203H62.2106L55.6716 46.8984C55.4841 47.3359 55.2692 47.75 55.0271 48.1406C54.7927 48.5312 54.5192 48.8789 54.2067 49.1836C53.8942 49.4883 53.5349 49.7266 53.1286 49.8984C52.7224 50.0703 52.2614 50.1562 51.7458 50.1562C51.488 50.1562 51.2341 50.1289 50.9841 50.0742C50.7419 50.0195 50.4919 49.957 50.2341 49.8867L50.5505 47.2031C50.613 47.2109 50.6755 47.2148 50.738 47.2148C50.7927 47.2227 50.8474 47.2266 50.9021 47.2266C51.2224 47.2344 51.4958 47.1875 51.7224 47.0859C51.9567 46.9922 52.156 46.8516 52.32 46.6641C52.4919 46.4844 52.6403 46.2578 52.7653 45.9844L53.9958 43.3477ZM55.5661 32.3203L55.8122 41.4727L55.5544 45.2578L53.2692 45.3516L51.9333 32.3203H55.5661Z" fill="#F0EAE1"/>
<path d="M13.3296 53.8906L15.1997 53.8955C15.6196 53.9085 15.9647 54.0046 16.2349 54.1836C16.5083 54.3594 16.7036 54.6019 16.8208 54.9111C16.9412 55.2171 16.9836 55.5752 16.9478 55.9854C16.9185 56.3206 16.8338 56.6217 16.6938 56.8887C16.5571 57.1556 16.3716 57.3835 16.1372 57.5723C15.9061 57.7611 15.6343 57.9108 15.3218 58.0215L15.0679 58.1191H13.2905L13.4126 57.3525L14.604 57.3623C14.8774 57.359 15.1183 57.2988 15.3267 57.1816C15.535 57.0612 15.7026 56.8968 15.8296 56.6885C15.9598 56.4801 16.0396 56.2441 16.0688 55.9805C16.0981 55.7493 16.0916 55.5361 16.0493 55.3408C16.007 55.1455 15.9159 54.9876 15.7759 54.8672C15.6392 54.7435 15.4406 54.6768 15.1802 54.667L14.0767 54.6621L12.9731 61H12.0991L13.3296 53.8906ZM15.4292 61L14.6187 57.7773L15.4829 57.7725L16.3716 60.9365L16.3667 61H15.4292ZM21.0884 60.2334L20.9517 61H17.9536L18.0903 60.2334H21.0884ZM19.3501 53.8906L18.1147 61H17.2407L18.4712 53.8906H19.3501ZM21.2544 56.9473L21.1226 57.7139H18.5249L18.6616 56.9473H21.2544ZM22.1431 53.8906L22.0063 54.6621H19.0522L19.189 53.8906H22.1431ZM25.395 59.1641C25.4178 58.9753 25.408 58.8125 25.3657 58.6758C25.3267 58.5358 25.2599 58.4154 25.1655 58.3145C25.0711 58.2135 24.9572 58.124 24.8237 58.0459C24.6903 57.9678 24.5438 57.8945 24.3843 57.8262C24.1564 57.7285 23.9432 57.6162 23.7446 57.4893C23.5493 57.3623 23.3784 57.2174 23.2319 57.0547C23.0887 56.8887 22.9797 56.6999 22.9048 56.4883C22.8332 56.2767 22.8088 56.0358 22.8315 55.7656C22.8543 55.4727 22.9276 55.2041 23.0513 54.96C23.175 54.7158 23.3361 54.5059 23.5347 54.3301C23.7365 54.1543 23.966 54.0192 24.2231 53.9248C24.4836 53.8304 24.7586 53.7865 25.0483 53.793C25.4552 53.8027 25.7954 53.9069 26.0688 54.1055C26.3455 54.3008 26.5506 54.5612 26.6841 54.8867C26.8175 55.209 26.8713 55.5605 26.8452 55.9414H25.9663C25.9858 55.707 25.9696 55.4857 25.9175 55.2773C25.8687 55.069 25.771 54.8997 25.6245 54.7695C25.478 54.6393 25.2697 54.571 24.9995 54.5645C24.7586 54.5579 24.5454 54.6068 24.3599 54.7109C24.1776 54.8118 24.0295 54.9535 23.9155 55.1357C23.8049 55.318 23.7365 55.5247 23.7104 55.7559C23.6877 55.9251 23.7007 56.0749 23.7495 56.2051C23.7983 56.332 23.87 56.446 23.9644 56.5469C24.062 56.6445 24.1743 56.7308 24.3013 56.8057C24.4315 56.8805 24.5649 56.9473 24.7017 57.0059C24.9523 57.11 25.1785 57.2272 25.3804 57.3574C25.5822 57.4876 25.7531 57.6374 25.8931 57.8066C26.0363 57.9759 26.1405 58.1712 26.2056 58.3926C26.2739 58.6139 26.2951 58.8695 26.269 59.1592C26.243 59.4619 26.1665 59.7354 26.0396 59.9795C25.9126 60.2204 25.7466 60.4255 25.5415 60.5947C25.3364 60.764 25.1021 60.8926 24.8384 60.9805C24.5747 61.0651 24.2931 61.1042 23.9937 61.0977C23.6877 61.0911 23.4126 61.0326 23.1685 60.9219C22.9243 60.8079 22.7176 60.6533 22.5483 60.458C22.3791 60.2594 22.2537 60.0316 22.1724 59.7744C22.091 59.514 22.0584 59.234 22.0747 58.9346L22.9536 58.9395C22.9373 59.1283 22.9455 59.3073 22.978 59.4766C23.0138 59.6426 23.0757 59.7891 23.1636 59.916C23.2515 60.043 23.367 60.1439 23.5103 60.2188C23.6567 60.2904 23.8341 60.3278 24.0425 60.3311C24.2866 60.3376 24.5047 60.2936 24.6968 60.1992C24.8888 60.1048 25.0451 59.9697 25.1655 59.7939C25.2892 59.6149 25.3657 59.4049 25.395 59.1641ZM30.9419 60.2334L30.8052 61H27.8071L27.9438 60.2334H30.9419ZM29.2036 53.8906L27.9683 61H27.0942L28.3247 53.8906H29.2036ZM31.1079 56.9473L30.9761 57.7139H28.3784L28.5151 56.9473H31.1079ZM31.9966 53.8906L31.8599 54.6621H28.9058L29.0425 53.8906H31.9966ZM35.2729 54.5693L32.2896 61H31.3618L34.8188 53.8906H35.3999L35.2729 54.5693ZM35.6929 61L34.9263 54.4668L35.019 53.8906H35.5708L36.5571 61H35.6929ZM36.1421 58.3682L36.0054 59.1396H32.6753L32.812 58.3682H36.1421ZM38.7495 53.8906L40.6196 53.8955C41.0396 53.9085 41.3846 54.0046 41.6548 54.1836C41.9282 54.3594 42.1235 54.6019 42.2407 54.9111C42.3612 55.2171 42.4035 55.5752 42.3677 55.9854C42.3384 56.3206 42.2537 56.6217 42.1138 56.8887C41.9771 57.1556 41.7915 57.3835 41.5571 57.5723C41.326 57.7611 41.0542 57.9108 40.7417 58.0215L40.4878 58.1191H38.7104L38.8325 57.3525L40.0239 57.3623C40.2974 57.359 40.5382 57.2988 40.7466 57.1816C40.9549 57.0612 41.1226 56.8968 41.2495 56.6885C41.3797 56.4801 41.4595 56.2441 41.4888 55.9805C41.5181 55.7493 41.5116 55.5361 41.4692 55.3408C41.4269 55.1455 41.3358 54.9876 41.1958 54.8672C41.0591 54.7435 40.8605 54.6768 40.6001 54.667L39.4966 54.6621L38.3931 61H37.519L38.7495 53.8906ZM40.8491 61L40.0386 57.7773L40.9028 57.7725L41.7915 60.9365L41.7866 61H40.8491ZM46.4888 58.7441L47.3433 58.7344C47.2782 59.1934 47.1398 59.6035 46.9282 59.9648C46.7199 60.3262 46.4399 60.6094 46.0884 60.8145C45.7401 61.0163 45.3201 61.1107 44.8286 61.0977C44.4282 61.0879 44.0994 60.9902 43.8423 60.8047C43.5884 60.6191 43.3931 60.3783 43.2563 60.082C43.1229 59.7858 43.0399 59.4652 43.0073 59.1201C42.9748 58.7718 42.9797 58.4316 43.022 58.0996L43.2271 56.7861C43.2856 56.415 43.3833 56.0505 43.52 55.6924C43.6567 55.3311 43.839 55.0055 44.0669 54.7158C44.2948 54.4261 44.5698 54.1982 44.8921 54.0322C45.2144 53.863 45.5887 53.7832 46.0151 53.793C46.4806 53.8027 46.8485 53.9183 47.1187 54.1396C47.3921 54.361 47.5841 54.6507 47.6948 55.0088C47.8055 55.3669 47.8527 55.7559 47.8364 56.1758L46.9575 56.1709C46.9673 55.9137 46.9526 55.6647 46.9136 55.4238C46.8778 55.1797 46.7882 54.9779 46.645 54.8184C46.5018 54.6556 46.2739 54.5693 45.9614 54.5596C45.6554 54.5498 45.3934 54.6117 45.1753 54.7451C44.9572 54.8753 44.7765 55.0511 44.6333 55.2725C44.4901 55.4938 44.3761 55.7363 44.2915 56C44.2069 56.2637 44.145 56.5225 44.106 56.7764L43.9009 58.1045C43.8716 58.3096 43.8537 58.5374 43.8472 58.7881C43.8439 59.0387 43.87 59.2796 43.9253 59.5107C43.9806 59.7419 44.0832 59.9339 44.2329 60.0869C44.3826 60.2399 44.5975 60.3229 44.8774 60.3359C45.229 60.349 45.5106 60.2855 45.7222 60.1455C45.9338 60.0055 46.0981 59.8135 46.2153 59.5693C46.3325 59.3219 46.4237 59.0469 46.4888 58.7441ZM52.6118 56.9473L52.4751 57.7139H49.4771L49.6138 56.9473H52.6118ZM50.2681 53.8906L49.0327 61H48.1587L49.3892 53.8906H50.2681ZM53.9106 53.8906L52.6753 61H51.8013L53.0317 53.8906H53.9106ZM59.8042 54.5693L56.8208 61H55.8931L59.3501 53.8906H59.9312L59.8042 54.5693ZM60.2241 61L59.4575 54.4668L59.5503 53.8906H60.1021L61.0884 61H60.2241ZM60.6733 58.3682L60.5366 59.1396H57.2065L57.3433 58.3682H60.6733ZM67.7925 53.8906L66.562 61H65.7026L63.8813 55.4775L62.9243 61H62.0454L63.2759 53.8906H64.1304L65.9614 59.4277L66.9233 53.8906H67.7925ZM69.6821 61H68.4468L68.5933 60.2334L69.7065 60.2383C70.1623 60.2415 70.5415 60.1488 70.8442 59.96C71.147 59.7679 71.3846 59.5075 71.5571 59.1787C71.7297 58.8467 71.8485 58.4707 71.9136 58.0508L72.0942 56.8301C72.13 56.5729 72.1431 56.319 72.1333 56.0684C72.1235 55.8145 72.078 55.5833 71.9966 55.375C71.9152 55.1667 71.7834 54.999 71.6011 54.8721C71.4188 54.7451 71.1714 54.6768 70.8589 54.667L69.521 54.6621L69.6577 53.8906L70.8833 53.8955C71.3032 53.9053 71.658 53.9932 71.9478 54.1592C72.2375 54.3219 72.4653 54.5417 72.6313 54.8184C72.7974 55.0918 72.9064 55.4027 72.9585 55.751C73.0106 56.0993 73.0122 56.4639 72.9634 56.8447L72.7827 58.0508C72.7176 58.4772 72.6053 58.8711 72.4458 59.2324C72.2863 59.5938 72.078 59.9079 71.8208 60.1748C71.5636 60.4385 71.256 60.6436 70.8979 60.79C70.5431 60.9333 70.1379 61.0033 69.6821 61ZM70.1704 53.8906L68.9351 61H68.061L69.2915 53.8906H70.1704ZM15.9419 72.2334L15.8052 73H12.8071L12.9438 72.2334H15.9419ZM14.2036 65.8906L12.9683 73H12.0942L13.3247 65.8906H14.2036ZM16.1079 68.9473L15.9761 69.7139H13.3784L13.5151 68.9473H16.1079ZM16.9966 65.8906L16.8599 66.6621H13.9058L14.0425 65.8906H16.9966ZM18.6958 65.8906L19.5747 68.6104L21.2983 65.8906H22.3628L19.9849 69.4551L21.2397 73H20.2583L19.3696 70.2266L17.6069 73H16.5278L18.9595 69.3672L17.7241 65.8906H18.6958ZM25.0093 70.2168L23.4419 70.2119L23.5786 69.4453L25.0386 69.4551C25.3283 69.4518 25.5757 69.39 25.7808 69.2695C25.9891 69.1458 26.1551 68.9782 26.2788 68.7666C26.4025 68.5518 26.4806 68.306 26.5132 68.0293C26.5392 67.8079 26.5295 67.5964 26.4839 67.3945C26.4383 67.1895 26.3455 67.0202 26.2056 66.8867C26.0688 66.7533 25.8752 66.68 25.6245 66.667L24.2476 66.6621L23.144 73H22.27L23.5005 65.8906L25.644 65.8955C26.0509 65.9085 26.3895 66.0111 26.6597 66.2031C26.9331 66.3919 27.1317 66.6442 27.2554 66.96C27.3791 67.2757 27.423 67.6289 27.3872 68.0195C27.3481 68.472 27.2261 68.8626 27.021 69.1914C26.8192 69.5202 26.5474 69.7741 26.2056 69.9531C25.8638 70.1322 25.465 70.2201 25.0093 70.2168ZM31.4985 72.2334L31.3618 73H28.3638L28.5005 72.2334H31.4985ZM29.7603 65.8906L28.5249 73H27.6509L28.8813 65.8906H29.7603ZM31.6646 68.9473L31.5327 69.7139H28.9351L29.0718 68.9473H31.6646ZM32.5532 65.8906L32.4165 66.6621H29.4624L29.5991 65.8906H32.5532ZM33.7104 65.8906L35.5806 65.8955C36.0005 65.9085 36.3455 66.0046 36.6157 66.1836C36.8892 66.3594 37.0845 66.6019 37.2017 66.9111C37.3221 67.2171 37.3644 67.5752 37.3286 67.9854C37.2993 68.3206 37.2147 68.6217 37.0747 68.8887C36.938 69.1556 36.7524 69.3835 36.5181 69.5723C36.2869 69.7611 36.0151 69.9108 35.7026 70.0215L35.4487 70.1191H33.6714L33.7935 69.3525L34.9849 69.3623C35.2583 69.359 35.4992 69.2988 35.7075 69.1816C35.9159 69.0612 36.0835 68.8968 36.2104 68.6885C36.3407 68.4801 36.4204 68.2441 36.4497 67.9805C36.479 67.7493 36.4725 67.5361 36.4302 67.3408C36.3879 67.1455 36.2967 66.9876 36.1567 66.8672C36.02 66.7435 35.8215 66.6768 35.561 66.667L34.4575 66.6621L33.354 73H32.48L33.7104 65.8906ZM35.8101 73L34.9995 69.7773L35.8638 69.7725L36.7524 72.9365L36.7476 73H35.8101ZM39.77 65.8906L38.5347 73H37.6558L38.8911 65.8906H39.77ZM43.9009 72.2334L43.7642 73H40.7661L40.9028 72.2334H43.9009ZM42.1626 65.8906L40.9272 73H40.0532L41.2837 65.8906H42.1626ZM44.0669 68.9473L43.9351 69.7139H41.3374L41.4741 68.9473H44.0669ZM44.9556 65.8906L44.8188 66.6621H41.8647L42.0015 65.8906H44.9556ZM50.6245 65.8906L49.394 73H48.5347L46.7134 67.4775L45.7563 73H44.8774L46.1079 65.8906H46.9624L48.7935 71.4277L49.7554 65.8906H50.6245ZM54.7212 70.7441L55.5757 70.7344C55.5106 71.1934 55.3722 71.6035 55.1606 71.9648C54.9523 72.3262 54.6724 72.6094 54.3208 72.8145C53.9725 73.0163 53.5526 73.1107 53.061 73.0977C52.6606 73.0879 52.3319 72.9902 52.0747 72.8047C51.8208 72.6191 51.6255 72.3783 51.4888 72.082C51.3553 71.7858 51.2723 71.4652 51.2397 71.1201C51.2072 70.7718 51.2121 70.4316 51.2544 70.0996L51.4595 68.7861C51.5181 68.415 51.6157 68.0505 51.7524 67.6924C51.8892 67.3311 52.0715 67.0055 52.2993 66.7158C52.5272 66.4261 52.8022 66.1982 53.1245 66.0322C53.4468 65.863 53.8211 65.7832 54.2476 65.793C54.7131 65.8027 55.0809 65.9183 55.3511 66.1396C55.6245 66.361 55.8166 66.6507 55.9272 67.0088C56.0379 67.3669 56.0851 67.7559 56.0688 68.1758L55.1899 68.1709C55.1997 67.9137 55.1851 67.6647 55.146 67.4238C55.1102 67.1797 55.0207 66.9779 54.8774 66.8184C54.7342 66.6556 54.5063 66.5693 54.1938 66.5596C53.8879 66.5498 53.6258 66.6117 53.4077 66.7451C53.1896 66.8753 53.009 67.0511 52.8657 67.2725C52.7225 67.4938 52.6086 67.7363 52.5239 68C52.4393 68.2637 52.3774 68.5225 52.3384 68.7764L52.1333 70.1045C52.104 70.3096 52.0861 70.5374 52.0796 70.7881C52.0763 71.0387 52.1024 71.2796 52.1577 71.5107C52.2131 71.7419 52.3156 71.9339 52.4653 72.0869C52.6151 72.2399 52.8299 72.3229 53.1099 72.3359C53.4614 72.349 53.743 72.2855 53.9546 72.1455C54.1662 72.0055 54.3306 71.8135 54.4478 71.5693C54.5649 71.3219 54.6561 71.0469 54.7212 70.7441ZM60.2388 72.2334L60.1021 73H57.104L57.2407 72.2334H60.2388ZM58.5005 65.8906L57.2651 73H56.3911L57.6216 65.8906H58.5005ZM60.4048 68.9473L60.2729 69.7139H57.6753L57.812 68.9473H60.4048ZM61.2935 65.8906L61.1567 66.6621H58.2026L58.3394 65.8906H61.2935Z" fill="#F0EAE1"/>
</svg>
