<svg width="21" height="23" viewBox="0 0 21 23" fill="none" xmlns="http://www.w3.org/2000/svg">
<path d="M10.8967 6.11334C8.13145 6.11334 5.88949 8.56156 5.88949 11.5812C5.88949 14.6008 8.13145 17.049 10.8967 17.049C13.6619 17.049 15.9038 14.6008 15.9038 11.5812C15.9038 8.56156 13.6619 6.11334 10.8967 6.11334ZM10.8967 14.3151C9.51593 14.3151 8.39307 13.0889 8.39307 11.5812C8.39307 10.0734 9.51593 8.84725 10.8967 8.84725C12.2774 8.84725 13.4002 10.0734 13.4002 11.5812C13.4002 13.0889 12.2774 14.3151 10.8967 14.3151ZM14.652 0.645508H7.14128C3.68258 0.645508 0.882324 3.70339 0.882324 7.4803V15.682C0.882324 19.4576 3.68258 22.5168 7.14128 22.5168H14.652C18.1095 22.5168 20.911 19.4576 20.911 15.682V7.4803C20.911 3.70339 18.1095 0.645508 14.652 0.645508ZM18.4074 15.682C18.4074 17.9416 16.7212 19.7829 14.652 19.7829H7.14128C5.07207 19.7829 3.38591 17.9416 3.38591 15.682V7.4803C3.38591 5.22071 5.07207 3.37942 7.14128 3.37942H14.652C16.7212 3.37942 18.4074 5.22071 18.4074 7.4803V15.682ZM15.9038 4.74638C15.2116 4.74638 14.652 5.35741 14.652 6.11334C14.652 6.86927 15.2116 7.4803 15.9038 7.4803C16.5961 7.4803 17.1556 6.86927 17.1556 6.11334C17.1556 5.35741 16.5961 4.74638 15.9038 4.74638Z" fill="#F0EAE1"/>
</svg>
