<svg width="1112" height="845" viewBox="0 0 1112 845" fill="none" xmlns="http://www.w3.org/2000/svg">
<g style="mix-blend-mode:multiply" opacity="0.5">
<path d="M714.937 298.45C688.869 305.768 661.835 328.662 651.576 339.194C646.237 344.141 632.867 357.556 622.1 371.638C608.641 389.241 607.062 409.695 610.751 424.754C614.439 439.814 624.654 451.393 640.433 456.79C656.212 462.187 682.779 460.392 698.098 453.66C707.581 449.492 745.063 430.673 758.822 391.236C769.828 359.686 763.262 330.663 758.603 320.095C754.909 309.831 741.005 291.131 714.937 298.45Z" fill="#464646"/>
<path d="M680.133 260.883C670.852 286.318 645.967 311.531 634.684 320.959C629.345 325.906 614.951 338.216 600.09 347.88C581.513 359.96 560.999 359.977 546.264 355.152C531.529 350.328 520.761 339.261 516.581 323.117C512.401 306.973 516.213 280.621 524.092 265.858C528.969 256.72 550.587 220.779 590.957 210.063C623.253 201.49 651.692 210.246 661.875 215.696C671.828 220.161 689.415 235.448 680.133 260.883Z" fill="#464646"/>
<path d="M727.927 474.778C703.649 474.279 676.826 482.776 666.449 487.087C624.044 502.255 605.338 524.72 600.501 532.794C595.664 540.868 585.532 562.062 607.977 581.3C630.421 600.538 652.695 605.05 677.087 599.386C697.784 594.58 722.161 575.465 742.787 546.21C759.643 522.303 761.558 502.641 760.501 493.869C759.758 487.713 752.205 475.277 727.927 474.778Z" fill="#464646"/>
<path d="M505.392 234.604C504.041 258.849 493.527 284.948 488.438 294.966C470.086 336.094 446.263 353.035 437.843 357.243C429.424 361.451 407.521 369.941 390.048 346.097C372.574 322.253 369.77 299.701 377.275 275.81C383.642 255.539 404.557 232.689 435.298 214.349C460.419 199.362 480.169 198.949 488.835 200.671C494.917 201.88 506.742 210.359 505.392 234.604Z" fill="#464646"/>
<path d="M501.782 375.844C468.953 381.626 438.624 380.985 427.563 379.941C355.744 370.011 335.987 433.519 333.044 441.343C329.486 450.799 326.945 500.886 362.201 522.112C393.837 541.159 410.977 556.474 431.546 596.953C437.877 609.413 473.983 643.861 519.856 628.559C565.73 613.257 578.485 572.183 577.545 547.904C576.606 523.624 579.761 503.764 588.73 464.144C597.7 424.524 579.613 402.788 570.913 393.398C562.213 384.008 542.819 368.616 501.782 375.844Z" fill="#464646"/>
</g>
<path d="M42 802.5C42.0632 802.5 42.1296 802.513 42.1921 802.539L40.2768 807.158C40.8108 807.379 41.3944 807.5 42 807.5V802.5ZM42.4611 802.808C42.487 802.87 42.5 802.937 42.5 803H37.5C37.5 803.606 37.621 804.189 37.8424 804.723L42.4611 802.808ZM42.5 803V801.999H37.5V803H42.5ZM42.5 799.996V797.993H37.5V799.996H42.5ZM42.5 795.991V793.988H37.5V795.991H42.5ZM42.5 791.986V789.983H37.5V791.986H42.5ZM42.5 787.98V785.978H37.5V787.98H42.5ZM42.5 783.975V781.972H37.5V783.975H42.5ZM42.5 779.97V777.967H37.5V779.97H42.5ZM42.5 775.964V773.962H37.5V775.964H42.5ZM42.5 771.959V769.957H37.5V771.959H42.5ZM42.5 767.954V765.951H37.5V767.954H42.5ZM42.5 763.949V761.946H37.5V763.949H42.5ZM42.5 759.943V757.941H37.5V759.943H42.5ZM42.5 755.938V753.936H37.5V755.938H42.5ZM42.5 751.933V749.93H37.5V751.933H42.5ZM42.5 747.928V745.925H37.5V747.928H42.5ZM42.5 743.922V741.92H37.5V743.922H42.5ZM42.5 739.917V737.914H37.5V739.917H42.5ZM42.5 735.912V733.909H37.5V735.912H42.5ZM42.5 731.907V729.904H37.5V731.907H42.5ZM42.5 727.901V725.899H37.5V727.901H42.5ZM42.5 723.896V721.893H37.5V723.896H42.5ZM42.5 719.891V717.888H37.5V719.891H42.5ZM42.5 715.885V713.883H37.5V715.885H42.5ZM42.5 711.88V709.878H37.5V711.88H42.5ZM42.5 707.875V705.872H37.5V707.875H42.5ZM42.5 703.87V701.867H37.5V703.87H42.5ZM42.5 699.864V697.862H37.5V699.864H42.5ZM42.5 695.859V693.857H37.5V695.859H42.5ZM42.5 691.854V689.851H37.5V691.854H42.5ZM42.5 687.849V685.846H37.5V687.849H42.5ZM42.5 683.843V681.841H37.5V683.843H42.5ZM42.5 679.838V677.836H37.5V679.838H42.5ZM42.5 675.833V673.83H37.5V675.833H42.5ZM42.5 671.828V669.825H37.5V671.828H42.5ZM42.5 667.822V665.82H37.5V667.822H42.5ZM42.5 663.817V661.815H37.5V663.817H42.5ZM42.5 659.812V657.809H37.5V659.812H42.5ZM42.5 655.807V653.804H37.5V655.807H42.5ZM42.5 651.801V649.799H37.5V651.801H42.5ZM42.5 647.796V645.793H37.5V647.796H42.5ZM42.5 643.791V641.788H37.5V643.791H42.5ZM42.5 639.786V637.783H37.5V639.786H42.5ZM42.5 635.78V633.778H37.5V635.78H42.5ZM42.5 631.775V629.772H37.5V631.775H42.5ZM42.5 627.77V625.767H37.5V627.77H42.5ZM42.5 623.765V621.762H37.5V623.765H42.5ZM42.5 619.759V617.757H37.5V619.759H42.5ZM42.5 615.754V613.752H37.5V615.754H42.5ZM42.5 611.749V609.746H37.5V611.749H42.5ZM42.5 607.744V605.741H37.5V607.744H42.5ZM42.5 603.738V601.736H37.5V603.738H42.5ZM42.5 599.733V597.731H37.5V599.733H42.5ZM42.5 595.728V593.725H37.5V595.728H42.5ZM42.5 591.723V589.72H37.5V591.723H42.5ZM42.5 587.717V585.715H37.5V587.717H42.5ZM42.5 583.712V581.709H37.5V583.712H42.5ZM42.5 579.707V577.704H37.5V579.707H42.5ZM42.5 575.702V573.699H37.5V575.702H42.5ZM42.5 571.696V569.694H37.5V571.696H42.5ZM42.5 567.691V565.689H37.5V567.691H42.5ZM42.5 563.686V561.683H37.5V563.686H42.5ZM42.5 559.681V557.678H37.5V559.681H42.5ZM42.5 555.675V553.673H37.5V555.675H42.5ZM42.5 551.67V549.668H37.5V551.67H42.5ZM42.5 547.665V545.662H37.5V547.665H42.5ZM42.5 543.66V541.657H37.5V543.66H42.5ZM42.5 539.654V537.652H37.5V539.654H42.5ZM42.5 535.649V533.647H37.5V535.649H42.5ZM42.5 531.644V529.641H37.5V531.644H42.5ZM42.5 527.639V525.636H37.5V527.639H42.5ZM42.5 523.633V521.631H37.5V523.633H42.5ZM42.5 519.628V517.626H37.5V519.628H42.5ZM42.5 515.623V513.62H37.5V515.623H42.5ZM42.5 511.618V509.615H37.5V511.618H42.5ZM42.5 507.612V505.61H37.5V507.612H42.5ZM42.5 503.607V501.605H37.5V503.607H42.5ZM42.5 499.602V497.599H37.5V499.602H42.5ZM42.5 495.597V493.594H37.5V495.597H42.5ZM42.5 491.591V489.589H37.5V491.591H42.5ZM42.5 487.586V485.584H37.5V487.586H42.5ZM42.5 483.581V481.578H37.5V483.581H42.5ZM42.5 479.576V477.573H37.5V479.576H42.5ZM42.5 475.57V473.568H37.5V475.57H42.5ZM42.5 471.565V469.563H37.5V471.565H42.5ZM42.5 467.56V465.557H37.5V467.56H42.5ZM42.5 463.555V461.552H37.5V463.555H42.5ZM42.5 459.549V457.547H37.5V459.549H42.5ZM42.5 455.544V453.542H37.5V455.544H42.5ZM42.5 451.539V449.536H37.5V451.539H42.5ZM42.5 447.534V445.531H37.5V447.534H42.5ZM42.5 443.528V441.526H37.5V443.528H42.5ZM42.5 439.523V437.521H37.5V439.523H42.5ZM42.5 435.518V433.515H37.5V435.518H42.5ZM42.5 431.513V429.51H37.5V431.513H42.5ZM42.5 427.507V425.505H37.5V427.507H42.5ZM42.5 423.502V421.5H37.5V423.502H42.5ZM42.5 419.497V417.494H37.5V419.497H42.5ZM42.5 415.492V413.489H37.5V415.492H42.5ZM42.5 411.486V409.484H37.5V411.486H42.5ZM42.5 407.481V405.479H37.5V407.481H42.5ZM42.5 403.476V401.473H37.5V403.476H42.5ZM42.5 399.471V397.468H37.5V399.471H42.5ZM42.5 395.465V393.463H37.5V395.465H42.5ZM42.5 391.46V389.458H37.5V391.46H42.5ZM42.5 387.455V385.452H37.5V387.455H42.5ZM42.5 383.45V381.447H37.5V383.45H42.5ZM42.5 379.444V377.442H37.5V379.444H42.5ZM42.5 375.439V373.437H37.5V375.439H42.5ZM42.5 371.434V369.431H37.5V371.434H42.5ZM42.5 367.429V365.426H37.5V367.429H42.5ZM42.5 363.423V361.421H37.5V363.423H42.5ZM42.5 359.418V357.416H37.5V359.418H42.5ZM42.5 355.413V353.41H37.5V355.413H42.5ZM42.5 351.408V349.405H37.5V351.408H42.5ZM42.5 347.402V345.4H37.5V347.402H42.5ZM42.5 343.397V341.395H37.5V343.397H42.5ZM42.5 339.392V337.389H37.5V339.392H42.5ZM42.5 335.387V333.384H37.5V335.387H42.5ZM42.5 331.381V329.379H37.5V331.381H42.5ZM42.5 327.376V325.374H37.5V327.376H42.5ZM42.5 323.371V321.368H37.5V323.371H42.5ZM42.5 319.366V317.363H37.5V319.366H42.5ZM42.5 315.36V313.358H37.5V315.36H42.5ZM42.5 311.355V309.353H37.5V311.355H42.5ZM42.5 307.35V305.347H37.5V307.35H42.5ZM42.5 303.345V301.342H37.5V303.345H42.5ZM42.5 299.339V297.337H37.5V299.339H42.5ZM42.5 295.334V293.332H37.5V295.334H42.5ZM42.5 291.329V289.326H37.5V291.329H42.5ZM42.5 287.324V285.321H37.5V287.324H42.5ZM42.5 283.318V281.316H37.5V283.318H42.5ZM42.5 279.313V277.311H37.5V279.313H42.5ZM42.5 275.308V273.305H37.5V275.308H42.5ZM42.5 271.303V269.3H37.5V271.303H42.5ZM42.5 267.297V265.295H37.5V267.297H42.5ZM42.5 263.292V261.29H37.5V263.292H42.5ZM42.5 259.287V257.284H37.5V259.287H42.5ZM42.5 255.282V253.279H37.5V255.282H42.5ZM42.5 251.276V249.274H37.5V251.276H42.5ZM42.5 247.271V245.269H37.5V247.271H42.5ZM42.5 243.266V241.263H37.5V243.266H42.5ZM42.5 239.261V237.258H37.5V239.261H42.5ZM42.5 235.255V233.253H37.5V235.255H42.5ZM42.5 231.25V229.248H37.5V231.25H42.5ZM42.5 227.245V225.242H37.5V227.245H42.5ZM42.5 223.24V221.237H37.5V223.24H42.5ZM42.5 219.234V217.232H37.5V219.234H42.5ZM42.5 215.229V213.227H37.5V215.229H42.5ZM42.5 211.224V209.221H37.5V211.224H42.5ZM42.5 207.219V205.216H37.5V207.219H42.5ZM42.5 203.213V201.211H37.5V203.213H42.5ZM42.5 199.208V197.206H37.5V199.208H42.5ZM42.5 195.203V193.2H37.5V195.203H42.5ZM42.5 191.198V189.195H37.5V191.198H42.5ZM42.5 187.192V185.19H37.5V187.192H42.5ZM42.5 183.187V181.185H37.5V183.187H42.5ZM42.5 179.182V177.179H37.5V179.182H42.5ZM42.5 175.177V173.174H37.5V175.177H42.5ZM42.5 171.171V169.169H37.5V171.171H42.5ZM42.5 167.166V165.164H37.5V167.166H42.5ZM42.5 163.161V161.158H37.5V163.161H42.5ZM42.5 159.156V157.153H37.5V159.156H42.5ZM42.5 155.15V153.148H37.5V155.15H42.5ZM42.5 151.145V149.143H37.5V151.145H42.5ZM42.5 147.14V145.137H37.5V147.14H42.5ZM42.5 143.135V141.132H37.5V143.135H42.5ZM42.5 139.129V137.127H37.5V139.129H42.5ZM42.5 135.124V133.122H37.5V135.124H42.5ZM42.5 131.119V129.116H37.5V131.119H42.5ZM42.5 127.114V125.111H37.5V127.114H42.5ZM42.5 123.108V121.106H37.5V123.108H42.5ZM42.5 119.103V117.101H37.5V119.103H42.5ZM42.5 115.098V113.095H37.5V115.098H42.5ZM42.5 111.093V109.09H37.5V111.093H42.5ZM42.5 107.087V105.085H37.5V107.087H42.5ZM42.5 103.082V101.08H37.5V103.082H42.5ZM42.5 99.077V97.0743H37.5V99.077H42.5ZM42.5 95.0717V93.0691H37.5V95.0717H42.5ZM42.5 91.0665V89.0638H37.5V91.0665H42.5ZM42.5 87.0612V85.0586H37.5V87.0612H42.5ZM42.5 83.056V81.0534H37.5V83.056H42.5ZM42.5 79.0507V77.0481H37.5V79.0507H42.5ZM42.5 75.0455V73.0428H37.5V75.0455H42.5ZM42.5 71.0402V69.0376H37.5V71.0402H42.5ZM42.5 67.035V65.0324H37.5V67.035H42.5ZM42.5 63.0297V61.0271H37.5V63.0297H42.5ZM42.5 59.0245V57.0219H37.5V59.0245H42.5ZM42.5 55.0192V53.0166H37.5V55.0192H42.5ZM42.5 51.014V49.0113H37.5V51.014H42.5ZM42.5 47.0087V45.0061H37.5V47.0087H42.5ZM42.5 43.0035V42H37.5V43.0035H42.5ZM42.5 42C42.5 42.0632 42.487 42.1296 42.4611 42.1921L37.8424 40.2768C37.621 40.8108 37.5 41.3944 37.5 42H42.5ZM42.1921 42.4611C42.1296 42.487 42.0632 42.5 42 42.5V37.5C41.3944 37.5 40.8108 37.621 40.2768 37.8424L42.1921 42.4611ZM42 42.5H43V37.5H42V42.5ZM45 42.5H47V37.5H45V42.5ZM49 42.5H51V37.5H49V42.5ZM53 42.5H55V37.5H53V42.5ZM57 42.5H59V37.5H57V42.5ZM61 42.5H63V37.5H61V42.5ZM65 42.5H67V37.5H65V42.5ZM69 42.5H71V37.5H69V42.5ZM73 42.5H75V37.5H73V42.5ZM77 42.5H79V37.5H77V42.5ZM81 42.5H83V37.5H81V42.5ZM85 42.5H87V37.5H85V42.5ZM89 42.5H91V37.5H89V42.5ZM93 42.5H95V37.5H93V42.5ZM97 42.5H99V37.5H97V42.5ZM101 42.5H103V37.5H101V42.5ZM105 42.5H107V37.5H105V42.5ZM109 42.5H111V37.5H109V42.5ZM113 42.5H115V37.5H113V42.5ZM117 42.5H119V37.5H117V42.5ZM121 42.5H123V37.5H121V42.5ZM125 42.5H127V37.5H125V42.5ZM129 42.5H131V37.5H129V42.5ZM133 42.5H135V37.5H133V42.5ZM137 42.5H139V37.5H137V42.5ZM141 42.5H143V37.5H141V42.5ZM145 42.5H147V37.5H145V42.5ZM149 42.5H151V37.5H149V42.5ZM153 42.5H155V37.5H153V42.5ZM157 42.5H159V37.5H157V42.5ZM161 42.5H163V37.5H161V42.5ZM165 42.5H167V37.5H165V42.5ZM169 42.5H171V37.5H169V42.5ZM173 42.5H175V37.5H173V42.5ZM177 42.5H179V37.5H177V42.5ZM181 42.5H183V37.5H181V42.5ZM185 42.5H187V37.5H185V42.5ZM189 42.5H191V37.5H189V42.5ZM193 42.5H195V37.5H193V42.5ZM197 42.5H199V37.5H197V42.5ZM201 42.5H203V37.5H201V42.5ZM205 42.5H207V37.5H205V42.5ZM209 42.5H211V37.5H209V42.5ZM213 42.5H215V37.5H213V42.5ZM217 42.5H219V37.5H217V42.5ZM221 42.5H223V37.5H221V42.5ZM225 42.5H227V37.5H225V42.5ZM229 42.5H231V37.5H229V42.5ZM233 42.5H235V37.5H233V42.5ZM237 42.5H239V37.5H237V42.5ZM241 42.5H243V37.5H241V42.5ZM245 42.5H247V37.5H245V42.5ZM249 42.5H251V37.5H249V42.5ZM253 42.5H255V37.5H253V42.5ZM257 42.5H259V37.5H257V42.5ZM261 42.5H263V37.5H261V42.5ZM265 42.5H267V37.5H265V42.5ZM269 42.5H271V37.5H269V42.5ZM273 42.5H275V37.5H273V42.5ZM277 42.5H279V37.5H277V42.5ZM281 42.5H283V37.5H281V42.5ZM285 42.5H287V37.5H285V42.5ZM289 42.5H291V37.5H289V42.5ZM293 42.5H295V37.5H293V42.5ZM297 42.5H299V37.5H297V42.5ZM301 42.5H303V37.5H301V42.5ZM305 42.5H307V37.5H305V42.5ZM309 42.5H311V37.5H309V42.5ZM313 42.5H315V37.5H313V42.5ZM317 42.5H319V37.5H317V42.5ZM321 42.5H323V37.5H321V42.5ZM325 42.5H327V37.5H325V42.5ZM329 42.5H331V37.5H329V42.5ZM333 42.5H335V37.5H333V42.5ZM337 42.5H339V37.5H337V42.5ZM341 42.5H343V37.5H341V42.5ZM345 42.5H347V37.5H345V42.5ZM349 42.5H351V37.5H349V42.5ZM353 42.5H355V37.5H353V42.5ZM357 42.5H359V37.5H357V42.5ZM361 42.5H363V37.5H361V42.5ZM365 42.5H367V37.5H365V42.5ZM369 42.5H371V37.5H369V42.5ZM373 42.5H375V37.5H373V42.5ZM377 42.5H379V37.5H377V42.5ZM381 42.5H383V37.5H381V42.5ZM385 42.5H387V37.5H385V42.5ZM389 42.5H391V37.5H389V42.5ZM393 42.5H395V37.5H393V42.5ZM397 42.5H399V37.5H397V42.5ZM401 42.5H403V37.5H401V42.5ZM405 42.5H407V37.5H405V42.5ZM409 42.5H411V37.5H409V42.5ZM413 42.5H415V37.5H413V42.5ZM417 42.5H419V37.5H417V42.5ZM421 42.5H423V37.5H421V42.5ZM425 42.5H427V37.5H425V42.5ZM429 42.5H431V37.5H429V42.5ZM433 42.5H435V37.5H433V42.5ZM437 42.5H439V37.5H437V42.5ZM441 42.5H443V37.5H441V42.5ZM445 42.5H447V37.5H445V42.5ZM449 42.5H451V37.5H449V42.5ZM453 42.5H455V37.5H453V42.5ZM457 42.5H459V37.5H457V42.5ZM461 42.5H463V37.5H461V42.5ZM465 42.5H467V37.5H465V42.5ZM469 42.5H471V37.5H469V42.5ZM473 42.5H475V37.5H473V42.5ZM477 42.5H479V37.5H477V42.5ZM481 42.5H483V37.5H481V42.5ZM485 42.5H487V37.5H485V42.5ZM489 42.5H491V37.5H489V42.5ZM493 42.5H495V37.5H493V42.5ZM497 42.5H499V37.5H497V42.5ZM501 42.5H503V37.5H501V42.5ZM505 42.5H507V37.5H505V42.5ZM509 42.5H511V37.5H509V42.5ZM513 42.5H515V37.5H513V42.5ZM517 42.5H519V37.5H517V42.5ZM521 42.5H523V37.5H521V42.5ZM525 42.5H527V37.5H525V42.5ZM529 42.5H531V37.5H529V42.5ZM533 42.5H535V37.5H533V42.5ZM537 42.5H539V37.5H537V42.5ZM541 42.5H543V37.5H541V42.5ZM545 42.5H547V37.5H545V42.5ZM549 42.5H551V37.5H549V42.5ZM553 42.5H555V37.5H553V42.5ZM557 42.5H559V37.5H557V42.5ZM561 42.5H563V37.5H561V42.5ZM565 42.5H567V37.5H565V42.5ZM569 42.5H571V37.5H569V42.5ZM573 42.5H575V37.5H573V42.5ZM577 42.5H579V37.5H577V42.5ZM581 42.5H583V37.5H581V42.5ZM585 42.5H587V37.5H585V42.5ZM589 42.5H591V37.5H589V42.5ZM593 42.5H595V37.5H593V42.5ZM597 42.5H599V37.5H597V42.5ZM601 42.5H603V37.5H601V42.5ZM605 42.5H607V37.5H605V42.5ZM609 42.5H611V37.5H609V42.5ZM613 42.5H615V37.5H613V42.5ZM617 42.5H619V37.5H617V42.5ZM621 42.5H623V37.5H621V42.5ZM625 42.5H627V37.5H625V42.5ZM629 42.5H631V37.5H629V42.5ZM633 42.5H635V37.5H633V42.5ZM637 42.5H639V37.5H637V42.5ZM641 42.5H643V37.5H641V42.5ZM645 42.5H647V37.5H645V42.5ZM649 42.5H651V37.5H649V42.5ZM653 42.5H655V37.5H653V42.5ZM657 42.5H659V37.5H657V42.5ZM661 42.5H663V37.5H661V42.5ZM665 42.5H667V37.5H665V42.5ZM669 42.5H671V37.5H669V42.5ZM673 42.5H675V37.5H673V42.5ZM677 42.5H679V37.5H677V42.5ZM681 42.5H683V37.5H681V42.5ZM685 42.5H687V37.5H685V42.5ZM689 42.5H691V37.5H689V42.5ZM693 42.5H695V37.5H693V42.5ZM697 42.5H699V37.5H697V42.5ZM701 42.5H703V37.5H701V42.5ZM705 42.5H707V37.5H705V42.5ZM709 42.5H711V37.5H709V42.5ZM713 42.5H715V37.5H713V42.5ZM717 42.5H719V37.5H717V42.5ZM721 42.5H723V37.5H721V42.5ZM725 42.5H727V37.5H725V42.5ZM729 42.5H731V37.5H729V42.5ZM733 42.5H735V37.5H733V42.5ZM737 42.5H739V37.5H737V42.5ZM741 42.5H743V37.5H741V42.5ZM745 42.5H747V37.5H745V42.5ZM749 42.5H751V37.5H749V42.5ZM753 42.5H755V37.5H753V42.5ZM757 42.5H759V37.5H757V42.5ZM761 42.5H763V37.5H761V42.5ZM765 42.5H767V37.5H765V42.5ZM769 42.5H771V37.5H769V42.5ZM773 42.5H775V37.5H773V42.5ZM777 42.5H779V37.5H777V42.5ZM781 42.5H783V37.5H781V42.5ZM785 42.5H787V37.5H785V42.5ZM789 42.5H791V37.5H789V42.5ZM793 42.5H795V37.5H793V42.5ZM797 42.5H799V37.5H797V42.5ZM801 42.5H803V37.5H801V42.5ZM805 42.5H807V37.5H805V42.5ZM809 42.5H811V37.5H809V42.5ZM813 42.5H815V37.5H813V42.5ZM817 42.5H819V37.5H817V42.5ZM821 42.5H823V37.5H821V42.5ZM825 42.5H827V37.5H825V42.5ZM829 42.5H831V37.5H829V42.5ZM833 42.5H835V37.5H833V42.5ZM837 42.5H839V37.5H837V42.5ZM841 42.5H843V37.5H841V42.5ZM845 42.5H847V37.5H845V42.5ZM849 42.5H851V37.5H849V42.5ZM853 42.5H855V37.5H853V42.5ZM857 42.5H859V37.5H857V42.5ZM861 42.5H863V37.5H861V42.5ZM865 42.5H867V37.5H865V42.5ZM869 42.5H871V37.5H869V42.5ZM873 42.5H875V37.5H873V42.5ZM877 42.5H879V37.5H877V42.5ZM881 42.5H883V37.5H881V42.5ZM885 42.5H887V37.5H885V42.5ZM889 42.5H891V37.5H889V42.5ZM893 42.5H895V37.5H893V42.5ZM897 42.5H899V37.5H897V42.5ZM901 42.5H903V37.5H901V42.5ZM905 42.5H907V37.5H905V42.5ZM909 42.5H911V37.5H909V42.5ZM913 42.5H915V37.5H913V42.5ZM917 42.5H919V37.5H917V42.5ZM921 42.5H923V37.5H921V42.5ZM925 42.5H927V37.5H925V42.5ZM929 42.5H931V37.5H929V42.5ZM933 42.5H935V37.5H933V42.5ZM937 42.5H939V37.5H937V42.5ZM941 42.5H943V37.5H941V42.5ZM945 42.5H947V37.5H945V42.5ZM949 42.5H951V37.5H949V42.5ZM953 42.5H955V37.5H953V42.5ZM957 42.5H959V37.5H957V42.5ZM961 42.5H963V37.5H961V42.5ZM965 42.5H967V37.5H965V42.5ZM969 42.5H971V37.5H969V42.5ZM973 42.5H975V37.5H973V42.5ZM977 42.5H979V37.5H977V42.5ZM981 42.5H983V37.5H981V42.5ZM985 42.5H987V37.5H985V42.5ZM989 42.5H991V37.5H989V42.5ZM993 42.5H995V37.5H993V42.5ZM997 42.5H999V37.5H997V42.5ZM1001 42.5H1003V37.5H1001V42.5ZM1005 42.5H1007V37.5H1005V42.5ZM1009 42.5H1011V37.5H1009V42.5ZM1013 42.5H1015V37.5H1013V42.5ZM1017 42.5H1019V37.5H1017V42.5ZM1021 42.5H1023V37.5H1021V42.5ZM1025 42.5H1027V37.5H1025V42.5ZM1029 42.5H1031V37.5H1029V42.5ZM1033 42.5H1035V37.5H1033V42.5ZM1037 42.5H1039V37.5H1037V42.5ZM1041 42.5H1043V37.5H1041V42.5ZM1045 42.5H1047V37.5H1045V42.5ZM1049 42.5H1051V37.5H1049V42.5ZM1053 42.5H1055V37.5H1053V42.5ZM1057 42.5H1059V37.5H1057V42.5ZM1061 42.5H1063V37.5H1061V42.5ZM1065 42.5H1067V37.5H1065V42.5ZM1069 42.5H1070V37.5H1069V42.5ZM1070 42.5C1069.94 42.5 1069.87 42.487 1069.81 42.4611L1071.72 37.8424C1071.19 37.621 1070.61 37.5 1070 37.5V42.5ZM1069.54 42.1921C1069.51 42.1296 1069.5 42.0632 1069.5 42H1074.5C1074.5 41.3944 1074.38 40.8108 1074.16 40.2768L1069.54 42.1921ZM1069.5 42V43.0013H1074.5V42H1069.5ZM1069.5 45.0039V47.0066H1074.5V45.0039H1069.5ZM1069.5 49.0092V51.0118H1074.5V49.0092H1069.5ZM1069.5 53.0145V55.0171H1074.5V53.0145H1069.5ZM1069.5 57.0197V59.0224H1074.5V57.0197H1069.5ZM1069.5 61.025V63.0276H1074.5V61.025H1069.5ZM1069.5 65.0303V67.0329H1074.5V65.0303H1069.5ZM1069.5 69.0355V71.0382H1074.5V69.0355H1069.5ZM1069.5 73.0408V75.0434H1074.5V73.0408H1069.5ZM1069.5 77.0461V79.0487H1074.5V77.0461H1069.5ZM1069.5 81.0513V83.054H1074.5V81.0513H1069.5ZM1069.5 85.0566V87.0592H1074.5V85.0566H1069.5ZM1069.5 89.0619V91.0645H1074.5V89.0619H1069.5ZM1069.5 93.0671V95.0697H1074.5V93.0671H1069.5ZM1069.5 97.0724V99.075H1074.5V97.0724H1069.5ZM1069.5 101.078V103.08H1074.5V101.078H1069.5ZM1069.5 105.083V107.086H1074.5V105.083H1069.5ZM1069.5 109.088V111.091H1074.5V109.088H1069.5ZM1069.5 113.093V115.096H1074.5V113.093H1069.5ZM1069.5 117.099V119.101H1074.5V117.099H1069.5ZM1069.5 121.104V123.107H1074.5V121.104H1069.5ZM1069.5 125.109V127.112H1074.5V125.109H1069.5ZM1069.5 129.114V131.117H1074.5V129.114H1069.5ZM1069.5 133.12V135.122H1074.5V133.12H1069.5ZM1069.5 137.125V139.128H1074.5V137.125H1069.5ZM1069.5 141.13V143.133H1074.5V141.13H1069.5ZM1069.5 145.136V147.138H1074.5V145.136H1069.5ZM1069.5 149.141V151.143H1074.5V149.141H1069.5ZM1069.5 153.146V155.149H1074.5V153.146H1069.5ZM1069.5 157.151V159.154H1074.5V157.151H1069.5ZM1069.5 161.157V163.159H1074.5V161.157H1069.5ZM1069.5 165.162V167.165H1074.5V165.162H1069.5ZM1069.5 169.167V171.17H1074.5V169.167H1069.5ZM1069.5 173.172V175.175H1074.5V173.172H1069.5ZM1069.5 177.178V179.18H1074.5V177.178H1069.5ZM1069.5 181.183V183.186H1074.5V181.183H1069.5ZM1069.5 185.188V187.191H1074.5V185.188H1069.5ZM1069.5 189.193V191.196H1074.5V189.193H1069.5ZM1069.5 193.199V195.201H1074.5V193.199H1069.5ZM1069.5 197.204V199.207H1074.5V197.204H1069.5ZM1069.5 201.209V203.212H1074.5V201.209H1069.5ZM1069.5 205.214V207.217H1074.5V205.214H1069.5ZM1069.5 209.22V211.222H1074.5V209.22H1069.5ZM1069.5 213.225V215.228H1074.5V213.225H1069.5ZM1069.5 217.23V219.233H1074.5V217.23H1069.5ZM1069.5 221.235V223.238H1074.5V221.235H1069.5ZM1069.5 225.241V227.243H1074.5V225.241H1069.5ZM1069.5 229.246V231.249H1074.5V229.246H1069.5ZM1069.5 233.251V235.254H1074.5V233.251H1069.5ZM1069.5 237.256V239.259H1074.5V237.256H1069.5ZM1069.5 241.262V243.264H1074.5V241.262H1069.5ZM1069.5 245.267V247.27H1074.5V245.267H1069.5ZM1069.5 249.272V251.275H1074.5V249.272H1069.5ZM1069.5 253.277V255.28H1074.5V253.277H1069.5ZM1069.5 257.283V259.285H1074.5V257.283H1069.5ZM1069.5 261.288V263.29H1074.5V261.288H1069.5ZM1069.5 265.293V267.296H1074.5V265.293H1069.5ZM1069.5 269.298V271.301H1074.5V269.298H1069.5ZM1069.5 273.304V275.306H1074.5V273.304H1069.5ZM1069.5 277.309V279.311H1074.5V277.309H1069.5ZM1069.5 281.314V283.317H1074.5V281.314H1069.5ZM1069.5 285.319V287.322H1074.5V285.319H1069.5ZM1069.5 289.325V291.327H1074.5V289.325H1069.5ZM1069.5 293.33V295.332H1074.5V293.33H1069.5ZM1069.5 297.335V299.338H1074.5V297.335H1069.5ZM1069.5 301.34V303.343H1074.5V301.34H1069.5ZM1069.5 305.346V307.348H1074.5V305.346H1069.5ZM1069.5 309.351V311.353H1074.5V309.351H1069.5ZM1069.5 313.356V315.359H1074.5V313.356H1069.5ZM1069.5 317.361V319.364H1074.5V317.361H1069.5ZM1069.5 321.367V323.369H1074.5V321.367H1069.5ZM1069.5 325.372V327.374H1074.5V325.372H1069.5ZM1069.5 329.377V331.38H1074.5V329.377H1069.5ZM1069.5 333.382V335.385H1074.5V333.382H1069.5ZM1069.5 337.388V339.39H1074.5V337.388H1069.5ZM1069.5 341.393V343.395H1074.5V341.393H1069.5ZM1069.5 345.398V347.401H1074.5V345.398H1069.5ZM1069.5 349.403V351.406H1074.5V349.403H1069.5ZM1069.5 353.409V355.411H1074.5V353.409H1069.5ZM1069.5 357.414V359.416H1074.5V357.414H1069.5ZM1069.5 361.419V363.422H1074.5V361.419H1069.5ZM1069.5 365.424V367.427H1074.5V365.424H1069.5ZM1069.5 369.43V371.432H1074.5V369.43H1069.5ZM1069.5 373.435V375.437H1074.5V373.435H1069.5ZM1069.5 377.44V379.443H1074.5V377.44H1069.5ZM1069.5 381.445V383.448H1074.5V381.445H1069.5ZM1069.5 385.451V387.453H1074.5V385.451H1069.5ZM1069.5 389.456V391.458H1074.5V389.456H1069.5ZM1069.5 393.461V395.464H1074.5V393.461H1069.5ZM1069.5 397.466V399.469H1074.5V397.466H1069.5ZM1069.5 401.472V403.474H1074.5V401.472H1069.5ZM1069.5 405.477V407.479H1074.5V405.477H1069.5ZM1069.5 409.482V411.485H1074.5V409.482H1069.5ZM1069.5 413.487V415.49H1074.5V413.487H1069.5ZM1069.5 417.493V419.495H1074.5V417.493H1069.5ZM1069.5 421.498V423.5H1074.5V421.498H1069.5ZM1069.5 425.503V427.506H1074.5V425.503H1069.5ZM1069.5 429.508V431.511H1074.5V429.508H1069.5ZM1069.5 433.514V435.516H1074.5V433.514H1069.5ZM1069.5 437.519V439.521H1074.5V437.519H1069.5ZM1069.5 441.524V443.527H1074.5V441.524H1069.5ZM1069.5 445.529V447.532H1074.5V445.529H1069.5ZM1069.5 449.535V451.537H1074.5V449.535H1069.5ZM1069.5 453.54V455.542H1074.5V453.54H1069.5ZM1069.5 457.545V459.548H1074.5V457.545H1069.5ZM1069.5 461.55V463.553H1074.5V461.55H1069.5ZM1069.5 465.556V467.558H1074.5V465.556H1069.5ZM1069.5 469.561V471.563H1074.5V469.561H1069.5ZM1069.5 473.566V475.569H1074.5V473.566H1069.5ZM1069.5 477.571V479.574H1074.5V477.571H1069.5ZM1069.5 481.577V483.579H1074.5V481.577H1069.5ZM1069.5 485.582V487.584H1074.5V485.582H1069.5ZM1069.5 489.587V491.59H1074.5V489.587H1069.5ZM1069.5 493.592V495.595H1074.5V493.592H1069.5ZM1069.5 497.598V499.6H1074.5V497.598H1069.5ZM1069.5 501.603V503.605H1074.5V501.603H1069.5ZM1069.5 505.608V507.611H1074.5V505.608H1069.5ZM1069.5 509.613V511.616H1074.5V509.613H1069.5ZM1069.5 513.619V515.621H1074.5V513.619H1069.5ZM1069.5 517.624V519.626H1074.5V517.624H1069.5ZM1069.5 521.629V523.632H1074.5V521.629H1069.5ZM1069.5 525.634V527.637H1074.5V525.634H1069.5ZM1069.5 529.64V531.642H1074.5V529.64H1069.5ZM1069.5 533.645V535.647H1074.5V533.645H1069.5ZM1069.5 537.65V539.653H1074.5V537.65H1069.5ZM1069.5 541.655V543.658H1074.5V541.655H1069.5ZM1069.5 545.661V547.663H1074.5V545.661H1069.5ZM1069.5 549.666V551.668H1074.5V549.666H1069.5ZM1069.5 553.671V555.674H1074.5V553.671H1069.5ZM1069.5 557.676V559.679H1074.5V557.676H1069.5ZM1069.5 561.682V563.684H1074.5V561.682H1069.5ZM1069.5 565.687V567.689H1074.5V565.687H1069.5ZM1069.5 569.692V571.695H1074.5V569.692H1069.5ZM1069.5 573.697V575.7H1074.5V573.697H1069.5ZM1069.5 577.703V579.705H1074.5V577.703H1069.5ZM1069.5 581.708V583.71H1074.5V581.708H1069.5ZM1069.5 585.713V587.716H1074.5V585.713H1069.5ZM1069.5 589.718V591.721H1074.5V589.718H1069.5ZM1069.5 593.724V595.726H1074.5V593.724H1069.5ZM1069.5 597.729V599.731H1074.5V597.729H1069.5ZM1069.5 601.734V603.737H1074.5V601.734H1069.5ZM1069.5 605.739V607.742H1074.5V605.739H1069.5ZM1069.5 609.745V611.747H1074.5V609.745H1069.5ZM1069.5 613.75V615.752H1074.5V613.75H1069.5ZM1069.5 617.755V619.758H1074.5V617.755H1069.5ZM1069.5 621.76V623.763H1074.5V621.76H1069.5ZM1069.5 625.766V627.768H1074.5V625.766H1069.5ZM1069.5 629.771V631.773H1074.5V629.771H1069.5ZM1069.5 633.776V635.779H1074.5V633.776H1069.5ZM1069.5 637.781V639.784H1074.5V637.781H1069.5ZM1069.5 641.787V643.789H1074.5V641.787H1069.5ZM1069.5 645.792V647.794H1074.5V645.792H1069.5ZM1069.5 649.797V651.8H1074.5V649.797H1069.5ZM1069.5 653.802V655.805H1074.5V653.802H1069.5ZM1069.5 657.808V659.81H1074.5V657.808H1069.5ZM1069.5 661.813V663.815H1074.5V661.813H1069.5ZM1069.5 665.818V667.821H1074.5V665.818H1069.5ZM1069.5 669.823V671.826H1074.5V669.823H1069.5ZM1069.5 673.829V675.831H1074.5V673.829H1069.5ZM1069.5 677.834V679.836H1074.5V677.834H1069.5ZM1069.5 681.839V683.842H1074.5V681.839H1069.5ZM1069.5 685.844V687.847H1074.5V685.844H1069.5ZM1069.5 689.85V691.852H1074.5V689.85H1069.5ZM1069.5 693.855V695.857H1074.5V693.855H1069.5ZM1069.5 697.86V699.863H1074.5V697.86H1069.5ZM1069.5 701.865V703.868H1074.5V701.865H1069.5ZM1069.5 705.871V707.873H1074.5V705.871H1069.5ZM1069.5 709.876V711.878H1074.5V709.876H1069.5ZM1069.5 713.881V715.884H1074.5V713.881H1069.5ZM1069.5 717.886V719.889H1074.5V717.886H1069.5ZM1069.5 721.892V723.894H1074.5V721.892H1069.5ZM1069.5 725.897V727.899H1074.5V725.897H1069.5ZM1069.5 729.902V731.905H1074.5V729.902H1069.5ZM1069.5 733.907V735.91H1074.5V733.907H1069.5ZM1069.5 737.913V739.915H1074.5V737.913H1069.5ZM1069.5 741.918V743.92H1074.5V741.918H1069.5ZM1069.5 745.923V747.926H1074.5V745.923H1069.5ZM1069.5 749.928V751.931H1074.5V749.928H1069.5ZM1069.5 753.934V755.936H1074.5V753.934H1069.5ZM1069.5 757.939V759.941H1074.5V757.939H1069.5ZM1069.5 761.944V763.947H1074.5V761.944H1069.5ZM1069.5 765.949V767.952H1074.5V765.949H1069.5ZM1069.5 769.955V771.957H1074.5V769.955H1069.5ZM1069.5 773.96V775.962H1074.5V773.96H1069.5ZM1069.5 777.965V779.968H1074.5V777.965H1069.5ZM1069.5 781.97V783.973H1074.5V781.97H1069.5ZM1069.5 785.976V787.978H1074.5V785.976H1069.5ZM1069.5 789.981V791.983H1074.5V789.981H1069.5ZM1069.5 793.986V795.989H1074.5V793.986H1069.5ZM1069.5 797.991V799.994H1074.5V797.991H1069.5ZM1069.5 801.997V803H1074.5V801.997H1069.5ZM1069.5 803C1069.5 802.937 1069.51 802.87 1069.54 802.808L1074.16 804.723C1074.38 804.189 1074.5 803.606 1074.5 803H1069.5ZM1069.81 802.539C1069.87 802.513 1069.94 802.5 1070 802.5V807.5C1070.61 807.5 1071.19 807.379 1071.72 807.158L1069.81 802.539ZM1070 802.5H1069V807.5H1070V802.5ZM1067 802.5H1065V807.5H1067V802.5ZM1063 802.5H1061V807.5H1063V802.5ZM1059 802.5H1057V807.5H1059V802.5ZM1055 802.5H1053V807.5H1055V802.5ZM1051 802.5H1049V807.5H1051V802.5ZM1047 802.5H1045V807.5H1047V802.5ZM1043 802.5H1041V807.5H1043V802.5ZM1039 802.5H1037V807.5H1039V802.5ZM1035 802.5H1033V807.5H1035V802.5ZM1031 802.5H1029V807.5H1031V802.5ZM1027 802.5H1025V807.5H1027V802.5ZM1023 802.5H1021V807.5H1023V802.5ZM1019 802.5H1017V807.5H1019V802.5ZM1015 802.5H1013V807.5H1015V802.5ZM1011 802.5H1009V807.5H1011V802.5ZM1007 802.5H1005V807.5H1007V802.5ZM1003 802.5H1001V807.5H1003V802.5ZM999 802.5H997V807.5H999V802.5ZM995 802.5H993V807.5H995V802.5ZM991 802.5H989V807.5H991V802.5ZM987 802.5H985V807.5H987V802.5ZM983 802.5H981V807.5H983V802.5ZM979 802.5H977V807.5H979V802.5ZM975 802.5H973V807.5H975V802.5ZM971 802.5H969V807.5H971V802.5ZM967 802.5H965V807.5H967V802.5ZM963 802.5H961V807.5H963V802.5ZM959 802.5H957V807.5H959V802.5ZM955 802.5H953V807.5H955V802.5ZM951 802.5H949V807.5H951V802.5ZM947 802.5H945V807.5H947V802.5ZM943 802.5H941V807.5H943V802.5ZM939 802.5H937V807.5H939V802.5ZM935 802.5H933V807.5H935V802.5ZM931 802.5H929V807.5H931V802.5ZM927 802.5H925V807.5H927V802.5ZM923 802.5H921V807.5H923V802.5ZM919 802.5H917V807.5H919V802.5ZM915 802.5H913V807.5H915V802.5ZM911 802.5H909V807.5H911V802.5ZM907 802.5H905V807.5H907V802.5ZM903 802.5H901V807.5H903V802.5ZM899 802.5H897V807.5H899V802.5ZM895 802.5H893V807.5H895V802.5ZM891 802.5H889V807.5H891V802.5ZM887 802.5H885V807.5H887V802.5ZM883 802.5H881V807.5H883V802.5ZM879 802.5H877V807.5H879V802.5ZM875 802.5H873V807.5H875V802.5ZM871 802.5H869V807.5H871V802.5ZM867 802.5H865V807.5H867V802.5ZM863 802.5H861V807.5H863V802.5ZM859 802.5H857V807.5H859V802.5ZM855 802.5H853V807.5H855V802.5ZM851 802.5H849V807.5H851V802.5ZM847 802.5H845V807.5H847V802.5ZM843 802.5H841V807.5H843V802.5ZM839 802.5H837V807.5H839V802.5ZM835 802.5H833V807.5H835V802.5ZM831 802.5H829V807.5H831V802.5ZM827 802.5H825V807.5H827V802.5ZM823 802.5H821V807.5H823V802.5ZM819 802.5H817V807.5H819V802.5ZM815 802.5H813V807.5H815V802.5ZM811 802.5H809V807.5H811V802.5ZM807 802.5H805V807.5H807V802.5ZM803 802.5H801V807.5H803V802.5ZM799 802.5H797V807.5H799V802.5ZM795 802.5H793V807.5H795V802.5ZM791 802.5H789V807.5H791V802.5ZM787 802.5H785V807.5H787V802.5ZM783 802.5H781V807.5H783V802.5ZM779 802.5H777V807.5H779V802.5ZM775 802.5H773V807.5H775V802.5ZM771 802.5H769V807.5H771V802.5ZM767 802.5H765V807.5H767V802.5ZM763 802.5H761V807.5H763V802.5ZM759 802.5H757V807.5H759V802.5ZM755 802.5H753V807.5H755V802.5ZM751 802.5H749V807.5H751V802.5ZM747 802.5H745V807.5H747V802.5ZM743 802.5H741V807.5H743V802.5ZM739 802.5H737V807.5H739V802.5ZM735 802.5H733V807.5H735V802.5ZM731 802.5H729V807.5H731V802.5ZM727 802.5H725V807.5H727V802.5ZM723 802.5H721V807.5H723V802.5ZM719 802.5H717V807.5H719V802.5ZM715 802.5H713V807.5H715V802.5ZM711 802.5H709V807.5H711V802.5ZM707 802.5H705V807.5H707V802.5ZM703 802.5H701V807.5H703V802.5ZM699 802.5H697V807.5H699V802.5ZM695 802.5H693V807.5H695V802.5ZM691 802.5H689V807.5H691V802.5ZM687 802.5H685V807.5H687V802.5ZM683 802.5H681V807.5H683V802.5ZM679 802.5H677V807.5H679V802.5ZM675 802.5H673V807.5H675V802.5ZM671 802.5H669V807.5H671V802.5ZM667 802.5H665V807.5H667V802.5ZM663 802.5H661V807.5H663V802.5ZM659 802.5H657V807.5H659V802.5ZM655 802.5H653V807.5H655V802.5ZM651 802.5H649V807.5H651V802.5ZM647 802.5H645V807.5H647V802.5ZM643 802.5H641V807.5H643V802.5ZM639 802.5H637V807.5H639V802.5ZM635 802.5H633V807.5H635V802.5ZM631 802.5H629V807.5H631V802.5ZM627 802.5H625V807.5H627V802.5ZM623 802.5H621V807.5H623V802.5ZM619 802.5H617V807.5H619V802.5ZM615 802.5H613V807.5H615V802.5ZM611 802.5H609V807.5H611V802.5ZM607 802.5H605V807.5H607V802.5ZM603 802.5H601V807.5H603V802.5ZM599 802.5H597V807.5H599V802.5ZM595 802.5H593V807.5H595V802.5ZM591 802.5H589V807.5H591V802.5ZM587 802.5H585V807.5H587V802.5ZM583 802.5H581V807.5H583V802.5ZM579 802.5H577V807.5H579V802.5ZM575 802.5H573V807.5H575V802.5ZM571 802.5H569V807.5H571V802.5ZM567 802.5H565V807.5H567V802.5ZM563 802.5H561V807.5H563V802.5ZM559 802.5H557V807.5H559V802.5ZM555 802.5H553V807.5H555V802.5ZM551 802.5H549V807.5H551V802.5ZM547 802.5H545V807.5H547V802.5ZM543 802.5H541V807.5H543V802.5ZM539 802.5H537V807.5H539V802.5ZM535 802.5H533V807.5H535V802.5ZM531 802.5H529V807.5H531V802.5ZM527 802.5H525V807.5H527V802.5ZM523 802.5H521V807.5H523V802.5ZM519 802.5H517V807.5H519V802.5ZM515 802.5H513V807.5H515V802.5ZM511 802.5H509V807.5H511V802.5ZM507 802.5H505V807.5H507V802.5ZM503 802.5H501V807.5H503V802.5ZM499 802.5H497V807.5H499V802.5ZM495 802.5H493V807.5H495V802.5ZM491 802.5H489V807.5H491V802.5ZM487 802.5H485V807.5H487V802.5ZM483 802.5H481V807.5H483V802.5ZM479 802.5H477V807.5H479V802.5ZM475 802.5H473V807.5H475V802.5ZM471 802.5H469V807.5H471V802.5ZM467 802.5H465V807.5H467V802.5ZM463 802.5H461V807.5H463V802.5ZM459 802.5H457V807.5H459V802.5ZM455 802.5H453V807.5H455V802.5ZM451 802.5H449V807.5H451V802.5ZM447 802.5H445V807.5H447V802.5ZM443 802.5H441V807.5H443V802.5ZM439 802.5H437V807.5H439V802.5ZM435 802.5H433V807.5H435V802.5ZM431 802.5H429V807.5H431V802.5ZM427 802.5H425V807.5H427V802.5ZM423 802.5H421V807.5H423V802.5ZM419 802.5H417V807.5H419V802.5ZM415 802.5H413V807.5H415V802.5ZM411 802.5H409V807.5H411V802.5ZM407 802.5H405V807.5H407V802.5ZM403 802.5H401V807.5H403V802.5ZM399 802.5H397V807.5H399V802.5ZM395 802.5H393V807.5H395V802.5ZM391 802.5H389V807.5H391V802.5ZM387 802.5H385V807.5H387V802.5ZM383 802.5H381V807.5H383V802.5ZM379 802.5H377V807.5H379V802.5ZM375 802.5H373V807.5H375V802.5ZM371 802.5H369V807.5H371V802.5ZM367 802.5H365V807.5H367V802.5ZM363 802.5H361V807.5H363V802.5ZM359 802.5H357V807.5H359V802.5ZM355 802.5H353V807.5H355V802.5ZM351 802.5H349V807.5H351V802.5ZM347 802.5H345V807.5H347V802.5ZM343 802.5H341V807.5H343V802.5ZM339 802.5H337V807.5H339V802.5ZM335 802.5H333V807.5H335V802.5ZM331 802.5H329V807.5H331V802.5ZM327 802.5H325V807.5H327V802.5ZM323 802.5H321V807.5H323V802.5ZM319 802.5H317V807.5H319V802.5ZM315 802.5H313V807.5H315V802.5ZM311 802.5H309V807.5H311V802.5ZM307 802.5H305V807.5H307V802.5ZM303 802.5H301V807.5H303V802.5ZM299 802.5H297V807.5H299V802.5ZM295 802.5H293V807.5H295V802.5ZM291 802.5H289V807.5H291V802.5ZM287 802.5H285V807.5H287V802.5ZM283 802.5H281V807.5H283V802.5ZM279 802.5H277V807.5H279V802.5ZM275 802.5H273V807.5H275V802.5ZM271 802.5H269V807.5H271V802.5ZM267 802.5H265V807.5H267V802.5ZM263 802.5H261V807.5H263V802.5ZM259 802.5H257V807.5H259V802.5ZM255 802.5H253V807.5H255V802.5ZM251 802.5H249V807.5H251V802.5ZM247 802.5H245V807.5H247V802.5ZM243 802.5H241V807.5H243V802.5ZM239 802.5H237V807.5H239V802.5ZM235 802.5H233V807.5H235V802.5ZM231 802.5H229V807.5H231V802.5ZM227 802.5H225V807.5H227V802.5ZM223 802.5H221V807.5H223V802.5ZM219 802.5H217V807.5H219V802.5ZM215 802.5H213V807.5H215V802.5ZM211 802.5H209V807.5H211V802.5ZM207 802.5H205V807.5H207V802.5ZM203 802.5H201V807.5H203V802.5ZM199 802.5H197V807.5H199V802.5ZM195 802.5H193V807.5H195V802.5ZM191 802.5H189V807.5H191V802.5ZM187 802.5H185V807.5H187V802.5ZM183 802.5H181V807.5H183V802.5ZM179 802.5H177V807.5H179V802.5ZM175 802.5H173V807.5H175V802.5ZM171 802.5H169V807.5H171V802.5ZM167 802.5H165V807.5H167V802.5ZM163 802.5H161V807.5H163V802.5ZM159 802.5H157V807.5H159V802.5ZM155 802.5H153V807.5H155V802.5ZM151 802.5H149V807.5H151V802.5ZM147 802.5H145V807.5H147V802.5ZM143 802.5H141V807.5H143V802.5ZM139 802.5H137V807.5H139V802.5ZM135 802.5H133V807.5H135V802.5ZM131 802.5H129V807.5H131V802.5ZM127 802.5H125V807.5H127V802.5ZM123 802.5H121V807.5H123V802.5ZM119 802.5H117V807.5H119V802.5ZM115 802.5H113V807.5H115V802.5ZM111 802.5H109V807.5H111V802.5ZM107 802.5H105V807.5H107V802.5ZM103 802.5H101V807.5H103V802.5ZM99 802.5H97V807.5H99V802.5ZM95 802.5H93V807.5H95V802.5ZM91 802.5H89V807.5H91V802.5ZM87 802.5H85V807.5H87V802.5ZM83 802.5H81V807.5H83V802.5ZM79 802.5H77V807.5H79V802.5ZM75 802.5H73V807.5H75V802.5ZM71 802.5H69V807.5H71V802.5ZM67 802.5H65V807.5H67V802.5ZM63 802.5H61V807.5H63V802.5ZM59 802.5H57V807.5H59V802.5ZM55 802.5H53V807.5H55V802.5ZM51 802.5H49V807.5H51V802.5ZM47 802.5H45V807.5H47V802.5ZM43 802.5H42V807.5H43V802.5ZM42 800C42.3976 800 42.789 800.08 43.1497 800.23L39.3192 809.467C40.1514 809.812 41.0601 810 42 810V800ZM44.7704 801.85C44.92 802.211 45 802.602 45 803H35C35 803.94 35.188 804.849 35.5331 805.681L44.7704 801.85ZM45 803V801.999H35V803H45ZM45 799.996V797.993H35V799.996H45ZM45 795.991V793.988H35V795.991H45ZM45 791.986V789.983H35V791.986H45ZM45 787.98V785.978H35V787.98H45ZM45 783.975V781.972H35V783.975H45ZM45 779.97V777.967H35V779.97H45ZM45 775.964V773.962H35V775.964H45ZM45 771.959V769.957H35V771.959H45ZM45 767.954V765.951H35V767.954H45ZM45 763.949V761.946H35V763.949H45ZM45 759.943V757.941H35V759.943H45ZM45 755.938V753.936H35V755.938H45ZM45 751.933V749.93H35V751.933H45ZM45 747.928V745.925H35V747.928H45ZM45 743.922V741.92H35V743.922H45ZM45 739.917V737.914H35V739.917H45ZM45 735.912V733.909H35V735.912H45ZM45 731.907V729.904H35V731.907H45ZM45 727.901V725.899H35V727.901H45ZM45 723.896V721.893H35V723.896H45ZM45 719.891V717.888H35V719.891H45ZM45 715.885V713.883H35V715.885H45ZM45 711.88V709.878H35V711.88H45ZM45 707.875V705.872H35V707.875H45ZM45 703.87V701.867H35V703.87H45ZM45 699.864V697.862H35V699.864H45ZM45 695.859V693.857H35V695.859H45ZM45 691.854V689.851H35V691.854H45ZM45 687.849V685.846H35V687.849H45ZM45 683.843V681.841H35V683.843H45ZM45 679.838V677.836H35V679.838H45ZM45 675.833V673.83H35V675.833H45ZM45 671.828V669.825H35V671.828H45ZM45 667.822V665.82H35V667.822H45ZM45 663.817V661.815H35V663.817H45ZM45 659.812V657.809H35V659.812H45ZM45 655.807V653.804H35V655.807H45ZM45 651.801V649.799H35V651.801H45ZM45 647.796V645.793H35V647.796H45ZM45 643.791V641.788H35V643.791H45ZM45 639.786V637.783H35V639.786H45ZM45 635.78V633.778H35V635.78H45ZM45 631.775V629.772H35V631.775H45ZM45 627.77V625.767H35V627.77H45ZM45 623.765V621.762H35V623.765H45ZM45 619.759V617.757H35V619.759H45ZM45 615.754V613.752H35V615.754H45ZM45 611.749V609.746H35V611.749H45ZM45 607.744V605.741H35V607.744H45ZM45 603.738V601.736H35V603.738H45ZM45 599.733V597.731H35V599.733H45ZM45 595.728V593.725H35V595.728H45ZM45 591.723V589.72H35V591.723H45ZM45 587.717V585.715H35V587.717H45ZM45 583.712V581.709H35V583.712H45ZM45 579.707V577.704H35V579.707H45ZM45 575.702V573.699H35V575.702H45ZM45 571.696V569.694H35V571.696H45ZM45 567.691V565.689H35V567.691H45ZM45 563.686V561.683H35V563.686H45ZM45 559.681V557.678H35V559.681H45ZM45 555.675V553.673H35V555.675H45ZM45 551.67V549.668H35V551.67H45ZM45 547.665V545.662H35V547.665H45ZM45 543.66V541.657H35V543.66H45ZM45 539.654V537.652H35V539.654H45ZM45 535.649V533.647H35V535.649H45ZM45 531.644V529.641H35V531.644H45ZM45 527.639V525.636H35V527.639H45ZM45 523.633V521.631H35V523.633H45ZM45 519.628V517.626H35V519.628H45ZM45 515.623V513.62H35V515.623H45ZM45 511.618V509.615H35V511.618H45ZM45 507.612V505.61H35V507.612H45ZM45 503.607V501.605H35V503.607H45ZM45 499.602V497.599H35V499.602H45ZM45 495.597V493.594H35V495.597H45ZM45 491.591V489.589H35V491.591H45ZM45 487.586V485.584H35V487.586H45ZM45 483.581V481.578H35V483.581H45ZM45 479.576V477.573H35V479.576H45ZM45 475.57V473.568H35V475.57H45ZM45 471.565V469.563H35V471.565H45ZM45 467.56V465.557H35V467.56H45ZM45 463.555V461.552H35V463.555H45ZM45 459.549V457.547H35V459.549H45ZM45 455.544V453.542H35V455.544H45ZM45 451.539V449.536H35V451.539H45ZM45 447.534V445.531H35V447.534H45ZM45 443.528V441.526H35V443.528H45ZM45 439.523V437.521H35V439.523H45ZM45 435.518V433.515H35V435.518H45ZM45 431.513V429.51H35V431.513H45ZM45 427.507V425.505H35V427.507H45ZM45 423.502V421.5H35V423.502H45ZM45 419.497V417.494H35V419.497H45ZM45 415.492V413.489H35V415.492H45ZM45 411.486V409.484H35V411.486H45ZM45 407.481V405.479H35V407.481H45ZM45 403.476V401.473H35V403.476H45ZM45 399.471V397.468H35V399.471H45ZM45 395.465V393.463H35V395.465H45ZM45 391.46V389.458H35V391.46H45ZM45 387.455V385.452H35V387.455H45ZM45 383.45V381.447H35V383.45H45ZM45 379.444V377.442H35V379.444H45ZM45 375.439V373.437H35V375.439H45ZM45 371.434V369.431H35V371.434H45ZM45 367.429V365.426H35V367.429H45ZM45 363.423V361.421H35V363.423H45ZM45 359.418V357.416H35V359.418H45ZM45 355.413V353.41H35V355.413H45ZM45 351.408V349.405H35V351.408H45ZM45 347.402V345.4H35V347.402H45ZM45 343.397V341.395H35V343.397H45ZM45 339.392V337.389H35V339.392H45ZM45 335.387V333.384H35V335.387H45ZM45 331.381V329.379H35V331.381H45ZM45 327.376V325.374H35V327.376H45ZM45 323.371V321.368H35V323.371H45ZM45 319.366V317.363H35V319.366H45ZM45 315.36V313.358H35V315.36H45ZM45 311.355V309.353H35V311.355H45ZM45 307.35V305.347H35V307.35H45ZM45 303.345V301.342H35V303.345H45ZM45 299.339V297.337H35V299.339H45ZM45 295.334V293.332H35V295.334H45ZM45 291.329V289.326H35V291.329H45ZM45 287.324V285.321H35V287.324H45ZM45 283.318V281.316H35V283.318H45ZM45 279.313V277.311H35V279.313H45ZM45 275.308V273.305H35V275.308H45ZM45 271.303V269.3H35V271.303H45ZM45 267.297V265.295H35V267.297H45ZM45 263.292V261.29H35V263.292H45ZM45 259.287V257.284H35V259.287H45ZM45 255.282V253.279H35V255.282H45ZM45 251.276V249.274H35V251.276H45ZM45 247.271V245.269H35V247.271H45ZM45 243.266V241.263H35V243.266H45ZM45 239.261V237.258H35V239.261H45ZM45 235.255V233.253H35V235.255H45ZM45 231.25V229.248H35V231.25H45ZM45 227.245V225.242H35V227.245H45ZM45 223.24V221.237H35V223.24H45ZM45 219.234V217.232H35V219.234H45ZM45 215.229V213.227H35V215.229H45ZM45 211.224V209.221H35V211.224H45ZM45 207.219V205.216H35V207.219H45ZM45 203.213V201.211H35V203.213H45ZM45 199.208V197.206H35V199.208H45ZM45 195.203V193.2H35V195.203H45ZM45 191.198V189.195H35V191.198H45ZM45 187.192V185.19H35V187.192H45ZM45 183.187V181.185H35V183.187H45ZM45 179.182V177.179H35V179.182H45ZM45 175.177V173.174H35V175.177H45ZM45 171.171V169.169H35V171.171H45ZM45 167.166V165.164H35V167.166H45ZM45 163.161V161.158H35V163.161H45ZM45 159.156V157.153H35V159.156H45ZM45 155.15V153.148H35V155.15H45ZM45 151.145V149.143H35V151.145H45ZM45 147.14V145.137H35V147.14H45ZM45 143.135V141.132H35V143.135H45ZM45 139.129V137.127H35V139.129H45ZM45 135.124V133.122H35V135.124H45ZM45 131.119V129.116H35V131.119H45ZM45 127.114V125.111H35V127.114H45ZM45 123.108V121.106H35V123.108H45ZM45 119.103V117.101H35V119.103H45ZM45 115.098V113.095H35V115.098H45ZM45 111.093V109.09H35V111.093H45ZM45 107.087V105.085H35V107.087H45ZM45 103.082V101.08H35V103.082H45ZM45 99.077V97.0743H35V99.077H45ZM45 95.0717V93.0691H35V95.0717H45ZM45 91.0665V89.0638H35V91.0665H45ZM45 87.0612V85.0586H35V87.0612H45ZM45 83.056V81.0534H35V83.056H45ZM45 79.0507V77.0481H35V79.0507H45ZM45 75.0455V73.0428H35V75.0455H45ZM45 71.0402V69.0376H35V71.0402H45ZM45 67.035V65.0324H35V67.035H45ZM45 63.0297V61.0271H35V63.0297H45ZM45 59.0245V57.0219H35V59.0245H45ZM45 55.0192V53.0166H35V55.0192H45ZM45 51.014V49.0113H35V51.014H45ZM45 47.0087V45.0061H35V47.0087H45ZM45 43.0035V42H35V43.0035H45ZM45 42C45 42.3976 44.92 42.789 44.7704 43.1497L35.5331 39.3192C35.188 40.1514 35 41.0601 35 42H45ZM43.1497 44.7704C42.789 44.92 42.3976 45 42 45V35C41.0601 35 40.1514 35.188 39.3192 35.5331L43.1497 44.7704ZM42 45H43V35H42V45ZM45 45H47V35H45V45ZM49 45H51V35H49V45ZM53 45H55V35H53V45ZM57 45H59V35H57V45ZM61 45H63V35H61V45ZM65 45H67V35H65V45ZM69 45H71V35H69V45ZM73 45H75V35H73V45ZM77 45H79V35H77V45ZM81 45H83V35H81V45ZM85 45H87V35H85V45ZM89 45H91V35H89V45ZM93 45H95V35H93V45ZM97 45H99V35H97V45ZM101 45H103V35H101V45ZM105 45H107V35H105V45ZM109 45H111V35H109V45ZM113 45H115V35H113V45ZM117 45H119V35H117V45ZM121 45H123V35H121V45ZM125 45H127V35H125V45ZM129 45H131V35H129V45ZM133 45H135V35H133V45ZM137 45H139V35H137V45ZM141 45H143V35H141V45ZM145 45H147V35H145V45ZM149 45H151V35H149V45ZM153 45H155V35H153V45ZM157 45H159V35H157V45ZM161 45H163V35H161V45ZM165 45H167V35H165V45ZM169 45H171V35H169V45ZM173 45H175V35H173V45ZM177 45H179V35H177V45ZM181 45H183V35H181V45ZM185 45H187V35H185V45ZM189 45H191V35H189V45ZM193 45H195V35H193V45ZM197 45H199V35H197V45ZM201 45H203V35H201V45ZM205 45H207V35H205V45ZM209 45H211V35H209V45ZM213 45H215V35H213V45ZM217 45H219V35H217V45ZM221 45H223V35H221V45ZM225 45H227V35H225V45ZM229 45H231V35H229V45ZM233 45H235V35H233V45ZM237 45H239V35H237V45ZM241 45H243V35H241V45ZM245 45H247V35H245V45ZM249 45H251V35H249V45ZM253 45H255V35H253V45ZM257 45H259V35H257V45ZM261 45H263V35H261V45ZM265 45H267V35H265V45ZM269 45H271V35H269V45ZM273 45H275V35H273V45ZM277 45H279V35H277V45ZM281 45H283V35H281V45ZM285 45H287V35H285V45ZM289 45H291V35H289V45ZM293 45H295V35H293V45ZM297 45H299V35H297V45ZM301 45H303V35H301V45ZM305 45H307V35H305V45ZM309 45H311V35H309V45ZM313 45H315V35H313V45ZM317 45H319V35H317V45ZM321 45H323V35H321V45ZM325 45H327V35H325V45ZM329 45H331V35H329V45ZM333 45H335V35H333V45ZM337 45H339V35H337V45ZM341 45H343V35H341V45ZM345 45H347V35H345V45ZM349 45H351V35H349V45ZM353 45H355V35H353V45ZM357 45H359V35H357V45ZM361 45H363V35H361V45ZM365 45H367V35H365V45ZM369 45H371V35H369V45ZM373 45H375V35H373V45ZM377 45H379V35H377V45ZM381 45H383V35H381V45ZM385 45H387V35H385V45ZM389 45H391V35H389V45ZM393 45H395V35H393V45ZM397 45H399V35H397V45ZM401 45H403V35H401V45ZM405 45H407V35H405V45ZM409 45H411V35H409V45ZM413 45H415V35H413V45ZM417 45H419V35H417V45ZM421 45H423V35H421V45ZM425 45H427V35H425V45ZM429 45H431V35H429V45ZM433 45H435V35H433V45ZM437 45H439V35H437V45ZM441 45H443V35H441V45ZM445 45H447V35H445V45ZM449 45H451V35H449V45ZM453 45H455V35H453V45ZM457 45H459V35H457V45ZM461 45H463V35H461V45ZM465 45H467V35H465V45ZM469 45H471V35H469V45ZM473 45H475V35H473V45ZM477 45H479V35H477V45ZM481 45H483V35H481V45ZM485 45H487V35H485V45ZM489 45H491V35H489V45ZM493 45H495V35H493V45ZM497 45H499V35H497V45ZM501 45H503V35H501V45ZM505 45H507V35H505V45ZM509 45H511V35H509V45ZM513 45H515V35H513V45ZM517 45H519V35H517V45ZM521 45H523V35H521V45ZM525 45H527V35H525V45ZM529 45H531V35H529V45ZM533 45H535V35H533V45ZM537 45H539V35H537V45ZM541 45H543V35H541V45ZM545 45H547V35H545V45ZM549 45H551V35H549V45ZM553 45H555V35H553V45ZM557 45H559V35H557V45ZM561 45H563V35H561V45ZM565 45H567V35H565V45ZM569 45H571V35H569V45ZM573 45H575V35H573V45ZM577 45H579V35H577V45ZM581 45H583V35H581V45ZM585 45H587V35H585V45ZM589 45H591V35H589V45ZM593 45H595V35H593V45ZM597 45H599V35H597V45ZM601 45H603V35H601V45ZM605 45H607V35H605V45ZM609 45H611V35H609V45ZM613 45H615V35H613V45ZM617 45H619V35H617V45ZM621 45H623V35H621V45ZM625 45H627V35H625V45ZM629 45H631V35H629V45ZM633 45H635V35H633V45ZM637 45H639V35H637V45ZM641 45H643V35H641V45ZM645 45H647V35H645V45ZM649 45H651V35H649V45ZM653 45H655V35H653V45ZM657 45H659V35H657V45ZM661 45H663V35H661V45ZM665 45H667V35H665V45ZM669 45H671V35H669V45ZM673 45H675V35H673V45ZM677 45H679V35H677V45ZM681 45H683V35H681V45ZM685 45H687V35H685V45ZM689 45H691V35H689V45ZM693 45H695V35H693V45ZM697 45H699V35H697V45ZM701 45H703V35H701V45ZM705 45H707V35H705V45ZM709 45H711V35H709V45ZM713 45H715V35H713V45ZM717 45H719V35H717V45ZM721 45H723V35H721V45ZM725 45H727V35H725V45ZM729 45H731V35H729V45ZM733 45H735V35H733V45ZM737 45H739V35H737V45ZM741 45H743V35H741V45ZM745 45H747V35H745V45ZM749 45H751V35H749V45ZM753 45H755V35H753V45ZM757 45H759V35H757V45ZM761 45H763V35H761V45ZM765 45H767V35H765V45ZM769 45H771V35H769V45ZM773 45H775V35H773V45ZM777 45H779V35H777V45ZM781 45H783V35H781V45ZM785 45H787V35H785V45ZM789 45H791V35H789V45ZM793 45H795V35H793V45ZM797 45H799V35H797V45ZM801 45H803V35H801V45ZM805 45H807V35H805V45ZM809 45H811V35H809V45ZM813 45H815V35H813V45ZM817 45H819V35H817V45ZM821 45H823V35H821V45ZM825 45H827V35H825V45ZM829 45H831V35H829V45ZM833 45H835V35H833V45ZM837 45H839V35H837V45ZM841 45H843V35H841V45ZM845 45H847V35H845V45ZM849 45H851V35H849V45ZM853 45H855V35H853V45ZM857 45H859V35H857V45ZM861 45H863V35H861V45ZM865 45H867V35H865V45ZM869 45H871V35H869V45ZM873 45H875V35H873V45ZM877 45H879V35H877V45ZM881 45H883V35H881V45ZM885 45H887V35H885V45ZM889 45H891V35H889V45ZM893 45H895V35H893V45ZM897 45H899V35H897V45ZM901 45H903V35H901V45ZM905 45H907V35H905V45ZM909 45H911V35H909V45ZM913 45H915V35H913V45ZM917 45H919V35H917V45ZM921 45H923V35H921V45ZM925 45H927V35H925V45ZM929 45H931V35H929V45ZM933 45H935V35H933V45ZM937 45H939V35H937V45ZM941 45H943V35H941V45ZM945 45H947V35H945V45ZM949 45H951V35H949V45ZM953 45H955V35H953V45ZM957 45H959V35H957V45ZM961 45H963V35H961V45ZM965 45H967V35H965V45ZM969 45H971V35H969V45ZM973 45H975V35H973V45ZM977 45H979V35H977V45ZM981 45H983V35H981V45ZM985 45H987V35H985V45ZM989 45H991V35H989V45ZM993 45H995V35H993V45ZM997 45H999V35H997V45ZM1001 45H1003V35H1001V45ZM1005 45H1007V35H1005V45ZM1009 45H1011V35H1009V45ZM1013 45H1015V35H1013V45ZM1017 45H1019V35H1017V45ZM1021 45H1023V35H1021V45ZM1025 45H1027V35H1025V45ZM1029 45H1031V35H1029V45ZM1033 45H1035V35H1033V45ZM1037 45H1039V35H1037V45ZM1041 45H1043V35H1041V45ZM1045 45H1047V35H1045V45ZM1049 45H1051V35H1049V45ZM1053 45H1055V35H1053V45ZM1057 45H1059V35H1057V45ZM1061 45H1063V35H1061V45ZM1065 45H1067V35H1065V45ZM1069 45H1070V35H1069V45ZM1070 45C1069.6 45 1069.21 44.92 1068.85 44.7704L1072.68 35.5331C1071.85 35.188 1070.94 35 1070 35V45ZM1067.23 43.1497C1067.08 42.789 1067 42.3976 1067 42H1077C1077 41.0601 1076.81 40.1514 1076.47 39.3192L1067.23 43.1497ZM1067 42V43.0013H1077V42H1067ZM1067 45.0039V47.0066H1077V45.0039H1067ZM1067 49.0092V51.0118H1077V49.0092H1067ZM1067 53.0145V55.0171H1077V53.0145H1067ZM1067 57.0197V59.0224H1077V57.0197H1067ZM1067 61.025V63.0276H1077V61.025H1067ZM1067 65.0303V67.0329H1077V65.0303H1067ZM1067 69.0355V71.0382H1077V69.0355H1067ZM1067 73.0408V75.0434H1077V73.0408H1067ZM1067 77.0461V79.0487H1077V77.0461H1067ZM1067 81.0513V83.054H1077V81.0513H1067ZM1067 85.0566V87.0592H1077V85.0566H1067ZM1067 89.0619V91.0645H1077V89.0619H1067ZM1067 93.0671V95.0697H1077V93.0671H1067ZM1067 97.0724V99.075H1077V97.0724H1067ZM1067 101.078V103.08H1077V101.078H1067ZM1067 105.083V107.086H1077V105.083H1067ZM1067 109.088V111.091H1077V109.088H1067ZM1067 113.093V115.096H1077V113.093H1067ZM1067 117.099V119.101H1077V117.099H1067ZM1067 121.104V123.107H1077V121.104H1067ZM1067 125.109V127.112H1077V125.109H1067ZM1067 129.114V131.117H1077V129.114H1067ZM1067 133.12V135.122H1077V133.12H1067ZM1067 137.125V139.128H1077V137.125H1067ZM1067 141.13V143.133H1077V141.13H1067ZM1067 145.136V147.138H1077V145.136H1067ZM1067 149.141V151.143H1077V149.141H1067ZM1067 153.146V155.149H1077V153.146H1067ZM1067 157.151V159.154H1077V157.151H1067ZM1067 161.157V163.159H1077V161.157H1067ZM1067 165.162V167.165H1077V165.162H1067ZM1067 169.167V171.17H1077V169.167H1067ZM1067 173.172V175.175H1077V173.172H1067ZM1067 177.178V179.18H1077V177.178H1067ZM1067 181.183V183.186H1077V181.183H1067ZM1067 185.188V187.191H1077V185.188H1067ZM1067 189.193V191.196H1077V189.193H1067ZM1067 193.199V195.201H1077V193.199H1067ZM1067 197.204V199.207H1077V197.204H1067ZM1067 201.209V203.212H1077V201.209H1067ZM1067 205.214V207.217H1077V205.214H1067ZM1067 209.22V211.222H1077V209.22H1067ZM1067 213.225V215.228H1077V213.225H1067ZM1067 217.23V219.233H1077V217.23H1067ZM1067 221.235V223.238H1077V221.235H1067ZM1067 225.241V227.243H1077V225.241H1067ZM1067 229.246V231.249H1077V229.246H1067ZM1067 233.251V235.254H1077V233.251H1067ZM1067 237.256V239.259H1077V237.256H1067ZM1067 241.262V243.264H1077V241.262H1067ZM1067 245.267V247.27H1077V245.267H1067ZM1067 249.272V251.275H1077V249.272H1067ZM1067 253.277V255.28H1077V253.277H1067ZM1067 257.283V259.285H1077V257.283H1067ZM1067 261.288V263.29H1077V261.288H1067ZM1067 265.293V267.296H1077V265.293H1067ZM1067 269.298V271.301H1077V269.298H1067ZM1067 273.304V275.306H1077V273.304H1067ZM1067 277.309V279.311H1077V277.309H1067ZM1067 281.314V283.317H1077V281.314H1067ZM1067 285.319V287.322H1077V285.319H1067ZM1067 289.325V291.327H1077V289.325H1067ZM1067 293.33V295.332H1077V293.33H1067ZM1067 297.335V299.338H1077V297.335H1067ZM1067 301.34V303.343H1077V301.34H1067ZM1067 305.346V307.348H1077V305.346H1067ZM1067 309.351V311.353H1077V309.351H1067ZM1067 313.356V315.359H1077V313.356H1067ZM1067 317.361V319.364H1077V317.361H1067ZM1067 321.367V323.369H1077V321.367H1067ZM1067 325.372V327.374H1077V325.372H1067ZM1067 329.377V331.38H1077V329.377H1067ZM1067 333.382V335.385H1077V333.382H1067ZM1067 337.388V339.39H1077V337.388H1067ZM1067 341.393V343.395H1077V341.393H1067ZM1067 345.398V347.401H1077V345.398H1067ZM1067 349.403V351.406H1077V349.403H1067ZM1067 353.409V355.411H1077V353.409H1067ZM1067 357.414V359.416H1077V357.414H1067ZM1067 361.419V363.422H1077V361.419H1067ZM1067 365.424V367.427H1077V365.424H1067ZM1067 369.43V371.432H1077V369.43H1067ZM1067 373.435V375.437H1077V373.435H1067ZM1067 377.44V379.443H1077V377.44H1067ZM1067 381.445V383.448H1077V381.445H1067ZM1067 385.451V387.453H1077V385.451H1067ZM1067 389.456V391.458H1077V389.456H1067ZM1067 393.461V395.464H1077V393.461H1067ZM1067 397.466V399.469H1077V397.466H1067ZM1067 401.472V403.474H1077V401.472H1067ZM1067 405.477V407.479H1077V405.477H1067ZM1067 409.482V411.485H1077V409.482H1067ZM1067 413.487V415.49H1077V413.487H1067ZM1067 417.493V419.495H1077V417.493H1067ZM1067 421.498V423.5H1077V421.498H1067ZM1067 425.503V427.506H1077V425.503H1067ZM1067 429.508V431.511H1077V429.508H1067ZM1067 433.514V435.516H1077V433.514H1067ZM1067 437.519V439.521H1077V437.519H1067ZM1067 441.524V443.527H1077V441.524H1067ZM1067 445.529V447.532H1077V445.529H1067ZM1067 449.535V451.537H1077V449.535H1067ZM1067 453.54V455.542H1077V453.54H1067ZM1067 457.545V459.548H1077V457.545H1067ZM1067 461.55V463.553H1077V461.55H1067ZM1067 465.556V467.558H1077V465.556H1067ZM1067 469.561V471.563H1077V469.561H1067ZM1067 473.566V475.569H1077V473.566H1067ZM1067 477.571V479.574H1077V477.571H1067ZM1067 481.577V483.579H1077V481.577H1067ZM1067 485.582V487.584H1077V485.582H1067ZM1067 489.587V491.59H1077V489.587H1067ZM1067 493.592V495.595H1077V493.592H1067ZM1067 497.598V499.6H1077V497.598H1067ZM1067 501.603V503.605H1077V501.603H1067ZM1067 505.608V507.611H1077V505.608H1067ZM1067 509.613V511.616H1077V509.613H1067ZM1067 513.619V515.621H1077V513.619H1067ZM1067 517.624V519.626H1077V517.624H1067ZM1067 521.629V523.632H1077V521.629H1067ZM1067 525.634V527.637H1077V525.634H1067ZM1067 529.64V531.642H1077V529.64H1067ZM1067 533.645V535.647H1077V533.645H1067ZM1067 537.65V539.653H1077V537.65H1067ZM1067 541.655V543.658H1077V541.655H1067ZM1067 545.661V547.663H1077V545.661H1067ZM1067 549.666V551.668H1077V549.666H1067ZM1067 553.671V555.674H1077V553.671H1067ZM1067 557.676V559.679H1077V557.676H1067ZM1067 561.682V563.684H1077V561.682H1067ZM1067 565.687V567.689H1077V565.687H1067ZM1067 569.692V571.695H1077V569.692H1067ZM1067 573.697V575.7H1077V573.697H1067ZM1067 577.703V579.705H1077V577.703H1067ZM1067 581.708V583.71H1077V581.708H1067ZM1067 585.713V587.716H1077V585.713H1067ZM1067 589.718V591.721H1077V589.718H1067ZM1067 593.724V595.726H1077V593.724H1067ZM1067 597.729V599.731H1077V597.729H1067ZM1067 601.734V603.737H1077V601.734H1067ZM1067 605.739V607.742H1077V605.739H1067ZM1067 609.745V611.747H1077V609.745H1067ZM1067 613.75V615.752H1077V613.75H1067ZM1067 617.755V619.758H1077V617.755H1067ZM1067 621.76V623.763H1077V621.76H1067ZM1067 625.766V627.768H1077V625.766H1067ZM1067 629.771V631.773H1077V629.771H1067ZM1067 633.776V635.779H1077V633.776H1067ZM1067 637.781V639.784H1077V637.781H1067ZM1067 641.787V643.789H1077V641.787H1067ZM1067 645.792V647.794H1077V645.792H1067ZM1067 649.797V651.8H1077V649.797H1067ZM1067 653.802V655.805H1077V653.802H1067ZM1067 657.808V659.81H1077V657.808H1067ZM1067 661.813V663.815H1077V661.813H1067ZM1067 665.818V667.821H1077V665.818H1067ZM1067 669.823V671.826H1077V669.823H1067ZM1067 673.829V675.831H1077V673.829H1067ZM1067 677.834V679.836H1077V677.834H1067ZM1067 681.839V683.842H1077V681.839H1067ZM1067 685.844V687.847H1077V685.844H1067ZM1067 689.85V691.852H1077V689.85H1067ZM1067 693.855V695.857H1077V693.855H1067ZM1067 697.86V699.863H1077V697.86H1067ZM1067 701.865V703.868H1077V701.865H1067ZM1067 705.871V707.873H1077V705.871H1067ZM1067 709.876V711.878H1077V709.876H1067ZM1067 713.881V715.884H1077V713.881H1067ZM1067 717.886V719.889H1077V717.886H1067ZM1067 721.892V723.894H1077V721.892H1067ZM1067 725.897V727.899H1077V725.897H1067ZM1067 729.902V731.905H1077V729.902H1067ZM1067 733.907V735.91H1077V733.907H1067ZM1067 737.913V739.915H1077V737.913H1067ZM1067 741.918V743.92H1077V741.918H1067ZM1067 745.923V747.926H1077V745.923H1067ZM1067 749.928V751.931H1077V749.928H1067ZM1067 753.934V755.936H1077V753.934H1067ZM1067 757.939V759.941H1077V757.939H1067ZM1067 761.944V763.947H1077V761.944H1067ZM1067 765.949V767.952H1077V765.949H1067ZM1067 769.955V771.957H1077V769.955H1067ZM1067 773.96V775.962H1077V773.96H1067ZM1067 777.965V779.968H1077V777.965H1067ZM1067 781.97V783.973H1077V781.97H1067ZM1067 785.976V787.978H1077V785.976H1067ZM1067 789.981V791.983H1077V789.981H1067ZM1067 793.986V795.989H1077V793.986H1067ZM1067 797.991V799.994H1077V797.991H1067ZM1067 801.997V803H1077V801.997H1067ZM1067 803C1067 802.602 1067.08 802.211 1067.23 801.85L1076.47 805.681C1076.81 804.849 1077 803.94 1077 803H1067ZM1068.85 800.23C1069.21 800.08 1069.6 800 1070 800V810C1070.94 810 1071.85 809.812 1072.68 809.467L1068.85 800.23ZM1070 800H1069V810H1070V800ZM1067 800H1065V810H1067V800ZM1063 800H1061V810H1063V800ZM1059 800H1057V810H1059V800ZM1055 800H1053V810H1055V800ZM1051 800H1049V810H1051V800ZM1047 800H1045V810H1047V800ZM1043 800H1041V810H1043V800ZM1039 800H1037V810H1039V800ZM1035 800H1033V810H1035V800ZM1031 800H1029V810H1031V800ZM1027 800H1025V810H1027V800ZM1023 800H1021V810H1023V800ZM1019 800H1017V810H1019V800ZM1015 800H1013V810H1015V800ZM1011 800H1009V810H1011V800ZM1007 800H1005V810H1007V800ZM1003 800H1001V810H1003V800ZM999 800H997V810H999V800ZM995 800H993V810H995V800ZM991 800H989V810H991V800ZM987 800H985V810H987V800ZM983 800H981V810H983V800ZM979 800H977V810H979V800ZM975 800H973V810H975V800ZM971 800H969V810H971V800ZM967 800H965V810H967V800ZM963 800H961V810H963V800ZM959 800H957V810H959V800ZM955 800H953V810H955V800ZM951 800H949V810H951V800ZM947 800H945V810H947V800ZM943 800H941V810H943V800ZM939 800H937V810H939V800ZM935 800H933V810H935V800ZM931 800H929V810H931V800ZM927 800H925V810H927V800ZM923 800H921V810H923V800ZM919 800H917V810H919V800ZM915 800H913V810H915V800ZM911 800H909V810H911V800ZM907 800H905V810H907V800ZM903 800H901V810H903V800ZM899 800H897V810H899V800ZM895 800H893V810H895V800ZM891 800H889V810H891V800ZM887 800H885V810H887V800ZM883 800H881V810H883V800ZM879 800H877V810H879V800ZM875 800H873V810H875V800ZM871 800H869V810H871V800ZM867 800H865V810H867V800ZM863 800H861V810H863V800ZM859 800H857V810H859V800ZM855 800H853V810H855V800ZM851 800H849V810H851V800ZM847 800H845V810H847V800ZM843 800H841V810H843V800ZM839 800H837V810H839V800ZM835 800H833V810H835V800ZM831 800H829V810H831V800ZM827 800H825V810H827V800ZM823 800H821V810H823V800ZM819 800H817V810H819V800ZM815 800H813V810H815V800ZM811 800H809V810H811V800ZM807 800H805V810H807V800ZM803 800H801V810H803V800ZM799 800H797V810H799V800ZM795 800H793V810H795V800ZM791 800H789V810H791V800ZM787 800H785V810H787V800ZM783 800H781V810H783V800ZM779 800H777V810H779V800ZM775 800H773V810H775V800ZM771 800H769V810H771V800ZM767 800H765V810H767V800ZM763 800H761V810H763V800ZM759 800H757V810H759V800ZM755 800H753V810H755V800ZM751 800H749V810H751V800ZM747 800H745V810H747V800ZM743 800H741V810H743V800ZM739 800H737V810H739V800ZM735 800H733V810H735V800ZM731 800H729V810H731V800ZM727 800H725V810H727V800ZM723 800H721V810H723V800ZM719 800H717V810H719V800ZM715 800H713V810H715V800ZM711 800H709V810H711V800ZM707 800H705V810H707V800ZM703 800H701V810H703V800ZM699 800H697V810H699V800ZM695 800H693V810H695V800ZM691 800H689V810H691V800ZM687 800H685V810H687V800ZM683 800H681V810H683V800ZM679 800H677V810H679V800ZM675 800H673V810H675V800ZM671 800H669V810H671V800ZM667 800H665V810H667V800ZM663 800H661V810H663V800ZM659 800H657V810H659V800ZM655 800H653V810H655V800ZM651 800H649V810H651V800ZM647 800H645V810H647V800ZM643 800H641V810H643V800ZM639 800H637V810H639V800ZM635 800H633V810H635V800ZM631 800H629V810H631V800ZM627 800H625V810H627V800ZM623 800H621V810H623V800ZM619 800H617V810H619V800ZM615 800H613V810H615V800ZM611 800H609V810H611V800ZM607 800H605V810H607V800ZM603 800H601V810H603V800ZM599 800H597V810H599V800ZM595 800H593V810H595V800ZM591 800H589V810H591V800ZM587 800H585V810H587V800ZM583 800H581V810H583V800ZM579 800H577V810H579V800ZM575 800H573V810H575V800ZM571 800H569V810H571V800ZM567 800H565V810H567V800ZM563 800H561V810H563V800ZM559 800H557V810H559V800ZM555 800H553V810H555V800ZM551 800H549V810H551V800ZM547 800H545V810H547V800ZM543 800H541V810H543V800ZM539 800H537V810H539V800ZM535 800H533V810H535V800ZM531 800H529V810H531V800ZM527 800H525V810H527V800ZM523 800H521V810H523V800ZM519 800H517V810H519V800ZM515 800H513V810H515V800ZM511 800H509V810H511V800ZM507 800H505V810H507V800ZM503 800H501V810H503V800ZM499 800H497V810H499V800ZM495 800H493V810H495V800ZM491 800H489V810H491V800ZM487 800H485V810H487V800ZM483 800H481V810H483V800ZM479 800H477V810H479V800ZM475 800H473V810H475V800ZM471 800H469V810H471V800ZM467 800H465V810H467V800ZM463 800H461V810H463V800ZM459 800H457V810H459V800ZM455 800H453V810H455V800ZM451 800H449V810H451V800ZM447 800H445V810H447V800ZM443 800H441V810H443V800ZM439 800H437V810H439V800ZM435 800H433V810H435V800ZM431 800H429V810H431V800ZM427 800H425V810H427V800ZM423 800H421V810H423V800ZM419 800H417V810H419V800ZM415 800H413V810H415V800ZM411 800H409V810H411V800ZM407 800H405V810H407V800ZM403 800H401V810H403V800ZM399 800H397V810H399V800ZM395 800H393V810H395V800ZM391 800H389V810H391V800ZM387 800H385V810H387V800ZM383 800H381V810H383V800ZM379 800H377V810H379V800ZM375 800H373V810H375V800ZM371 800H369V810H371V800ZM367 800H365V810H367V800ZM363 800H361V810H363V800ZM359 800H357V810H359V800ZM355 800H353V810H355V800ZM351 800H349V810H351V800ZM347 800H345V810H347V800ZM343 800H341V810H343V800ZM339 800H337V810H339V800ZM335 800H333V810H335V800ZM331 800H329V810H331V800ZM327 800H325V810H327V800ZM323 800H321V810H323V800ZM319 800H317V810H319V800ZM315 800H313V810H315V800ZM311 800H309V810H311V800ZM307 800H305V810H307V800ZM303 800H301V810H303V800ZM299 800H297V810H299V800ZM295 800H293V810H295V800ZM291 800H289V810H291V800ZM287 800H285V810H287V800ZM283 800H281V810H283V800ZM279 800H277V810H279V800ZM275 800H273V810H275V800ZM271 800H269V810H271V800ZM267 800H265V810H267V800ZM263 800H261V810H263V800ZM259 800H257V810H259V800ZM255 800H253V810H255V800ZM251 800H249V810H251V800ZM247 800H245V810H247V800ZM243 800H241V810H243V800ZM239 800H237V810H239V800ZM235 800H233V810H235V800ZM231 800H229V810H231V800ZM227 800H225V810H227V800ZM223 800H221V810H223V800ZM219 800H217V810H219V800ZM215 800H213V810H215V800ZM211 800H209V810H211V800ZM207 800H205V810H207V800ZM203 800H201V810H203V800ZM199 800H197V810H199V800ZM195 800H193V810H195V800ZM191 800H189V810H191V800ZM187 800H185V810H187V800ZM183 800H181V810H183V800ZM179 800H177V810H179V800ZM175 800H173V810H175V800ZM171 800H169V810H171V800ZM167 800H165V810H167V800ZM163 800H161V810H163V800ZM159 800H157V810H159V800ZM155 800H153V810H155V800ZM151 800H149V810H151V800ZM147 800H145V810H147V800ZM143 800H141V810H143V800ZM139 800H137V810H139V800ZM135 800H133V810H135V800ZM131 800H129V810H131V800ZM127 800H125V810H127V800ZM123 800H121V810H123V800ZM119 800H117V810H119V800ZM115 800H113V810H115V800ZM111 800H109V810H111V800ZM107 800H105V810H107V800ZM103 800H101V810H103V800ZM99 800H97V810H99V800ZM95 800H93V810H95V800ZM91 800H89V810H91V800ZM87 800H85V810H87V800ZM83 800H81V810H83V800ZM79 800H77V810H79V800ZM75 800H73V810H75V800ZM71 800H69V810H71V800ZM67 800H65V810H67V800ZM63 800H61V810H63V800ZM59 800H57V810H59V800ZM55 800H53V810H55V800ZM51 800H49V810H51V800ZM47 800H45V810H47V800ZM43 800H42V810H43V800Z" fill="black" fill-opacity="0.1"/>
<rect x="40" y="8" width="170.922" height="26" rx="2" fill="#E5E5E5"/>
<rect x="40.5" y="8.5" width="169.922" height="25" rx="1.5" stroke="black" stroke-opacity="0.14902"/>
<path d="M44.9688 24V16H47.6719C48.2995 16 48.8125 16.1133 49.2109 16.3398C49.612 16.5638 49.9089 16.8672 50.1016 17.25C50.2943 17.6328 50.3906 18.0599 50.3906 18.5312C50.3906 19.0026 50.2943 19.431 50.1016 19.8164C49.9115 20.2018 49.6172 20.5091 49.2188 20.7383C48.8203 20.9648 48.3099 21.0781 47.6875 21.0781H45.75V20.2188H47.6563C48.0859 20.2188 48.431 20.1445 48.6914 19.9961C48.9518 19.8477 49.1406 19.6471 49.2578 19.3945C49.3776 19.1393 49.4375 18.8516 49.4375 18.5312C49.4375 18.2109 49.3776 17.9245 49.2578 17.6719C49.1406 17.4193 48.9505 17.2214 48.6875 17.0781C48.4245 16.9323 48.0755 16.8594 47.6406 16.8594H45.9375V24H44.9688ZM53.5918 24.1406C53.2116 24.1406 52.8665 24.069 52.5566 23.9258C52.2467 23.7799 52.0007 23.5703 51.8184 23.2969C51.6361 23.0208 51.5449 22.6875 51.5449 22.2969C51.5449 21.9531 51.6126 21.6745 51.748 21.4609C51.8835 21.2448 52.0645 21.0755 52.291 20.9531C52.5176 20.8307 52.7676 20.7396 53.041 20.6797C53.3171 20.6172 53.5944 20.5677 53.873 20.5313C54.2376 20.4844 54.5332 20.4492 54.7598 20.4258C54.9889 20.3997 55.1556 20.3568 55.2598 20.2969C55.3665 20.237 55.4199 20.1328 55.4199 19.9844V19.9531C55.4199 19.5677 55.3145 19.2682 55.1035 19.0547C54.8952 18.8411 54.5788 18.7344 54.1543 18.7344C53.7142 18.7344 53.3691 18.8307 53.1191 19.0234C52.8691 19.2161 52.6934 19.4219 52.5918 19.6406L51.7168 19.3281C51.873 18.9635 52.0814 18.6797 52.3418 18.4766C52.6048 18.2708 52.8913 18.1276 53.2012 18.0469C53.5137 17.9635 53.821 17.9219 54.123 17.9219C54.3158 17.9219 54.5371 17.9453 54.7871 17.9922C55.0397 18.0365 55.2832 18.1289 55.5176 18.2695C55.7546 18.4102 55.9512 18.6224 56.1074 18.9062C56.2637 19.1901 56.3418 19.5703 56.3418 20.0469V24H55.4199V23.1875H55.373C55.3105 23.3177 55.2064 23.457 55.0605 23.6055C54.9147 23.7539 54.7207 23.8802 54.4785 23.9844C54.2363 24.0885 53.9408 24.1406 53.5918 24.1406ZM53.7324 23.3125C54.097 23.3125 54.4043 23.2409 54.6543 23.0977C54.9069 22.9544 55.097 22.7695 55.2246 22.543C55.3548 22.3164 55.4199 22.0781 55.4199 21.8281V20.9844C55.3809 21.0312 55.2949 21.0742 55.1621 21.1133C55.0319 21.1497 54.8809 21.1823 54.709 21.2109C54.5397 21.237 54.3743 21.2604 54.2129 21.2812C54.054 21.2995 53.9251 21.3151 53.8262 21.3281C53.5866 21.3594 53.3626 21.4102 53.1543 21.4805C52.9486 21.5482 52.7819 21.651 52.6543 21.7891C52.5293 21.9245 52.4668 22.1094 52.4668 22.3437C52.4668 22.6641 52.5853 22.9062 52.8223 23.0703C53.0618 23.2318 53.3652 23.3125 53.7324 23.3125ZM59.3838 24L57.5557 18H58.5244L59.8213 22.5938H59.8838L61.165 18H62.1494L63.415 22.5781H63.4775L64.7744 18H65.7432L63.915 24H63.0088L61.6963 19.3906H61.6025L60.29 24H59.3838ZM70.0557 26.25V18H70.9463V18.9531H71.0557C71.1234 18.849 71.2171 18.7161 71.3369 18.5547C71.4593 18.3906 71.6338 18.2448 71.8604 18.1172C72.0895 17.987 72.3994 17.9219 72.79 17.9219C73.2952 17.9219 73.7406 18.0482 74.126 18.3008C74.5114 18.5534 74.8122 18.9115 75.0283 19.375C75.2445 19.8385 75.3525 20.3854 75.3525 21.0156C75.3525 21.651 75.2445 22.2018 75.0283 22.668C74.8122 23.1315 74.5127 23.4909 74.1299 23.7461C73.7471 23.9987 73.3057 24.125 72.8057 24.125C72.4202 24.125 72.1117 24.0612 71.8799 23.9336C71.6481 23.8034 71.4697 23.6562 71.3447 23.4922C71.2197 23.3255 71.1234 23.1875 71.0557 23.0781H70.9775V26.25H70.0557ZM70.9619 21C70.9619 21.4531 71.0283 21.8529 71.1611 22.1992C71.2939 22.543 71.488 22.8125 71.7432 23.0078C71.9984 23.2005 72.3109 23.2969 72.6807 23.2969C73.0661 23.2969 73.3877 23.1953 73.6455 22.9922C73.9059 22.7865 74.1012 22.5104 74.2314 22.1641C74.3643 21.8151 74.4307 21.4271 74.4307 21C74.4307 20.5781 74.3656 20.1979 74.2354 19.8594C74.1077 19.5182 73.9137 19.2487 73.6533 19.0508C73.3955 18.8503 73.0713 18.75 72.6807 18.75C72.3057 18.75 71.9906 18.8451 71.7354 19.0352C71.4801 19.2227 71.2874 19.4857 71.1572 19.8242C71.027 20.1602 70.9619 20.5521 70.9619 21ZM76.7588 24V18H77.6494V18.9062H77.7119C77.8213 18.6094 78.0192 18.3685 78.3057 18.1836C78.5921 17.9987 78.915 17.9062 79.2744 17.9062C79.3421 17.9062 79.4268 17.9076 79.5283 17.9102C79.6299 17.9128 79.7067 17.9167 79.7588 17.9219V18.8594C79.7275 18.8516 79.6559 18.8398 79.5439 18.8242C79.4346 18.806 79.3187 18.7969 79.1963 18.7969C78.9046 18.7969 78.6442 18.8581 78.415 18.9805C78.1885 19.1003 78.0088 19.2669 77.876 19.4805C77.7458 19.6914 77.6807 19.9323 77.6807 20.2031V24H76.7588ZM80.8516 24V18H81.7734V24H80.8516ZM81.3203 17C81.1406 17 80.9857 16.9388 80.8555 16.8164C80.7279 16.694 80.6641 16.5469 80.6641 16.375C80.6641 16.2031 80.7279 16.056 80.8555 15.9336C80.9857 15.8112 81.1406 15.75 81.3203 15.75C81.5 15.75 81.6536 15.8112 81.7813 15.9336C81.9115 16.056 81.9766 16.2031 81.9766 16.375C81.9766 16.5469 81.9115 16.694 81.7813 16.8164C81.6536 16.9388 81.5 17 81.3203 17ZM84.3838 20.3906V24H83.4619V18H84.3525V18.9375H84.4307C84.5713 18.6328 84.7848 18.388 85.0713 18.2031C85.3577 18.0156 85.7275 17.9219 86.1807 17.9219C86.5869 17.9219 86.9424 18.0052 87.2471 18.1719C87.5518 18.3359 87.7887 18.5859 87.958 18.9219C88.1273 19.2552 88.2119 19.6771 88.2119 20.1875V24H87.29V20.25C87.29 19.7786 87.1676 19.4115 86.9229 19.1484C86.6781 18.8828 86.3421 18.75 85.915 18.75C85.6208 18.75 85.3577 18.8138 85.126 18.9414C84.8968 19.069 84.7158 19.2552 84.583 19.5C84.4502 19.7448 84.3838 20.0417 84.3838 20.3906ZM92.5059 18V18.7812H89.3965V18H92.5059ZM90.3027 16.5625H91.2246V22.2812C91.2246 22.5417 91.2624 22.737 91.3379 22.8672C91.416 22.9948 91.515 23.0807 91.6348 23.125C91.7572 23.1667 91.8861 23.1875 92.0215 23.1875C92.123 23.1875 92.2064 23.1823 92.2715 23.1719C92.3366 23.1589 92.3887 23.1484 92.4277 23.1406L92.6152 23.9687C92.5527 23.9922 92.4655 24.0156 92.3535 24.0391C92.2415 24.0651 92.0996 24.0781 91.9277 24.0781C91.6673 24.0781 91.4121 24.0221 91.1621 23.9102C90.9147 23.7982 90.709 23.6276 90.5449 23.3984C90.3835 23.1693 90.3027 22.8802 90.3027 22.5312V16.5625ZM100.424 20.1406V21H96.9238V20.1406H100.424ZM105.265 24V16H106.187V18.9531H106.265C106.332 18.849 106.426 18.7161 106.546 18.5547C106.668 18.3906 106.843 18.2448 107.069 18.1172C107.299 17.987 107.608 17.9219 107.999 17.9219C108.504 17.9219 108.95 18.0482 109.335 18.3008C109.72 18.5534 110.021 18.9115 110.237 19.375C110.453 19.8385 110.562 20.3854 110.562 21.0156C110.562 21.651 110.453 22.2018 110.237 22.668C110.021 23.1315 109.722 23.4909 109.339 23.7461C108.956 23.9987 108.515 24.125 108.015 24.125C107.629 24.125 107.321 24.0612 107.089 23.9336C106.857 23.8034 106.679 23.6562 106.554 23.4922C106.429 23.3255 106.332 23.1875 106.265 23.0781H106.155V24H105.265ZM106.171 21C106.171 21.4531 106.237 21.8529 106.37 22.1992C106.503 22.543 106.697 22.8125 106.952 23.0078C107.207 23.2005 107.52 23.2969 107.89 23.2969C108.275 23.2969 108.597 23.1953 108.854 22.9922C109.115 22.7865 109.31 22.5104 109.44 22.1641C109.573 21.8151 109.64 21.4271 109.64 21C109.64 20.5781 109.575 20.1979 109.444 19.8594C109.317 19.5182 109.123 19.2487 108.862 19.0508C108.604 18.8503 108.28 18.75 107.89 18.75C107.515 18.75 107.2 18.8451 106.944 19.0352C106.689 19.2227 106.496 19.4857 106.366 19.8242C106.236 20.1602 106.171 20.5521 106.171 21ZM113.737 24.1406C113.357 24.1406 113.012 24.069 112.702 23.9258C112.392 23.7799 112.146 23.5703 111.964 23.2969C111.782 23.0208 111.69 22.6875 111.69 22.2969C111.69 21.9531 111.758 21.6745 111.894 21.4609C112.029 21.2448 112.21 21.0755 112.437 20.9531C112.663 20.8307 112.913 20.7396 113.187 20.6797C113.463 20.6172 113.74 20.5677 114.019 20.5313C114.383 20.4844 114.679 20.4492 114.905 20.4258C115.134 20.3997 115.301 20.3568 115.405 20.2969C115.512 20.237 115.565 20.1328 115.565 19.9844V19.9531C115.565 19.5677 115.46 19.2682 115.249 19.0547C115.041 18.8411 114.724 18.7344 114.3 18.7344C113.86 18.7344 113.515 18.8307 113.265 19.0234C113.015 19.2161 112.839 19.4219 112.737 19.6406L111.862 19.3281C112.019 18.9635 112.227 18.6797 112.487 18.4766C112.75 18.2708 113.037 18.1276 113.347 18.0469C113.659 17.9635 113.966 17.9219 114.269 17.9219C114.461 17.9219 114.683 17.9453 114.933 17.9922C115.185 18.0365 115.429 18.1289 115.663 18.2695C115.9 18.4102 116.097 18.6224 116.253 18.9062C116.409 19.1901 116.487 19.5703 116.487 20.0469V24H115.565V23.1875H115.519C115.456 23.3177 115.352 23.457 115.206 23.6055C115.06 23.7539 114.866 23.8802 114.624 23.9844C114.382 24.0885 114.086 24.1406 113.737 24.1406ZM113.878 23.3125C114.243 23.3125 114.55 23.2409 114.8 23.0977C115.052 22.9544 115.243 22.7695 115.37 22.543C115.5 22.3164 115.565 22.0781 115.565 21.8281V20.9844C115.526 21.0312 115.44 21.0742 115.308 21.1133C115.177 21.1497 115.026 21.1823 114.854 21.2109C114.685 21.237 114.52 21.2604 114.358 21.2812C114.2 21.2995 114.071 21.3151 113.972 21.3281C113.732 21.3594 113.508 21.4102 113.3 21.4805C113.094 21.5482 112.927 21.651 112.8 21.7891C112.675 21.9245 112.612 22.1094 112.612 22.3437C112.612 22.6641 112.731 22.9062 112.968 23.0703C113.207 23.2318 113.511 23.3125 113.878 23.3125ZM120.607 24.125C120.045 24.125 119.561 23.9922 119.154 23.7266C118.748 23.4609 118.436 23.0951 118.217 22.6289C117.998 22.1628 117.889 21.6302 117.889 21.0312C117.889 20.4219 118.001 19.8841 118.225 19.418C118.451 18.9492 118.766 18.5833 119.17 18.3203C119.576 18.0547 120.05 17.9219 120.592 17.9219C121.014 17.9219 121.394 18 121.732 18.1562C122.071 18.3125 122.348 18.5312 122.564 18.8125C122.781 19.0937 122.915 19.4219 122.967 19.7969H122.045C121.975 19.5234 121.818 19.2812 121.576 19.0703C121.337 18.8568 121.014 18.75 120.607 18.75C120.248 18.75 119.933 18.8437 119.662 19.0312C119.394 19.2161 119.184 19.4779 119.033 19.8164C118.885 20.1523 118.811 20.5469 118.811 21C118.811 21.4635 118.883 21.8672 119.029 22.2109C119.178 22.5547 119.386 22.8216 119.654 23.0117C119.925 23.2018 120.243 23.2969 120.607 23.2969C120.847 23.2969 121.064 23.2552 121.26 23.1719C121.455 23.0885 121.62 22.9688 121.756 22.8125C121.891 22.6562 121.988 22.4687 122.045 22.25H122.967C122.915 22.6042 122.786 22.9232 122.58 23.207C122.377 23.4883 122.107 23.7122 121.771 23.8789C121.438 24.043 121.05 24.125 120.607 24.125ZM125.174 21.8125L125.158 20.6719H125.346L127.971 18H129.111L126.314 20.8281H126.236L125.174 21.8125ZM124.314 24V16H125.236V24H124.314ZM128.127 24L125.783 21.0312L126.439 20.3906L129.299 24H128.127ZM132.473 26.375C132.027 26.375 131.645 26.3177 131.324 26.2031C131.004 26.0911 130.737 25.9427 130.523 25.7578C130.313 25.5755 130.145 25.3802 130.02 25.1719L130.754 24.6563C130.837 24.7656 130.943 24.8906 131.07 25.0312C131.198 25.1745 131.372 25.2982 131.594 25.4023C131.818 25.5091 132.111 25.5625 132.473 25.5625C132.957 25.5625 133.357 25.4453 133.672 25.2109C133.987 24.9766 134.145 24.6094 134.145 24.1094V22.8906H134.066C133.999 23 133.902 23.1354 133.777 23.2969C133.655 23.4557 133.478 23.5977 133.246 23.7227C133.017 23.8451 132.707 23.9062 132.316 23.9062C131.832 23.9062 131.397 23.7917 131.012 23.5625C130.629 23.3333 130.326 23 130.102 22.5625C129.88 22.125 129.77 21.5937 129.77 20.9687C129.77 20.3542 129.878 19.819 130.094 19.3633C130.31 18.9049 130.611 18.5508 130.996 18.3008C131.382 18.0482 131.827 17.9219 132.332 17.9219C132.723 17.9219 133.033 17.987 133.262 18.1172C133.493 18.2448 133.671 18.3906 133.793 18.5547C133.918 18.7161 134.014 18.849 134.082 18.9531H134.176V18H135.066V24.1719C135.066 24.6875 134.949 25.1068 134.715 25.4297C134.483 25.7552 134.171 25.9935 133.777 26.1445C133.387 26.2982 132.952 26.375 132.473 26.375ZM132.441 23.0781C132.811 23.0781 133.124 22.9935 133.379 22.8242C133.634 22.6549 133.828 22.4115 133.961 22.0938C134.094 21.776 134.16 21.3958 134.16 20.9531C134.16 20.5208 134.095 20.1393 133.965 19.8086C133.835 19.4779 133.642 19.2187 133.387 19.0312C133.132 18.8437 132.816 18.75 132.441 18.75C132.051 18.75 131.725 18.849 131.465 19.0469C131.207 19.2448 131.013 19.5104 130.883 19.8438C130.755 20.1771 130.691 20.5469 130.691 20.9531C130.691 21.3698 130.757 21.7383 130.887 22.0586C131.02 22.3763 131.215 22.6263 131.473 22.8086C131.733 22.9883 132.056 23.0781 132.441 23.0781ZM136.754 24V18H137.645V18.9062H137.707C137.816 18.6094 138.014 18.3685 138.301 18.1836C138.587 17.9987 138.91 17.9062 139.27 17.9062C139.337 17.9062 139.422 17.9076 139.523 17.9102C139.625 17.9128 139.702 17.9167 139.754 17.9219V18.8594C139.723 18.8516 139.651 18.8398 139.539 18.8242C139.43 18.806 139.314 18.7969 139.191 18.7969C138.9 18.7969 138.639 18.8581 138.41 18.9805C138.184 19.1003 138.004 19.2669 137.871 19.4805C137.741 19.6914 137.676 19.9323 137.676 20.2031V24H136.754ZM143.102 24.125C142.56 24.125 142.085 23.9961 141.676 23.7383C141.27 23.4805 140.952 23.1198 140.723 22.6562C140.496 22.1927 140.383 21.651 140.383 21.0312C140.383 20.4062 140.496 19.8607 140.723 19.3945C140.952 18.9284 141.27 18.5664 141.676 18.3086C142.085 18.0508 142.56 17.9219 143.102 17.9219C143.643 17.9219 144.117 18.0508 144.523 18.3086C144.932 18.5664 145.25 18.9284 145.477 19.3945C145.706 19.8607 145.82 20.4062 145.82 21.0312C145.82 21.651 145.706 22.1927 145.477 22.6562C145.25 23.1198 144.932 23.4805 144.523 23.7383C144.117 23.9961 143.643 24.125 143.102 24.125ZM143.102 23.2969C143.513 23.2969 143.852 23.1914 144.117 22.9805C144.383 22.7695 144.579 22.4922 144.707 22.1484C144.835 21.8047 144.898 21.4323 144.898 21.0312C144.898 20.6302 144.835 20.2565 144.707 19.9102C144.579 19.5638 144.383 19.2839 144.117 19.0703C143.852 18.8568 143.513 18.75 143.102 18.75C142.69 18.75 142.352 18.8568 142.086 19.0703C141.82 19.2839 141.624 19.5638 141.496 19.9102C141.368 20.2565 141.305 20.6302 141.305 21.0312C141.305 21.4323 141.368 21.8047 141.496 22.1484C141.624 22.4922 141.82 22.7695 142.086 22.9805C142.352 23.1914 142.69 23.2969 143.102 23.2969ZM151.009 21.5469V18H151.931V24H151.009V22.9844H150.946C150.806 23.2891 150.587 23.5482 150.29 23.7617C149.993 23.9727 149.618 24.0781 149.165 24.0781C148.79 24.0781 148.457 23.9961 148.165 23.832C147.873 23.6654 147.644 23.4154 147.478 23.082C147.311 22.7461 147.228 22.3229 147.228 21.8125V18H148.149V21.75C148.149 22.1875 148.272 22.5365 148.517 22.7969C148.764 23.0573 149.079 23.1875 149.462 23.1875C149.691 23.1875 149.924 23.1289 150.161 23.0117C150.401 22.8945 150.601 22.7148 150.763 22.4727C150.927 22.2305 151.009 21.9219 151.009 21.5469ZM154.541 20.3906V24H153.619V18H154.51V18.9375H154.588C154.729 18.6328 154.942 18.388 155.229 18.2031C155.515 18.0156 155.885 17.9219 156.338 17.9219C156.744 17.9219 157.1 18.0052 157.404 18.1719C157.709 18.3359 157.946 18.5859 158.115 18.9219C158.285 19.2552 158.369 19.6771 158.369 20.1875V24H157.447V20.25C157.447 19.7786 157.325 19.4115 157.08 19.1484C156.835 18.8828 156.499 18.75 156.072 18.75C155.778 18.75 155.515 18.8138 155.283 18.9414C155.054 19.069 154.873 19.2552 154.74 19.5C154.607 19.7448 154.541 20.0417 154.541 20.3906ZM162.319 24.125C161.819 24.125 161.378 23.9987 160.995 23.7461C160.612 23.4909 160.313 23.1315 160.097 22.668C159.881 22.2018 159.772 21.651 159.772 21.0156C159.772 20.3854 159.881 19.8385 160.097 19.375C160.313 18.9115 160.614 18.5534 160.999 18.3008C161.384 18.0482 161.83 17.9219 162.335 17.9219C162.726 17.9219 163.034 17.987 163.261 18.1172C163.49 18.2448 163.664 18.3906 163.784 18.5547C163.907 18.7161 164.002 18.849 164.069 18.9531H164.147V16H165.069V24H164.179V23.0781H164.069C164.002 23.1875 163.905 23.3255 163.78 23.4922C163.655 23.6562 163.477 23.8034 163.245 23.9336C163.013 24.0612 162.705 24.125 162.319 24.125ZM162.444 23.2969C162.814 23.2969 163.127 23.2005 163.382 23.0078C163.637 22.8125 163.831 22.543 163.964 22.1992C164.097 21.8529 164.163 21.4531 164.163 21C164.163 20.5521 164.098 20.1602 163.968 19.8242C163.838 19.4857 163.645 19.2227 163.39 19.0352C163.134 18.8451 162.819 18.75 162.444 18.75C162.054 18.75 161.728 18.8503 161.468 19.0508C161.21 19.2487 161.016 19.5182 160.886 19.8594C160.758 20.1979 160.694 20.5781 160.694 21C160.694 21.4271 160.759 21.8151 160.89 22.1641C161.022 22.5104 161.218 22.7865 161.476 22.9922C161.736 23.1953 162.059 23.2969 162.444 23.2969ZM169.979 26.25V18H170.87V18.9531H170.979C171.047 18.849 171.141 18.7161 171.261 18.5547C171.383 18.3906 171.558 18.2448 171.784 18.1172C172.013 17.987 172.323 17.9219 172.714 17.9219C173.219 17.9219 173.664 18.0482 174.05 18.3008C174.435 18.5534 174.736 18.9115 174.952 19.375C175.168 19.8385 175.276 20.3854 175.276 21.0156C175.276 21.651 175.168 22.2018 174.952 22.668C174.736 23.1315 174.437 23.4909 174.054 23.7461C173.671 23.9987 173.229 24.125 172.729 24.125C172.344 24.125 172.035 24.0612 171.804 23.9336C171.572 23.8034 171.394 23.6562 171.269 23.4922C171.144 23.3255 171.047 23.1875 170.979 23.0781H170.901V26.25H169.979ZM170.886 21C170.886 21.4531 170.952 21.8529 171.085 22.1992C171.218 22.543 171.412 22.8125 171.667 23.0078C171.922 23.2005 172.235 23.2969 172.604 23.2969C172.99 23.2969 173.312 23.1953 173.569 22.9922C173.83 22.7865 174.025 22.5104 174.155 22.1641C174.288 21.8151 174.354 21.4271 174.354 21C174.354 20.5781 174.289 20.1979 174.159 19.8594C174.032 19.5182 173.838 19.2487 173.577 19.0508C173.319 18.8503 172.995 18.75 172.604 18.75C172.229 18.75 171.914 18.8451 171.659 19.0352C171.404 19.2227 171.211 19.4857 171.081 19.8242C170.951 20.1602 170.886 20.5521 170.886 21ZM178.448 24.1406C178.068 24.1406 177.723 24.069 177.413 23.9258C177.103 23.7799 176.857 23.5703 176.675 23.2969C176.493 23.0208 176.401 22.6875 176.401 22.2969C176.401 21.9531 176.469 21.6745 176.604 21.4609C176.74 21.2448 176.921 21.0755 177.147 20.9531C177.374 20.8307 177.624 20.7396 177.897 20.6797C178.174 20.6172 178.451 20.5677 178.729 20.5313C179.094 20.4844 179.39 20.4492 179.616 20.4258C179.845 20.3997 180.012 20.3568 180.116 20.2969C180.223 20.237 180.276 20.1328 180.276 19.9844V19.9531C180.276 19.5677 180.171 19.2682 179.96 19.0547C179.752 18.8411 179.435 18.7344 179.011 18.7344C178.571 18.7344 178.226 18.8307 177.976 19.0234C177.726 19.2161 177.55 19.4219 177.448 19.6406L176.573 19.3281C176.729 18.9635 176.938 18.6797 177.198 18.4766C177.461 18.2708 177.748 18.1276 178.058 18.0469C178.37 17.9635 178.677 17.9219 178.979 17.9219C179.172 17.9219 179.394 17.9453 179.644 17.9922C179.896 18.0365 180.14 18.1289 180.374 18.2695C180.611 18.4102 180.808 18.6224 180.964 18.9062C181.12 19.1901 181.198 19.5703 181.198 20.0469V24H180.276V23.1875H180.229C180.167 23.3177 180.063 23.457 179.917 23.6055C179.771 23.7539 179.577 23.8802 179.335 23.9844C179.093 24.0885 178.797 24.1406 178.448 24.1406ZM178.589 23.3125C178.953 23.3125 179.261 23.2409 179.511 23.0977C179.763 22.9544 179.953 22.7695 180.081 22.543C180.211 22.3164 180.276 22.0781 180.276 21.8281V20.9844C180.237 21.0312 180.151 21.0742 180.019 21.1133C179.888 21.1497 179.737 21.1823 179.565 21.2109C179.396 21.237 179.231 21.2604 179.069 21.2812C178.91 21.2995 178.782 21.3151 178.683 21.3281C178.443 21.3594 178.219 21.4102 178.011 21.4805C177.805 21.5482 177.638 21.651 177.511 21.7891C177.386 21.9245 177.323 22.1094 177.323 22.3437C177.323 22.6641 177.442 22.9062 177.679 23.0703C177.918 23.2318 178.222 23.3125 178.589 23.3125ZM185.49 18V18.7812H182.381V18H185.49ZM183.287 16.5625H184.209V22.2812C184.209 22.5417 184.247 22.737 184.322 22.8672C184.4 22.9948 184.499 23.0807 184.619 23.125C184.742 23.1667 184.87 23.1875 185.006 23.1875C185.107 23.1875 185.191 23.1823 185.256 23.1719C185.321 23.1589 185.373 23.1484 185.412 23.1406L185.6 23.9687C185.537 23.9922 185.45 24.0156 185.338 24.0391C185.226 24.0651 185.084 24.0781 184.912 24.0781C184.652 24.0781 184.396 24.0221 184.146 23.9102C183.899 23.7982 183.693 23.6276 183.529 23.3984C183.368 23.1693 183.287 22.8802 183.287 22.5312V16.5625ZM189.486 18V18.7812H186.377V18H189.486ZM187.283 16.5625H188.205V22.2812C188.205 22.5417 188.243 22.737 188.318 22.8672C188.396 22.9948 188.495 23.0807 188.615 23.125C188.738 23.1667 188.867 23.1875 189.002 23.1875C189.104 23.1875 189.187 23.1823 189.252 23.1719C189.317 23.1589 189.369 23.1484 189.408 23.1406L189.596 23.9687C189.533 23.9922 189.446 24.0156 189.334 24.0391C189.222 24.0651 189.08 24.0781 188.908 24.0781C188.648 24.0781 188.393 24.0221 188.143 23.9102C187.895 23.7982 187.689 23.6276 187.525 23.3984C187.364 23.1693 187.283 22.8802 187.283 22.5312V16.5625ZM193.324 24.125C192.746 24.125 192.247 23.9974 191.828 23.7422C191.411 23.4844 191.09 23.125 190.863 22.6641C190.639 22.2005 190.527 21.6615 190.527 21.0469C190.527 20.4323 190.639 19.8906 190.863 19.4219C191.09 18.9505 191.405 18.5833 191.809 18.3203C192.215 18.0547 192.689 17.9219 193.23 17.9219C193.543 17.9219 193.852 17.974 194.156 18.0781C194.461 18.1823 194.738 18.3516 194.988 18.5859C195.238 18.8177 195.438 19.125 195.586 19.5078C195.734 19.8906 195.809 20.362 195.809 20.9219V21.3125H191.184V20.5156H194.871C194.871 20.1771 194.803 19.875 194.668 19.6094C194.535 19.3437 194.345 19.1341 194.098 18.9805C193.853 18.8268 193.564 18.75 193.23 18.75C192.863 18.75 192.546 18.8411 192.277 19.0234C192.012 19.2031 191.807 19.4375 191.664 19.7266C191.521 20.0156 191.449 20.3255 191.449 20.6562V21.1875C191.449 21.6406 191.527 22.0247 191.684 22.3398C191.842 22.6523 192.063 22.8906 192.344 23.0547C192.625 23.2161 192.952 23.2969 193.324 23.2969C193.566 23.2969 193.785 23.263 193.98 23.1953C194.178 23.125 194.349 23.0208 194.492 22.8828C194.635 22.7422 194.746 22.5677 194.824 22.3594L195.715 22.6094C195.621 22.9115 195.464 23.1771 195.242 23.4062C195.021 23.6328 194.747 23.8099 194.422 23.9375C194.096 24.0625 193.73 24.125 193.324 24.125ZM197.211 24V18H198.102V18.9062H198.164C198.273 18.6094 198.471 18.3685 198.758 18.1836C199.044 17.9987 199.367 17.9062 199.727 17.9062C199.794 17.9062 199.879 17.9076 199.98 17.9102C200.082 17.9128 200.159 17.9167 200.211 17.9219V18.8594C200.18 18.8516 200.108 18.8398 199.996 18.8242C199.887 18.806 199.771 18.7969 199.648 18.7969C199.357 18.7969 199.096 18.8581 198.867 18.9805C198.641 19.1003 198.461 19.2669 198.328 19.4805C198.198 19.6914 198.133 19.9323 198.133 20.2031V24H197.211ZM202.226 20.3906V24H201.304V18H202.194V18.9375H202.272C202.413 18.6328 202.627 18.388 202.913 18.2031C203.2 18.0156 203.569 17.9219 204.022 17.9219C204.429 17.9219 204.784 18.0052 205.089 18.1719C205.394 18.3359 205.631 18.5859 205.8 18.9219C205.969 19.2552 206.054 19.6771 206.054 20.1875V24H205.132V20.25C205.132 19.7786 205.009 19.4115 204.765 19.1484C204.52 18.8828 204.184 18.75 203.757 18.75C203.463 18.75 203.2 18.8138 202.968 18.9414C202.739 19.069 202.558 19.2552 202.425 19.5C202.292 19.7448 202.226 20.0417 202.226 20.3906Z" fill="black"/>
</svg>
