<svg width="156" height="156" viewBox="0 0 156 156" fill="none" xmlns="http://www.w3.org/2000/svg">
<circle cx="78" cy="78" r="78" fill="#F0EAE1"/>
<g clip-path="url(#clip0_75_16044)">
<path d="M48.8539 21.8853L50.2858 24.8467L49.3361 25.3099L45.675 17.7462L48.0813 16.5784C48.785 16.2384 49.4395 16.1792 50.0447 16.4059C50.65 16.6326 51.1224 17.0957 51.4619 17.7955C51.8162 18.5247 51.895 19.1752 51.703 19.7566C51.5111 20.3331 51.0683 20.8012 50.3843 21.1511L48.8588 21.8902L48.8539 21.8853ZM48.4602 21.0673L49.9168 20.3578C50.34 20.1508 50.6008 19.8699 50.7041 19.5053C50.8075 19.1407 50.7435 18.7268 50.5171 18.2537C50.2957 17.8004 50.0054 17.4899 49.6412 17.3273C49.2771 17.1647 48.8932 17.1844 48.4848 17.3815L47.0233 18.0911L48.4602 21.0624V21.0673Z" fill="#464646"/>
<path d="M55.497 16.8197C55.3543 16.8443 55.2067 16.8887 55.0541 16.9478C54.567 17.135 54.3308 17.5342 54.3406 18.1452L55.9547 22.3139L55.0049 22.6834L52.7512 16.8591L53.6763 16.4994L53.9223 17.0858C53.9962 16.5191 54.2668 16.1495 54.7343 15.9672C54.8868 15.9081 55.0197 15.8835 55.1378 15.8982L55.5019 16.8246L55.497 16.8197Z" fill="#464646"/>
<path d="M56.9044 18.2833C56.6386 17.416 56.6436 16.6621 56.9093 16.0265C57.175 15.3908 57.6573 14.9671 58.3462 14.7601C59.04 14.5482 59.6699 14.6271 60.2407 14.9917C60.8115 15.3563 61.2298 15.9624 61.5004 16.81L61.6923 17.4407C61.9532 18.3079 61.9532 19.0569 61.6874 19.6876C61.4217 20.3183 60.9395 20.7421 60.2407 20.954C59.5469 21.1659 58.9219 21.087 58.356 20.7273C57.7901 20.3676 57.3719 19.7665 57.1061 18.9337L56.9093 18.2833H56.9044ZM58.0509 18.5494C58.2379 19.1653 58.5036 19.6137 58.853 19.8897C59.2024 20.1705 59.5764 20.2444 59.9848 20.1212C60.846 19.8601 61.1018 19.1013 60.7475 17.8497L60.5409 17.1746C60.3539 16.5636 60.0882 16.1152 59.7388 15.8343C59.3894 15.5534 59.0105 15.4746 58.6021 15.5978C58.2035 15.721 57.9328 15.9969 57.8 16.4256C57.6671 16.8543 57.6917 17.3717 57.8787 17.9827L58.0509 18.5494Z" fill="#464646"/>
<path d="M64.0839 19.8009L62.9176 14.5038L62.1254 14.6812L61.9482 13.8731L62.7405 13.6957L62.583 12.9911C62.46 12.3702 62.5092 11.8479 62.7355 11.434C62.9619 11.0201 63.3507 10.749 63.9018 10.6308C64.0986 10.5864 64.3102 10.5766 64.5267 10.5914L64.6596 11.4438C64.507 11.4438 64.3545 11.4586 64.1921 11.4931C63.6262 11.6163 63.4294 12.0844 63.6115 12.8975L63.7394 13.474L64.7826 13.2424L64.9598 14.0505L63.9165 14.2821L65.0828 19.5792L64.0839 19.8009Z" fill="#464646"/>
<path d="M69.2409 18.9583C68.4733 19.0716 67.8483 18.9287 67.371 18.5296C66.8937 18.1304 66.5837 17.4899 66.4508 16.6029L66.3425 15.8539C66.2097 14.9325 66.3032 14.1786 66.628 13.5971C66.9527 13.0157 67.4743 12.6707 68.1928 12.5673C68.9161 12.4638 69.4919 12.6116 69.9151 13.0206C70.3383 13.4296 70.6286 14.1194 70.7762 15.0951L70.8746 15.7603L67.43 16.2629L67.4497 16.4058C67.5481 17.071 67.7401 17.5342 68.0353 17.7954C68.3306 18.0615 68.7095 18.16 69.1769 18.091C69.4722 18.0467 69.7281 17.9531 69.9348 17.8102C70.1464 17.6673 70.3284 17.4554 70.4908 17.1844L71.1108 17.7461C70.7615 18.4261 70.1414 18.8351 69.2409 18.9632V18.9583ZM68.3207 13.4345C67.9025 13.4936 67.6121 13.6858 67.4547 14.0012C67.2972 14.3165 67.248 14.7797 67.307 15.3907L69.7379 15.036L69.7182 14.898C69.6051 14.3165 69.4378 13.9125 69.2163 13.6858C68.9949 13.4592 68.6947 13.3754 68.3207 13.4296V13.4345Z" fill="#464646"/>
<path d="M75.264 16.6817C75.2493 16.4649 75.1558 16.2777 74.9835 16.1299C74.8113 15.982 74.4816 15.8145 73.9944 15.6322C73.4335 15.4351 73.0349 15.2675 72.7987 15.1197C72.5625 14.9719 72.3853 14.7994 72.2623 14.5974C72.1393 14.4003 72.0704 14.1588 72.0507 13.873C72.0212 13.3655 72.1836 12.9319 72.533 12.5771C72.8823 12.2174 73.3449 12.0252 73.9206 11.9907C74.5259 11.9562 75.0229 12.1041 75.4116 12.4342C75.8004 12.7644 76.012 13.2078 76.0415 13.7646L75.0278 13.8238C75.0131 13.5429 74.9048 13.3113 74.703 13.1241C74.5013 12.9368 74.2602 12.8531 73.9649 12.8678C73.6648 12.8875 73.4335 12.9762 73.2711 13.1438C73.1087 13.3113 73.0349 13.5232 73.0496 13.7844C73.0595 13.9913 73.1333 14.1539 73.2662 14.2722C73.399 14.3904 73.709 14.5383 74.1962 14.7206C74.9688 14.9719 75.5002 15.233 75.7905 15.4991C76.0809 15.7652 76.2383 16.1151 76.263 16.5536C76.2925 17.0957 76.135 17.5391 75.7807 17.889C75.4264 18.2339 74.9392 18.4261 74.3143 18.4655C73.6647 18.5049 73.1284 18.3472 72.7052 17.9974C72.282 17.6475 72.0507 17.1893 72.0163 16.6128L73.0398 16.5536C73.0693 16.8986 73.1923 17.1646 73.4039 17.347C73.6155 17.5293 73.9009 17.613 74.2602 17.5933C74.5997 17.5736 74.8507 17.4849 75.018 17.3223C75.1853 17.1597 75.264 16.9528 75.2493 16.6916L75.264 16.6817Z" fill="#464646"/>
<path d="M80.5933 16.6917C80.5982 16.4699 80.5195 16.2827 80.362 16.1201C80.1996 15.9575 79.8847 15.7653 79.4221 15.5386C78.8808 15.2972 78.497 15.0902 78.2756 14.9227C78.0541 14.7552 77.8917 14.5679 77.7835 14.356C77.6752 14.1491 77.626 13.9027 77.6359 13.6169C77.6506 13.1094 77.8475 12.6905 78.2264 12.3653C78.6053 12.0401 79.0826 11.8824 79.6583 11.8972C80.2636 11.912 80.7507 12.1041 81.11 12.4688C81.4692 12.8334 81.6414 13.2917 81.6267 13.8436L80.613 13.8189C80.6228 13.5381 80.5342 13.2966 80.3472 13.0946C80.1652 12.8926 79.929 12.7841 79.6337 12.7792C79.3335 12.7694 79.0973 12.8433 78.9202 12.9911C78.743 13.1439 78.6545 13.3459 78.6446 13.607C78.6397 13.814 78.6988 13.9815 78.8169 14.1146C78.9399 14.2427 79.2351 14.4201 79.7075 14.6369C80.4555 14.9523 80.9623 15.2578 81.2281 15.5485C81.4938 15.8392 81.6217 16.2038 81.607 16.6375C81.5922 17.1795 81.3954 17.6131 81.0116 17.9285C80.6277 18.2438 80.1258 18.3917 79.5009 18.3769C78.8513 18.3572 78.3297 18.1601 77.936 17.7757C77.5424 17.3914 77.3554 16.9134 77.3701 16.3418L78.3937 16.3714C78.3937 16.7163 78.497 16.9923 78.6889 17.1943C78.8808 17.3963 79.1613 17.4998 79.5205 17.5096C79.8601 17.5195 80.116 17.4505 80.298 17.3027C80.4801 17.1549 80.5736 16.9528 80.5785 16.6966L80.5933 16.6917Z" fill="#464646"/>
<path d="M83.8558 18.5394L82.8372 18.4458L83.4031 12.2223L84.4217 12.316L83.8558 18.5394ZM84.6481 10.6751C84.6333 10.8475 84.5693 10.9855 84.466 11.0939C84.3577 11.2023 84.2101 11.2467 84.0133 11.227C83.8214 11.2073 83.6836 11.1383 83.5999 11.0151C83.5163 10.8919 83.4818 10.7441 83.4966 10.5716C83.5113 10.3991 83.5753 10.2562 83.6786 10.1478C83.7869 10.0394 83.9345 9.99016 84.1264 10.0099C84.3184 10.0296 84.4561 10.0986 84.5447 10.2316C84.6333 10.3597 84.6677 10.5125 84.653 10.68L84.6481 10.6751Z" fill="#464646"/>
<path d="M85.647 15.2577C85.7897 14.3609 86.1243 13.6858 86.641 13.2325C87.1577 12.7791 87.7777 12.6116 88.4912 12.7249C89.2048 12.8383 89.7362 13.1881 90.0905 13.7646C90.4448 14.3461 90.5531 15.0754 90.4251 15.9525L90.3218 16.6029C90.1791 17.4948 89.8494 18.1698 89.3327 18.6183C88.816 19.0716 88.196 19.2342 87.4775 19.1209C86.764 19.0075 86.2326 18.6626 85.8832 18.0861C85.5338 17.5096 85.4206 16.7901 85.5437 15.9278L85.6519 15.2528L85.647 15.2577ZM86.5623 16.0017C86.4589 16.6374 86.5032 17.1548 86.6951 17.5588C86.887 17.9629 87.1921 18.1994 87.6104 18.2635C88.4962 18.4064 89.0571 17.8397 89.2933 16.5585L89.4065 15.8638C89.5099 15.233 89.4606 14.7157 89.2687 14.3067C89.0768 13.8977 88.7717 13.6612 88.3485 13.5922C87.9352 13.5232 87.576 13.6562 87.266 13.9815C86.9609 14.3067 86.7542 14.7846 86.6558 15.4104L86.5623 15.9968V16.0017Z" fill="#464646"/>
<path d="M93.4711 13.8337L93.3284 14.494C93.8451 14.085 94.4012 13.952 94.9966 14.1097C96.0644 14.3856 96.4236 15.2381 96.0693 16.672L95.031 20.6929L94.0469 20.4366L95.0753 16.4601C95.1983 15.9871 95.2033 15.6323 95.0999 15.3908C94.9966 15.1494 94.7801 14.9917 94.4651 14.9079C94.2191 14.8439 93.978 14.8685 93.7418 14.9818C93.5056 15.0952 93.2891 15.2676 93.1021 15.5042L91.9654 19.8995L90.9763 19.6433L92.5411 13.5923L93.4711 13.8337Z" fill="#464646"/>
<path d="M99.3319 22.1758C99.3171 22.028 99.3565 21.8013 99.4352 21.4909C98.9136 21.8703 98.392 21.964 97.8654 21.7718C97.334 21.5796 96.9698 21.284 96.7829 20.875C96.5909 20.4709 96.5959 19.9929 96.7878 19.4509C97.0043 18.8547 97.3734 18.4506 97.9048 18.2437C98.4363 18.0367 99.0563 18.0564 99.7649 18.3028L100.469 18.559L100.695 17.9332C100.823 17.5834 100.833 17.3025 100.729 17.1005C100.626 16.8935 100.414 16.7359 100.1 16.6225C99.8092 16.519 99.5434 16.519 99.3023 16.6225C99.0612 16.7309 98.889 16.9132 98.7955 17.1793L97.8359 16.8344C97.9442 16.5338 98.1361 16.2776 98.4117 16.0706C98.6872 15.8637 99.0022 15.7306 99.3614 15.6863C99.7157 15.637 100.08 15.6814 100.449 15.8144C101.049 16.0312 101.453 16.3466 101.659 16.7556C101.866 17.1645 101.871 17.6622 101.669 18.2338L100.606 21.2002C100.449 21.6535 100.37 22.0674 100.37 22.4469L100.341 22.5356L99.3417 22.1758H99.3319ZM98.328 20.9489C98.5642 21.0327 98.8102 21.0474 99.071 20.9932C99.3318 20.939 99.5434 20.8306 99.7108 20.6729L100.213 19.2686L99.6714 19.0715C99.2137 18.9138 98.8152 18.8892 98.4805 18.9877C98.1459 19.0912 97.9146 19.3179 97.7867 19.6727C97.6686 20.0077 97.6489 20.2738 97.7277 20.4709C97.8064 20.668 98.0081 20.8257 98.3231 20.939L98.328 20.9489Z" fill="#464646"/>
<path d="M102.471 23.4866L101.536 23.0776L105.084 14.9521L106.019 15.3611L102.471 23.4866Z" fill="#464646"/>
<path d="M107.146 25.8272L106.251 25.3393L109.237 19.855L110.133 20.3428L107.151 25.8272H107.146ZM110.994 18.9237C110.911 19.0765 110.802 19.1799 110.66 19.2341C110.517 19.2883 110.364 19.2686 110.192 19.175C110.025 19.0814 109.926 18.9631 109.897 18.8153C109.867 18.6675 109.897 18.5196 109.976 18.3669C110.059 18.2141 110.172 18.1107 110.31 18.0515C110.453 17.9924 110.605 18.0072 110.778 18.1008C110.945 18.1944 111.043 18.3176 111.073 18.4704C111.102 18.6231 111.073 18.7759 110.994 18.9237Z" fill="#464646"/>
<path d="M112.608 21.7769L112.269 22.3632C112.884 22.1316 113.455 22.1809 113.971 22.5111C114.901 23.1024 114.98 24.0287 114.203 25.2803L111.978 28.7838L111.122 28.2369L113.322 24.7728C113.583 24.3589 113.701 24.0238 113.671 23.7627C113.642 23.5015 113.494 23.2847 113.218 23.1073C113.002 22.9693 112.766 22.9201 112.505 22.9545C112.244 22.989 111.988 23.0876 111.737 23.2551L109.306 27.0838L108.445 26.5369L111.791 21.2644L112.603 21.7818L112.608 21.7769Z" fill="#464646"/>
<path d="M116.451 30.134C116.584 29.9615 116.634 29.7595 116.599 29.5328C116.565 29.3061 116.422 28.9661 116.176 28.5079C115.876 27.9905 115.689 27.6012 115.61 27.3351C115.531 27.069 115.507 26.8227 115.546 26.5911C115.58 26.3595 115.689 26.1328 115.861 25.9061C116.171 25.5021 116.574 25.2803 117.071 25.2409C117.568 25.2015 118.051 25.3542 118.508 25.709C118.991 26.0786 119.271 26.5171 119.345 27.0247C119.419 27.5322 119.291 28.0053 118.956 28.4438L118.149 27.8229C118.321 27.6012 118.39 27.3548 118.361 27.0789C118.331 26.8029 118.203 26.5812 117.972 26.4038C117.736 26.2215 117.5 26.1377 117.268 26.1574C117.037 26.1771 116.845 26.2905 116.683 26.4974C116.555 26.66 116.506 26.8325 116.525 27.0099C116.545 27.1873 116.683 27.5027 116.939 27.956C117.357 28.6557 117.593 29.1977 117.637 29.587C117.682 29.9763 117.573 30.3458 117.308 30.6908C116.978 31.1244 116.565 31.351 116.073 31.3855C115.58 31.4151 115.083 31.2426 114.586 30.8583C114.07 30.4641 113.765 29.9911 113.676 29.449C113.588 28.907 113.711 28.4093 114.06 27.9511L114.872 28.5769C114.67 28.8577 114.591 29.1386 114.626 29.4145C114.665 29.6905 114.828 29.9418 115.113 30.1635C115.379 30.3705 115.63 30.469 115.866 30.4542C116.097 30.4395 116.294 30.3311 116.451 30.129V30.134Z" fill="#464646"/>
<path d="M123.316 27.8918L122.312 29.0252L123.016 29.651L122.47 30.2669L121.766 29.6411L119.197 32.5434C119.035 32.7307 118.941 32.8933 118.917 33.046C118.892 33.1938 118.956 33.3318 119.099 33.4649C119.197 33.5535 119.315 33.6275 119.453 33.6866L118.872 34.3222C118.651 34.2286 118.449 34.0956 118.267 33.9379C117.967 33.6718 117.829 33.3564 117.864 33.0017C117.898 32.6469 118.09 32.2675 118.439 31.8733L121.008 28.971L120.295 28.3402L120.841 27.7243L121.554 28.355L122.558 27.2217L123.316 27.8968V27.8918Z" fill="#464646"/>
<path d="M125.22 33.1445C125.137 33.0262 125.038 32.908 124.92 32.7897C124.551 32.4201 124.089 32.3659 123.537 32.6271L120.393 35.8004L119.67 35.081L124.064 30.6462L124.768 31.3459L124.335 31.8091C124.881 31.6465 125.329 31.7402 125.688 32.0949C125.801 32.2083 125.88 32.3216 125.919 32.4349L125.225 33.1445H125.22Z" fill="#464646"/>
<path d="M124.61 39.5651C124.054 39.5996 123.562 39.373 123.139 38.8802C122.77 38.4515 122.637 38.0031 122.74 37.5301C122.844 37.057 123.178 36.5741 123.739 36.0814L126.81 33.4106L127.474 34.1793L124.463 36.8008C123.729 37.4414 123.552 37.9785 123.936 38.4219C124.34 38.8901 124.832 39.033 125.402 38.8457L128.891 35.8104L129.561 36.584L124.851 40.6837L124.217 39.9495L124.615 39.5701L124.61 39.5651Z" fill="#464646"/>
<path d="M127.568 43.0539C127.764 43.3298 128.01 43.4875 128.301 43.5269C128.591 43.5713 128.896 43.4826 129.221 43.2707L129.787 44.0542C129.29 44.3892 128.758 44.5075 128.207 44.4139C127.656 44.3202 127.203 44.0345 126.864 43.5663C126.411 42.9405 126.264 42.3197 126.421 41.7037C126.579 41.0878 127.046 40.5014 127.824 39.9348L128.38 39.5307C129.142 38.9788 129.841 38.7226 130.476 38.762C131.111 38.8014 131.652 39.1365 132.105 39.7623C132.479 40.2797 132.611 40.8069 132.503 41.3489C132.395 41.891 132.065 42.3739 131.514 42.8026L130.948 42.0191C131.307 41.7284 131.524 41.4376 131.593 41.142C131.662 40.8463 131.593 40.5556 131.391 40.2698C131.125 39.9003 130.806 39.7179 130.436 39.713C130.067 39.713 129.605 39.9052 129.049 40.2994L128.404 40.7675C127.809 41.1962 127.454 41.5904 127.331 41.9452C127.208 42.3 127.292 42.6695 127.568 43.0489V43.0539Z" fill="#464646"/>
<path d="M136.017 43.1425L134.732 43.9407L135.229 44.739L134.531 45.1726L134.034 44.3744L130.742 46.4193C130.53 46.5474 130.397 46.6804 130.328 46.8184C130.264 46.9564 130.284 47.1042 130.387 47.2717C130.456 47.3851 130.55 47.4886 130.663 47.5822L129.925 48.0257C129.738 47.868 129.58 47.6906 129.452 47.4836C129.241 47.1387 129.201 46.8036 129.334 46.4686C129.467 46.1384 129.757 45.8329 130.205 45.552L133.497 43.5071L132.995 42.699L133.694 42.2654L134.196 43.0735L135.48 42.2752L136.017 43.1376V43.1425Z" fill="#464646"/>
<path d="M131.002 49.9573L130.51 49.0654L135.967 46.0399L136.46 46.9318L131.002 49.9573ZM137.951 46.1976C137.798 46.2814 137.65 46.3109 137.503 46.2814C137.355 46.2518 137.232 46.1533 137.139 45.9808C137.045 45.8133 137.025 45.6605 137.08 45.5176C137.134 45.3796 137.237 45.2663 137.39 45.1825C137.542 45.0988 137.69 45.0692 137.842 45.0938C137.995 45.1185 138.113 45.217 138.206 45.3846C138.3 45.5521 138.315 45.7098 138.261 45.8527C138.202 45.9956 138.098 46.1089 137.951 46.1927V46.1976Z" fill="#464646"/>
<path d="M134.718 49.6025C135.539 49.2181 136.282 49.1146 136.947 49.292C137.611 49.4694 138.098 49.8833 138.403 50.5387C138.708 51.1941 138.723 51.8297 138.443 52.4506C138.162 53.0665 137.621 53.5691 136.824 53.9584L136.228 54.2343C135.411 54.6187 134.668 54.7222 134.004 54.5448C133.34 54.3723 132.858 53.9485 132.548 53.2883C132.242 52.6329 132.228 51.9972 132.508 51.3862C132.789 50.7752 133.32 50.2775 134.102 49.8932L134.718 49.6074V49.6025ZM134.614 50.7752C134.034 51.0462 133.63 51.3764 133.404 51.7607C133.177 52.1451 133.153 52.5294 133.335 52.9187C133.714 53.7367 134.501 53.8796 135.687 53.3572L136.327 53.0616C136.907 52.7906 137.311 52.4654 137.537 52.0761C137.769 51.6868 137.788 51.3025 137.611 50.9132C137.434 50.5338 137.124 50.3071 136.681 50.2332C136.238 50.1593 135.731 50.2578 135.156 50.5288L134.619 50.7801L134.614 50.7752Z" fill="#464646"/>
<path d="M140.288 55.289L139.663 55.5452C140.293 55.7423 140.711 56.1316 140.918 56.7081C141.287 57.7478 140.785 58.5264 139.402 59.0339L135.495 60.4284L135.156 59.4725L139.018 58.0928C139.476 57.9301 139.776 57.733 139.919 57.5113C140.057 57.2896 140.071 57.0235 139.963 56.713C139.88 56.4716 139.722 56.2893 139.496 56.1562C139.269 56.0232 139.004 55.9444 138.708 55.9197L134.437 57.4423L134.093 56.4815L139.968 54.3823L140.293 55.289H140.288Z" fill="#464646"/>
<path d="M136.676 64.8187C136.789 64.725 137.001 64.6265 137.301 64.5181C136.696 64.3013 136.327 63.9169 136.189 63.3749C136.046 62.828 136.09 62.3598 136.322 61.9755C136.548 61.5862 136.942 61.3251 137.503 61.1822C138.118 61.0245 138.659 61.1082 139.127 61.4335C139.594 61.7587 139.924 62.2859 140.121 63.0103L140.308 63.7395L140.952 63.5769C141.312 63.4833 141.548 63.3355 141.661 63.1384C141.774 62.9364 141.784 62.6752 141.7 62.3451C141.622 62.0445 141.474 61.8277 141.248 61.6848C141.021 61.5419 140.775 61.5074 140.504 61.5764L140.254 60.5859C140.564 60.5071 140.878 60.5219 141.208 60.6303C141.538 60.7387 141.818 60.9309 142.059 61.1969C142.301 61.463 142.468 61.7882 142.566 62.1677C142.724 62.7885 142.689 63.2961 142.468 63.7001C142.246 64.1042 141.838 64.3801 141.252 64.5427L138.202 65.3262C137.739 65.4494 137.35 65.6169 137.04 65.8288L136.952 65.8535L136.686 64.8236L136.676 64.8187ZM137.124 63.2961C137.188 63.5375 137.311 63.7543 137.503 63.9366C137.695 64.1239 137.901 64.2421 138.128 64.2865L139.57 63.9169L139.427 63.3601C139.299 62.892 139.097 62.5471 138.826 62.3303C138.556 62.1135 138.236 62.0494 137.872 62.143C137.527 62.2317 137.296 62.3648 137.178 62.5422C137.06 62.7195 137.04 62.9708 137.124 63.301V63.2961Z" fill="#464646"/>
<path d="M137.36 68.1596L137.173 67.1544L145.883 65.5332L146.07 66.5384L137.36 68.1596Z" fill="#464646"/>
<path d="M139.643 73.8559L144.412 74.6689L144.495 75.7037L138.128 74.3486L138.069 73.5898L144.141 71.2295L144.225 72.2643L139.648 73.8608L139.643 73.8559Z" fill="#464646"/>
<path d="M138.285 78.2314L138.266 77.2114L144.505 77.103L144.525 78.123L138.285 78.2314ZM146.178 78.1723C146.006 78.1723 145.858 78.1279 145.745 78.0343C145.627 77.9407 145.568 77.7928 145.563 77.6007C145.563 77.4085 145.617 77.2607 145.73 77.1621C145.844 77.0636 145.986 77.0143 146.159 77.0094C146.331 77.0044 146.478 77.0537 146.601 77.1473C146.724 77.241 146.783 77.3839 146.788 77.576C146.793 77.7682 146.734 77.916 146.616 78.0146C146.498 78.1131 146.35 78.1673 146.183 78.1673L146.178 78.1723Z" fill="#464646"/>
<path d="M141.725 79.6653C142.684 79.7145 143.408 79.9314 143.89 80.3157C144.377 80.7 144.599 81.2273 144.569 81.9024C144.54 82.4986 144.274 82.9519 143.772 83.2624L146.995 83.425L146.946 84.445L138.098 84.0015L138.142 83.0653L138.812 83.0456C138.305 82.6858 138.069 82.1931 138.098 81.5722C138.133 80.9267 138.408 80.434 138.925 80.089C139.442 79.749 140.16 79.5963 141.075 79.6357L141.715 79.6702L141.725 79.6653ZM141.095 80.6557C140.396 80.6212 139.88 80.7001 139.54 80.8873C139.2 81.0795 139.023 81.4096 138.999 81.8777C138.974 82.3853 139.21 82.7795 139.707 83.0505L142.847 83.2082C143.359 82.9716 143.624 82.607 143.649 82.1143C143.674 81.6461 143.526 81.2963 143.206 81.0745C142.886 80.8479 142.389 80.7198 141.71 80.6803L141.09 80.6508L141.095 80.6557Z" fill="#464646"/>
<path d="M137.542 87.5692C137.65 86.8005 137.965 86.2387 138.482 85.8938C138.999 85.5489 139.702 85.4306 140.588 85.5489L141.336 85.6524C142.256 85.7854 142.95 86.086 143.418 86.564C143.885 87.0419 144.067 87.6382 143.964 88.3576C143.86 89.0819 143.555 89.5895 143.044 89.8851C142.532 90.1808 141.789 90.2596 140.814 90.1315L140.15 90.0379L140.637 86.5837L140.495 86.564C139.83 86.4703 139.333 86.5245 138.999 86.7315C138.664 86.9385 138.462 87.2785 138.393 87.7466C138.354 88.0422 138.369 88.3132 138.452 88.5547C138.536 88.7961 138.679 89.0376 138.895 89.2692L138.182 89.7028C137.626 89.1756 137.414 88.466 137.542 87.5643V87.5692ZM143.098 88.2393C143.157 87.8205 143.058 87.4903 142.798 87.244C142.537 87.0025 142.109 86.8251 141.508 86.7118L141.164 89.146L141.302 89.1657C141.892 89.2199 142.325 89.1756 142.601 89.0277C142.876 88.8799 143.044 88.6138 143.098 88.2393Z" fill="#464646"/>
<path d="M140.529 91.2499C141.41 91.4618 142.059 91.8412 142.473 92.3931C142.886 92.945 143.009 93.5708 142.842 94.2754C142.675 94.9801 142.291 95.4876 141.686 95.798C141.08 96.1085 140.347 96.1676 139.481 95.9705L138.841 95.8178C137.96 95.6108 137.316 95.2314 136.907 94.6795C136.494 94.1325 136.376 93.5018 136.543 92.7873C136.711 92.0827 137.094 91.5752 137.69 91.2696C138.285 90.9641 139.013 90.9001 139.865 91.0873L140.529 91.245V91.2499ZM139.722 92.1073C139.097 91.9595 138.576 91.9644 138.162 92.127C137.749 92.2896 137.488 92.5754 137.39 92.9894C137.183 93.8665 137.709 94.4676 138.964 94.7928L139.648 94.9554C140.268 95.1033 140.79 95.0934 141.208 94.9357C141.626 94.7731 141.887 94.4873 141.986 94.0685C142.084 93.6595 141.981 93.2899 141.676 92.9598C141.371 92.6296 140.913 92.3882 140.298 92.2453L139.722 92.1073Z" fill="#464646"/>
<path d="M136.322 99.622C136.528 99.6909 136.735 99.6712 136.937 99.5678C137.139 99.4594 137.414 99.2179 137.768 98.8336C138.157 98.3851 138.467 98.0796 138.689 97.917C138.91 97.7544 139.141 97.6559 139.373 97.6115C139.604 97.5721 139.855 97.5967 140.126 97.6854C140.608 97.848 140.947 98.1585 141.149 98.6167C141.351 99.075 141.361 99.5776 141.174 100.129C140.982 100.706 140.657 101.115 140.204 101.352C139.752 101.588 139.264 101.618 138.738 101.445L139.063 100.479C139.328 100.568 139.584 100.553 139.835 100.44C140.081 100.322 140.254 100.129 140.347 99.8486C140.441 99.5628 140.445 99.3165 140.347 99.1046C140.254 98.8927 140.086 98.7449 139.835 98.6611C139.638 98.597 139.461 98.602 139.304 98.6808C139.146 98.7596 138.89 98.9912 138.541 99.3805C138.019 100.006 137.581 100.401 137.227 100.573C136.873 100.741 136.489 100.755 136.076 100.617C135.559 100.445 135.21 100.129 135.018 99.6712C134.826 99.213 134.831 98.6857 135.033 98.0944C135.239 97.4785 135.584 97.035 136.066 96.7739C136.548 96.5078 137.06 96.4683 137.601 96.6507L137.276 97.6263C136.947 97.5278 136.656 97.5425 136.405 97.6657C136.154 97.7938 135.972 98.0304 135.859 98.3704C135.751 98.6907 135.741 98.9617 135.83 99.1785C135.918 99.3953 136.086 99.5431 136.327 99.6269L136.322 99.622Z" fill="#464646"/>
<path d="M132.818 104.003L137.714 106.314L138.064 105.574L138.812 105.924L138.462 106.658L139.117 106.964C139.688 107.245 140.067 107.6 140.254 108.033C140.445 108.467 140.416 108.935 140.175 109.447C140.086 109.635 139.968 109.802 139.825 109.965L139.068 109.551C139.161 109.433 139.245 109.3 139.314 109.152C139.56 108.625 139.314 108.186 138.561 107.831L138.029 107.58L137.577 108.546L136.829 108.196L137.281 107.23L132.385 104.919L132.818 103.993V104.003Z" fill="#464646"/>
<path d="M134.545 108.329C135.333 108.777 135.849 109.324 136.091 109.97C136.332 110.615 136.273 111.251 135.913 111.882C135.554 112.512 135.042 112.887 134.378 113.015C133.714 113.143 132.99 112.99 132.213 112.562L131.642 112.236C130.86 111.788 130.343 111.241 130.102 110.6C129.861 109.96 129.92 109.319 130.284 108.684C130.643 108.053 131.15 107.678 131.809 107.55C132.469 107.422 133.182 107.57 133.95 107.989L134.54 108.324L134.545 108.329ZM133.527 108.925C132.971 108.605 132.469 108.467 132.026 108.501C131.583 108.541 131.253 108.743 131.042 109.112C130.594 109.896 130.933 110.62 132.046 111.29L132.656 111.64C133.212 111.955 133.714 112.098 134.162 112.059C134.609 112.02 134.939 111.818 135.151 111.448C135.357 111.083 135.362 110.699 135.165 110.295C134.969 109.891 134.595 109.531 134.043 109.221L133.527 108.925Z" fill="#464646"/>
<path d="M131.47 116.898C131.573 116.794 131.667 116.676 131.76 116.538C132.055 116.105 132.021 115.641 131.662 115.149L127.961 112.645L128.532 111.798L133.704 115.296L133.148 116.119L132.611 115.779C132.872 116.287 132.862 116.745 132.582 117.159C132.493 117.292 132.395 117.391 132.287 117.45L131.46 116.898H131.47Z" fill="#464646"/>
<path d="M123.459 118.346C123.966 117.755 124.527 117.454 125.151 117.445C125.771 117.43 126.426 117.716 127.11 118.292L127.681 118.785C128.384 119.391 128.808 120.022 128.945 120.677C129.083 121.332 128.916 121.934 128.439 122.485C127.961 123.042 127.43 123.303 126.844 123.274C126.254 123.244 125.585 122.909 124.837 122.274L124.33 121.835L126.598 119.189L126.49 119.095C125.983 118.657 125.53 118.435 125.137 118.43C124.743 118.425 124.389 118.598 124.084 118.957C123.887 119.184 123.759 119.421 123.695 119.672C123.631 119.918 123.626 120.199 123.685 120.514L122.849 120.495C122.666 119.751 122.868 119.036 123.459 118.346ZM127.774 121.909C128.05 121.589 128.143 121.254 128.055 120.909C127.966 120.564 127.7 120.184 127.253 119.765L125.653 121.633L125.757 121.722C126.224 122.086 126.613 122.283 126.928 122.308C127.243 122.333 127.523 122.2 127.769 121.909H127.774Z" fill="#464646"/>
<path d="M119.173 122.993C119.31 123.047 119.502 123.18 119.743 123.387C119.63 122.752 119.778 122.239 120.181 121.85C120.585 121.456 121.013 121.259 121.461 121.268C121.909 121.273 122.337 121.485 122.735 121.899C123.178 122.352 123.375 122.865 123.326 123.437C123.277 124.003 122.986 124.555 122.455 125.082L121.918 125.605L122.381 126.078C122.642 126.344 122.883 126.477 123.114 126.477C123.346 126.477 123.577 126.354 123.823 126.117C124.044 125.9 124.157 125.664 124.167 125.398C124.177 125.132 124.084 124.9 123.892 124.698L124.625 123.983C124.846 124.21 124.994 124.496 125.058 124.836C125.122 125.176 125.102 125.516 124.989 125.856C124.876 126.196 124.679 126.506 124.399 126.777C123.941 127.221 123.483 127.448 123.026 127.452C122.568 127.452 122.12 127.246 121.692 126.812L119.497 124.555C119.158 124.215 118.823 123.959 118.484 123.796L118.42 123.732L119.178 122.993H119.173ZM120.713 122.623C120.536 122.796 120.413 123.013 120.344 123.274C120.275 123.535 120.28 123.772 120.349 123.993L121.387 125.063L121.8 124.659C122.14 124.314 122.342 123.969 122.396 123.624C122.45 123.279 122.347 122.968 122.086 122.697C121.84 122.446 121.608 122.308 121.397 122.293C121.185 122.279 120.954 122.387 120.713 122.623Z" fill="#464646"/>
<path d="M116.299 126.487C116.038 126.698 115.89 126.955 115.866 127.245C115.841 127.536 115.945 127.842 116.171 128.152L115.423 128.763C115.064 128.285 114.911 127.763 114.975 127.201C115.039 126.639 115.295 126.176 115.743 125.812C116.343 125.324 116.953 125.136 117.573 125.26C118.193 125.383 118.809 125.812 119.419 126.561L119.852 127.093C120.447 127.822 120.742 128.507 120.737 129.143C120.737 129.778 120.432 130.34 119.832 130.828C119.335 131.232 118.818 131.394 118.272 131.32C117.726 131.247 117.224 130.941 116.766 130.414L117.514 129.803C117.824 130.148 118.129 130.345 118.425 130.399C118.725 130.453 119.01 130.369 119.281 130.148C119.63 129.862 119.798 129.532 119.783 129.162C119.763 128.793 119.542 128.339 119.119 127.807L118.617 127.191C118.154 126.62 117.741 126.285 117.381 126.186C117.022 126.087 116.658 126.186 116.294 126.482L116.299 126.487Z" fill="#464646"/>
<path d="M115.674 133.04C115.635 133.676 115.364 134.164 114.867 134.499C113.952 135.12 113.076 134.819 112.239 133.607L109.917 130.168L110.758 129.596L113.056 132.996C113.332 133.4 113.592 133.642 113.843 133.72C114.094 133.799 114.355 133.745 114.626 133.563C114.837 133.42 114.975 133.223 115.049 132.966C115.123 132.715 115.133 132.439 115.079 132.144L112.539 128.384L113.386 127.812L118.346 135.159L117.5 135.731L115.674 133.031V133.04Z" fill="#464646"/>
<path d="M103.131 135.805L104.189 140.23L103.278 140.663L101.974 134.366L102.708 134.016L105.724 137.529L104.878 132.981L105.616 132.631L109.666 137.618L108.76 138.052L106.019 134.548L106.836 138.968L106.108 139.318L103.126 135.81L103.131 135.805Z" fill="#464646"/>
<path d="M101.089 138.436C101.389 139.293 101.413 140.047 101.172 140.688C100.931 141.333 100.469 141.772 99.7846 142.013C99.1006 142.255 98.4658 142.201 97.8851 141.856C97.2995 141.516 96.8567 140.924 96.5516 140.087L96.335 139.466C96.0398 138.613 96.0103 137.864 96.2514 137.219C96.4925 136.578 96.96 136.135 97.6489 135.893C98.3329 135.657 98.9628 135.706 99.5434 136.046C100.124 136.386 100.562 136.967 100.867 137.785L101.089 138.431V138.436ZM99.9322 138.214C99.7206 137.608 99.4352 137.17 99.076 136.908C98.7167 136.642 98.3378 136.583 97.9343 136.721C97.083 137.017 96.8616 137.785 97.2602 139.022L97.4914 139.687C97.703 140.289 97.9885 140.727 98.3477 140.993C98.7069 141.259 99.0907 141.323 99.4942 141.185C99.8879 141.047 100.144 140.762 100.262 140.328C100.38 139.894 100.331 139.377 100.124 138.776L99.9273 138.214H99.9322Z" fill="#464646"/>
<path d="M93.1562 142.861C93.2989 142.851 93.4514 142.827 93.6138 142.782C94.1207 142.649 94.4012 142.28 94.4553 141.669L93.3137 137.347L94.3027 137.086L95.8971 143.127L94.9375 143.378L94.7604 142.767C94.6226 143.319 94.3126 143.659 93.8303 143.787C93.6729 143.827 93.5351 143.837 93.4219 143.812L93.1611 142.851L93.1562 142.861Z" fill="#464646"/>
<path d="M89.9527 141.053L90.371 140.338L89.9576 138.14L90.9615 137.953L92.605 146.67L91.6012 146.857L90.617 141.644L89.2047 144.645L88.0041 144.871L89.4705 141.939L86.5918 138.781L87.758 138.559L89.9527 141.053Z" fill="#464646"/>
<path d="M86.4393 142.235C86.5278 143.137 86.3753 143.876 85.9915 144.447C85.6027 145.019 85.0516 145.334 84.3331 145.408C83.6147 145.477 83.0094 145.275 82.5223 144.807C82.0351 144.334 81.7399 143.659 81.6464 142.777L81.5824 142.122C81.4938 141.22 81.6464 140.486 82.0302 139.919C82.414 139.352 82.9701 139.032 83.6983 138.963C84.4168 138.894 85.0171 139.091 85.5043 139.559C85.9865 140.027 86.2818 140.693 86.3802 141.565L86.4442 142.245L86.4393 142.235ZM85.3665 141.747C85.3025 141.107 85.1303 140.619 84.8449 140.274C84.5595 139.934 84.2052 139.781 83.7771 139.82C82.8815 139.909 82.4829 140.599 82.5813 141.895L82.6502 142.595C82.7093 143.23 82.8864 143.723 83.1767 144.068C83.4671 144.413 83.8214 144.566 84.2446 144.526C84.6628 144.487 84.9778 144.27 85.1943 143.876C85.4108 143.482 85.4846 142.969 85.4256 142.338L85.3665 141.747Z" fill="#464646"/>
<path d="M77.0257 139.919C77.3554 139.471 77.8474 139.239 78.497 139.229C79.0629 139.22 79.491 139.407 79.7863 139.796C80.0815 140.18 80.234 140.747 80.2537 141.496L80.3177 145.566L79.304 145.581L79.24 141.585C79.2253 140.609 78.9251 140.126 78.3395 140.136C77.7195 140.146 77.2963 140.432 77.0749 140.988L77.1487 145.615L76.1301 145.63L76.0267 139.382L76.9961 139.367L77.0257 139.914V139.919Z" fill="#464646"/>
<path d="M72.7593 146.931L72.8626 145.423L71.9228 145.359L71.9769 144.536L72.9168 144.6L73.1825 140.732C73.1973 140.486 73.1726 140.299 73.0988 140.166C73.025 140.033 72.8922 139.959 72.6953 139.949C72.5625 139.939 72.4247 139.949 72.282 139.988L72.3509 139.131C72.5871 139.072 72.8233 139.047 73.0644 139.067C73.4679 139.096 73.7632 139.259 73.9551 139.559C74.147 139.86 74.2257 140.279 74.1863 140.801L73.9206 144.674L74.8703 144.738L74.8162 145.561L73.8665 145.497L73.7632 147.005L72.7495 146.936L72.7593 146.931Z" fill="#464646"/>
<path d="M71.1157 139.554C71.0961 139.737 71.0222 139.885 70.8992 139.993C70.7762 140.101 70.604 140.146 70.3875 140.116C70.1709 140.092 70.0135 140.008 69.9151 139.875C69.8166 139.737 69.7773 139.579 69.8019 139.397C69.8216 139.219 69.8954 139.081 70.0233 138.978C70.1513 138.874 70.3235 138.835 70.54 138.86C70.7565 138.884 70.914 138.963 71.0075 139.096C71.101 139.229 71.1403 139.382 71.1157 139.559V139.554Z" fill="#464646"/>
<path d="M62.4698 135.78L63.3015 135.997L60.7869 145.64L59.9553 145.423L62.4698 135.78Z" fill="#464646"/>
<path d="M52.8742 136.913L53.1744 136.017L52.6724 136.697L48.972 141.437L48.1748 141.062L49.4788 135.194L49.6904 134.351L49.1688 135.179L45.8029 139.954L44.8483 139.505L49.9217 132.602L50.7828 133.006L49.4591 139.15L49.3263 139.638L49.6166 139.224L53.5287 134.292L54.3947 134.701L52.3427 143.024L51.3881 142.575L52.8791 136.918L52.8742 136.913Z" fill="#464646"/>
<path d="M45.1485 129.783C45.1288 129.931 45.0501 130.148 44.9024 130.434C45.488 130.172 46.0195 130.187 46.4968 130.483C46.979 130.778 47.2694 131.148 47.3727 131.582C47.476 132.02 47.3727 132.483 47.0725 132.976C46.7379 133.518 46.2901 133.834 45.7291 133.922C45.1682 134.016 44.5629 133.868 43.9232 133.479L43.2835 133.085L42.9341 133.651C42.7373 133.972 42.6684 134.238 42.7274 134.459C42.7865 134.681 42.9587 134.878 43.249 135.056C43.5098 135.218 43.7707 135.272 44.0315 135.218C44.2923 135.164 44.494 135.016 44.6416 134.78L45.5126 135.317C45.3453 135.588 45.1042 135.8 44.7942 135.947C44.4793 136.095 44.1446 136.154 43.7854 136.13C43.4262 136.105 43.0817 135.987 42.7471 135.78C42.2058 135.445 41.8761 135.056 41.758 134.607C41.6399 134.164 41.7383 133.681 42.0533 133.158L43.7067 130.473C43.9576 130.064 44.12 129.67 44.1988 129.305L44.248 129.226L45.1534 129.783H45.1485ZM45.8817 131.192C45.6701 131.059 45.429 130.995 45.1633 130.995C44.8975 130.995 44.6662 131.054 44.4694 131.178L43.687 132.444L44.1791 132.749C44.5974 132.996 44.9763 133.104 45.3256 133.075C45.675 133.045 45.9457 132.868 46.1474 132.547C46.3344 132.247 46.4082 131.991 46.3689 131.779C46.3295 131.567 46.1671 131.375 45.8817 131.197V131.192Z" fill="#464646"/>
<path d="M37.6294 134.016L38.5152 132.789L37.7524 132.237L38.2347 131.567L38.9974 132.119L41.2659 128.975C41.4086 128.773 41.4874 128.601 41.4972 128.448C41.507 128.3 41.4332 128.167 41.2708 128.049C41.1626 127.97 41.0396 127.911 40.8969 127.866L41.4086 127.177C41.6399 127.25 41.8564 127.359 42.0533 127.502C42.383 127.738 42.5453 128.034 42.5503 128.394C42.5552 128.753 42.3977 129.143 42.0926 129.571L39.8241 132.715L40.5967 133.272L40.1144 133.942L39.3419 133.385L38.4561 134.612L37.6343 134.016H37.6294Z" fill="#464646"/>
<path d="M38.3971 125.723C38.1363 125.506 37.8607 125.413 37.5704 125.442C37.2801 125.472 37.0045 125.629 36.7388 125.915L36.0006 125.299C36.4041 124.851 36.8864 124.609 37.4474 124.565C38.0083 124.521 38.5103 124.683 38.9581 125.058C39.5486 125.555 39.8487 126.122 39.8438 126.753C39.8438 127.388 39.5338 128.073 38.9187 128.813L38.4807 129.34C37.8755 130.064 37.2604 130.483 36.6403 130.601C36.0154 130.719 35.4101 130.527 34.8147 130.035C34.3226 129.626 34.0667 129.143 34.0372 128.596C34.0077 128.049 34.2094 127.492 34.6425 126.94L35.3806 127.561C35.1001 127.93 34.9673 128.266 34.9673 128.571C34.9673 128.877 35.105 129.138 35.3757 129.364C35.7251 129.655 36.0794 129.759 36.4386 129.67C36.7978 129.581 37.1964 129.281 37.6393 128.763L38.151 128.152C38.6234 127.59 38.8695 127.117 38.899 126.748C38.9285 126.373 38.7612 126.038 38.402 125.738L38.3971 125.723Z" fill="#464646"/>
<path d="M31.8524 126.349C31.2225 126.433 30.691 126.26 30.2679 125.831C29.4854 125.048 29.6134 124.131 30.6418 123.077L33.5747 120.14L34.2931 120.86L31.3947 123.762C31.0503 124.107 30.8633 124.412 30.8337 124.673C30.8042 124.935 30.9026 125.181 31.1339 125.413C31.3111 125.59 31.5325 125.693 31.7982 125.718C32.059 125.743 32.3297 125.698 32.6102 125.595L35.8136 122.387L36.537 123.111L30.2728 129.384L29.5494 128.66L31.8524 126.354V126.349Z" fill="#464646"/>
<path d="M27.8616 115.725C27.6893 115.858 27.5909 116.04 27.5663 116.267C27.5417 116.494 27.5909 116.858 27.709 117.366C27.8616 117.942 27.9452 118.366 27.9551 118.642C27.9649 118.918 27.9206 119.164 27.8271 119.376C27.7336 119.588 27.5712 119.785 27.3449 119.958C26.9414 120.268 26.4936 120.377 26.0015 120.288C25.5094 120.199 25.0862 119.923 24.7368 119.465C24.3678 118.982 24.2103 118.484 24.2644 117.977C24.3186 117.469 24.5695 117.046 25.0075 116.706L25.6275 117.514C25.4061 117.686 25.2732 117.908 25.2289 118.174C25.1846 118.445 25.2535 118.696 25.4307 118.928C25.6128 119.164 25.8194 119.307 26.0458 119.347C26.2721 119.386 26.4887 119.327 26.6953 119.169C26.8577 119.041 26.9561 118.893 26.9758 118.716C27.0004 118.539 26.9512 118.199 26.8233 117.696C26.5969 116.912 26.5133 116.326 26.5723 115.937C26.6314 115.548 26.8331 115.222 27.1776 114.956C27.6106 114.626 28.0683 114.508 28.5505 114.606C29.0377 114.705 29.4707 115.001 29.8496 115.498C30.2433 116.016 30.4155 116.548 30.3663 117.095C30.3171 117.642 30.0661 118.09 29.6085 118.44L28.9835 117.622C29.2493 117.4 29.4018 117.154 29.4362 116.873C29.4707 116.597 29.3772 116.311 29.1558 116.026C28.9491 115.755 28.7326 115.597 28.5062 115.552C28.2798 115.503 28.0633 115.557 27.8567 115.715L27.8616 115.725Z" fill="#464646"/>
<path d="M26.1245 110.28C26.0458 110.403 25.8785 110.566 25.6226 110.758C26.2623 110.778 26.7347 111.024 27.0349 111.502C27.34 111.98 27.4433 112.438 27.3449 112.877C27.2465 113.315 26.9562 113.69 26.469 114C25.9326 114.34 25.3913 114.429 24.85 114.266C24.3087 114.104 23.8265 113.705 23.4181 113.079L23.0146 112.443L22.4536 112.798C22.1387 113 21.9615 113.212 21.9172 113.434C21.8729 113.66 21.9418 113.912 22.1239 114.197C22.2912 114.459 22.4979 114.621 22.7587 114.685C23.0146 114.749 23.2606 114.705 23.5017 114.557L24.0479 115.42C23.7773 115.592 23.4722 115.676 23.1228 115.671C22.7784 115.671 22.4487 115.577 22.1387 115.395C21.8286 115.213 21.5678 114.956 21.3562 114.626C21.0118 114.089 20.8888 113.591 20.9773 113.138C21.0659 112.685 21.3661 112.295 21.8729 111.96L24.5302 110.27C24.9337 110.009 25.2486 109.728 25.4799 109.433L25.5586 109.383L26.1295 110.28H26.1245ZM26.1688 111.867C26.036 111.655 25.849 111.492 25.6078 111.374C25.3716 111.256 25.1354 111.211 24.9042 111.236L23.6493 112.034L23.9594 112.522C24.2251 112.926 24.5253 113.192 24.85 113.315C25.1797 113.439 25.4996 113.399 25.8194 113.197C26.1196 113.005 26.2968 112.808 26.3558 112.601C26.4149 112.394 26.3558 112.148 26.1688 111.862V111.867Z" fill="#464646"/>
<path d="M18.886 110.275L19.3928 110.004C18.8121 109.861 18.384 109.511 18.1134 108.95C17.8132 108.324 17.8723 107.752 18.2955 107.24C17.5819 107.151 17.0702 106.787 16.77 106.156C16.2681 105.121 16.6617 104.278 17.9412 103.628L21.7253 101.795L22.1682 102.711L18.4726 104.5C18.0642 104.697 17.7935 104.919 17.6656 105.16C17.5376 105.402 17.5573 105.698 17.7246 106.042C17.8575 106.318 18.074 106.491 18.3742 106.565C18.6744 106.634 18.9942 106.604 19.3387 106.471L23.1031 104.648L23.5509 105.574L19.8111 107.383C19.0385 107.772 18.8023 108.275 19.1025 108.9C19.3288 109.364 19.7176 109.58 20.2736 109.546L24.4859 107.511L24.9287 108.427L19.3092 111.142L18.8909 110.28L18.886 110.275Z" fill="#464646"/>
<path d="M17.1833 97.2172C18.1183 96.8969 18.8712 96.823 19.4469 97.0004C20.0227 97.1778 20.4114 97.5769 20.623 98.1928C20.8248 98.7841 20.7608 99.3212 20.4262 99.7943L23.2557 98.8186L23.5854 99.7795L15.4168 102.598L15.1166 101.726L15.7514 101.45C15.1314 101.302 14.718 100.923 14.5113 100.322C14.2899 99.6711 14.3489 99.1094 14.6885 98.6363C15.028 98.1633 15.648 97.7642 16.5387 97.4439L17.1833 97.2221V97.2172ZM16.9619 98.3653C16.3025 98.592 15.8498 98.863 15.6038 99.1783C15.3577 99.4937 15.3134 99.8731 15.4709 100.322C15.6284 100.785 15.9827 101.056 16.524 101.135L19.5946 100.075C19.9636 99.6859 20.067 99.2523 19.9046 98.7792C19.752 98.3407 19.4863 98.0746 19.1025 97.981C18.7187 97.8873 18.202 97.9465 17.5524 98.1633L16.9619 98.3653Z" fill="#464646"/>
<path d="M19.2747 94.0833L19.5404 95.0688L10.988 97.3748L10.7223 96.3893L19.2747 94.0833Z" fill="#464646"/>
<path d="M18.571 90.4566C18.7236 91.2204 18.6104 91.8511 18.2413 92.3488C17.8723 92.8464 17.2424 93.1864 16.3665 93.3688L15.6234 93.5166C14.7131 93.6989 13.9553 93.6398 13.3599 93.349C12.7644 93.0534 12.3905 92.5508 12.2527 91.8363C12.11 91.1169 12.233 90.5354 12.6168 90.092C13.0006 89.6485 13.6748 89.3233 14.6393 89.1212L15.2938 88.9882L15.9728 92.4079L16.1155 92.3783C16.77 92.2453 17.2227 92.0285 17.4737 91.723C17.7246 91.4175 17.7985 91.0331 17.7099 90.565C17.6508 90.2693 17.5426 90.023 17.39 89.8209C17.2326 89.6189 17.016 89.4415 16.7356 89.2937L17.267 88.6482C17.9658 88.9586 18.4037 89.5598 18.5809 90.4517L18.571 90.4566ZM13.1089 91.6638C13.1926 92.0777 13.3943 92.3586 13.7191 92.5015C14.0439 92.6444 14.5064 92.6691 15.1117 92.5754L14.6294 90.1609L14.4917 90.1856C13.9159 90.3285 13.5222 90.5157 13.3107 90.7473C13.0991 90.9789 13.0302 91.2844 13.104 91.6589L13.1089 91.6638Z" fill="#464646"/>
<path d="M17.3654 87.3621C17.1834 87.3867 17.021 87.3522 16.8881 87.2586C16.7503 87.165 16.6716 87.0122 16.6421 86.7905C16.6125 86.5688 16.6519 86.4012 16.7602 86.2731C16.8684 86.145 17.0111 86.0662 17.1981 86.0464C17.3753 86.0218 17.5278 86.0612 17.6607 86.1598C17.7935 86.2583 17.8723 86.416 17.9018 86.6328C17.9313 86.8496 17.892 87.0221 17.7886 87.1453C17.6853 87.2685 17.5426 87.3424 17.3703 87.367L17.3654 87.3621Z" fill="#464646"/>
<path d="M18.9844 75.4722L18.945 76.3295L9.00491 75.8467L9.04428 74.9893L18.9844 75.4722Z" fill="#464646"/>
<path d="M16.8389 61.6454L17.0652 60.7388L17.9116 60.9507L17.6804 61.8573L19.57 62.3353L19.319 63.3257L17.4294 62.8478L16.6519 65.9275L16.0417 65.7747L11.1652 61.3202L11.426 60.2805L16.834 61.6504L16.8389 61.6454ZM16.0909 64.6167L16.5928 62.6359L12.7251 61.6553L16.0958 64.6167H16.0909Z" fill="#464646"/>
<path d="M16.7405 56.5109L17.3753 54.7222L18.325 55.0622L17.6902 56.8509L20.19 57.7427L19.8455 58.7135L17.3457 57.8216L16.706 59.63L15.7563 59.29L16.396 57.4816L14.0881 56.6587L14.4326 55.688L16.7405 56.5109Z" fill="#464646"/>
<path d="M23.9938 51.0316L22.0107 55.2939L21.3169 54.9687L19.4519 51.4553C19.1615 50.9232 18.9056 50.524 18.6793 50.2629C18.4529 50.0017 18.1823 49.7997 17.8673 49.6519C17.4638 49.4646 17.0899 49.4055 16.7552 49.4745C16.4206 49.5435 16.1746 49.7356 16.0319 50.0411C15.8498 50.4304 15.8449 50.7901 16.0122 51.1252C16.1795 51.4603 16.5141 51.7461 17.016 51.9777L16.583 52.904C15.8842 52.5788 15.4069 52.1206 15.151 51.5342C14.8952 50.9478 14.9247 50.3269 15.2298 49.6666C15.5103 49.0606 15.9187 48.6664 16.4551 48.4939C16.9914 48.3214 17.5623 48.3756 18.1823 48.6614C18.9352 49.0113 19.6438 49.8194 20.3081 51.0858L21.7351 53.8156L23.2015 50.6571L23.9889 51.0266L23.9938 51.0316Z" fill="#464646"/>
<path d="M24.8402 42.4428L23.3049 44.8326L26.4247 46.8381L25.8539 47.7251L18.7925 43.177L21.1545 39.4961L21.9172 39.9888L20.126 42.7828L22.5471 44.3399L24.0824 41.95L24.8451 42.4428H24.8402Z" fill="#464646"/>
<path d="M29.5937 42.2409L28.9638 43.0884L22.2272 38.0673L22.8571 37.2197L29.5937 42.2409Z" fill="#464646"/>
<path d="M28.024 32.3906L26.5871 34.066L32.2707 38.9541L31.5817 39.7573L25.8982 34.8692L24.4613 36.5445L23.7724 35.9532L27.3351 31.7993L28.024 32.3906Z" fill="#464646"/>
<path d="M41.8811 32.0358L41.202 32.568L35.0706 24.7185L35.7497 24.1863L41.8811 32.0358Z" fill="#464646"/>
</g>
<path d="M103.148 80.5329C104.478 81.3093 104.468 83.2338 103.131 83.9969L67.0272 104.601C65.69 105.364 64.0282 104.394 64.0359 102.854L64.2439 61.2855C64.2516 59.7459 65.923 58.792 67.2525 59.5685L103.148 80.5329Z" fill="#464646"/>
<defs>
<clipPath id="clip0_75_16044">
<rect width="138" height="137" fill="white" transform="translate(9 10)"/>
</clipPath>
</defs>
</svg>
