<svg width="32" height="33" viewBox="0 0 32 33" fill="none" xmlns="http://www.w3.org/2000/svg">
<path d="M9.37347 0.33065C7.67107 0.41097 6.50851 0.68265 5.49219 1.08201C4.44035 1.49193 3.54883 2.04201 2.66179 2.93225C1.77475 3.82249 1.22851 4.71465 0.821466 5.76809C0.427546 6.78665 0.160666 7.95017 0.0854659 9.65353C0.010266 11.3569 -0.00637406 11.9044 0.00194594 16.2494C0.0102659 20.5943 0.0294659 21.139 0.112026 22.8458C0.193306 24.5479 0.464026 25.7102 0.863386 26.7268C1.27395 27.7787 1.82339 28.6699 2.71395 29.5572C3.60451 30.4446 4.49603 30.9895 5.55203 31.3972C6.56963 31.7905 7.73347 32.0587 9.43651 32.1332C11.1395 32.2078 11.6877 32.2251 16.0314 32.2167C20.3751 32.2084 20.9219 32.1892 22.6285 32.1083C24.3351 32.0273 25.4912 31.7547 26.5082 31.3572C27.56 30.9457 28.4519 30.3972 29.3386 29.5063C30.2253 28.6155 30.7712 27.7227 31.1779 26.6686C31.5722 25.651 31.84 24.4871 31.9139 22.7854C31.9885 21.0775 32.0061 20.5323 31.9978 16.1879C31.9895 11.8436 31.9699 11.299 31.889 9.59273C31.808 7.88649 31.537 6.72777 31.1379 5.71049C30.7267 4.65865 30.1779 3.76809 29.2877 2.88009C28.3975 1.99209 27.504 1.44649 26.4503 1.04073C25.432 0.64681 24.2688 0.37833 22.5658 0.30473C20.8627 0.23113 20.3146 0.21225 15.9693 0.22057C11.624 0.22889 11.08 0.24745 9.37347 0.33065ZM9.56035 29.2548C8.00035 29.187 7.15331 28.9278 6.58883 28.7108C5.84131 28.4228 5.30883 28.0747 4.74627 27.5175C4.18371 26.9604 3.83811 26.426 3.54627 25.6801C3.32707 25.1156 3.06307 24.2695 2.99011 22.7095C2.91075 21.0235 2.89411 20.5172 2.88483 16.2455C2.87555 11.9739 2.89187 11.4683 2.96579 9.78153C3.03235 8.22281 3.29315 7.37481 3.50979 6.81065C3.79779 6.06217 4.14467 5.53065 4.70307 4.96841C5.26147 4.40617 5.79427 4.05993 6.54083 3.76809C7.10467 3.54793 7.95075 3.28617 9.51011 3.21193C11.1975 3.13193 11.7031 3.11593 15.9741 3.10665C20.2451 3.09737 20.752 3.11337 22.44 3.18761C23.9987 3.25545 24.8471 3.51369 25.4106 3.73161C26.1584 4.01961 26.6906 4.36553 27.2528 4.92489C27.8151 5.48425 28.1616 6.01513 28.4535 6.76329C28.6739 7.32553 28.9357 8.17129 29.0093 9.73161C29.0896 11.419 29.1079 11.9249 29.1155 16.1956C29.1232 20.4663 29.1082 20.9735 29.0343 22.6596C28.9661 24.2196 28.7075 25.067 28.4903 25.6321C28.2023 26.3793 27.8551 26.9121 27.2963 27.474C26.7376 28.0359 26.2055 28.3822 25.4586 28.674C24.8954 28.8939 24.0483 29.1563 22.4903 29.2305C20.8029 29.3099 20.2973 29.3265 16.0247 29.3358C11.752 29.3451 11.248 29.3278 9.56067 29.2548M22.6039 7.66729C22.6045 8.04706 22.7177 8.41811 22.9293 8.73351C23.1408 9.04891 23.4411 9.2945 23.7922 9.43922C24.1433 9.58393 24.5295 9.62128 24.9018 9.54652C25.2741 9.47176 25.6159 9.28827 25.884 9.01924C26.152 8.75021 26.3343 8.40774 26.4077 8.03513C26.4811 7.66252 26.4423 7.27652 26.2963 6.92594C26.1503 6.57536 25.9036 6.27595 25.5874 6.06558C25.2713 5.85521 24.8998 5.74333 24.52 5.74409C24.0109 5.74511 23.5231 5.94828 23.1637 6.30893C22.8044 6.66959 22.603 7.15819 22.6039 7.66729ZM7.78467 16.2347C7.79363 20.7723 11.4787 24.4423 16.0154 24.4337C20.552 24.4251 24.2247 20.7403 24.216 16.2027C24.2074 11.6651 20.5213 7.99401 15.984 8.00297C11.4467 8.01193 7.77603 11.6977 7.78467 16.2347ZM10.6666 16.2289C10.6645 15.174 10.9753 14.1423 11.5596 13.264C12.1439 12.3858 12.9755 11.7005 13.9492 11.2949C14.923 10.8893 15.9952 10.7816 17.0302 10.9853C18.0651 11.1891 19.0165 11.6952 19.7638 12.4396C20.5112 13.184 21.0211 14.1333 21.2289 15.1675C21.4367 16.2017 21.3332 17.2742 20.9315 18.2496C20.5298 19.225 19.8478 20.0593 18.9719 20.6471C18.096 21.2348 17.0654 21.5497 16.0106 21.5518C15.3102 21.5532 14.6163 21.4167 13.9687 21.15C13.321 20.8833 12.7322 20.4916 12.236 19.9973C11.7397 19.503 11.3457 18.9158 11.0764 18.2692C10.8072 17.6226 10.6679 16.9293 10.6666 16.2289Z" fill="#B9F615"/>
</svg>
