<svg width="39" height="32" viewBox="0 0 39 32" fill="none" xmlns="http://www.w3.org/2000/svg">
<path d="M34.7485 8.26422C34.772 8.60461 34.772 8.94501 34.772 9.28854C34.772 19.756 26.8188 31.8281 12.276 31.8281V31.8219C7.98 31.8281 3.77325 30.5952 0.156738 28.2705C0.781409 28.3458 1.40921 28.3834 2.03858 28.385C5.59873 28.3881 9.05713 27.1913 11.858 24.9874C8.47473 24.923 5.50793 22.7128 4.47151 19.4862C5.65666 19.7152 6.87782 19.6681 8.04106 19.3497C4.35252 18.603 1.69885 15.356 1.69885 11.585C1.69885 11.5505 1.69885 11.5176 1.69885 11.4846C2.79789 12.0979 4.02845 12.4383 5.28718 12.476C1.81313 10.1497 0.742269 5.51912 2.84016 1.89873C6.85434 6.84775 12.777 9.85638 19.1348 10.1748C18.4976 7.42344 19.3681 4.5403 21.4222 2.60618C24.6066 -0.393034 29.6149 -0.239308 32.6083 2.94971C34.379 2.59991 36.0761 1.94893 37.6292 1.02657C37.0389 2.8603 35.8037 4.41795 34.1536 5.40775C35.7207 5.22265 37.2519 4.80226 38.6938 4.16069C37.6323 5.75442 36.2953 7.14265 34.7485 8.26422Z" fill="#ff6666"/>
</svg>
