<svg width="123" height="67" viewBox="0 0 123 67" fill="none" xmlns="http://www.w3.org/2000/svg">
<g filter="url(#filter0_d_73_4950)">
<path d="M83.6402 43.7262L83.673 43.6528L83.6957 43.5774L89.6972 23.6533L89.7028 23.6348L89.7078 23.6161C91.1312 18.2756 89.5462 13.7519 86.3016 10.3434C83.0748 6.95362 78.1957 4.64285 72.8921 3.6073C67.5888 2.57182 61.7507 2.78998 56.5642 4.5813C51.3444 6.38416 46.7786 9.7902 44.2079 15.0506L44.1614 15.1458L44.1319 15.2445L43.1678 18.4778L38.2007 35.1346C36.1698 40.6029 37.4764 45.2701 40.6524 48.7881C43.8095 52.2852 48.8109 54.6607 54.2778 55.7167C59.7464 56.7732 65.8095 56.5344 71.1511 54.662C76.5293 52.7769 81.1915 49.2213 83.6402 43.7262ZM60.9214 17.7895C61.1518 17.0474 61.7771 16.5078 62.9804 16.1923C64.2196 15.8673 65.8461 15.8663 67.4744 16.1698C69.096 16.4721 70.5697 17.0485 71.5207 17.7427C72.525 18.4757 72.6397 19.0797 72.5086 19.4494C71.0675 23.5113 67.7288 32.9146 64.5868 41.5251C64.2305 42.5015 63.4001 43.1943 62.1449 43.6124C60.8565 44.0416 59.2285 44.1291 57.6526 43.8605C56.0764 43.5919 54.6964 42.9917 53.8483 42.1923C53.0257 41.4171 52.7477 40.5185 53.1036 39.4902C54.4274 35.6655 55.8038 31.9844 57.0745 28.5862L57.0857 28.5562C58.6105 24.4784 59.9914 20.7855 60.9214 17.7895Z" fill="#F7FEFF" stroke="#F7FEFF" stroke-width="2.47529"/>
<path d="M50.5958 37.0247C48.4308 46.6163 65.716 48.9347 69.4746 40.5775L76.479 21.8549C78.644 12.2633 61.3588 9.94483 57.6002 18.302L56.5109 21.2137M50.5958 37.0247L40.7877 35.0992M50.5958 37.0247L56.5109 21.2137M56.5109 21.2137L45.5674 19.1542M45.5674 19.1542L40.7617 35.1686C33.5172 54.5332 72.3515 62.2406 81.0027 42.7471L86.7938 23.6363C91.8767 4.75426 55.5746 -2.63241 46.498 16.053L45.5674 19.1542Z" stroke="black" stroke-width="2.47634"/>
<path d="M80.4622 17.2574L81.9156 16.8523M76.0405 12.4331L76.946 11.5256M68.5379 9.94325L68.6781 8.81189M60.3861 11.0041L59.5826 9.97459M54.0663 14.8849L52.7501 14.3178M57.9113 50.301L58.1184 49.1423M50.0275 47.6196L50.8522 46.7768M45.03 42.3675L46.4974 41.9251M67.377 49.2079L66.5455 48.253M74.2095 44.8647L72.8543 44.2504M76.8063 39.2852L75.3256 39.0066M78.6429 33.922L77.0565 33.6234M80.3738 28.5388L78.7873 28.2403M82.1436 23.2029L80.61 22.9143M48.0525 30.9597L46.4661 30.6611M49.7834 25.5765L48.1969 25.278" stroke="black" stroke-width="0.46456" stroke-linecap="round"/>
<path d="M63.7781 16.9442L63.7781 16.9442L63.7853 16.9429C64.0645 16.8898 64.7797 16.8439 65.5289 16.8439V16.8439L65.535 16.8439C66.4476 16.8366 66.9649 16.8728 67.5587 16.9745C68.0252 17.0607 68.7018 17.2238 69.0539 17.3424C69.3922 17.4603 69.9304 17.71 70.2248 17.8879C70.5329 18.0904 70.9015 18.3921 71.0202 18.5289L71.0202 18.529L71.0261 18.5356C71.1485 18.6735 71.3704 19.0481 71.4798 19.3356C71.5711 19.5863 71.6051 19.714 71.6211 19.8544C71.639 20.0107 71.6383 20.2172 71.6109 20.6291L71.6103 20.6379L71.6099 20.6468C71.581 21.3098 71.4831 21.7509 71.1357 22.8442C70.8813 23.6214 70.3948 25.0705 70.0619 26.0602C69.733 27.0379 68.9828 29.1032 68.4155 30.6511C67.8399 32.1919 67.0015 34.3379 66.5422 35.4167C66.0797 36.5028 65.3527 38.1101 64.9271 38.9801C64.4943 39.8649 63.9561 40.817 63.7389 41.1044L63.7389 41.1044L63.7343 41.1106C63.4826 41.4507 63.1562 41.7632 62.8562 41.966C62.5768 42.1547 62.1337 42.3777 61.9131 42.4469L61.9131 42.4469L61.9054 42.4494C61.6673 42.5269 61.1345 42.6376 60.7634 42.6785C60.3096 42.725 59.8156 42.7261 59.2452 42.677L59.2452 42.677L59.2356 42.6763C58.7594 42.6413 57.9237 42.5258 57.4046 42.4256C56.9041 42.329 55.8387 42.0394 55.0567 41.7826C54.6625 41.6531 54.2854 41.5238 53.996 41.421C53.9869 41.4178 53.9779 41.4146 53.969 41.4114C54.0563 41.1391 54.1985 40.7295 54.4193 40.1024C54.8179 39.0105 56.3339 35.0404 57.8083 31.273C59.2835 27.5034 60.9607 23.1808 61.5299 21.6653C62.1075 20.1569 62.7874 18.4464 63.0556 17.8447C63.1908 17.5449 63.3221 17.2681 63.4233 17.0657C63.4331 17.0461 63.4425 17.0274 63.4515 17.0096C63.548 16.9882 63.6611 16.9653 63.7781 16.9442ZM53.8603 41.8027C53.86 41.8056 53.8598 41.8072 53.8597 41.8072C53.8597 41.8073 53.8598 41.8058 53.8603 41.8027Z" stroke="#F7FEFF" stroke-width="1.53748"/>
<path fill-rule="evenodd" clip-rule="evenodd" d="M63.2866 11.4847C62.9377 11.5219 62.2397 11.6337 61.7216 11.738C61.214 11.8424 60.4314 12.0585 59.9873 12.215C59.5326 12.3789 58.9192 12.6546 58.6126 12.8335C58.3059 13.0123 57.8406 13.3551 57.5762 13.601C57.3013 13.8618 56.9735 14.3089 56.7725 14.6815C56.5928 15.0318 56.1909 15.9335 55.8737 16.6936C55.5564 17.4536 55.0065 18.877 54.6576 19.8606C54.3086 20.8443 52.7118 25.1366 51.1256 29.399C49.5288 33.6615 47.9003 38.1401 47.4878 39.3473C47.086 40.5545 46.7053 41.7469 46.6419 41.9928C46.5784 42.2387 46.515 42.7678 46.5044 43.1702L46.4727 43.9005C47.7839 44.6233 48.4713 44.981 48.852 45.1747C49.2327 45.361 50.0152 45.7038 50.5968 45.9497C51.1785 46.1882 52.0985 46.5235 52.6272 46.7024C53.1665 46.8812 54.15 47.1495 54.795 47.3134C55.4507 47.4699 56.487 47.6786 57.1004 47.7754C58.0521 47.9319 58.4962 47.9543 60.1671 47.9543C61.7321 47.9543 62.282 47.9245 62.9165 47.8127C63.3501 47.7382 64.0586 47.5742 64.471 47.4625C64.894 47.3432 65.5814 47.1048 66.0044 46.9334C66.4168 46.7545 67.2099 46.3149 67.7598 45.9423C68.3943 45.5175 68.997 45.0182 69.4306 44.5637C69.7901 44.1762 70.2872 43.5726 70.5092 43.2223C70.7419 42.8721 71.1543 42.1343 71.4187 41.5829C71.6936 41.0315 72.2435 39.8243 72.6453 38.9002C73.0366 37.9762 73.6605 36.4709 74.0201 35.5469C74.3796 34.6228 75.0987 32.663 75.6169 31.1875C76.135 29.712 76.9387 27.3051 77.404 25.837C77.8693 24.3765 78.324 22.8861 78.4086 22.5209C78.5038 22.1633 78.599 21.4553 78.6413 20.9411C78.673 20.3748 78.6518 19.7041 78.5672 19.2272C78.5038 18.795 78.3452 18.1914 78.2394 17.8859C78.1231 17.5803 77.8799 17.0587 77.6895 16.7308C77.4992 16.4029 77.0868 15.8366 76.7695 15.4714C76.3888 15.0392 75.8178 14.5474 75.1304 14.0556C74.4431 13.5712 73.7451 13.1614 73.1741 12.9154C72.6771 12.6993 71.8311 12.3864 71.2918 12.2224C70.763 12.0585 69.8747 11.8424 69.3354 11.7455C68.8067 11.6486 67.9924 11.5294 67.5377 11.4847C67.0936 11.44 66.089 11.4102 65.317 11.4102C64.5556 11.4176 63.6356 11.4474 63.2866 11.4847ZM62.9905 16.3803C63.0434 16.3505 63.3395 16.276 63.6567 16.2164C63.9951 16.1493 64.7354 16.1046 65.4544 16.1046C66.3533 16.0972 66.8926 16.1344 67.5165 16.2462C67.9818 16.3356 68.6692 16.507 69.0499 16.6411C69.42 16.7753 69.9911 17.051 70.3189 17.2597C70.6361 17.4758 71.0591 17.826 71.2389 18.0421C71.4292 18.2657 71.683 18.7277 71.8099 19.0779C72.0003 19.6219 72.032 19.8529 71.9791 20.6801C71.9474 21.4402 71.8311 21.9543 71.4927 23.0647C71.2495 23.8397 70.7842 25.2853 70.4669 26.269C70.1497 27.2527 69.4306 29.3168 68.8913 30.8519C68.3414 32.387 67.5377 34.5332 67.0935 35.6211C66.6494 36.7091 65.9515 38.3187 65.539 39.1981C65.1266 40.0774 64.5873 41.0834 64.3335 41.4336C64.048 41.836 63.6779 42.2086 63.3183 42.462C63.0117 42.6781 62.5252 42.9389 62.2291 43.0358C61.9436 43.1327 61.3831 43.2519 60.9919 43.2966C60.5054 43.3488 59.9873 43.3488 59.4057 43.2966C58.9192 43.2593 58.0944 43.1401 57.5762 43.0358C57.058 42.9315 56.0111 42.6334 55.2497 42.3726C54.4884 42.1117 53.7904 41.8509 53.6952 41.7988C53.526 41.7019 53.5578 41.5678 54.1817 39.7197C54.5624 38.6317 56.0111 34.6747 57.4176 30.9264C58.824 27.1781 60.4208 22.8858 60.9602 21.388C61.51 19.8902 62.1657 18.1688 62.43 17.5503C62.6944 16.9392 62.9482 16.4101 62.9905 16.3803Z" fill="#221111"/>
<mask id="path-6-outside-1_73_4950" maskUnits="userSpaceOnUse" x="1" y="19.0586" width="35" height="22" fill="black">
<rect fill="white" x="1" y="19.0586" width="35" height="22"/>
<path d="M9.41372 21.9664C9.81181 21.7971 10.6301 21.5356 11.2383 21.3663C11.8465 21.2125 12.7754 21.074 14.2793 21.0586L14.9981 21.951C15.3962 22.4279 15.7279 22.8741 15.7169 22.951C15.7169 23.0126 15.7943 23.0587 15.8827 23.0587C15.9712 23.0587 16.0486 22.9203 16.0486 22.751C16.0486 22.5818 16.2255 22.2587 16.4688 21.9971C16.69 21.7663 16.9885 21.4894 17.1323 21.3817C17.265 21.2894 17.453 21.2125 17.5414 21.2125C17.652 21.2125 17.7847 21.5663 17.9174 22.2587C18.0391 22.828 18.216 23.3972 18.3155 23.5203C18.4261 23.6742 18.4924 23.9973 18.4924 24.4435C18.4814 24.8281 18.5588 25.3204 18.6473 25.5666C18.8021 25.9513 18.78 26.1051 18.3155 28.0283C18.0391 29.1361 17.7073 30.8131 17.5746 31.7517C17.3756 33.2133 17.3535 33.7672 17.4198 35.8289C17.4862 37.9675 17.4751 38.2598 17.2982 38.5829C17.1876 38.7983 16.9332 39.0599 16.7453 39.1676C16.5462 39.2753 16.1592 39.3676 15.8827 39.3676C15.3851 39.3676 15.3851 39.3676 15.1197 38.5675C14.976 38.1214 14.7437 37.229 14.6 36.5982C14.3899 35.6596 14.3567 35.1519 14.3678 33.8287C14.3899 32.9364 14.4452 31.7671 14.5005 31.2132C14.5557 30.6593 14.7548 29.5207 14.9538 28.6745C15.1418 27.8283 15.3077 26.7821 15.3188 26.3359C15.3188 25.8897 15.3962 25.4435 15.4736 25.3358C15.551 25.2281 15.6063 25.0281 15.6063 24.905C15.6063 24.705 15.4183 24.6896 14.4673 24.7204C13.848 24.7512 12.7201 24.905 11.9571 25.0897C11.1941 25.2589 10.2763 25.5358 9.91133 25.7051C9.54641 25.8743 9.1815 26.0897 9.10409 26.182C9.02668 26.2897 8.9161 26.6436 8.86081 26.9821C8.80552 27.3206 8.66176 28.0129 8.52907 28.5207C8.40743 29.0284 8.3079 29.5823 8.3079 29.7515C8.3079 30.0439 8.35214 30.0592 9.21467 29.9362C9.72334 29.8746 10.6191 29.7823 11.2162 29.7054C12.2004 29.6131 12.2888 29.6284 12.2888 29.8746C12.2888 30.0131 12.3773 30.2285 12.4879 30.3362C12.5985 30.4285 12.7754 30.6901 12.8749 30.9055C13.0518 31.2747 13.0408 31.3209 12.6206 32.1825C12.2999 32.8133 12.0898 33.0748 11.8797 33.1364C11.7027 33.1672 11.0946 33.3056 10.5195 33.4441C9.94451 33.5672 9.0488 33.7826 8.52907 33.9211C8.00933 34.0595 7.45643 34.1826 7.29055 34.2288C7.11362 34.2595 6.95881 34.3365 6.93669 34.4134C6.90352 34.4749 6.74871 35.0134 6.58283 35.5981C6.38379 36.3058 6.28426 36.9213 6.29532 37.4136C6.30638 37.8136 6.24003 38.3368 6.15157 38.5983C6.0631 38.8599 5.87511 39.1368 5.74242 39.2291C5.54337 39.3676 5.35538 39.3522 4.95729 39.1984C4.51496 39.0137 4.36015 38.8599 4.09475 38.2906C3.91782 37.906 3.74089 37.3213 3.70772 36.9828C3.67455 36.5828 3.72984 35.9981 4.10581 34.2903L3.80724 34.0288C3.65243 33.8749 3.39809 33.4133 3.25434 32.9825C3.12164 32.5671 3 32.0132 3 31.7517C3 31.4901 3.09952 31.0747 3.22116 30.8131C3.35386 30.5516 3.61926 30.2285 3.82936 30.09C4.03946 29.9515 4.31592 29.8285 4.43756 29.8285C4.5592 29.8285 4.78036 29.9362 4.93517 30.0592C5.08999 30.1823 5.23374 30.2439 5.25586 30.1823C5.27797 30.1054 5.41067 29.6746 5.53231 29.213C5.66501 28.7515 5.76453 28.2437 5.76453 28.1053C5.76453 27.936 5.63183 27.7668 5.46596 27.6745C5.28903 27.5975 4.97941 27.1975 4.7693 26.7975C4.48179 26.2436 4.38227 25.8743 4.36015 25.3358C4.33803 24.7973 4.38227 24.505 4.52602 24.2896C4.6366 24.1204 5.44385 23.6742 6.48331 23.1972C7.45643 22.7664 8.35214 22.3818 8.47377 22.3356C8.59541 22.3048 9.01562 22.1356 9.41372 21.9664Z"/>
<path d="M28.3231 21.5202C29.2078 21.3663 30.1035 21.1971 30.3136 21.1509C30.5237 21.1201 31.0987 21.1201 31.5853 21.1509C32.4478 21.2278 32.481 21.2432 32.9454 21.874C33.2108 22.2279 33.4983 22.7049 33.5868 22.9357C33.6753 23.1818 33.7416 23.5203 33.7416 23.7049C33.7305 23.905 33.6531 24.1973 33.5426 24.3665C33.443 24.5358 33.1223 24.7666 32.8348 24.8589C32.5363 24.9666 32.0718 25.0589 31.7843 25.0589C31.4857 25.0589 30.5126 25.1974 29.5948 25.3666C28.688 25.5358 27.9361 25.6897 27.925 25.7051C27.925 25.7359 27.6928 26.5205 27.4053 27.4437C27.1178 28.3668 26.8856 29.1823 26.8856 29.2438C26.8856 29.3207 26.7307 29.8285 26.5428 30.3977C26.3548 30.9824 26.1004 31.7209 25.9899 32.0594C25.8793 32.3979 25.636 33.1672 25.4591 33.7518C25.2821 34.3365 25.0831 35.1981 25.0167 35.6289C24.9504 36.0751 24.8951 36.5366 24.8951 36.6289C24.9062 36.7366 25.1163 37.0905 25.835 37.9675L25.7023 38.5983C25.5918 39.0753 25.4701 39.2599 25.1716 39.4445C24.9614 39.5676 24.6739 39.6753 24.5412 39.6753C24.3975 39.6753 23.9994 39.4599 23.6566 39.183C23.2696 38.8753 23.0263 38.5675 23.0152 38.4137C23.0152 38.2598 22.982 38.106 22.9378 38.0752C22.8825 38.0444 22.7498 37.5367 22.6392 36.9674C22.4844 36.1828 22.4402 35.6289 22.4844 34.8288C22.5287 34.0595 22.7277 33.0748 23.159 31.444C23.4797 30.1823 23.933 28.613 24.1542 27.9822C24.3754 27.3514 24.5634 26.6898 24.5634 26.5205C24.5634 26.2436 24.5191 26.2282 24.2095 26.3359C24.0104 26.3974 23.2253 26.4898 21.08 26.6436L20.7151 26.1974C20.494 25.9359 20.2617 25.4128 20.129 24.9512C20.0185 24.505 19.9189 23.9511 19.9189 23.7203C19.9189 23.4742 19.9742 23.1049 20.0516 22.8741C20.1954 22.4587 20.2065 22.4433 21.2459 22.4433C21.8209 22.4433 23.0152 22.3356 23.8999 22.2125C25.2821 22.0125 25.5254 21.951 25.6471 21.674C25.7134 21.5048 25.8793 21.3663 26.0009 21.3663C26.1226 21.3663 26.3327 21.474 26.4764 21.5971C26.6976 21.7971 26.8856 21.7971 28.3231 21.5202Z"/>
</mask>
<path d="M9.41372 21.9664C9.81181 21.7971 10.6301 21.5356 11.2383 21.3663C11.8465 21.2125 12.7754 21.074 14.2793 21.0586L14.9981 21.951C15.3962 22.4279 15.7279 22.8741 15.7169 22.951C15.7169 23.0126 15.7943 23.0587 15.8827 23.0587C15.9712 23.0587 16.0486 22.9203 16.0486 22.751C16.0486 22.5818 16.2255 22.2587 16.4688 21.9971C16.69 21.7663 16.9885 21.4894 17.1323 21.3817C17.265 21.2894 17.453 21.2125 17.5414 21.2125C17.652 21.2125 17.7847 21.5663 17.9174 22.2587C18.0391 22.828 18.216 23.3972 18.3155 23.5203C18.4261 23.6742 18.4924 23.9973 18.4924 24.4435C18.4814 24.8281 18.5588 25.3204 18.6473 25.5666C18.8021 25.9513 18.78 26.1051 18.3155 28.0283C18.0391 29.1361 17.7073 30.8131 17.5746 31.7517C17.3756 33.2133 17.3535 33.7672 17.4198 35.8289C17.4862 37.9675 17.4751 38.2598 17.2982 38.5829C17.1876 38.7983 16.9332 39.0599 16.7453 39.1676C16.5462 39.2753 16.1592 39.3676 15.8827 39.3676C15.3851 39.3676 15.3851 39.3676 15.1197 38.5675C14.976 38.1214 14.7437 37.229 14.6 36.5982C14.3899 35.6596 14.3567 35.1519 14.3678 33.8287C14.3899 32.9364 14.4452 31.7671 14.5005 31.2132C14.5557 30.6593 14.7548 29.5207 14.9538 28.6745C15.1418 27.8283 15.3077 26.7821 15.3188 26.3359C15.3188 25.8897 15.3962 25.4435 15.4736 25.3358C15.551 25.2281 15.6063 25.0281 15.6063 24.905C15.6063 24.705 15.4183 24.6896 14.4673 24.7204C13.848 24.7512 12.7201 24.905 11.9571 25.0897C11.1941 25.2589 10.2763 25.5358 9.91133 25.7051C9.54641 25.8743 9.1815 26.0897 9.10409 26.182C9.02668 26.2897 8.9161 26.6436 8.86081 26.9821C8.80552 27.3206 8.66176 28.0129 8.52907 28.5207C8.40743 29.0284 8.3079 29.5823 8.3079 29.7515C8.3079 30.0439 8.35214 30.0592 9.21467 29.9362C9.72334 29.8746 10.6191 29.7823 11.2162 29.7054C12.2004 29.6131 12.2888 29.6284 12.2888 29.8746C12.2888 30.0131 12.3773 30.2285 12.4879 30.3362C12.5985 30.4285 12.7754 30.6901 12.8749 30.9055C13.0518 31.2747 13.0408 31.3209 12.6206 32.1825C12.2999 32.8133 12.0898 33.0748 11.8797 33.1364C11.7027 33.1672 11.0946 33.3056 10.5195 33.4441C9.94451 33.5672 9.0488 33.7826 8.52907 33.9211C8.00933 34.0595 7.45643 34.1826 7.29055 34.2288C7.11362 34.2595 6.95881 34.3365 6.93669 34.4134C6.90352 34.4749 6.74871 35.0134 6.58283 35.5981C6.38379 36.3058 6.28426 36.9213 6.29532 37.4136C6.30638 37.8136 6.24003 38.3368 6.15157 38.5983C6.0631 38.8599 5.87511 39.1368 5.74242 39.2291C5.54337 39.3676 5.35538 39.3522 4.95729 39.1984C4.51496 39.0137 4.36015 38.8599 4.09475 38.2906C3.91782 37.906 3.74089 37.3213 3.70772 36.9828C3.67455 36.5828 3.72984 35.9981 4.10581 34.2903L3.80724 34.0288C3.65243 33.8749 3.39809 33.4133 3.25434 32.9825C3.12164 32.5671 3 32.0132 3 31.7517C3 31.4901 3.09952 31.0747 3.22116 30.8131C3.35386 30.5516 3.61926 30.2285 3.82936 30.09C4.03946 29.9515 4.31592 29.8285 4.43756 29.8285C4.5592 29.8285 4.78036 29.9362 4.93517 30.0592C5.08999 30.1823 5.23374 30.2439 5.25586 30.1823C5.27797 30.1054 5.41067 29.6746 5.53231 29.213C5.66501 28.7515 5.76453 28.2437 5.76453 28.1053C5.76453 27.936 5.63183 27.7668 5.46596 27.6745C5.28903 27.5975 4.97941 27.1975 4.7693 26.7975C4.48179 26.2436 4.38227 25.8743 4.36015 25.3358C4.33803 24.7973 4.38227 24.505 4.52602 24.2896C4.6366 24.1204 5.44385 23.6742 6.48331 23.1972C7.45643 22.7664 8.35214 22.3818 8.47377 22.3356C8.59541 22.3048 9.01562 22.1356 9.41372 21.9664Z" fill="#221111"/>
<path d="M28.3231 21.5202C29.2078 21.3663 30.1035 21.1971 30.3136 21.1509C30.5237 21.1201 31.0987 21.1201 31.5853 21.1509C32.4478 21.2278 32.481 21.2432 32.9454 21.874C33.2108 22.2279 33.4983 22.7049 33.5868 22.9357C33.6753 23.1818 33.7416 23.5203 33.7416 23.7049C33.7305 23.905 33.6531 24.1973 33.5426 24.3665C33.443 24.5358 33.1223 24.7666 32.8348 24.8589C32.5363 24.9666 32.0718 25.0589 31.7843 25.0589C31.4857 25.0589 30.5126 25.1974 29.5948 25.3666C28.688 25.5358 27.9361 25.6897 27.925 25.7051C27.925 25.7359 27.6928 26.5205 27.4053 27.4437C27.1178 28.3668 26.8856 29.1823 26.8856 29.2438C26.8856 29.3207 26.7307 29.8285 26.5428 30.3977C26.3548 30.9824 26.1004 31.7209 25.9899 32.0594C25.8793 32.3979 25.636 33.1672 25.4591 33.7518C25.2821 34.3365 25.0831 35.1981 25.0167 35.6289C24.9504 36.0751 24.8951 36.5366 24.8951 36.6289C24.9062 36.7366 25.1163 37.0905 25.835 37.9675L25.7023 38.5983C25.5918 39.0753 25.4701 39.2599 25.1716 39.4445C24.9614 39.5676 24.6739 39.6753 24.5412 39.6753C24.3975 39.6753 23.9994 39.4599 23.6566 39.183C23.2696 38.8753 23.0263 38.5675 23.0152 38.4137C23.0152 38.2598 22.982 38.106 22.9378 38.0752C22.8825 38.0444 22.7498 37.5367 22.6392 36.9674C22.4844 36.1828 22.4402 35.6289 22.4844 34.8288C22.5287 34.0595 22.7277 33.0748 23.159 31.444C23.4797 30.1823 23.933 28.613 24.1542 27.9822C24.3754 27.3514 24.5634 26.6898 24.5634 26.5205C24.5634 26.2436 24.5191 26.2282 24.2095 26.3359C24.0104 26.3974 23.2253 26.4898 21.08 26.6436L20.7151 26.1974C20.494 25.9359 20.2617 25.4128 20.129 24.9512C20.0185 24.505 19.9189 23.9511 19.9189 23.7203C19.9189 23.4742 19.9742 23.1049 20.0516 22.8741C20.1954 22.4587 20.2065 22.4433 21.2459 22.4433C21.8209 22.4433 23.0152 22.3356 23.8999 22.2125C25.2821 22.0125 25.5254 21.951 25.6471 21.674C25.7134 21.5048 25.8793 21.3663 26.0009 21.3663C26.1226 21.3663 26.3327 21.474 26.4764 21.5971C26.6976 21.7971 26.8856 21.7971 28.3231 21.5202Z" fill="#221111"/>
<path d="M9.41372 21.9664C9.81181 21.7971 10.6301 21.5356 11.2383 21.3663C11.8465 21.2125 12.7754 21.074 14.2793 21.0586L14.9981 21.951C15.3962 22.4279 15.7279 22.8741 15.7169 22.951C15.7169 23.0126 15.7943 23.0587 15.8827 23.0587C15.9712 23.0587 16.0486 22.9203 16.0486 22.751C16.0486 22.5818 16.2255 22.2587 16.4688 21.9971C16.69 21.7663 16.9885 21.4894 17.1323 21.3817C17.265 21.2894 17.453 21.2125 17.5414 21.2125C17.652 21.2125 17.7847 21.5663 17.9174 22.2587C18.0391 22.828 18.216 23.3972 18.3155 23.5203C18.4261 23.6742 18.4924 23.9973 18.4924 24.4435C18.4814 24.8281 18.5588 25.3204 18.6473 25.5666C18.8021 25.9513 18.78 26.1051 18.3155 28.0283C18.0391 29.1361 17.7073 30.8131 17.5746 31.7517C17.3756 33.2133 17.3535 33.7672 17.4198 35.8289C17.4862 37.9675 17.4751 38.2598 17.2982 38.5829C17.1876 38.7983 16.9332 39.0599 16.7453 39.1676C16.5462 39.2753 16.1592 39.3676 15.8827 39.3676C15.3851 39.3676 15.3851 39.3676 15.1197 38.5675C14.976 38.1214 14.7437 37.229 14.6 36.5982C14.3899 35.6596 14.3567 35.1519 14.3678 33.8287C14.3899 32.9364 14.4452 31.7671 14.5005 31.2132C14.5557 30.6593 14.7548 29.5207 14.9538 28.6745C15.1418 27.8283 15.3077 26.7821 15.3188 26.3359C15.3188 25.8897 15.3962 25.4435 15.4736 25.3358C15.551 25.2281 15.6063 25.0281 15.6063 24.905C15.6063 24.705 15.4183 24.6896 14.4673 24.7204C13.848 24.7512 12.7201 24.905 11.9571 25.0897C11.1941 25.2589 10.2763 25.5358 9.91133 25.7051C9.54641 25.8743 9.1815 26.0897 9.10409 26.182C9.02668 26.2897 8.9161 26.6436 8.86081 26.9821C8.80552 27.3206 8.66176 28.0129 8.52907 28.5207C8.40743 29.0284 8.3079 29.5823 8.3079 29.7515C8.3079 30.0439 8.35214 30.0592 9.21467 29.9362C9.72334 29.8746 10.6191 29.7823 11.2162 29.7054C12.2004 29.6131 12.2888 29.6284 12.2888 29.8746C12.2888 30.0131 12.3773 30.2285 12.4879 30.3362C12.5985 30.4285 12.7754 30.6901 12.8749 30.9055C13.0518 31.2747 13.0408 31.3209 12.6206 32.1825C12.2999 32.8133 12.0898 33.0748 11.8797 33.1364C11.7027 33.1672 11.0946 33.3056 10.5195 33.4441C9.94451 33.5672 9.0488 33.7826 8.52907 33.9211C8.00933 34.0595 7.45643 34.1826 7.29055 34.2288C7.11362 34.2595 6.95881 34.3365 6.93669 34.4134C6.90352 34.4749 6.74871 35.0134 6.58283 35.5981C6.38379 36.3058 6.28426 36.9213 6.29532 37.4136C6.30638 37.8136 6.24003 38.3368 6.15157 38.5983C6.0631 38.8599 5.87511 39.1368 5.74242 39.2291C5.54337 39.3676 5.35538 39.3522 4.95729 39.1984C4.51496 39.0137 4.36015 38.8599 4.09475 38.2906C3.91782 37.906 3.74089 37.3213 3.70772 36.9828C3.67455 36.5828 3.72984 35.9981 4.10581 34.2903L3.80724 34.0288C3.65243 33.8749 3.39809 33.4133 3.25434 32.9825C3.12164 32.5671 3 32.0132 3 31.7517C3 31.4901 3.09952 31.0747 3.22116 30.8131C3.35386 30.5516 3.61926 30.2285 3.82936 30.09C4.03946 29.9515 4.31592 29.8285 4.43756 29.8285C4.5592 29.8285 4.78036 29.9362 4.93517 30.0592C5.08999 30.1823 5.23374 30.2439 5.25586 30.1823C5.27797 30.1054 5.41067 29.6746 5.53231 29.213C5.66501 28.7515 5.76453 28.2437 5.76453 28.1053C5.76453 27.936 5.63183 27.7668 5.46596 27.6745C5.28903 27.5975 4.97941 27.1975 4.7693 26.7975C4.48179 26.2436 4.38227 25.8743 4.36015 25.3358C4.33803 24.7973 4.38227 24.505 4.52602 24.2896C4.6366 24.1204 5.44385 23.6742 6.48331 23.1972C7.45643 22.7664 8.35214 22.3818 8.47377 22.3356C8.59541 22.3048 9.01562 22.1356 9.41372 21.9664Z" stroke="#F7FEFF" stroke-width="2.71789" mask="url(#path-6-outside-1_73_4950)"/>
<path d="M28.3231 21.5202C29.2078 21.3663 30.1035 21.1971 30.3136 21.1509C30.5237 21.1201 31.0987 21.1201 31.5853 21.1509C32.4478 21.2278 32.481 21.2432 32.9454 21.874C33.2108 22.2279 33.4983 22.7049 33.5868 22.9357C33.6753 23.1818 33.7416 23.5203 33.7416 23.7049C33.7305 23.905 33.6531 24.1973 33.5426 24.3665C33.443 24.5358 33.1223 24.7666 32.8348 24.8589C32.5363 24.9666 32.0718 25.0589 31.7843 25.0589C31.4857 25.0589 30.5126 25.1974 29.5948 25.3666C28.688 25.5358 27.9361 25.6897 27.925 25.7051C27.925 25.7359 27.6928 26.5205 27.4053 27.4437C27.1178 28.3668 26.8856 29.1823 26.8856 29.2438C26.8856 29.3207 26.7307 29.8285 26.5428 30.3977C26.3548 30.9824 26.1004 31.7209 25.9899 32.0594C25.8793 32.3979 25.636 33.1672 25.4591 33.7518C25.2821 34.3365 25.0831 35.1981 25.0167 35.6289C24.9504 36.0751 24.8951 36.5366 24.8951 36.6289C24.9062 36.7366 25.1163 37.0905 25.835 37.9675L25.7023 38.5983C25.5918 39.0753 25.4701 39.2599 25.1716 39.4445C24.9614 39.5676 24.6739 39.6753 24.5412 39.6753C24.3975 39.6753 23.9994 39.4599 23.6566 39.183C23.2696 38.8753 23.0263 38.5675 23.0152 38.4137C23.0152 38.2598 22.982 38.106 22.9378 38.0752C22.8825 38.0444 22.7498 37.5367 22.6392 36.9674C22.4844 36.1828 22.4402 35.6289 22.4844 34.8288C22.5287 34.0595 22.7277 33.0748 23.159 31.444C23.4797 30.1823 23.933 28.613 24.1542 27.9822C24.3754 27.3514 24.5634 26.6898 24.5634 26.5205C24.5634 26.2436 24.5191 26.2282 24.2095 26.3359C24.0104 26.3974 23.2253 26.4898 21.08 26.6436L20.7151 26.1974C20.494 25.9359 20.2617 25.4128 20.129 24.9512C20.0185 24.505 19.9189 23.9511 19.9189 23.7203C19.9189 23.4742 19.9742 23.1049 20.0516 22.8741C20.1954 22.4587 20.2065 22.4433 21.2459 22.4433C21.8209 22.4433 23.0152 22.3356 23.8999 22.2125C25.2821 22.0125 25.5254 21.951 25.6471 21.674C25.7134 21.5048 25.8793 21.3663 26.0009 21.3663C26.1226 21.3663 26.3327 21.474 26.4764 21.5971C26.6976 21.7971 26.8856 21.7971 28.3231 21.5202Z" stroke="#F7FEFF" stroke-width="2.71789" mask="url(#path-6-outside-1_73_4950)"/>
<path d="M29.9845 17.4456L29.3965 17.8371C29.571 18.1068 29.8723 18.2824 30.1418 18.4043C30.4345 18.5367 30.8003 18.6534 31.2192 18.7563C31.7769 18.8961 32.1887 18.9798 32.6518 18.9774C33.1017 18.9752 33.5689 18.8912 34.2254 18.7623C34.2252 18.7623 34.2249 18.7624 34.2247 18.7624L29.9845 17.4456ZM29.9845 17.4456L29.3965 17.8371C29.2666 17.6362 29.1918 17.3566 29.1471 17.1289C29.0978 16.8776 29.0667 16.5894 29.065 16.3143C29.0619 15.8071 29.1365 14.962 29.2077 14.4321L29.2091 14.4219L29.2108 14.4118C29.2392 14.2403 29.2333 14.1742 29.225 14.0821C29.2228 14.0569 29.2204 14.0297 29.2184 13.9978C29.2119 13.8903 29.2143 13.7508 29.2681 13.5804C29.3151 13.4312 29.3907 13.2928 29.4742 13.161C29.5358 13.061 29.5971 12.967 29.6592 12.8889C29.7199 12.8124 29.8305 12.6869 30.0057 12.6023C30.0945 12.5595 30.1737 12.5398 30.2302 12.5296C30.2451 12.5269 30.2585 12.5249 30.2695 12.5233C30.3746 12.4852 30.5029 12.4535 30.6103 12.4286C30.7531 12.3956 30.9292 12.3595 31.1257 12.3229C31.517 12.2499 32.0057 12.1715 32.5045 12.1079M29.9845 17.4456L32.5045 12.1079M32.5045 12.1079L32.5047 12.1046C32.7652 12.0741 33.261 11.9302 33.9691 11.6928C34.3054 11.58 34.6714 11.4527 35.0596 11.3176L35.0755 11.312C35.4681 11.1754 35.8819 11.0315 36.301 10.8904C37.1365 10.609 38.0098 10.333 38.8074 10.1412C39.5856 9.95408 40.368 9.82733 40.9907 9.89543C42.6809 10.0711 43.8623 10.2767 44.5781 10.5959C45.1143 10.8233 45.9129 11.2803 46.3813 11.6472C46.7095 11.8997 46.9748 12.1389 47.1813 12.4427C47.389 12.7483 47.5111 13.0807 47.6168 13.4785C47.7483 13.9393 48.0166 14.4298 48.2221 14.6423C48.7166 15.1071 48.9761 15.726 49.1249 16.5064C49.2425 17.0957 49.3148 17.8809 49.2675 18.2938L49.2656 18.3106L49.2628 18.3273C49.2181 18.598 49.0707 18.9344 48.9201 19.2286C48.7581 19.5451 48.5485 19.8962 48.3209 20.222C47.8706 20.8761 46.8363 21.9555 46.0321 22.654L32.5045 12.1079ZM30.3084 12.5186L30.3084 12.5186C30.3084 12.5186 30.3084 12.5186 30.3084 12.5186L30.3084 12.5186Z" fill="#221111" stroke="#F7FEFF" stroke-width="1.35895"/>
<mask id="path-8-outside-2_73_4950" maskUnits="userSpaceOnUse" x="71.8496" y="19.0586" width="47" height="22" fill="black">
<rect fill="white" x="71.8496" y="19.0586" width="47" height="22"/>
<path d="M113.457 23.0238C114.016 22.2287 114.543 21.6286 114.877 21.4186C115.178 21.2236 115.501 21.0586 115.608 21.0586C115.705 21.0586 115.791 21.1486 115.791 21.2536C115.791 21.3436 115.92 21.6136 116.081 21.8237C116.253 22.0337 116.501 22.3037 116.651 22.4387C116.802 22.5587 116.952 22.8588 116.985 23.0988C117.017 23.3388 116.995 23.6988 116.942 23.9089C116.888 24.1189 116.415 24.8839 115.888 25.634C115.361 26.3841 114.92 27.1042 114.931 27.2542C114.931 27.3892 114.845 27.5242 114.748 27.5542C114.64 27.5842 114.318 28.1092 114.038 28.7243C113.758 29.3394 113.199 30.5995 112.801 31.5296C112.403 32.4596 111.973 33.4797 111.844 33.7798C111.715 34.0798 111.479 34.7099 111.328 35.1599C111.167 35.6099 110.941 36.18 110.812 36.435C110.683 36.69 110.425 37.3201 110.242 37.8601C110.059 38.4002 109.769 39.0303 109.597 39.2553C109.338 39.6153 109.22 39.6753 108.908 39.6003C108.704 39.5553 108.36 39.3603 108.155 39.1803C107.951 38.9853 107.672 38.5352 107.295 37.4851L107.499 36.51C107.618 35.97 107.79 35.4299 107.887 35.3099C107.983 35.1899 108.059 35.0249 108.048 34.9349C108.048 34.8449 108.338 34.0648 108.693 33.1797C109.048 32.2796 109.338 31.4696 109.338 31.3795C109.338 31.2745 109.22 31.0195 109.07 30.8095C108.919 30.5995 108.672 29.9994 108.521 29.4594C108.371 28.9193 108.145 27.8092 108.026 26.9841C107.908 26.1591 107.801 25.184 107.779 24.8089C107.768 24.4339 107.725 23.6988 107.672 23.1588C107.607 22.2887 107.618 22.1387 107.822 21.7787C107.951 21.5386 108.145 21.3586 108.263 21.3586C108.381 21.3586 108.768 21.5536 109.123 21.8087C109.478 22.0637 109.908 22.4837 110.091 22.7387C110.274 23.0238 110.414 23.3988 110.414 23.6088C110.414 23.8188 110.457 24.1789 110.511 24.4339C110.564 24.6889 110.672 25.319 110.758 25.844C110.833 26.3841 110.952 26.9241 111.016 27.0441C111.113 27.2392 111.22 27.1192 111.661 26.3091C111.952 25.769 112.274 25.094 112.382 24.8089C112.489 24.5239 112.973 23.7138 113.457 23.0238Z"/>
<path d="M79.9795 22.1987C80.5387 22.0787 81.4098 21.8687 81.9152 21.7637C82.4207 21.6436 82.9261 21.5836 83.0444 21.6286C83.1627 21.6737 83.3778 21.7037 83.5284 21.6887C83.6789 21.6887 83.937 21.8687 84.1199 22.0937C84.3027 22.3337 84.55 22.5587 84.6898 22.6187C84.8834 22.7087 84.9264 22.8288 84.9264 23.3238C84.9264 23.8188 84.8511 24.0289 84.5285 24.4939C84.2812 24.8389 83.9048 25.169 83.5821 25.319C83.2918 25.454 82.582 25.664 82.0228 25.799C81.4636 25.934 80.8076 26.1591 80.571 26.3091C80.3344 26.4591 79.9042 26.6241 79.6031 26.6841C79.3127 26.7441 78.9041 26.8791 78.7105 26.9691C78.3986 27.1192 78.3556 27.2092 78.4201 28.0492L80.0655 28.0192C81.313 27.9892 81.7002 28.0192 81.7002 28.1693C81.7002 28.2593 81.8507 28.5593 82.0443 28.8293C82.2379 29.0843 82.5282 29.3844 82.7003 29.4594C82.9154 29.5794 82.9907 29.7294 82.9907 30.0444C83.0014 30.3745 82.8831 30.5545 82.3239 31.0795C81.9475 31.4246 81.4528 31.8296 81.2162 31.9646C80.8721 32.1746 80.4634 32.2346 77.6028 32.2496L77.3125 32.9247C77.1512 33.2997 76.9361 33.8548 76.8285 34.1698C76.7317 34.4698 76.678 34.7549 76.7317 34.7999C76.7748 34.8449 77.2157 34.8749 77.7211 34.8749C78.2266 34.8749 79.1729 34.7699 79.8182 34.6498C80.4742 34.5448 81.3668 34.3348 82.6143 33.9598L82.9907 34.4848C83.195 34.7849 83.4208 35.0249 83.4746 35.0249C83.5391 35.0249 83.6682 35.2799 83.765 35.5799C83.9478 36.15 83.9478 36.15 83.6252 36.795C83.4531 37.1401 83.109 37.5901 82.8616 37.7851C82.6035 37.9802 82.0335 38.2652 81.5926 38.4002C81.1517 38.5352 80.3021 38.7152 79.7106 38.7902C79.1192 38.8802 78.1728 38.9853 77.6136 39.0303C76.9898 39.0753 76.3661 39.0453 76.0005 38.9402C75.6778 38.8352 75.2477 38.6402 75.0433 38.5052C74.839 38.3702 74.5486 37.9802 74.4088 37.6501C74.2583 37.3201 74.0754 36.57 73.9894 36C73.9141 35.4299 73.8496 34.6198 73.8496 34.1998C73.8496 33.7198 73.9249 33.2847 74.0647 32.9697C74.183 32.6997 74.2798 32.3846 74.2798 32.2946C74.2798 32.1896 74.3443 31.9946 74.4303 31.8746C74.5056 31.7546 74.8175 30.8845 75.6778 28.2743L75.4735 27.8692C75.3659 27.6292 75.2369 27.2842 75.1939 27.0742C75.1401 26.8641 75.0433 26.2191 74.839 24.5989L75.1724 24.1789C75.366 23.9539 75.8284 23.6388 76.2155 23.4888L76.216 23.4887C76.6033 23.3386 77.3772 23.0387 77.9362 22.8138C78.4954 22.6037 79.4203 22.3337 79.9795 22.1987Z"/>
<path fill-rule="evenodd" clip-rule="evenodd" d="M90.2497 21.4336C90.0132 21.5536 89.6045 21.9437 89.3464 22.2887C89.0883 22.6487 88.5506 23.5338 88.1527 24.2839C87.7548 25.034 87.3246 25.769 87.2063 25.934C87.0342 26.1591 86.9375 26.1891 86.8407 26.0691C86.7654 25.979 86.5933 25.859 86.4643 25.799C86.2814 25.739 86.1739 25.799 86.0664 26.0391C85.9803 26.2341 85.733 27.4642 85.5179 28.7843C85.2921 30.1044 85.0662 31.5596 85.0125 32.0096C84.9587 32.4596 84.8942 33.0297 84.8727 33.2847C84.8511 33.5397 84.7651 34.1398 84.6683 34.6348C84.5823 35.1299 84.4963 35.6999 84.4855 35.91C84.464 36.12 84.507 36.42 84.5715 36.585C84.6361 36.75 84.7328 37.1551 84.7759 37.4851C84.8189 37.8151 84.9587 38.2202 85.077 38.3852C85.206 38.5502 85.4211 38.7752 85.5717 38.8802C85.7975 39.0453 85.9051 39.0153 86.303 38.7602C86.6686 38.5202 86.8084 38.3102 87.0127 37.6651C87.1525 37.2451 87.2923 36.66 87.3354 36.39C87.3676 36.135 87.4537 35.91 87.5074 35.91C87.5612 35.91 87.7978 36.135 88.0236 36.42C88.2387 36.69 88.6689 37.1251 88.9592 37.3801C89.2604 37.6351 90.0562 38.1452 90.7337 38.5052C91.4112 38.8652 92.3145 39.2853 92.7232 39.4353C93.1426 39.5703 93.7449 39.6753 94.0675 39.6753C94.4116 39.6753 94.7665 39.5703 94.9063 39.4353C95.0354 39.3153 95.1967 39.0603 95.272 38.8652C95.3365 38.6852 95.4118 38.2352 95.4333 37.8601C95.4548 37.4101 95.401 36.9751 95.2504 36.54C95.0461 35.955 95.0031 35.91 94.5299 35.835C94.2395 35.79 93.4545 35.5799 92.777 35.3699C92.0995 35.1449 91.3252 34.8299 91.0563 34.6498C90.7875 34.4548 90.368 34.1248 90.1207 33.9148C89.8626 33.6898 89.6583 33.4497 89.6583 33.3597C89.6583 33.2697 89.8411 33.1197 90.0669 32.9997C90.282 32.8947 90.7552 32.6847 91.1101 32.5347C91.465 32.3996 92.0457 32.0996 92.4006 31.8746C92.7555 31.6496 93.3039 31.1395 93.6158 30.7345C93.9492 30.2994 94.2288 29.7594 94.3041 29.4594C94.3686 29.1743 94.4224 28.6343 94.4116 28.2593C94.4116 27.8692 94.2718 27.0892 94.0675 26.3841C93.8847 25.724 93.5943 24.8389 93.4437 24.4339C93.2824 24.0139 93.0566 23.5788 92.9383 23.4588C92.82 23.3388 92.6264 23.0688 92.5081 22.8888C92.3898 22.6937 91.9919 22.2287 91.6263 21.8687C91.2499 21.5086 90.8842 21.2086 90.8197 21.2086C90.7444 21.2236 90.4863 21.3136 90.2497 21.4336ZM88.7226 29.0843C88.7549 28.8293 89.0991 28.1242 89.54 27.3892C89.9594 26.7141 90.3788 26.1591 90.4541 26.1591C90.5401 26.1591 90.7444 26.3241 90.9165 26.5041C91.0778 26.6991 91.2606 27.0741 91.3144 27.3292C91.3789 27.5842 91.422 27.8992 91.422 28.0342C91.422 28.1993 91.1639 28.4243 90.6692 28.7243C90.2605 28.9643 89.6475 29.2644 89.3249 29.3844C89.0023 29.5044 88.7227 29.5794 88.7011 29.5644C88.6796 29.5494 88.6904 29.3394 88.7226 29.0843Z"/>
<path fill-rule="evenodd" clip-rule="evenodd" d="M98.8531 21.7937C99.4446 21.6136 100.359 21.4186 100.896 21.3586C101.434 21.2986 102.133 21.2686 102.456 21.2986C102.778 21.3286 103.273 21.4036 103.542 21.4636C103.822 21.5236 104.166 21.7337 104.295 21.9137C104.435 22.1087 104.607 22.2587 104.66 22.2587C104.714 22.2587 105.015 22.6037 105.316 23.0388C105.617 23.4738 105.929 24.0739 105.994 24.3589C106.058 24.6439 106.112 25.049 106.112 25.259C106.112 25.469 105.994 25.964 105.843 26.3841C105.704 26.7891 105.23 27.6442 104.037 29.3844L104.607 30.0594C104.929 30.4345 105.392 31.0195 105.65 31.3645C105.908 31.7246 106.22 32.2946 106.338 32.6397C106.467 32.9997 106.596 33.6148 106.618 34.0348C106.65 34.7249 106.618 34.8449 106.187 35.6099C105.8 36.3 105.542 36.57 104.553 37.2901C103.897 37.7551 103.004 38.2802 102.563 38.4452C102.122 38.6102 101.563 38.8502 101.327 38.9853C101.09 39.1353 100.585 39.2703 100.197 39.3003C99.6059 39.3603 99.4231 39.3003 98.5305 38.5952L98.2939 38.9853C98.1218 39.2553 97.9497 39.3453 97.7347 39.3153C97.5626 39.3003 97.2615 39.0753 97.0571 38.8202C96.8636 38.5502 96.6485 38.2502 96.5947 38.1452C96.5409 38.0252 96.4119 37.6951 96.3151 37.4101C96.2076 37.1101 96.1538 36.69 96.1861 36.435C96.2183 36.18 96.2936 35.895 96.3366 35.79C96.3904 35.6999 96.4119 35.5199 96.3904 35.4149C96.3689 35.3249 96.4442 34.8449 96.5517 34.3648C96.6592 33.8998 96.8206 33.3597 96.9066 33.1797C96.9926 32.9847 97.2185 31.9196 97.4013 30.8095C97.5949 29.6994 97.8422 28.4243 97.9497 28.0042C98.0573 27.5692 98.1541 27.0141 98.1541 26.7591C98.1541 26.5041 98.1326 26.3091 98.1003 26.3091C98.068 26.3091 97.9605 26.3691 97.8637 26.4441C97.7562 26.5041 97.6379 26.7441 97.5949 26.9691C97.5303 27.2542 97.412 27.3892 97.1647 27.4492C96.8958 27.5242 96.6915 27.4642 96.3259 27.1792C96.057 26.9691 95.6806 26.5341 95.487 26.2191C95.2935 25.904 95.0676 25.409 94.9816 25.154C94.8418 24.7189 94.8418 24.6139 94.9816 24.2089C95.0676 23.9539 95.3257 23.5788 95.5516 23.3388C95.7666 23.1138 96.3581 22.7387 96.8636 22.5137C97.369 22.2887 98.2616 21.9737 98.8531 21.7937ZM101.058 31.7546L100.154 32.0846C99.4768 34.6949 99.3155 35.5049 99.3585 35.5649C99.4016 35.6399 99.6704 35.6099 99.95 35.5049C100.23 35.4149 101.058 34.9649 101.8 34.5298C102.778 33.9298 103.284 33.5397 103.66 33.0447C103.94 32.6847 104.166 32.3246 104.166 32.2346C104.166 32.1446 103.983 31.9646 103.768 31.8146C103.542 31.6496 103.047 31.4996 102.66 31.4696C102.165 31.4246 101.703 31.4996 101.058 31.7546ZM100.154 25.244C100.563 25.064 101.101 24.8689 101.37 24.8089C101.638 24.7489 102.079 24.6889 102.37 24.6739C102.649 24.6739 102.875 24.7339 102.875 24.8089C102.875 24.8839 102.596 25.319 102.251 25.739C101.907 26.1741 101.38 26.7141 100.509 27.3592L100.165 26.8641C99.9715 26.5941 99.6919 26.2791 99.5521 26.1591C99.4016 26.0241 99.3155 25.859 99.3585 25.754C99.4016 25.649 99.7564 25.409 100.154 25.244Z"/>
</mask>
<path d="M113.457 23.0238C114.016 22.2287 114.543 21.6286 114.877 21.4186C115.178 21.2236 115.501 21.0586 115.608 21.0586C115.705 21.0586 115.791 21.1486 115.791 21.2536C115.791 21.3436 115.92 21.6136 116.081 21.8237C116.253 22.0337 116.501 22.3037 116.651 22.4387C116.802 22.5587 116.952 22.8588 116.985 23.0988C117.017 23.3388 116.995 23.6988 116.942 23.9089C116.888 24.1189 116.415 24.8839 115.888 25.634C115.361 26.3841 114.92 27.1042 114.931 27.2542C114.931 27.3892 114.845 27.5242 114.748 27.5542C114.64 27.5842 114.318 28.1092 114.038 28.7243C113.758 29.3394 113.199 30.5995 112.801 31.5296C112.403 32.4596 111.973 33.4797 111.844 33.7798C111.715 34.0798 111.479 34.7099 111.328 35.1599C111.167 35.6099 110.941 36.18 110.812 36.435C110.683 36.69 110.425 37.3201 110.242 37.8601C110.059 38.4002 109.769 39.0303 109.597 39.2553C109.338 39.6153 109.22 39.6753 108.908 39.6003C108.704 39.5553 108.36 39.3603 108.155 39.1803C107.951 38.9853 107.672 38.5352 107.295 37.4851L107.499 36.51C107.618 35.97 107.79 35.4299 107.887 35.3099C107.983 35.1899 108.059 35.0249 108.048 34.9349C108.048 34.8449 108.338 34.0648 108.693 33.1797C109.048 32.2796 109.338 31.4696 109.338 31.3795C109.338 31.2745 109.22 31.0195 109.07 30.8095C108.919 30.5995 108.672 29.9994 108.521 29.4594C108.371 28.9193 108.145 27.8092 108.026 26.9841C107.908 26.1591 107.801 25.184 107.779 24.8089C107.768 24.4339 107.725 23.6988 107.672 23.1588C107.607 22.2887 107.618 22.1387 107.822 21.7787C107.951 21.5386 108.145 21.3586 108.263 21.3586C108.381 21.3586 108.768 21.5536 109.123 21.8087C109.478 22.0637 109.908 22.4837 110.091 22.7387C110.274 23.0238 110.414 23.3988 110.414 23.6088C110.414 23.8188 110.457 24.1789 110.511 24.4339C110.564 24.6889 110.672 25.319 110.758 25.844C110.833 26.3841 110.952 26.9241 111.016 27.0441C111.113 27.2392 111.22 27.1192 111.661 26.3091C111.952 25.769 112.274 25.094 112.382 24.8089C112.489 24.5239 112.973 23.7138 113.457 23.0238Z" fill="#221111"/>
<path d="M79.9795 22.1987C80.5387 22.0787 81.4098 21.8687 81.9152 21.7637C82.4207 21.6436 82.9261 21.5836 83.0444 21.6286C83.1627 21.6737 83.3778 21.7037 83.5284 21.6887C83.6789 21.6887 83.937 21.8687 84.1199 22.0937C84.3027 22.3337 84.55 22.5587 84.6898 22.6187C84.8834 22.7087 84.9264 22.8288 84.9264 23.3238C84.9264 23.8188 84.8511 24.0289 84.5285 24.4939C84.2812 24.8389 83.9048 25.169 83.5821 25.319C83.2918 25.454 82.582 25.664 82.0228 25.799C81.4636 25.934 80.8076 26.1591 80.571 26.3091C80.3344 26.4591 79.9042 26.6241 79.6031 26.6841C79.3127 26.7441 78.9041 26.8791 78.7105 26.9691C78.3986 27.1192 78.3556 27.2092 78.4201 28.0492L80.0655 28.0192C81.313 27.9892 81.7002 28.0192 81.7002 28.1693C81.7002 28.2593 81.8507 28.5593 82.0443 28.8293C82.2379 29.0843 82.5282 29.3844 82.7003 29.4594C82.9154 29.5794 82.9907 29.7294 82.9907 30.0444C83.0014 30.3745 82.8831 30.5545 82.3239 31.0795C81.9475 31.4246 81.4528 31.8296 81.2162 31.9646C80.8721 32.1746 80.4634 32.2346 77.6028 32.2496L77.3125 32.9247C77.1512 33.2997 76.9361 33.8548 76.8285 34.1698C76.7317 34.4698 76.678 34.7549 76.7317 34.7999C76.7748 34.8449 77.2157 34.8749 77.7211 34.8749C78.2266 34.8749 79.1729 34.7699 79.8182 34.6498C80.4742 34.5448 81.3668 34.3348 82.6143 33.9598L82.9907 34.4848C83.195 34.7849 83.4208 35.0249 83.4746 35.0249C83.5391 35.0249 83.6682 35.2799 83.765 35.5799C83.9478 36.15 83.9478 36.15 83.6252 36.795C83.4531 37.1401 83.109 37.5901 82.8616 37.7851C82.6035 37.9802 82.0335 38.2652 81.5926 38.4002C81.1517 38.5352 80.3021 38.7152 79.7106 38.7902C79.1192 38.8802 78.1728 38.9853 77.6136 39.0303C76.9898 39.0753 76.3661 39.0453 76.0005 38.9402C75.6778 38.8352 75.2477 38.6402 75.0433 38.5052C74.839 38.3702 74.5486 37.9802 74.4088 37.6501C74.2583 37.3201 74.0754 36.57 73.9894 36C73.9141 35.4299 73.8496 34.6198 73.8496 34.1998C73.8496 33.7198 73.9249 33.2847 74.0647 32.9697C74.183 32.6997 74.2798 32.3846 74.2798 32.2946C74.2798 32.1896 74.3443 31.9946 74.4303 31.8746C74.5056 31.7546 74.8175 30.8845 75.6778 28.2743L75.4735 27.8692C75.3659 27.6292 75.2369 27.2842 75.1939 27.0742C75.1401 26.8641 75.0433 26.2191 74.839 24.5989L75.1724 24.1789C75.366 23.9539 75.8284 23.6388 76.2155 23.4888L76.216 23.4887C76.6033 23.3386 77.3772 23.0387 77.9362 22.8138C78.4954 22.6037 79.4203 22.3337 79.9795 22.1987Z" fill="#221111"/>
<path fill-rule="evenodd" clip-rule="evenodd" d="M90.2497 21.4336C90.0132 21.5536 89.6045 21.9437 89.3464 22.2887C89.0883 22.6487 88.5506 23.5338 88.1527 24.2839C87.7548 25.034 87.3246 25.769 87.2063 25.934C87.0342 26.1591 86.9375 26.1891 86.8407 26.0691C86.7654 25.979 86.5933 25.859 86.4643 25.799C86.2814 25.739 86.1739 25.799 86.0664 26.0391C85.9803 26.2341 85.733 27.4642 85.5179 28.7843C85.2921 30.1044 85.0662 31.5596 85.0125 32.0096C84.9587 32.4596 84.8942 33.0297 84.8727 33.2847C84.8511 33.5397 84.7651 34.1398 84.6683 34.6348C84.5823 35.1299 84.4963 35.6999 84.4855 35.91C84.464 36.12 84.507 36.42 84.5715 36.585C84.6361 36.75 84.7328 37.1551 84.7759 37.4851C84.8189 37.8151 84.9587 38.2202 85.077 38.3852C85.206 38.5502 85.4211 38.7752 85.5717 38.8802C85.7975 39.0453 85.9051 39.0153 86.303 38.7602C86.6686 38.5202 86.8084 38.3102 87.0127 37.6651C87.1525 37.2451 87.2923 36.66 87.3354 36.39C87.3676 36.135 87.4537 35.91 87.5074 35.91C87.5612 35.91 87.7978 36.135 88.0236 36.42C88.2387 36.69 88.6689 37.1251 88.9592 37.3801C89.2604 37.6351 90.0562 38.1452 90.7337 38.5052C91.4112 38.8652 92.3145 39.2853 92.7232 39.4353C93.1426 39.5703 93.7449 39.6753 94.0675 39.6753C94.4116 39.6753 94.7665 39.5703 94.9063 39.4353C95.0354 39.3153 95.1967 39.0603 95.272 38.8652C95.3365 38.6852 95.4118 38.2352 95.4333 37.8601C95.4548 37.4101 95.401 36.9751 95.2504 36.54C95.0461 35.955 95.0031 35.91 94.5299 35.835C94.2395 35.79 93.4545 35.5799 92.777 35.3699C92.0995 35.1449 91.3252 34.8299 91.0563 34.6498C90.7875 34.4548 90.368 34.1248 90.1207 33.9148C89.8626 33.6898 89.6583 33.4497 89.6583 33.3597C89.6583 33.2697 89.8411 33.1197 90.0669 32.9997C90.282 32.8947 90.7552 32.6847 91.1101 32.5347C91.465 32.3996 92.0457 32.0996 92.4006 31.8746C92.7555 31.6496 93.3039 31.1395 93.6158 30.7345C93.9492 30.2994 94.2288 29.7594 94.3041 29.4594C94.3686 29.1743 94.4224 28.6343 94.4116 28.2593C94.4116 27.8692 94.2718 27.0892 94.0675 26.3841C93.8847 25.724 93.5943 24.8389 93.4437 24.4339C93.2824 24.0139 93.0566 23.5788 92.9383 23.4588C92.82 23.3388 92.6264 23.0688 92.5081 22.8888C92.3898 22.6937 91.9919 22.2287 91.6263 21.8687C91.2499 21.5086 90.8842 21.2086 90.8197 21.2086C90.7444 21.2236 90.4863 21.3136 90.2497 21.4336ZM88.7226 29.0843C88.7549 28.8293 89.0991 28.1242 89.54 27.3892C89.9594 26.7141 90.3788 26.1591 90.4541 26.1591C90.5401 26.1591 90.7444 26.3241 90.9165 26.5041C91.0778 26.6991 91.2606 27.0741 91.3144 27.3292C91.3789 27.5842 91.422 27.8992 91.422 28.0342C91.422 28.1993 91.1639 28.4243 90.6692 28.7243C90.2605 28.9643 89.6475 29.2644 89.3249 29.3844C89.0023 29.5044 88.7227 29.5794 88.7011 29.5644C88.6796 29.5494 88.6904 29.3394 88.7226 29.0843Z" fill="#221111"/>
<path fill-rule="evenodd" clip-rule="evenodd" d="M98.8531 21.7937C99.4446 21.6136 100.359 21.4186 100.896 21.3586C101.434 21.2986 102.133 21.2686 102.456 21.2986C102.778 21.3286 103.273 21.4036 103.542 21.4636C103.822 21.5236 104.166 21.7337 104.295 21.9137C104.435 22.1087 104.607 22.2587 104.66 22.2587C104.714 22.2587 105.015 22.6037 105.316 23.0388C105.617 23.4738 105.929 24.0739 105.994 24.3589C106.058 24.6439 106.112 25.049 106.112 25.259C106.112 25.469 105.994 25.964 105.843 26.3841C105.704 26.7891 105.23 27.6442 104.037 29.3844L104.607 30.0594C104.929 30.4345 105.392 31.0195 105.65 31.3645C105.908 31.7246 106.22 32.2946 106.338 32.6397C106.467 32.9997 106.596 33.6148 106.618 34.0348C106.65 34.7249 106.618 34.8449 106.187 35.6099C105.8 36.3 105.542 36.57 104.553 37.2901C103.897 37.7551 103.004 38.2802 102.563 38.4452C102.122 38.6102 101.563 38.8502 101.327 38.9853C101.09 39.1353 100.585 39.2703 100.197 39.3003C99.6059 39.3603 99.4231 39.3003 98.5305 38.5952L98.2939 38.9853C98.1218 39.2553 97.9497 39.3453 97.7347 39.3153C97.5626 39.3003 97.2615 39.0753 97.0571 38.8202C96.8636 38.5502 96.6485 38.2502 96.5947 38.1452C96.5409 38.0252 96.4119 37.6951 96.3151 37.4101C96.2076 37.1101 96.1538 36.69 96.1861 36.435C96.2183 36.18 96.2936 35.895 96.3366 35.79C96.3904 35.6999 96.4119 35.5199 96.3904 35.4149C96.3689 35.3249 96.4442 34.8449 96.5517 34.3648C96.6592 33.8998 96.8206 33.3597 96.9066 33.1797C96.9926 32.9847 97.2185 31.9196 97.4013 30.8095C97.5949 29.6994 97.8422 28.4243 97.9497 28.0042C98.0573 27.5692 98.1541 27.0141 98.1541 26.7591C98.1541 26.5041 98.1326 26.3091 98.1003 26.3091C98.068 26.3091 97.9605 26.3691 97.8637 26.4441C97.7562 26.5041 97.6379 26.7441 97.5949 26.9691C97.5303 27.2542 97.412 27.3892 97.1647 27.4492C96.8958 27.5242 96.6915 27.4642 96.3259 27.1792C96.057 26.9691 95.6806 26.5341 95.487 26.2191C95.2935 25.904 95.0676 25.409 94.9816 25.154C94.8418 24.7189 94.8418 24.6139 94.9816 24.2089C95.0676 23.9539 95.3257 23.5788 95.5516 23.3388C95.7666 23.1138 96.3581 22.7387 96.8636 22.5137C97.369 22.2887 98.2616 21.9737 98.8531 21.7937ZM101.058 31.7546L100.154 32.0846C99.4768 34.6949 99.3155 35.5049 99.3585 35.5649C99.4016 35.6399 99.6704 35.6099 99.95 35.5049C100.23 35.4149 101.058 34.9649 101.8 34.5298C102.778 33.9298 103.284 33.5397 103.66 33.0447C103.94 32.6847 104.166 32.3246 104.166 32.2346C104.166 32.1446 103.983 31.9646 103.768 31.8146C103.542 31.6496 103.047 31.4996 102.66 31.4696C102.165 31.4246 101.703 31.4996 101.058 31.7546ZM100.154 25.244C100.563 25.064 101.101 24.8689 101.37 24.8089C101.638 24.7489 102.079 24.6889 102.37 24.6739C102.649 24.6739 102.875 24.7339 102.875 24.8089C102.875 24.8839 102.596 25.319 102.251 25.739C101.907 26.1741 101.38 26.7141 100.509 27.3592L100.165 26.8641C99.9715 26.5941 99.6919 26.2791 99.5521 26.1591C99.4016 26.0241 99.3155 25.859 99.3585 25.754C99.4016 25.649 99.7564 25.409 100.154 25.244Z" fill="#221111"/>
<path d="M113.457 23.0238C114.016 22.2287 114.543 21.6286 114.877 21.4186C115.178 21.2236 115.501 21.0586 115.608 21.0586C115.705 21.0586 115.791 21.1486 115.791 21.2536C115.791 21.3436 115.92 21.6136 116.081 21.8237C116.253 22.0337 116.501 22.3037 116.651 22.4387C116.802 22.5587 116.952 22.8588 116.985 23.0988C117.017 23.3388 116.995 23.6988 116.942 23.9089C116.888 24.1189 116.415 24.8839 115.888 25.634C115.361 26.3841 114.92 27.1042 114.931 27.2542C114.931 27.3892 114.845 27.5242 114.748 27.5542C114.64 27.5842 114.318 28.1092 114.038 28.7243C113.758 29.3394 113.199 30.5995 112.801 31.5296C112.403 32.4596 111.973 33.4797 111.844 33.7798C111.715 34.0798 111.479 34.7099 111.328 35.1599C111.167 35.6099 110.941 36.18 110.812 36.435C110.683 36.69 110.425 37.3201 110.242 37.8601C110.059 38.4002 109.769 39.0303 109.597 39.2553C109.338 39.6153 109.22 39.6753 108.908 39.6003C108.704 39.5553 108.36 39.3603 108.155 39.1803C107.951 38.9853 107.672 38.5352 107.295 37.4851L107.499 36.51C107.618 35.97 107.79 35.4299 107.887 35.3099C107.983 35.1899 108.059 35.0249 108.048 34.9349C108.048 34.8449 108.338 34.0648 108.693 33.1797C109.048 32.2796 109.338 31.4696 109.338 31.3795C109.338 31.2745 109.22 31.0195 109.07 30.8095C108.919 30.5995 108.672 29.9994 108.521 29.4594C108.371 28.9193 108.145 27.8092 108.026 26.9841C107.908 26.1591 107.801 25.184 107.779 24.8089C107.768 24.4339 107.725 23.6988 107.672 23.1588C107.607 22.2887 107.618 22.1387 107.822 21.7787C107.951 21.5386 108.145 21.3586 108.263 21.3586C108.381 21.3586 108.768 21.5536 109.123 21.8087C109.478 22.0637 109.908 22.4837 110.091 22.7387C110.274 23.0238 110.414 23.3988 110.414 23.6088C110.414 23.8188 110.457 24.1789 110.511 24.4339C110.564 24.6889 110.672 25.319 110.758 25.844C110.833 26.3841 110.952 26.9241 111.016 27.0441C111.113 27.2392 111.22 27.1192 111.661 26.3091C111.952 25.769 112.274 25.094 112.382 24.8089C112.489 24.5239 112.973 23.7138 113.457 23.0238Z" stroke="#F7FEFF" stroke-width="2.71789" mask="url(#path-8-outside-2_73_4950)"/>
<path d="M79.9795 22.1987C80.5387 22.0787 81.4098 21.8687 81.9152 21.7637C82.4207 21.6436 82.9261 21.5836 83.0444 21.6286C83.1627 21.6737 83.3778 21.7037 83.5284 21.6887C83.6789 21.6887 83.937 21.8687 84.1199 22.0937C84.3027 22.3337 84.55 22.5587 84.6898 22.6187C84.8834 22.7087 84.9264 22.8288 84.9264 23.3238C84.9264 23.8188 84.8511 24.0289 84.5285 24.4939C84.2812 24.8389 83.9048 25.169 83.5821 25.319C83.2918 25.454 82.582 25.664 82.0228 25.799C81.4636 25.934 80.8076 26.1591 80.571 26.3091C80.3344 26.4591 79.9042 26.6241 79.6031 26.6841C79.3127 26.7441 78.9041 26.8791 78.7105 26.9691C78.3986 27.1192 78.3556 27.2092 78.4201 28.0492L80.0655 28.0192C81.313 27.9892 81.7002 28.0192 81.7002 28.1693C81.7002 28.2593 81.8507 28.5593 82.0443 28.8293C82.2379 29.0843 82.5282 29.3844 82.7003 29.4594C82.9154 29.5794 82.9907 29.7294 82.9907 30.0444C83.0014 30.3745 82.8831 30.5545 82.3239 31.0795C81.9475 31.4246 81.4528 31.8296 81.2162 31.9646C80.8721 32.1746 80.4634 32.2346 77.6028 32.2496L77.3125 32.9247C77.1512 33.2997 76.9361 33.8548 76.8285 34.1698C76.7317 34.4698 76.678 34.7549 76.7317 34.7999C76.7748 34.8449 77.2157 34.8749 77.7211 34.8749C78.2266 34.8749 79.1729 34.7699 79.8182 34.6498C80.4742 34.5448 81.3668 34.3348 82.6143 33.9598L82.9907 34.4848C83.195 34.7849 83.4208 35.0249 83.4746 35.0249C83.5391 35.0249 83.6682 35.2799 83.765 35.5799C83.9478 36.15 83.9478 36.15 83.6252 36.795C83.4531 37.1401 83.109 37.5901 82.8616 37.7851C82.6035 37.9802 82.0335 38.2652 81.5926 38.4002C81.1517 38.5352 80.3021 38.7152 79.7106 38.7902C79.1192 38.8802 78.1728 38.9853 77.6136 39.0303C76.9898 39.0753 76.3661 39.0453 76.0005 38.9402C75.6778 38.8352 75.2477 38.6402 75.0433 38.5052C74.839 38.3702 74.5486 37.9802 74.4088 37.6501C74.2583 37.3201 74.0754 36.57 73.9894 36C73.9141 35.4299 73.8496 34.6198 73.8496 34.1998C73.8496 33.7198 73.9249 33.2847 74.0647 32.9697C74.183 32.6997 74.2798 32.3846 74.2798 32.2946C74.2798 32.1896 74.3443 31.9946 74.4303 31.8746C74.5056 31.7546 74.8175 30.8845 75.6778 28.2743L75.4735 27.8692C75.3659 27.6292 75.2369 27.2842 75.1939 27.0742C75.1401 26.8641 75.0433 26.2191 74.839 24.5989L75.1724 24.1789C75.366 23.9539 75.8284 23.6388 76.2155 23.4888L76.216 23.4887C76.6033 23.3386 77.3772 23.0387 77.9362 22.8138C78.4954 22.6037 79.4203 22.3337 79.9795 22.1987Z" stroke="#F7FEFF" stroke-width="2.71789" mask="url(#path-8-outside-2_73_4950)"/>
<path fill-rule="evenodd" clip-rule="evenodd" d="M90.2497 21.4336C90.0132 21.5536 89.6045 21.9437 89.3464 22.2887C89.0883 22.6487 88.5506 23.5338 88.1527 24.2839C87.7548 25.034 87.3246 25.769 87.2063 25.934C87.0342 26.1591 86.9375 26.1891 86.8407 26.0691C86.7654 25.979 86.5933 25.859 86.4643 25.799C86.2814 25.739 86.1739 25.799 86.0664 26.0391C85.9803 26.2341 85.733 27.4642 85.5179 28.7843C85.2921 30.1044 85.0662 31.5596 85.0125 32.0096C84.9587 32.4596 84.8942 33.0297 84.8727 33.2847C84.8511 33.5397 84.7651 34.1398 84.6683 34.6348C84.5823 35.1299 84.4963 35.6999 84.4855 35.91C84.464 36.12 84.507 36.42 84.5715 36.585C84.6361 36.75 84.7328 37.1551 84.7759 37.4851C84.8189 37.8151 84.9587 38.2202 85.077 38.3852C85.206 38.5502 85.4211 38.7752 85.5717 38.8802C85.7975 39.0453 85.9051 39.0153 86.303 38.7602C86.6686 38.5202 86.8084 38.3102 87.0127 37.6651C87.1525 37.2451 87.2923 36.66 87.3354 36.39C87.3676 36.135 87.4537 35.91 87.5074 35.91C87.5612 35.91 87.7978 36.135 88.0236 36.42C88.2387 36.69 88.6689 37.1251 88.9592 37.3801C89.2604 37.6351 90.0562 38.1452 90.7337 38.5052C91.4112 38.8652 92.3145 39.2853 92.7232 39.4353C93.1426 39.5703 93.7449 39.6753 94.0675 39.6753C94.4116 39.6753 94.7665 39.5703 94.9063 39.4353C95.0354 39.3153 95.1967 39.0603 95.272 38.8652C95.3365 38.6852 95.4118 38.2352 95.4333 37.8601C95.4548 37.4101 95.401 36.9751 95.2504 36.54C95.0461 35.955 95.0031 35.91 94.5299 35.835C94.2395 35.79 93.4545 35.5799 92.777 35.3699C92.0995 35.1449 91.3252 34.8299 91.0563 34.6498C90.7875 34.4548 90.368 34.1248 90.1207 33.9148C89.8626 33.6898 89.6583 33.4497 89.6583 33.3597C89.6583 33.2697 89.8411 33.1197 90.0669 32.9997C90.282 32.8947 90.7552 32.6847 91.1101 32.5347C91.465 32.3996 92.0457 32.0996 92.4006 31.8746C92.7555 31.6496 93.3039 31.1395 93.6158 30.7345C93.9492 30.2994 94.2288 29.7594 94.3041 29.4594C94.3686 29.1743 94.4224 28.6343 94.4116 28.2593C94.4116 27.8692 94.2718 27.0892 94.0675 26.3841C93.8847 25.724 93.5943 24.8389 93.4437 24.4339C93.2824 24.0139 93.0566 23.5788 92.9383 23.4588C92.82 23.3388 92.6264 23.0688 92.5081 22.8888C92.3898 22.6937 91.9919 22.2287 91.6263 21.8687C91.2499 21.5086 90.8842 21.2086 90.8197 21.2086C90.7444 21.2236 90.4863 21.3136 90.2497 21.4336ZM88.7226 29.0843C88.7549 28.8293 89.0991 28.1242 89.54 27.3892C89.9594 26.7141 90.3788 26.1591 90.4541 26.1591C90.5401 26.1591 90.7444 26.3241 90.9165 26.5041C91.0778 26.6991 91.2606 27.0741 91.3144 27.3292C91.3789 27.5842 91.422 27.8992 91.422 28.0342C91.422 28.1993 91.1639 28.4243 90.6692 28.7243C90.2605 28.9643 89.6475 29.2644 89.3249 29.3844C89.0023 29.5044 88.7227 29.5794 88.7011 29.5644C88.6796 29.5494 88.6904 29.3394 88.7226 29.0843Z" stroke="#F7FEFF" stroke-width="2.71789" mask="url(#path-8-outside-2_73_4950)"/>
<path fill-rule="evenodd" clip-rule="evenodd" d="M98.8531 21.7937C99.4446 21.6136 100.359 21.4186 100.896 21.3586C101.434 21.2986 102.133 21.2686 102.456 21.2986C102.778 21.3286 103.273 21.4036 103.542 21.4636C103.822 21.5236 104.166 21.7337 104.295 21.9137C104.435 22.1087 104.607 22.2587 104.66 22.2587C104.714 22.2587 105.015 22.6037 105.316 23.0388C105.617 23.4738 105.929 24.0739 105.994 24.3589C106.058 24.6439 106.112 25.049 106.112 25.259C106.112 25.469 105.994 25.964 105.843 26.3841C105.704 26.7891 105.23 27.6442 104.037 29.3844L104.607 30.0594C104.929 30.4345 105.392 31.0195 105.65 31.3645C105.908 31.7246 106.22 32.2946 106.338 32.6397C106.467 32.9997 106.596 33.6148 106.618 34.0348C106.65 34.7249 106.618 34.8449 106.187 35.6099C105.8 36.3 105.542 36.57 104.553 37.2901C103.897 37.7551 103.004 38.2802 102.563 38.4452C102.122 38.6102 101.563 38.8502 101.327 38.9853C101.09 39.1353 100.585 39.2703 100.197 39.3003C99.6059 39.3603 99.4231 39.3003 98.5305 38.5952L98.2939 38.9853C98.1218 39.2553 97.9497 39.3453 97.7347 39.3153C97.5626 39.3003 97.2615 39.0753 97.0571 38.8202C96.8636 38.5502 96.6485 38.2502 96.5947 38.1452C96.5409 38.0252 96.4119 37.6951 96.3151 37.4101C96.2076 37.1101 96.1538 36.69 96.1861 36.435C96.2183 36.18 96.2936 35.895 96.3366 35.79C96.3904 35.6999 96.4119 35.5199 96.3904 35.4149C96.3689 35.3249 96.4442 34.8449 96.5517 34.3648C96.6592 33.8998 96.8206 33.3597 96.9066 33.1797C96.9926 32.9847 97.2185 31.9196 97.4013 30.8095C97.5949 29.6994 97.8422 28.4243 97.9497 28.0042C98.0573 27.5692 98.1541 27.0141 98.1541 26.7591C98.1541 26.5041 98.1326 26.3091 98.1003 26.3091C98.068 26.3091 97.9605 26.3691 97.8637 26.4441C97.7562 26.5041 97.6379 26.7441 97.5949 26.9691C97.5303 27.2542 97.412 27.3892 97.1647 27.4492C96.8958 27.5242 96.6915 27.4642 96.3259 27.1792C96.057 26.9691 95.6806 26.5341 95.487 26.2191C95.2935 25.904 95.0676 25.409 94.9816 25.154C94.8418 24.7189 94.8418 24.6139 94.9816 24.2089C95.0676 23.9539 95.3257 23.5788 95.5516 23.3388C95.7666 23.1138 96.3581 22.7387 96.8636 22.5137C97.369 22.2887 98.2616 21.9737 98.8531 21.7937ZM101.058 31.7546L100.154 32.0846C99.4768 34.6949 99.3155 35.5049 99.3585 35.5649C99.4016 35.6399 99.6704 35.6099 99.95 35.5049C100.23 35.4149 101.058 34.9649 101.8 34.5298C102.778 33.9298 103.284 33.5397 103.66 33.0447C103.94 32.6847 104.166 32.3246 104.166 32.2346C104.166 32.1446 103.983 31.9646 103.768 31.8146C103.542 31.6496 103.047 31.4996 102.66 31.4696C102.165 31.4246 101.703 31.4996 101.058 31.7546ZM100.154 25.244C100.563 25.064 101.101 24.8689 101.37 24.8089C101.638 24.7489 102.079 24.6889 102.37 24.6739C102.649 24.6739 102.875 24.7339 102.875 24.8089C102.875 24.8839 102.596 25.319 102.251 25.739C101.907 26.1741 101.38 26.7141 100.509 27.3592L100.165 26.8641C99.9715 26.5941 99.6919 26.2791 99.5521 26.1591C99.4016 26.0241 99.3155 25.859 99.3585 25.754C99.4016 25.649 99.7564 25.409 100.154 25.244Z" stroke="#F7FEFF" stroke-width="2.71789" mask="url(#path-8-outside-2_73_4950)"/>
</g>
<defs>
<filter id="filter0_d_73_4950" x="-2.35889" y="0.703125" width="124.718" height="66" filterUnits="userSpaceOnUse" color-interpolation-filters="sRGB">
<feFlood flood-opacity="0" result="BackgroundImageFix"/>
<feColorMatrix in="SourceAlpha" type="matrix" values="0 0 0 0 0 0 0 0 0 0 0 0 0 0 0 0 0 0 127 0" result="hardAlpha"/>
<feOffset dy="4"/>
<feGaussianBlur stdDeviation="2"/>
<feComposite in2="hardAlpha" operator="out"/>
<feColorMatrix type="matrix" values="0 0 0 0 0 0 0 0 0 0 0 0 0 0 0 0 0 0 0.25 0"/>
<feBlend mode="normal" in2="BackgroundImageFix" result="effect1_dropShadow_73_4950"/>
<feBlend mode="normal" in="SourceGraphic" in2="effect1_dropShadow_73_4950" result="shape"/>
</filter>
</defs>
</svg>
