<svg width="1288" height="838" viewBox="0 0 1288 838" fill="none" xmlns="http://www.w3.org/2000/svg">
<g clip-path="url(#clip0_52_2810)" filter="url(#filter0_d_52_2810)">
<rect width="1280" height="830" transform="translate(4)" fill="#096B78"/>
<path fill-rule="evenodd" clip-rule="evenodd" d="M310.387 119.835C308.959 108.554 299.027 100.615 288.202 102.103C277.377 103.591 269.759 113.943 271.187 125.224L292.926 296.983C294.354 308.265 304.286 316.204 315.111 314.716C325.936 313.228 333.554 302.876 332.126 291.595L310.387 119.835ZM698.193 0.000507162L4 1.5253e-05L4.00001 602.207L4.00001 640L377.801 580.682C802.899 502.795 1103.09 282.06 1284 1.5253e-05L698.193 0.000507162ZM757.469 7.6265e-06L1232.82 0C1057.12 259.918 772.472 463.592 370.967 537.276L4.00001 595.51L4 1.5253e-05L698.193 0.000507162L801.455 96.356C809.589 103.946 822.088 103.227 829.371 94.7496C836.654 86.2719 835.964 73.2461 827.83 65.6557L757.469 7.6265e-06Z" fill="#045661"/>
<path fill-rule="evenodd" clip-rule="evenodd" d="M698.193 0.000507162L4 1.5253e-05L4.00001 595.51L370.967 537.276C772.472 463.592 1057.12 259.918 1232.82 0L757.469 7.6265e-06L827.83 65.6557C835.964 73.2461 836.654 86.2719 829.371 94.7496C822.088 103.227 809.589 103.946 801.455 96.356L698.193 0.000507162ZM310.387 119.835C308.959 108.554 299.027 100.615 288.202 102.103C277.377 103.591 269.759 113.943 271.187 125.224L292.926 296.983C294.354 308.265 304.286 316.204 315.111 314.716C325.936 313.228 333.554 302.876 332.126 291.595L310.387 119.835Z" fill="#004852"/>
<path d="M582.507 728.705C583.284 726.713 585.529 725.728 587.522 726.505L605.08 733.355C607.072 734.133 608.057 736.378 607.28 738.37C606.503 740.362 604.257 741.347 602.265 740.57L584.707 733.72C582.715 732.942 581.73 730.697 582.507 728.705Z" fill="#19737F"/>
<path d="M582.715 826.896C584.815 826.494 586.844 827.871 587.246 829.971L567.331 829.842L582.715 826.896Z" fill="#19737F"/>
<path fill-rule="evenodd" clip-rule="evenodd" d="M1236.47 520.078C1207.92 470.8 1162.41 431.675 1106.21 413.792C1050.21 395.971 983.096 399.087 910.811 435.042L872.575 460.319L933.575 563.299L970.963 541.152L971.117 541.071C1039.5 504.981 1105.49 531.886 1136.81 580.826C1152.45 605.256 1159.51 635.256 1153.9 665.613C1148.27 696.044 1130.02 726.26 1096.05 751.279L1095.77 751.489L963.357 829.921L935.5 829.921L1087.92 739.639C1119.16 716.536 1135.06 689.416 1139.94 663.032C1144.85 636.493 1138.71 610.121 1124.86 588.479C1097.23 545.312 1039.2 521.281 977.897 553.546L699.638 718.371C668.397 741.474 652.492 768.594 647.615 794.978C645.427 806.81 645.435 818.609 647.343 829.971L632.971 829.971C631.176 817.764 631.303 805.112 633.654 792.397C638.994 763.513 655.709 734.825 686.439 710.589L633.118 618.328C565.864 659.764 529.432 714.66 516.596 771.358C512.19 790.824 510.55 810.566 511.426 830.121L497.214 830.121C496.347 809.555 498.1 788.765 502.75 768.224C516.827 706.04 557.329 646.708 630.844 603.114L903.702 422.722L904.088 422.529C979.529 384.894 1050.59 381.194 1110.52 400.264C1170.35 419.304 1218.58 460.883 1248.76 512.96C1303.51 607.447 1298.96 736.829 1196.92 830L1175.23 830C1283.78 740.904 1290.16 612.727 1236.47 520.078ZM698.267 702.682L645.108 610.702L860.718 468.158L921.36 570.534L698.267 702.682Z" fill="#19737F"/>
<path fill-rule="evenodd" clip-rule="evenodd" d="M825.171 572.758C823.332 573.847 820.957 573.239 819.867 571.4L810 554.743C808.91 552.903 809.518 550.528 811.358 549.438C813.198 548.348 815.573 548.956 816.663 550.796L826.529 567.453C827.619 569.293 827.011 571.668 825.171 572.758ZM1125.74 811.738C1123.9 812.828 1121.52 812.22 1120.43 810.38L1110.9 794.279C1109.81 792.439 1110.41 790.064 1112.25 788.974C1114.09 787.884 1116.47 788.492 1117.56 790.332L1127.1 806.434C1128.19 808.273 1127.58 810.648 1125.74 811.738ZM985.692 481.239C983.619 481.761 981.514 480.503 980.992 478.43L976.554 460.808C976.032 458.734 977.289 456.63 979.363 456.107C981.437 455.585 983.541 456.843 984.063 458.916L988.501 476.538C989.024 478.612 987.766 480.716 985.692 481.239ZM1175.79 722.218C1176.62 720.248 1178.89 719.325 1180.86 720.157L1197.87 727.336C1199.84 728.168 1200.76 730.439 1199.93 732.409C1199.1 734.379 1196.82 735.302 1194.85 734.47L1177.85 727.291C1175.88 726.459 1174.96 724.188 1175.79 722.218ZM1082.5 487.193C1080.44 486.614 1079.24 484.476 1079.82 482.418L1085.12 463.523C1085.7 461.464 1087.84 460.264 1089.9 460.842C1091.96 461.421 1093.16 463.558 1092.58 465.617L1087.27 484.512C1086.69 486.571 1084.56 487.771 1082.5 487.193ZM1194.89 630.455C1194.51 628.351 1195.91 626.335 1198.01 625.952L1216.29 622.624C1218.39 622.241 1220.41 623.636 1220.79 625.74C1221.17 627.844 1219.78 629.86 1217.68 630.243L1199.4 633.57C1197.29 633.953 1195.28 632.558 1194.89 630.455ZM1161.74 540.664C1160.36 539.036 1160.55 536.592 1162.18 535.206L1176.64 522.892C1178.26 521.505 1180.71 521.701 1182.1 523.329C1183.48 524.957 1183.29 527.4 1181.66 528.787L1167.2 541.101C1165.57 542.487 1163.13 542.292 1161.74 540.664Z" fill="#19737F"/>
<path d="M747.419 622.564C745.579 623.654 743.204 623.046 742.114 621.206L732.248 604.549C731.158 602.709 731.766 600.334 733.606 599.245C735.446 598.155 737.821 598.763 738.91 600.603L748.777 617.259C749.867 619.099 749.259 621.474 747.419 622.564Z" fill="#19737F"/>
</g>
<defs>
<filter id="filter0_d_52_2810" x="0" y="0" width="1288" height="838" filterUnits="userSpaceOnUse" color-interpolation-filters="sRGB">
<feFlood flood-opacity="0" result="BackgroundImageFix"/>
<feColorMatrix in="SourceAlpha" type="matrix" values="0 0 0 0 0 0 0 0 0 0 0 0 0 0 0 0 0 0 127 0" result="hardAlpha"/>
<feOffset dy="4"/>
<feGaussianBlur stdDeviation="2"/>
<feComposite in2="hardAlpha" operator="out"/>
<feColorMatrix type="matrix" values="0 0 0 0 0 0 0 0 0 0 0 0 0 0 0 0 0 0 0.25 0"/>
<feBlend mode="normal" in2="BackgroundImageFix" result="effect1_dropShadow_52_2810"/>
<feBlend mode="normal" in="SourceGraphic" in2="effect1_dropShadow_52_2810" result="shape"/>
</filter>
<clipPath id="clip0_52_2810">
<rect width="1280" height="830" fill="white" transform="translate(4)"/>
</clipPath>
</defs>
</svg>
