<svg width="610" height="579" viewBox="0 0 610 579" fill="none" xmlns="http://www.w3.org/2000/svg">
<g filter="url(#filter0_d_73_4976)">
<path fill-rule="evenodd" clip-rule="evenodd" d="M284 81.8281L286.424 78.1913L289.454 78.7974L290.06 81.2219H296.727L299.757 78.7974L313.697 80.6158V103.043L313.091 106.679L311.878 112.134L314.303 120.014L303.394 111.528L298.545 107.285L294.303 95.769L296.121 93.9506L295.515 91.5261L293.091 90.92L289.454 84.2526H287.03L285.818 87.2832L284.606 83.0403L284 81.8281ZM462.181 86.071H465.818L471.272 80.6158L476.727 79.4035L480.969 81.8281L471.878 83.6464L483.999 83.0403L490.06 86.6771L497.939 86.071V87.8893L501.575 88.4955L500.969 89.7077L507.636 90.3139L513.696 96.3752L513.09 98.1935L517.939 98.7997L523.393 105.467L520.969 114.559L521.575 120.62L519.151 124.257L514.302 129.106L507.636 132.743L501.575 136.38V138.804L497.939 140.016V143.047L496.727 144.259H493.09L491.272 141.835L471.878 135.774L460.969 130.318L465.818 128.5L471.878 120.62L469.454 108.498L468.242 103.649L463.999 100.012L459.151 96.3752H464.605L463.393 92.7384H465.212V90.92H462.181V86.071ZM435.515 103.649L440.363 104.861V100.618L437.939 98.7997H443.393L443.999 104.255L447.03 103.043L449.454 107.285L450.666 119.408L449.454 125.469L445.212 130.924L447.03 132.743L430.06 134.561L434.302 129.106L436.121 122.439L437.333 109.71L435.515 103.649ZM169.454 167.898L164.606 163.049L163.394 152.745L164.606 143.653L162.182 143.047V141.229L160.97 143.653L159.758 140.623L158.545 141.835L160.364 131.531H155.515V124.863H157.939L158.545 122.439L159.151 124.863L160.97 124.257L159.758 116.984L164 121.226L164.606 116.984L173.697 107.892L181.576 104.255H192.485L189.454 106.073L185.818 109.104L186.424 110.922L188.848 110.316L187.03 126.682L187.636 131.531L191.273 136.986L194.909 140.623L200.97 143.653L213.091 140.623L212.485 143.653L210.667 145.472L219.151 150.927L220.363 152.745L219.151 153.351L225.818 158.2H230.666L227.636 155.17L228.242 151.533L225.818 147.896L228.242 146.684L229.454 141.835L236.727 139.41L244.606 143.653L245.212 138.804L257.939 169.717L265.212 178.203L267.03 177.596L267.636 179.415L268.242 177.596L273.091 183.052V188.507L278.545 193.962L274.909 192.75L279.151 198.205L277.939 201.842L271.879 198.205L270.06 200.023L268.242 197.599L267.636 195.174L260.969 191.537L254.909 187.294L256.727 181.233L259.151 183.658L260.363 180.627L253.697 176.99L254.909 175.172L253.697 172.141L251.273 173.354V176.99L253.091 177.596H251.273V181.839L248.242 179.415V177.596H250.666L249.454 175.172L245.818 176.384V192.144L251.273 196.386V208.509L254.303 210.934L253.091 212.146L256.121 214.57L256.727 218.813L260.969 218.207L262.182 213.964V220.632L256.727 221.238L260.363 222.45L259.757 224.268L256.121 223.056L257.939 225.481L256.727 228.511L258.545 229.723L256.121 230.33V232.148L251.273 232.754L253.697 233.966L251.273 234.573L253.091 235.785L251.273 237.603V264.879H254.909L253.091 260.03H255.515L256.727 264.879L259.757 264.273L257.333 270.334L239.757 267.91L224.606 273.365L216.121 280.032L222.182 278.82L225.212 280.032L231.879 282.457H239.151L242.788 277.608L247.636 278.214L250.06 279.426L249.454 284.881L253.091 287.306L262.788 293.973L267.636 294.579L266.424 280.032L260.363 271.546L259.757 267.303L262.182 266.091L260.969 264.879H263.394L264 261.242L266.424 263.061L267.636 261.848L264.606 258.212V249.12L267.636 247.907L265.818 244.271H267.636L266.424 242.452L269.454 238.815L267.636 236.997L269.454 220.632L270.666 226.087L273.091 226.693V224.874L276.727 224.268L278.545 223.662L279.757 226.087L277.939 227.905H273.091L271.879 230.936L273.697 243.058L275.515 238.815L274.303 235.785H276.121L277.333 232.754L276.121 230.33L278.545 231.542V235.785L280.363 230.936L281.576 235.179L285.212 235.785L284 238.815L287.636 237.603L289.454 238.815V242.452H295.515L294.909 232.754L296.727 229.117L298.545 231.542L299.757 227.905L300.363 236.391L298.545 236.997H300.363L300.969 240.634L304 236.391V239.422L310.06 237.603L311.272 233.36L314.303 232.754L312.485 232.148L314.303 227.905L318.545 226.087L319.151 229.117H316.727L316.121 230.936L316.727 236.391L314.909 235.785V238.209L316.727 236.997V246.695L322.181 246.089V252.756L326.424 255.181L325.212 256.999L326.424 260.03L324.606 260.636L324 258.212V261.242H326.424L322.788 262.454V268.516L316.727 274.577L294.909 293.973L265.212 316.4L264.606 320.643L267.636 327.916L267.03 331.553H263.394L260.363 327.31L246.424 321.855H237.333L229.454 326.098L218.545 340.039L207.03 363.072L208.242 367.921L216.121 373.982L233.697 383.074L230.666 389.135L227.636 390.954L229.454 397.621L222.182 398.833L220.97 404.895L205.818 427.928L202.788 429.14V426.715L199.757 425.503L200.364 421.26L197.333 423.079L196.727 418.836L193.697 418.23L196.727 417.017L195.515 415.199L190.667 417.017L190.061 419.442L185.212 420.048L187.636 420.654L187.03 422.472L191.273 421.866L193.697 425.503L183.394 424.897L178.545 429.14L181.576 432.777V430.352L184 429.14L183.394 426.109L187.03 426.715L187.636 428.534L189.454 427.928L187.636 426.109L191.273 426.715V432.171L194.909 434.595L196.121 439.444H197.939L195.515 441.262L196.121 443.687L188.242 448.536H190.667L189.454 454.597L185.818 450.961V455.203L182.788 452.173L181.576 453.991L179.151 452.779L179.757 455.203L174.909 452.779V450.354L176.727 451.567L179.151 450.354L177.333 447.324L173.091 446.718L171.879 448.536L165.818 446.718L167.636 448.536L166.424 450.354H168.848L166.424 457.628L170.667 460.052L169.454 464.295L172.485 465.508L170.061 467.326L172.485 467.932L174.303 464.901L171.273 461.871L172.485 460.659L176.727 463.689H180.364V466.72L175.515 464.901L179.757 467.326L179.151 469.144L176.727 467.932L178.545 472.781L182.788 469.144L179.151 478.236H176.121L174.909 473.387L165.818 470.963L161.576 470.357L158.545 472.175L156.121 470.357L154.303 462.477L157.939 455.81L160.97 440.656L165.818 442.475L166.424 440.656L168.242 442.475V440.656L164 438.232L170.061 435.807L172.485 431.564L174.909 432.171L175.515 426.715H177.939L176.727 424.897L180.97 423.685L179.757 420.654L172.485 417.623V420.048L171.273 425.503L168.848 424.291L167.03 426.109L165.212 430.352L167.03 430.958L162.788 434.595L164 422.472L146.424 431.564L144 435.201L140.364 433.989V436.413L142.788 437.626L131.273 447.93L123.394 452.779H119.758L102.182 463.689L104 467.326L100.97 469.144L102.182 471.569L99.1516 472.781L99.7576 474.6L95.5152 475.206L93.697 472.175L92.4849 473.387L88.8486 475.206L89.4546 470.357L87.6365 466.114L85.2122 461.265L86.4243 457.628L84.6062 453.991L82.788 454.597L83.394 449.748L87.0304 448.536L90.6667 442.475L95.5152 440.05L97.9395 436.413L100.97 434.595L103.394 437.02L105.818 430.958H110.667L110.061 426.715L113.697 428.534L115.515 425.503L119.152 424.291L121.576 421.866L117.939 418.836L116.727 413.987L114.303 412.774L131.879 387.923L142.788 375.801H144.606L142.788 373.376L151.879 363.678L157.333 349.737L160.364 349.131L160.97 352.162L151.273 370.952V377.013L156.727 384.892L164.606 392.772L170.667 395.803L173.697 384.892L177.939 379.437L185.212 386.711L195.515 390.954L188.242 384.286L185.212 372.77L180.364 369.739L175.515 368.527L185.212 354.586H187.03L188.242 359.435L190.667 360.647H193.091L195.515 357.011L193.697 347.312L190.667 349.737L188.242 349.131L188.848 345.494L178.545 338.827L177.939 335.796L176.121 337.614L175.515 335.19L181.576 329.129L182.182 323.673L187.03 317.006V312.763L190.667 310.339L189.454 308.52L190.667 301.247H193.697V306.702L206.424 316.4L207.03 307.914L204.606 307.308L205.818 297.61L201.576 295.792L207.03 287.306L202.182 268.516L187.636 238.209L184.606 224.874L182.788 227.905L185.818 237.603L184 251.544L182.182 252.15L181.576 250.332L180.364 245.483L173.697 249.12L172.485 253.363L173.697 261.848L168.848 268.516L165.212 267.91L154.909 264.879L154.303 264.273L150.667 261.848L148.242 249.726L157.939 227.905L156.121 223.056L156.727 213.358L160.364 193.962L164 192.75L170.061 194.568L178.545 195.78V194.568L183.394 187.294L193.091 170.323L192.485 166.08L185.818 167.898L181.576 170.323L177.333 169.111L169.454 167.898ZM202.788 127.288L201.576 123.651L205.212 124.257L214.909 127.894L224 130.924L224.606 133.955L222.788 135.167L212.485 134.561L202.788 127.288ZM320.969 125.469L323.394 124.863L325.212 127.288V129.712L322.788 130.924L320.363 129.712L318.545 132.137L316.727 128.5L320.969 125.469ZM310.666 141.229L313.091 135.167H315.515V138.804L317.939 137.592L316.121 142.441L313.697 136.986L313.091 146.684L311.878 144.259L311.272 146.684L310.666 141.229ZM540.363 136.38L542.181 135.167L547.03 136.38V140.016L545.817 144.259L547.03 147.29L553.09 152.139L556.727 152.745L556.12 153.957L560.363 154.564L558.545 158.806L562.787 160.625V164.868L564.605 164.262L567.03 168.504H569.454L568.848 170.323L573.09 168.504L582.787 167.292L585.211 175.172L590.06 180.021L593.09 178.809L596.726 181.839L594.302 187.294L588.848 192.144L582.787 185.476L580.969 176.384L573.09 175.778L567.03 180.627V186.688L571.272 191.537L568.242 192.144L560.363 187.294L553.09 179.415L548.848 171.535L543.393 169.111L533.09 159.413L526.424 156.382V153.351L535.514 142.441L540.363 136.986V136.38ZM290.06 204.266L292.485 203.66L291.879 205.478L294.909 206.084L296.121 204.266L300.363 206.691L299.757 202.448L297.333 204.266L287.03 199.417L288.242 197.599L289.454 199.417L290.666 196.993L293.697 199.417L294.909 196.993L296.121 201.842L302.788 200.023L305.818 200.629L307.03 203.054L308.242 201.235L310.666 203.054L308.848 204.872L311.272 206.084L305.212 207.297L305.818 205.478H303.394L304.606 207.903L300.363 208.509L290.666 207.297L290.06 204.266ZM327.636 225.481L332.484 226.087L330.666 228.511L328.848 227.905L330.666 229.117L330.06 230.936H325.818L322.181 226.693L327.636 225.481ZM76.7274 495.814L71.8789 490.359L74.3031 486.722V484.904L71.8789 485.51L72.485 481.267L79.1516 484.904L78.5456 483.085L80.9698 481.267L82.1819 499.451L79.7577 498.239V492.783L76.7274 495.814ZM145.818 505.512L145.212 484.298L147.636 481.267H153.697L156.121 483.691L151.879 486.116L153.091 490.359L150.667 492.783L151.879 496.42L149.455 498.239L150.667 501.875L149.455 507.331L148.242 500.663L145.818 505.512ZM156.121 540.061L156.727 536.425L160.97 539.455L164 537.637L165.818 540.061L170.061 538.849V541.274L173.697 540.061L173.091 541.88H178.545L176.121 549.153L162.788 550.972L161.576 557.033L159.151 555.821L159.758 558.245L157.939 558.852L156.727 543.092L159.758 541.88L156.121 540.061Z" fill="#08151A"/>
<path fill-rule="evenodd" clip-rule="evenodd" d="M288.847 75.7637L292.484 73.3392L304.605 75.7637L313.09 69.7024L320.362 69.0963L322.181 67.2779L325.211 69.7024L329.453 67.884L333.09 70.3085L332.484 67.884H334.302L339.15 69.0963L339.756 70.9147L343.393 69.7024L343.999 71.5208H349.453V68.4902L353.09 67.2779L354.908 68.4902L356.12 66.6718L360.362 73.3392L367.635 72.7331V75.1576L365.817 75.7637L348.847 79.4005H334.908L332.484 80.6127L333.696 83.0372L331.877 87.2802L327.029 87.8863L326.423 90.3108L321.574 98.1905L322.181 100.615L323.999 100.009L325.211 98.1905L330.059 99.4027L332.484 96.3721L331.877 99.4027L329.453 100.009V102.433H331.877L329.453 107.282L327.029 110.919L333.09 112.738L332.484 115.768L333.696 115.162L332.484 118.193L328.241 118.799L327.635 122.436L331.271 125.466V128.497L330.059 127.285L329.453 129.103L327.635 128.497L325.211 127.285L323.393 124.86L320.968 125.466L314.302 120.011L311.878 112.131L313.09 106.676L314.302 109.707H316.12L317.332 107.282L320.362 106.676L320.968 103.646L317.332 100.615L317.938 98.7966L314.908 100.009L313.696 103.039V80.6127L299.756 78.7943L288.847 75.7637ZM365.211 81.825L370.059 76.3698L371.271 76.976L367.635 84.2495L365.817 86.0679H361.574L365.211 81.825ZM352.484 87.2802L343.393 88.4924L342.787 90.3108H339.756L339.15 87.2802L336.726 88.4924L336.12 84.8556L339.756 84.2495L342.18 80.6127H345.817L347.635 84.8556H350.059L352.484 87.2802ZM342.787 104.858L340.968 105.464L341.574 102.433L344.605 100.615H340.968L350.059 92.1292L353.696 92.7353L352.484 94.5537L354.302 96.3721V96.9782L353.09 100.009L342.787 104.858ZM354.908 96.9782L357.938 94.5537L361.574 100.009H364.605L363.393 93.3414L365.211 98.1905L367.635 96.9782V114.556L367.029 125.466L368.847 133.952L370.059 136.983L374.908 146.075H379.15L382.18 147.893L381.574 149.105L365.817 157.591L357.938 159.409L358.544 161.834L353.09 163.652V165.471H349.453L346.423 169.108L344.605 168.501L340.362 174.563L338.544 172.744L339.15 176.381L337.332 178.806L334.908 178.199L334.302 180.624L331.877 179.412L331.271 181.23L327.635 180.018L325.817 181.836L320.968 181.23L319.756 183.655L321.574 184.867L319.756 187.291L326.423 186.685L330.059 184.261L331.877 186.079L328.847 187.291V189.11L314.908 190.928V192.747L327.635 193.959L329.453 191.534L334.908 192.747L338.544 190.322H343.393L329.453 195.777L328.847 200.02L334.302 201.232L334.908 204.869L337.332 204.263L336.726 206.081L330.059 208.506L319.15 210.324H303.393L300.362 208.506L304.605 207.9L303.393 205.475H305.817L305.211 207.294L311.271 206.081L308.847 204.869L310.665 203.051L308.241 201.232L307.029 203.051L305.817 200.626L302.787 200.02L296.12 201.839L294.908 196.989L293.696 199.414L290.665 196.989L289.453 199.414L288.241 197.596L287.029 199.414L297.332 204.263L299.756 202.445L300.362 206.688L296.12 204.263L294.908 206.081L291.878 205.475L292.484 203.657L290.059 204.263H288.241L288.847 206.081L285.211 204.263L282.181 205.475L277.938 201.839L279.15 198.202L274.908 192.747L278.544 193.959L273.09 188.504V183.049L268.241 177.593L267.635 179.412L267.029 177.593L265.211 178.199L257.938 169.714L245.211 138.801L244.605 143.65L236.726 139.407L229.453 141.832L228.241 146.681L225.817 147.893L221.575 143.65V140.619H223.393L222.787 135.164L224.605 133.952L223.999 130.921L237.938 127.891L241.575 128.497L246.423 123.648L251.272 121.829L254.302 115.768L248.847 117.587L247.029 113.95V111.525L253.696 107.282L256.12 109.707L257.938 109.101L257.332 110.919L259.15 109.707L260.362 111.525L259.15 112.131L266.423 109.707V114.556L268.847 113.95L266.423 121.829L267.029 133.952L269.453 140.013L270.059 140.619L271.878 144.256L273.696 143.65L274.908 145.469L274.302 148.499L277.332 152.136L282.181 157.591L300.968 167.895L302.181 169.108L300.362 169.714V172.744L306.423 174.563L308.241 177.593L313.696 170.926L313.09 168.501L310.059 167.895L322.787 161.834L334.908 150.924L345.817 135.164V130.921H340.362L345.817 126.679L342.18 126.072L344.605 124.254H350.059L353.696 117.587L349.453 116.374L351.271 117.587L348.241 119.405L341.574 118.799L342.18 116.98L350.059 115.768L349.453 112.131L353.696 110.919L357.332 111.525L359.756 108.495L358.544 98.7966L354.908 96.9782ZM291.271 158.197L297.332 159.409L304.605 156.985L305.817 158.197L304.605 160.016L301.574 159.409L302.059 161.955L291.271 158.197ZM302.12 161.955L305.211 163.046L302.181 162.44L302.12 161.955ZM355.574 193.959L352.544 194.565L351.332 192.747L357.999 190.322L357.393 188.504L358.605 189.11L360.423 183.655L364.665 179.412L365.877 180.018L364.059 181.836L364.665 184.867L360.423 186.079L362.241 187.291L355.574 193.959ZM33.7568 518.238L34.969 518.844L36.1811 516.419L39.8174 517.026L42.8477 513.389L46.4841 513.995V517.026L44.0598 519.45L33.7568 520.056V518.238ZM164.666 562.485L171.332 558.242H178.605L177.393 563.697L186.484 566.728L187.09 569.153L182.847 570.971H168.908L169.514 567.94H173.151V565.516L164.666 562.485Z" fill="#202E19"/>
<path d="M327.03 87.888L326.424 90.3125L330.061 88.4941L330.667 90.9187L328.243 93.3432L328.849 95.1616L327.03 93.9493L325.212 95.7677L324 100.011L325.212 98.1922L330.061 99.4045L332.485 96.3738L331.879 99.4045L329.455 100.011V102.435H331.879L336.727 95.1616L339.152 94.5554L338.546 96.9799H342.182V98.7983L331.273 107.89L329.455 107.284L327.03 110.921L333.091 112.739L332.485 115.77L333.697 115.164L341.576 106.072L346.424 104.86H342.788L340.97 105.466L341.576 102.435L344.606 100.617H340.97L350.061 92.1309L353.697 92.7371L352.485 94.5554L354.303 96.3738L354.909 92.1309L350.667 88.4941L352.485 87.2819L343.394 88.4941L342.788 90.3125H339.758L339.152 87.2819L336.727 88.4941L336.121 84.8574L339.758 84.2512L342.182 80.6145H345.818L347.636 84.8574H350.061L348.242 84.2512L348.849 79.4022H334.909L332.485 80.6145L333.697 83.039L331.879 87.2819L327.03 87.888Z" fill="#3C351E"/>
<path d="M275.515 86.6758H271.273L273.091 89.7064L269.455 90.3125L267.031 86.0696L265.818 87.2819L261.576 101.829L263.394 103.647L260.97 104.254L260.364 107.284H253.697L256.121 109.709L257.94 109.103L257.334 110.921L259.152 109.709L260.364 111.527L259.152 112.133L266.424 109.709V114.558L268.849 113.952L266.424 121.831L267.031 133.954L269.455 140.015L268.849 120.013L271.273 107.284L276.727 104.86L277.334 106.678H279.758V104.254H281.576L285.212 98.7983L288.849 96.3738L292.485 96.9799L294.303 95.7677L296.121 93.9493L295.515 91.5248L293.091 90.9187L291.879 93.3432L287.637 93.9493L288.849 92.7371H286.424L287.637 90.9187L284.606 83.039L284 81.8267L282.788 80.0083L280.97 80.6145L281.576 82.4329L277.94 83.039V85.4635L275.515 83.039V86.6758Z" fill="#3C351E"/>
<path d="M362.788 90.3125L363.394 93.3432L365.212 98.1922L367.636 96.9799L368.242 95.7677V94.5554L365.818 88.4941L362.788 90.3125Z" fill="#3C351E"/>
<path d="M314.909 100.011L313.697 103.041L313.091 106.678L314.303 109.709H316.121L317.333 107.284L320.364 106.678L320.97 103.647L317.333 100.617L317.94 98.7983L314.909 100.011Z" fill="#3C351E"/>
<path d="M247.031 116.376L244 117.588L234.909 121.225L234.303 123.65L240.364 123.043L241.576 120.619L243.394 121.225L248.849 117.588L247.031 113.952V116.376Z" fill="#3C351E"/>
<path d="M367.03 125.468L368.849 133.954L368.242 130.317L371.273 124.862V120.619L367.636 114.558L367.03 125.468Z" fill="#3C351E"/>
<path d="M336.121 130.923L338.546 131.529L340.364 130.923L345.818 126.68L342.182 126.074L344.606 124.256L339.152 124.862V127.893L336.121 130.923Z" fill="#3C351E"/>
<path d="M274.909 141.833L278.546 148.501L291.273 158.199L297.334 159.411L304.606 156.987L305.818 158.199H311.273L317.94 158.805L315.515 154.562L297.94 157.593L291.273 155.774L280.364 146.683L278.546 141.227L275.515 138.803V134.56L274.909 141.833Z" fill="#3C351E"/>
<path d="M213.091 145.47L212.485 143.652L210.667 145.47L219.152 150.925L220.364 152.744L219.152 153.35L225.818 158.199H230.667L227.637 155.168L228.243 151.532L225.818 147.895L221.576 143.652L217.94 138.197L216.122 140.015L216.728 146.076L213.091 145.47Z" fill="#3C351E"/>
<path d="M337.333 204.265L336.727 206.083L344.606 203.053L355.515 193.961L352.485 194.567L351.273 192.748L357.939 190.324L357.333 188.505L358.546 189.112L360.364 183.656L364.606 179.413L365.212 176.989L368.242 176.383L367.03 172.14L367.636 170.322L368.849 171.534L368.242 165.473L369.455 166.079L372.485 159.411V157.593L370.061 158.805L365.818 157.593L357.939 159.411L358.546 161.836L353.091 163.654V165.473H349.455L346.424 169.109L344.606 168.503L340.364 174.564L338.546 172.746L339.152 176.383L337.333 178.807L334.909 178.201L334.303 180.626L331.879 179.413L331.273 181.232L327.636 180.02L325.818 181.838L320.97 181.232L319.758 183.656L321.576 184.869L319.758 187.293L326.424 186.687L330.061 184.263L331.879 186.081L328.849 187.293V189.112L314.909 190.93V192.748L327.636 193.961L329.455 191.536L334.909 192.748L338.546 190.324H343.394L329.455 195.779L328.849 200.022L334.303 201.234L334.909 204.871L337.333 204.265Z" fill="#3C351E"/>
<path d="M192.485 166.079L185.819 167.897H190.061V172.14L185.213 180.02L183.394 187.293L193.091 170.322L192.485 166.079Z" fill="#3C351E"/>
<path d="M313.091 168.503L310.061 167.897L309.455 169.109L300.97 167.897L302.182 169.109L300.364 169.715V172.746L306.424 174.564L308.243 177.595L313.697 170.928L313.091 168.503Z" fill="#3C351E"/>
<path d="M269.455 218.206V220.63L270.667 226.085L273.091 226.692V224.873L276.727 224.267L274.303 220.63L271.273 221.236L269.455 218.206Z" fill="#3C351E"/>
<path d="M177.334 269.727L181.576 275.788L182.788 259.423L181.576 257.604L180.364 265.484L177.334 267.302V269.727Z" fill="#3C351E"/>
<path d="M166.425 272.151L165.213 273.97L161.576 287.911L162.182 291.547L163.394 290.941L162.182 295.184L165.213 293.366L164.606 288.517L168.849 268.514L165.213 267.908L166.425 272.151Z" fill="#3C351E"/>
<path d="M9.45528 503.086L8.24316 504.299L8.84922 508.542L14.9098 506.117H16.728H18.5462L17.3341 501.268L18.5462 496.419L17.3341 499.45L14.9098 500.056L14.3038 504.299L10.6674 503.692L10.0613 505.511L9.45528 503.086Z" fill="#3C351E"/>
<path d="M57.94 509.754L46.4249 513.997V517.027L44.0007 519.452L33.6977 520.058V518.24L31.2734 517.633V521.876L24.6068 526.119L25.2128 529.756L32.4855 537.03L45.2128 528.544V526.725L51.2734 521.876L49.4552 516.421L51.2734 515.815L54.3037 518.846L67.637 507.329L66.4249 506.117L63.3946 509.754H57.94Z" fill="#3C351E"/>
<path d="M128.243 552.183L124.607 550.971L126.425 561.881L134.91 563.093L136.728 565.518H139.152L139.758 563.093L140.97 557.032L139.152 555.213L139.758 544.909L139.152 546.728L135.516 546.121L129.455 548.546L130.667 550.971H127.637L128.243 552.183Z" fill="#3C351E"/>
<path d="M185.213 557.032L178.546 558.244L177.334 563.699L186.425 566.73H188.243L189.455 563.699V554.607L187.031 550.971L183.394 550.364L184.606 554.607L183.394 555.213L185.213 557.032Z" fill="#3C351E"/>
<path d="M159.758 558.244L157.94 558.85L154.303 564.305L153.697 562.487L151.273 564.305L148.849 563.093V565.518L145.819 560.062L147.031 566.73L144 566.124L143.394 569.154L168.849 570.973L169.455 567.942H173.091V565.518L164.606 562.487H161.576L159.758 558.244Z" fill="#3C351E"/>
<path d="M275.515 58.7929V59.399L273.091 63.6419H267.636L266.424 66.6725L262.182 64.8542V67.2787H251.879L251.273 69.7032L247.03 69.0971L234.909 76.3706L222.182 80.6135L204.606 98.7974H199.152L192.485 104.253L189.455 106.071L190.667 108.495L189.455 112.738L193.091 108.495H198.546V106.677H202.182L205.212 103.646L204 100.616L207.03 98.1912L208.243 100.01L213.091 96.979L218.546 97.5851L230.061 93.3422L240.364 92.7361L250.061 87.2809L263.394 83.038L265.818 78.7951L267.03 80.0074L269.455 75.7645L270.667 76.9767L275.515 70.9155L277.333 68.4909L275.515 58.7929Z" fill="#B1AFA4"/>
<path d="M370.667 73.34L371.273 76.9767L367.636 84.2503V87.8871L368.848 90.9177L370.667 90.3116L376.121 93.9483L382.182 90.9177L385.212 92.13L385.818 90.3116L387.03 92.13L399.151 93.3422L419.151 102.434L432.485 104.253L433.697 106.071L434.303 102.434L426.424 92.7361L414.303 88.4932L399.757 91.5238L396.727 86.6748L384.606 80.0074L377.333 72.7338L372.485 71.5216L370.667 73.34Z" fill="#B1AFA4"/>
<path d="M447.03 92.13L445.212 93.3422L440.969 95.1606L443.394 98.7974L444 104.253L447.03 103.04L449.454 107.283L457.939 106.677L459.757 104.253L463.394 104.859L464 100.01L459.151 96.3729L447.03 92.13Z" fill="#B1AFA4"/>
<path d="M521.575 120.618L519.151 124.255L522.787 128.498L526.424 127.892L532.484 133.347L535.515 132.741L540.363 136.984V136.377L538.545 132.741L531.272 127.892L533.697 126.679L533.09 124.861L530.06 126.073L526.424 124.255L521.575 120.618Z" fill="#B1AFA4"/>
<path d="M222.182 278.818L225.212 280.03L228.243 278.212L227.03 275.787L225.818 277.605L224 276.999L224.606 273.362L216.121 280.03L222.182 278.818Z" fill="#B1AFA4"/>
<path d="M181.576 318.216L182.182 323.671L187.03 317.004V312.761L190.667 310.336L189.455 308.518L181.576 318.216Z" fill="#B1AFA4"/>
<path d="M216.121 373.98L217.333 370.343L225.212 362.463L227.03 363.676L228.849 361.857L230.061 357.008L236.121 354.584L237.939 351.553L242.788 350.947L243.394 349.129L248.849 350.947H261.576L262.182 353.978L264 353.372L263.394 355.796L265.212 356.402L262.182 355.796L257.939 358.827L250.667 368.525L243.394 374.586L245.212 377.011L243.394 381.253H251.273L250.061 385.496L245.818 386.102L246.424 387.921H236.727L233.697 393.376L240.364 394.588L231.273 395.801L229.455 397.619L230.061 400.65L228.849 398.225L228.243 400.65L227.636 399.437L225.212 400.65L225.818 403.68L228.243 402.468L226.424 405.499L220.97 404.892L222.182 398.831L229.455 397.619L227.636 390.952L230.667 389.133L233.697 383.072L216.121 373.98Z" fill="#B1AFA4"/>
<path d="M157.334 381.253L156.728 384.89L164.606 392.77L170.667 395.801L173.697 384.89L177.94 379.435H180.364L177.94 375.192L180.364 369.737L175.515 368.525L173.697 367.919L164 373.98V375.798L157.334 381.253Z" fill="#B1AFA4"/>
<path d="M185.818 460.656L182.788 469.142L179.152 478.234L181.576 482.477L184.606 483.083L187.637 481.871L189.455 476.416H192.485L194.303 472.779H196.727L193.091 467.93L196.121 462.475L197.333 450.958L201.576 447.321L197.333 446.109L193.697 452.777L185.818 460.656Z" fill="#B1AFA4"/>
<path d="M110.667 540.665H124L124.606 536.422L127.637 537.635L127.031 536.422H140.364L142.182 540.059L140.97 541.878L145.212 544.908L147.637 543.09L146.424 540.665L145.212 537.029H148.243L147.031 535.21L148.243 532.18L145.212 533.392L140.97 526.724L139.152 526.118L134.909 531.573H113.091L110.667 540.665Z" fill="#B1AFA4"/>
<path d="M188.243 531.573L187.637 533.392L183.394 540.665L187.637 541.271L190.061 553.394L193.697 550.969H197.94L196.727 544.302L189.455 544.908L195.515 543.696L194.303 540.665L197.94 537.635L193.697 536.422L190.667 531.573H188.243Z" fill="#B1AFA4"/>
<path d="M284 75.7655L282.788 79.4023L282.788 80.0083L284 81.8267L286.424 78.19L289.454 78.7962L290.06 81.2207H296.727L299.757 78.7962L288.848 75.7655H284Z" fill="#08151A"/>
<path d="M293.091 90.9187L291.879 93.3432L287.637 93.9493L288.849 92.7371H286.424L287.637 90.9187L286.032 86.7471L285.818 87.282L284.606 83.039L286.032 86.7471L287.03 84.2513H289.454L293.091 90.9187Z" fill="#08151A"/>
<path d="M448.848 90.9187L443.999 92.131L445.212 93.3432L447.03 92.131L459.151 96.3739H464.605L463.393 92.7371H465.211V90.9187H462.181V86.0697L456.727 88.4942L454.302 86.0697L450.06 86.6758L448.848 90.9187Z" fill="#08151A"/>
<path d="M198.545 106.678V108.496L199.151 113.952L201.576 109.709L204.606 109.103L205.212 103.647L202.182 106.678H198.545Z" fill="#08151A"/>
<path d="M563.393 148.501L560.969 150.319L559.757 152.744H556.726L556.12 153.956L560.363 154.562L558.545 158.805L562.787 160.624V164.866L564.605 164.26L567.029 168.503H569.454L568.848 170.322L573.09 168.503L577.332 164.26L576.726 160.624L571.878 158.805L563.393 148.501Z" fill="#08151A"/>
<path d="M114.303 412.773L97.9395 436.412L100.97 434.594L103.394 437.018L105.818 430.957H110.667L110.061 426.714L113.697 428.532L115.515 425.502L119.152 424.29L115.515 422.471L116.727 413.985L114.303 412.773Z" fill="#08151A"/>
<path d="M178.545 472.78L182.788 469.143L185.818 460.657L193.697 452.778L197.333 446.11V443.686L201.576 440.049L205.818 427.926L202.788 429.139V426.714L199.757 425.502L200.364 421.259L197.333 423.077L196.727 418.834L193.697 418.228L196.727 417.016L195.515 415.198L190.667 417.016L190.061 419.441L185.212 420.047L187.636 420.653L187.03 422.471L191.273 421.865L193.697 425.502L183.394 424.896L178.545 429.139L181.576 432.775V430.351L184 429.139L183.394 426.108L187.03 426.714L187.636 428.532L189.454 427.926L187.636 426.108L191.273 426.714V432.169L194.909 434.594L196.121 439.443H197.939L195.515 441.261L196.121 443.686L188.242 448.535H190.667L189.454 454.596L185.818 450.959V455.202L182.788 452.172L181.576 453.99L179.151 452.778L179.758 455.202L174.909 452.778V450.353L176.727 451.565L179.151 450.353L177.333 447.322L173.091 446.716L171.879 448.535L165.818 446.716L167.636 448.535L166.424 450.353H168.848L166.424 457.627L170.667 460.051L169.454 464.294L172.485 465.506L170.061 467.325L172.485 467.931L174.303 464.9L171.273 461.87L172.485 460.657L176.727 463.688H180.364V466.719L175.515 464.9L179.758 467.325L179.151 469.143L176.727 467.931L178.545 472.78Z" fill="#08151A"/>
<path d="M167.03 430.957L162.788 434.594L160.97 440.655L165.818 442.473L166.424 440.655L168.242 442.473V440.655L164 438.231L170.061 435.806L172.485 431.563L174.909 432.169L175.515 426.714H177.939L176.727 424.896L173.091 423.683L172.485 420.047L171.273 425.502L168.848 424.29L167.03 426.108L165.212 430.351L167.03 430.957Z" fill="#08151A"/>
<path d="M50.0608 485.509L46.4244 486.115L48.2426 488.539L48.8487 498.843L47.6366 495.207L40.3639 488.539L41.576 483.084L40.3639 484.296L37.3336 483.084L34.9093 484.296L27.6366 485.509L34.3033 493.994H31.273L29.4548 490.964L25.2124 493.388L23.3942 491.57L20.97 492.782L18.5462 496.419L17.3341 501.268L18.5462 506.117H16.728L17.3336 512.178L20.97 513.997L22.1821 522.482L20.97 523.695L22.1821 526.725L24.6068 526.119L31.2734 521.876V517.633L33.6977 518.24L34.9093 518.846L36.1214 516.421L39.7578 517.027L42.7881 513.391L46.4249 513.997L57.94 509.754H63.3946L66.4249 506.117L70.0608 501.874L69.4547 500.056L76.7274 495.813L71.8789 490.358L74.3032 486.721V484.902L71.8789 485.509L72.485 481.266L79.1517 484.902L78.5456 483.084L80.9698 481.266L82.182 499.45H84.6062L88.2425 491.57L87.6365 484.902H90.0607L90.6668 486.721L94.3031 481.266L92.485 480.66L93.6971 477.629L92.485 473.386L88.8486 475.204L89.4547 470.355L87.6365 466.112V469.749L85.2122 470.961L83.3941 468.537L81.5759 474.598L79.1517 472.78L74.9092 474.598L69.4547 471.568L70.6668 475.811L69.4547 477.629L67.0305 477.023V474.598H64.6062L65.8183 480.66H64.0002L64.6062 478.841L59.1517 478.235L58.5456 483.084L51.879 480.66L54.9093 487.327L58.5456 488.539L57.9396 495.813L55.5153 493.994L56.1214 490.964L54.3032 492.176L50.0608 485.509Z" fill="#08151A"/>
<path d="M174.303 479.447L179.151 478.235H176.121L174.909 473.386L165.818 470.961L166.424 473.386L170.061 472.78L171.879 477.023L173.697 475.811L174.303 479.447Z" fill="#08151A"/>
<path d="M151.273 475.811L148.848 476.417L150.061 479.447H154.303L153.697 481.266L156.121 483.69L151.879 486.115L153.091 490.358L150.667 492.782L151.879 496.419L149.455 498.237L150.667 501.874L149.455 507.329L148.242 500.662L145.818 505.511L143.394 508.541V512.784L140.364 515.815L140.97 526.725L145.212 533.393L148.242 532.18L147.03 535.211L148.242 537.03H145.212L146.424 540.665L150.667 538.848L151.879 541.879L153.697 539.454L156.121 540.06L156.727 536.423L160.97 539.454L164 537.636L165.818 540.06L170.061 538.848V541.272L173.697 540.06L173.091 541.879H178.545L176.121 549.152L180.364 548.546V546.728L179.151 544.909L183.394 542.485L183.394 540.665L187.636 533.393L185.818 532.787L188.848 527.331L185.212 523.695L185.818 520.664L181.576 518.846L179.758 521.876L176.727 520.058L178.545 516.421L176.121 515.209V518.846L174.303 519.452L169.454 518.846L167.03 515.815L163.394 523.089L159.758 521.27V517.633L154.909 517.027L150.667 520.058L148.848 517.027L150.061 513.391H148.242L151.879 510.36L150.061 508.541L152.485 500.662L154.303 498.843V497.025H152.485L154.909 492.782L152.485 491.57L156.121 489.145L154.303 486.721L159.758 482.478V480.66L159.151 478.841L157.333 479.447L158.545 475.811L152.485 476.417L154.303 478.235L151.273 475.811Z" fill="#08151A"/>
<path d="M204 100.616L205.212 103.647L204.606 109.103L201.576 109.709L199.151 113.952L198.545 108.496L193.091 108.495L189.455 112.738L190.667 108.495L189.455 106.071L185.818 109.102L186.424 110.921L188.848 110.315L187.03 126.68L188.242 127.892L190.667 123.65L194.303 121.831L196.121 123.043L199.151 120.619L201.576 123.65L205.212 124.256L204.606 121.831L210.06 121.225L216.727 115.164H229.454V112.133L226.424 111.527L227.636 106.678H231.879V104.86L234.303 105.466L234.909 103.647L236.727 105.466L240.363 104.86L248.848 101.223L251.272 98.1922L256.121 96.9799L261.575 87.888L263.394 83.038L250.061 87.2809L240.364 92.7361L230.061 93.3422L218.546 97.5851L213.091 96.979L208.243 100.01L207.03 98.1912L204 100.616Z" fill="#AB8B77"/>
<path d="M367.636 87.8871L368.242 92.737L368.848 98.7983H371.272L377.333 109.102L376.727 114.558L378.545 113.952V109.102L380.969 109.709L382.181 116.376L383.999 115.164L392.484 123.65L393.696 122.437L397.333 124.862L403.999 125.468L436.121 122.437L437.333 109.709L435.515 103.647L434.303 102.434L433.697 106.071L432.485 104.253L419.151 102.434L399.151 93.3422L387.03 92.13L385.818 90.3116L385.212 92.13L382.182 90.9177L376.121 93.9483L370.667 90.3116L368.848 90.9177L367.636 87.8871Z" fill="#AB8B77"/>
<path d="M457.939 106.677L449.454 107.283L450.666 119.407L453.09 117.588L460.969 118.194L467.636 113.345L469.454 108.496L468.242 103.647L464 100.01L463.394 104.859L459.757 104.253L457.939 106.677Z" fill="#AB8B77"/>
<path d="M519.151 124.255L514.302 129.105L527.03 136.378L528.848 140.015L535.514 142.44L540.363 136.984L535.515 132.741L532.484 133.347L526.424 127.892L522.787 128.498L519.151 124.255Z" fill="#AB8B77"/>
<path d="M239.757 267.908L224.606 273.362L224 276.999L225.818 277.605L227.03 275.787L228.243 278.212L225.212 280.03L231.879 282.455H239.151L242.788 277.606L247.636 278.212L250.06 279.425L249.454 284.88L253.091 287.304L254.303 284.88L256.727 286.698V281.849L259.757 280.031L258.545 278.212L260.969 277.606L260.363 274.576L257.939 275.182L259.757 273.97L258.545 270.939L257.333 270.333L239.757 267.908Z" fill="#AB8B77"/>
<path d="M180.364 379.435H177.94L185.212 386.71L195.515 390.952L188.242 384.285L185.212 372.769L180.364 369.737L177.94 375.192L180.364 379.435Z" fill="#AB8B77"/>
<path d="M179.151 512.784L176.121 514.603L176.121 515.209L178.545 516.421L182.182 518.24L184 516.421L179.151 512.784Z" fill="#AB8B77"/>
<path d="M261.575 61.8307L251.878 67.2858H262.181V64.8613L266.424 66.6797L267.636 63.6491H273.09L275.515 59.4062L261.575 61.8307Z" fill="#B2C0C7"/>
<path d="M443.999 92.1371L426.423 92.7432L434.302 102.441L435.514 103.654L440.363 104.866V100.623L437.939 98.8045H443.393L440.969 95.1678L445.211 93.3494L443.999 92.1371Z" fill="#B2C0C7"/>
<path d="M553.09 152.144L556.726 152.75H559.756L560.969 150.325L555.514 148.507L548.847 142.446V140.021H547.029L545.817 144.264L547.029 147.295L553.09 152.144Z" fill="#B2C0C7"/>
<path d="M208.242 367.926L216.121 373.987L217.333 370.35L225.212 362.471L227.03 363.683L228.848 361.864L230.06 357.015L236.121 354.591L237.939 351.56L242.787 350.954L243.393 349.136L248.848 350.954H261.575L262.181 353.985L263.999 353.379L265.818 351.56L264.606 347.923L267.03 347.317V337.619L263.393 331.558L260.363 327.315L246.424 321.86H237.333L229.454 326.103L218.545 340.044L207.03 363.077L208.242 367.926Z" fill="#B2C0C7"/>
<path d="M167.636 342.468L160.969 352.166L151.272 370.956V377.018L156.727 384.897L157.333 381.261L164 375.805V373.987L173.697 367.926L175.515 368.532L185.212 354.591H187.03L188.242 359.44L190.666 360.652H193.091L195.515 357.015L193.697 347.317L190.666 349.742L188.242 349.136L188.848 345.499L178.545 338.832H173.091L167.636 342.468Z" fill="#B2C0C7"/>
<path d="M68.2423 456.421L60.9696 457.633L50.0605 463.088L42.1817 471.574L48.8484 472.18L54.909 464.906L68.2423 456.421Z" fill="#B2C0C7"/>
<path d="M4 514.609L18.5454 523.095L16.7272 519.458L11.2727 512.79L10.6667 512.184L7.0303 509.76L4 514.609Z" fill="#B2C0C7"/>
<path d="M54.3029 526.125L45.212 528.55L41.5757 530.974L53.6969 531.581L55.515 526.731L54.3029 526.125Z" fill="#B2C0C7"/>
<path d="M313.091 38.7923L311.878 50.9149L312.485 61.8252L310.06 62.4313L308.848 59.4007L299.757 44.8536L290.06 49.0965L284.606 53.9455L282.788 64.8558L284 68.4926L280.363 66.0681L278.545 67.8865L279.757 71.5233L278.545 72.7355L282.788 79.4023L284 75.7655H288.848L292.485 73.3416L304.606 75.7662L313.091 69.7049L320.363 69.0987L322.181 67.2804L325.212 69.7049L329.454 67.8865L333.091 70.311L332.484 67.8865H334.303L339.151 69.0987L339.757 70.9171L343.394 69.7049L344 71.5233H349.454V68.4926L353.091 67.2804L354.909 68.4926L356.121 66.6742L360.363 73.3416L367.636 72.7355V75.16L365.818 75.7662L365.212 81.8274L370.06 76.3723L371.272 76.9784L370.666 73.3416L372.484 71.5233L377.333 72.7355V70.311L385.818 66.0681L387.636 62.4313L386.424 63.0375L383.393 49.0965L380.969 53.9455L365.212 42.4291L355.515 39.3984L354.909 36.9739L345.212 36.3678L338.545 37.58L337.333 39.3984L329.454 36.9739L325.212 39.3984L322.788 35.7617L313.091 38.7923Z" fill="#2A4A36"/>
<path d="M17.3336 512.178L16.7275 519.452L18.5457 523.089L20.97 523.695L22.1821 522.482L20.97 513.997L17.3336 512.178Z" fill="#2A4A36"/>
<path d="M166.424 513.997L167.03 515.815L169.454 518.846L174.303 519.452L176.121 518.846V515.209L176.121 514.603L171.879 515.21L169.455 513.391L166.424 513.997Z" fill="#2A4A36"/>
<path d="M365.818 75.7662L348.849 79.4022L348.242 84.2512L350.061 84.8574L352.485 87.2819L350.667 88.4941L354.909 92.1309L354.303 96.3738L354.303 96.98H354.909L357.939 94.5555L361.575 100.011H364.606L363.394 93.3432L362.788 90.3125L365.818 88.4941L368.242 94.5554L368.242 92.737L367.636 87.8881V84.2513L365.818 86.0697H361.575L365.212 81.8274L365.818 75.7662Z" fill="#88572D"/>
<path d="M285.212 98.7983L281.576 104.254L280.969 107.284L277.333 109.709V116.376L276.121 113.952L274.909 115.164L276.727 104.86L271.273 107.284L268.849 120.013L269.454 132.135L270.666 131.529L271.879 133.954L270.06 140.621L271.879 144.258L273.697 143.652L274.909 145.47L274.303 148.501L277.333 152.138L278.545 152.744V149.713L277.333 150.319L278.546 148.501L275.515 147.895L272.485 133.954L273.091 124.256L274.909 127.893L275.515 117.588L277.333 118.801L277.939 116.982L279.757 141.834L284 148.501H286.424L291.272 154.562L294.303 153.956L295.515 155.775L310.06 153.35L319.757 153.956L328.848 148.501L325.818 154.562L322.788 153.956L325.818 157.593L326.424 154.562L334.909 150.925L345.818 135.166V130.923L340.364 130.923L338.546 131.529L334.909 132.135L334.303 129.105L331.878 130.923L327.636 128.499L325.212 127.286V129.711L322.788 130.923L320.363 129.711L318.545 132.135L316.727 128.499L320.969 125.468L314.303 120.013L303.394 111.527H299.757L297.333 114.558L300.969 113.952L303.394 119.407L305.818 118.801V116.982L308.242 117.588L307.03 119.407L310.06 122.437L307.636 127.286L310.06 129.711H308.242L309.454 132.742L307.636 133.348L313.091 135.166H315.515V138.803L317.939 137.591L316.121 142.44V147.895L311.272 146.683L310.666 141.227L308.848 142.44L305.818 141.227L304.606 136.378L301.575 137.591L302.788 140.621H301.575L300.969 136.378L299.151 135.772L300.363 133.954L298.545 133.348L296.121 126.68L294.909 133.348L291.878 131.529L293.091 129.711L287.636 121.831L289.454 118.801L285.818 112.739L287.636 106.072L288.242 102.435L290.06 103.041L291.272 99.4045L293.091 100.011L292.485 96.9799L288.849 96.3738L285.212 98.7983Z" fill="#88572D"/>
<path d="M353.09 100.011L342.788 104.86H346.424L341.576 106.072L333.697 115.164L332.484 118.195L328.242 118.801L328.848 122.437L332.484 123.65L336.121 122.437L337.333 118.801H341.575L342.181 116.982L350.06 115.77L349.454 112.133L353.697 110.921L351.878 103.647L356.121 103.041L353.09 100.011Z" fill="#88572D"/>
<path d="M370.666 132.135L370.06 136.985L374.909 146.076H379.151L379.757 145.47L378.545 141.227L380.363 133.954L378.545 124.862H374.909L373.09 112.133H371.272L373.09 130.923L370.666 132.135Z" fill="#88572D"/>
<path d="M220.363 124.862L214.909 127.893L224 130.923L237.939 127.893L241.576 123.65L227.03 126.074L228.242 124.862L227.03 123.044L234.909 121.225L244 117.588L242.788 115.77L245.818 115.164H237.333L228.242 116.376L227.03 117.588H231.879L228.848 118.801L219.757 118.195L225.818 120.619H213.697L220.363 123.044V124.862Z" fill="#88572D"/>
<path d="M193.697 133.954L191.273 136.985L194.909 140.621L205.818 141.227L207.636 138.197L211.273 137.591L212.485 135.772L210.667 135.166L212.485 134.56L202.788 127.286V131.529L193.697 133.954Z" fill="#88572D"/>
<path d="M497.939 140.015V143.046L499.757 143.652L500.969 141.834L502.181 144.258L507.03 145.47H509.454V138.803H507.03L507.636 132.742L501.575 136.378V138.803L497.939 140.015Z" fill="#88572D"/>
<path d="M170.667 172.14L169.454 173.352L171.273 177.595H173.091L171.879 176.383L174.303 172.746L176.727 173.958L174.909 176.989L173.697 176.383L176.121 180.02L172.485 186.081L173.697 187.293H169.454L173.697 188.505L174.909 190.93H169.454L170.061 194.567L178.545 195.779V194.567L183.394 181.838L181.576 170.322L177.333 169.109L178.545 170.322L173.697 171.534L172.485 173.958L170.667 172.14Z" fill="#88572D"/>
<path d="M592.484 212.751L591.878 210.932L593.09 216.387L597.332 211.538H599.757L599.151 215.781L596.12 217.6L596.726 219.418L601.575 213.357L602.787 209.114L601.575 202.446L603.393 203.053L603.999 201.234V199.416L600.969 200.022L594.908 195.779L599.151 200.628L596.726 203.659V207.295L592.484 212.751Z" fill="#88572D"/>
<path d="M276.727 215.175L282.182 205.477L277.939 201.84L271.879 198.204L270.06 200.022L268.242 197.597L270.06 201.234L268.848 206.689L270.666 207.295L270.06 210.326L273.697 212.144V213.963L276.121 213.357L276.727 215.175Z" fill="#88572D"/>
<path d="M330.06 208.508L319.151 210.326L309.454 211.538L317.333 212.751L318.545 211.538L319.757 213.963H314.303L314.909 215.781L316.121 214.569L314.909 218.812H318.545L316.727 216.387L319.151 215.781L317.939 216.994L322.788 218.206L317.333 220.63H325.212L325.818 218.206L324 217.6H328.242L329.454 210.932H331.272L329.454 210.326L330.06 208.508Z" fill="#88572D"/>
<path d="M124.606 536.423L124 540.665L125.212 544.303L127.03 541.272L130.061 540.666L131.273 542.485L134.909 539.454H139.151L136.727 537.636L140.364 536.423H127.03L127.636 537.636L124.606 536.423Z" fill="#88572D"/>
<path d="M142.788 557.032L140.97 557.032L139.758 563.093L140.97 561.881L142.788 563.699L143.394 560.669L145.212 561.881L145.818 556.426L150.667 555.82L151.273 552.789L144 553.395L143.394 551.577L142.788 557.032Z" fill="#88572D"/>
<path d="M325.818 25.4539L326.424 26.6661L340.969 32.1213L322.787 35.7581L325.212 39.3948L329.454 36.9703L337.333 39.3948L338.545 37.5764L345.212 36.3642L354.909 36.9703L355.515 39.3948L365.212 42.4255L380.969 53.9419L383.393 49.0929L386.424 63.0339L387.636 62.4277L388.242 54.5481L384.606 39.3948L377.333 24.2416L375.515 25.4539L377.939 29.0906L373.696 24.8477L370.06 23.6355L371.272 27.2723L359.151 27.8784L346.424 24.2416L336.727 17.5742L326.424 19.3926L327.636 25.4539H325.818Z" fill="#476245"/>
<path d="M276.727 37.5764L275.515 58.791L277.333 68.489L275.515 70.9135L278.545 69.7013L277.333 72.1258L278.545 72.7319L279.757 71.5197L278.545 67.8829L280.363 66.0645L284 68.489L282.788 64.8522L284.606 53.9419L287.636 42.4255L293.091 33.3335L290.666 24.8477L290.06 23.6355L285.212 24.8477L284 28.4845L279.151 32.7274L277.939 40.001L276.727 37.5764Z" fill="#476245"/>
<path d="M267.03 86.0668L270.06 80.6116L272.485 84.2484L270.06 84.8545L268.323 88.3296L268.444 88.5418L270.666 89.0974L271.272 86.6729L273.091 89.7035L269.454 90.3097L268.444 88.5418L268.242 88.4913L268.323 88.3296L267.03 86.0668Z" fill="#476245"/>
<path d="M179.151 544.906L180.363 546.725L183.394 550.362L187.03 550.968L189.454 554.604L190.06 553.392L187.636 541.27L183.394 540.664V542.482L179.151 544.906Z" fill="#476245"/>
<path fill-rule="evenodd" clip-rule="evenodd" d="M326.424 90.3143L330.061 88.4959L330.667 90.9205L328.243 93.345L328.849 95.1634L327.03 93.9511L325.212 95.7695L324 100.012L322.182 100.619L321.576 98.194L326.424 90.3143ZM331.879 102.437L336.727 95.1634L339.152 94.5572L338.546 96.9818H342.182V98.8001L331.273 107.892L329.455 107.286L331.879 102.437ZM367.636 96.9818L368.242 95.7695V101.225L370.061 103.043L367.636 110.317L371.273 112.135L373.091 130.925L370.667 132.137L370.061 136.986L368.849 133.956L368.242 130.319L371.273 124.864V120.621L367.636 114.559V96.9818ZM276.728 104.861L277.334 106.68H279.758V104.255H281.576L280.97 107.286L277.334 109.71V116.378L276.121 113.953L274.909 115.166L276.728 104.861ZM248.849 117.59L254.303 115.772L251.273 121.833L246.425 123.651L241.576 128.5L237.94 127.894L241.576 123.651L227.031 126.076L228.243 124.864L227.031 123.045L234.909 121.227L234.303 123.651L240.364 123.045L241.576 120.621L243.394 121.227L248.849 117.59ZM341.576 118.802L348.243 119.409L351.273 117.59L349.455 116.378L353.697 117.59L350.061 124.258H344.606L339.152 124.864V127.894L336.121 130.925L338.546 131.531L334.909 132.137L334.303 129.107L331.879 130.925L327.637 128.5L329.455 129.107L330.061 127.288L331.273 128.5V125.47L327.637 122.439L328.243 118.802L328.849 122.439L332.485 123.651L336.121 122.439L337.333 118.802H341.576ZM278.546 148.503L275.515 147.897L272.485 133.956L273.091 124.258L274.909 127.894L275.515 117.59L277.334 118.802L277.94 116.984L279.758 141.835L284 148.503H286.424L291.273 154.564L294.303 153.958L295.515 155.776L310.061 153.352L319.758 153.958L328.849 148.503L325.818 154.564L322.788 153.958L325.818 157.595L326.424 154.564L334.909 150.927L322.788 161.838L310.061 167.899L309.455 169.111L300.97 167.899L282.182 157.595L277.334 152.139L278.546 152.746V149.715L277.334 150.321L278.546 148.503L291.273 158.201L305.212 163.05L310.667 161.838L311.273 158.201L317.94 158.807L315.515 154.564L297.94 157.595L291.273 155.776L280.364 146.684L278.546 141.229L275.515 138.805V134.562L274.909 141.835L278.546 148.503ZM269.455 140.017L268.849 120.015L269.455 132.137L270.667 131.531L271.879 133.956L270.061 140.623L269.455 140.017ZM194.909 140.623L205.819 141.229L207.637 138.199L211.273 137.592L212.485 135.774L210.667 135.168L212.485 134.561L222.788 135.167L223.394 140.623H221.576V143.654L217.94 138.199L216.122 140.017L216.728 146.078L213.091 145.472L212.485 143.653L213.091 140.623L200.97 143.653L194.909 140.623ZM181.576 170.323L185.818 167.898L190.061 167.899V172.142L185.213 180.021L183.394 187.294L178.545 194.568L183.394 181.84L181.576 170.323ZM269.455 218.208L267.031 206.691L260.364 194.569L260.969 191.537L267.636 195.174L268.242 197.599L270.061 201.236L268.849 206.691L270.667 207.297L270.061 210.328L273.697 212.146V213.965L276.121 213.359L276.728 215.177L282.182 205.479L285.212 204.267L288.849 206.085L288.243 204.267L290.06 204.266L290.666 207.297L300.363 208.509L303.394 210.328H319.152L309.455 211.54L317.333 212.752L318.546 211.54L319.758 213.965H314.303L314.909 215.783L316.121 214.571L314.909 218.814H318.546L316.727 216.389L319.152 215.783L317.94 216.995L322.788 218.208L317.333 220.632H325.212L326.424 223.057L299.152 226.087L279.757 226.087L278.545 223.662L276.727 224.268L274.303 220.632L271.273 221.238L269.455 218.208ZM591.272 207.297L594.303 203.054L591.272 194.569L594.303 192.144L594.909 195.781L599.151 200.63L596.727 203.66V207.297L592.484 212.752L591.878 210.934L591.272 207.297ZM593.091 216.389L597.333 211.54H599.757L599.151 215.783L596.121 217.601L596.727 219.42H593.091V216.389ZM154.303 264.273L152.485 273.971L150.667 261.848L154.303 264.273ZM165.213 273.971L161.576 271.547L159.152 272.153L157.334 278.82V269.122L154.909 264.879L165.212 267.91L166.425 272.153L165.213 273.971ZM8.24316 504.3V500.057L10.6674 496.421L16.728 494.602V492.784L17.9401 493.996L20.9704 492.784L18.5462 496.421L17.3341 499.451L14.9098 500.057L14.3038 504.3L10.6674 503.694L10.0613 505.513L9.45528 503.088L8.24316 504.3ZM125.213 544.305L127.031 541.274L130.061 540.668L131.273 542.487L134.91 539.456H139.152L136.728 537.638L140.364 536.425L142.182 540.062L140.97 541.88L139.758 544.911L139.152 546.729L135.516 546.123L129.455 548.548L130.667 550.972H127.637L128.243 552.185L124.607 550.972L127.637 547.942L125.213 544.305ZM151.879 541.88L153.697 539.456L156.121 540.061L159.758 541.88L156.727 543.092L157.939 558.852L154.303 564.307L153.697 562.489L151.273 564.307L148.849 563.095V565.519L145.819 560.064L147.031 566.732L144 566.126L142.182 567.338L142.788 563.701L143.394 560.67L145.213 561.883L145.819 556.427L150.667 555.821L151.273 552.791L154.91 545.517L151.879 541.88Z" fill="#715926"/>
<path d="M307.031 54.5508L308.849 59.3998L310.061 62.4304L312.485 61.8243L311.879 50.914L311.273 55.1569L310.061 52.7324L309.455 54.5508H307.031Z" fill="#9A6D49"/>
<path d="M262.788 89.1001L261.575 87.888L256.121 96.9799L251.272 98.1922L248.848 101.223L240.363 104.86L236.727 105.466L234.909 103.647L234.303 105.466L231.879 104.86V106.678H227.636L226.424 111.527L229.454 112.133V115.164H216.727L210.06 121.225L204.606 121.831L205.212 124.256L214.909 127.893L220.363 124.862V123.044L213.697 120.619H225.818L219.757 118.195L228.848 118.801L231.879 117.588H227.03L228.242 116.376L237.333 115.164H245.818L242.788 115.77L244 117.588L247.031 116.376V113.952L247.031 111.527L253.697 107.284H260.364L260.97 104.254L263.394 103.647L261.576 101.829L265.818 87.2819L264.606 88.494L263.394 87.2817L262.788 89.1001Z" fill="#9A6D49"/>
<path d="M368.242 92.737L368.242 94.5554V95.7677L368.243 101.223L370.061 103.041L367.637 110.315L371.272 112.133H373.09L374.909 124.862H378.545L380.363 133.954L378.545 141.227L379.757 145.47L385.212 146.076L387.03 143.652L416.121 140.015L430.061 134.56L434.303 129.105L436.121 122.437L403.999 125.468L397.333 124.862L393.696 122.437L392.484 123.65L383.999 115.164L382.181 116.376L380.969 109.709L378.545 109.102V113.952L376.727 114.558L377.333 109.102L371.272 98.7983H368.848L368.242 92.737Z" fill="#9A6D49"/>
<path d="M354.303 96.98L353.09 100.011L356.121 103.041L351.878 103.647L353.697 110.921L357.333 111.527L359.758 108.496L358.546 98.7982L354.909 96.98H354.303Z" fill="#9A6D49"/>
<path d="M292.485 105.466L287.636 106.072L285.818 112.739L289.454 118.801L287.636 121.831L293.091 129.711L291.878 131.529L294.909 133.348L296.121 126.68L298.545 133.348L300.363 133.954L299.151 135.772L300.969 136.378L301.575 140.621H302.788L301.575 137.591L304.606 136.378L305.818 141.227L308.848 142.44L310.666 141.227L313.091 135.166L307.636 133.348L309.454 132.742L308.242 129.711H310.06L307.636 127.286L310.06 122.437L307.03 119.407L308.242 117.588L305.818 116.982V118.801L303.394 119.407L300.969 113.952L297.333 114.558L299.757 111.527H303.394L298.546 107.284L294.909 107.89L294.303 109.708L291.273 106.678L292.485 105.466Z" fill="#9A6D49"/>
<path d="M453.09 117.588L450.666 119.407L449.455 125.468L445.212 130.923L448.242 133.954L451.273 131.529L460.97 130.317L465.818 128.498L471.879 120.619L469.454 108.496L467.636 113.345L460.969 118.194L453.09 117.588Z" fill="#9A6D49"/>
<path d="M514.302 129.105L507.636 132.742L507.03 138.803H509.454V145.47H507.03L506.424 146.682L513.091 148.501L516.727 152.137L526.424 153.35L535.514 142.44L528.848 140.015L527.03 136.378L514.302 129.105Z" fill="#9A6D49"/>
<path d="M166.425 176.383L167.637 183.656L170.061 183.05L171.273 178.201L169.455 179.413L166.425 176.383Z" fill="#9A6D49"/>
<path d="M583.394 198.203L582.788 200.628L584.606 204.265L588.242 203.052V199.416L583.394 198.203Z" fill="#9A6D49"/>
<path d="M344.606 203.053L336.727 206.083L330.06 208.508L329.454 210.326L331.272 210.932H329.454L328.242 217.6H324L325.818 218.206L325.212 220.63L326.424 223.055H339.152V220.63L348.243 216.387L351.273 208.507L349.455 207.295L348.849 208.507L346.424 207.901L347.031 203.052L344.606 203.053Z" fill="#9A6D49"/>
<path d="M278.544 69.703L275.514 70.9153L270.665 76.9766L270.059 80.6133L272.483 84.2501L270.059 84.8562L268.241 88.493L270.665 89.0991L271.271 86.6746H275.514V83.0378L277.938 85.4624V83.0378L281.574 82.4317L280.968 80.6133L282.786 80.0072V79.4011L278.544 72.7337L277.332 72.1275L278.544 69.703Z" fill="#8D6F4F"/>
<path d="M294.302 95.7666L292.483 96.9788L293.089 100.009L291.271 99.4033L290.059 103.04L288.241 102.434L287.635 106.071L292.483 105.465L291.271 106.677L294.302 109.708L294.908 107.889L298.544 107.283L294.302 95.7666Z" fill="#8D6F4F"/>
<path d="M188.241 127.891L187.029 126.679L187.635 131.528L191.271 136.983L193.696 133.953L202.787 131.528V127.285L201.575 123.648L199.15 120.618L196.12 123.042L194.302 121.83L190.665 123.648L188.241 127.891Z" fill="#8D6F4F"/>
<path d="M499.756 143.651L497.938 143.045L496.725 144.257L510.059 150.318L508.847 152.743L513.695 153.955L515.513 152.137L523.392 155.773L525.21 154.561L526.422 156.379V153.349L516.725 152.137L513.089 148.5L506.422 146.681L507.028 145.469L502.18 144.257L500.968 141.832L499.756 143.651Z" fill="#8D6F4F"/>
<path d="M169.453 173.351L168.241 172.139L169.453 167.896L177.332 169.108L178.544 170.32L173.696 171.533L172.484 173.957L170.665 172.139L169.453 173.351L171.272 177.594H173.09L171.878 176.382L174.302 172.745L176.726 173.957L174.908 176.988L173.696 176.382L176.12 180.018L172.484 186.08L173.696 187.292H169.453L173.696 188.504L174.908 190.929H169.453L170.059 194.566L163.999 192.747V190.929L167.029 189.717L167.635 183.655L170.059 183.049L171.272 178.2L169.453 179.412L166.423 176.382L168.847 175.776L169.453 173.351Z" fill="#8D6F4F"/>
<path d="M567.028 186.686L571.271 191.535L582.786 200.627L583.392 198.202L588.24 199.415V203.051L584.604 204.264L591.271 207.294L594.301 203.051L591.271 194.566L594.301 192.141L594.907 195.778L600.968 200.021L603.998 199.415V201.233L605.21 197.596L600.362 193.353L598.543 181.231L596.725 181.837L594.301 187.292L588.846 192.141L582.786 185.474L580.968 176.382L573.089 175.776L567.028 180.625V186.686Z" fill="#8D6F4F"/>
<path d="M172.484 253.36L173.696 261.846L174.908 276.999L179.756 278.818L181.575 275.787L177.332 269.726V267.301L180.362 265.483L181.575 257.603L180.362 258.209L181.575 250.329L180.362 245.48L173.696 249.117L172.484 253.36Z" fill="#8D6F4F"/>
<path d="M254.302 284.879L253.09 287.303L262.786 293.971L267.635 294.577L266.423 280.03L260.362 271.544L258.544 270.938L259.756 273.968L257.938 275.181L260.362 274.575L260.968 277.605L258.544 278.211L259.756 280.03L256.726 281.848V286.697L254.302 284.879Z" fill="#8D6F4F"/>
<path d="M150.666 538.847L146.423 540.665L147.635 543.09L145.211 544.908L140.969 541.877L139.756 544.908L139.15 555.212L140.969 557.031H142.787L143.393 551.576L143.999 553.394L151.272 552.788L154.908 545.514L151.878 541.877L150.666 538.847Z" fill="#8D6F4F"/>
<path d="M311.878 144.266L311.272 146.69L316.12 147.902V142.447L313.696 136.992L313.09 146.69L311.878 144.266Z" fill="#08151A"/>
<path d="M259.757 264.279L257.333 270.34L258.545 270.946L260.363 271.553L259.757 267.31L262.181 266.097L260.969 264.885H263.393L263.999 261.248L266.423 263.067L267.636 261.855L264.605 258.218V249.126L267.636 247.914L265.817 244.277H267.636L266.423 242.458L269.454 238.822L267.636 237.003L269.454 220.638V218.213L267.029 206.697L260.363 194.574L260.969 191.544L254.908 187.301L256.726 181.239L259.151 183.664L260.363 180.633L253.696 176.996L254.908 175.178L253.696 172.147L251.272 173.36V176.996L253.09 177.603H251.272V181.846L248.242 179.421V177.603H250.666L249.454 175.178L245.817 176.39V192.15L251.272 196.393V208.515L254.302 210.94L253.09 212.152L256.12 214.576L256.726 218.819L260.969 218.213L262.181 213.97V220.638L256.726 221.244L260.363 222.456L259.757 224.275L256.12 223.062L257.939 225.487L256.726 228.517L258.545 229.73L256.12 230.336V232.154L251.272 232.76L253.696 233.973L251.272 234.579L253.09 235.791L251.272 237.609V264.885H254.908L253.09 260.036H255.514L256.726 264.885L259.757 264.279Z" fill="#08151A"/>
<path d="M299.151 226.093H279.757L277.939 227.911H273.09L271.878 230.942L273.696 243.065L275.514 238.822L274.302 235.791H276.12L277.332 232.76L276.12 230.336L278.545 231.548V235.791L280.363 230.942L281.575 235.185L285.211 235.791L283.999 238.822L287.635 237.609L289.454 238.822V242.458H295.514L294.908 232.76L296.726 229.124L298.545 231.548L299.757 227.911L300.363 236.397L298.545 237.003H300.363L300.969 240.64L303.999 236.397V239.428L310.06 237.609L311.272 233.366L314.302 232.76L312.484 232.154L314.302 227.911L318.544 226.093L319.151 229.124H316.726L316.12 230.942L316.726 236.397L314.908 235.791V238.215L316.726 237.003V246.701L322.181 246.095V252.763L326.423 255.187L325.211 257.005L326.423 260.036L324.605 260.642L323.999 258.218V261.248H326.423L328.848 251.55L329.454 254.581L330.666 253.369L327.635 238.215V232.154L329.454 230.942H325.817L322.181 226.699L327.635 225.487L327.029 223.062H326.423L299.151 226.093Z" fill="#08151A"/>
<path fill-rule="evenodd" clip-rule="evenodd" d="M119.152 424.292L115.516 422.473L116.728 413.988L117.94 418.837L121.576 421.867L119.152 424.292ZM74.9097 452.174L83.3945 449.749L82.7884 454.598L84.6066 453.992L86.4248 457.629L85.2127 461.266L87.6369 466.115V469.751L85.2127 470.964L83.3945 468.539L81.5763 474.6L79.1521 472.782L74.9097 474.6L69.4551 471.57L70.6673 475.813L69.4551 477.631L67.0309 477.025V474.6H64.6067L65.8188 480.662H64.0006L64.6067 478.843L59.1521 478.237L58.5461 483.086L51.8794 480.662L54.9097 487.329L58.5461 488.541L57.94 495.815L55.5158 493.997L56.1218 490.966L54.3036 492.178L50.0612 485.511L46.4249 486.117L45.2128 483.692L41.5764 483.086L40.3643 484.299L37.334 483.086L47.637 480.662L50.6673 483.086L50.0612 478.237L54.3036 478.843L51.2733 475.207L47.637 476.419L48.8491 472.176L54.9097 464.902L68.243 456.417L80.9703 457.023L74.9097 452.174ZM54.9097 457.629L46.4249 458.235V454.598L62.7885 452.78L54.3036 455.811L54.9097 457.629ZM148.849 476.419V474.6L153.697 473.388L149.455 472.782L153.697 469.751L156.122 470.358L158.546 472.176L161.576 470.358L165.819 470.964L166.425 473.388L170.061 472.782L171.879 477.025L173.697 475.813L174.303 479.45L179.152 478.237L181.576 482.48L184.606 483.086L184 486.723L181.576 486.117L182.788 488.541H180.97L184 493.391L182.788 495.209L179.758 493.391L180.97 505.513H178.546L177.94 500.058L174.303 501.27L167.637 498.846L162.182 500.058L160.97 498.846L162.788 497.633L158.546 499.452L156.122 497.633L155.516 500.058L154.303 498.846V497.027H152.485L154.91 492.784L152.485 491.572L156.122 489.148L154.303 486.723L159.758 482.48V480.662L159.152 478.843L157.334 479.45L158.546 475.813L152.485 476.419L154.303 478.237L151.273 475.813L148.849 476.419ZM154.91 517.03L150.667 520.06L148.849 517.03L150.061 513.393H148.243L151.879 510.362L150.061 508.544L152.485 500.664L161.576 501.27L159.758 503.089L154.91 501.876L152.485 504.907L155.516 506.119L153.091 507.938V509.756L156.122 510.362L155.516 512.18L153.091 510.968L154.91 517.03ZM174.303 507.938L164.606 506.725L165.213 504.907L161.576 505.513L163.394 504.301L162.788 502.482L171.273 500.664L175.516 501.876L177.334 505.513L174.303 507.938ZM169.455 513.393L163.394 512.787L162.182 510.968L173.697 510.362L174.909 508.544L179.152 512.787L176.122 514.605L171.879 515.211L169.455 513.393Z" fill="#1B2252"/>
<path d="M527.635 119.414L526.423 124.263L530.059 126.081L533.09 124.869L533.696 121.838L530.059 119.414L528.847 120.626L527.635 119.414Z" fill="#4D4B6B"/>
<path d="M180.363 258.217L181.575 257.611L182.787 259.43L183.999 251.55L182.181 252.156L181.575 250.338L180.363 258.217Z" fill="#4D4B6B"/>
<path d="M172.484 417.629V420.054L173.09 423.691L176.727 424.903L180.969 423.691L179.757 420.66L172.484 417.629Z" fill="#4D4B6B"/>
<path d="M72.4845 450.966L62.7875 452.785L54.3027 455.815L54.9087 457.634L60.3633 455.815L60.9693 457.634L68.2421 456.422L80.9693 457.028L74.9087 452.179L72.4845 450.966Z" fill="#4D4B6B"/>
<path d="M29.4542 482.485L34.9088 484.303L37.333 483.091L47.636 480.667L50.6663 483.091L50.0603 478.242L54.3027 478.848L51.2724 475.212L47.636 476.424L48.8481 472.181L42.1815 471.575L31.2724 480.667L33.6967 482.485H29.4542Z" fill="#4D4B6B"/>
<path d="M155.515 500.063L154.302 498.851L152.484 500.669L161.575 501.275L159.757 503.093L154.909 501.881L152.484 504.912L155.515 506.124L153.09 507.942V509.761L156.121 510.367L155.515 512.185L153.09 510.973L154.909 517.034L159.757 517.641V521.277L163.393 523.096L167.03 515.822L166.424 514.004L169.454 513.398L163.393 512.792L162.181 510.973L173.696 510.367L174.909 508.549L174.302 507.942L164.605 506.73L165.212 504.912L161.575 505.518L163.393 504.306L162.787 502.487L171.272 500.669L175.515 501.881L177.333 505.518H178.545L177.939 500.063L174.302 501.275L167.636 498.851L162.181 500.063L160.969 498.851L162.787 497.638L158.545 499.457L156.121 497.638L155.515 500.063Z" fill="#4D4B6B"/>
<path d="M16.727 506.124H14.9088L16.1209 509.155L13.6967 512.792H11.2725L16.727 519.459L17.3331 512.185L16.727 506.124Z" fill="#4D4B6B"/>
<path d="M180.363 548.553L176.121 549.159L162.787 550.978L161.575 557.039L159.151 555.827L159.757 558.251L161.575 562.494H164.605L171.272 558.251H178.545L185.212 557.039L183.393 555.221L184.605 554.614L183.393 550.372L180.363 546.735V548.553Z" fill="#4D4B6B"/>
<path d="M300.969 6.06129L292.484 15.1532L305.212 19.3961L320.363 9.09193L322.181 12.7287H320.363L321.575 14.5471L317.333 24.2452L326.424 26.6697L325.818 25.4574H327.636L326.424 19.3961L336.727 17.5777L346.424 24.2452L359.151 27.8819L371.272 27.2758L370.06 23.639L373.696 24.8513L359.757 9.69806L342.787 0.606129L316.727 0L315.515 1.21226L320.363 1.81839L311.272 2.42452L300.969 6.06129Z" fill="#6C9875"/>
<path d="M305.211 19.3979L292.483 15.155L290.059 15.7612L290.665 24.8531L293.089 33.3389L287.635 42.4308L284.604 53.9473L290.059 49.0982L299.756 44.8553L308.847 59.4024L307.029 54.5534H309.453L310.059 52.735L311.271 55.1595L311.877 50.9166L313.089 38.7941L322.786 35.7634L340.968 32.1266L326.423 26.6715L317.332 24.247L321.574 14.5489L320.362 12.7305H322.18L320.362 9.09374L305.211 19.3979Z" fill="#FFE600"/>
<path d="M265.817 78.7986L263.392 83.0415L261.574 87.8905L262.786 89.1027L263.392 87.2844L264.605 88.4966L267.029 86.0721L270.059 80.6169L270.665 76.9802L269.453 75.7679L267.029 80.0108L265.817 78.7986Z" fill="#FFE600"/>
<path d="M356.726 192.751L355.513 193.963L344.604 203.055H347.029L346.423 207.904L348.847 208.51L349.453 207.298L351.271 208.51L351.877 204.267L353.089 204.873L354.301 200.63L356.12 201.237V196.388H357.938L356.726 192.751Z" fill="#FFE600"/>
<path d="M327.635 232.149V238.21L329.453 236.998L328.847 240.029L332.483 239.423L330.059 235.786V230.937H329.453L327.635 232.149Z" fill="#FFE600"/>
<path d="M48.2415 488.536L46.4233 486.112L45.2112 483.687L41.5749 483.081L40.3627 488.536L47.6355 495.204L48.8476 498.841L48.2415 488.536Z" fill="#717296"/>
<path d="M14.9083 506.114L8.84766 508.539L10.6658 512.175L11.2719 512.782H13.6961L16.1204 509.145L14.9083 506.114Z" fill="#717296"/>
<path d="M45.2112 526.723V528.541L54.3021 526.116L62.7869 519.449L54.3021 518.843L51.2718 515.812L49.4536 516.418L51.2718 521.874L45.2112 526.723Z" fill="#717296"/>
<path d="M302.181 162.442L305.212 163.048L310.666 161.836L311.273 158.199H305.818L304.606 160.017L301.575 159.411L302.181 162.442Z" fill="#08151A"/>
<path d="M55.5153 506.723L48.8487 503.086L45.8184 510.966L54.3032 509.147L55.5153 506.723Z" fill="#08151A"/>
<path d="M337.939 91.5266L333.09 88.4959L330.06 95.7695L334.302 96.3756L337.939 91.5266Z" fill="#202E19"/>
<path d="M355.515 178.809L353.696 177.597L351.878 181.84L346.424 184.264L345.212 187.295L351.878 183.658L355.515 178.809Z" fill="#202E19"/>
<path d="M349.454 195.781L348.242 194.568L339.757 200.024L338.545 203.054H340.969L342.181 200.024L343.393 201.236L346.424 199.418L349.454 195.781Z" fill="#202E19"/>
<path d="M300.363 260.637L297.939 262.455L294.909 266.092L296.121 269.728L294.909 272.759L292.484 274.578L293.697 275.79L297.333 273.971L296.727 277.608L293.697 277.002L294.303 278.82H299.151L300.363 272.153L304.606 270.335L304 263.667L300.363 266.092V260.637Z" fill="#202E19"/>
<path d="M213.09 180.627L209.454 178.808L202.787 181.233L200.969 183.657H191.272V186.688L189.454 186.082L186.424 190.931L187.03 219.419L191.878 232.754L196.727 235.178V233.36H205.212L216.727 230.329L224 230.935L234.909 225.48L237.939 218.207L234.303 202.447L227.03 188.506L224 187.294V184.263L217.333 180.021L213.09 180.627Z" fill="#1B242B"/>
<path d="M290.666 278.82L294.303 278.82L293.697 277.002L296.727 277.608L297.333 273.971L293.697 275.79L292.484 274.578L294.909 272.759L296.121 269.728L294.909 266.092L297.939 262.455L294.908 263.666L293.696 261.848L290.666 267.303L289.454 265.485L287.03 268.515L284.605 267.303L285.818 270.94L283.999 270.334L284.605 278.213L286.424 277.607L287.03 273.971V277.001L288.242 274.577H290.666V278.82Z" fill="#1B242B"/>
<path d="M217.939 307.912L216.727 302.457L212.484 304.881V310.942L216.727 310.336L217.939 307.912Z" fill="#B2C0C7"/>
<path d="M174.909 527.937L165.818 523.694L160.97 526.119L161.576 528.544H169.455L167.636 530.362L171.273 531.574L174.909 529.756V527.937Z" fill="#2A4A36"/>
<path d="M195.514 303.672L193.696 304.884V306.703L206.424 316.401L207.03 307.915L204.605 307.309L205.817 297.611L201.575 295.792L196.727 298.823L197.939 301.854L196.121 304.884L195.514 303.672Z" fill="#8D6F4F"/>
<path d="M223.998 253.363H222.18L218.544 255.181V268.516L220.362 266.092L219.756 263.061L223.998 264.879V253.363Z" fill="#08151A"/>
<path d="M258.544 299.43L256.726 298.824L256.12 307.31L260.363 304.885L257.938 302.461L258.544 299.43Z" fill="#717296"/>
</g>
<defs>
<filter id="filter0_d_73_4976" x="0" y="0" width="609.21" height="578.973" filterUnits="userSpaceOnUse" color-interpolation-filters="sRGB">
<feFlood flood-opacity="0" result="BackgroundImageFix"/>
<feColorMatrix in="SourceAlpha" type="matrix" values="0 0 0 0 0 0 0 0 0 0 0 0 0 0 0 0 0 0 127 0" result="hardAlpha"/>
<feOffset dy="4"/>
<feGaussianBlur stdDeviation="2"/>
<feComposite in2="hardAlpha" operator="out"/>
<feColorMatrix type="matrix" values="0 0 0 0 0 0 0 0 0 0 0 0 0 0 0 0 0 0 0.25 0"/>
<feBlend mode="normal" in2="BackgroundImageFix" result="effect1_dropShadow_73_4976"/>
<feBlend mode="normal" in="SourceGraphic" in2="effect1_dropShadow_73_4976" result="shape"/>
</filter>
</defs>
</svg>
