<svg width="48" height="47" viewBox="0 0 48 47" fill="none" xmlns="http://www.w3.org/2000/svg">
<path fill-rule="evenodd" clip-rule="evenodd" d="M2.92969 23.3001C2.92969 14.9234 2.92969 10.7351 4.92578 7.71833C5.81713 6.3712 6.97081 5.21752 8.31793 4.32617C11.3347 2.33008 15.523 2.33008 23.8997 2.33008C32.2764 2.33008 36.4647 2.33008 39.4814 4.32617C40.8286 5.21752 41.9822 6.3712 42.8736 7.71833C44.8697 10.7351 44.8697 14.9234 44.8697 23.3V23.3001V23.3001C44.8697 31.6768 44.8697 35.8651 42.8736 38.8818C41.9822 40.229 40.8286 41.3826 39.4814 42.274C36.4647 44.2701 32.2764 44.2701 23.8997 44.2701H23.8997H23.8996C15.523 44.2701 11.3347 44.2701 8.31793 42.274C6.97081 41.3826 5.81713 40.229 4.92578 38.8818C2.92969 35.8651 2.92969 31.6768 2.92969 23.3001ZM34.7565 23.301C34.7565 29.2968 29.8959 34.1574 23.9 34.1574C17.9042 34.1574 13.0436 29.2968 13.0436 23.301C13.0436 17.3052 17.9042 12.4446 23.9 12.4446C29.8959 12.4446 34.7565 17.3052 34.7565 23.301ZM23.9 30.4844C27.8673 30.4844 31.0834 27.2683 31.0834 23.301C31.0834 19.3337 27.8673 16.1176 23.9 16.1176C19.9328 16.1176 16.7166 19.3337 16.7166 23.301C16.7166 27.2683 19.9328 30.4844 23.9 30.4844ZM35.1857 14.4493C36.5945 14.4493 37.7366 13.3072 37.7366 11.8984C37.7366 10.4895 36.5945 9.34743 35.1857 9.34743C33.7768 9.34743 32.6347 10.4895 32.6347 11.8984C32.6347 13.3072 33.7768 14.4493 35.1857 14.4493Z" fill="#FFE600"/>
</svg>
