<svg width="77" height="78" viewBox="0 0 77 78" fill="none" xmlns="http://www.w3.org/2000/svg">
<path d="M41.106 77.4204C60.6426 77.4204 76.6271 61.4359 76.6271 41.8994V36.3495C76.6271 16.813 60.6425 0.828514 41.106 0.828514H35.5562C16.0196 0.828514 0.0351562 16.813 0.0351562 36.3495V41.8994C0.0351562 61.4359 16.0196 77.4204 35.5562 77.4204H41.106ZM39.0294 58.1698L38.5352 58.1704C34.4199 58.1704 30.3046 58.0344 30.3046 58.0344C24.2939 58.0344 19.4212 53.1617 19.4212 47.151C19.4212 47.151 19.2963 43.6173 19.2858 39.8244L19.2852 39.3285C19.2852 35.0818 19.4212 30.6899 19.4212 30.6899C19.4212 24.6791 24.2939 19.8064 30.3046 19.8064C30.3046 19.8064 34.1523 19.6704 38.1271 19.6704C42.3738 19.6704 46.9018 19.8064 46.9018 19.8064C52.9125 19.8064 57.6491 24.543 57.6491 30.5538C57.6491 30.5538 57.7852 34.8963 57.7852 39.0564L57.7827 40.0327C57.7643 43.7652 57.649 47.2871 57.649 47.2871C57.649 53.2978 52.9124 58.0344 46.9017 58.0344C46.9017 58.0344 42.9837 58.1597 39.0294 58.1698ZM38.5352 54.7055C41.9098 54.7055 46.2365 54.5939 46.2365 54.5939C51.1654 54.5939 54.2086 51.5507 54.2086 46.6219C54.2086 46.6219 54.3202 42.369 54.3202 39.0321C54.3202 35.6208 54.2086 31.2192 54.2086 31.2192C54.2086 26.2904 51.1654 23.2472 46.2365 23.2472C46.2365 23.2472 42.4102 23.1534 39.0902 23.1378L38.2005 23.1356C34.9412 23.1356 30.9698 23.2472 30.9698 23.2472C26.0411 23.2472 22.8618 26.4265 22.8618 31.3552C22.8618 31.3552 22.7502 35.7729 22.7502 39.2552C22.7502 42.5145 22.8618 46.6219 22.8618 46.6219C22.8618 51.5507 26.0411 54.5939 30.9698 54.5939C30.9698 54.5939 35.1606 54.7055 38.5352 54.7055ZM38.5351 48.7814C33.089 48.7814 28.6742 44.3666 28.6742 38.9205C28.6742 33.4745 33.089 29.0596 38.5351 29.0596C43.9811 29.0596 48.396 33.4745 48.396 38.9205C48.396 44.3666 43.9811 48.7814 38.5351 48.7814ZM38.5351 45.3372C42.0789 45.3372 44.9518 42.4644 44.9518 38.9205C44.9518 35.3767 42.0789 32.5039 38.5351 32.5039C34.9913 32.5039 32.1184 35.3767 32.1184 38.9205C32.1184 42.4644 34.9912 45.3372 38.5351 45.3372ZM48.8678 51.5179C47.552 51.5179 46.4852 50.4458 46.4852 49.1234C46.4852 47.801 47.552 46.7291 48.8678 46.7291C50.1837 46.7291 51.2504 47.801 51.2504 49.1234C51.2504 50.4459 50.1837 51.5179 48.8678 51.5179Z" fill="black"/>
</svg>
