<svg width="41" height="41" viewBox="0 0 41 41" fill="none" xmlns="http://www.w3.org/2000/svg">
<path fill-rule="evenodd" clip-rule="evenodd" d="M12.0047 0.12133C14.161 0.0220599 14.8486 0 20.3415 0C25.8344 0 26.5219 0.0238982 28.6765 0.12133C30.831 0.218761 32.3016 0.562528 33.5885 1.06072C34.936 1.56993 36.1584 2.36593 37.1695 3.39539C38.199 4.40463 38.9931 5.62528 39.5005 6.97462C40.0006 8.26144 40.3425 9.73211 40.4417 11.8829C40.541 14.043 40.5631 14.7305 40.5631 20.2216C40.5631 25.7145 40.5392 26.4021 40.4417 28.5584C40.3443 30.7093 40.0006 32.1799 39.5005 33.4668C38.9931 34.8163 38.1977 36.0389 37.1695 37.0497C36.1584 38.0791 34.936 38.8733 33.5885 39.3807C32.3016 39.8807 30.831 40.2226 28.6801 40.3219C26.5219 40.4211 25.8344 40.4432 20.3415 40.4432C14.8486 40.4432 14.161 40.4193 12.0047 40.3219C9.85382 40.2244 8.38316 39.8807 7.09633 39.3807C5.74685 38.8732 4.52418 38.0777 3.51343 37.0497C2.48466 36.0398 1.68855 34.8177 1.18059 33.4686C0.682401 32.1818 0.340472 30.7111 0.241203 28.5603C0.141933 26.4002 0.119873 25.7127 0.119873 20.2216C0.119873 14.7287 0.143771 14.0411 0.241203 11.8866C0.338634 9.73211 0.682401 8.26144 1.18059 6.97462C1.6893 5.62543 2.48602 4.40337 3.51526 3.39355C4.52458 2.36501 5.74602 1.56891 7.09449 1.06072C8.38132 0.562528 9.85198 0.220599 12.0028 0.12133H12.0047ZM28.5128 3.76122C26.3804 3.66379 25.7406 3.64357 20.3415 3.64357C14.9423 3.64357 14.3026 3.66379 12.1701 3.76122C10.1976 3.8513 9.12768 4.18036 8.41441 4.45794C7.47134 4.82561 6.79668 5.26129 6.08892 5.96905C5.41802 6.62175 4.90169 7.41633 4.57782 8.29453C4.30023 9.0078 3.97117 10.0777 3.88109 12.0502C3.78366 14.1827 3.76344 14.8224 3.76344 20.2216C3.76344 25.6208 3.78366 26.2605 3.88109 28.393C3.97117 30.3655 4.30023 31.4354 4.57782 32.1487C4.90136 33.0256 5.41793 33.8215 6.08892 34.4742C6.74153 35.1451 7.53752 35.6617 8.41441 35.9853C9.12768 36.2629 10.1976 36.5919 12.1701 36.682C14.3026 36.7794 14.9405 36.7996 20.3415 36.7996C25.7425 36.7996 26.3804 36.7794 28.5128 36.682C30.4854 36.5919 31.5553 36.2629 32.2685 35.9853C33.2116 35.6176 33.8863 35.1819 34.594 34.4742C35.265 33.8215 35.7816 33.0256 36.1051 32.1487C36.3827 31.4354 36.7118 30.3655 36.8019 28.393C36.8993 26.2605 36.9195 25.6208 36.9195 20.2216C36.9195 14.8224 36.8993 14.1827 36.8019 12.0502C36.7118 10.0777 36.3827 9.0078 36.1051 8.29453C35.7375 7.35147 35.3018 6.67681 34.594 5.96905C33.9413 5.29819 33.1467 4.78188 32.2685 4.45794C31.5553 4.18036 30.4854 3.8513 28.5128 3.76122ZM17.7586 26.4554C19.2011 27.0558 20.8073 27.1369 22.3028 26.6847C23.7984 26.2324 25.0906 25.275 25.9587 23.9759C26.8268 22.6768 27.2169 21.1166 27.0625 19.5618C26.9081 18.007 26.2186 16.5541 25.1119 15.4511C24.4065 14.7461 23.5534 14.2062 22.6143 13.8705C21.6751 13.5347 20.6732 13.4113 19.6806 13.5092C18.688 13.6071 17.7295 13.9238 16.874 14.4366C16.0186 14.9494 15.2874 15.6455 14.7333 16.4748C14.1791 17.3041 13.8158 18.2459 13.6693 19.2325C13.5228 20.2191 13.5969 21.2259 13.8863 22.1804C14.1756 23.1349 14.673 24.0134 15.3426 24.7526C16.0121 25.4918 16.8373 26.0733 17.7586 26.4554ZM12.9918 12.872C13.957 11.9068 15.1028 11.1412 16.3639 10.6188C17.6249 10.0965 18.9765 9.82765 20.3415 9.82765C21.7064 9.82765 23.058 10.0965 24.3191 10.6188C25.5801 11.1412 26.7259 11.9068 27.6911 12.872C28.6563 13.8371 29.4219 14.983 29.9442 16.244C30.4666 17.5051 30.7354 18.8567 30.7354 20.2216C30.7354 21.5866 30.4666 22.9381 29.9442 24.1992C29.4219 25.4602 28.6563 26.6061 27.6911 27.5712C25.7419 29.5205 23.0981 30.6156 20.3415 30.6156C17.5848 30.6156 14.9411 29.5205 12.9918 27.5712C11.0426 25.622 9.94753 22.9783 9.94753 20.2216C9.94753 17.465 11.0426 14.8212 12.9918 12.872ZM33.0406 11.3756C33.2798 11.15 33.4713 10.8786 33.6037 10.5777C33.7362 10.2767 33.8069 9.95228 33.8117 9.62352C33.8165 9.29475 33.7552 8.96837 33.6316 8.66369C33.508 8.35901 33.3245 8.08223 33.092 7.84973C32.8595 7.61723 32.5828 7.43375 32.2781 7.31014C31.9734 7.18653 31.647 7.12531 31.3183 7.13011C30.9895 7.1349 30.665 7.20561 30.3641 7.33805C30.0631 7.47048 29.7918 7.66196 29.5662 7.90113C29.1274 8.36628 28.8872 8.98413 28.8965 9.62352C28.9058 10.2629 29.164 10.8735 29.6161 11.3256C30.0683 11.7778 30.6789 12.036 31.3183 12.0453C31.9576 12.0546 32.5755 11.8144 33.0406 11.3756Z" fill="white" fill-opacity="0.8"/>
</svg>
