<svg width="315" height="303" viewBox="0 0 315 303" fill="none" xmlns="http://www.w3.org/2000/svg">
<g filter="url(#filter0_d_81_18154)">
<path fill-rule="evenodd" clip-rule="evenodd" d="M147.134 42.7074L148.382 40.8093L149.942 41.1257L150.254 42.3911H153.685L155.245 41.1257L162.421 42.0747V53.7796L162.109 55.6777L161.485 58.5248L162.733 62.6374L157.117 58.2085L154.621 55.994L152.438 49.9834L153.373 49.0344L153.061 47.769L151.814 47.4526L149.942 43.9728H148.694L148.07 45.5545L147.446 43.3401L147.134 42.7074ZM238.855 44.9218H240.727L243.535 42.0747L246.343 41.442L248.527 42.7074L243.847 43.6564L250.087 43.3401L253.206 45.2382L257.262 44.9218V45.8709L259.134 46.1872L258.822 46.8199L262.254 47.1363L265.374 50.2998L265.062 51.2488L267.557 51.5652L270.365 55.045L269.117 59.7902L269.429 62.9537L268.181 64.8518L265.686 67.3826L262.254 69.2807L259.134 71.1788V72.4442L257.262 73.0769V74.6586L256.638 75.2913H254.766L253.83 74.0259L243.847 70.8624L238.231 68.0153L240.727 67.0662L243.847 62.9537L242.599 56.6267L241.975 54.0959L239.791 52.1979L237.296 50.2998H240.103L239.479 48.4017H240.415V47.4526H238.855V44.9218ZM225.128 54.0959L227.624 54.7286V52.5142L226.376 51.5652H229.184L229.496 54.4123L231.056 53.7796L232.304 55.994L232.928 62.321L232.304 65.4845L230.12 68.3316L231.056 69.2807L222.321 70.2297L224.504 67.3826L225.44 63.9028L226.064 57.2594L225.128 54.0959ZM88.1701 87.6289L85.6743 85.0981L85.0503 79.7202L85.6743 74.975L84.4264 74.6586V73.7096L83.8024 74.975L83.1785 73.3932L82.5545 74.0259L83.4904 68.648H80.9946V65.1681H82.2425L82.5545 63.9028L82.8665 65.1681L83.8024 64.8518L83.1785 61.0556L85.3623 63.2701L85.6743 61.0556L90.3539 56.3104L94.4096 54.4123H100.025L98.4654 55.3613L96.5935 56.9431L96.9055 57.8921L98.1534 57.5758L97.2175 66.1172L97.5294 68.648L99.4013 71.4951L101.273 73.3932L104.393 74.975L110.633 73.3932L110.321 74.975L109.385 75.924L113.752 78.7711L114.376 79.7202L113.752 80.0365L117.184 82.5673H119.68L118.12 80.9856L118.432 79.0875L117.184 77.1894L118.432 76.5567L119.056 74.0259L122.8 72.7605L126.855 74.975L127.167 72.4442L133.719 88.5779L137.463 93.0068L138.399 92.6905L138.711 93.6395L139.022 92.6905L141.518 95.5376V98.3848L144.326 101.232L142.454 100.599L144.638 103.446L144.014 105.344L140.894 103.446L139.958 104.395L139.022 103.13L138.711 101.865L135.279 99.9665L132.159 97.752L133.095 94.5886L134.343 95.854L134.967 94.2722L131.535 92.3741L132.159 91.4251L131.535 89.8433L130.287 90.476V92.3741L131.223 92.6905H130.287V94.9049L128.727 93.6395V92.6905H129.975L129.351 91.4251L127.479 92.0578V100.283L130.287 102.497V108.824L131.847 110.09L131.223 110.722L132.783 111.988L133.095 114.202L135.279 113.886L135.903 111.671V115.151L133.095 115.468L134.967 116.1L134.655 117.049L132.783 116.417L133.719 117.682L133.095 119.264L134.031 119.896L132.783 120.213V121.162L130.287 121.478L131.535 122.111L130.287 122.427L131.223 123.06L130.287 124.009V138.245H132.159L131.223 135.714H132.471L133.095 138.245L134.655 137.928L133.407 141.092L124.36 139.826L116.56 142.674L112.192 146.153L115.312 145.521L116.872 146.153L120.304 147.419H124.048L125.919 144.888L128.415 145.204L129.663 145.837L129.351 148.684L131.223 149.95L136.215 153.429L138.711 153.746L138.087 146.153L134.967 141.724L134.655 139.51L135.903 138.877L135.279 138.245H136.527L136.839 136.347L138.087 137.296L138.711 136.663L137.151 134.765V130.02L138.711 129.387L137.775 127.489H138.711L138.087 126.54L139.646 124.642L138.711 123.693L139.646 115.151L140.27 117.998L141.518 118.315V117.366L143.39 117.049L144.326 116.733L144.95 117.998L144.014 118.947H141.518L140.894 120.529L141.83 126.856L142.766 124.642L142.142 123.06H143.078L143.702 121.478L143.078 120.213L144.326 120.845V123.06L145.262 120.529L145.886 122.744L147.758 123.06L147.134 124.642L149.006 124.009L149.942 124.642V126.54H153.061L152.75 121.478L153.685 119.58L154.621 120.845L155.245 118.947L155.557 123.376L154.621 123.693H155.557L155.869 125.591L157.429 123.376V124.958L160.549 124.009L161.173 121.795L162.733 121.478L161.797 121.162L162.733 118.947L164.917 117.998L165.229 119.58H163.981L163.669 120.529L163.981 123.376L163.045 123.06V124.325L163.981 123.693V128.754L166.789 128.438V131.918L168.972 133.183L168.348 134.132L168.972 135.714L168.036 136.03L167.724 134.765V136.347H168.972L167.101 136.979V140.143L163.981 143.306L152.75 153.429L137.463 165.134L137.151 167.349L138.711 171.145L138.399 173.043H136.527L134.967 170.829L127.791 167.981H123.112L119.056 170.196L113.44 177.472L107.513 189.493L108.137 192.024L112.192 195.187L121.24 199.933L119.68 203.096L118.12 204.045L119.056 207.525L115.312 208.158L114.688 211.321L106.889 223.342L105.329 223.975V222.71L103.769 222.077L104.081 219.863L102.521 220.812L102.209 218.597L100.649 218.281L102.209 217.648L101.585 216.699L99.0893 217.648L98.7773 218.914L96.2815 219.23L97.5294 219.546L97.2175 220.495L99.4013 220.179L100.649 222.077L95.3456 221.761L92.8498 223.975L94.4096 225.873V224.608L95.6576 223.975L95.3456 222.393L97.2175 222.71L97.5294 223.659L98.4654 223.342L97.5294 222.393L99.4013 222.71V225.557L101.273 226.822L101.897 229.353H102.833L101.585 230.302L101.897 231.567L97.8414 234.098H99.0893L98.4654 237.262L96.5935 235.364V237.578L95.0336 235.996L94.4096 236.945L93.1617 236.313L93.4737 237.578L90.9779 236.313V235.047L91.9138 235.68L93.1617 235.047L92.2258 233.466L90.042 233.149L89.418 234.098L86.2982 233.149L87.2342 234.098L86.6102 235.047H87.8581L86.6102 238.844L88.7941 240.109L88.1701 242.323L89.73 242.956L88.4821 243.905L89.73 244.221L90.6659 242.64L89.106 241.058L89.73 240.425L91.9138 242.007H93.7857V243.589L91.2899 242.64L93.4737 243.905L93.1617 244.854L91.9138 244.221L92.8498 246.752L95.0336 244.854L93.1617 249.599H91.6019L90.9779 247.069L86.2982 245.803L84.1144 245.487L82.5545 246.436L81.3066 245.487L80.3706 241.374L82.2425 237.894L83.8024 229.986L86.2982 230.935L86.6102 229.986L87.5461 230.935V229.986L85.3623 228.72L88.4821 227.455L89.73 225.241L90.9779 225.557L91.2899 222.71H92.5378L91.9138 221.761L94.0977 221.128L93.4737 219.546L89.73 217.964V219.23L89.106 222.077L87.8581 221.444L86.9222 222.393L85.9862 224.608L86.9222 224.924L84.7383 226.822L85.3623 220.495L76.3149 225.241L75.067 227.139L73.1952 226.506V227.771L74.4431 228.404L68.5155 233.782L64.4598 236.313H62.5879L53.5405 242.007L54.4765 243.905L52.9166 244.854L53.5405 246.12L51.9807 246.752L52.2926 247.701L50.1088 248.018L49.1729 246.436L48.5489 247.069L46.677 248.018L46.989 245.487L46.0531 243.272L44.8052 240.742L45.4291 238.844L44.4932 236.945L43.5573 237.262L43.8692 234.731L45.7411 234.098L47.613 230.935L50.1088 229.669L51.3567 227.771L52.9166 226.822L54.1645 228.088L55.4124 224.924H57.9082L57.5963 222.71L59.4681 223.659L60.4041 222.077L62.2759 221.444L63.5238 220.179L61.652 218.597L61.028 216.066L59.7801 215.434L68.8275 202.463L74.4431 196.136H75.379L74.4431 194.871L79.1227 189.809L81.9305 182.533L83.4904 182.217L83.8024 183.799L78.8108 193.606V196.769L81.6186 200.882L85.6743 204.994L88.7941 206.576L90.3539 200.882L92.5378 198.035L96.2815 201.831L101.585 204.045L97.8414 200.565L96.2815 194.555L93.7857 192.973L91.2899 192.34L96.2815 185.064H97.2175L97.8414 187.595L99.0893 188.228H100.337L101.585 186.33L100.649 181.268L99.0893 182.533L97.8414 182.217L98.1534 180.319L92.8498 176.839L92.5378 175.257L91.6019 176.206L91.2899 174.941L94.4096 171.778L94.7216 168.93L97.2175 165.451V163.236L99.0893 161.971L98.4654 161.022L99.0893 157.226H100.649V160.073L107.201 165.134L107.513 160.705L106.265 160.389L106.889 155.327L104.705 154.378L107.513 149.95L105.017 140.143L97.5294 124.325L95.9695 117.366L95.0336 118.947L96.5935 124.009L95.6576 131.285L94.7216 131.601L94.4096 130.652L93.7857 128.122L90.3539 130.02L89.73 132.234L90.3539 136.663L87.8581 140.143L85.9862 139.826L80.6826 138.245L80.3706 137.928L78.4988 136.663L77.2509 130.336L82.2425 118.947L81.3066 116.417L81.6186 111.355L83.4904 101.232L85.3623 100.599L88.4821 101.548L92.8498 102.181V101.548L95.3456 97.752L100.337 88.8943L100.025 86.6798L96.5935 87.6289L94.4096 88.8943L92.2258 88.2616L88.1701 87.6289ZM105.329 66.4335L104.705 64.5354L106.577 64.8518L111.568 66.7499L116.248 68.3316L116.56 69.9134L115.624 70.5461L110.321 70.2297L105.329 66.4335ZM166.165 65.4845L167.412 65.1681L168.348 66.4335V67.6989L167.101 68.3316L165.853 67.6989L164.917 68.9643L163.981 67.0662L166.165 65.4845ZM160.861 73.7096L162.109 70.5461H163.357V72.4442L164.605 71.8115L163.669 74.3423L162.421 71.4951L162.109 76.5567L161.485 75.2913L161.173 76.5567L160.861 73.7096ZM279.101 71.1788L280.036 70.5461L282.532 71.1788V73.0769L281.908 75.2913L282.532 76.873L285.652 79.4038L287.524 79.7202L287.212 80.3529L289.396 80.6692L288.46 82.8837L290.644 83.8327V86.0471L291.58 85.7308L292.828 87.9452H294.076L293.764 88.8943L295.947 87.9452L300.939 87.3125L302.187 91.4251L304.683 93.9559L306.243 93.3232L308.115 94.9049L306.867 97.752L304.059 100.283L300.939 96.803L300.003 92.0578L295.947 91.7414L292.828 94.2722V97.4357L295.011 99.9665L293.452 100.283L289.396 97.752L285.652 93.6395L283.468 89.527L280.66 88.2616L275.357 83.2L271.925 81.6183V80.0365L276.605 74.3423L279.101 71.4951V71.1788ZM150.254 106.61L151.502 106.293L151.19 107.243L152.75 107.559L153.373 106.61L155.557 107.875L155.245 105.661L153.997 106.61L148.694 104.079L149.318 103.13L149.942 104.079L150.566 102.814L152.126 104.079L152.75 102.814L153.373 105.344L156.805 104.395L158.365 104.712L158.989 105.977L159.613 105.028L160.861 105.977L159.925 106.926L161.173 107.559L158.053 108.192L158.365 107.243H157.117L157.741 108.508L155.557 108.824L150.566 108.192L150.254 106.61ZM169.596 117.682L172.092 117.998L171.156 119.264L170.22 118.947L171.156 119.58L170.844 120.529H168.66L166.789 118.315L169.596 117.682ZM40.4375 258.773L37.9417 255.926L39.1896 254.028V253.079L37.9417 253.396L38.2536 251.181L41.6854 253.079L41.3734 252.13L42.6213 251.181L43.2453 260.672L41.9974 260.039V257.192L40.4375 258.773ZM76.003 263.835L75.691 252.763L76.9389 251.181H80.0587L81.3066 252.446L79.1227 253.712L79.7467 255.926L78.4988 257.192L79.1227 259.09L77.8748 260.039L78.4988 261.937L77.8748 264.784L77.2509 261.304L76.003 263.835ZM81.3066 281.867L81.6186 279.969L83.8024 281.551L85.3623 280.602L86.2982 281.867L88.4821 281.234V282.5L90.3539 281.867L90.042 282.816H92.8498L91.6019 286.612L84.7383 287.561L84.1144 290.725L82.8665 290.092L83.1785 291.357L82.2425 291.674L81.6186 283.449L83.1785 282.816L81.3066 281.867Z" fill="#08151A"/>
<path fill-rule="evenodd" clip-rule="evenodd" d="M149.629 39.5423L151.501 38.2769L157.741 39.5423L162.108 36.3788L165.852 36.0625L166.788 35.1134L168.348 36.3788L170.532 35.4298L172.404 36.6952L172.092 35.4298H173.028L175.523 36.0625L175.835 37.0115L177.707 36.3788L178.019 37.3279H180.827V35.7461L182.699 35.1134L183.635 35.7461L184.259 34.7971L186.443 38.2769L190.186 37.9606V39.226L189.25 39.5423L180.515 41.4404H173.34L172.092 42.0731L172.716 43.3385L171.78 45.5529L169.284 45.8693L168.972 47.1347L166.476 51.2472L166.788 52.5126L167.724 52.1963L168.348 51.2472L170.844 51.8799L172.092 50.2982L171.78 51.8799L170.532 52.1963V53.4617H171.78L170.532 55.9924L169.284 57.8905L172.404 58.8396L172.092 60.4213L172.716 60.105L172.092 61.6867L169.908 62.0031L169.596 63.9011L171.468 65.4829V67.0646L170.844 66.4319L170.532 67.381L169.596 67.0646L168.348 66.4319L167.412 65.1665L166.164 65.4829L162.732 62.6358L161.484 58.5232L162.108 55.6761L162.732 57.2578H163.668L164.292 55.9924L165.852 55.6761L166.164 54.0943L164.292 52.5126L164.604 51.5636L163.044 52.1963L162.42 53.778V42.0731L155.245 41.1241L149.629 39.5423ZM188.938 42.7058L191.434 39.8587L192.058 40.175L190.186 43.9712L189.25 44.9202H187.067L188.938 42.7058ZM182.387 45.5529L177.707 46.1856L177.395 47.1347H175.835L175.523 45.5529L174.275 46.1856L173.964 44.2875L175.835 43.9712L177.083 42.0731H178.955L179.891 44.2875H181.139L182.387 45.5529ZM177.395 54.727L176.459 55.0434L176.771 53.4617L178.331 52.5126H176.459L181.139 48.0837L183.011 48.4001L182.387 49.3491L183.323 50.2982V50.6145L182.699 52.1963L177.395 54.727ZM183.635 50.6145L185.195 49.3491L187.067 52.1963H188.626L188.003 48.7164L188.938 51.2472L190.186 50.6145V59.7886L189.874 65.4829L190.81 69.9118L191.434 71.4935L193.93 76.2387H196.114L197.674 77.1878L197.362 77.8205L189.25 82.2494L185.195 83.1984L185.507 84.4638L182.699 85.4129V86.3619H180.827L179.267 88.26L178.331 87.9436L176.147 91.1071L175.211 90.1581L175.523 92.0562L174.587 93.3216L173.34 93.0052L173.028 94.2706L171.78 93.6379L171.468 94.587L169.596 93.9543L168.66 94.9033L166.164 94.587L165.54 95.8524L166.476 96.4851L165.54 97.7505L168.972 97.4341L170.844 96.1687L171.78 97.1178L170.22 97.7505V98.6995L163.044 99.6485V100.598L169.596 101.23L170.532 99.9649L173.34 100.598L175.211 99.3322H177.707L170.532 102.179L170.22 104.394L173.028 105.026L173.34 106.925L174.587 106.608L174.275 107.557L170.844 108.823L165.228 109.772H157.117L155.557 108.823L157.741 108.506L157.117 107.241H158.365L158.053 108.19L161.172 107.557L159.925 106.925L160.86 105.976L159.613 105.026L158.989 105.976L158.365 104.71L156.805 104.394L153.373 105.343L152.749 102.812L152.125 104.077L150.565 102.812L149.941 104.077L149.317 103.128L148.693 104.077L153.997 106.608L155.245 105.659L155.557 107.874L153.373 106.608L152.749 107.557L151.189 107.241L151.501 106.292L150.253 106.608H149.317L149.629 107.557L147.757 106.608L146.197 107.241L144.014 105.343L144.638 103.445L142.454 100.598L144.326 101.23L141.518 98.3831V95.536L139.022 92.6889L138.71 93.6379L138.398 92.6889L137.462 93.0052L133.718 88.5763L127.167 72.4426L126.855 74.9734L122.799 72.7589L119.055 74.0243L118.431 76.5551L117.184 77.1878L115 74.9734V73.3916H115.936L115.624 70.5445L116.56 69.9118L116.248 68.33L123.423 66.7483L125.295 67.0646L127.791 64.5339L130.287 63.5848L131.847 60.4213L129.039 61.3704L128.103 59.4723V58.2069L131.535 55.9924L132.782 57.2578L133.718 56.9415L133.406 57.8905L134.342 57.2578L134.966 58.2069L134.342 58.5232L138.086 57.2578V59.7886L139.334 59.4723L138.086 63.5848L138.398 69.9118L139.646 73.0753L139.958 73.3916L140.894 75.2897L141.83 74.9734L142.454 75.9224L142.142 77.5041L143.702 79.4022L146.197 82.2494L155.869 87.6273L156.493 88.26L155.557 88.5763V90.1581L158.677 91.1071L159.613 92.6889L162.42 89.209L162.108 87.9436L160.548 87.6273L167.1 84.4638L173.34 78.7695L178.955 70.5445V68.33H176.147L178.955 66.1156L177.083 65.7992L178.331 64.8502H181.139L183.011 61.3704L180.827 60.7377L181.763 61.3704L180.203 62.3194L176.771 62.0031L177.083 61.054L181.139 60.4213L180.827 58.5232L183.011 57.8905L184.883 58.2069L186.131 56.6251L185.507 51.5636L183.635 50.6145ZM150.877 82.5657L153.997 83.1984L157.741 81.933L158.365 82.5657L157.741 83.5148L156.181 83.1984L156.43 84.5271L150.877 82.5657ZM156.462 84.5271L158.053 85.0965L156.493 84.7802L156.462 84.5271ZM183.978 101.23L182.418 101.547L181.794 100.598L185.226 99.3322L184.914 98.3831L185.538 98.6995L186.474 95.8524L188.658 93.6379L189.282 93.9543L188.346 94.9033L188.658 96.4851L186.474 97.1178L187.41 97.7505L183.978 101.23ZM18.3178 270.477L18.9417 270.793L19.5657 269.528L21.4375 269.844L22.9974 267.946L24.8693 268.262V269.844L23.6214 271.109L18.3178 271.426V270.477ZM85.705 293.57L89.1367 291.356H92.8805L92.2565 294.203L96.9362 295.785L97.2482 297.05L95.0643 297.999H87.8888L88.2008 296.417H90.0727V295.152L85.705 293.57Z" fill="#202E19"/>
<path d="M169.285 45.8702L168.973 47.1356L170.844 46.1865L171.156 47.4519L169.909 48.7173L170.221 49.6664L169.285 49.0337L168.349 49.9827L167.725 52.1972L168.349 51.2481L170.844 51.8808L172.092 50.2991L171.78 51.8808L170.533 52.1972V53.4626H171.78L174.276 49.6664L175.524 49.35L175.212 50.6154H177.084V51.5645L171.468 56.3097L170.533 55.9933L169.285 57.8914L172.404 58.8405L172.092 60.4222L172.716 60.1059L176.772 55.3606L179.268 54.728H177.396L176.46 55.0443L176.772 53.4626L178.332 52.5135H176.46L181.14 48.0846L183.012 48.401L182.388 49.35L183.324 50.2991L183.636 48.0846L181.452 46.1865L182.388 45.5538L177.708 46.1865L177.396 47.1356H175.836L175.524 45.5538L174.276 46.1865L173.964 44.2885L175.836 43.9721L177.084 42.074H178.956L179.892 44.2885H181.14L180.204 43.9721L180.516 41.4413H173.34L172.092 42.074L172.716 43.3394L171.78 45.5538L169.285 45.8702Z" fill="#3C351E"/>
<path d="M142.766 45.2375H140.583L141.519 46.8192L139.647 47.1356L138.399 44.9211L137.775 45.5538L135.591 53.1462L136.527 54.0953L135.279 54.4116L134.967 55.9933H131.535L132.783 57.2587L133.719 56.9424L133.407 57.8914L134.343 57.2587L134.967 58.2078L134.343 58.5241L138.087 57.2587V59.7895L139.335 59.4732L138.087 63.5857L138.399 69.9127L139.647 73.0762L139.335 62.6367L140.583 55.9933L143.39 54.728L143.702 55.677H144.95V54.4116H145.886L147.758 51.5645L149.63 50.2991L151.502 50.6154L152.438 49.9827L153.374 49.0337L153.062 47.7683L151.814 47.4519L151.19 48.7173L149.006 49.0337L149.63 48.401H148.382L149.006 47.4519L147.446 43.3394L147.134 42.7067L146.51 41.7577L145.574 42.074L145.886 43.0231L144.014 43.3394V44.6048L142.766 43.3394V45.2375Z" fill="#3C351E"/>
<path d="M187.691 47.1356L188.003 48.7173L188.939 51.2481L190.187 50.6154L190.499 49.9827V49.35L189.251 46.1865L187.691 47.1356Z" fill="#3C351E"/>
<path d="M163.045 52.1972L162.421 53.7789L162.109 55.677L162.733 57.2587H163.669L164.293 55.9933L165.853 55.677L166.165 54.0953L164.293 52.5135L164.605 51.5645L163.045 52.1972Z" fill="#3C351E"/>
<path d="M128.104 60.7386L126.544 61.3713L121.864 63.2694L121.552 64.5348L124.672 64.2184L125.296 62.953L126.232 63.2694L129.039 61.3713L128.104 59.4732V60.7386Z" fill="#3C351E"/>
<path d="M189.875 65.4838L190.811 69.9127L190.499 68.0146L192.059 65.1675V62.953L190.187 59.7895L189.875 65.4838Z" fill="#3C351E"/>
<path d="M173.964 68.3309L175.212 68.6473L176.148 68.3309L178.956 66.1165L177.084 65.8002L178.332 64.8511L175.524 65.1675V66.7492L173.964 68.3309Z" fill="#3C351E"/>
<path d="M142.454 74.0252L144.326 77.5051L150.878 82.5666L153.998 83.1993L157.741 81.9339L158.365 82.5666H161.173L164.605 82.883L163.357 80.6685L154.31 82.2503L150.878 81.3012L145.262 76.556L144.326 73.7089L142.766 72.4435V70.229L142.454 74.0252Z" fill="#3C351E"/>
<path d="M110.633 75.9233L110.321 74.9743L109.385 75.9233L113.753 78.7704L114.376 79.7195L113.753 80.0358L117.184 82.5666H119.68L118.12 80.9849L118.432 79.0868L117.184 77.1887L115 74.9743L113.129 72.1271L112.193 73.0762L112.505 76.2397L110.633 75.9233Z" fill="#3C351E"/>
<path d="M174.588 106.609L174.276 107.558L178.332 105.976L183.948 101.231L182.388 101.548L181.764 100.598L185.195 99.3331L184.883 98.3841L185.507 98.7004L186.443 95.8533L188.627 93.6388L188.939 92.3734L190.499 92.0571L189.875 89.8426L190.187 88.8936L190.811 89.5263L190.499 86.3628L191.123 86.6792L192.683 83.1993V82.2503L191.435 82.883L189.251 82.2503L185.195 83.1993L185.507 84.4647L182.7 85.4138V86.3628H180.828L179.268 88.2609L178.332 87.9445L176.148 91.108L175.212 90.159L175.524 92.0571L174.588 93.3225L173.34 93.0061L173.028 94.2715L171.78 93.6388L171.468 94.5879L169.597 93.9552L168.661 94.9042L166.165 94.5879L165.541 95.8533L166.477 96.486L165.541 97.7514L168.973 97.435L170.844 96.1696L171.78 97.1187L170.221 97.7514V98.7004L163.045 99.6495V100.598L169.597 101.231L170.533 99.9658L173.34 100.598L175.212 99.3331H177.708L170.533 102.18L170.221 104.395L173.028 105.027L173.34 106.925L174.588 106.609Z" fill="#3C351E"/>
<path d="M100.026 86.6792L96.5937 87.6282H98.7776V89.8426L96.2818 93.9552L95.3458 97.7514L100.337 88.8936L100.026 86.6792Z" fill="#3C351E"/>
<path d="M162.109 87.9445L160.549 87.6282L160.237 88.2609L155.87 87.6282L156.493 88.2609L155.558 88.5772V90.159L158.677 91.108L159.613 92.6898L162.421 89.2099L162.109 87.9445Z" fill="#3C351E"/>
<path d="M139.647 113.885V115.151L140.271 117.998L141.519 118.314V117.365L143.39 117.049L142.143 115.151L140.583 115.467L139.647 113.885Z" fill="#3C351E"/>
<path d="M92.2261 140.775L94.4099 143.938L95.0339 135.397L94.4099 134.448L93.7859 138.56L92.2261 139.509V140.775Z" fill="#3C351E"/>
<path d="M86.6105 142.04L85.9865 142.989L84.1146 150.265L84.4266 152.163L85.0506 151.847L84.4266 154.061L85.9865 153.112L85.6745 150.582L87.8584 140.142L85.9865 139.826L86.6105 142.04Z" fill="#3C351E"/>
<path d="M5.80819 262.569L5.18423 263.202L5.49621 265.416L8.61599 264.151H9.55192H10.4879L9.8639 261.62L10.4879 259.089L9.8639 260.671L8.61599 260.987L8.30401 263.202L6.43214 262.885L6.12016 263.834L5.80819 262.569Z" fill="#3C351E"/>
<path d="M30.7664 266.049L24.8388 268.263V269.845L23.5909 271.11L18.2873 271.427V270.478L17.0394 270.161V272.376L13.6076 274.59L13.9196 276.488L17.6633 280.284L24.2149 275.856V274.907L27.3347 272.376L26.3987 269.529L27.3347 269.212L28.8945 270.794L35.7581 264.783L35.1341 264.151L33.5742 266.049H30.7664Z" fill="#3C351E"/>
<path d="M66.9559 288.193L65.084 287.561L66.0199 293.255L70.3876 293.887L71.3235 295.153H72.5715L72.8834 293.887L73.5074 290.724L72.5715 289.775L72.8834 284.397L72.5715 285.346L70.6996 285.03L67.5798 286.295L68.2038 287.561H66.6439L66.9559 288.193Z" fill="#3C351E"/>
<path d="M96.2818 290.724L92.85 291.357L92.2261 294.204L96.9057 295.786H97.8417L98.4656 294.204V289.459L97.2177 287.561L95.3458 287.244L95.9698 289.459L95.3458 289.775L96.2818 290.724Z" fill="#3C351E"/>
<path d="M83.1787 291.357L82.2428 291.673L80.3709 294.52L80.0589 293.571L78.811 294.52L77.5631 293.887V295.153L76.0032 292.306L76.6272 295.786L75.0673 295.469L74.7553 297.051L87.8584 298L88.1703 296.418H90.0422V295.153L85.6745 293.571H84.1146L83.1787 291.357Z" fill="#3C351E"/>
<path d="M142.766 30.685V31.0013L141.518 33.2157H138.711L138.087 34.7975L135.903 33.8484V35.1138H130.599L130.287 36.3792L128.103 36.0629L121.864 39.8591L115.312 42.0735L106.265 51.564H103.457L100.025 54.4111L98.4655 55.3601L99.0895 56.6255L98.4655 58.84L100.337 56.6255H103.145V55.6765H105.017L106.577 54.0948L105.953 52.513L107.513 51.2476L108.137 52.1967L110.633 50.6149L113.44 50.9313L119.368 48.7168L124.672 48.4005L129.663 45.5533L136.527 43.3389L137.775 41.1245L138.399 41.7572L139.647 39.5427L140.271 40.1754L142.766 37.0119L143.702 35.7465L142.766 30.685Z" fill="#B1AFA4"/>
<path d="M191.747 38.2773L192.059 40.1754L190.187 43.9716V45.8697L190.811 47.4514L191.747 47.1351L194.555 49.0332L197.674 47.4514L199.234 48.0841L199.546 47.1351L200.17 48.0841L206.41 48.7168L216.705 53.4621L223.569 54.4111L224.193 55.3601L224.505 53.4621L220.449 48.4005L214.209 46.186L206.722 47.7678L205.162 45.237L198.922 41.7572L195.179 37.961L192.683 37.3283L191.747 38.2773Z" fill="#B1AFA4"/>
<path d="M231.056 48.0841L230.12 48.7168L227.936 49.6659L229.184 51.564L229.496 54.4111L231.056 53.7784L232.304 55.9928L236.672 55.6765L237.608 54.4111L239.48 54.7275L239.791 52.1967L237.296 50.2986L231.056 48.0841Z" fill="#B1AFA4"/>
<path d="M269.429 62.9525L268.182 64.8506L270.053 67.065L271.925 66.7487L275.045 69.5958L276.605 69.2795L279.101 71.4939V71.1776L278.165 69.2795L274.421 66.7487L275.669 66.116L275.357 65.167L273.797 65.7996L271.925 64.8506L269.429 62.9525Z" fill="#B1AFA4"/>
<path d="M115.312 145.519L116.872 146.152L118.432 145.203L117.808 143.938L117.184 144.887L116.248 144.57L116.56 142.672L112.193 146.152L115.312 145.519Z" fill="#B1AFA4"/>
<path d="M94.4098 166.082L94.7218 168.929L97.2176 165.449V163.235L99.0895 161.97L98.4655 161.021L94.4098 166.082Z" fill="#B1AFA4"/>
<path d="M112.193 195.186L112.816 193.288L116.872 189.176L117.808 189.808L118.744 188.859L119.368 186.328L122.488 185.063L123.424 183.481L125.92 183.165L126.232 182.216L129.039 183.165H135.591L135.903 184.747L136.839 184.43L136.527 185.696L137.463 186.012L135.903 185.696L133.719 187.277L129.975 192.339L126.232 195.503L127.167 196.768L126.232 198.982H130.287L129.663 201.197L127.479 201.513L127.791 202.462H122.8L121.24 205.309L124.672 205.942L119.992 206.575L119.056 207.524L119.368 209.106L118.744 207.84L118.432 209.106L118.12 208.473L116.872 209.106L117.184 210.687L118.432 210.055L117.496 211.636L114.688 211.32L115.312 208.157L119.056 207.524L118.12 204.044L119.68 203.095L121.24 199.931L112.193 195.186Z" fill="#B1AFA4"/>
<path d="M81.9307 198.982L81.6187 200.88L85.6744 204.993L88.7942 206.575L90.3541 200.88L92.5379 198.033H93.7858L92.5379 195.819L93.7858 192.972L91.29 192.339L90.3541 192.023L85.3624 195.186V196.135L81.9307 198.982Z" fill="#B1AFA4"/>
<path d="M96.5936 240.424L95.0338 244.853L93.1619 249.598L94.4098 251.813L95.9697 252.129L97.5296 251.496L98.4655 248.649H100.025L100.961 246.751H102.209L100.337 244.22L101.897 241.373L102.521 235.362L104.705 233.464L102.521 232.832L100.649 236.312L96.5936 240.424Z" fill="#B1AFA4"/>
<path d="M57.9084 282.182H64.7719L65.0839 279.968L66.6438 280.6L66.3318 279.968H73.1953L74.1312 281.866L73.5073 282.815L75.6911 284.396L76.939 283.447L76.3151 282.182L75.6911 280.284H77.251L76.6271 279.335L77.251 277.753L75.6911 278.386L73.5073 274.906L72.5713 274.59L70.3875 277.437H59.1563L57.9084 282.182Z" fill="#B1AFA4"/>
<path d="M97.8416 277.437L97.5296 278.386L95.3457 282.182L97.5296 282.498L98.7775 288.825L100.649 287.56H102.833L102.209 284.08L98.4655 284.396L101.585 283.764L100.961 282.182L102.833 280.6L100.649 279.968L99.0895 277.437H97.8416Z" fill="#B1AFA4"/>
<path d="M147.134 39.5433L146.51 41.4413L146.51 41.7577L147.134 42.7067L148.382 40.8086L149.942 41.125L150.254 42.3904H153.685L155.245 41.125L149.63 39.5433H147.134Z" fill="#08151A"/>
<path d="M151.814 47.4519L151.19 48.7173L149.006 49.0337L149.63 48.401H148.382L149.006 47.4519L148.18 45.2747L148.07 45.5539L147.446 43.3394L148.18 45.2747L148.694 43.9721H149.942L151.814 47.4519Z" fill="#08151A"/>
<path d="M231.992 47.452L229.496 48.0847L230.12 48.7174L231.056 48.0847L237.296 50.2991H240.103L239.479 48.401H240.415V47.452H238.855V44.9212L236.048 46.1866L234.8 44.9212L232.616 45.2375L231.992 47.452Z" fill="#08151A"/>
<path d="M103.145 55.677V56.6261L103.457 59.4732L104.705 57.2588L106.265 56.9424L106.577 54.0953L105.017 55.677H103.145Z" fill="#08151A"/>
<path d="M290.956 77.5051L289.708 78.4541L289.084 79.7195H287.524L287.212 80.3522L289.396 80.6686L288.46 82.883L290.644 83.832V86.0465L291.58 85.7301L292.828 87.9446H294.075L293.764 88.8936L295.947 87.9446L298.131 85.7301L297.819 83.832L295.323 82.883L290.956 77.5051Z" fill="#08151A"/>
<path d="M59.7801 215.433L51.3567 227.771L52.9166 226.822L54.1645 228.087L55.4124 224.923H57.9082L57.5963 222.709L59.4681 223.658L60.4041 222.076L62.2759 221.444L60.4041 220.495L61.028 216.066L59.7801 215.433Z" fill="#08151A"/>
<path d="M92.8498 246.752L95.0336 244.853L96.5935 240.425L100.649 236.312L102.521 232.832V231.567L104.705 229.669L106.889 223.342L105.329 223.974V222.709L103.769 222.076L104.081 219.862L102.521 220.811L102.209 218.597L100.649 218.28L102.209 217.647L101.585 216.698L99.0893 217.647L98.7773 218.913L96.2815 219.229L97.5294 219.546L97.2175 220.495L99.4013 220.178L100.649 222.076L95.3456 221.76L92.8498 223.974L94.4097 225.873V224.607L95.6576 223.974L95.3456 222.393L97.2175 222.709L97.5294 223.658L98.4654 223.342L97.5294 222.393L99.4013 222.709V225.556L101.273 226.822L101.897 229.352H102.833L101.585 230.301L101.897 231.567L97.8414 234.098H99.0893L98.4654 237.261L96.5935 235.363V237.577L95.0336 235.996L94.4097 236.945L93.1617 236.312L93.4737 237.577L90.9779 236.312V235.047L91.9138 235.679L93.1617 235.047L92.2258 233.465L90.042 233.149L89.418 234.098L86.2982 233.149L87.2342 234.098L86.6102 235.047H87.8581L86.6102 238.843L88.7941 240.108L88.1701 242.323L89.73 242.955L88.4821 243.904L89.73 244.221L90.6659 242.639L89.106 241.057L89.73 240.425L91.9138 242.006H93.7857V243.588L91.2899 242.639L93.4737 243.904L93.1617 244.853L91.9138 244.221L92.8498 246.752Z" fill="#08151A"/>
<path d="M86.9222 224.923L84.7383 226.822L83.8024 229.985L86.2982 230.934L86.6102 229.985L87.5462 230.934V229.985L85.3623 228.72L88.4821 227.454L89.73 225.24L90.9779 225.556L91.2899 222.709H92.5378L91.9138 221.76L90.042 221.127L89.73 219.229L89.106 222.076L87.8581 221.444L86.9222 222.393L85.9863 224.607L86.9222 224.923Z" fill="#08151A"/>
<path d="M26.7105 253.395L24.8386 253.711L25.7745 254.977L26.0865 260.355L25.4626 258.456L21.7188 254.977L22.3428 252.129L21.7188 252.762L20.1589 252.129L18.911 252.762L15.1673 253.395L18.599 257.824H17.0392L16.1032 256.242L13.9194 257.507L12.9834 256.558L11.7355 257.191L10.4879 259.089L9.8639 261.62L10.4879 264.151H9.55192L9.86366 267.314L11.7355 268.263L12.3595 272.692L11.7355 273.325L12.3595 274.907L13.6076 274.59L17.0394 272.376V270.161L18.2873 270.478L18.911 270.794L19.535 269.529L21.4068 269.845L22.9667 267.947L24.8388 268.263L30.7664 266.049H33.5742L35.1341 264.151L37.0057 261.936L36.6938 260.987L40.4375 258.773L37.9417 255.926L39.1896 254.028V253.079L37.9417 253.395L38.2536 251.18L41.6854 253.079L41.3734 252.129L42.6213 251.18L43.2453 260.671H44.4932L46.3651 256.558L46.0531 253.079H47.301L47.613 254.028L49.4848 251.18L48.5489 250.864L49.1729 249.282L48.5489 247.068L46.677 248.017L46.989 245.486L46.0531 243.272V245.17L44.8052 245.802L43.8693 244.537L42.9333 247.701L41.6854 246.752L39.5016 247.701L36.6938 246.119L37.3177 248.333L36.6938 249.282L35.4458 248.966V247.701H34.1979L34.8219 250.864H33.886L34.1979 249.915L31.3901 249.599L31.0782 252.129L27.6464 250.864L29.2063 254.344L31.0782 254.977L30.7662 258.773L29.5183 257.824L29.8302 256.242L28.8943 256.875L26.7105 253.395Z" fill="#08151A"/>
<path d="M90.6659 250.231L93.1617 249.599H91.6019L90.9779 247.068L86.2982 245.802L86.6102 247.068L88.4821 246.752L89.418 248.966L90.3539 248.333L90.6659 250.231Z" fill="#08151A"/>
<path d="M78.8108 248.333L77.5629 248.65L78.1868 250.231H80.3707L80.0587 251.18L81.3066 252.446L79.1227 253.711L79.7467 255.926L78.4988 257.191L79.1227 259.089L77.8748 260.038L78.4988 261.936L77.8748 264.783L77.2509 261.304L76.003 263.834L74.7551 265.416V267.631L73.1952 269.212L73.5071 274.907L75.691 278.386L77.2509 277.754L76.6269 279.335L77.2509 280.284H75.691L76.3151 282.182L78.4988 281.234L79.1227 282.815L80.0587 281.55L81.3066 281.866L81.6186 279.968L83.8024 281.55L85.3623 280.601L86.2982 281.866L88.4821 281.234V282.499L90.3539 281.866L90.042 282.815H92.8498L91.6019 286.611L93.7857 286.295V285.346L93.1617 284.397L95.3456 283.132L95.3457 282.182L97.5294 278.386L96.5935 278.07L98.1534 275.223L96.2815 273.325L96.5935 271.743L94.4097 270.794L93.4737 272.376L91.9138 271.427L92.8498 269.529L91.6019 268.896V270.794L90.6659 271.11L88.1701 270.794L86.9222 269.212L85.0503 273.008L83.1785 272.059V270.161L80.6826 269.845L78.4988 271.427L77.5629 269.845L78.1868 267.947H77.2509L79.1227 266.365L78.1868 265.416L79.4347 261.304L80.3707 260.355V259.405H79.4347L80.6826 257.191L79.4347 256.558L81.3066 255.293L80.3707 254.028L83.1785 251.813V250.864L82.8665 249.915L81.9305 250.231L82.5545 248.333L79.4347 248.65L80.3707 249.599L78.8108 248.333Z" fill="#08151A"/>
<path d="M105.953 52.513L106.577 54.0953L106.265 56.9424L104.705 57.2588L103.457 59.4732L103.145 56.6261L100.337 56.6255L98.4655 58.84L99.0895 56.6255L98.4655 55.3601L96.5935 56.9424L96.9054 57.8914L98.1534 57.5751L97.2174 66.1165L97.8414 66.7492L99.0893 64.5347L100.961 63.5857L101.897 64.2184L103.457 62.953L104.705 64.5347L106.577 64.8511L106.265 63.5857L109.073 63.2693L112.504 60.1059H119.056V58.5241L117.496 58.2078L118.12 55.677H120.304V54.7279L121.552 55.0443L121.864 54.0952L122.8 55.0443L124.671 54.7279L129.039 52.8298L130.287 51.2481L132.783 50.6154L135.591 45.8702L136.527 43.3389L129.663 45.5533L124.672 48.4005L119.368 48.7168L113.44 50.9313L110.633 50.6149L108.137 52.1967L107.513 51.2476L105.953 52.513Z" fill="#AB8B77"/>
<path d="M190.187 45.8697L190.499 48.401L190.811 51.5644H192.059L195.178 56.9424L194.866 59.7895L195.802 59.4732V56.9424L197.05 57.2587L197.674 60.7385L198.61 60.1059L202.978 64.5347L203.602 63.902L205.474 65.1674L208.906 65.4838L225.44 63.902L226.064 57.2587L225.128 54.0952L224.505 53.4621L224.193 55.3601L223.569 54.4111L216.705 53.4621L206.41 48.7168L200.17 48.0841L199.546 47.1351L199.234 48.0841L197.674 47.4514L194.555 49.0332L191.747 47.1351L190.811 47.4514L190.187 45.8697Z" fill="#AB8B77"/>
<path d="M236.672 55.6765L232.304 55.9928L232.928 62.3203L234.176 61.3712L238.231 61.6876L241.663 59.1568L242.599 56.626L241.975 54.0952L239.791 52.1967L239.48 54.7275L237.608 54.4111L236.672 55.6765Z" fill="#AB8B77"/>
<path d="M268.182 64.8506L265.685 67.3819L272.237 71.1781L273.173 73.0761L276.605 74.3415L279.101 71.4939L276.605 69.2795L275.045 69.5958L271.925 66.7487L270.053 67.065L268.182 64.8506Z" fill="#AB8B77"/>
<path d="M124.36 139.826L116.56 142.672L116.248 144.57L117.184 144.887L117.808 143.938L118.432 145.203L116.872 146.152L120.304 147.418H124.048L125.919 144.887L128.415 145.204L129.663 145.836L129.351 148.683L131.223 149.949L131.847 148.683L133.095 149.632V147.102L134.655 146.153L134.031 145.204L135.279 144.887L134.967 143.306L133.719 143.622L134.655 142.989L134.031 141.407L133.407 141.091L124.36 139.826Z" fill="#AB8B77"/>
<path d="M93.7858 198.033H92.5379L96.2815 201.83L101.585 204.044L97.8414 200.565L96.2815 194.554L93.7858 192.972L92.5379 195.819L93.7858 198.033Z" fill="#AB8B77"/>
<path d="M93.1617 267.631L91.6018 268.58L91.6019 268.896L92.8498 269.529L94.7216 270.478L95.6575 269.529L93.1617 267.631Z" fill="#AB8B77"/>
<path d="M135.591 32.2704L130.599 35.1176H135.903V33.8522L138.086 34.8012L138.71 33.2195H141.518L142.766 31.005L135.591 32.2704Z" fill="#B2C0C7"/>
<path d="M229.496 48.0879L220.449 48.4042L224.504 53.4658L225.128 54.0985L227.624 54.7312V52.5167L226.376 51.5677H229.184L227.936 49.6696L230.12 48.7206L229.496 48.0879Z" fill="#B2C0C7"/>
<path d="M285.652 79.4064L287.524 79.7227H289.084L289.708 78.4573L286.9 77.5083L283.468 74.3448V73.0794H282.532L281.908 75.2938L282.532 76.8756L285.652 79.4064Z" fill="#B2C0C7"/>
<path d="M108.137 192.026L112.192 195.19L112.816 193.292L116.872 189.179L117.808 189.812L118.744 188.863L119.368 186.332L122.488 185.067L123.423 183.485L125.919 183.169L126.231 182.22L129.039 183.169H135.591L135.903 184.75L136.839 184.434L137.774 183.485L137.15 181.587L138.398 181.271V176.209L136.527 173.046L134.967 170.831L127.791 167.984H123.111L119.056 170.198L113.44 177.474L107.513 189.496L108.137 192.026Z" fill="#B2C0C7"/>
<path d="M87.234 178.74L83.8023 183.801L78.8106 193.608V196.772L81.6184 200.884L81.9304 198.986L85.3622 196.139V195.19L90.3538 192.026L91.2897 192.343L96.2814 185.067H97.2173L97.8413 187.598L99.0892 188.23H100.337L101.585 186.332L100.649 181.271L99.0892 182.536L97.8413 182.22L98.1532 180.322L92.8496 176.842H90.0418L87.234 178.74Z" fill="#B2C0C7"/>
<path d="M36.0697 238.213L32.3259 238.846L26.7103 241.693L22.6546 246.122L26.0864 246.438L29.2061 242.642L36.0697 238.213Z" fill="#B2C0C7"/>
<path d="M3 268.583L10.4875 273.012L9.55154 271.114L6.74373 267.634L6.43176 267.317L4.55989 266.052L3 268.583Z" fill="#B2C0C7"/>
<path d="M28.8942 274.593L24.2145 275.859L22.3426 277.124L28.5822 277.441L29.5181 274.91L28.8942 274.593Z" fill="#B2C0C7"/>
<path d="M162.109 20.2463L161.485 26.5733L161.797 32.2676L160.549 32.5839L159.925 31.0022L155.245 23.4098L150.254 25.6243L147.446 28.1551L146.51 33.8493L147.134 35.7474L145.262 34.482L144.326 35.4311L144.95 37.3292L144.326 37.9619L146.51 41.4413L147.134 39.5433H149.63L151.502 38.2782L157.741 39.5436L162.109 36.3801L165.853 36.0638L166.789 35.1147L168.348 36.3801L170.532 35.4311L172.404 36.6965L172.092 35.4311H173.028L175.524 36.0638L175.836 37.0128L177.708 36.3801L178.02 37.3292H180.828V35.7474L182.699 35.1147L183.635 35.7474L184.259 34.7984L186.443 38.2782L190.187 37.9619V39.2272L189.251 39.5436L188.939 42.7071L191.435 39.8599L192.059 40.1763L191.747 38.2782L192.683 37.3292L195.179 37.9619V36.6965L199.546 34.482L200.482 32.5839L199.858 32.9003L198.298 25.6243L197.05 28.1551L188.939 22.1444L183.947 20.5627L183.635 19.2973L178.644 18.9809L175.212 19.6136L174.588 20.5627L170.532 19.2973L168.348 20.5627L167.101 18.6646L162.109 20.2463Z" fill="#2A4A36"/>
<path d="M9.86366 267.314L9.55169 271.111L10.4876 273.009L11.7355 273.325L12.3595 272.692L11.7355 268.263L9.86366 267.314Z" fill="#2A4A36"/>
<path d="M86.6102 268.264L86.9222 269.212L88.1701 270.794L90.6659 271.11L91.6019 270.794V268.896L91.6018 268.58L89.418 268.896L88.1701 267.947L86.6102 268.264Z" fill="#2A4A36"/>
<path d="M189.251 39.5436L180.516 41.4413L180.204 43.9721L181.14 44.2885L182.388 45.5538L181.452 46.1865L183.636 48.0846L183.324 50.2991L183.323 50.6155H183.635L185.195 49.3501L187.067 52.1972H188.627L188.003 48.7173L187.691 47.1356L189.251 46.1865L190.499 49.35L190.499 48.401L190.187 45.8702V43.9721L189.251 44.9212H187.067L188.939 42.7071L189.251 39.5436Z" fill="#88572D"/>
<path d="M147.758 51.5645L145.886 54.4116L145.574 55.9934L143.702 57.2588V60.7386L143.078 59.4732L142.454 60.1059L143.39 54.728L140.583 55.9933L139.335 62.6367L139.646 68.9637L140.27 68.6473L140.894 69.9127L139.958 73.3925L140.894 75.2906L141.83 74.9743L142.454 75.9233L142.142 77.5051L143.702 79.4032L144.326 79.7195V78.1378L143.702 78.4541L144.326 77.5051L142.766 77.1887L141.206 69.9127L141.518 64.8511L142.454 66.7492L142.766 61.3713L143.702 62.004L144.014 61.055L144.95 74.0252L147.134 77.5051H148.382L150.878 80.6686L152.438 80.3522L153.061 81.3013L160.549 80.0359L165.541 80.3522L170.22 77.5051L168.66 80.6686L167.1 80.3522L168.66 82.2503L168.972 80.6686L173.34 78.7705L178.956 70.5454V68.331L176.148 68.3309L175.212 68.6473L173.34 68.9637L173.028 67.3819L171.78 68.331L169.596 67.0656L168.348 66.4329V67.6983L167.1 68.331L165.853 67.6983L164.917 68.9637L163.981 67.0656L166.165 65.4838L162.733 62.6367L157.117 58.2078H155.245L153.997 59.7896L155.869 59.4732L157.117 62.3203L158.365 62.004V61.055L159.613 61.3713L158.989 62.3203L160.549 63.9021L159.301 66.4329L160.549 67.6983H159.613L160.237 69.28L159.301 69.5964L162.109 70.5454H163.357V72.4435L164.605 71.8108L163.669 74.3416V77.1887L161.173 76.556L160.861 73.7089L159.925 74.3416L158.365 73.7089L157.741 71.1781L156.181 71.8108L156.805 73.3925H156.181L155.869 71.1781L154.933 70.8618L155.557 69.9127L154.621 69.5964L153.373 66.1165L152.75 69.5964L151.19 68.6473L151.814 67.6983L149.006 63.5857L149.942 62.004L148.07 58.8405L149.006 55.3607L149.318 53.4626L150.254 53.7789L150.878 51.8808L151.814 52.1972L151.502 50.6154L149.63 50.2991L147.758 51.5645Z" fill="#88572D"/>
<path d="M182.699 52.1972L177.396 54.728H179.268L176.772 55.3606L172.716 60.1059L172.092 61.6876L169.908 62.004L170.22 63.9021L172.092 64.5348L173.964 63.9021L174.588 62.004H176.772L177.084 61.055L181.139 60.4223L180.828 58.5242L183.011 57.8915L182.075 54.0953L184.259 53.7789L182.699 52.1972Z" fill="#88572D"/>
<path d="M191.747 68.9637L191.435 71.4945L193.931 76.2397H196.114L196.426 75.9233L195.802 73.7089L196.738 69.9127L195.802 65.1675H193.931L192.995 58.5242H192.059L192.995 68.331L191.747 68.9637Z" fill="#88572D"/>
<path d="M114.376 65.1675L111.568 66.7492L116.248 68.331L123.424 66.7492L125.295 64.5348L117.808 65.8002L118.432 65.1675L117.808 64.2184L121.864 63.2694L126.544 61.3713L125.919 60.4223L127.479 60.1059H123.112L118.432 60.7386L117.808 61.3713H120.304L118.744 62.004L114.064 61.6876L117.184 62.953H110.944L114.376 64.2184V65.1675Z" fill="#88572D"/>
<path d="M100.649 69.9127L99.4013 71.4945L101.273 73.3925L106.889 73.7089L107.825 72.1271L109.697 71.8108L110.321 70.8618L109.385 70.5454L110.321 70.2291L105.329 66.4329V68.6473L100.649 69.9127Z" fill="#88572D"/>
<path d="M257.262 73.0762V74.6579L258.198 74.9743L258.822 74.0252L259.446 75.2906L261.942 75.9233H263.19V72.4435H261.942L262.254 69.28L259.134 71.1781V72.4435L257.262 73.0762Z" fill="#88572D"/>
<path d="M88.794 89.8427L88.1701 90.4754L89.106 92.6898H90.0419L89.418 92.0571L90.6659 90.159L91.9138 90.7917L90.9779 92.3735L90.3539 92.0571L91.6018 93.9552L89.73 97.1187L90.3539 97.7514H88.1701L90.3539 98.3841L90.9779 99.6495H88.1701L88.4821 101.548L92.8497 102.18V101.548L95.3456 94.9042L94.4096 88.8936L92.2258 88.2609L92.8497 88.8936L90.3539 89.5263L89.73 90.7917L88.794 89.8427Z" fill="#88572D"/>
<path d="M305.931 111.038L305.619 110.089L306.243 112.936L308.426 110.405H309.674L309.362 112.62L307.803 113.569L308.115 114.518L310.61 111.354L311.234 109.14L310.61 105.66L311.546 105.976L311.858 105.027V104.078L310.298 104.395L307.179 102.18L309.362 104.711L308.115 106.293V108.191L305.931 111.038Z" fill="#88572D"/>
<path d="M143.39 112.303L146.198 107.242L144.014 105.344L140.894 103.446L139.958 104.395L139.022 103.129L139.958 105.027L139.334 107.875L140.27 108.191L139.958 109.773L141.83 110.722V111.671L143.078 111.354L143.39 112.303Z" fill="#88572D"/>
<path d="M170.844 108.824L165.229 109.773L160.237 110.405L164.293 111.038L164.917 110.405L165.541 111.671H162.733L163.045 112.62L163.669 111.987L163.045 114.202H164.917L163.981 112.936L165.229 112.62L164.605 113.252L167.1 113.885L164.293 115.151H168.348L168.66 113.885L167.724 113.569H169.908L170.532 110.089H171.468L170.532 109.773L170.844 108.824Z" fill="#88572D"/>
<path d="M65.0837 279.968L64.7719 282.182L65.3957 284.081L66.3316 282.499L67.8915 282.183L68.5155 283.132L70.3873 281.55H72.5712L71.3233 280.601L73.1951 279.968H66.3316L66.6436 280.601L65.0837 279.968Z" fill="#88572D"/>
<path d="M74.4431 290.724L73.5074 290.724L72.8834 293.887L73.5071 293.255L74.4431 294.204L74.755 292.622L75.691 293.255L76.0029 290.408L78.4988 290.091L78.8107 288.51L75.067 288.826L74.755 287.877L74.4431 290.724Z" fill="#88572D"/>
<path d="M168.66 13.2848L168.972 13.9175L176.46 16.7646L167.1 18.6627L168.348 20.5608L170.532 19.2954L174.588 20.5608L175.212 19.6118L178.644 18.9791L183.635 19.2954L183.947 20.5608L188.939 22.1425L197.05 28.1532L198.298 25.6224L199.858 32.8984L200.482 32.5821L200.794 28.4695L198.922 20.5608L195.178 12.6521L194.243 13.2848L195.49 15.1829L193.307 12.9684L191.435 12.3357L192.059 14.2338L185.819 14.5502L179.268 12.6521L174.276 9.17226L168.972 10.1213L169.596 13.2848H168.66Z" fill="#476245"/>
<path d="M143.39 19.6118L142.766 30.684L143.702 35.7455L142.766 37.0109L144.326 36.3782L143.702 37.6436L144.326 37.96L144.95 37.3273L144.326 35.4292L145.262 34.4801L147.134 35.7455L146.51 33.8474L147.446 28.1532L149.006 22.1425L151.814 17.3973L150.566 12.9684L150.254 12.3357L147.758 12.9684L147.134 14.8665L144.638 17.081L144.014 20.8772L143.39 19.6118Z" fill="#476245"/>
<path d="M138.398 44.9196L139.958 42.0725L141.206 43.9706L139.958 44.2869L139.064 46.1007L139.126 46.2114L140.27 46.5014L140.582 45.236L141.518 46.8177L139.646 47.1341L139.126 46.2114L139.022 46.185L139.064 46.1007L138.398 44.9196Z" fill="#476245"/>
<path d="M93.1617 284.396L93.7857 285.345L95.3456 287.243L97.2174 287.559L98.4653 289.457L98.7773 288.824L97.5294 282.497L95.3456 282.181V283.13L93.1617 284.396Z" fill="#476245"/>
<path fill-rule="evenodd" clip-rule="evenodd" d="M168.973 47.1365L170.844 46.1875L171.156 47.4529L169.909 48.7183L170.221 49.6673L169.285 49.0346L168.349 49.9837L167.725 52.1981L166.789 52.5145L166.477 51.2491L168.973 47.1365ZM171.78 53.4635L174.276 49.6673L175.524 49.351L175.212 50.6164H177.084V51.5654L171.468 56.3106L170.533 55.9943L171.78 53.4635ZM190.187 50.6164L190.499 49.9837V52.8308L191.435 53.7798L190.187 57.576L192.059 58.5251L192.995 68.3319L191.747 68.9646L191.435 71.4954L190.811 69.9136L190.499 68.0155L192.059 65.1684V62.954L190.187 59.7905V50.6164ZM143.39 54.7289L143.702 55.6779H144.95V54.4125H145.886L145.574 55.9943L143.702 57.2597V60.7395L143.078 59.4741L142.454 60.1068L143.39 54.7289ZM129.039 61.3722L131.847 60.4232L130.287 63.5867L127.792 64.5357L125.296 67.0665L123.424 66.7501L125.296 64.5357L117.808 65.8011L118.432 65.1684L117.808 64.2194L121.864 63.2703L121.552 64.5357L124.672 64.2194L125.296 62.954L126.232 63.2703L129.039 61.3722ZM176.772 62.0049L180.204 62.3213L181.764 61.3722L180.828 60.7395L183.012 61.3722L181.14 64.852H178.332L175.524 65.1684V66.7501L173.964 68.3319L175.212 68.6482L173.34 68.9646L173.028 67.3828L171.78 68.3319L169.597 67.0665L170.533 67.3828L170.844 66.4338L171.468 67.0665V65.4847L169.597 63.903L169.909 62.0049L170.221 63.903L172.092 64.5357L173.964 63.903L174.588 62.0049H176.772ZM144.326 77.506L142.766 77.1896L141.207 69.9136L141.519 64.852L142.454 66.7501L142.766 61.3722L143.702 62.0049L144.014 61.0559L144.95 74.0262L147.134 77.506H148.382L150.878 80.6695L152.438 80.3531L153.062 81.3022L160.549 80.0368L165.541 80.3531L170.221 77.506L168.661 80.6695L167.101 80.3531L168.661 82.2512L168.973 80.6695L173.34 78.7714L167.101 84.4657L160.549 87.6291L160.237 88.2618L155.87 87.6291L146.198 82.2512L143.702 79.4041L144.326 79.7204V78.1387L143.702 78.455L144.326 77.506L150.878 82.5676L158.053 85.0984L160.861 84.4657L161.173 82.5676L164.605 82.8839L163.357 80.6695L154.31 82.2512L150.878 81.3022L145.262 76.5569L144.326 73.7098L142.766 72.4444V70.23L142.454 74.0262L144.326 77.506ZM139.647 73.0771L139.335 62.6376L139.647 68.9646L140.271 68.6482L140.895 69.9136L139.959 73.3935L139.647 73.0771ZM101.273 73.3932L106.889 73.7098L107.825 72.1281L109.697 71.8117L110.321 70.8627L109.385 70.5463L110.321 70.2297L115.624 70.5461L115.936 73.3935H115V74.9752L113.129 72.1281L112.193 73.0771L112.505 76.2406L110.633 75.9242L110.321 74.975L110.633 73.3932L104.393 74.975L101.273 73.3932ZM94.4096 88.8943L96.5935 87.6289L98.7776 87.6291V89.8436L96.2818 93.9561L95.3456 97.752L92.8498 101.548L95.3458 94.9052L94.4096 88.8943ZM139.647 113.886L138.399 107.875L134.967 101.548L135.279 99.9665L138.711 101.865L139.022 103.13L139.959 105.028L139.335 107.875L140.271 108.192L139.959 109.774L141.831 110.723V111.672L143.078 111.355L143.39 112.304L146.198 107.243L147.758 106.61L149.63 107.559L149.318 106.61L150.254 106.61L150.566 108.192L155.557 108.824L157.117 109.774H165.229L160.237 110.406L164.293 111.039L164.917 110.406L165.541 111.672H162.733L163.045 112.621L163.669 111.988L163.045 114.202H164.917L163.981 112.937L165.229 112.621L164.605 113.253L167.101 113.886L164.293 115.151H168.349L168.973 116.417L154.934 117.999L144.95 117.998L144.326 116.733L143.39 117.049L142.143 115.151L140.583 115.468L139.647 113.886ZM305.307 108.192L306.867 105.977L305.307 101.548L306.867 100.283L307.179 102.181L309.363 104.712L308.115 106.294V108.192L305.931 111.039L305.619 110.09L305.307 108.192ZM306.243 112.937L308.427 110.406H309.675L309.363 112.621L307.803 113.57L308.115 114.519H306.243V112.937ZM80.3706 137.928L79.435 142.99L78.4988 136.663L80.3706 137.928ZM85.9865 142.99L84.1146 141.725L82.8667 142.041L81.9308 145.521V140.459L80.6826 138.245L85.9862 139.826L86.6105 142.041L85.9865 142.99ZM5.18423 263.203V260.988L6.43214 259.09L9.55192 258.141V257.192L10.1759 257.825L11.7358 257.192L10.4879 259.09L9.8639 260.672L8.61599 260.988L8.30401 263.203L6.43214 262.886L6.12016 263.835L5.80819 262.57L5.18423 263.203ZM65.396 284.082L66.3319 282.5L67.8918 282.184L68.5157 283.133L70.3876 281.551H72.5715L71.3235 280.602L73.1954 279.969L74.1313 281.867L73.5074 282.816L72.8834 284.398L72.5715 285.347L70.6996 285.031L67.5798 286.296L68.2038 287.561H66.6439L66.9559 288.194L65.084 287.561L66.6439 285.98L65.396 284.082ZM79.123 282.816L80.0589 281.551L81.3066 281.867L83.1785 282.816L81.6186 283.449L82.2425 291.674L80.3709 294.521L80.0589 293.572L78.811 294.521L77.5631 293.888V295.154L76.0032 292.307L76.6272 295.787L75.0673 295.47L74.1313 296.103L74.4433 294.205L74.7553 292.623L75.6912 293.256L76.0032 290.409L78.499 290.092L78.811 288.51L80.6829 284.714L79.123 282.816Z" fill="#715926"/>
<path d="M158.989 28.4709L159.925 31.0017L160.549 32.5835L161.797 32.2671L161.485 26.5728L161.173 28.7873L160.549 27.5219L160.237 28.4709H158.989Z" fill="#9A6D49"/>
<path d="M136.215 46.5028L135.591 45.8702L132.783 50.6154L130.287 51.2481L129.039 52.8298L124.671 54.7279L122.8 55.0443L121.864 54.0952L121.552 55.0443L120.304 54.7279V55.677H118.12L117.496 58.2078L119.056 58.5241V60.1059H112.504L109.073 63.2693L106.265 63.5857L106.577 64.8511L111.568 66.7492L114.376 65.1675V64.2184L110.944 62.953H117.184L114.064 61.6876L118.744 62.004L120.304 61.3713H117.808L118.432 60.7386L123.112 60.1059H127.479L125.919 60.4223L126.544 61.3713L128.104 60.7386V59.4732L128.104 58.2077L131.535 55.9933H134.967L135.279 54.4116L136.527 54.0953L135.591 53.1462L137.775 45.5538L137.151 46.1865L136.527 45.5538L136.215 46.5028Z" fill="#9A6D49"/>
<path d="M190.499 48.401L190.499 49.35V49.9827L190.499 52.8298L191.435 53.7788L190.187 57.575L192.059 58.5242H192.995L193.931 65.1675H195.802L196.738 69.9127L195.802 73.7089L196.426 75.9233L199.235 76.2396L200.17 74.9742L215.145 73.0761L222.321 70.2289L224.505 67.3818L225.44 63.902L208.906 65.4838L205.474 65.1674L203.602 63.902L202.978 64.5347L198.61 60.1059L197.674 60.7385L197.05 57.2587L195.802 56.9424V59.4732L194.866 59.7895L195.178 56.9424L192.059 51.5644H190.811L190.499 48.401Z" fill="#9A6D49"/>
<path d="M183.323 50.6155L182.699 52.1972L184.259 53.7789L182.075 54.0953L183.011 57.8915L184.884 58.2077L186.131 56.6259L185.507 51.5644L183.635 50.6155H183.323Z" fill="#9A6D49"/>
<path d="M151.502 55.0442L149.006 55.3607L148.07 58.8405L149.942 62.004L149.006 63.5857L151.814 67.6983L151.19 68.6473L152.75 69.5964L153.373 66.1165L154.621 69.5964L155.557 69.9127L154.933 70.8618L155.869 71.1781L156.181 73.3925H156.805L156.181 71.8108L157.741 71.1781L158.365 73.7089L159.925 74.3416L160.861 73.7089L162.109 70.5454L159.301 69.5964L160.237 69.28L159.613 67.6983H160.549L159.301 66.4329L160.549 63.9021L158.989 62.3203L159.613 61.3713L158.365 61.055V62.004L157.117 62.3203L155.869 59.4732L153.997 59.7896L155.245 58.2078H157.117L154.622 55.9933L152.75 56.3096L152.438 57.2586L150.878 55.6769L151.502 55.0442Z" fill="#9A6D49"/>
<path d="M234.176 61.3712L232.928 62.3203L232.304 65.4837L230.12 68.3308L231.68 69.9126L233.24 68.6472L238.232 68.0145L240.728 67.0655L243.847 62.9529L242.599 56.626L241.663 59.1568L238.231 61.6876L234.176 61.3712Z" fill="#9A6D49"/>
<path d="M265.685 67.3819L262.254 69.28L261.942 72.4435H263.19V75.9233H261.942L261.63 76.5559L265.062 77.505L266.934 79.403L271.925 80.0357L276.605 74.3415L273.173 73.0761L272.237 71.1781L265.685 67.3819Z" fill="#9A6D49"/>
<path d="M86.6105 92.057L87.2345 95.8532L88.4824 95.5368L89.1063 93.006L88.1704 93.6387L86.6105 92.057Z" fill="#9A6D49"/>
<path d="M301.251 103.446L300.939 104.711L301.875 106.609L303.747 105.976V104.078L301.251 103.446Z" fill="#9A6D49"/>
<path d="M178.332 105.976L174.276 107.558L170.844 108.824L170.532 109.773L171.468 110.089H170.532L169.908 113.569H167.724L168.66 113.885L168.348 115.151L168.973 116.416H175.524V115.15L180.204 112.936L181.764 108.823L180.828 108.191L180.516 108.823L179.268 108.507L179.58 105.976L178.332 105.976Z" fill="#9A6D49"/>
<path d="M144.326 36.3791L142.766 37.0118L140.27 40.1753L139.958 42.0734L141.206 43.9715L139.958 44.2879L139.022 46.1859L140.27 46.5023L140.582 45.2369H142.766V43.3388L144.014 44.6042V43.3388L145.885 43.0225L145.573 42.0734L146.509 41.7571V41.4407L144.326 37.9609L143.702 37.6445L144.326 36.3791Z" fill="#8D6F4F"/>
<path d="M152.437 49.9821L151.501 50.6148L151.813 52.1966L150.877 51.8802L150.253 53.7783L149.317 53.462L149.005 55.3601L151.501 55.0437L150.877 55.6764L152.437 57.2581L152.749 56.3091L154.621 55.9928L152.437 49.9821Z" fill="#8D6F4F"/>
<path d="M97.8408 66.7486L97.2169 66.1159L97.5288 68.6467L99.4007 71.4938L100.649 69.9121L105.328 68.6467V66.4323L104.704 64.5342L103.456 62.9524L101.897 64.2178L100.961 63.5851L99.0887 64.5342L97.8408 66.7486Z" fill="#8D6F4F"/>
<path d="M258.197 74.9737L257.262 74.6573L256.638 75.29L263.501 78.4535L262.877 79.7189L265.373 80.3516L266.309 79.4025L270.365 81.3006L271.301 80.6679L271.924 81.617V80.0352L266.933 79.4025L265.061 77.5045L261.629 76.5554L261.941 75.9227L259.445 75.29L258.821 74.0246L258.197 74.9737Z" fill="#8D6F4F"/>
<path d="M88.1695 90.4747L87.5456 89.842L88.1695 87.6276L92.2252 88.2603L92.8492 88.893L90.3534 89.5257L89.7294 90.7911L88.7935 89.842L88.1695 90.4747L89.1055 92.6892H90.0414L89.4174 92.0565L90.6653 90.1584L91.9132 90.7911L90.9773 92.3728L90.3534 92.0565L91.6013 93.9546L89.7294 97.1181L90.3534 97.7508H88.1695L90.3534 98.3835L90.9773 99.6488H88.1695L88.4815 101.547L85.3617 100.598V99.6488L86.9216 99.0162L87.2336 95.8527L88.4815 95.5363L89.1055 93.0055L88.1695 93.6382L86.6096 92.0565L87.8575 91.7401L88.1695 90.4747Z" fill="#8D6F4F"/>
<path d="M292.827 97.4344L295.011 99.9652L300.938 104.71L301.25 103.445L303.746 104.078V105.976L301.874 106.609L305.306 108.19L306.866 105.976L305.306 101.547L306.866 100.282L307.178 102.18L310.298 104.394L311.858 104.078V105.027L312.482 103.129L309.986 100.914L309.05 94.5873L308.114 94.9036L306.866 97.7508L304.058 100.282L300.938 96.8017L300.002 92.0565L295.947 91.7401L292.827 94.2709V97.4344Z" fill="#8D6F4F"/>
<path d="M89.7294 132.233L90.3534 136.662L90.9773 144.57L93.4731 145.519L94.4091 143.938L92.2252 140.774V139.509L93.7851 138.56L94.4091 134.447L93.7851 134.764L94.4091 130.651L93.7851 128.12L90.3534 130.018L89.7294 132.233Z" fill="#8D6F4F"/>
<path d="M131.846 148.683L131.222 149.948L136.214 153.428L138.71 153.744L138.086 146.152L134.966 141.723L134.03 141.407L134.654 142.989L133.718 143.621L134.966 143.305L135.278 144.887L134.03 145.203L134.654 146.152L133.094 147.101V149.632L131.846 148.683Z" fill="#8D6F4F"/>
<path d="M78.4982 281.233L76.3144 282.182L76.9383 283.447L75.6904 284.396L73.5066 282.815L72.8826 284.396L72.5706 289.774L73.5066 290.723H74.4425L74.7545 287.876L75.0664 288.825L78.8102 288.509L80.682 284.713L79.1222 282.815L78.4982 281.233Z" fill="#8D6F4F"/>
<path d="M161.485 75.2945L161.173 76.5599L163.668 77.1926V74.3455L162.421 71.4983L162.109 76.5599L161.485 75.2945Z" fill="#08151A"/>
<path d="M134.654 137.932L133.407 141.095L134.031 141.411L134.966 141.728L134.654 139.513L135.902 138.881L135.278 138.248H136.526L136.838 136.35L138.086 137.299L138.71 136.666L137.15 134.768V130.023L138.71 129.39L137.774 127.492H138.71L138.086 126.543L139.646 124.645L138.71 123.696L139.646 115.154V113.889L138.398 107.878L134.966 101.551L135.278 99.9697L132.159 97.7553L133.095 94.5918L134.343 95.8572L134.966 94.2754L131.535 92.3773L132.159 91.4283L131.535 89.8466L130.287 90.4793V92.3773L131.223 92.6937H130.287V94.9081L128.727 93.6427V92.6937H129.975L129.351 91.4283L127.479 92.061V100.286L130.287 102.501V108.827L131.847 110.093L131.223 110.726L132.783 111.991L133.095 114.205L135.278 113.889L135.902 111.675V115.154L133.095 115.471L134.966 116.103L134.654 117.053L132.783 116.42L133.719 117.685L133.095 119.267L134.031 119.9L132.783 120.216V121.165L130.287 121.481L131.535 122.114L130.287 122.43L131.223 123.063L130.287 124.012V138.248H132.159L131.223 135.717H132.471L133.095 138.248L134.654 137.932Z" fill="#08151A"/>
<path d="M154.933 118.002H144.95L144.014 118.951H141.518L140.894 120.532L141.83 126.859L142.766 124.645L142.142 123.063H143.078L143.702 121.481L143.078 120.216L144.326 120.849V123.063L145.262 120.532L145.886 122.747L147.758 123.063L147.134 124.645L149.005 124.012L149.941 124.645V126.543H153.061L152.749 121.481L153.685 119.583L154.621 120.849L155.245 118.951L155.557 123.38L154.621 123.696H155.557L155.869 125.594L157.429 123.38V124.961L160.549 124.012L161.173 121.798L162.732 121.481L161.797 121.165L162.732 118.951L164.916 118.002L165.228 119.583H163.98L163.668 120.532L163.98 123.38L163.044 123.063V124.329L163.98 123.696V128.757L166.788 128.441V131.921L168.972 133.186L168.348 134.135L168.972 135.717L168.036 136.033L167.724 134.768V136.35H168.972L170.22 131.288L170.532 132.87L171.156 132.237L169.596 124.329V121.165L170.532 120.532H168.66L166.788 118.318L169.596 117.685L169.284 116.42H168.972L154.933 118.002Z" fill="#08151A"/>
<path fill-rule="evenodd" clip-rule="evenodd" d="M62.2762 221.445L60.4043 220.496L61.0283 216.067L61.6522 218.598L63.5241 220.179L62.2762 221.445ZM39.5018 235.997L43.8695 234.731L43.5575 237.262L44.4934 236.946L45.4294 238.844L44.8054 240.742L46.0533 243.273V245.171L44.8054 245.804L43.8695 244.538L42.9335 247.702L41.6856 246.753L39.5018 247.702L36.694 246.12L37.3179 248.334L36.694 249.283L35.4461 248.967V247.702H34.1982L34.8221 250.865H33.8862L34.1982 249.916L31.3904 249.6L31.0784 252.131L27.6466 250.865L29.2065 254.345L31.0784 254.978L30.7664 258.774L29.5185 257.825L29.8305 256.243L28.8945 256.876L26.7107 253.396L24.8388 253.712L24.2149 252.447L22.343 252.131L21.719 252.763L20.1592 252.131L25.4628 250.865L27.0227 252.131L26.7107 249.6L28.8945 249.916L27.3346 248.018L25.4628 248.651L26.0867 246.436L29.2065 242.64L36.07 238.211L42.6216 238.528L39.5018 235.997ZM29.2065 238.844L24.8388 239.16V237.262L33.2622 236.313L28.8945 237.895L29.2065 238.844ZM77.5631 248.651V247.702L80.0589 247.069L77.8751 246.753L80.0589 245.171L81.3068 245.487L82.5547 246.436L84.1146 245.487L86.2985 245.804L86.6104 247.069L88.4823 246.753L89.4182 248.967L90.3542 248.334L90.6662 250.233L93.162 249.6L94.4099 251.814L95.9698 252.131L95.6578 254.029L94.4099 253.712L95.0338 254.978H94.0979L95.6578 257.509L95.0338 258.458L93.474 257.509L94.0979 263.836H92.85L92.538 260.988L90.6662 261.621L87.2344 260.356L84.4266 260.988L83.8026 260.356L84.7386 259.723L82.5547 260.672L81.3068 259.723L80.9948 260.988L80.3709 260.356V259.407H79.4349L80.6829 257.192L79.4349 256.56L81.3068 255.294L80.3709 254.029L83.1787 251.814V250.865L82.8667 249.916L81.9308 250.233L82.5547 248.334L79.4349 248.651L80.3709 249.6L78.811 248.334L77.5631 248.651ZM80.6829 269.846L78.499 271.428L77.5631 269.846L78.187 267.948H77.2511L79.123 266.366L78.187 265.417L79.4349 261.305L84.1146 261.621L83.1787 262.57L80.6829 261.937L79.4349 263.519L80.9948 264.152L79.7469 265.101V266.05L81.3068 266.366L80.9948 267.315L79.7469 266.683L80.6829 269.846ZM90.6662 265.101L85.6745 264.468L85.9865 263.519L84.1146 263.836L85.0506 263.203L84.7386 262.254L89.1063 261.305L91.2901 261.937L92.226 263.836L90.6662 265.101ZM88.1703 267.948L85.0506 267.632L84.4266 266.683L90.3542 266.366L90.9781 265.417L93.162 267.632L91.6021 268.581L89.4182 268.897L88.1703 267.948Z" fill="#1B2252"/>
<path d="M272.549 62.3241L271.925 64.8548L273.797 65.8039L275.357 65.1712L275.669 63.5894L273.797 62.3241L273.173 62.9567L272.549 62.3241Z" fill="#4D4B6B"/>
<path d="M93.7854 134.768L94.4094 134.452L95.0333 135.401L95.6573 131.288L94.7214 131.604L94.4094 130.655L93.7854 134.768Z" fill="#4D4B6B"/>
<path d="M89.7297 217.968V219.233L90.0417 221.131L91.9136 221.764L94.0974 221.131L93.4735 219.549L89.7297 217.968Z" fill="#4D4B6B"/>
<path d="M38.2534 235.367L33.2617 236.316L28.894 237.898L29.206 238.847L32.0138 237.898L32.3258 238.847L36.0695 238.214L42.6211 238.53L39.5013 235.999L38.2534 235.367Z" fill="#4D4B6B"/>
<path d="M16.1029 251.817L18.9107 252.766L20.1587 252.133L25.4623 250.868L27.0222 252.133L26.7102 249.602L28.894 249.919L27.3341 248.021L25.4623 248.653L26.0862 246.439L22.6545 246.123L17.0389 250.868L18.2868 251.817H16.1029Z" fill="#4D4B6B"/>
<path d="M80.9943 260.991L80.3704 260.358L79.4344 261.307L84.1141 261.624L83.1782 262.573L80.6824 261.94L79.4344 263.522L80.9943 264.154L79.7464 265.103V266.053L81.3063 266.369L80.9943 267.318L79.7464 266.685L80.6824 269.849L83.1782 270.165V272.063L85.05 273.012L86.9219 269.216L86.6099 268.267L88.1698 267.951L85.05 267.634L84.4261 266.685L90.3537 266.369L90.9776 265.42L90.6656 265.103L85.674 264.471L85.986 263.522L84.1141 263.838L85.05 263.205L84.7381 262.256L89.1058 261.307L91.2896 261.94L92.2255 263.838H92.8495L92.5375 260.991L90.6656 261.624L87.2339 260.358L84.4261 260.991L83.8021 260.358L84.7381 259.726L82.5542 260.675L81.3063 259.726L80.9943 260.991Z" fill="#4D4B6B"/>
<path d="M9.55141 264.154H8.61547L9.23943 265.736L7.99152 267.634H6.7436L9.55141 271.114L9.86338 267.318L9.55141 264.154Z" fill="#4D4B6B"/>
<path d="M93.7854 286.299L91.6016 286.615L84.7381 287.564L84.1141 290.728L82.8662 290.095L83.1782 291.36L84.1141 293.575H85.674L89.1058 291.36H92.8495L96.2813 290.728L95.3453 289.779L95.9693 289.462L95.3453 287.248L93.7854 285.35V286.299Z" fill="#4D4B6B"/>
<path d="M155.869 3.16349L151.502 7.90871L158.053 10.1232L165.852 4.74523L166.788 6.64332H165.852L166.476 7.59237L164.293 12.6539L168.972 13.9193L168.66 13.2866H169.596L168.972 10.1232L174.276 9.17411L179.268 12.6539L185.819 14.552L192.059 14.2357L191.435 12.3376L193.307 12.9703L186.131 5.06158L177.396 0.316349L163.981 0L163.357 0.632697L165.852 0.949046L161.173 1.26539L155.869 3.16349Z" fill="#6C9875"/>
<path d="M158.052 10.1241L151.501 7.90965L150.253 8.226L150.565 12.9712L151.813 17.4001L149.005 22.1453L147.445 28.156L150.253 25.6252L155.245 23.4107L159.924 31.0031L158.988 28.4723H160.236L160.548 27.5233L161.172 28.7887L161.484 26.5742L162.108 20.2472L167.1 18.6655L176.459 16.7674L168.972 13.9203L164.292 12.6549L166.476 7.59331L165.852 6.64426H166.788L165.852 4.74617L158.052 10.1241Z" fill="#FFE600"/>
<path d="M137.774 41.1263L136.526 43.3407L135.59 45.8715L136.214 46.5042L136.526 45.5551L137.15 46.1878L138.398 44.9224L139.958 42.0753L140.27 40.1772L139.646 39.5445L138.398 41.7589L137.774 41.1263Z" fill="#FFE600"/>
<path d="M184.571 100.6L183.947 101.232L178.331 105.978H179.579L179.267 108.508L180.515 108.825L180.827 108.192L181.763 108.825L182.075 106.61L182.699 106.927L183.323 104.712L184.259 105.029V102.498H185.195L184.571 100.6Z" fill="#FFE600"/>
<path d="M169.596 121.162V124.326L170.532 123.693L170.22 125.275L172.091 124.959L170.844 123.061V120.53H170.532L169.596 121.162Z" fill="#FFE600"/>
<path d="M25.774 254.975L24.838 253.71L24.2141 252.444L22.3422 252.128L21.7183 254.975L25.462 258.455L26.0859 260.353L25.774 254.975Z" fill="#717296"/>
<path d="M8.61518 264.149L5.4954 265.415L6.43133 267.313L6.74331 267.629H7.99122L9.23914 265.731L8.61518 264.149Z" fill="#717296"/>
<path d="M24.2141 274.905V275.854L28.8937 274.589L33.2614 271.109L28.8937 270.793L27.3339 269.211L26.3979 269.527L27.3339 272.374L24.2141 274.905Z" fill="#717296"/>
<path d="M156.493 84.7811L158.053 85.0974L160.861 84.4647L161.173 82.5666H158.365L157.741 83.5157L156.181 83.1993L156.493 84.7811Z" fill="#08151A"/>
<path d="M29.5183 264.467L26.0865 262.569L24.5266 266.681L28.8943 265.732L29.5183 264.467Z" fill="#08151A"/>
<path d="M174.9 47.7692L172.404 46.1875L170.844 49.9837L173.028 50.3L174.9 47.7692Z" fill="#202E19"/>
<path d="M183.947 93.3234L183.011 92.6907L182.075 94.9052L179.268 96.1706L178.644 97.7523L182.075 95.8542L183.947 93.3234Z" fill="#202E19"/>
<path d="M180.827 102.181L180.203 101.548L175.836 104.396L175.212 105.977H176.46L177.084 104.396L177.708 105.028L179.268 104.079L180.827 102.181Z" fill="#202E19"/>
<path d="M155.557 136.03L154.309 136.98L152.749 138.878L153.373 140.776L152.749 142.357L151.502 143.306L152.125 143.939L153.997 142.99L153.685 144.888L152.125 144.572L152.437 145.521H154.933L155.557 142.041L157.741 141.092L157.429 137.612L155.557 138.878V136.03Z" fill="#202E19"/>
<path d="M110.632 94.272L108.76 93.323L105.329 94.5884L104.393 95.8538H99.4011V97.4355L98.4652 97.1192L96.9053 99.6499L97.2173 114.518L99.7131 121.478L102.209 122.743V121.794H106.577L112.504 120.213L116.248 120.529L121.864 117.682L123.423 113.886L121.552 105.661L117.808 98.3846L116.248 97.7519V96.1701L112.816 93.9557L110.632 94.272Z" fill="#1B242B"/>
<path d="M150.566 145.52L152.437 145.521L152.125 144.572L153.685 144.888L153.997 142.99L152.125 143.939L151.502 143.306L152.749 142.357L153.373 140.776L152.749 138.878L154.309 136.98L152.749 137.612L152.125 136.663L150.566 139.51L149.942 138.561L148.694 140.143L147.446 139.51L148.07 141.408L147.134 141.092L147.446 145.204L148.382 144.888L148.694 142.99V144.571L149.318 143.306H150.566V145.52Z" fill="#1B242B"/>
<path d="M113.128 160.704L112.504 157.857L110.32 159.122V162.286L112.504 161.97L113.128 160.704Z" fill="#B2C0C7"/>
<path d="M90.9779 275.539L86.2983 273.325L83.8024 274.59L84.1144 275.855H88.1701L87.2342 276.805L89.1061 277.437L90.9779 276.488V275.539Z" fill="#2A4A36"/>
<path d="M101.585 158.491L100.649 159.124V160.073L107.2 165.135L107.512 160.706L106.265 160.39L106.888 155.328L104.705 154.379L102.209 155.961L102.833 157.542L101.897 159.124L101.585 158.491Z" fill="#8D6F4F"/>
<path d="M116.247 132.234H115.311L113.44 133.183V140.143L114.376 138.878L114.064 137.296L116.247 138.245V132.234Z" fill="#08151A"/>
<path d="M134.03 156.277L133.094 155.961L132.782 160.39L134.966 159.124L133.718 157.859L134.03 156.277Z" fill="#717296"/>
</g>
<defs>
<filter id="filter0_d_81_18154" x="0.912434" y="0" width="313.657" height="302.175" filterUnits="userSpaceOnUse" color-interpolation-filters="sRGB">
<feFlood flood-opacity="0" result="BackgroundImageFix"/>
<feColorMatrix in="SourceAlpha" type="matrix" values="0 0 0 0 0 0 0 0 0 0 0 0 0 0 0 0 0 0 127 0" result="hardAlpha"/>
<feOffset dy="2.08757"/>
<feGaussianBlur stdDeviation="1.04378"/>
<feComposite in2="hardAlpha" operator="out"/>
<feColorMatrix type="matrix" values="0 0 0 0 0 0 0 0 0 0 0 0 0 0 0 0 0 0 0.25 0"/>
<feBlend mode="normal" in2="BackgroundImageFix" result="effect1_dropShadow_81_18154"/>
<feBlend mode="normal" in="SourceGraphic" in2="effect1_dropShadow_81_18154" result="shape"/>
</filter>
</defs>
</svg>
