<svg width="36" height="37" viewBox="0 0 36 37" fill="none" xmlns="http://www.w3.org/2000/svg">
<path fill-rule="evenodd" clip-rule="evenodd" d="M13.5697 12.8113H20.0721V16.2122C21.0088 14.2562 23.4109 12.4988 27.0193 12.4988C33.9366 12.4988 35.5789 16.3924 35.5789 23.5361V36.7666H28.5757V25.163C28.5757 21.0948 27.6391 18.8006 25.2545 18.8006C21.9472 18.8006 20.5729 21.2731 20.5729 25.1612V36.7666H13.5697V12.8113ZM1.56106 36.454H8.56421V12.4988H1.56106V36.454ZM9.56741 4.68774C9.56767 5.30408 9.45126 5.91433 9.22494 6.48302C8.99861 7.05171 8.6669 7.5675 8.24907 8.0004C7.40239 8.88395 6.25634 9.37851 5.06264 9.37547C3.87103 9.37463 2.72763 8.88133 1.8797 8.00224C1.46339 7.56787 1.13279 7.0515 0.906866 6.48274C0.680941 5.91397 0.564124 5.30399 0.56311 4.68774C0.56311 3.44319 1.03582 2.25195 1.88145 1.37323C2.72863 0.492963 3.87252 -0.000550047 5.06439 4.60068e-07C6.25842 4.60068e-07 7.40344 0.494511 8.24907 1.37323C9.09295 2.25195 9.56741 3.44319 9.56741 4.68774Z" fill="white" fill-opacity="0.8"/>
</svg>
