<svg width="491" height="343" viewBox="0 0 491 343" fill="none" xmlns="http://www.w3.org/2000/svg">
<path d="M345.768 254.635L345.871 254.305L345.944 253.965L370.932 136.241L370.95 136.157L370.966 136.073C382.672 73.7471 344.938 29.6752 299.093 16.9727C276.232 10.6382 251.154 12.0139 229.031 22.8567C206.805 33.7506 188.036 53.9713 177.554 84.4073L177.406 84.8366L177.313 85.2812L173.298 104.385L152.605 202.86C144.328 234.434 149.468 261.886 162.982 283.129C176.439 304.282 197.884 318.792 221.432 325.248C244.985 331.704 271.001 330.204 293.767 318.879C316.657 307.494 335.791 286.406 345.768 254.635ZM251.12 101.579C252.305 96.1624 255.386 93.2088 259.542 91.6622C264.058 89.9815 270.138 89.9276 276.409 91.5862C282.658 93.2392 288.248 96.3738 291.787 100.04C295.262 103.639 296.233 107.064 295.446 110.21C289.446 134.211 275.543 189.779 262.458 240.663C260.758 247.274 256.93 251.275 252.293 253.467C247.465 255.749 241.404 256.208 235.531 254.787C229.656 253.367 224.562 250.211 221.424 246.014C218.424 242.002 216.897 236.655 218.581 229.749C224.099 207.127 229.835 185.357 235.125 165.28L235.161 165.143C241.519 141.016 247.258 119.235 251.12 101.579Z" fill="white" stroke="white" stroke-width="14.5718"/>
<path d="M206.176 214.599C197.161 271.273 269.132 284.972 284.782 235.592L313.946 124.966C322.961 68.2927 250.99 54.5937 235.34 103.974L230.805 121.178M206.176 214.599L165.337 203.222M206.176 214.599L230.805 121.178M230.805 121.178L185.239 109.009M185.239 109.009L165.229 203.633C135.065 318.051 296.76 363.592 332.782 248.411L356.894 135.492C378.058 23.9243 226.906 -19.7211 189.113 90.6847L185.239 109.009Z" stroke="#221111" stroke-width="14.578"/>
<path d="M330.532 97.8077L336.584 95.4139M312.121 69.3022L315.892 63.9402M280.882 54.5906L281.466 47.9058M246.941 60.8588L243.595 54.7758M220.627 83.7891L215.146 80.4384M236.636 293.051L237.498 286.205M203.81 277.208L207.244 272.228M183.002 246.175L189.112 243.561M276.049 286.593L272.587 280.95M304.497 260.93L298.855 257.3M315.31 227.963L309.145 226.316M322.957 196.273L316.352 194.509M330.164 164.466L323.559 162.702M337.533 132.938L331.148 131.232M195.587 178.77L188.981 177.005M202.794 146.962L196.188 145.198" stroke="#221111" stroke-width="2.73482" stroke-linecap="round"/>
<path d="M285.859 150.248C284.486 156.042 281.357 168.262 278.997 177.404C276.598 186.514 273.103 199.212 271.184 205.607C269.255 212.036 266.223 221.547 264.446 226.704C262.639 231.945 260.383 237.615 259.461 239.346L259.451 239.364L259.442 239.381C258.378 241.423 257.038 243.218 255.886 244.323C254.764 245.399 253.067 246.578 252.417 246.867L252.389 246.88L252.36 246.893C251.568 247.258 249.553 247.86 248.175 248.077C246.52 248.317 244.672 248.33 242.465 248.06L242.425 248.055L242.386 248.051C240.544 247.859 237.184 247.203 235.116 246.637L233.921 251.001L235.116 246.637C233.192 246.11 228.871 244.45 225.664 242.955C224.095 242.224 222.593 241.495 221.424 240.907C221.773 239.277 222.409 236.671 223.472 232.39C225.132 225.934 231.449 202.459 237.59 180.192C243.734 157.914 250.716 132.376 253.083 123.433C255.488 114.522 258.326 104.388 259.45 100.807C260.017 99.0262 260.567 97.3792 260.993 96.171C261.007 96.1304 261.021 96.0905 261.035 96.0512C261.223 95.9983 261.419 95.9455 261.618 95.8945L261.647 95.8871L261.675 95.8794C262.539 95.6465 265.264 95.3708 268.354 95.3708H268.38L268.405 95.3705C272.072 95.3291 274.026 95.5339 276.259 96.0751C278.112 96.5626 280.774 97.4789 282.09 98.106C283.353 98.7326 285.456 100.113 286.597 101.087C287.821 102.232 289.301 103.951 289.776 104.728L289.788 104.748L289.8 104.768C290.316 105.593 291.272 107.87 291.755 109.674C292.142 111.182 292.311 112.043 292.39 113.023C292.475 114.076 292.466 115.401 292.352 117.843L292.35 117.879L292.349 117.916C292.223 122.011 291.786 124.743 290.333 131.233C289.273 135.829 287.245 144.4 285.859 150.248Z" stroke="white" stroke-width="9.05101"/>
<path fill-rule="evenodd" clip-rule="evenodd" d="M259.018 63.7137C257.565 63.9339 254.659 64.5944 252.501 65.2108C250.388 65.8272 247.129 67.1041 245.28 68.0288C243.387 68.9974 240.833 70.6266 239.556 71.6833C238.279 72.7401 236.342 74.7655 235.241 76.2185C234.096 77.7596 232.731 80.4014 231.895 82.603C231.146 84.6724 229.473 90.0001 228.152 94.4913C226.831 98.9824 224.542 107.392 223.089 113.204C221.636 119.016 214.987 144.378 208.382 169.564C201.734 194.749 194.953 221.212 193.236 228.345C191.563 235.478 189.977 242.523 189.713 243.976C189.449 245.429 189.185 248.555 189.141 250.933L189.009 255.248C194.469 259.519 197.331 261.632 198.916 262.777C200.501 263.878 203.759 265.903 206.181 267.356C208.602 268.765 212.433 270.747 214.635 271.803C216.88 272.86 220.975 274.445 223.661 275.414C226.391 276.338 230.706 277.571 233.26 278.144C237.223 279.068 239.072 279.2 246.029 279.2C252.545 279.2 254.835 279.024 257.477 278.364C259.282 277.924 262.232 276.955 263.949 276.294C265.71 275.59 268.572 274.181 270.334 273.168C272.051 272.112 275.353 269.514 277.643 267.312C280.285 264.802 282.794 261.852 284.6 259.166C286.097 256.877 288.166 253.31 289.091 251.241C290.059 249.171 291.777 244.812 292.877 241.554C294.022 238.296 296.312 231.163 297.985 225.703C299.614 220.243 302.212 211.349 303.709 205.889C305.206 200.429 308.2 188.849 310.358 180.131C312.515 171.413 315.862 157.191 317.799 148.517C319.736 139.887 321.63 131.081 321.982 128.923C322.378 126.81 322.774 122.627 322.95 119.589C323.083 116.242 322.995 112.28 322.642 109.462C322.378 106.908 321.718 103.341 321.277 101.536C320.793 99.7309 319.78 96.6488 318.988 94.7114C318.195 92.7741 316.478 89.4277 315.157 87.2702C313.572 84.7164 311.194 81.8104 308.332 78.9044C305.47 76.0424 302.564 73.6207 300.187 72.1677C298.117 70.8908 294.595 69.0415 292.349 68.0728C290.148 67.1041 286.449 65.8272 284.203 65.2548C282.002 64.6824 278.611 63.9779 276.718 63.7137C274.869 63.4496 270.686 63.2734 267.472 63.2734C264.301 63.3175 260.471 63.4936 259.018 63.7137ZM257.785 92.6405C258.005 92.4644 259.238 92.0241 260.559 91.6718C261.968 91.2756 265.05 91.0114 268.044 91.0114C271.787 90.9673 274.032 91.1875 276.63 91.848C278.567 92.3763 281.429 93.389 283.014 94.1816C284.556 94.9741 286.933 96.6033 288.298 97.8361C289.619 99.113 291.38 101.182 292.129 102.459C292.921 103.78 293.978 106.51 294.507 108.58C295.299 111.794 295.431 113.159 295.211 118.046C295.079 122.537 294.595 125.576 293.186 132.136C292.173 136.715 290.236 145.257 288.915 151.069C287.594 156.881 284.6 169.078 282.354 178.148C280.064 187.219 276.718 199.9 274.869 206.328C273.019 212.757 270.113 222.267 268.396 227.463C266.679 232.658 264.433 238.603 263.377 240.672C262.188 243.05 260.647 245.251 259.15 246.748C257.873 248.025 255.847 249.566 254.615 250.139C253.426 250.711 251.092 251.416 249.463 251.68C247.438 251.988 245.28 251.988 242.858 251.68C240.833 251.46 237.399 250.755 235.241 250.139C233.084 249.522 228.724 247.761 225.554 246.22C222.384 244.679 219.478 243.138 219.082 242.83C218.377 242.257 218.509 241.465 221.107 230.545C222.692 224.116 228.724 200.736 234.581 178.589C240.437 156.441 247.085 131.079 249.331 122.229C251.621 113.379 254.35 103.208 255.451 99.5533C256.552 95.9428 257.609 92.8166 257.785 92.6405Z" fill="#221111"/>
<mask id="path-6-outside-1_25_1741" maskUnits="userSpaceOnUse" x="0" y="111.273" width="144" height="127" fill="black">
<rect fill="white" y="111.273" width="144" height="127"/>
<path d="M34.705 125.637C36.3626 124.637 39.7698 123.092 42.3022 122.092C44.8345 121.183 48.7022 120.364 54.964 120.273L57.9568 125.546C59.6144 128.364 60.9957 131.001 60.9496 131.455C60.9496 131.819 61.2719 132.092 61.6403 132.092C62.0086 132.092 62.3309 131.273 62.3309 130.273C62.3309 129.273 63.0676 127.364 64.0806 125.819C65.0014 124.455 66.2446 122.819 66.8432 122.183C67.3957 121.637 68.1784 121.183 68.5468 121.183C69.0072 121.183 69.5597 123.273 70.1122 127.364C70.6187 130.728 71.3554 134.092 71.7698 134.819C72.2302 135.728 72.5065 137.637 72.5065 140.273C72.4604 142.546 72.7827 145.455 73.1511 146.91C73.7957 149.183 73.7036 150.092 71.7698 161.455C70.6187 168.001 69.2374 177.91 68.6849 183.455C67.8561 192.092 67.764 195.364 68.0403 207.546C68.3166 220.183 68.2705 221.91 67.5338 223.819C67.0734 225.092 66.0144 226.637 65.2317 227.273C64.4029 227.91 62.7914 228.455 61.6403 228.455C59.5683 228.455 59.5683 228.455 58.4633 223.728C57.8647 221.092 56.8978 215.819 56.2993 212.092C55.4245 206.546 55.2863 203.546 55.3324 195.728C55.4245 190.455 55.6547 183.546 55.8849 180.273C56.1151 177.001 56.9439 170.273 57.7727 165.273C58.5554 160.273 59.246 154.092 59.2921 151.455C59.2921 148.819 59.6144 146.183 59.9367 145.546C60.259 144.91 60.4892 143.728 60.4892 143.001C60.4892 141.819 59.7065 141.728 55.7468 141.91C53.1683 142.092 48.4719 143.001 45.295 144.092C42.118 145.092 38.2964 146.728 36.777 147.728C35.2576 148.728 33.7381 150.001 33.4158 150.546C33.0935 151.183 32.6331 153.273 32.4029 155.273C32.1727 157.273 31.5741 161.364 31.0216 164.364C30.5151 167.364 30.1007 170.637 30.1007 171.637C30.1007 173.364 30.2849 173.455 33.8763 172.728C35.9942 172.364 39.7237 171.819 42.2101 171.364C46.3079 170.819 46.6763 170.91 46.6763 172.364C46.6763 173.183 47.0446 174.455 47.505 175.092C47.9655 175.637 48.7022 177.183 49.1166 178.455C49.8532 180.637 49.8072 180.91 48.0576 186.001C46.7223 189.728 45.8475 191.273 44.9727 191.637C44.236 191.819 41.7036 192.637 39.3094 193.455C36.9151 194.183 33.1856 195.455 31.0216 196.273C28.8576 197.092 26.5554 197.819 25.8647 198.092C25.1281 198.273 24.4835 198.728 24.3914 199.183C24.2532 199.546 23.6086 202.728 22.918 206.183C22.0892 210.364 21.6748 214.001 21.7209 216.91C21.7669 219.273 21.4906 222.364 21.1223 223.91C20.754 225.455 19.9712 227.092 19.4187 227.637C18.5899 228.455 17.8072 228.364 16.1496 227.455C14.3079 226.364 13.6633 225.455 12.5583 222.092C11.8216 219.819 11.0849 216.364 10.9468 214.364C10.8086 212.001 11.0388 208.546 12.6043 198.455L11.3612 196.91C10.7165 196.001 9.65755 193.273 9.05899 190.728C8.50647 188.273 8 185.001 8 183.455C8 181.91 8.41439 179.455 8.92086 177.91C9.47338 176.364 10.5784 174.455 11.4532 173.637C12.3281 172.819 13.4791 172.092 13.9856 172.092C14.4921 172.092 15.413 172.728 16.0576 173.455C16.7022 174.183 17.3007 174.546 17.3928 174.183C17.4849 173.728 18.0374 171.183 18.5439 168.455C19.0964 165.728 19.5108 162.728 19.5108 161.91C19.5108 160.91 18.9583 159.91 18.2676 159.364C17.5309 158.91 16.2417 156.546 15.3669 154.183C14.1698 150.91 13.7554 148.728 13.6633 145.546C13.5712 142.364 13.7554 140.637 14.354 139.364C14.8144 138.364 18.1755 135.728 22.5036 132.91C26.5554 130.364 30.2849 128.092 30.7914 127.819C31.2978 127.637 33.0475 126.637 34.705 125.637Z"/>
<path d="M113.439 123.001C117.122 122.092 120.852 121.092 121.727 120.819C122.601 120.637 124.996 120.637 127.022 120.819C130.613 121.273 130.751 121.364 132.685 125.092C133.79 127.183 134.987 130.001 135.355 131.364C135.724 132.819 136 134.819 136 135.91C135.954 137.092 135.632 138.819 135.171 139.819C134.757 140.819 133.422 142.183 132.224 142.728C130.981 143.364 129.047 143.91 127.85 143.91C126.607 143.91 122.555 144.728 118.734 145.728C114.958 146.728 111.827 147.637 111.781 147.728C111.781 147.91 110.814 152.546 109.617 158.001C108.42 163.455 107.453 168.273 107.453 168.637C107.453 169.092 106.809 172.092 106.026 175.455C105.243 178.91 104.184 183.273 103.724 185.273C103.263 187.273 102.25 191.819 101.514 195.273C100.777 198.728 99.9482 203.819 99.6719 206.364C99.3957 209.001 99.1655 211.728 99.1655 212.273C99.2115 212.91 100.086 215.001 103.079 220.183L102.527 223.91C102.066 226.728 101.56 227.819 100.317 228.91C99.4417 229.637 98.2446 230.273 97.6921 230.273C97.0935 230.273 95.436 229.001 94.0086 227.364C92.3971 225.546 91.3842 223.728 91.3381 222.819C91.3381 221.91 91.2 221.001 91.0158 220.819C90.7856 220.637 90.2331 217.637 89.7727 214.273C89.1281 209.637 88.9439 206.364 89.1281 201.637C89.3122 197.092 90.141 191.273 91.9367 181.637C93.2719 174.183 95.1597 164.91 96.0806 161.183C97.0014 157.455 97.7842 153.546 97.7842 152.546C97.7842 150.91 97.6 150.819 96.3108 151.455C95.482 151.819 92.2129 152.364 83.2806 153.273L81.7612 150.637C80.8403 149.092 79.8734 146.001 79.3209 143.273C78.8604 140.637 78.446 137.364 78.446 136.001C78.446 134.546 78.6763 132.364 78.9986 131.001C79.5971 128.546 79.6432 128.455 83.9712 128.455C86.3655 128.455 91.3381 127.819 95.0216 127.092C100.777 125.91 101.79 125.546 102.296 123.91C102.573 122.91 103.263 122.092 103.77 122.092C104.276 122.092 105.151 122.728 105.75 123.455C106.671 124.637 107.453 124.637 113.439 123.001Z"/>
</mask>
<path d="M34.705 125.637C36.3626 124.637 39.7698 123.092 42.3022 122.092C44.8345 121.183 48.7022 120.364 54.964 120.273L57.9568 125.546C59.6144 128.364 60.9957 131.001 60.9496 131.455C60.9496 131.819 61.2719 132.092 61.6403 132.092C62.0086 132.092 62.3309 131.273 62.3309 130.273C62.3309 129.273 63.0676 127.364 64.0806 125.819C65.0014 124.455 66.2446 122.819 66.8432 122.183C67.3957 121.637 68.1784 121.183 68.5468 121.183C69.0072 121.183 69.5597 123.273 70.1122 127.364C70.6187 130.728 71.3554 134.092 71.7698 134.819C72.2302 135.728 72.5065 137.637 72.5065 140.273C72.4604 142.546 72.7827 145.455 73.1511 146.91C73.7957 149.183 73.7036 150.092 71.7698 161.455C70.6187 168.001 69.2374 177.91 68.6849 183.455C67.8561 192.092 67.764 195.364 68.0403 207.546C68.3166 220.183 68.2705 221.91 67.5338 223.819C67.0734 225.092 66.0144 226.637 65.2317 227.273C64.4029 227.91 62.7914 228.455 61.6403 228.455C59.5683 228.455 59.5683 228.455 58.4633 223.728C57.8647 221.092 56.8978 215.819 56.2993 212.092C55.4245 206.546 55.2863 203.546 55.3324 195.728C55.4245 190.455 55.6547 183.546 55.8849 180.273C56.1151 177.001 56.9439 170.273 57.7727 165.273C58.5554 160.273 59.246 154.092 59.2921 151.455C59.2921 148.819 59.6144 146.183 59.9367 145.546C60.259 144.91 60.4892 143.728 60.4892 143.001C60.4892 141.819 59.7065 141.728 55.7468 141.91C53.1683 142.092 48.4719 143.001 45.295 144.092C42.118 145.092 38.2964 146.728 36.777 147.728C35.2576 148.728 33.7381 150.001 33.4158 150.546C33.0935 151.183 32.6331 153.273 32.4029 155.273C32.1727 157.273 31.5741 161.364 31.0216 164.364C30.5151 167.364 30.1007 170.637 30.1007 171.637C30.1007 173.364 30.2849 173.455 33.8763 172.728C35.9942 172.364 39.7237 171.819 42.2101 171.364C46.3079 170.819 46.6763 170.91 46.6763 172.364C46.6763 173.183 47.0446 174.455 47.505 175.092C47.9655 175.637 48.7022 177.183 49.1166 178.455C49.8532 180.637 49.8072 180.91 48.0576 186.001C46.7223 189.728 45.8475 191.273 44.9727 191.637C44.236 191.819 41.7036 192.637 39.3094 193.455C36.9151 194.183 33.1856 195.455 31.0216 196.273C28.8576 197.092 26.5554 197.819 25.8647 198.092C25.1281 198.273 24.4835 198.728 24.3914 199.183C24.2532 199.546 23.6086 202.728 22.918 206.183C22.0892 210.364 21.6748 214.001 21.7209 216.91C21.7669 219.273 21.4906 222.364 21.1223 223.91C20.754 225.455 19.9712 227.092 19.4187 227.637C18.5899 228.455 17.8072 228.364 16.1496 227.455C14.3079 226.364 13.6633 225.455 12.5583 222.092C11.8216 219.819 11.0849 216.364 10.9468 214.364C10.8086 212.001 11.0388 208.546 12.6043 198.455L11.3612 196.91C10.7165 196.001 9.65755 193.273 9.05899 190.728C8.50647 188.273 8 185.001 8 183.455C8 181.91 8.41439 179.455 8.92086 177.91C9.47338 176.364 10.5784 174.455 11.4532 173.637C12.3281 172.819 13.4791 172.092 13.9856 172.092C14.4921 172.092 15.413 172.728 16.0576 173.455C16.7022 174.183 17.3007 174.546 17.3928 174.183C17.4849 173.728 18.0374 171.183 18.5439 168.455C19.0964 165.728 19.5108 162.728 19.5108 161.91C19.5108 160.91 18.9583 159.91 18.2676 159.364C17.5309 158.91 16.2417 156.546 15.3669 154.183C14.1698 150.91 13.7554 148.728 13.6633 145.546C13.5712 142.364 13.7554 140.637 14.354 139.364C14.8144 138.364 18.1755 135.728 22.5036 132.91C26.5554 130.364 30.2849 128.092 30.7914 127.819C31.2978 127.637 33.0475 126.637 34.705 125.637Z" fill="#221111"/>
<path d="M113.439 123.001C117.122 122.092 120.852 121.092 121.727 120.819C122.601 120.637 124.996 120.637 127.022 120.819C130.613 121.273 130.751 121.364 132.685 125.092C133.79 127.183 134.987 130.001 135.355 131.364C135.724 132.819 136 134.819 136 135.91C135.954 137.092 135.632 138.819 135.171 139.819C134.757 140.819 133.422 142.183 132.224 142.728C130.981 143.364 129.047 143.91 127.85 143.91C126.607 143.91 122.555 144.728 118.734 145.728C114.958 146.728 111.827 147.637 111.781 147.728C111.781 147.91 110.814 152.546 109.617 158.001C108.42 163.455 107.453 168.273 107.453 168.637C107.453 169.092 106.809 172.092 106.026 175.455C105.243 178.91 104.184 183.273 103.724 185.273C103.263 187.273 102.25 191.819 101.514 195.273C100.777 198.728 99.9482 203.819 99.6719 206.364C99.3957 209.001 99.1655 211.728 99.1655 212.273C99.2115 212.91 100.086 215.001 103.079 220.183L102.527 223.91C102.066 226.728 101.56 227.819 100.317 228.91C99.4417 229.637 98.2446 230.273 97.6921 230.273C97.0935 230.273 95.436 229.001 94.0086 227.364C92.3971 225.546 91.3842 223.728 91.3381 222.819C91.3381 221.91 91.2 221.001 91.0158 220.819C90.7856 220.637 90.2331 217.637 89.7727 214.273C89.1281 209.637 88.9439 206.364 89.1281 201.637C89.3122 197.092 90.141 191.273 91.9367 181.637C93.2719 174.183 95.1597 164.91 96.0806 161.183C97.0014 157.455 97.7842 153.546 97.7842 152.546C97.7842 150.91 97.6 150.819 96.3108 151.455C95.482 151.819 92.2129 152.364 83.2806 153.273L81.7612 150.637C80.8403 149.092 79.8734 146.001 79.3209 143.273C78.8604 140.637 78.446 137.364 78.446 136.001C78.446 134.546 78.6763 132.364 78.9986 131.001C79.5971 128.546 79.6432 128.455 83.9712 128.455C86.3655 128.455 91.3381 127.819 95.0216 127.092C100.777 125.91 101.79 125.546 102.296 123.91C102.573 122.91 103.263 122.092 103.77 122.092C104.276 122.092 105.151 122.728 105.75 123.455C106.671 124.637 107.453 124.637 113.439 123.001Z" fill="#221111"/>
<path d="M34.705 125.637C36.3626 124.637 39.7698 123.092 42.3022 122.092C44.8345 121.183 48.7022 120.364 54.964 120.273L57.9568 125.546C59.6144 128.364 60.9957 131.001 60.9496 131.455C60.9496 131.819 61.2719 132.092 61.6403 132.092C62.0086 132.092 62.3309 131.273 62.3309 130.273C62.3309 129.273 63.0676 127.364 64.0806 125.819C65.0014 124.455 66.2446 122.819 66.8432 122.183C67.3957 121.637 68.1784 121.183 68.5468 121.183C69.0072 121.183 69.5597 123.273 70.1122 127.364C70.6187 130.728 71.3554 134.092 71.7698 134.819C72.2302 135.728 72.5065 137.637 72.5065 140.273C72.4604 142.546 72.7827 145.455 73.1511 146.91C73.7957 149.183 73.7036 150.092 71.7698 161.455C70.6187 168.001 69.2374 177.91 68.6849 183.455C67.8561 192.092 67.764 195.364 68.0403 207.546C68.3166 220.183 68.2705 221.91 67.5338 223.819C67.0734 225.092 66.0144 226.637 65.2317 227.273C64.4029 227.91 62.7914 228.455 61.6403 228.455C59.5683 228.455 59.5683 228.455 58.4633 223.728C57.8647 221.092 56.8978 215.819 56.2993 212.092C55.4245 206.546 55.2863 203.546 55.3324 195.728C55.4245 190.455 55.6547 183.546 55.8849 180.273C56.1151 177.001 56.9439 170.273 57.7727 165.273C58.5554 160.273 59.246 154.092 59.2921 151.455C59.2921 148.819 59.6144 146.183 59.9367 145.546C60.259 144.91 60.4892 143.728 60.4892 143.001C60.4892 141.819 59.7065 141.728 55.7468 141.91C53.1683 142.092 48.4719 143.001 45.295 144.092C42.118 145.092 38.2964 146.728 36.777 147.728C35.2576 148.728 33.7381 150.001 33.4158 150.546C33.0935 151.183 32.6331 153.273 32.4029 155.273C32.1727 157.273 31.5741 161.364 31.0216 164.364C30.5151 167.364 30.1007 170.637 30.1007 171.637C30.1007 173.364 30.2849 173.455 33.8763 172.728C35.9942 172.364 39.7237 171.819 42.2101 171.364C46.3079 170.819 46.6763 170.91 46.6763 172.364C46.6763 173.183 47.0446 174.455 47.505 175.092C47.9655 175.637 48.7022 177.183 49.1166 178.455C49.8532 180.637 49.8072 180.91 48.0576 186.001C46.7223 189.728 45.8475 191.273 44.9727 191.637C44.236 191.819 41.7036 192.637 39.3094 193.455C36.9151 194.183 33.1856 195.455 31.0216 196.273C28.8576 197.092 26.5554 197.819 25.8647 198.092C25.1281 198.273 24.4835 198.728 24.3914 199.183C24.2532 199.546 23.6086 202.728 22.918 206.183C22.0892 210.364 21.6748 214.001 21.7209 216.91C21.7669 219.273 21.4906 222.364 21.1223 223.91C20.754 225.455 19.9712 227.092 19.4187 227.637C18.5899 228.455 17.8072 228.364 16.1496 227.455C14.3079 226.364 13.6633 225.455 12.5583 222.092C11.8216 219.819 11.0849 216.364 10.9468 214.364C10.8086 212.001 11.0388 208.546 12.6043 198.455L11.3612 196.91C10.7165 196.001 9.65755 193.273 9.05899 190.728C8.50647 188.273 8 185.001 8 183.455C8 181.91 8.41439 179.455 8.92086 177.91C9.47338 176.364 10.5784 174.455 11.4532 173.637C12.3281 172.819 13.4791 172.092 13.9856 172.092C14.4921 172.092 15.413 172.728 16.0576 173.455C16.7022 174.183 17.3007 174.546 17.3928 174.183C17.4849 173.728 18.0374 171.183 18.5439 168.455C19.0964 165.728 19.5108 162.728 19.5108 161.91C19.5108 160.91 18.9583 159.91 18.2676 159.364C17.5309 158.91 16.2417 156.546 15.3669 154.183C14.1698 150.91 13.7554 148.728 13.6633 145.546C13.5712 142.364 13.7554 140.637 14.354 139.364C14.8144 138.364 18.1755 135.728 22.5036 132.91C26.5554 130.364 30.2849 128.092 30.7914 127.819C31.2978 127.637 33.0475 126.637 34.705 125.637Z" stroke="white" stroke-width="16" mask="url(#path-6-outside-1_25_1741)"/>
<path d="M113.439 123.001C117.122 122.092 120.852 121.092 121.727 120.819C122.601 120.637 124.996 120.637 127.022 120.819C130.613 121.273 130.751 121.364 132.685 125.092C133.79 127.183 134.987 130.001 135.355 131.364C135.724 132.819 136 134.819 136 135.91C135.954 137.092 135.632 138.819 135.171 139.819C134.757 140.819 133.422 142.183 132.224 142.728C130.981 143.364 129.047 143.91 127.85 143.91C126.607 143.91 122.555 144.728 118.734 145.728C114.958 146.728 111.827 147.637 111.781 147.728C111.781 147.91 110.814 152.546 109.617 158.001C108.42 163.455 107.453 168.273 107.453 168.637C107.453 169.092 106.809 172.092 106.026 175.455C105.243 178.91 104.184 183.273 103.724 185.273C103.263 187.273 102.25 191.819 101.514 195.273C100.777 198.728 99.9482 203.819 99.6719 206.364C99.3957 209.001 99.1655 211.728 99.1655 212.273C99.2115 212.91 100.086 215.001 103.079 220.183L102.527 223.91C102.066 226.728 101.56 227.819 100.317 228.91C99.4417 229.637 98.2446 230.273 97.6921 230.273C97.0935 230.273 95.436 229.001 94.0086 227.364C92.3971 225.546 91.3842 223.728 91.3381 222.819C91.3381 221.91 91.2 221.001 91.0158 220.819C90.7856 220.637 90.2331 217.637 89.7727 214.273C89.1281 209.637 88.9439 206.364 89.1281 201.637C89.3122 197.092 90.141 191.273 91.9367 181.637C93.2719 174.183 95.1597 164.91 96.0806 161.183C97.0014 157.455 97.7842 153.546 97.7842 152.546C97.7842 150.91 97.6 150.819 96.3108 151.455C95.482 151.819 92.2129 152.364 83.2806 153.273L81.7612 150.637C80.8403 149.092 79.8734 146.001 79.3209 143.273C78.8604 140.637 78.446 137.364 78.446 136.001C78.446 134.546 78.6763 132.364 78.9986 131.001C79.5971 128.546 79.6432 128.455 83.9712 128.455C86.3655 128.455 91.3381 127.819 95.0216 127.092C100.777 125.91 101.79 125.546 102.296 123.91C102.573 122.91 103.263 122.092 103.77 122.092C104.276 122.092 105.151 122.728 105.75 123.455C106.671 124.637 107.453 124.637 113.439 123.001Z" stroke="white" stroke-width="16" mask="url(#path-6-outside-1_25_1741)"/>
<mask id="path-7-outside-2_25_1741" maskUnits="userSpaceOnUse" x="96.0217" y="44.4009" width="134.027" height="183.166" fill="black">
<rect fill="white" x="96.0217" y="44.4009" width="134.027" height="183.166"/>
<path d="M122.278 73.595C123.061 73.1378 126.966 72.0574 131.03 71.3245L130.964 71.3169C136.78 70.3494 157.382 56.976 165.652 58.2691C172.757 59.3168 177.261 60.4999 179.791 62.1113C181.837 63.3369 184.986 65.8979 186.747 67.8582C189.335 70.6828 190.192 72.4281 191.009 76.8013C191.637 79.9459 192.947 83.4989 194.196 85.29C195.748 87.3357 196.676 90.1861 197.243 94.4205C197.715 97.7663 197.955 101.963 197.806 103.81C197.592 105.65 196.118 109.756 194.381 113.283C192.722 116.709 188.629 122.814 185.377 126.822C182.046 130.931 177.36 135.869 174.936 137.89C172.512 139.911 169.399 142.73 168.045 144.107C166.756 145.493 165.548 147.326 165.472 147.976C165.384 148.733 162.572 151.806 159.315 154.717C155.993 157.621 152.036 161.986 150.569 164.337C148.127 168.221 147.92 168.855 148.826 169.619C149.442 170.02 153.392 170.261 157.614 169.876C161.824 169.598 171.902 168.445 174.579 167.661C177.257 166.876 181.32 166.143 183.726 165.985C186.131 165.826 189.581 165.241 191.514 164.589C193.381 163.929 196.491 163.414 198.401 163.527C201.631 163.684 201.933 163.939 203.349 167.724C204.156 169.902 204.836 173.162 204.818 175.025C204.8 176.887 205.307 179.36 205.888 180.634C206.469 181.908 206.858 184.257 206.604 185.873C206.402 187.605 205.576 190.141 204.745 191.58C203.967 193.134 202.432 194.93 201.297 195.565C200.214 196.317 198.569 196.783 197.522 196.661C196.553 196.438 195.222 197.051 194.585 197.964C193.961 198.769 191.324 199.778 188.697 200.13C186.148 200.471 177.894 202.109 170.09 203.658L169.372 203.8C161.35 205.498 141.466 209.361 137.78 209.699C132.159 210.141 137.191 209.63 132.383 207.644C129.279 206.404 125.845 204.578 124.899 203.59C123.652 202.348 122.764 199.722 121.908 195.124C120.81 189.183 120.828 187.32 121.838 178.663C122.456 173.36 123.384 167.106 123.91 164.864C124.618 162.204 132.631 156.104 136.893 149.69C140.35 144.499 147.734 136.986 150.569 133.148C153.468 129.318 158.309 123.63 161.239 120.681C164.234 117.739 167.225 115.775 169.372 113.283C171.519 110.791 173.076 107.461 175.898 102.901C178.721 98.3416 179.49 98.8228 179.566 98.1735C179.667 97.3077 174.869 89.2894 173.076 88.7512C171.425 88.12 168.024 87.7235 165.434 87.7508C162.858 87.6698 141.03 101.888 137.673 102.813C132.122 104.359 130.985 104.446 126.401 102.815C123.088 101.661 120.99 100.319 120.356 98.9291C119.828 97.7706 119.396 94.6489 119.384 91.9053C119.373 89.1616 119.666 84.3694 119.954 81.3316C120.383 77.6521 119.469 78.0941 120.635 75.4877C121.632 73.1907 121.495 74.0523 122.278 73.595Z"/>
</mask>
<path d="M122.278 73.595C123.061 73.1378 126.966 72.0574 131.03 71.3245L130.964 71.3169C136.78 70.3494 157.382 56.976 165.652 58.2691C172.757 59.3168 177.261 60.4999 179.791 62.1113C181.837 63.3369 184.986 65.8979 186.747 67.8582C189.335 70.6828 190.192 72.4281 191.009 76.8013C191.637 79.9459 192.947 83.4989 194.196 85.29C195.748 87.3357 196.676 90.1861 197.243 94.4205C197.715 97.7663 197.955 101.963 197.806 103.81C197.592 105.65 196.118 109.756 194.381 113.283C192.722 116.709 188.629 122.814 185.377 126.822C182.046 130.931 177.36 135.869 174.936 137.89C172.512 139.911 169.399 142.73 168.045 144.107C166.756 145.493 165.548 147.326 165.472 147.976C165.384 148.733 162.572 151.806 159.315 154.717C155.993 157.621 152.036 161.986 150.569 164.337C148.127 168.221 147.92 168.855 148.826 169.619C149.442 170.02 153.392 170.261 157.614 169.876C161.824 169.598 171.902 168.445 174.579 167.661C177.257 166.876 181.32 166.143 183.726 165.985C186.131 165.826 189.581 165.241 191.514 164.589C193.381 163.929 196.491 163.414 198.401 163.527C201.631 163.684 201.933 163.939 203.349 167.724C204.156 169.902 204.836 173.162 204.818 175.025C204.8 176.887 205.307 179.36 205.888 180.634C206.469 181.908 206.858 184.257 206.604 185.873C206.402 187.605 205.576 190.141 204.745 191.58C203.967 193.134 202.432 194.93 201.297 195.565C200.214 196.317 198.569 196.783 197.522 196.661C196.553 196.438 195.222 197.051 194.585 197.964C193.961 198.769 191.324 199.778 188.697 200.13C186.148 200.471 177.894 202.109 170.09 203.658L169.372 203.8C161.35 205.498 141.466 209.361 137.78 209.699C132.159 210.141 137.191 209.63 132.383 207.644C129.279 206.404 125.845 204.578 124.899 203.59C123.652 202.348 122.764 199.722 121.908 195.124C120.81 189.183 120.828 187.32 121.838 178.663C122.456 173.36 123.384 167.106 123.91 164.864C124.618 162.204 132.631 156.104 136.893 149.69C140.35 144.499 147.734 136.986 150.569 133.148C153.468 129.318 158.309 123.63 161.239 120.681C164.234 117.739 167.225 115.775 169.372 113.283C171.519 110.791 173.076 107.461 175.898 102.901C178.721 98.3416 179.49 98.8228 179.566 98.1735C179.667 97.3077 174.869 89.2894 173.076 88.7512C171.425 88.12 168.024 87.7235 165.434 87.7508C162.858 87.6698 141.03 101.888 137.673 102.813C132.122 104.359 130.985 104.446 126.401 102.815C123.088 101.661 120.99 100.319 120.356 98.9291C119.828 97.7706 119.396 94.6489 119.384 91.9053C119.373 89.1616 119.666 84.3694 119.954 81.3316C120.383 77.6521 119.469 78.0941 120.635 75.4877C121.632 73.1907 121.495 74.0523 122.278 73.595Z" fill="#221111"/>
<path d="M131.03 71.3245L132.45 79.1975L131.956 63.3783L131.03 71.3245ZM122.278 73.595L126.313 80.5027L126.313 80.5027L122.278 73.595ZM120.635 75.4877L127.938 78.7541L127.956 78.7138L127.974 78.6733L120.635 75.4877ZM119.954 81.3316L112.008 80.4053L111.998 80.491L111.99 80.577L119.954 81.3316ZM120.356 98.9291L113.076 102.247L113.076 102.247L120.356 98.9291ZM126.401 102.815L129.083 95.2778L129.058 95.2688L129.032 95.26L126.401 102.815ZM137.673 102.813L135.548 95.1L135.537 95.1031L135.526 95.1061L137.673 102.813ZM165.434 87.7508L165.183 95.7468L165.351 95.7521L165.519 95.7503L165.434 87.7508ZM173.076 88.7512L170.218 96.2234L170.494 96.3289L170.777 96.4138L173.076 88.7512ZM161.239 120.681L155.633 114.973L155.598 115.007L155.563 115.042L161.239 120.681ZM150.569 133.148L144.19 128.319L144.162 128.357L144.133 128.395L150.569 133.148ZM136.893 149.69L130.234 145.256L130.23 145.262L136.893 149.69ZM123.91 164.864L116.18 162.806L116.149 162.92L116.122 163.035L123.91 164.864ZM121.908 195.124L114.041 196.578L114.043 196.59L121.908 195.124ZM124.899 203.59L130.678 198.058L130.612 197.989L130.544 197.922L124.899 203.59ZM132.383 207.644L135.438 200.25L135.394 200.232L135.35 200.214L132.383 207.644ZM137.78 209.699L138.406 217.674L138.458 217.67L138.511 217.666L137.78 209.699ZM169.372 203.8L167.815 195.953L167.765 195.963L167.716 195.973L169.372 203.8ZM170.09 203.658L171.647 211.505L171.647 211.505L170.09 203.658ZM188.697 200.13L189.759 208.059L189.759 208.059L188.697 200.13ZM194.585 197.964L200.906 202.867L201.031 202.707L201.147 202.541L194.585 197.964ZM197.522 196.661L195.73 204.458L196.159 204.556L196.596 204.607L197.522 196.661ZM201.297 195.565L197.388 188.585L197.051 188.774L196.734 188.994L201.297 195.565ZM204.745 191.58L197.817 187.579L197.698 187.786L197.591 188L204.745 191.58ZM206.604 185.873L198.701 184.627L198.676 184.787L198.657 184.947L206.604 185.873ZM203.349 167.724L210.85 164.944L210.846 164.933L210.842 164.922L203.349 167.724ZM198.401 163.527L197.929 171.513L197.97 171.515L198.012 171.518L198.401 163.527ZM191.514 164.589L194.072 172.169L194.126 172.151L194.18 172.132L191.514 164.589ZM174.579 167.661L172.329 159.984L172.329 159.984L174.579 167.661ZM157.614 169.876L157.089 161.893L156.988 161.899L156.887 161.909L157.614 169.876ZM148.826 169.619L143.668 175.734L144.047 176.054L144.463 176.325L148.826 169.619ZM150.569 164.337L157.341 168.596L157.348 168.584L157.356 168.573L150.569 164.337ZM159.315 154.717L164.58 160.741L164.613 160.711L164.647 160.682L159.315 154.717ZM168.045 144.107L162.339 138.5L162.262 138.578L162.187 138.659L168.045 144.107ZM185.377 126.822L179.164 121.782L179.161 121.785L185.377 126.822ZM194.381 113.283L187.204 109.748L187.193 109.772L187.181 109.796L194.381 113.283ZM197.806 103.81L205.752 104.736L205.769 104.595L205.78 104.453L197.806 103.81ZM197.243 94.4205L189.314 95.4827L189.318 95.5103L189.321 95.5379L197.243 94.4205ZM194.196 85.29L187.636 89.8683L187.727 89.9985L187.823 90.1249L194.196 85.29ZM191.009 76.8013L183.145 78.2692L183.154 78.3187L183.164 78.368L191.009 76.8013ZM186.747 67.8582L180.795 73.2038L180.822 73.2334L180.848 73.2628L186.747 67.8582ZM179.791 62.1113L175.495 68.8595L175.586 68.9177L175.679 68.9734L179.791 62.1113ZM165.652 58.2691L164.416 66.1731L164.451 66.1785L164.485 66.1835L165.652 58.2691ZM130.964 71.3169L129.652 63.4254L130.038 79.2631L130.964 71.3169ZM129.61 63.4515C127.362 63.8569 125.161 64.3572 123.376 64.8296C122.487 65.0649 121.641 65.3093 120.911 65.549C120.425 65.7082 119.268 66.0887 118.243 66.6874L126.313 80.5027C126.058 80.6518 125.864 80.7428 125.789 80.7771C125.7 80.8177 125.647 80.8383 125.645 80.8391C125.645 80.8393 125.721 80.8097 125.898 80.7519C126.247 80.6375 126.778 80.4802 127.471 80.2967C128.851 79.9314 130.634 79.525 132.45 79.1975L129.61 63.4515ZM118.243 66.6874C119.083 66.1963 119.916 65.9727 120.475 65.8765C121.119 65.7656 118.897 65.9633 117.017 67.2505C115.322 68.4112 114.48 69.9181 114.222 70.3794C113.873 71.0031 113.561 71.6934 113.297 72.302L127.974 78.6733C128.208 78.1335 128.253 78.0701 128.183 78.195C128.141 78.2711 127.978 78.5574 127.693 78.9227C127.394 79.3051 126.866 79.8982 126.057 80.4524C125.181 81.052 124.323 81.3697 123.662 81.5391C123.382 81.6107 123.166 81.6481 123.106 81.6583C123.077 81.6634 123.052 81.6674 123.074 81.6638C123.085 81.6621 123.133 81.6543 123.188 81.6447C123.456 81.5986 123.966 81.5014 124.583 81.293C125.197 81.0855 125.774 80.8181 126.313 80.5027L118.243 66.6874ZM113.333 72.2212C112.937 73.1052 112.538 74.1195 112.288 75.2477C112.004 76.5244 111.992 77.5721 112.026 78.3508C112.067 79.3092 112.131 79.3525 112.008 80.4053L127.9 82.2579C128.045 81.0153 128.089 80.0063 128.077 79.1227C128.071 78.6925 128.052 78.3349 128.036 78.0692C128.03 77.9662 128.02 77.8091 128.017 77.7672C128.015 77.7318 128.013 77.7075 128.012 77.6892C128.012 77.6804 128.011 77.6741 128.011 77.6698C128.011 77.6654 128.011 77.6635 128.011 77.6636C128.015 77.7671 128.021 78.2066 127.907 78.7181C127.826 79.0811 127.751 79.1733 127.938 78.7541L113.333 72.2212ZM111.99 80.577C111.689 83.747 111.371 88.828 111.385 91.9393L127.384 91.8712C127.374 89.4952 127.643 84.9918 127.918 82.0862L111.99 80.577ZM111.385 91.9393C111.392 93.6806 111.53 95.5018 111.752 97.1076C111.935 98.4322 112.289 100.519 113.076 102.247L127.635 95.6112C127.83 96.0387 127.847 96.2282 127.779 95.9315C127.73 95.7194 127.665 95.3772 127.601 94.9156C127.472 93.985 127.389 92.8736 127.384 91.8712L111.385 91.9393ZM113.076 102.247C114.311 104.956 116.461 106.671 118.052 107.693C119.774 108.798 121.754 109.668 123.769 110.37L129.032 95.26C128.406 95.0418 127.897 94.8354 127.495 94.6501C127.088 94.4626 126.832 94.3161 126.695 94.2282C126.55 94.1348 126.609 94.153 126.773 94.318C126.933 94.4789 127.31 94.8973 127.635 95.6112L113.076 102.247ZM123.719 110.352C126.124 111.208 128.683 112.027 131.732 112.005C134.525 111.985 137.223 111.243 139.82 110.519L135.526 95.1061C132.573 95.929 131.926 96.0034 131.617 96.0056C131.563 96.006 131.262 96.0533 129.083 95.2778L123.719 110.352ZM139.798 110.525C141.142 110.155 142.56 109.436 143.397 109.003C144.468 108.45 145.719 107.754 147.033 107.004C149.657 105.505 152.864 103.594 155.914 101.793C159.025 99.956 161.982 98.2282 164.298 96.9708C165.469 96.3357 166.343 95.8929 166.925 95.6311C167.223 95.497 167.311 95.4705 167.246 95.4921C167.21 95.504 167.043 95.5585 166.781 95.6135C166.567 95.6585 165.98 95.7718 165.183 95.7468L165.686 79.7547C164.027 79.7026 162.654 80.1586 162.224 80.3007C161.554 80.5221 160.907 80.7937 160.354 81.0424C159.236 81.5462 157.956 82.2082 156.665 82.909C154.059 84.3236 150.866 86.1928 147.779 88.0156C144.63 89.8747 141.589 91.687 139.096 93.1112C137.851 93.8224 136.826 94.3889 136.051 94.7896C135.042 95.311 135.043 95.2391 135.548 95.1L139.798 110.525ZM165.519 95.7503C166.416 95.7409 167.549 95.8074 168.603 95.9408C169.121 96.0063 169.557 96.0802 169.889 96.1505C170.257 96.2286 170.338 96.2692 170.218 96.2234L175.933 81.279C174.201 80.6164 172.178 80.2656 170.611 80.0673C168.905 79.8515 167.042 79.7334 165.35 79.7512L165.519 95.7503ZM170.777 96.4138C170.306 96.2724 169.93 96.1069 169.662 95.972C169.39 95.8355 169.177 95.7051 169.028 95.6063C168.742 95.4165 168.569 95.264 168.521 95.2209C168.463 95.1687 168.457 95.1575 168.503 95.2073C168.547 95.2538 168.617 95.3325 168.714 95.4488C168.911 95.6855 169.158 96.0062 169.444 96.4048C169.727 96.7981 170.022 97.2333 170.315 97.6862C170.913 98.6094 171.432 99.5003 171.765 100.134C171.94 100.466 172.001 100.61 171.994 100.592C171.988 100.578 171.97 100.533 171.944 100.463C171.921 100.396 171.878 100.272 171.83 100.104C171.786 99.9481 171.71 99.6577 171.652 99.2747C171.622 99.0773 171.59 98.8128 171.576 98.4973C171.561 98.1887 171.56 97.7583 171.62 97.2471L187.512 99.0998C187.713 97.3745 187.294 95.9897 187.229 95.7581C187.082 95.2397 186.91 94.7943 186.785 94.4921C186.528 93.8681 186.217 93.2388 185.928 92.6892C185.334 91.5593 184.561 90.2497 183.747 88.9928C182.945 87.7525 181.987 86.3847 181.008 85.2087C180.525 84.629 179.919 83.9529 179.226 83.3293C178.731 82.8834 177.368 81.6868 175.375 81.0887L170.777 96.4138ZM171.62 97.2471C171.716 96.4227 171.982 95.3909 172.593 94.3432C173.139 93.4089 173.748 92.8362 173.923 92.6744C174.02 92.5849 174.089 92.5271 174.07 92.5428C174.064 92.5478 174.057 92.5543 174.03 92.577C174.007 92.596 173.973 92.6253 173.934 92.6581C173.765 92.8017 173.521 93.0138 173.231 93.2917C172.038 94.4334 170.734 96.045 169.096 98.6906L182.7 107.112C183.885 105.198 184.378 104.77 184.294 104.85C184.281 104.863 184.271 104.871 184.299 104.847C184.31 104.838 184.322 104.828 184.344 104.809C184.361 104.794 184.396 104.765 184.43 104.736C184.492 104.683 184.633 104.564 184.793 104.415C185.094 104.136 185.799 103.459 186.412 102.409C187.091 101.245 187.397 100.087 187.512 99.0998L171.62 97.2471ZM169.096 98.6906C167.635 101.051 166.362 103.326 165.49 104.805C164.521 106.448 163.893 107.386 163.311 108.061L175.432 118.505C176.997 116.688 178.221 114.715 179.273 112.931C180.422 110.981 181.339 109.312 182.7 107.112L169.096 98.6906ZM163.311 108.061C162.705 108.765 161.877 109.51 160.472 110.692C159.185 111.776 157.403 113.235 155.633 114.973L166.844 126.388C168.069 125.185 169.281 124.191 170.774 122.934C172.15 121.776 173.892 120.293 175.432 118.505L163.311 108.061ZM155.563 115.042C152.324 118.303 147.251 124.277 144.19 128.319L156.947 137.977C159.686 134.359 164.294 128.957 166.914 126.319L155.563 115.042ZM144.133 128.395C142.976 129.963 140.781 132.403 137.945 135.642C135.366 138.587 132.302 142.15 130.234 145.256L143.552 154.123C144.941 152.038 147.297 149.249 149.983 146.181C152.412 143.407 155.327 140.172 157.004 137.901L144.133 128.395ZM130.23 145.262C128.601 147.714 126.105 150.299 123.375 153.065C122.131 154.326 120.733 155.733 119.623 156.998C119.059 157.642 118.436 158.398 117.882 159.211C117.39 159.935 116.608 161.194 116.18 162.806L131.641 166.921C131.389 167.868 131.013 168.355 131.111 168.211C131.148 168.157 131.3 167.949 131.653 167.547C132.379 166.72 133.383 165.703 134.763 164.304C137.282 161.752 140.924 158.08 143.556 154.118L130.23 145.262ZM116.122 163.035C115.478 165.777 114.508 172.45 113.891 177.736L129.784 179.589C130.404 174.269 131.289 168.435 131.698 166.693L116.122 163.035ZM113.891 177.736C113.394 182.007 113.075 185.096 113.083 187.935C113.091 190.945 113.463 193.451 114.041 196.578L129.775 193.671C129.255 190.857 129.087 189.46 129.083 187.889C129.078 186.147 129.272 183.976 129.784 179.589L113.891 177.736ZM114.043 196.59C114.5 199.045 115.024 201.308 115.705 203.256C116.355 205.114 117.384 207.397 119.254 209.259L130.544 197.922C131.166 198.541 131.128 198.89 130.808 197.975C130.52 197.15 130.172 195.802 129.772 193.659L114.043 196.59ZM119.121 209.123C120.583 210.65 122.764 211.88 124.039 212.566C125.673 213.447 127.584 214.342 129.417 215.074L135.35 200.214C134.078 199.706 132.72 199.069 131.625 198.479C131.078 198.184 130.671 197.942 130.412 197.772C130.038 197.528 130.267 197.629 130.678 198.058L119.121 209.123ZM129.328 215.038C130.186 215.392 129.46 215.25 128.554 214.256C127.985 213.632 127.449 212.79 127.113 211.755C126.867 210.999 126.741 209.897 126.856 210.706C126.887 210.926 127.016 211.882 127.512 212.979C128.101 214.286 129.064 215.5 130.396 216.399C131.575 217.194 132.697 217.506 133.346 217.644C134.008 217.785 134.571 217.822 134.901 217.836C135.54 217.863 136.177 217.83 136.607 217.805C137.102 217.775 137.709 217.729 138.406 217.674L137.153 201.724C136.445 201.779 135.98 201.814 135.655 201.833C135.497 201.843 135.414 201.846 135.381 201.847C135.338 201.848 135.422 201.844 135.582 201.851C135.714 201.856 136.124 201.877 136.666 201.992C137.194 202.104 138.229 202.383 139.344 203.135C139.925 203.527 140.485 204.019 140.984 204.62C141.481 205.218 141.839 205.83 142.095 206.397C142.343 206.947 142.483 207.428 142.564 207.763C142.643 208.091 142.682 208.349 142.697 208.458C142.71 208.55 142.721 208.646 142.712 208.571C142.708 208.536 142.693 208.408 142.669 208.251C142.618 207.912 142.523 207.406 142.33 206.812C142.135 206.213 141.869 205.61 141.52 205.019C141.176 204.436 140.785 203.923 140.375 203.474C139.577 202.599 138.702 201.961 137.928 201.489C137.144 201.011 136.302 200.607 135.438 200.25L129.328 215.038ZM138.511 217.666C140.838 217.452 147.216 216.3 153.44 215.119C159.91 213.892 166.945 212.491 171.028 211.627L167.716 195.973C163.777 196.807 156.858 198.186 150.459 199.399C143.815 200.659 138.408 201.608 137.049 201.732L138.511 217.666ZM170.929 211.647L171.647 211.505L168.533 195.811L167.815 195.953L170.929 211.647ZM171.647 211.505C179.662 209.914 187.536 208.357 189.759 208.059L187.635 192.2C184.76 192.585 176.126 194.304 168.532 195.811L171.647 211.505ZM189.759 208.059C191.666 207.803 193.562 207.318 195.184 206.714C195.994 206.412 196.874 206.03 197.717 205.551C198.384 205.174 199.771 204.331 200.906 202.867L188.264 193.061C188.513 192.739 188.748 192.496 188.927 192.325C189.109 192.152 189.268 192.021 189.385 191.931C189.613 191.756 189.776 191.661 189.825 191.633C189.916 191.582 189.856 191.624 189.601 191.719C189.367 191.807 189.057 191.905 188.697 191.995C188.338 192.085 187.974 192.155 187.635 192.2L189.759 208.059ZM201.147 202.541C200.512 203.451 199.779 203.927 199.205 204.185C198.7 204.412 197.451 204.853 195.73 204.458L199.314 188.864C196.624 188.246 194.226 188.882 192.653 189.588C191.012 190.325 189.295 191.564 188.024 193.387L201.147 202.541ZM196.596 204.607C198.54 204.834 200.342 204.494 201.611 204.128C202.961 203.739 204.473 203.099 205.859 202.137L196.734 188.994C196.912 188.87 197.032 188.813 197.073 188.794C197.12 188.773 197.151 188.762 197.181 188.754C197.207 188.746 197.291 188.723 197.446 188.704C197.577 188.688 197.931 188.655 198.448 188.715L196.596 204.607ZM205.205 202.546C206.951 201.568 208.333 200.162 209.214 199.141C210.184 198.016 211.162 196.634 211.899 195.16L197.591 188C197.591 187.999 197.587 188.006 197.58 188.02C197.572 188.034 197.562 188.052 197.548 188.076C197.519 188.124 197.48 188.185 197.431 188.257C197.331 188.404 197.214 188.556 197.095 188.694C196.973 188.835 196.892 188.911 196.876 188.927C196.87 188.932 196.901 188.904 196.97 188.852C197.035 188.804 197.175 188.705 197.388 188.585L205.205 202.546ZM211.673 195.58C213.076 193.15 214.228 189.56 214.55 186.799L198.657 184.947C198.636 185.127 198.533 185.655 198.303 186.359C198.199 186.679 198.09 186.971 197.988 187.21C197.939 187.328 197.896 187.421 197.863 187.489C197.829 187.56 197.812 187.587 197.817 187.579L211.673 195.58ZM214.506 187.119C214.8 185.257 214.684 183.406 214.476 181.973C214.268 180.547 213.868 178.852 213.168 177.316L198.609 183.952C198.562 183.849 198.541 183.789 198.539 183.783C198.536 183.773 198.542 183.792 198.555 183.841C198.583 183.942 198.616 184.096 198.643 184.278C198.669 184.461 198.681 184.615 198.683 184.719C198.684 184.768 198.682 184.789 198.683 184.782C198.683 184.777 198.686 184.723 198.701 184.627L214.506 187.119ZM213.168 177.316C213.227 177.446 213.21 177.433 213.151 177.232C213.098 177.054 213.037 176.808 212.98 176.517C212.857 175.887 212.815 175.359 212.818 175.103L196.819 174.947C196.791 177.797 197.472 181.457 198.609 183.952L213.168 177.316ZM212.818 175.103C212.848 171.982 211.881 167.726 210.85 164.944L195.847 170.503C196.078 171.127 196.348 172.078 196.554 173.089C196.653 173.576 196.725 174.017 196.769 174.379C196.791 174.559 196.805 174.701 196.812 174.808C196.819 174.917 196.818 174.961 196.819 174.947L212.818 175.103ZM210.842 164.922C210.502 164.012 210.085 162.913 209.596 161.931C209.092 160.918 208.236 159.441 206.729 158.163C203.638 155.542 199.773 155.584 198.79 155.536L198.012 171.518C198.384 171.536 198.605 171.55 198.751 171.564C198.899 171.577 198.856 171.58 198.707 171.549C198.546 171.515 198.2 171.431 197.761 171.235C197.298 171.029 196.823 170.741 196.382 170.367C195.531 169.645 195.218 168.951 195.27 169.056C195.285 169.087 195.341 169.205 195.45 169.473C195.557 169.737 195.686 170.071 195.855 170.526L210.842 164.922ZM198.873 155.541C195.73 155.355 191.549 156.091 188.848 157.046L194.18 172.132C194.522 172.011 195.263 171.816 196.188 171.67C196.62 171.602 197.022 171.556 197.36 171.532C197.527 171.519 197.663 171.514 197.768 171.512C197.819 171.511 197.859 171.511 197.888 171.512C197.916 171.512 197.93 171.513 197.929 171.513L198.873 155.541ZM188.956 157.009C187.878 157.372 185.159 157.873 183.2 158.002L184.251 173.967C187.104 173.779 191.284 173.11 194.072 172.169L188.956 157.009ZM183.2 158.002C180.159 158.202 175.516 159.049 172.329 159.984L176.829 175.338C178.997 174.702 182.482 174.084 184.251 173.967L183.2 158.002ZM172.329 159.984C172.348 159.978 172.305 159.991 172.181 160.02C172.063 160.047 171.903 160.082 171.697 160.123C171.282 160.205 170.754 160.298 170.122 160.4C168.859 160.603 167.316 160.816 165.683 161.02C162.389 161.43 158.984 161.768 157.089 161.893L158.14 177.858C160.455 177.706 164.193 177.329 167.66 176.897C170.852 176.5 174.744 175.949 176.83 175.338L172.329 159.984ZM156.887 161.909C155.122 162.07 153.426 162.097 152.18 162.048C151.547 162.023 151.146 161.983 150.971 161.959C150.875 161.946 150.961 161.953 151.164 162.004C151.268 162.03 151.483 162.088 151.764 162.192C152.005 162.282 152.55 162.498 153.188 162.913L144.463 176.325C145.703 177.131 146.912 177.433 147.25 177.518C147.803 177.657 148.332 177.746 148.76 177.806C149.631 177.927 150.596 177.998 151.556 178.036C153.495 178.112 155.885 178.067 158.342 177.842L156.887 161.909ZM153.983 163.503C154.191 163.678 155.421 164.717 156.021 166.67C156.629 168.653 156.184 170.214 156.04 170.652C155.909 171.049 155.819 171.134 156.105 170.627C156.354 170.186 156.738 169.556 157.341 168.596L143.796 160.079C142.782 161.692 141.464 163.762 140.844 165.644C140.456 166.822 139.977 168.927 140.725 171.365C141.464 173.773 143.008 175.178 143.668 175.734L153.983 163.503ZM157.356 168.573C158.243 167.151 161.561 163.379 164.58 160.741L154.051 148.693C150.425 151.862 145.83 156.82 143.782 160.102L157.356 168.573ZM164.647 160.682C166.442 159.077 168.157 157.392 169.487 155.935C170.141 155.22 170.801 154.453 171.353 153.71C171.623 153.346 171.964 152.859 172.28 152.3C172.462 151.979 173.211 150.676 173.418 148.902L157.526 147.049C157.634 146.123 157.886 145.445 158.008 145.143C158.149 144.795 158.283 144.547 158.351 144.427C158.484 144.192 158.565 144.092 158.509 144.169C158.407 144.306 158.144 144.63 157.676 145.142C156.765 146.139 155.445 147.446 153.984 148.752L164.647 160.682ZM173.418 148.902C173.367 149.343 173.285 149.694 173.224 149.922C173.16 150.159 173.095 150.345 173.049 150.471C172.959 150.713 172.883 150.864 172.864 150.903C172.839 150.952 172.833 150.958 172.857 150.918C172.879 150.881 172.916 150.821 172.971 150.739C173.082 150.571 173.23 150.364 173.404 150.143C173.577 149.922 173.749 149.72 173.902 149.556L162.187 138.659C161.23 139.688 160.337 140.839 159.636 141.896C159.286 142.425 158.912 143.036 158.586 143.682C158.387 144.075 157.72 145.386 157.526 147.049L173.418 148.902ZM173.75 149.715C174.852 148.594 177.748 145.962 180.059 144.035L169.813 131.746C167.277 133.861 163.946 136.865 162.339 138.5L173.75 149.715ZM180.059 144.035C183.038 141.551 188.093 136.176 191.592 131.859L179.161 121.785C175.999 125.687 171.681 130.188 169.813 131.746L180.059 144.035ZM191.589 131.862C195.068 127.575 199.561 120.941 201.581 116.77L187.181 109.796C185.882 112.478 182.19 118.053 179.164 121.782L191.589 131.862ZM201.558 116.818C202.562 114.779 203.48 112.597 204.19 110.628C204.832 108.848 205.532 106.63 205.752 104.736L189.86 102.884C189.876 102.745 189.867 102.89 189.72 103.416C189.589 103.884 189.395 104.489 189.139 105.199C188.625 106.625 187.938 108.259 187.204 109.748L201.558 116.818ZM205.78 104.453C205.999 101.747 205.669 96.8803 205.165 93.3031L189.321 95.5379C189.761 98.6522 189.912 102.178 189.832 103.167L205.78 104.453ZM205.172 93.3583C204.539 88.6301 203.366 84.1409 200.57 80.4551L187.823 90.1249C188.13 90.5305 188.813 91.742 189.314 95.4827L205.172 93.3583ZM200.757 80.7117C200.764 80.7221 200.735 80.6816 200.676 80.5769C200.618 80.4748 200.542 80.3339 200.454 80.1515C200.274 79.7822 200.071 79.3101 199.864 78.7541C199.442 77.6262 199.079 76.3634 198.854 75.2345L183.164 78.368C183.899 82.052 185.501 86.8087 187.636 89.8683L200.757 80.7117ZM198.873 75.3333C198.419 72.9005 197.846 70.567 196.757 68.2932C195.636 65.9528 194.195 64.145 192.645 62.4536L180.848 73.2628C181.887 74.396 182.168 74.8732 182.327 75.2048C182.518 75.6031 182.782 76.3289 183.145 78.2692L198.873 75.3333ZM192.699 62.5126C190.394 59.947 186.622 56.8781 183.904 55.2491L175.679 68.9734C177.051 69.7957 179.578 71.8487 180.795 73.2038L192.699 62.5126ZM184.088 55.363C179.938 52.7204 173.811 51.3857 166.819 50.3547L164.485 66.1835C171.703 67.2479 174.584 68.2794 175.495 68.8595L184.088 55.363ZM166.888 50.3652C162.743 49.7171 158.289 50.9248 154.977 52.055C151.335 53.298 147.46 55.044 143.938 56.7271C142.157 57.5784 140.403 58.444 138.773 59.2493C137.122 60.0645 135.613 60.8095 134.237 61.4642C132.852 62.1235 131.713 62.6372 130.807 63.0007C129.792 63.4076 129.492 63.452 129.652 63.4254L132.277 79.2084C135.06 78.7454 138.514 77.1484 141.112 75.9121C142.614 75.1973 144.235 74.3965 145.857 73.5955C147.499 72.7846 149.163 71.9635 150.837 71.1635C154.226 69.5439 157.417 68.1285 160.145 67.1975C163.204 66.1536 164.426 66.1746 164.416 66.1731L166.888 50.3652ZM130.038 79.2631L130.104 79.2707L131.956 63.3783L131.891 63.3707L130.038 79.2631Z" fill="white" mask="url(#path-7-outside-2_25_1741)"/>
<mask id="path-9-outside-3_25_1741" maskUnits="userSpaceOnUse" x="295" y="112.273" width="196" height="126" fill="black">
<rect fill="white" x="295" y="112.273" width="196" height="126"/>
<path d="M467.916 131.885C470.244 127.187 472.439 123.642 473.827 122.401C475.08 121.248 476.424 120.273 476.872 120.273C477.275 120.273 477.633 120.805 477.633 121.426C477.633 121.958 478.17 123.553 478.842 124.794C479.558 126.035 480.588 127.63 481.215 128.428C481.842 129.137 482.469 130.91 482.603 132.328C482.737 133.746 482.648 135.874 482.424 137.115C482.2 138.356 480.23 142.876 478.036 147.308C475.842 151.74 474.006 155.995 474.051 156.881C474.051 157.679 473.692 158.476 473.289 158.654C472.842 158.831 471.498 161.933 470.334 165.568C469.17 169.202 466.841 176.647 465.185 182.143C463.528 187.638 461.737 193.666 461.199 195.439C460.662 197.211 459.677 200.934 459.05 203.593C458.378 206.252 457.438 209.621 456.901 211.128C456.363 212.634 455.289 216.357 454.527 219.548C453.766 222.739 452.557 226.462 451.841 227.792C450.766 229.919 450.274 230.273 448.975 229.83C448.124 229.564 446.691 228.412 445.841 227.348C444.99 226.196 443.826 223.537 442.258 217.332L443.109 211.571C443.602 208.38 444.318 205.189 444.721 204.48C445.124 203.771 445.438 202.796 445.393 202.264C445.393 201.732 446.602 197.123 448.08 191.893C449.557 186.575 450.766 181.788 450.766 181.257C450.766 180.636 450.274 179.129 449.647 177.888C449.02 176.647 447.99 173.102 447.363 169.911C446.736 166.72 445.796 160.161 445.303 155.286C444.811 150.41 444.363 144.649 444.273 142.433C444.229 140.217 444.05 135.874 443.826 132.683C443.557 127.542 443.602 126.655 444.453 124.528C444.99 123.11 445.796 122.046 446.288 122.046C446.781 122.046 448.393 123.198 449.871 124.705C451.348 126.212 453.139 128.694 453.901 130.201C454.662 131.885 455.244 134.101 455.244 135.342C455.244 136.583 455.423 138.71 455.647 140.217C455.871 141.724 456.319 145.447 456.677 148.549C456.99 151.74 457.483 154.931 457.751 155.64C458.154 156.792 458.602 156.083 460.438 151.297C461.647 148.106 462.99 144.117 463.438 142.433C463.886 140.749 465.901 135.962 467.916 131.885Z"/>
<path d="M328.523 127.01C330.852 126.301 334.479 125.06 336.583 124.439C338.688 123.73 340.792 123.376 341.285 123.642C341.777 123.908 342.673 124.085 343.3 123.996C343.927 123.996 345.001 125.06 345.763 126.389C346.524 127.808 347.554 129.137 348.136 129.492C348.942 130.024 349.121 130.733 349.121 133.658C349.121 136.583 348.807 137.824 347.464 140.572C346.434 142.61 344.867 144.56 343.524 145.447C342.315 146.244 339.359 147.485 337.031 148.283C334.703 149.081 331.971 150.41 330.986 151.297C330.001 152.183 328.21 153.158 326.956 153.513C325.747 153.867 324.045 154.665 323.239 155.197C321.941 156.083 321.762 156.615 322.031 161.579L328.881 161.402C334.076 161.224 335.688 161.402 335.688 162.288C335.688 162.82 336.315 164.593 337.121 166.188C337.927 167.695 339.136 169.468 339.852 169.911C340.748 170.62 341.061 171.506 341.061 173.368C341.106 175.318 340.613 176.381 338.285 179.484C336.718 181.522 334.658 183.916 333.673 184.713C332.24 185.954 330.538 186.309 318.627 186.398L317.418 190.386C316.747 192.602 315.851 195.882 315.403 197.743C315 199.516 314.777 201.2 315 201.466C315.18 201.732 317.015 201.909 319.12 201.909C321.224 201.909 325.165 201.289 327.852 200.58C330.583 199.959 334.3 198.718 339.494 196.502L341.061 199.605C341.912 201.377 342.852 202.796 343.076 202.796C343.345 202.796 343.882 204.302 344.285 206.075C345.046 209.443 345.046 209.443 343.703 213.255C342.986 215.294 341.554 217.953 340.524 219.105C339.449 220.257 337.076 221.941 335.24 222.739C333.404 223.537 329.867 224.601 327.404 225.044C324.941 225.576 321.001 226.196 318.672 226.462C316.075 226.728 313.478 226.551 311.956 225.93C310.612 225.31 308.821 224.157 307.97 223.36C307.12 222.562 305.911 220.257 305.328 218.307C304.702 216.357 303.94 211.925 303.582 208.557C303.269 205.189 303 200.402 303 197.92C303 195.084 303.313 192.514 303.896 190.652C304.388 189.057 304.791 187.195 304.791 186.663C304.791 186.043 305.06 184.891 305.418 184.182C305.731 183.472 307.03 178.331 310.612 162.908L309.761 160.515C309.314 159.097 308.776 157.058 308.597 155.817C308.373 154.576 307.97 150.765 307.12 141.192L308.508 138.71C309.314 137.381 311.239 135.519 312.851 134.633L312.853 134.632C314.465 133.745 317.688 131.973 320.016 130.644C322.344 129.403 326.195 127.808 328.523 127.01Z"/>
<path fill-rule="evenodd" clip-rule="evenodd" d="M371.286 122.489C370.301 123.198 368.599 125.503 367.525 127.542C366.45 129.669 364.211 134.899 362.554 139.331C360.897 143.763 359.106 148.106 358.614 149.081C357.897 150.41 357.494 150.588 357.091 149.879C356.778 149.347 356.061 148.638 355.524 148.283C354.763 147.929 354.315 148.283 353.867 149.701C353.509 150.854 352.479 158.122 351.584 165.922C350.643 173.722 349.703 182.32 349.479 184.979C349.255 187.638 348.987 191.007 348.897 192.514C348.807 194.02 348.449 197.566 348.046 200.491C347.688 203.416 347.33 206.784 347.285 208.025C347.196 209.266 347.375 211.039 347.643 212.014C347.912 212.989 348.315 215.382 348.494 217.332C348.673 219.282 349.255 221.676 349.748 222.651C350.285 223.626 351.181 224.955 351.808 225.576C352.748 226.551 353.196 226.373 354.852 224.867C356.375 223.448 356.957 222.207 357.808 218.396C358.39 215.914 358.972 212.457 359.151 210.862C359.285 209.355 359.644 208.025 359.868 208.025C360.091 208.025 361.077 209.355 362.017 211.039C362.912 212.634 364.704 215.205 365.913 216.712C367.166 218.219 370.48 221.232 373.301 223.36C376.122 225.487 379.883 227.969 381.585 228.855C383.331 229.653 385.839 230.273 387.182 230.273C388.615 230.273 390.092 229.653 390.675 228.855C391.212 228.146 391.884 226.639 392.197 225.487C392.466 224.423 392.779 221.764 392.869 219.548C392.958 216.889 392.734 214.319 392.107 211.748C391.257 208.291 391.078 208.025 389.107 207.582C387.898 207.316 384.63 206.075 381.809 204.834C378.988 203.505 375.764 201.643 374.644 200.58C373.525 199.427 371.778 197.477 370.749 196.236C369.674 194.907 368.823 193.489 368.823 192.957C368.823 192.425 369.584 191.539 370.525 190.829C371.42 190.209 373.39 188.968 374.868 188.082C376.346 187.284 378.764 185.511 380.241 184.182C381.719 182.852 384.003 179.838 385.301 177.445C386.689 174.875 387.854 171.684 388.167 169.911C388.436 168.227 388.66 165.036 388.615 162.82C388.615 160.515 388.033 155.906 387.182 151.74C386.421 147.84 385.212 142.61 384.585 140.217C383.913 137.735 382.973 135.165 382.48 134.456C381.988 133.746 381.182 132.151 380.689 131.087C380.197 129.935 378.54 127.187 377.017 125.06C375.45 122.933 373.928 121.16 373.659 121.16C373.346 121.248 372.271 121.78 371.286 122.489ZM364.927 167.695C365.062 166.188 366.495 162.022 368.331 157.679C370.077 153.69 371.823 150.41 372.137 150.41C372.495 150.41 373.346 151.385 374.062 152.449C374.734 153.601 375.495 155.817 375.719 157.324C375.988 158.831 376.167 160.692 376.167 161.49C376.167 162.465 375.092 163.795 373.032 165.568C371.331 166.986 368.778 168.759 367.435 169.468C366.092 170.177 364.927 170.62 364.838 170.531C364.748 170.443 364.793 169.202 364.927 167.695Z"/>
<path fill-rule="evenodd" clip-rule="evenodd" d="M407.108 124.617C409.571 123.553 413.377 122.401 415.616 122.046C417.855 121.692 420.765 121.514 422.108 121.692C423.452 121.869 425.512 122.312 426.631 122.667C427.795 123.021 429.228 124.262 429.765 125.326C430.348 126.478 431.064 127.364 431.288 127.364C431.512 127.364 432.766 129.403 434.019 131.974C435.273 134.544 436.572 138.09 436.84 139.774C437.109 141.458 437.333 143.851 437.333 145.092C437.333 146.333 436.84 149.258 436.213 151.74C435.631 154.133 433.661 159.186 428.691 169.468L431.064 173.456C432.407 175.672 434.333 179.129 435.407 181.168C436.482 183.295 437.781 186.663 438.273 188.702C438.811 190.829 439.348 194.464 439.437 196.945C439.572 201.023 439.437 201.732 437.646 206.252C436.034 210.33 434.96 211.925 430.84 216.18C428.109 218.928 424.392 222.03 422.556 223.005C420.72 223.98 418.392 225.398 417.407 226.196C416.422 227.082 414.317 227.88 412.705 228.057C410.242 228.412 409.481 228.057 405.765 223.891L404.78 226.196C404.063 227.792 403.347 228.323 402.451 228.146C401.735 228.057 400.481 226.728 399.63 225.221C398.824 223.626 397.929 221.853 397.705 221.232C397.481 220.523 396.943 218.573 396.54 216.889C396.093 215.116 395.869 212.634 396.003 211.128C396.137 209.621 396.451 207.937 396.63 207.316C396.854 206.784 396.943 205.721 396.854 205.1C396.764 204.568 397.078 201.732 397.526 198.896C397.973 196.148 398.645 192.957 399.003 191.893C399.361 190.741 400.302 184.447 401.063 177.888C401.869 171.329 402.899 163.795 403.347 161.313C403.794 158.742 404.197 155.463 404.197 153.956C404.197 152.449 404.108 151.297 403.974 151.297C403.839 151.297 403.391 151.651 402.988 152.095C402.541 152.449 402.048 153.867 401.869 155.197C401.6 156.881 401.108 157.679 400.078 158.033C398.958 158.476 398.108 158.122 396.585 156.438C395.466 155.197 393.899 152.626 393.093 150.765C392.287 148.904 391.346 145.979 390.988 144.472C390.406 141.901 390.406 141.281 390.988 138.887C391.346 137.381 392.421 135.165 393.361 133.746C394.257 132.417 396.72 130.201 398.824 128.871C400.929 127.542 404.645 125.68 407.108 124.617ZM416.287 183.472L412.526 185.423C409.705 200.846 409.033 205.632 409.213 205.987C409.392 206.43 410.511 206.252 411.675 205.632C412.84 205.1 416.287 202.441 419.377 199.871C423.452 196.325 425.556 194.02 427.124 191.095C428.288 188.968 429.228 186.841 429.228 186.309C429.228 185.777 428.467 184.713 427.571 183.827C426.631 182.852 424.571 181.966 422.959 181.788C420.899 181.522 418.974 181.966 416.287 183.472ZM412.526 145.003C414.228 143.94 416.467 142.788 417.586 142.433C418.705 142.078 420.541 141.724 421.75 141.635C422.914 141.635 423.855 141.99 423.855 142.433C423.855 142.876 422.691 145.447 421.258 147.929C419.825 150.499 417.631 153.69 414.004 157.501L412.571 154.576C411.765 152.981 410.601 151.12 410.019 150.41C409.392 149.613 409.033 148.638 409.213 148.017C409.392 147.397 410.869 145.979 412.526 145.003Z"/>
</mask>
<path d="M467.916 131.885C470.244 127.187 472.439 123.642 473.827 122.401C475.08 121.248 476.424 120.273 476.872 120.273C477.275 120.273 477.633 120.805 477.633 121.426C477.633 121.958 478.17 123.553 478.842 124.794C479.558 126.035 480.588 127.63 481.215 128.428C481.842 129.137 482.469 130.91 482.603 132.328C482.737 133.746 482.648 135.874 482.424 137.115C482.2 138.356 480.23 142.876 478.036 147.308C475.842 151.74 474.006 155.995 474.051 156.881C474.051 157.679 473.692 158.476 473.289 158.654C472.842 158.831 471.498 161.933 470.334 165.568C469.17 169.202 466.841 176.647 465.185 182.143C463.528 187.638 461.737 193.666 461.199 195.439C460.662 197.211 459.677 200.934 459.05 203.593C458.378 206.252 457.438 209.621 456.901 211.128C456.363 212.634 455.289 216.357 454.527 219.548C453.766 222.739 452.557 226.462 451.841 227.792C450.766 229.919 450.274 230.273 448.975 229.83C448.124 229.564 446.691 228.412 445.841 227.348C444.99 226.196 443.826 223.537 442.258 217.332L443.109 211.571C443.602 208.38 444.318 205.189 444.721 204.48C445.124 203.771 445.438 202.796 445.393 202.264C445.393 201.732 446.602 197.123 448.08 191.893C449.557 186.575 450.766 181.788 450.766 181.257C450.766 180.636 450.274 179.129 449.647 177.888C449.02 176.647 447.99 173.102 447.363 169.911C446.736 166.72 445.796 160.161 445.303 155.286C444.811 150.41 444.363 144.649 444.273 142.433C444.229 140.217 444.05 135.874 443.826 132.683C443.557 127.542 443.602 126.655 444.453 124.528C444.99 123.11 445.796 122.046 446.288 122.046C446.781 122.046 448.393 123.198 449.871 124.705C451.348 126.212 453.139 128.694 453.901 130.201C454.662 131.885 455.244 134.101 455.244 135.342C455.244 136.583 455.423 138.71 455.647 140.217C455.871 141.724 456.319 145.447 456.677 148.549C456.99 151.74 457.483 154.931 457.751 155.64C458.154 156.792 458.602 156.083 460.438 151.297C461.647 148.106 462.99 144.117 463.438 142.433C463.886 140.749 465.901 135.962 467.916 131.885Z" fill="#221111"/>
<path d="M328.523 127.01C330.852 126.301 334.479 125.06 336.583 124.439C338.688 123.73 340.792 123.376 341.285 123.642C341.777 123.908 342.673 124.085 343.3 123.996C343.927 123.996 345.001 125.06 345.763 126.389C346.524 127.808 347.554 129.137 348.136 129.492C348.942 130.024 349.121 130.733 349.121 133.658C349.121 136.583 348.807 137.824 347.464 140.572C346.434 142.61 344.867 144.56 343.524 145.447C342.315 146.244 339.359 147.485 337.031 148.283C334.703 149.081 331.971 150.41 330.986 151.297C330.001 152.183 328.21 153.158 326.956 153.513C325.747 153.867 324.045 154.665 323.239 155.197C321.941 156.083 321.762 156.615 322.031 161.579L328.881 161.402C334.076 161.224 335.688 161.402 335.688 162.288C335.688 162.82 336.315 164.593 337.121 166.188C337.927 167.695 339.136 169.468 339.852 169.911C340.748 170.62 341.061 171.506 341.061 173.368C341.106 175.318 340.613 176.381 338.285 179.484C336.718 181.522 334.658 183.916 333.673 184.713C332.24 185.954 330.538 186.309 318.627 186.398L317.418 190.386C316.747 192.602 315.851 195.882 315.403 197.743C315 199.516 314.777 201.2 315 201.466C315.18 201.732 317.015 201.909 319.12 201.909C321.224 201.909 325.165 201.289 327.852 200.58C330.583 199.959 334.3 198.718 339.494 196.502L341.061 199.605C341.912 201.377 342.852 202.796 343.076 202.796C343.345 202.796 343.882 204.302 344.285 206.075C345.046 209.443 345.046 209.443 343.703 213.255C342.986 215.294 341.554 217.953 340.524 219.105C339.449 220.257 337.076 221.941 335.24 222.739C333.404 223.537 329.867 224.601 327.404 225.044C324.941 225.576 321.001 226.196 318.672 226.462C316.075 226.728 313.478 226.551 311.956 225.93C310.612 225.31 308.821 224.157 307.97 223.36C307.12 222.562 305.911 220.257 305.328 218.307C304.702 216.357 303.94 211.925 303.582 208.557C303.269 205.189 303 200.402 303 197.92C303 195.084 303.313 192.514 303.896 190.652C304.388 189.057 304.791 187.195 304.791 186.663C304.791 186.043 305.06 184.891 305.418 184.182C305.731 183.472 307.03 178.331 310.612 162.908L309.761 160.515C309.314 159.097 308.776 157.058 308.597 155.817C308.373 154.576 307.97 150.765 307.12 141.192L308.508 138.71C309.314 137.381 311.239 135.519 312.851 134.633L312.853 134.632C314.465 133.745 317.688 131.973 320.016 130.644C322.344 129.403 326.195 127.808 328.523 127.01Z" fill="#221111"/>
<path fill-rule="evenodd" clip-rule="evenodd" d="M371.286 122.489C370.301 123.198 368.599 125.503 367.525 127.542C366.45 129.669 364.211 134.899 362.554 139.331C360.897 143.763 359.106 148.106 358.614 149.081C357.897 150.41 357.494 150.588 357.091 149.879C356.778 149.347 356.061 148.638 355.524 148.283C354.763 147.929 354.315 148.283 353.867 149.701C353.509 150.854 352.479 158.122 351.584 165.922C350.643 173.722 349.703 182.32 349.479 184.979C349.255 187.638 348.987 191.007 348.897 192.514C348.807 194.02 348.449 197.566 348.046 200.491C347.688 203.416 347.33 206.784 347.285 208.025C347.196 209.266 347.375 211.039 347.643 212.014C347.912 212.989 348.315 215.382 348.494 217.332C348.673 219.282 349.255 221.676 349.748 222.651C350.285 223.626 351.181 224.955 351.808 225.576C352.748 226.551 353.196 226.373 354.852 224.867C356.375 223.448 356.957 222.207 357.808 218.396C358.39 215.914 358.972 212.457 359.151 210.862C359.285 209.355 359.644 208.025 359.868 208.025C360.091 208.025 361.077 209.355 362.017 211.039C362.912 212.634 364.704 215.205 365.913 216.712C367.166 218.219 370.48 221.232 373.301 223.36C376.122 225.487 379.883 227.969 381.585 228.855C383.331 229.653 385.839 230.273 387.182 230.273C388.615 230.273 390.092 229.653 390.675 228.855C391.212 228.146 391.884 226.639 392.197 225.487C392.466 224.423 392.779 221.764 392.869 219.548C392.958 216.889 392.734 214.319 392.107 211.748C391.257 208.291 391.078 208.025 389.107 207.582C387.898 207.316 384.63 206.075 381.809 204.834C378.988 203.505 375.764 201.643 374.644 200.58C373.525 199.427 371.778 197.477 370.749 196.236C369.674 194.907 368.823 193.489 368.823 192.957C368.823 192.425 369.584 191.539 370.525 190.829C371.42 190.209 373.39 188.968 374.868 188.082C376.346 187.284 378.764 185.511 380.241 184.182C381.719 182.852 384.003 179.838 385.301 177.445C386.689 174.875 387.854 171.684 388.167 169.911C388.436 168.227 388.66 165.036 388.615 162.82C388.615 160.515 388.033 155.906 387.182 151.74C386.421 147.84 385.212 142.61 384.585 140.217C383.913 137.735 382.973 135.165 382.48 134.456C381.988 133.746 381.182 132.151 380.689 131.087C380.197 129.935 378.54 127.187 377.017 125.06C375.45 122.933 373.928 121.16 373.659 121.16C373.346 121.248 372.271 121.78 371.286 122.489ZM364.927 167.695C365.062 166.188 366.495 162.022 368.331 157.679C370.077 153.69 371.823 150.41 372.137 150.41C372.495 150.41 373.346 151.385 374.062 152.449C374.734 153.601 375.495 155.817 375.719 157.324C375.988 158.831 376.167 160.692 376.167 161.49C376.167 162.465 375.092 163.795 373.032 165.568C371.331 166.986 368.778 168.759 367.435 169.468C366.092 170.177 364.927 170.62 364.838 170.531C364.748 170.443 364.793 169.202 364.927 167.695Z" fill="#221111"/>
<path fill-rule="evenodd" clip-rule="evenodd" d="M407.108 124.617C409.571 123.553 413.377 122.401 415.616 122.046C417.855 121.692 420.765 121.514 422.108 121.692C423.452 121.869 425.512 122.312 426.631 122.667C427.795 123.021 429.228 124.262 429.765 125.326C430.348 126.478 431.064 127.364 431.288 127.364C431.512 127.364 432.766 129.403 434.019 131.974C435.273 134.544 436.572 138.09 436.84 139.774C437.109 141.458 437.333 143.851 437.333 145.092C437.333 146.333 436.84 149.258 436.213 151.74C435.631 154.133 433.661 159.186 428.691 169.468L431.064 173.456C432.407 175.672 434.333 179.129 435.407 181.168C436.482 183.295 437.781 186.663 438.273 188.702C438.811 190.829 439.348 194.464 439.437 196.945C439.572 201.023 439.437 201.732 437.646 206.252C436.034 210.33 434.96 211.925 430.84 216.18C428.109 218.928 424.392 222.03 422.556 223.005C420.72 223.98 418.392 225.398 417.407 226.196C416.422 227.082 414.317 227.88 412.705 228.057C410.242 228.412 409.481 228.057 405.765 223.891L404.78 226.196C404.063 227.792 403.347 228.323 402.451 228.146C401.735 228.057 400.481 226.728 399.63 225.221C398.824 223.626 397.929 221.853 397.705 221.232C397.481 220.523 396.943 218.573 396.54 216.889C396.093 215.116 395.869 212.634 396.003 211.128C396.137 209.621 396.451 207.937 396.63 207.316C396.854 206.784 396.943 205.721 396.854 205.1C396.764 204.568 397.078 201.732 397.526 198.896C397.973 196.148 398.645 192.957 399.003 191.893C399.361 190.741 400.302 184.447 401.063 177.888C401.869 171.329 402.899 163.795 403.347 161.313C403.794 158.742 404.197 155.463 404.197 153.956C404.197 152.449 404.108 151.297 403.974 151.297C403.839 151.297 403.391 151.651 402.988 152.095C402.541 152.449 402.048 153.867 401.869 155.197C401.6 156.881 401.108 157.679 400.078 158.033C398.958 158.476 398.108 158.122 396.585 156.438C395.466 155.197 393.899 152.626 393.093 150.765C392.287 148.904 391.346 145.979 390.988 144.472C390.406 141.901 390.406 141.281 390.988 138.887C391.346 137.381 392.421 135.165 393.361 133.746C394.257 132.417 396.72 130.201 398.824 128.871C400.929 127.542 404.645 125.68 407.108 124.617ZM416.287 183.472L412.526 185.423C409.705 200.846 409.033 205.632 409.213 205.987C409.392 206.43 410.511 206.252 411.675 205.632C412.84 205.1 416.287 202.441 419.377 199.871C423.452 196.325 425.556 194.02 427.124 191.095C428.288 188.968 429.228 186.841 429.228 186.309C429.228 185.777 428.467 184.713 427.571 183.827C426.631 182.852 424.571 181.966 422.959 181.788C420.899 181.522 418.974 181.966 416.287 183.472ZM412.526 145.003C414.228 143.94 416.467 142.788 417.586 142.433C418.705 142.078 420.541 141.724 421.75 141.635C422.914 141.635 423.855 141.99 423.855 142.433C423.855 142.876 422.691 145.447 421.258 147.929C419.825 150.499 417.631 153.69 414.004 157.501L412.571 154.576C411.765 152.981 410.601 151.12 410.019 150.41C409.392 149.613 409.033 148.638 409.213 148.017C409.392 147.397 410.869 145.979 412.526 145.003Z" fill="#221111"/>
<path d="M467.916 131.885C470.244 127.187 472.439 123.642 473.827 122.401C475.08 121.248 476.424 120.273 476.872 120.273C477.275 120.273 477.633 120.805 477.633 121.426C477.633 121.958 478.17 123.553 478.842 124.794C479.558 126.035 480.588 127.63 481.215 128.428C481.842 129.137 482.469 130.91 482.603 132.328C482.737 133.746 482.648 135.874 482.424 137.115C482.2 138.356 480.23 142.876 478.036 147.308C475.842 151.74 474.006 155.995 474.051 156.881C474.051 157.679 473.692 158.476 473.289 158.654C472.842 158.831 471.498 161.933 470.334 165.568C469.17 169.202 466.841 176.647 465.185 182.143C463.528 187.638 461.737 193.666 461.199 195.439C460.662 197.211 459.677 200.934 459.05 203.593C458.378 206.252 457.438 209.621 456.901 211.128C456.363 212.634 455.289 216.357 454.527 219.548C453.766 222.739 452.557 226.462 451.841 227.792C450.766 229.919 450.274 230.273 448.975 229.83C448.124 229.564 446.691 228.412 445.841 227.348C444.99 226.196 443.826 223.537 442.258 217.332L443.109 211.571C443.602 208.38 444.318 205.189 444.721 204.48C445.124 203.771 445.438 202.796 445.393 202.264C445.393 201.732 446.602 197.123 448.08 191.893C449.557 186.575 450.766 181.788 450.766 181.257C450.766 180.636 450.274 179.129 449.647 177.888C449.02 176.647 447.99 173.102 447.363 169.911C446.736 166.72 445.796 160.161 445.303 155.286C444.811 150.41 444.363 144.649 444.273 142.433C444.229 140.217 444.05 135.874 443.826 132.683C443.557 127.542 443.602 126.655 444.453 124.528C444.99 123.11 445.796 122.046 446.288 122.046C446.781 122.046 448.393 123.198 449.871 124.705C451.348 126.212 453.139 128.694 453.901 130.201C454.662 131.885 455.244 134.101 455.244 135.342C455.244 136.583 455.423 138.71 455.647 140.217C455.871 141.724 456.319 145.447 456.677 148.549C456.99 151.74 457.483 154.931 457.751 155.64C458.154 156.792 458.602 156.083 460.438 151.297C461.647 148.106 462.99 144.117 463.438 142.433C463.886 140.749 465.901 135.962 467.916 131.885Z" stroke="white" stroke-width="16" mask="url(#path-9-outside-3_25_1741)"/>
<path d="M328.523 127.01C330.852 126.301 334.479 125.06 336.583 124.439C338.688 123.73 340.792 123.376 341.285 123.642C341.777 123.908 342.673 124.085 343.3 123.996C343.927 123.996 345.001 125.06 345.763 126.389C346.524 127.808 347.554 129.137 348.136 129.492C348.942 130.024 349.121 130.733 349.121 133.658C349.121 136.583 348.807 137.824 347.464 140.572C346.434 142.61 344.867 144.56 343.524 145.447C342.315 146.244 339.359 147.485 337.031 148.283C334.703 149.081 331.971 150.41 330.986 151.297C330.001 152.183 328.21 153.158 326.956 153.513C325.747 153.867 324.045 154.665 323.239 155.197C321.941 156.083 321.762 156.615 322.031 161.579L328.881 161.402C334.076 161.224 335.688 161.402 335.688 162.288C335.688 162.82 336.315 164.593 337.121 166.188C337.927 167.695 339.136 169.468 339.852 169.911C340.748 170.62 341.061 171.506 341.061 173.368C341.106 175.318 340.613 176.381 338.285 179.484C336.718 181.522 334.658 183.916 333.673 184.713C332.24 185.954 330.538 186.309 318.627 186.398L317.418 190.386C316.747 192.602 315.851 195.882 315.403 197.743C315 199.516 314.777 201.2 315 201.466C315.18 201.732 317.015 201.909 319.12 201.909C321.224 201.909 325.165 201.289 327.852 200.58C330.583 199.959 334.3 198.718 339.494 196.502L341.061 199.605C341.912 201.377 342.852 202.796 343.076 202.796C343.345 202.796 343.882 204.302 344.285 206.075C345.046 209.443 345.046 209.443 343.703 213.255C342.986 215.294 341.554 217.953 340.524 219.105C339.449 220.257 337.076 221.941 335.24 222.739C333.404 223.537 329.867 224.601 327.404 225.044C324.941 225.576 321.001 226.196 318.672 226.462C316.075 226.728 313.478 226.551 311.956 225.93C310.612 225.31 308.821 224.157 307.97 223.36C307.12 222.562 305.911 220.257 305.328 218.307C304.702 216.357 303.94 211.925 303.582 208.557C303.269 205.189 303 200.402 303 197.92C303 195.084 303.313 192.514 303.896 190.652C304.388 189.057 304.791 187.195 304.791 186.663C304.791 186.043 305.06 184.891 305.418 184.182C305.731 183.472 307.03 178.331 310.612 162.908L309.761 160.515C309.314 159.097 308.776 157.058 308.597 155.817C308.373 154.576 307.97 150.765 307.12 141.192L308.508 138.71C309.314 137.381 311.239 135.519 312.851 134.633L312.853 134.632C314.465 133.745 317.688 131.973 320.016 130.644C322.344 129.403 326.195 127.808 328.523 127.01Z" stroke="white" stroke-width="16" mask="url(#path-9-outside-3_25_1741)"/>
<path fill-rule="evenodd" clip-rule="evenodd" d="M371.286 122.489C370.301 123.198 368.599 125.503 367.525 127.542C366.45 129.669 364.211 134.899 362.554 139.331C360.897 143.763 359.106 148.106 358.614 149.081C357.897 150.41 357.494 150.588 357.091 149.879C356.778 149.347 356.061 148.638 355.524 148.283C354.763 147.929 354.315 148.283 353.867 149.701C353.509 150.854 352.479 158.122 351.584 165.922C350.643 173.722 349.703 182.32 349.479 184.979C349.255 187.638 348.987 191.007 348.897 192.514C348.807 194.02 348.449 197.566 348.046 200.491C347.688 203.416 347.33 206.784 347.285 208.025C347.196 209.266 347.375 211.039 347.643 212.014C347.912 212.989 348.315 215.382 348.494 217.332C348.673 219.282 349.255 221.676 349.748 222.651C350.285 223.626 351.181 224.955 351.808 225.576C352.748 226.551 353.196 226.373 354.852 224.867C356.375 223.448 356.957 222.207 357.808 218.396C358.39 215.914 358.972 212.457 359.151 210.862C359.285 209.355 359.644 208.025 359.868 208.025C360.091 208.025 361.077 209.355 362.017 211.039C362.912 212.634 364.704 215.205 365.913 216.712C367.166 218.219 370.48 221.232 373.301 223.36C376.122 225.487 379.883 227.969 381.585 228.855C383.331 229.653 385.839 230.273 387.182 230.273C388.615 230.273 390.092 229.653 390.675 228.855C391.212 228.146 391.884 226.639 392.197 225.487C392.466 224.423 392.779 221.764 392.869 219.548C392.958 216.889 392.734 214.319 392.107 211.748C391.257 208.291 391.078 208.025 389.107 207.582C387.898 207.316 384.63 206.075 381.809 204.834C378.988 203.505 375.764 201.643 374.644 200.58C373.525 199.427 371.778 197.477 370.749 196.236C369.674 194.907 368.823 193.489 368.823 192.957C368.823 192.425 369.584 191.539 370.525 190.829C371.42 190.209 373.39 188.968 374.868 188.082C376.346 187.284 378.764 185.511 380.241 184.182C381.719 182.852 384.003 179.838 385.301 177.445C386.689 174.875 387.854 171.684 388.167 169.911C388.436 168.227 388.66 165.036 388.615 162.82C388.615 160.515 388.033 155.906 387.182 151.74C386.421 147.84 385.212 142.61 384.585 140.217C383.913 137.735 382.973 135.165 382.48 134.456C381.988 133.746 381.182 132.151 380.689 131.087C380.197 129.935 378.54 127.187 377.017 125.06C375.45 122.933 373.928 121.16 373.659 121.16C373.346 121.248 372.271 121.78 371.286 122.489ZM364.927 167.695C365.062 166.188 366.495 162.022 368.331 157.679C370.077 153.69 371.823 150.41 372.137 150.41C372.495 150.41 373.346 151.385 374.062 152.449C374.734 153.601 375.495 155.817 375.719 157.324C375.988 158.831 376.167 160.692 376.167 161.49C376.167 162.465 375.092 163.795 373.032 165.568C371.331 166.986 368.778 168.759 367.435 169.468C366.092 170.177 364.927 170.62 364.838 170.531C364.748 170.443 364.793 169.202 364.927 167.695Z" stroke="white" stroke-width="16" mask="url(#path-9-outside-3_25_1741)"/>
<path fill-rule="evenodd" clip-rule="evenodd" d="M407.108 124.617C409.571 123.553 413.377 122.401 415.616 122.046C417.855 121.692 420.765 121.514 422.108 121.692C423.452 121.869 425.512 122.312 426.631 122.667C427.795 123.021 429.228 124.262 429.765 125.326C430.348 126.478 431.064 127.364 431.288 127.364C431.512 127.364 432.766 129.403 434.019 131.974C435.273 134.544 436.572 138.09 436.84 139.774C437.109 141.458 437.333 143.851 437.333 145.092C437.333 146.333 436.84 149.258 436.213 151.74C435.631 154.133 433.661 159.186 428.691 169.468L431.064 173.456C432.407 175.672 434.333 179.129 435.407 181.168C436.482 183.295 437.781 186.663 438.273 188.702C438.811 190.829 439.348 194.464 439.437 196.945C439.572 201.023 439.437 201.732 437.646 206.252C436.034 210.33 434.96 211.925 430.84 216.18C428.109 218.928 424.392 222.03 422.556 223.005C420.72 223.98 418.392 225.398 417.407 226.196C416.422 227.082 414.317 227.88 412.705 228.057C410.242 228.412 409.481 228.057 405.765 223.891L404.78 226.196C404.063 227.792 403.347 228.323 402.451 228.146C401.735 228.057 400.481 226.728 399.63 225.221C398.824 223.626 397.929 221.853 397.705 221.232C397.481 220.523 396.943 218.573 396.54 216.889C396.093 215.116 395.869 212.634 396.003 211.128C396.137 209.621 396.451 207.937 396.63 207.316C396.854 206.784 396.943 205.721 396.854 205.1C396.764 204.568 397.078 201.732 397.526 198.896C397.973 196.148 398.645 192.957 399.003 191.893C399.361 190.741 400.302 184.447 401.063 177.888C401.869 171.329 402.899 163.795 403.347 161.313C403.794 158.742 404.197 155.463 404.197 153.956C404.197 152.449 404.108 151.297 403.974 151.297C403.839 151.297 403.391 151.651 402.988 152.095C402.541 152.449 402.048 153.867 401.869 155.197C401.6 156.881 401.108 157.679 400.078 158.033C398.958 158.476 398.108 158.122 396.585 156.438C395.466 155.197 393.899 152.626 393.093 150.765C392.287 148.904 391.346 145.979 390.988 144.472C390.406 141.901 390.406 141.281 390.988 138.887C391.346 137.381 392.421 135.165 393.361 133.746C394.257 132.417 396.72 130.201 398.824 128.871C400.929 127.542 404.645 125.68 407.108 124.617ZM416.287 183.472L412.526 185.423C409.705 200.846 409.033 205.632 409.213 205.987C409.392 206.43 410.511 206.252 411.675 205.632C412.84 205.1 416.287 202.441 419.377 199.871C423.452 196.325 425.556 194.02 427.124 191.095C428.288 188.968 429.228 186.841 429.228 186.309C429.228 185.777 428.467 184.713 427.571 183.827C426.631 182.852 424.571 181.966 422.959 181.788C420.899 181.522 418.974 181.966 416.287 183.472ZM412.526 145.003C414.228 143.94 416.467 142.788 417.586 142.433C418.705 142.078 420.541 141.724 421.75 141.635C422.914 141.635 423.855 141.99 423.855 142.433C423.855 142.876 422.691 145.447 421.258 147.929C419.825 150.499 417.631 153.69 414.004 157.501L412.571 154.576C411.765 152.981 410.601 151.12 410.019 150.41C409.392 149.613 409.033 148.638 409.213 148.017C409.392 147.397 410.869 145.979 412.526 145.003Z" stroke="white" stroke-width="16" mask="url(#path-9-outside-3_25_1741)"/>
</svg>
