<svg width="359" height="521" viewBox="0 0 359 521" fill="none" xmlns="http://www.w3.org/2000/svg">
<g clip-path="url(#clip0_268_4285)">
<rect width="359" height="521" fill="#096B78"/>
<path fill-rule="evenodd" clip-rule="evenodd" d="M272.888 452.827C273.321 463.366 276.339 470.782 279.628 469.392C282.917 468.002 285.232 458.332 284.798 447.793L278.193 287.34C277.759 276.802 274.741 269.385 271.452 270.775C268.163 272.165 265.849 281.836 266.282 292.375L272.888 452.827ZM155.056 564.773L365.981 564.773L365.981 2.20981L365.981 -33.0953L252.404 22.3181C123.242 95.0778 32.0323 301.282 -22.9361 564.773L155.056 564.773ZM137.046 564.773L-7.3847 564.773C45.9982 321.966 132.487 131.699 254.481 62.8666L365.981 8.46608L365.981 564.773L155.056 564.773L123.681 474.761C121.209 467.67 117.412 468.342 115.199 476.261C112.986 484.181 113.196 496.349 115.667 503.44L137.046 564.773Z" fill="#045661"/>
<path fill-rule="evenodd" clip-rule="evenodd" d="M155.056 564.773L365.981 564.773L365.981 8.46608L254.481 62.8666C132.487 131.699 45.9982 321.966 -7.3847 564.773L137.046 564.773L115.667 503.44C113.196 496.349 112.986 484.181 115.199 476.261C117.412 468.342 121.209 467.67 123.681 474.761L155.056 564.773ZM272.888 452.827C273.321 463.366 276.339 470.782 279.628 469.392C282.917 468.002 285.232 458.332 284.798 447.793L278.193 287.34C277.759 276.802 274.741 269.385 271.452 270.775C268.163 272.165 265.849 281.836 266.282 292.375L272.888 452.827Z" fill="#004852"/>
</g>
<defs>
<clipPath id="clip0_268_4285">
<rect width="359" height="521" fill="white"/>
</clipPath>
</defs>
</svg>
