<svg width="98" height="51" viewBox="0 0 98 51" fill="none" xmlns="http://www.w3.org/2000/svg">
<g filter="url(#filter0_d_81_17909)">
<path d="M67.2486 33.2123L67.2739 33.1556L67.2914 33.0974L71.9242 17.7174L71.9285 17.7031L71.9323 17.6887C73.0311 13.5663 71.8076 10.0742 69.303 7.44313C66.8121 4.82645 63.0458 3.0427 58.9518 2.24333C54.8581 1.44401 50.3514 1.61241 46.3478 2.99519C42.3185 4.38686 38.7941 7.01609 36.8096 11.0767L36.7737 11.1502L36.751 11.2264L36.0067 13.7223L32.1724 26.5802C30.6048 30.8014 31.6134 34.4041 34.065 37.1198C36.5021 39.8192 40.3628 41.6529 44.5828 42.4682C48.8043 43.2836 53.4845 43.0993 57.6079 41.654C61.7595 40.1988 65.3584 37.4541 67.2486 33.2123ZM49.7113 13.191C49.8891 12.6181 50.3718 12.2016 51.3006 11.958C52.2573 11.7072 53.5128 11.7064 54.7697 11.9407C56.0215 12.174 57.1591 12.619 57.8931 13.1548C58.6684 13.7207 58.757 14.187 58.6557 14.4723C57.5434 17.6078 54.9661 24.8665 52.5407 31.5132C52.2657 32.2669 51.6247 32.8017 50.6557 33.1245C49.6612 33.4557 48.4045 33.5233 47.188 33.316C45.9713 33.1086 44.906 32.6453 44.2513 32.0283C43.6163 31.4298 43.4017 30.7362 43.6765 29.9424C44.6983 26.99 45.7608 24.1485 46.7417 21.5253L46.7504 21.5021C47.9274 18.3543 48.9934 15.5037 49.7113 13.191Z" fill="#F7FEFF" stroke="#F7FEFF" stroke-width="1.91075"/>
<path d="M41.7409 28.0364C40.0696 35.4404 53.4126 37.2301 56.314 30.7789L61.7209 16.3264C63.3921 8.92234 50.0491 7.13265 47.1478 13.5838L46.3069 15.8314M41.7409 28.0364L34.1697 26.55M41.7409 28.0364L46.3069 15.8314M46.3069 15.8314L37.8593 14.2417M37.8593 14.2417L34.1497 26.6037C28.5574 41.5517 58.5347 47.5013 65.2129 32.4537L69.6832 17.7015C73.6068 3.12589 45.5842 -2.5761 38.5777 11.8477L37.8593 14.2417Z" stroke="black" stroke-width="1.91156"/>
<path d="M64.7954 12.7767L65.9174 12.464M61.3822 9.05265L62.0812 8.35214M55.5907 7.13067L55.699 6.25734M49.2982 7.94958L48.6779 7.15487M44.4197 10.9453L43.4037 10.5075M47.3877 38.284L47.5476 37.3896M41.302 36.2142L41.9387 35.5636M37.4443 32.1599L38.577 31.8184M54.6946 37.4403L54.0528 36.7031M59.9688 34.0876L58.9227 33.6134M61.9733 29.7806L60.8304 29.5655M63.3911 25.6406L62.1665 25.4101M64.7272 21.4852L63.5026 21.2547M66.0934 17.3662L64.9096 17.1434M39.7775 23.3539L38.5528 23.1234M41.1136 19.1984L39.8889 18.968" stroke="black" stroke-width="0.358607" stroke-linecap="round"/>
<path d="M51.9168 12.5388L51.9168 12.5388C51.8264 12.555 51.7391 12.5727 51.6647 12.5893C51.6578 12.603 51.6505 12.6174 51.6429 12.6326C51.5648 12.7888 51.4634 13.0025 51.359 13.2339C51.152 13.6985 50.6272 15.0188 50.1813 16.1831C50.1811 16.1837 50.1809 16.1843 50.1807 16.1849L49.6265 15.9727C49.1895 17.1364 47.8956 20.4712 46.7559 23.3833C45.6163 26.2954 44.4423 29.3697 44.1338 30.2149L51.9168 12.5388ZM51.9168 12.5388L51.9223 12.5377C52.1378 12.4968 52.6899 12.4613 53.2683 12.4613L53.273 12.4613C53.9774 12.4557 54.3768 12.4836 54.8352 12.5621C55.1952 12.6287 55.7175 12.7546 55.9893 12.8461C56.2504 12.9372 56.666 13.1299 56.8932 13.2672C57.131 13.4235 57.4155 13.6564 57.5072 13.7621L57.5072 13.7621L57.5117 13.7672C57.6062 13.8737 57.7775 14.1628 57.8619 14.3847C57.9324 14.5782 57.9586 14.6769 57.971 14.7852C57.9848 14.9059 57.9843 15.0653 57.9631 15.3832L57.963 15.3832L57.9624 15.3969C57.9401 15.9087 57.8645 16.2492 57.5963 17.0932C57.3999 17.6931 57.0244 18.8117 56.7674 19.5756C56.5136 20.3303 55.9345 21.9245 55.4966 23.1194C55.0522 24.3088 54.405 25.9654 54.0504 26.7982C53.6935 27.6366 53.1323 28.8773 52.8037 29.5489C52.4697 30.2319 52.0542 30.9669 51.8865 31.1887L51.8865 31.1887L51.8829 31.1935C51.6887 31.456 51.4367 31.6973 51.2051 31.8538C50.9895 31.9995 50.6474 32.1717 50.4771 32.2251L50.4771 32.225L50.4712 32.227C50.2873 32.2868 49.8758 32.3723 49.5894 32.4038C49.2392 32.4397 48.8579 32.4405 48.4177 32.4027L48.4177 32.4026L48.4103 32.4021C48.0427 32.3751 47.3976 32.286 46.9969 32.2086C46.6105 32.134 45.7881 31.9105 45.1845 31.7122C44.8802 31.6123 44.5891 31.5125 44.3657 31.4332C44.3587 31.4307 44.3517 31.4282 44.3449 31.4257C44.4122 31.2155 44.522 30.8993 44.6924 30.4152L51.9168 12.5388ZM44.2609 31.7277C44.2607 31.73 44.2605 31.7312 44.2605 31.7313C44.2605 31.7313 44.2605 31.7302 44.2609 31.7277Z" stroke="#F7FEFF" stroke-width="1.18683"/>
<path fill-rule="evenodd" clip-rule="evenodd" d="M51.5373 8.32315C51.2679 8.35191 50.7292 8.4382 50.3292 8.51873C49.9374 8.59926 49.3333 8.76608 48.9904 8.88688C48.6394 9.01343 48.166 9.22627 47.9293 9.36432C47.6925 9.50238 47.3334 9.76699 47.1293 9.95681C46.917 10.1581 46.664 10.5033 46.5089 10.7909C46.3701 11.0613 46.0599 11.7573 45.815 12.344C45.5701 12.9308 45.1457 14.0295 44.8763 14.7888C44.6069 15.5481 43.3743 18.8614 42.1498 22.1518C40.9172 25.4421 39.6601 28.8993 39.3418 29.8312C39.0316 30.7631 38.7377 31.6834 38.6887 31.8733C38.6397 32.0631 38.5908 32.4715 38.5826 32.7821L38.5581 33.3459C39.5703 33.9038 40.1009 34.1799 40.3948 34.3295C40.6887 34.4733 41.2927 34.7379 41.7417 34.9277C42.1907 35.1118 42.9008 35.3707 43.309 35.5087C43.7253 35.6468 44.4845 35.8539 44.9824 35.9804C45.4885 36.1012 46.2885 36.2623 46.7619 36.3371C47.4966 36.4579 47.8395 36.4751 49.1292 36.4751C50.3373 36.4751 50.7618 36.4521 51.2516 36.3658C51.5863 36.3083 52.1332 36.1818 52.4516 36.0955C52.7781 36.0034 53.3087 35.8194 53.6352 35.6871C53.9536 35.549 54.5658 35.2096 54.9903 34.922C55.4801 34.5941 55.9453 34.2087 56.28 33.8578C56.5576 33.5587 56.9412 33.0928 57.1127 32.8224C57.2922 32.552 57.6106 31.9825 57.8147 31.5569C58.0269 31.1312 58.4514 30.1993 58.7616 29.486C59.0636 28.7727 59.5452 27.6108 59.8228 26.8975C60.1003 26.1842 60.6554 24.6713 61.0554 23.5324C61.4554 22.3934 62.0758 20.5354 62.4349 19.4022C62.7941 18.2747 63.1451 17.1242 63.2104 16.8424C63.2839 16.5663 63.3574 16.0198 63.39 15.6229C63.4145 15.1857 63.3982 14.668 63.3329 14.2998C63.2839 13.9662 63.1615 13.5003 63.0798 13.2644C62.99 13.0286 62.8023 12.6259 62.6553 12.3728C62.5084 12.1197 62.1901 11.6825 61.9452 11.4007C61.6513 11.067 61.2105 10.6874 60.6799 10.3077C60.1493 9.93381 59.6105 9.61743 59.1697 9.4276C58.7861 9.26078 58.133 9.01918 57.7167 8.89263C57.3086 8.76608 56.6229 8.59926 56.2066 8.52448C55.7984 8.4497 55.1699 8.35766 54.8188 8.32315C54.476 8.28863 53.7005 8.26562 53.1046 8.26562C52.5169 8.27138 51.8067 8.29439 51.5373 8.32315ZM51.3087 12.1022C51.3496 12.0792 51.5781 12.0217 51.823 11.9757C52.0842 11.9239 52.6556 11.8894 53.2107 11.8894C53.9046 11.8837 54.3209 11.9124 54.8025 11.9987C55.1617 12.0677 55.6923 12.2 55.9861 12.3036C56.2719 12.4071 56.7127 12.62 56.9657 12.781C57.2106 12.9478 57.5371 13.2182 57.6759 13.385C57.8228 13.5576 58.0187 13.9142 58.1167 14.1846C58.2636 14.6045 58.2881 14.7828 58.2473 15.4214C58.2228 16.0081 58.133 16.405 57.8718 17.2621C57.6841 17.8603 57.3249 18.9763 57.08 19.7356C56.8351 20.4949 56.28 22.0883 55.8637 23.2733C55.4392 24.4583 54.8188 26.115 54.476 26.9548C54.1331 27.7946 53.5944 29.0372 53.276 29.7159C52.9577 30.3947 52.5414 31.1713 52.3454 31.4416C52.125 31.7523 51.8393 32.0399 51.5618 32.2355C51.3251 32.4023 50.9496 32.6036 50.721 32.6784C50.5006 32.7532 50.068 32.8452 49.7659 32.8797C49.3904 32.92 48.9904 32.92 48.5415 32.8797C48.166 32.851 47.5293 32.7589 47.1293 32.6784C46.7293 32.5979 45.9211 32.3678 45.3334 32.1664C44.7457 31.9651 44.2069 31.7638 44.1334 31.7235C44.0028 31.6487 44.0273 31.5452 44.5089 30.1186C44.8028 29.2788 45.9211 26.2243 47.0068 23.3308C48.0925 20.4374 49.3251 17.124 49.7414 15.9678C50.1659 14.8116 50.672 13.4828 50.8761 13.0054C51.0802 12.5337 51.2761 12.1253 51.3087 12.1022Z" fill="#221111"/>
<mask id="path-6-outside-1_81_17909" maskUnits="userSpaceOnUse" x="3" y="13.7148" width="27" height="18" fill="black">
<rect fill="white" x="3" y="13.7148" width="27" height="18"/>
<path d="M9.95094 16.4156C10.2582 16.2849 10.8899 16.083 11.3594 15.9524C11.8289 15.8336 12.5459 15.7267 13.7068 15.7148L14.2617 16.4037C14.569 16.7719 14.8251 17.1163 14.8165 17.1757C14.8165 17.2232 14.8763 17.2588 14.9446 17.2588C15.0128 17.2588 15.0726 17.1519 15.0726 17.0213C15.0726 16.8906 15.2092 16.6412 15.397 16.4393C15.5677 16.2612 15.7982 16.0474 15.9091 15.9643C16.0116 15.893 16.1567 15.8336 16.225 15.8336C16.3103 15.8336 16.4128 16.1068 16.5152 16.6412C16.6091 17.0807 16.7457 17.5201 16.8225 17.6151C16.9079 17.7339 16.9591 17.9833 16.9591 18.3277C16.9505 18.6246 17.0103 19.0047 17.0786 19.1947C17.1981 19.4916 17.181 19.6104 16.8225 21.095C16.6091 21.9501 16.353 23.2447 16.2506 23.9691C16.0969 25.0974 16.0799 25.525 16.1311 27.1165C16.1823 28.7673 16.1738 28.993 16.0372 29.2424C15.9518 29.4087 15.7555 29.6106 15.6104 29.6937C15.4567 29.7769 15.158 29.8481 14.9446 29.8481C14.5604 29.8481 14.5604 29.8481 14.3556 29.2305C14.2446 28.8861 14.0653 28.1973 13.9544 27.7103C13.7922 26.9858 13.7666 26.5939 13.7751 25.5725C13.7922 24.8837 13.8349 23.981 13.8775 23.5535C13.9202 23.1259 14.0739 22.247 14.2275 21.5938C14.3726 20.9406 14.5007 20.133 14.5092 19.7886C14.5092 19.4441 14.569 19.0997 14.6287 19.0166C14.6885 18.9334 14.7312 18.779 14.7312 18.684C14.7312 18.5296 14.586 18.5177 13.8519 18.5415C13.3739 18.5653 12.5032 18.684 11.9142 18.8265C11.3253 18.9572 10.6168 19.171 10.3351 19.3016C10.0534 19.4322 9.77168 19.5985 9.71193 19.6698C9.65217 19.7529 9.56681 20.0261 9.52413 20.2874C9.48145 20.5487 9.37048 21.0831 9.26805 21.475C9.17415 21.867 9.09733 22.2945 9.09733 22.4252C9.09733 22.6508 9.13147 22.6627 9.79729 22.5677C10.1899 22.5202 10.8814 22.4489 11.3423 22.3895C12.102 22.3183 12.1703 22.3302 12.1703 22.5202C12.1703 22.6271 12.2386 22.7934 12.324 22.8765C12.4093 22.9478 12.5459 23.1497 12.6227 23.3159C12.7593 23.601 12.7508 23.6366 12.4264 24.3017C12.1789 24.7886 12.0167 24.9905 11.8545 25.0381C11.7179 25.0618 11.2484 25.1687 10.8045 25.2756C10.3607 25.3706 9.66925 25.5369 9.26805 25.6438C8.86685 25.7507 8.44005 25.8457 8.31201 25.8813C8.17543 25.9051 8.05592 25.9644 8.03885 26.0238C8.01324 26.0713 7.89374 26.487 7.7657 26.9383C7.61205 27.4847 7.53522 27.9597 7.54376 28.3398C7.55229 28.6486 7.50108 29.0524 7.43279 29.2543C7.3645 29.4562 7.21939 29.67 7.11695 29.7412C6.9633 29.8481 6.81819 29.8362 6.51089 29.7175C6.16945 29.5749 6.04994 29.4562 5.84507 29.0167C5.7085 28.7198 5.57192 28.2685 5.54631 28.0072C5.5207 27.6984 5.56338 27.2471 5.85361 25.9288L5.62314 25.7269C5.50363 25.6081 5.3073 25.2518 5.19633 24.9193C5.0939 24.5986 5 24.1711 5 23.9691C5 23.7672 5.07682 23.4466 5.17072 23.2447C5.27316 23.0428 5.47802 22.7934 5.64021 22.6865C5.80239 22.5796 6.0158 22.4846 6.10969 22.4846C6.20359 22.4846 6.37431 22.5677 6.49382 22.6627C6.61332 22.7577 6.72429 22.8052 6.74136 22.7577C6.75844 22.6983 6.86087 22.3658 6.95477 22.0095C7.0572 21.6532 7.13403 21.2613 7.13403 21.1544C7.13403 21.0237 7.03159 20.8931 6.90355 20.8218C6.76697 20.7624 6.52796 20.4536 6.36578 20.1449C6.14384 19.7173 6.06701 19.4323 6.04994 19.0166C6.03287 18.6009 6.06701 18.3752 6.17798 18.209C6.26334 18.0783 6.88648 17.7339 7.68887 17.3657C8.44005 17.0332 9.13147 16.7362 9.22537 16.7006C9.31927 16.6769 9.64364 16.5462 9.95094 16.4156Z"/>
<path d="M24.5477 16.0711C25.2306 15.9524 25.922 15.8217 26.0842 15.7861C26.2464 15.7624 26.6902 15.7624 27.0658 15.7861C27.7316 15.8455 27.7572 15.8574 28.1158 16.3443C28.3206 16.6175 28.5426 16.9857 28.6109 17.1638C28.6791 17.3538 28.7304 17.6151 28.7304 17.7576C28.7218 17.912 28.6621 18.1377 28.5767 18.2683C28.4999 18.399 28.2523 18.5771 28.0304 18.6484C27.7999 18.7315 27.4414 18.8028 27.2195 18.8028C26.989 18.8028 26.2378 18.9097 25.5293 19.0403C24.8294 19.171 24.2489 19.2897 24.2404 19.3016C24.2404 19.3254 24.0611 19.9311 23.8392 20.6437C23.6172 21.3563 23.438 21.9857 23.438 22.0332C23.438 22.0926 23.3185 22.4846 23.1734 22.924C23.0282 23.3753 22.8319 23.9454 22.7466 24.2067C22.6612 24.468 22.4734 25.0618 22.3368 25.5131C22.2002 25.9644 22.0466 26.6295 21.9954 26.9621C21.9442 27.3065 21.9015 27.6628 21.9015 27.7341C21.91 27.8172 22.0722 28.0904 22.627 28.7673L22.5246 29.2543C22.4393 29.6225 22.3454 29.765 22.1149 29.9075C21.9527 30.0025 21.7308 30.0856 21.6283 30.0856C21.5174 30.0856 21.2101 29.9194 20.9454 29.7056C20.6467 29.4681 20.4589 29.2305 20.4503 29.1118C20.4503 28.993 20.4247 28.8742 20.3906 28.8505C20.3479 28.8267 20.2455 28.4348 20.1601 27.9953C20.0406 27.3896 20.0065 26.9621 20.0406 26.3445C20.0748 25.7507 20.2284 24.9905 20.5613 23.7316C20.8089 22.7577 21.1588 21.5463 21.3296 21.0594C21.5003 20.5724 21.6454 20.0617 21.6454 19.9311C21.6454 19.7173 21.6113 19.7054 21.3722 19.7886C21.2186 19.8361 20.6125 19.9073 18.9565 20.0261L18.6748 19.6817C18.5041 19.4798 18.3249 19.0759 18.2224 18.7196C18.1371 18.3752 18.0602 17.9477 18.0602 17.7695C18.0602 17.5795 18.1029 17.2944 18.1627 17.1163C18.2736 16.7956 18.2822 16.7837 19.0846 16.7837C19.5284 16.7837 20.4503 16.7006 21.1332 16.6056C22.2002 16.4512 22.388 16.4037 22.4819 16.1899C22.5332 16.0593 22.6612 15.9524 22.7551 15.9524C22.849 15.9524 23.0112 16.0355 23.1221 16.1305C23.2929 16.2849 23.438 16.2849 24.5477 16.0711Z"/>
</mask>
<path d="M9.95094 16.4156C10.2582 16.2849 10.8899 16.083 11.3594 15.9524C11.8289 15.8336 12.5459 15.7267 13.7068 15.7148L14.2617 16.4037C14.569 16.7719 14.8251 17.1163 14.8165 17.1757C14.8165 17.2232 14.8763 17.2588 14.9446 17.2588C15.0128 17.2588 15.0726 17.1519 15.0726 17.0213C15.0726 16.8906 15.2092 16.6412 15.397 16.4393C15.5677 16.2612 15.7982 16.0474 15.9091 15.9643C16.0116 15.893 16.1567 15.8336 16.225 15.8336C16.3103 15.8336 16.4128 16.1068 16.5152 16.6412C16.6091 17.0807 16.7457 17.5201 16.8225 17.6151C16.9079 17.7339 16.9591 17.9833 16.9591 18.3277C16.9505 18.6246 17.0103 19.0047 17.0786 19.1947C17.1981 19.4916 17.181 19.6104 16.8225 21.095C16.6091 21.9501 16.353 23.2447 16.2506 23.9691C16.0969 25.0974 16.0799 25.525 16.1311 27.1165C16.1823 28.7673 16.1738 28.993 16.0372 29.2424C15.9518 29.4087 15.7555 29.6106 15.6104 29.6937C15.4567 29.7769 15.158 29.8481 14.9446 29.8481C14.5604 29.8481 14.5604 29.8481 14.3556 29.2305C14.2446 28.8861 14.0653 28.1973 13.9544 27.7103C13.7922 26.9858 13.7666 26.5939 13.7751 25.5725C13.7922 24.8837 13.8349 23.981 13.8775 23.5535C13.9202 23.1259 14.0739 22.247 14.2275 21.5938C14.3726 20.9406 14.5007 20.133 14.5092 19.7886C14.5092 19.4441 14.569 19.0997 14.6287 19.0166C14.6885 18.9334 14.7312 18.779 14.7312 18.684C14.7312 18.5296 14.586 18.5177 13.8519 18.5415C13.3739 18.5653 12.5032 18.684 11.9142 18.8265C11.3253 18.9572 10.6168 19.171 10.3351 19.3016C10.0534 19.4322 9.77168 19.5985 9.71193 19.6698C9.65217 19.7529 9.56681 20.0261 9.52413 20.2874C9.48145 20.5487 9.37048 21.0831 9.26805 21.475C9.17415 21.867 9.09733 22.2945 9.09733 22.4252C9.09733 22.6508 9.13147 22.6627 9.79729 22.5677C10.1899 22.5202 10.8814 22.4489 11.3423 22.3895C12.102 22.3183 12.1703 22.3302 12.1703 22.5202C12.1703 22.6271 12.2386 22.7934 12.324 22.8765C12.4093 22.9478 12.5459 23.1497 12.6227 23.3159C12.7593 23.601 12.7508 23.6366 12.4264 24.3017C12.1789 24.7886 12.0167 24.9905 11.8545 25.0381C11.7179 25.0618 11.2484 25.1687 10.8045 25.2756C10.3607 25.3706 9.66925 25.5369 9.26805 25.6438C8.86685 25.7507 8.44005 25.8457 8.31201 25.8813C8.17543 25.9051 8.05592 25.9644 8.03885 26.0238C8.01324 26.0713 7.89374 26.487 7.7657 26.9383C7.61205 27.4847 7.53522 27.9597 7.54376 28.3398C7.55229 28.6486 7.50108 29.0524 7.43279 29.2543C7.3645 29.4562 7.21939 29.67 7.11695 29.7412C6.9633 29.8481 6.81819 29.8362 6.51089 29.7175C6.16945 29.5749 6.04994 29.4562 5.84507 29.0167C5.7085 28.7198 5.57192 28.2685 5.54631 28.0072C5.5207 27.6984 5.56338 27.2471 5.85361 25.9288L5.62314 25.7269C5.50363 25.6081 5.3073 25.2518 5.19633 24.9193C5.0939 24.5986 5 24.1711 5 23.9691C5 23.7672 5.07682 23.4466 5.17072 23.2447C5.27316 23.0428 5.47802 22.7934 5.64021 22.6865C5.80239 22.5796 6.0158 22.4846 6.10969 22.4846C6.20359 22.4846 6.37431 22.5677 6.49382 22.6627C6.61332 22.7577 6.72429 22.8052 6.74136 22.7577C6.75844 22.6983 6.86087 22.3658 6.95477 22.0095C7.0572 21.6532 7.13403 21.2613 7.13403 21.1544C7.13403 21.0237 7.03159 20.8931 6.90355 20.8218C6.76697 20.7624 6.52796 20.4536 6.36578 20.1449C6.14384 19.7173 6.06701 19.4323 6.04994 19.0166C6.03287 18.6009 6.06701 18.3752 6.17798 18.209C6.26334 18.0783 6.88648 17.7339 7.68887 17.3657C8.44005 17.0332 9.13147 16.7362 9.22537 16.7006C9.31927 16.6769 9.64364 16.5462 9.95094 16.4156Z" fill="#221111"/>
<path d="M24.5477 16.0711C25.2306 15.9524 25.922 15.8217 26.0842 15.7861C26.2464 15.7624 26.6902 15.7624 27.0658 15.7861C27.7316 15.8455 27.7572 15.8574 28.1158 16.3443C28.3206 16.6175 28.5426 16.9857 28.6109 17.1638C28.6791 17.3538 28.7304 17.6151 28.7304 17.7576C28.7218 17.912 28.6621 18.1377 28.5767 18.2683C28.4999 18.399 28.2523 18.5771 28.0304 18.6484C27.7999 18.7315 27.4414 18.8028 27.2195 18.8028C26.989 18.8028 26.2378 18.9097 25.5293 19.0403C24.8294 19.171 24.2489 19.2897 24.2404 19.3016C24.2404 19.3254 24.0611 19.9311 23.8392 20.6437C23.6172 21.3563 23.438 21.9857 23.438 22.0332C23.438 22.0926 23.3185 22.4846 23.1734 22.924C23.0282 23.3753 22.8319 23.9454 22.7466 24.2067C22.6612 24.468 22.4734 25.0618 22.3368 25.5131C22.2002 25.9644 22.0466 26.6295 21.9954 26.9621C21.9442 27.3065 21.9015 27.6628 21.9015 27.7341C21.91 27.8172 22.0722 28.0904 22.627 28.7673L22.5246 29.2543C22.4393 29.6225 22.3454 29.765 22.1149 29.9075C21.9527 30.0025 21.7308 30.0856 21.6283 30.0856C21.5174 30.0856 21.2101 29.9194 20.9454 29.7056C20.6467 29.4681 20.4589 29.2305 20.4503 29.1118C20.4503 28.993 20.4247 28.8742 20.3906 28.8505C20.3479 28.8267 20.2455 28.4348 20.1601 27.9953C20.0406 27.3896 20.0065 26.9621 20.0406 26.3445C20.0748 25.7507 20.2284 24.9905 20.5613 23.7316C20.8089 22.7577 21.1588 21.5463 21.3296 21.0594C21.5003 20.5724 21.6454 20.0617 21.6454 19.9311C21.6454 19.7173 21.6113 19.7054 21.3722 19.7886C21.2186 19.8361 20.6125 19.9073 18.9565 20.0261L18.6748 19.6817C18.5041 19.4798 18.3249 19.0759 18.2224 18.7196C18.1371 18.3752 18.0602 17.9477 18.0602 17.7695C18.0602 17.5795 18.1029 17.2944 18.1627 17.1163C18.2736 16.7956 18.2822 16.7837 19.0846 16.7837C19.5284 16.7837 20.4503 16.7006 21.1332 16.6056C22.2002 16.4512 22.388 16.4037 22.4819 16.1899C22.5332 16.0593 22.6612 15.9524 22.7551 15.9524C22.849 15.9524 23.0112 16.0355 23.1221 16.1305C23.2929 16.2849 23.438 16.2849 24.5477 16.0711Z" fill="#221111"/>
<path d="M9.95094 16.4156C10.2582 16.2849 10.8899 16.083 11.3594 15.9524C11.8289 15.8336 12.5459 15.7267 13.7068 15.7148L14.2617 16.4037C14.569 16.7719 14.8251 17.1163 14.8165 17.1757C14.8165 17.2232 14.8763 17.2588 14.9446 17.2588C15.0128 17.2588 15.0726 17.1519 15.0726 17.0213C15.0726 16.8906 15.2092 16.6412 15.397 16.4393C15.5677 16.2612 15.7982 16.0474 15.9091 15.9643C16.0116 15.893 16.1567 15.8336 16.225 15.8336C16.3103 15.8336 16.4128 16.1068 16.5152 16.6412C16.6091 17.0807 16.7457 17.5201 16.8225 17.6151C16.9079 17.7339 16.9591 17.9833 16.9591 18.3277C16.9505 18.6246 17.0103 19.0047 17.0786 19.1947C17.1981 19.4916 17.181 19.6104 16.8225 21.095C16.6091 21.9501 16.353 23.2447 16.2506 23.9691C16.0969 25.0974 16.0799 25.525 16.1311 27.1165C16.1823 28.7673 16.1738 28.993 16.0372 29.2424C15.9518 29.4087 15.7555 29.6106 15.6104 29.6937C15.4567 29.7769 15.158 29.8481 14.9446 29.8481C14.5604 29.8481 14.5604 29.8481 14.3556 29.2305C14.2446 28.8861 14.0653 28.1973 13.9544 27.7103C13.7922 26.9858 13.7666 26.5939 13.7751 25.5725C13.7922 24.8837 13.8349 23.981 13.8775 23.5535C13.9202 23.1259 14.0739 22.247 14.2275 21.5938C14.3726 20.9406 14.5007 20.133 14.5092 19.7886C14.5092 19.4441 14.569 19.0997 14.6287 19.0166C14.6885 18.9334 14.7312 18.779 14.7312 18.684C14.7312 18.5296 14.586 18.5177 13.8519 18.5415C13.3739 18.5653 12.5032 18.684 11.9142 18.8265C11.3253 18.9572 10.6168 19.171 10.3351 19.3016C10.0534 19.4322 9.77168 19.5985 9.71193 19.6698C9.65217 19.7529 9.56681 20.0261 9.52413 20.2874C9.48145 20.5487 9.37048 21.0831 9.26805 21.475C9.17415 21.867 9.09733 22.2945 9.09733 22.4252C9.09733 22.6508 9.13147 22.6627 9.79729 22.5677C10.1899 22.5202 10.8814 22.4489 11.3423 22.3895C12.102 22.3183 12.1703 22.3302 12.1703 22.5202C12.1703 22.6271 12.2386 22.7934 12.324 22.8765C12.4093 22.9478 12.5459 23.1497 12.6227 23.3159C12.7593 23.601 12.7508 23.6366 12.4264 24.3017C12.1789 24.7886 12.0167 24.9905 11.8545 25.0381C11.7179 25.0618 11.2484 25.1687 10.8045 25.2756C10.3607 25.3706 9.66925 25.5369 9.26805 25.6438C8.86685 25.7507 8.44005 25.8457 8.31201 25.8813C8.17543 25.9051 8.05592 25.9644 8.03885 26.0238C8.01324 26.0713 7.89374 26.487 7.7657 26.9383C7.61205 27.4847 7.53522 27.9597 7.54376 28.3398C7.55229 28.6486 7.50108 29.0524 7.43279 29.2543C7.3645 29.4562 7.21939 29.67 7.11695 29.7412C6.9633 29.8481 6.81819 29.8362 6.51089 29.7175C6.16945 29.5749 6.04994 29.4562 5.84507 29.0167C5.7085 28.7198 5.57192 28.2685 5.54631 28.0072C5.5207 27.6984 5.56338 27.2471 5.85361 25.9288L5.62314 25.7269C5.50363 25.6081 5.3073 25.2518 5.19633 24.9193C5.0939 24.5986 5 24.1711 5 23.9691C5 23.7672 5.07682 23.4466 5.17072 23.2447C5.27316 23.0428 5.47802 22.7934 5.64021 22.6865C5.80239 22.5796 6.0158 22.4846 6.10969 22.4846C6.20359 22.4846 6.37431 22.5677 6.49382 22.6627C6.61332 22.7577 6.72429 22.8052 6.74136 22.7577C6.75844 22.6983 6.86087 22.3658 6.95477 22.0095C7.0572 21.6532 7.13403 21.2613 7.13403 21.1544C7.13403 21.0237 7.03159 20.8931 6.90355 20.8218C6.76697 20.7624 6.52796 20.4536 6.36578 20.1449C6.14384 19.7173 6.06701 19.4323 6.04994 19.0166C6.03287 18.6009 6.06701 18.3752 6.17798 18.209C6.26334 18.0783 6.88648 17.7339 7.68887 17.3657C8.44005 17.0332 9.13147 16.7362 9.22537 16.7006C9.31927 16.6769 9.64364 16.5462 9.95094 16.4156Z" stroke="#F7FEFF" stroke-width="2.09802" mask="url(#path-6-outside-1_81_17909)"/>
<path d="M24.5477 16.0711C25.2306 15.9524 25.922 15.8217 26.0842 15.7861C26.2464 15.7624 26.6902 15.7624 27.0658 15.7861C27.7316 15.8455 27.7572 15.8574 28.1158 16.3443C28.3206 16.6175 28.5426 16.9857 28.6109 17.1638C28.6791 17.3538 28.7304 17.6151 28.7304 17.7576C28.7218 17.912 28.6621 18.1377 28.5767 18.2683C28.4999 18.399 28.2523 18.5771 28.0304 18.6484C27.7999 18.7315 27.4414 18.8028 27.2195 18.8028C26.989 18.8028 26.2378 18.9097 25.5293 19.0403C24.8294 19.171 24.2489 19.2897 24.2404 19.3016C24.2404 19.3254 24.0611 19.9311 23.8392 20.6437C23.6172 21.3563 23.438 21.9857 23.438 22.0332C23.438 22.0926 23.3185 22.4846 23.1734 22.924C23.0282 23.3753 22.8319 23.9454 22.7466 24.2067C22.6612 24.468 22.4734 25.0618 22.3368 25.5131C22.2002 25.9644 22.0466 26.6295 21.9954 26.9621C21.9442 27.3065 21.9015 27.6628 21.9015 27.7341C21.91 27.8172 22.0722 28.0904 22.627 28.7673L22.5246 29.2543C22.4393 29.6225 22.3454 29.765 22.1149 29.9075C21.9527 30.0025 21.7308 30.0856 21.6283 30.0856C21.5174 30.0856 21.2101 29.9194 20.9454 29.7056C20.6467 29.4681 20.4589 29.2305 20.4503 29.1118C20.4503 28.993 20.4247 28.8742 20.3906 28.8505C20.3479 28.8267 20.2455 28.4348 20.1601 27.9953C20.0406 27.3896 20.0065 26.9621 20.0406 26.3445C20.0748 25.7507 20.2284 24.9905 20.5613 23.7316C20.8089 22.7577 21.1588 21.5463 21.3296 21.0594C21.5003 20.5724 21.6454 20.0617 21.6454 19.9311C21.6454 19.7173 21.6113 19.7054 21.3722 19.7886C21.2186 19.8361 20.6125 19.9073 18.9565 20.0261L18.6748 19.6817C18.5041 19.4798 18.3249 19.0759 18.2224 18.7196C18.1371 18.3752 18.0602 17.9477 18.0602 17.7695C18.0602 17.5795 18.1029 17.2944 18.1627 17.1163C18.2736 16.7956 18.2822 16.7837 19.0846 16.7837C19.5284 16.7837 20.4503 16.7006 21.1332 16.6056C22.2002 16.4512 22.388 16.4037 22.4819 16.1899C22.5332 16.0593 22.6612 15.9524 22.7551 15.9524C22.849 15.9524 23.0112 16.0355 23.1221 16.1305C23.2929 16.2849 23.438 16.2849 24.5477 16.0711Z" stroke="#F7FEFF" stroke-width="2.09802" mask="url(#path-6-outside-1_81_17909)"/>
<path d="M27.7754 8.80521C27.3904 8.85429 27.0131 8.9148 26.7111 8.97114C26.5594 8.99944 26.4235 9.02729 26.3132 9.05278C26.2303 9.07194 26.1313 9.09645 26.0501 9.12589C26.0417 9.12706 26.0313 9.12864 26.0198 9.13071C25.9762 9.13859 25.915 9.1538 25.8465 9.18687C25.7112 9.25213 25.6259 9.34903 25.579 9.40805C25.5311 9.46836 25.4838 9.54096 25.4362 9.61815C25.3718 9.71989 25.3134 9.82666 25.2771 9.94187C25.2356 10.0734 25.2337 10.1811 25.2388 10.2641C25.2403 10.2887 25.2422 10.3097 25.2439 10.3291C25.2502 10.4002 25.2548 10.4512 25.2329 10.5836L25.2316 10.5915L25.2305 10.5993C25.1755 11.0084 25.118 11.6607 25.1203 12.0522C25.1216 12.2646 25.1456 12.4871 25.1837 12.681C25.2182 12.8568 25.276 13.0727 25.3763 13.2278L25.3763 13.2278C25.5109 13.436 25.7435 13.5714 25.9516 13.6656C26.1775 13.7678 26.4599 13.8578 26.7832 13.9373C27.2137 14.0452 27.5316 14.1098 27.8891 14.108C28.2364 14.1062 28.597 14.0414 29.1038 13.9419C29.104 13.9419 29.1042 13.9418 29.1044 13.9418L27.7754 8.80521ZM27.7754 8.80521L27.7756 8.80267C27.9766 8.7791 28.3594 8.66803 28.906 8.48475C29.1656 8.39771 29.4481 8.29939 29.7478 8.1951L29.76 8.19085C30.0631 8.08539 30.3825 7.97429 30.706 7.86536C31.351 7.64817 32.0251 7.43512 32.6408 7.28707C33.2415 7.1426 33.8455 7.04475 34.3262 7.09732C35.6309 7.23294 36.5429 7.39167 37.0954 7.63806C37.5093 7.81358 38.1258 8.16633 38.4873 8.44953C38.7406 8.64449 38.9455 8.82909 39.1049 9.06362C39.2652 9.29954 39.3595 9.55614 39.441 9.86322C39.5425 10.2189 39.7497 10.5975 39.9083 10.7616C40.29 11.1204 40.4903 11.598 40.6051 12.2004C40.696 12.6553 40.7518 13.2615 40.7153 13.5803L40.7138 13.5932L40.7117 13.6062C40.6771 13.8151 40.5633 14.0748 40.4471 14.3019C40.322 14.5461 40.1602 14.8171 39.9846 15.0686C39.6371 15.5734 38.8388 16.4066 38.218 16.9458L27.7754 8.80521ZM35.0505 26.6077L35.084 27.1216C36.5413 26.9179 38.0527 26.7067 38.5091 26.6636C38.7815 26.6379 39.0554 26.5883 39.2835 26.5285C39.3971 26.4986 39.5082 26.464 39.6065 26.4247C39.6866 26.3927 39.8229 26.3332 39.9348 26.2315L39.9406 26.2263C39.9463 26.2235 39.9551 26.2198 39.9665 26.2162C39.9817 26.2114 39.9959 26.2086 40.0067 26.2074C40.0105 26.207 40.0131 26.2069 40.0146 26.2069L40.0301 26.2094L40.0506 26.2111C40.3427 26.2351 40.7366 26.1554 41.0214 26.0212C41.1955 25.9487 41.364 25.8343 41.5002 25.723C41.6397 25.6089 41.7819 25.4682 41.8905 25.3192C42.0023 25.1792 42.0984 25.0107 42.171 24.8536C42.2442 24.6953 42.31 24.5129 42.3403 24.3411C42.3814 24.1436 42.3641 23.9431 42.3312 23.784C42.2969 23.6178 42.234 23.4411 42.1412 23.2976C42.1216 23.2673 42.0873 23.1937 42.0585 23.0898C42.0302 22.9877 42.0177 22.894 42.0186 22.8328C42.0213 22.6389 41.9755 22.4178 41.9207 22.228C41.8635 22.0303 41.7835 21.8221 41.6915 21.6471L41.6906 21.6455L41.6817 21.6286C41.5678 21.4138 41.4335 21.1604 41.1852 21.012C40.9402 20.8656 40.6398 20.8554 40.3807 20.8466L35.0505 26.6077ZM40.3615 20.846C39.9511 20.8292 39.3254 20.9031 38.9342 21.0001C38.6203 21.0743 38.0197 21.1476 37.5956 21.1673C37.1192 21.1894 36.3369 21.289 35.8136 21.3971C35.6039 21.4404 35.048 21.5014 34.4114 21.5573C33.789 21.6119 33.1348 21.658 32.7547 21.6756L32.7547 21.6755L32.745 21.6761C32.4465 21.6953 32.156 21.702 31.9092 21.7001C32.1867 21.4309 32.7791 20.9734 33.3084 20.6474L33.3085 20.6475L33.3135 20.6443C33.628 20.4462 33.9251 20.2401 34.1505 20.0663C34.2618 19.9804 34.3651 19.8952 34.4464 19.8181C34.4862 19.7803 34.5314 19.7345 34.5718 19.6842L34.5734 19.6822C34.5907 19.6607 34.6438 19.5946 34.6821 19.4995C34.692 19.4876 34.7059 19.4716 34.7245 19.4519C34.7881 19.3843 34.8767 19.3034 34.9678 19.2337C35.2025 19.0662 35.7566 18.7124 36.1939 18.4555C36.6852 18.1668 37.5841 17.497 38.2178 16.946L40.3615 20.846ZM31.3631 21.6871L31.1083 22.1607L31.3082 21.6672C31.3173 21.6695 31.3377 21.6755 31.3631 21.6871ZM26.0802 9.12219L26.0802 9.12219L26.0802 9.12219Z" fill="#221111" stroke="#F7FEFF" stroke-width="1.04901"/>
<mask id="path-8-outside-2_81_17909" maskUnits="userSpaceOnUse" x="57.6914" y="13.7148" width="37" height="18" fill="black">
<rect fill="white" x="57.6914" y="13.7148" width="37" height="18"/>
<path d="M90.2657 17.2318C90.6974 16.6181 91.1042 16.1549 91.3615 15.9928C91.594 15.8422 91.843 15.7148 91.9261 15.7148C92.0008 15.7148 92.0672 15.7843 92.0672 15.8654C92.0672 15.9349 92.1668 16.1433 92.2913 16.3054C92.4241 16.4675 92.6151 16.676 92.7313 16.7802C92.8475 16.8728 92.9637 17.1044 92.9886 17.2897C93.0135 17.475 92.9969 17.7529 92.9554 17.915C92.9139 18.0772 92.5487 18.6677 92.1419 19.2467C91.7351 19.8257 91.3948 20.3816 91.4031 20.4974C91.4031 20.6016 91.3366 20.7058 91.2619 20.729C91.1789 20.7522 90.9299 21.1575 90.714 21.6322C90.4982 22.107 90.0665 23.0797 89.7594 23.7977C89.4522 24.5157 89.1201 25.3031 89.0205 25.5347C88.9209 25.7663 88.7383 26.2527 88.6221 26.6001C88.4975 26.9475 88.3232 27.3875 88.2236 27.5844C88.124 27.7812 87.9247 28.2676 87.7836 28.6845C87.6425 29.1013 87.4183 29.5877 87.2855 29.7614C87.0863 30.0393 86.995 30.0856 86.7542 30.0277C86.5965 29.993 86.3309 29.8425 86.1731 29.7035C86.0154 29.553 85.7996 29.2056 85.509 28.395L85.6667 27.6423C85.7581 27.2254 85.8909 26.8085 85.9656 26.7159C86.0403 26.6232 86.0984 26.4958 86.0901 26.4264C86.0901 26.3569 86.3143 25.7547 86.5882 25.0715C86.8621 24.3767 87.0863 23.7514 87.0863 23.6819C87.0863 23.6008 86.995 23.404 86.8787 23.2419C86.7625 23.0797 86.5716 22.6165 86.4554 22.1997C86.3392 21.7828 86.1648 20.9259 86.0735 20.289C85.9822 19.652 85.8992 18.8993 85.8826 18.6098C85.8743 18.3203 85.8411 17.7529 85.7996 17.336C85.7498 16.6644 85.758 16.5486 85.9158 16.2707C86.0154 16.0854 86.1648 15.9464 86.2561 15.9464C86.3475 15.9464 86.6463 16.097 86.9203 16.2938C87.1942 16.4907 87.5263 16.8149 87.6674 17.0118C87.8085 17.2318 87.9164 17.5213 87.9164 17.6834C87.9164 17.8456 87.9496 18.1235 87.9912 18.3203C88.0327 18.5172 88.1157 19.0036 88.1821 19.4089C88.2402 19.8257 88.3315 20.2426 88.3813 20.3353C88.456 20.4858 88.539 20.3932 88.8794 19.7678C89.1035 19.351 89.3526 18.8299 89.4356 18.6098C89.5186 18.3898 89.8922 17.7645 90.2657 17.2318Z"/>
<path d="M64.4233 16.5949C64.8549 16.5023 65.5273 16.3402 65.9175 16.2591C66.3077 16.1665 66.6979 16.1201 66.7892 16.1549C66.8805 16.1896 67.0465 16.2128 67.1627 16.2012C67.279 16.2012 67.4782 16.3402 67.6193 16.5139C67.7604 16.6991 67.9514 16.8728 68.0593 16.9192C68.2087 16.9886 68.2419 17.0813 68.2419 17.4634C68.2419 17.8456 68.1838 18.0077 67.9348 18.3667C67.7438 18.633 67.4533 18.8878 67.2042 19.0036C66.9801 19.1078 66.4322 19.2699 66.0005 19.3741C65.5689 19.4784 65.0625 19.652 64.8798 19.7678C64.6972 19.8837 64.3651 20.011 64.1327 20.0574C63.9086 20.1037 63.5931 20.2079 63.4437 20.2774C63.2029 20.3932 63.1697 20.4627 63.2195 21.1111L64.4897 21.088C65.4526 21.0648 65.7515 21.088 65.7515 21.2038C65.7515 21.2733 65.8677 21.5049 66.0171 21.7133C66.1666 21.9102 66.3907 22.1418 66.5235 22.1997C66.6896 22.2923 66.7477 22.4081 66.7477 22.6513C66.756 22.906 66.6646 23.045 66.233 23.4503C65.9424 23.7166 65.5606 24.0293 65.3779 24.1335C65.1123 24.2956 64.7968 24.342 62.5886 24.3535L62.3645 24.8746C62.24 25.1641 62.0739 25.5926 61.9909 25.8358C61.9162 26.0674 61.8747 26.2874 61.9162 26.3221C61.9494 26.3569 62.2898 26.38 62.6799 26.38C63.0701 26.38 63.8006 26.299 64.2987 26.2063C64.8051 26.1253 65.4941 25.9632 66.4571 25.6737L66.7477 26.079C66.9054 26.3106 67.0797 26.4958 67.1212 26.4958C67.171 26.4958 67.2707 26.6927 67.3454 26.9243C67.4865 27.3643 67.4865 27.3643 67.2375 27.8623C67.1046 28.1286 66.839 28.476 66.648 28.6266C66.4488 28.7771 66.0088 28.9971 65.6685 29.1013C65.3281 29.2056 64.6723 29.3445 64.2157 29.4024C63.7591 29.4719 63.0286 29.553 62.5969 29.5877C62.1154 29.6224 61.634 29.5993 61.3517 29.5182C61.1027 29.4372 60.7706 29.2866 60.6129 29.1824C60.4551 29.0782 60.231 28.7771 60.1231 28.5223C60.0069 28.2676 59.8657 27.6886 59.7993 27.2485C59.7412 26.8085 59.6914 26.1832 59.6914 25.8589C59.6914 25.4884 59.7495 25.1526 59.8574 24.9094C59.9488 24.7009 60.0235 24.4578 60.0235 24.3883C60.0235 24.3072 60.0733 24.1567 60.1397 24.064C60.1978 23.9714 60.4385 23.2998 61.1027 21.2848L60.9449 20.9722C60.8619 20.7869 60.7623 20.5206 60.7291 20.3584C60.6876 20.1963 60.6129 19.6984 60.4551 18.4477L60.7125 18.1235C60.8619 17.9498 61.2189 17.7066 61.5177 17.5908L61.5181 17.5907C61.817 17.4748 62.4145 17.2433 62.846 17.0697C63.2776 16.9076 63.9916 16.6991 64.4233 16.5949Z"/>
<path fill-rule="evenodd" clip-rule="evenodd" d="M72.3512 16.0043C72.1685 16.097 71.8531 16.3981 71.6538 16.6644C71.4546 16.9423 71.0395 17.6255 70.7324 18.2045C70.4252 18.7835 70.0932 19.351 70.0018 19.4783C69.869 19.652 69.7943 19.6752 69.7196 19.5826C69.6615 19.5131 69.5287 19.4204 69.429 19.3741C69.2879 19.3278 69.2049 19.3741 69.1219 19.5594C69.0555 19.7099 68.8645 20.6595 68.6985 21.6786C68.5242 22.6976 68.3498 23.8209 68.3083 24.1683C68.2668 24.5157 68.217 24.9557 68.2004 25.1526C68.1838 25.3494 68.1174 25.8126 68.0427 26.1948C67.9763 26.5769 67.9099 27.0169 67.9016 27.1791C67.885 27.3412 67.9182 27.5728 67.968 27.7002C68.0178 27.8275 68.0925 28.1402 68.1257 28.395C68.1589 28.6497 68.2668 28.9624 68.3582 29.0898C68.4578 29.2171 68.6238 29.3908 68.74 29.4719C68.9143 29.5993 68.9974 29.5761 69.3045 29.3793C69.5868 29.194 69.6947 29.0319 69.8524 28.5339C69.9603 28.2097 70.0683 27.7581 70.1015 27.5496C70.1264 27.3528 70.1928 27.1791 70.2343 27.1791C70.2758 27.1791 70.4584 27.3528 70.6328 27.5728C70.7988 27.7812 71.1308 28.117 71.355 28.3139C71.5874 28.5108 72.2017 28.9045 72.7247 29.1824C73.2477 29.4603 73.945 29.7846 74.2605 29.9004C74.5843 30.0046 75.0491 30.0856 75.2982 30.0856C75.5638 30.0856 75.8378 30.0046 75.9457 29.9004C76.0453 29.8077 76.1698 29.6109 76.228 29.4603C76.2778 29.3214 76.3359 28.974 76.3525 28.6845C76.3691 28.3371 76.3276 28.0012 76.2114 27.6654C76.0536 27.2138 76.0204 27.1791 75.6551 27.1212C75.431 27.0864 74.825 26.9243 74.302 26.7622C73.779 26.5885 73.1813 26.3453 72.9738 26.2063C72.7662 26.0558 72.4425 25.801 72.2515 25.6389C72.0523 25.4652 71.8946 25.2799 71.8946 25.2105C71.8946 25.141 72.0357 25.0252 72.21 24.9325C72.3761 24.8515 72.7413 24.6894 73.0153 24.5736C73.2892 24.4693 73.7375 24.2377 74.0115 24.064C74.2854 23.8903 74.7088 23.4966 74.9495 23.184C75.2069 22.8481 75.4227 22.4313 75.4808 22.1997C75.5306 21.9796 75.5721 21.5628 75.5638 21.2733C75.5638 20.9722 75.4559 20.37 75.2982 19.8257C75.1571 19.3162 74.9329 18.633 74.8167 18.3203C74.6922 17.9961 74.5178 17.6603 74.4265 17.5676C74.3352 17.475 74.1858 17.2666 74.0945 17.1276C74.0032 16.9771 73.696 16.6181 73.4138 16.3402C73.1232 16.0622 72.8409 15.8306 72.7911 15.8306C72.733 15.8422 72.5338 15.9117 72.3512 16.0043ZM71.1724 21.9102C71.1973 21.7133 71.4629 21.169 71.8033 20.6016C72.127 20.0805 72.4508 19.652 72.5089 19.652C72.5753 19.652 72.733 19.7794 72.8659 19.9184C72.9904 20.0689 73.1315 20.3584 73.173 20.5553C73.2228 20.7522 73.256 20.9953 73.256 21.0996C73.256 21.2269 73.0568 21.4006 72.6749 21.6322C72.3595 21.8175 71.8863 22.0491 71.6372 22.1418C71.3882 22.2344 71.1724 22.2923 71.1558 22.2807C71.1392 22.2691 71.1474 22.107 71.1724 21.9102Z"/>
<path fill-rule="evenodd" clip-rule="evenodd" d="M78.9923 16.2823C79.4489 16.1433 80.1545 15.9928 80.5696 15.9464C80.9847 15.9001 81.5243 15.877 81.7733 15.9001C82.0224 15.9233 82.4043 15.9812 82.6118 16.0275C82.8276 16.0738 83.0933 16.2359 83.1929 16.3749C83.3008 16.5254 83.4336 16.6412 83.4751 16.6412C83.5166 16.6412 83.7491 16.9076 83.9815 17.2434C84.214 17.5792 84.4547 18.0424 84.5045 18.2624C84.5543 18.4825 84.5958 18.7951 84.5958 18.9572C84.5958 19.1194 84.5045 19.5015 84.3883 19.8257C84.2804 20.1384 83.9151 20.7985 82.9937 22.1418L83.4336 22.6629C83.6827 22.9524 84.0396 23.404 84.2389 23.6703C84.4381 23.9482 84.6789 24.3883 84.7702 24.6546C84.8698 24.9325 84.9694 25.4073 84.986 25.7316C85.0109 26.2642 84.986 26.3569 84.654 26.9475C84.3551 27.4801 84.1559 27.6886 83.3921 28.2444C82.8857 28.6034 82.1967 29.0087 81.8564 29.1361C81.516 29.2635 81.0843 29.4487 80.9017 29.553C80.719 29.6688 80.3289 29.773 80.03 29.7961C79.5735 29.8425 79.4323 29.7961 78.7433 29.2519L78.5607 29.553C78.4278 29.7614 78.295 29.8309 78.129 29.8077C77.9962 29.7961 77.7637 29.6224 77.606 29.4256C77.4566 29.2171 77.2905 28.9855 77.249 28.9045C77.2075 28.8118 77.1079 28.5571 77.0332 28.3371C76.9502 28.1055 76.9087 27.7812 76.9336 27.5844C76.9585 27.3875 77.0166 27.1675 77.0498 27.0864C77.0913 27.0169 77.1079 26.878 77.0913 26.7969C77.0747 26.7274 77.1328 26.3569 77.2158 25.9863C77.2988 25.6273 77.4234 25.2105 77.4898 25.0715C77.5562 24.921 77.7305 24.0988 77.8716 23.2419C78.0211 22.3849 78.212 21.4006 78.295 21.0764C78.378 20.7406 78.4527 20.3121 78.4527 20.1153C78.4527 19.9184 78.4361 19.7678 78.4112 19.7678C78.3863 19.7678 78.3033 19.8142 78.2286 19.8721C78.1456 19.9184 78.0543 20.1037 78.0211 20.2774C77.9713 20.4974 77.8799 20.6016 77.689 20.6479C77.4815 20.7058 77.3237 20.6595 77.0415 20.4395C76.834 20.2774 76.5434 19.9416 76.394 19.6984C76.2446 19.4552 76.0702 19.073 76.0038 18.8762C75.8959 18.5404 75.8959 18.4593 76.0038 18.1466C76.0702 17.9498 76.2695 17.6603 76.4438 17.475C76.6098 17.3013 77.0664 17.0118 77.4566 16.8381C77.8467 16.6644 78.5358 16.4212 78.9923 16.2823ZM80.6942 23.9714L79.9968 24.2262C79.4738 26.2411 79.3493 26.8664 79.3825 26.9127C79.4157 26.9706 79.6233 26.9475 79.8391 26.8664C80.0549 26.7969 80.6942 26.4495 81.267 26.1137C82.0224 25.6505 82.4126 25.3494 82.7031 24.9673C82.9189 24.6894 83.0933 24.4114 83.0933 24.342C83.0933 24.2725 82.9522 24.1335 82.7861 24.0177C82.6118 23.8903 82.2299 23.7745 81.9311 23.7514C81.5492 23.7166 81.1922 23.7745 80.6942 23.9714ZM79.9968 18.9457C80.3123 18.8067 80.7274 18.6562 80.9349 18.6098C81.1424 18.5635 81.4828 18.5172 81.7069 18.5056C81.9228 18.5056 82.0971 18.5519 82.0971 18.6098C82.0971 18.6677 81.8813 19.0036 81.6156 19.3278C81.35 19.6636 80.9432 20.0805 80.2708 20.5785L80.0051 20.1963C79.8557 19.9879 79.6399 19.7447 79.5319 19.652C79.4157 19.5478 79.3493 19.4204 79.3825 19.3394C79.4157 19.2583 79.6897 19.073 79.9968 18.9457Z"/>
</mask>
<path d="M90.2657 17.2318C90.6974 16.6181 91.1042 16.1549 91.3615 15.9928C91.594 15.8422 91.843 15.7148 91.9261 15.7148C92.0008 15.7148 92.0672 15.7843 92.0672 15.8654C92.0672 15.9349 92.1668 16.1433 92.2913 16.3054C92.4241 16.4675 92.6151 16.676 92.7313 16.7802C92.8475 16.8728 92.9637 17.1044 92.9886 17.2897C93.0135 17.475 92.9969 17.7529 92.9554 17.915C92.9139 18.0772 92.5487 18.6677 92.1419 19.2467C91.7351 19.8257 91.3948 20.3816 91.4031 20.4974C91.4031 20.6016 91.3366 20.7058 91.2619 20.729C91.1789 20.7522 90.9299 21.1575 90.714 21.6322C90.4982 22.107 90.0665 23.0797 89.7594 23.7977C89.4522 24.5157 89.1201 25.3031 89.0205 25.5347C88.9209 25.7663 88.7383 26.2527 88.6221 26.6001C88.4975 26.9475 88.3232 27.3875 88.2236 27.5844C88.124 27.7812 87.9247 28.2676 87.7836 28.6845C87.6425 29.1013 87.4183 29.5877 87.2855 29.7614C87.0863 30.0393 86.995 30.0856 86.7542 30.0277C86.5965 29.993 86.3309 29.8425 86.1731 29.7035C86.0154 29.553 85.7996 29.2056 85.509 28.395L85.6667 27.6423C85.7581 27.2254 85.8909 26.8085 85.9656 26.7159C86.0403 26.6232 86.0984 26.4958 86.0901 26.4264C86.0901 26.3569 86.3143 25.7547 86.5882 25.0715C86.8621 24.3767 87.0863 23.7514 87.0863 23.6819C87.0863 23.6008 86.995 23.404 86.8787 23.2419C86.7625 23.0797 86.5716 22.6165 86.4554 22.1997C86.3392 21.7828 86.1648 20.9259 86.0735 20.289C85.9822 19.652 85.8992 18.8993 85.8826 18.6098C85.8743 18.3203 85.8411 17.7529 85.7996 17.336C85.7498 16.6644 85.758 16.5486 85.9158 16.2707C86.0154 16.0854 86.1648 15.9464 86.2561 15.9464C86.3475 15.9464 86.6463 16.097 86.9203 16.2938C87.1942 16.4907 87.5263 16.8149 87.6674 17.0118C87.8085 17.2318 87.9164 17.5213 87.9164 17.6834C87.9164 17.8456 87.9496 18.1235 87.9912 18.3203C88.0327 18.5172 88.1157 19.0036 88.1821 19.4089C88.2402 19.8257 88.3315 20.2426 88.3813 20.3353C88.456 20.4858 88.539 20.3932 88.8794 19.7678C89.1035 19.351 89.3526 18.8299 89.4356 18.6098C89.5186 18.3898 89.8922 17.7645 90.2657 17.2318Z" fill="#221111"/>
<path d="M64.4233 16.5949C64.8549 16.5023 65.5273 16.3402 65.9175 16.2591C66.3077 16.1665 66.6979 16.1201 66.7892 16.1549C66.8805 16.1896 67.0465 16.2128 67.1627 16.2012C67.279 16.2012 67.4782 16.3402 67.6193 16.5139C67.7604 16.6991 67.9514 16.8728 68.0593 16.9192C68.2087 16.9886 68.2419 17.0813 68.2419 17.4634C68.2419 17.8456 68.1838 18.0077 67.9348 18.3667C67.7438 18.633 67.4533 18.8878 67.2042 19.0036C66.9801 19.1078 66.4322 19.2699 66.0005 19.3741C65.5689 19.4784 65.0625 19.652 64.8798 19.7678C64.6972 19.8837 64.3651 20.011 64.1327 20.0574C63.9086 20.1037 63.5931 20.2079 63.4437 20.2774C63.2029 20.3932 63.1697 20.4627 63.2195 21.1111L64.4897 21.088C65.4526 21.0648 65.7515 21.088 65.7515 21.2038C65.7515 21.2733 65.8677 21.5049 66.0171 21.7133C66.1666 21.9102 66.3907 22.1418 66.5235 22.1997C66.6896 22.2923 66.7477 22.4081 66.7477 22.6513C66.756 22.906 66.6646 23.045 66.233 23.4503C65.9424 23.7166 65.5606 24.0293 65.3779 24.1335C65.1123 24.2956 64.7968 24.342 62.5886 24.3535L62.3645 24.8746C62.24 25.1641 62.0739 25.5926 61.9909 25.8358C61.9162 26.0674 61.8747 26.2874 61.9162 26.3221C61.9494 26.3569 62.2898 26.38 62.6799 26.38C63.0701 26.38 63.8006 26.299 64.2987 26.2063C64.8051 26.1253 65.4941 25.9632 66.4571 25.6737L66.7477 26.079C66.9054 26.3106 67.0797 26.4958 67.1212 26.4958C67.171 26.4958 67.2707 26.6927 67.3454 26.9243C67.4865 27.3643 67.4865 27.3643 67.2375 27.8623C67.1046 28.1286 66.839 28.476 66.648 28.6266C66.4488 28.7771 66.0088 28.9971 65.6685 29.1013C65.3281 29.2056 64.6723 29.3445 64.2157 29.4024C63.7591 29.4719 63.0286 29.553 62.5969 29.5877C62.1154 29.6224 61.634 29.5993 61.3517 29.5182C61.1027 29.4372 60.7706 29.2866 60.6129 29.1824C60.4551 29.0782 60.231 28.7771 60.1231 28.5223C60.0069 28.2676 59.8657 27.6886 59.7993 27.2485C59.7412 26.8085 59.6914 26.1832 59.6914 25.8589C59.6914 25.4884 59.7495 25.1526 59.8574 24.9094C59.9488 24.7009 60.0235 24.4578 60.0235 24.3883C60.0235 24.3072 60.0733 24.1567 60.1397 24.064C60.1978 23.9714 60.4385 23.2998 61.1027 21.2848L60.9449 20.9722C60.8619 20.7869 60.7623 20.5206 60.7291 20.3584C60.6876 20.1963 60.6129 19.6984 60.4551 18.4477L60.7125 18.1235C60.8619 17.9498 61.2189 17.7066 61.5177 17.5908L61.5181 17.5907C61.817 17.4748 62.4145 17.2433 62.846 17.0697C63.2776 16.9076 63.9916 16.6991 64.4233 16.5949Z" fill="#221111"/>
<path fill-rule="evenodd" clip-rule="evenodd" d="M72.3512 16.0043C72.1685 16.097 71.8531 16.3981 71.6538 16.6644C71.4546 16.9423 71.0395 17.6255 70.7324 18.2045C70.4252 18.7835 70.0932 19.351 70.0018 19.4783C69.869 19.652 69.7943 19.6752 69.7196 19.5826C69.6615 19.5131 69.5287 19.4204 69.429 19.3741C69.2879 19.3278 69.2049 19.3741 69.1219 19.5594C69.0555 19.7099 68.8645 20.6595 68.6985 21.6786C68.5242 22.6976 68.3498 23.8209 68.3083 24.1683C68.2668 24.5157 68.217 24.9557 68.2004 25.1526C68.1838 25.3494 68.1174 25.8126 68.0427 26.1948C67.9763 26.5769 67.9099 27.0169 67.9016 27.1791C67.885 27.3412 67.9182 27.5728 67.968 27.7002C68.0178 27.8275 68.0925 28.1402 68.1257 28.395C68.1589 28.6497 68.2668 28.9624 68.3582 29.0898C68.4578 29.2171 68.6238 29.3908 68.74 29.4719C68.9143 29.5993 68.9974 29.5761 69.3045 29.3793C69.5868 29.194 69.6947 29.0319 69.8524 28.5339C69.9603 28.2097 70.0683 27.7581 70.1015 27.5496C70.1264 27.3528 70.1928 27.1791 70.2343 27.1791C70.2758 27.1791 70.4584 27.3528 70.6328 27.5728C70.7988 27.7812 71.1308 28.117 71.355 28.3139C71.5874 28.5108 72.2017 28.9045 72.7247 29.1824C73.2477 29.4603 73.945 29.7846 74.2605 29.9004C74.5843 30.0046 75.0491 30.0856 75.2982 30.0856C75.5638 30.0856 75.8378 30.0046 75.9457 29.9004C76.0453 29.8077 76.1698 29.6109 76.228 29.4603C76.2778 29.3214 76.3359 28.974 76.3525 28.6845C76.3691 28.3371 76.3276 28.0012 76.2114 27.6654C76.0536 27.2138 76.0204 27.1791 75.6551 27.1212C75.431 27.0864 74.825 26.9243 74.302 26.7622C73.779 26.5885 73.1813 26.3453 72.9738 26.2063C72.7662 26.0558 72.4425 25.801 72.2515 25.6389C72.0523 25.4652 71.8946 25.2799 71.8946 25.2105C71.8946 25.141 72.0357 25.0252 72.21 24.9325C72.3761 24.8515 72.7413 24.6894 73.0153 24.5736C73.2892 24.4693 73.7375 24.2377 74.0115 24.064C74.2854 23.8903 74.7088 23.4966 74.9495 23.184C75.2069 22.8481 75.4227 22.4313 75.4808 22.1997C75.5306 21.9796 75.5721 21.5628 75.5638 21.2733C75.5638 20.9722 75.4559 20.37 75.2982 19.8257C75.1571 19.3162 74.9329 18.633 74.8167 18.3203C74.6922 17.9961 74.5178 17.6603 74.4265 17.5676C74.3352 17.475 74.1858 17.2666 74.0945 17.1276C74.0032 16.9771 73.696 16.6181 73.4138 16.3402C73.1232 16.0622 72.8409 15.8306 72.7911 15.8306C72.733 15.8422 72.5338 15.9117 72.3512 16.0043ZM71.1724 21.9102C71.1973 21.7133 71.4629 21.169 71.8033 20.6016C72.127 20.0805 72.4508 19.652 72.5089 19.652C72.5753 19.652 72.733 19.7794 72.8659 19.9184C72.9904 20.0689 73.1315 20.3584 73.173 20.5553C73.2228 20.7522 73.256 20.9953 73.256 21.0996C73.256 21.2269 73.0568 21.4006 72.6749 21.6322C72.3595 21.8175 71.8863 22.0491 71.6372 22.1418C71.3882 22.2344 71.1724 22.2923 71.1558 22.2807C71.1392 22.2691 71.1474 22.107 71.1724 21.9102Z" fill="#221111"/>
<path fill-rule="evenodd" clip-rule="evenodd" d="M78.9923 16.2823C79.4489 16.1433 80.1545 15.9928 80.5696 15.9464C80.9847 15.9001 81.5243 15.877 81.7733 15.9001C82.0224 15.9233 82.4043 15.9812 82.6118 16.0275C82.8276 16.0738 83.0933 16.2359 83.1929 16.3749C83.3008 16.5254 83.4336 16.6412 83.4751 16.6412C83.5166 16.6412 83.7491 16.9076 83.9815 17.2434C84.214 17.5792 84.4547 18.0424 84.5045 18.2624C84.5543 18.4825 84.5958 18.7951 84.5958 18.9572C84.5958 19.1194 84.5045 19.5015 84.3883 19.8257C84.2804 20.1384 83.9151 20.7985 82.9937 22.1418L83.4336 22.6629C83.6827 22.9524 84.0396 23.404 84.2389 23.6703C84.4381 23.9482 84.6789 24.3883 84.7702 24.6546C84.8698 24.9325 84.9694 25.4073 84.986 25.7316C85.0109 26.2642 84.986 26.3569 84.654 26.9475C84.3551 27.4801 84.1559 27.6886 83.3921 28.2444C82.8857 28.6034 82.1967 29.0087 81.8564 29.1361C81.516 29.2635 81.0843 29.4487 80.9017 29.553C80.719 29.6688 80.3289 29.773 80.03 29.7961C79.5735 29.8425 79.4323 29.7961 78.7433 29.2519L78.5607 29.553C78.4278 29.7614 78.295 29.8309 78.129 29.8077C77.9962 29.7961 77.7637 29.6224 77.606 29.4256C77.4566 29.2171 77.2905 28.9855 77.249 28.9045C77.2075 28.8118 77.1079 28.5571 77.0332 28.3371C76.9502 28.1055 76.9087 27.7812 76.9336 27.5844C76.9585 27.3875 77.0166 27.1675 77.0498 27.0864C77.0913 27.0169 77.1079 26.878 77.0913 26.7969C77.0747 26.7274 77.1328 26.3569 77.2158 25.9863C77.2988 25.6273 77.4234 25.2105 77.4898 25.0715C77.5562 24.921 77.7305 24.0988 77.8716 23.2419C78.0211 22.3849 78.212 21.4006 78.295 21.0764C78.378 20.7406 78.4527 20.3121 78.4527 20.1153C78.4527 19.9184 78.4361 19.7678 78.4112 19.7678C78.3863 19.7678 78.3033 19.8142 78.2286 19.8721C78.1456 19.9184 78.0543 20.1037 78.0211 20.2774C77.9713 20.4974 77.8799 20.6016 77.689 20.6479C77.4815 20.7058 77.3237 20.6595 77.0415 20.4395C76.834 20.2774 76.5434 19.9416 76.394 19.6984C76.2446 19.4552 76.0702 19.073 76.0038 18.8762C75.8959 18.5404 75.8959 18.4593 76.0038 18.1466C76.0702 17.9498 76.2695 17.6603 76.4438 17.475C76.6098 17.3013 77.0664 17.0118 77.4566 16.8381C77.8467 16.6644 78.5358 16.4212 78.9923 16.2823ZM80.6942 23.9714L79.9968 24.2262C79.4738 26.2411 79.3493 26.8664 79.3825 26.9127C79.4157 26.9706 79.6233 26.9475 79.8391 26.8664C80.0549 26.7969 80.6942 26.4495 81.267 26.1137C82.0224 25.6505 82.4126 25.3494 82.7031 24.9673C82.9189 24.6894 83.0933 24.4114 83.0933 24.342C83.0933 24.2725 82.9522 24.1335 82.7861 24.0177C82.6118 23.8903 82.2299 23.7745 81.9311 23.7514C81.5492 23.7166 81.1922 23.7745 80.6942 23.9714ZM79.9968 18.9457C80.3123 18.8067 80.7274 18.6562 80.9349 18.6098C81.1424 18.5635 81.4828 18.5172 81.7069 18.5056C81.9228 18.5056 82.0971 18.5519 82.0971 18.6098C82.0971 18.6677 81.8813 19.0036 81.6156 19.3278C81.35 19.6636 80.9432 20.0805 80.2708 20.5785L80.0051 20.1963C79.8557 19.9879 79.6399 19.7447 79.5319 19.652C79.4157 19.5478 79.3493 19.4204 79.3825 19.3394C79.4157 19.2583 79.6897 19.073 79.9968 18.9457Z" fill="#221111"/>
<path d="M90.2657 17.2318C90.6974 16.6181 91.1042 16.1549 91.3615 15.9928C91.594 15.8422 91.843 15.7148 91.9261 15.7148C92.0008 15.7148 92.0672 15.7843 92.0672 15.8654C92.0672 15.9349 92.1668 16.1433 92.2913 16.3054C92.4241 16.4675 92.6151 16.676 92.7313 16.7802C92.8475 16.8728 92.9637 17.1044 92.9886 17.2897C93.0135 17.475 92.9969 17.7529 92.9554 17.915C92.9139 18.0772 92.5487 18.6677 92.1419 19.2467C91.7351 19.8257 91.3948 20.3816 91.4031 20.4974C91.4031 20.6016 91.3366 20.7058 91.2619 20.729C91.1789 20.7522 90.9299 21.1575 90.714 21.6322C90.4982 22.107 90.0665 23.0797 89.7594 23.7977C89.4522 24.5157 89.1201 25.3031 89.0205 25.5347C88.9209 25.7663 88.7383 26.2527 88.6221 26.6001C88.4975 26.9475 88.3232 27.3875 88.2236 27.5844C88.124 27.7812 87.9247 28.2676 87.7836 28.6845C87.6425 29.1013 87.4183 29.5877 87.2855 29.7614C87.0863 30.0393 86.995 30.0856 86.7542 30.0277C86.5965 29.993 86.3309 29.8425 86.1731 29.7035C86.0154 29.553 85.7996 29.2056 85.509 28.395L85.6667 27.6423C85.7581 27.2254 85.8909 26.8085 85.9656 26.7159C86.0403 26.6232 86.0984 26.4958 86.0901 26.4264C86.0901 26.3569 86.3143 25.7547 86.5882 25.0715C86.8621 24.3767 87.0863 23.7514 87.0863 23.6819C87.0863 23.6008 86.995 23.404 86.8787 23.2419C86.7625 23.0797 86.5716 22.6165 86.4554 22.1997C86.3392 21.7828 86.1648 20.9259 86.0735 20.289C85.9822 19.652 85.8992 18.8993 85.8826 18.6098C85.8743 18.3203 85.8411 17.7529 85.7996 17.336C85.7498 16.6644 85.758 16.5486 85.9158 16.2707C86.0154 16.0854 86.1648 15.9464 86.2561 15.9464C86.3475 15.9464 86.6463 16.097 86.9203 16.2938C87.1942 16.4907 87.5263 16.8149 87.6674 17.0118C87.8085 17.2318 87.9164 17.5213 87.9164 17.6834C87.9164 17.8456 87.9496 18.1235 87.9912 18.3203C88.0327 18.5172 88.1157 19.0036 88.1821 19.4089C88.2402 19.8257 88.3315 20.2426 88.3813 20.3353C88.456 20.4858 88.539 20.3932 88.8794 19.7678C89.1035 19.351 89.3526 18.8299 89.4356 18.6098C89.5186 18.3898 89.8922 17.7645 90.2657 17.2318Z" stroke="#F7FEFF" stroke-width="2.09802" mask="url(#path-8-outside-2_81_17909)"/>
<path d="M64.4233 16.5949C64.8549 16.5023 65.5273 16.3402 65.9175 16.2591C66.3077 16.1665 66.6979 16.1201 66.7892 16.1549C66.8805 16.1896 67.0465 16.2128 67.1627 16.2012C67.279 16.2012 67.4782 16.3402 67.6193 16.5139C67.7604 16.6991 67.9514 16.8728 68.0593 16.9192C68.2087 16.9886 68.2419 17.0813 68.2419 17.4634C68.2419 17.8456 68.1838 18.0077 67.9348 18.3667C67.7438 18.633 67.4533 18.8878 67.2042 19.0036C66.9801 19.1078 66.4322 19.2699 66.0005 19.3741C65.5689 19.4784 65.0625 19.652 64.8798 19.7678C64.6972 19.8837 64.3651 20.011 64.1327 20.0574C63.9086 20.1037 63.5931 20.2079 63.4437 20.2774C63.2029 20.3932 63.1697 20.4627 63.2195 21.1111L64.4897 21.088C65.4526 21.0648 65.7515 21.088 65.7515 21.2038C65.7515 21.2733 65.8677 21.5049 66.0171 21.7133C66.1666 21.9102 66.3907 22.1418 66.5235 22.1997C66.6896 22.2923 66.7477 22.4081 66.7477 22.6513C66.756 22.906 66.6646 23.045 66.233 23.4503C65.9424 23.7166 65.5606 24.0293 65.3779 24.1335C65.1123 24.2956 64.7968 24.342 62.5886 24.3535L62.3645 24.8746C62.24 25.1641 62.0739 25.5926 61.9909 25.8358C61.9162 26.0674 61.8747 26.2874 61.9162 26.3221C61.9494 26.3569 62.2898 26.38 62.6799 26.38C63.0701 26.38 63.8006 26.299 64.2987 26.2063C64.8051 26.1253 65.4941 25.9632 66.4571 25.6737L66.7477 26.079C66.9054 26.3106 67.0797 26.4958 67.1212 26.4958C67.171 26.4958 67.2707 26.6927 67.3454 26.9243C67.4865 27.3643 67.4865 27.3643 67.2375 27.8623C67.1046 28.1286 66.839 28.476 66.648 28.6266C66.4488 28.7771 66.0088 28.9971 65.6685 29.1013C65.3281 29.2056 64.6723 29.3445 64.2157 29.4024C63.7591 29.4719 63.0286 29.553 62.5969 29.5877C62.1154 29.6224 61.634 29.5993 61.3517 29.5182C61.1027 29.4372 60.7706 29.2866 60.6129 29.1824C60.4551 29.0782 60.231 28.7771 60.1231 28.5223C60.0069 28.2676 59.8657 27.6886 59.7993 27.2485C59.7412 26.8085 59.6914 26.1832 59.6914 25.8589C59.6914 25.4884 59.7495 25.1526 59.8574 24.9094C59.9488 24.7009 60.0235 24.4578 60.0235 24.3883C60.0235 24.3072 60.0733 24.1567 60.1397 24.064C60.1978 23.9714 60.4385 23.2998 61.1027 21.2848L60.9449 20.9722C60.8619 20.7869 60.7623 20.5206 60.7291 20.3584C60.6876 20.1963 60.6129 19.6984 60.4551 18.4477L60.7125 18.1235C60.8619 17.9498 61.2189 17.7066 61.5177 17.5908L61.5181 17.5907C61.817 17.4748 62.4145 17.2433 62.846 17.0697C63.2776 16.9076 63.9916 16.6991 64.4233 16.5949Z" stroke="#F7FEFF" stroke-width="2.09802" mask="url(#path-8-outside-2_81_17909)"/>
<path fill-rule="evenodd" clip-rule="evenodd" d="M72.3512 16.0043C72.1685 16.097 71.8531 16.3981 71.6538 16.6644C71.4546 16.9423 71.0395 17.6255 70.7324 18.2045C70.4252 18.7835 70.0932 19.351 70.0018 19.4783C69.869 19.652 69.7943 19.6752 69.7196 19.5826C69.6615 19.5131 69.5287 19.4204 69.429 19.3741C69.2879 19.3278 69.2049 19.3741 69.1219 19.5594C69.0555 19.7099 68.8645 20.6595 68.6985 21.6786C68.5242 22.6976 68.3498 23.8209 68.3083 24.1683C68.2668 24.5157 68.217 24.9557 68.2004 25.1526C68.1838 25.3494 68.1174 25.8126 68.0427 26.1948C67.9763 26.5769 67.9099 27.0169 67.9016 27.1791C67.885 27.3412 67.9182 27.5728 67.968 27.7002C68.0178 27.8275 68.0925 28.1402 68.1257 28.395C68.1589 28.6497 68.2668 28.9624 68.3582 29.0898C68.4578 29.2171 68.6238 29.3908 68.74 29.4719C68.9143 29.5993 68.9974 29.5761 69.3045 29.3793C69.5868 29.194 69.6947 29.0319 69.8524 28.5339C69.9603 28.2097 70.0683 27.7581 70.1015 27.5496C70.1264 27.3528 70.1928 27.1791 70.2343 27.1791C70.2758 27.1791 70.4584 27.3528 70.6328 27.5728C70.7988 27.7812 71.1308 28.117 71.355 28.3139C71.5874 28.5108 72.2017 28.9045 72.7247 29.1824C73.2477 29.4603 73.945 29.7846 74.2605 29.9004C74.5843 30.0046 75.0491 30.0856 75.2982 30.0856C75.5638 30.0856 75.8378 30.0046 75.9457 29.9004C76.0453 29.8077 76.1698 29.6109 76.228 29.4603C76.2778 29.3214 76.3359 28.974 76.3525 28.6845C76.3691 28.3371 76.3276 28.0012 76.2114 27.6654C76.0536 27.2138 76.0204 27.1791 75.6551 27.1212C75.431 27.0864 74.825 26.9243 74.302 26.7622C73.779 26.5885 73.1813 26.3453 72.9738 26.2063C72.7662 26.0558 72.4425 25.801 72.2515 25.6389C72.0523 25.4652 71.8946 25.2799 71.8946 25.2105C71.8946 25.141 72.0357 25.0252 72.21 24.9325C72.3761 24.8515 72.7413 24.6894 73.0153 24.5736C73.2892 24.4693 73.7375 24.2377 74.0115 24.064C74.2854 23.8903 74.7088 23.4966 74.9495 23.184C75.2069 22.8481 75.4227 22.4313 75.4808 22.1997C75.5306 21.9796 75.5721 21.5628 75.5638 21.2733C75.5638 20.9722 75.4559 20.37 75.2982 19.8257C75.1571 19.3162 74.9329 18.633 74.8167 18.3203C74.6922 17.9961 74.5178 17.6603 74.4265 17.5676C74.3352 17.475 74.1858 17.2666 74.0945 17.1276C74.0032 16.9771 73.696 16.6181 73.4138 16.3402C73.1232 16.0622 72.8409 15.8306 72.7911 15.8306C72.733 15.8422 72.5338 15.9117 72.3512 16.0043ZM71.1724 21.9102C71.1973 21.7133 71.4629 21.169 71.8033 20.6016C72.127 20.0805 72.4508 19.652 72.5089 19.652C72.5753 19.652 72.733 19.7794 72.8659 19.9184C72.9904 20.0689 73.1315 20.3584 73.173 20.5553C73.2228 20.7522 73.256 20.9953 73.256 21.0996C73.256 21.2269 73.0568 21.4006 72.6749 21.6322C72.3595 21.8175 71.8863 22.0491 71.6372 22.1418C71.3882 22.2344 71.1724 22.2923 71.1558 22.2807C71.1392 22.2691 71.1474 22.107 71.1724 21.9102Z" stroke="#F7FEFF" stroke-width="2.09802" mask="url(#path-8-outside-2_81_17909)"/>
<path fill-rule="evenodd" clip-rule="evenodd" d="M78.9923 16.2823C79.4489 16.1433 80.1545 15.9928 80.5696 15.9464C80.9847 15.9001 81.5243 15.877 81.7733 15.9001C82.0224 15.9233 82.4043 15.9812 82.6118 16.0275C82.8276 16.0738 83.0933 16.2359 83.1929 16.3749C83.3008 16.5254 83.4336 16.6412 83.4751 16.6412C83.5166 16.6412 83.7491 16.9076 83.9815 17.2434C84.214 17.5792 84.4547 18.0424 84.5045 18.2624C84.5543 18.4825 84.5958 18.7951 84.5958 18.9572C84.5958 19.1194 84.5045 19.5015 84.3883 19.8257C84.2804 20.1384 83.9151 20.7985 82.9937 22.1418L83.4336 22.6629C83.6827 22.9524 84.0396 23.404 84.2389 23.6703C84.4381 23.9482 84.6789 24.3883 84.7702 24.6546C84.8698 24.9325 84.9694 25.4073 84.986 25.7316C85.0109 26.2642 84.986 26.3569 84.654 26.9475C84.3551 27.4801 84.1559 27.6886 83.3921 28.2444C82.8857 28.6034 82.1967 29.0087 81.8564 29.1361C81.516 29.2635 81.0843 29.4487 80.9017 29.553C80.719 29.6688 80.3289 29.773 80.03 29.7961C79.5735 29.8425 79.4323 29.7961 78.7433 29.2519L78.5607 29.553C78.4278 29.7614 78.295 29.8309 78.129 29.8077C77.9962 29.7961 77.7637 29.6224 77.606 29.4256C77.4566 29.2171 77.2905 28.9855 77.249 28.9045C77.2075 28.8118 77.1079 28.5571 77.0332 28.3371C76.9502 28.1055 76.9087 27.7812 76.9336 27.5844C76.9585 27.3875 77.0166 27.1675 77.0498 27.0864C77.0913 27.0169 77.1079 26.878 77.0913 26.7969C77.0747 26.7274 77.1328 26.3569 77.2158 25.9863C77.2988 25.6273 77.4234 25.2105 77.4898 25.0715C77.5562 24.921 77.7305 24.0988 77.8716 23.2419C78.0211 22.3849 78.212 21.4006 78.295 21.0764C78.378 20.7406 78.4527 20.3121 78.4527 20.1153C78.4527 19.9184 78.4361 19.7678 78.4112 19.7678C78.3863 19.7678 78.3033 19.8142 78.2286 19.8721C78.1456 19.9184 78.0543 20.1037 78.0211 20.2774C77.9713 20.4974 77.8799 20.6016 77.689 20.6479C77.4815 20.7058 77.3237 20.6595 77.0415 20.4395C76.834 20.2774 76.5434 19.9416 76.394 19.6984C76.2446 19.4552 76.0702 19.073 76.0038 18.8762C75.8959 18.5404 75.8959 18.4593 76.0038 18.1466C76.0702 17.9498 76.2695 17.6603 76.4438 17.475C76.6098 17.3013 77.0664 17.0118 77.4566 16.8381C77.8467 16.6644 78.5358 16.4212 78.9923 16.2823ZM80.6942 23.9714L79.9968 24.2262C79.4738 26.2411 79.3493 26.8664 79.3825 26.9127C79.4157 26.9706 79.6233 26.9475 79.8391 26.8664C80.0549 26.7969 80.6942 26.4495 81.267 26.1137C82.0224 25.6505 82.4126 25.3494 82.7031 24.9673C82.9189 24.6894 83.0933 24.4114 83.0933 24.342C83.0933 24.2725 82.9522 24.1335 82.7861 24.0177C82.6118 23.8903 82.2299 23.7745 81.9311 23.7514C81.5492 23.7166 81.1922 23.7745 80.6942 23.9714ZM79.9968 18.9457C80.3123 18.8067 80.7274 18.6562 80.9349 18.6098C81.1424 18.5635 81.4828 18.5172 81.7069 18.5056C81.9228 18.5056 82.0971 18.5519 82.0971 18.6098C82.0971 18.6677 81.8813 19.0036 81.6156 19.3278C81.35 19.6636 80.9432 20.0805 80.2708 20.5785L80.0051 20.1963C79.8557 19.9879 79.6399 19.7447 79.5319 19.652C79.4157 19.5478 79.3493 19.4204 79.3825 19.3394C79.4157 19.2583 79.6897 19.073 79.9968 18.9457Z" stroke="#F7FEFF" stroke-width="2.09802" mask="url(#path-8-outside-2_81_17909)"/>
</g>
<defs>
<filter id="filter0_d_81_17909" x="0.863452" y="0" width="96.2736" height="50.9489" filterUnits="userSpaceOnUse" color-interpolation-filters="sRGB">
<feFlood flood-opacity="0" result="BackgroundImageFix"/>
<feColorMatrix in="SourceAlpha" type="matrix" values="0 0 0 0 0 0 0 0 0 0 0 0 0 0 0 0 0 0 127 0" result="hardAlpha"/>
<feOffset dy="3.08772"/>
<feGaussianBlur stdDeviation="1.54386"/>
<feComposite in2="hardAlpha" operator="out"/>
<feColorMatrix type="matrix" values="0 0 0 0 0 0 0 0 0 0 0 0 0 0 0 0 0 0 0.25 0"/>
<feBlend mode="normal" in2="BackgroundImageFix" result="effect1_dropShadow_81_17909"/>
<feBlend mode="normal" in="SourceGraphic" in2="effect1_dropShadow_81_17909" result="shape"/>
</filter>
</defs>
</svg>
