<svg width="378" height="336" viewBox="0 0 378 336" fill="none" xmlns="http://www.w3.org/2000/svg">
<g clip-path="url(#clip0_268_4688)" filter="url(#filter0_d_268_4688)">
<rect width="370" height="328" transform="translate(4)" fill="#096B78"/>
<path fill-rule="evenodd" clip-rule="evenodd" d="M69.1121 56.36C68.665 51.0542 65.5545 47.3204 62.1647 48.0202C58.7749 48.7201 56.3894 53.5887 56.8366 58.8945L63.6441 139.675C64.0912 144.981 67.2017 148.715 70.5915 148.015C73.9813 147.315 76.3668 142.446 75.9196 137.141L69.1121 56.36ZM190.554 0.000238525L-26.8333 7.17368e-06L-26.8333 283.225L-26.8333 301L90.2228 273.102C223.343 236.471 317.347 132.656 374 7.17368e-06L190.554 0.000238525ZM209.116 3.58684e-06L357.972 0C302.953 122.243 213.815 218.033 88.0829 252.687L-26.8333 280.076L-26.8333 7.17368e-06L190.554 0.000238525L222.891 45.3174C225.438 48.8873 229.352 48.5491 231.632 44.5619C233.913 40.5748 233.697 34.4486 231.15 30.8787L209.116 3.58684e-06Z" fill="#045661"/>
<path fill-rule="evenodd" clip-rule="evenodd" d="M190.554 0.000238525L-26.8333 7.17368e-06L-26.8333 280.076L88.0829 252.687C213.815 218.033 302.953 122.243 357.972 0L209.116 3.58684e-06L231.15 30.8787C233.697 34.4486 233.913 40.5748 231.632 44.5619C229.352 48.5491 225.438 48.8873 222.891 45.3174L190.554 0.000238525ZM69.1121 56.36C68.665 51.0542 65.5545 47.3204 62.1647 48.0202C58.7749 48.7201 56.3894 53.5887 56.8366 58.8945L63.6441 139.675C64.0912 144.981 67.2017 148.715 70.5915 148.015C73.9813 147.315 76.3668 142.446 75.9196 137.141L69.1121 56.36Z" fill="#004852"/>
<path fill-rule="evenodd" clip-rule="evenodd" d="M268.332 451.336L401.244 375.668C464.049 338.081 469.279 279.723 441.492 238.252C427.574 217.48 405.393 200.989 378.004 193.451C350.709 185.938 318 187.252 282.768 202.408L264.133 213.063L293.863 256.471L312.086 247.136L312.161 247.101C345.488 231.889 377.654 243.23 392.919 263.859C400.539 274.157 403.982 286.802 401.246 299.598C398.504 312.426 389.608 325.163 373.052 335.709L372.913 335.797L236.847 405.504L236.772 405.538C203.445 420.751 171.279 409.409 156.014 388.78C148.393 378.482 144.951 365.837 147.687 353.041C150.289 340.866 158.436 328.773 173.413 318.557L147.425 279.667C114.647 297.133 96.8902 320.273 90.6343 344.173C84.2074 368.726 89.8569 394.322 104.297 415.734C118.735 437.144 141.889 454.259 170.295 461.919C198.609 469.554 232.384 467.861 268.332 451.336ZM153.269 276.452L179.178 315.224L287.91 259.521L258.354 216.367L153.269 276.452ZM179.846 321.837C164.62 331.575 156.868 343.007 154.491 354.129C152.099 365.315 155.091 376.432 161.842 385.554C175.306 403.75 203.589 413.88 233.467 400.279L369.087 330.802C384.313 321.064 392.065 309.632 394.442 298.51C396.833 287.324 393.841 276.207 387.091 267.085C373.627 248.889 345.343 238.759 315.465 252.36L179.846 321.837ZM146.317 273.254L279.304 197.214L279.492 197.133C316.261 181.269 350.895 179.71 380.102 187.748C409.263 195.774 432.77 213.3 447.478 235.252C476.939 279.22 471.175 341.114 405.148 380.609L405.115 380.629L271.868 456.488L271.727 456.553C234.22 473.832 198.486 475.789 168.236 467.632C138.041 459.49 113.553 441.338 98.3194 418.749C83.087 396.161 77.0343 369.026 83.8857 342.851C90.7467 316.64 110.487 291.63 146.317 273.254Z" fill="#19737F"/>
<path fill-rule="evenodd" clip-rule="evenodd" d="M130.572 412.459C129.927 411.751 130.068 410.724 130.887 410.166L138.364 405.071C139.182 404.514 140.369 404.635 141.014 405.343C141.659 406.051 141.518 407.077 140.699 407.635L133.222 412.73C132.404 413.288 131.217 413.167 130.572 412.459ZM113.153 370.852C112.957 369.967 113.628 369.112 114.652 368.942L122.86 367.583C123.883 367.413 124.872 367.994 125.068 368.879C125.264 369.764 124.593 370.619 123.57 370.789L115.362 372.148C114.338 372.318 113.349 371.738 113.153 370.852ZM176.762 440.504C175.746 440.302 175.112 439.426 175.346 438.547L177.392 430.86C177.626 429.981 178.639 429.433 179.654 429.635C180.67 429.837 181.304 430.713 181.07 431.592L179.024 439.279C178.79 440.158 177.777 440.706 176.762 440.504ZM122.758 326.193C123.137 325.354 124.231 324.938 125.202 325.266L133.76 328.154C134.731 328.481 135.211 329.427 134.832 330.267C134.453 331.107 133.359 331.522 132.388 331.194L123.83 328.307C122.859 327.979 122.379 327.033 122.758 326.193ZM230.506 442.489C229.49 442.689 228.479 442.139 228.248 441.26L226.195 433.459C225.964 432.58 226.6 431.706 227.616 431.506C228.632 431.306 229.644 431.856 229.875 432.735L231.928 440.536C232.159 441.414 231.523 442.289 230.506 442.489ZM273.624 423.336C272.728 423.796 271.57 423.539 271.039 422.764L266.551 416.211C266.02 415.435 266.316 414.434 267.213 413.975C268.109 413.515 269.267 413.772 269.798 414.547L274.286 421.1C274.817 421.876 274.521 422.877 273.624 423.336ZM203.134 281.452C202.237 281.912 201.08 281.656 200.548 280.88L195.74 273.859C195.208 273.083 195.505 272.082 196.402 271.623C197.298 271.163 198.456 271.42 198.987 272.195L203.796 279.216C204.327 279.992 204.031 280.993 203.134 281.452ZM311.84 402.81C310.944 403.269 309.786 403.013 309.255 402.237L304.446 395.216C303.915 394.441 304.211 393.44 305.108 392.98C306.005 392.521 307.162 392.777 307.693 393.553L312.502 400.574C313.033 401.349 312.737 402.351 311.84 402.81ZM241.029 260.458C240.132 260.917 238.975 260.661 238.444 259.885L233.635 252.864C233.104 252.089 233.4 251.088 234.297 250.628C235.194 250.169 236.351 250.425 236.882 251.201L241.691 258.222C242.222 258.997 241.926 259.999 241.029 260.458ZM349.736 381.815C348.839 382.275 347.681 382.018 347.15 381.243L342.341 374.222C341.81 373.446 342.107 372.445 343.003 371.986C343.9 371.526 345.058 371.783 345.589 372.558L350.398 379.579C350.929 380.355 350.632 381.356 349.736 381.815ZM387.521 361.194C386.624 361.653 385.466 361.397 384.935 360.621L380.287 353.834C379.756 353.058 380.052 352.057 380.949 351.598C381.845 351.139 383.003 351.395 383.534 352.17L388.183 358.958C388.714 359.733 388.417 360.734 387.521 361.194ZM319.265 221.881C318.254 222.101 317.228 221.571 316.974 220.697L314.811 213.268C314.556 212.394 315.169 211.507 316.18 211.287C317.191 211.067 318.216 211.597 318.471 212.471L320.634 219.899C320.888 220.773 320.275 221.661 319.265 221.881ZM411.916 323.459C412.321 322.628 413.428 322.239 414.388 322.59L422.675 325.616C423.636 325.967 424.085 326.924 423.68 327.755C423.275 328.585 422.168 328.974 421.207 328.623L412.92 325.597C411.96 325.247 411.511 324.289 411.916 323.459ZM366.446 224.39C365.442 224.147 364.857 223.245 365.139 222.378L367.727 214.413C368.008 213.545 369.05 213.039 370.054 213.283C371.057 213.527 371.642 214.428 371.36 215.296L368.773 223.261C368.491 224.128 367.449 224.634 366.446 224.39ZM421.226 284.778C421.04 283.892 421.72 283.042 422.745 282.88L431.654 281.478C432.68 281.316 433.662 281.904 433.849 282.791C434.035 283.678 433.356 284.528 432.33 284.689L423.421 286.092C422.396 286.253 421.413 285.665 421.226 284.778ZM405.069 246.93C404.393 246.243 404.489 245.213 405.282 244.629L412.328 239.438C413.122 238.854 414.313 238.936 414.988 239.623C415.664 240.309 415.569 241.339 414.776 241.923L407.729 247.114C406.936 247.698 405.745 247.616 405.069 246.93Z" fill="#19737F"/>
</g>
<defs>
<filter id="filter0_d_268_4688" x="0" y="0" width="378" height="336" filterUnits="userSpaceOnUse" color-interpolation-filters="sRGB">
<feFlood flood-opacity="0" result="BackgroundImageFix"/>
<feColorMatrix in="SourceAlpha" type="matrix" values="0 0 0 0 0 0 0 0 0 0 0 0 0 0 0 0 0 0 127 0" result="hardAlpha"/>
<feOffset dy="4"/>
<feGaussianBlur stdDeviation="2"/>
<feComposite in2="hardAlpha" operator="out"/>
<feColorMatrix type="matrix" values="0 0 0 0 0 0 0 0 0 0 0 0 0 0 0 0 0 0 0.25 0"/>
<feBlend mode="normal" in2="BackgroundImageFix" result="effect1_dropShadow_268_4688"/>
<feBlend mode="normal" in="SourceGraphic" in2="effect1_dropShadow_268_4688" result="shape"/>
</filter>
<clipPath id="clip0_268_4688">
<rect width="370" height="328" fill="white" transform="translate(4)"/>
</clipPath>
</defs>
</svg>
