<svg width="367" height="671" viewBox="0 0 367 671" fill="none" xmlns="http://www.w3.org/2000/svg">
<g clip-path="url(#clip0_268_4271)" filter="url(#filter0_d_268_4271)">
<rect width="359" height="663" transform="translate(4)" fill="#096B78"/>
<path fill-rule="evenodd" clip-rule="evenodd" d="M78.1457 93.6213C77.7119 84.8077 74.6939 78.6053 71.4049 79.7678C68.1159 80.9304 65.8013 89.0177 66.2352 97.8314L72.8403 232.018C73.2742 240.832 76.2921 247.034 79.5811 245.872C82.8702 244.709 85.1847 236.622 84.7509 227.808L78.1457 93.6213ZM195.977 0.000396221L-14.9473 1.19164e-05L-14.9473 470.474L-14.9473 500L98.6288 453.657C227.791 392.808 319.001 220.359 373.969 1.19164e-05L195.977 0.000396221ZM213.988 5.95821e-06L358.418 0C305.035 203.061 218.546 362.182 96.5525 419.747L-14.9473 465.242L-14.9473 1.19164e-05L195.977 0.000396221L227.352 75.2781C229.824 81.2082 233.622 80.6463 235.834 74.0231C238.047 67.3999 237.838 57.2235 235.366 51.2935L213.988 5.95821e-06Z" fill="#045661"/>
<path fill-rule="evenodd" clip-rule="evenodd" d="M195.977 0.000396221L-14.9473 1.19164e-05L-14.9473 465.242L96.5525 419.747C218.546 362.182 305.035 203.061 358.418 0L213.988 5.95821e-06L235.366 51.2935C237.838 57.2235 238.047 67.3999 235.834 74.0231C233.622 80.6463 229.824 81.2082 227.352 75.2781L195.977 0.000396221ZM78.1457 93.6213C77.7119 84.8077 74.6939 78.6053 71.4049 79.7678C68.1159 80.9304 65.8013 89.0177 66.2352 97.8314L72.8403 232.018C73.2742 240.832 76.2921 247.034 79.5811 245.872C82.8702 244.709 85.1847 236.622 84.7509 227.808L78.1457 93.6213Z" fill="#004852"/>
<path fill-rule="evenodd" clip-rule="evenodd" d="M201.638 703.43L330.598 627.762C391.536 590.175 396.61 531.817 369.649 490.346C356.145 469.574 334.623 453.082 308.049 445.544C281.565 438.032 249.828 439.346 215.645 454.501L197.563 465.156L226.41 508.565L244.09 499.229L244.163 499.195C276.499 483.982 307.709 495.324 322.521 515.953C329.914 526.251 333.254 538.896 330.6 551.692C327.939 564.52 319.308 577.256 303.244 587.802L303.109 587.891L171.088 657.597L171.015 657.632C138.679 672.844 107.469 661.503 92.6581 640.874C85.2646 630.576 81.9246 617.931 84.5786 605.135C87.1039 592.959 95.0083 580.867 109.54 570.651L84.3249 531.76C52.5209 549.227 35.2925 572.367 29.2226 596.266C22.9867 620.82 28.4683 646.416 42.4786 667.828C56.488 689.238 78.9531 706.353 106.515 714.013C133.987 721.648 166.758 719.955 201.638 703.43ZM89.9952 528.546L115.134 567.318L220.633 511.615L191.956 468.461L89.9952 528.546ZM115.782 573.931C101.008 583.669 93.4872 595.101 91.1805 606.222C88.8603 617.409 91.7633 628.526 98.3129 637.648C111.377 655.844 138.82 665.974 167.809 652.373L299.397 582.896C314.17 573.157 321.692 561.726 323.998 550.604C326.318 539.418 323.415 528.301 316.866 519.179C303.802 500.983 276.359 490.853 247.369 504.454L115.782 573.931ZM83.2497 525.347L212.283 449.308L212.466 449.227C248.141 433.363 281.746 431.803 310.084 439.842C338.378 447.867 361.187 465.394 375.458 487.345C404.042 531.314 398.45 593.208 334.386 632.703L334.354 632.722L205.068 708.582L204.931 708.647C168.539 725.926 133.868 727.883 104.517 719.726C75.2202 711.584 51.4598 693.432 36.6792 670.843C21.8996 648.255 16.0269 621.12 22.6746 594.945C29.3317 568.733 48.4848 543.724 83.2497 525.347Z" fill="#19737F"/>
<path fill-rule="evenodd" clip-rule="evenodd" d="M67.9731 664.552C67.3473 663.844 67.4839 662.818 68.2782 662.26L75.5329 657.165C76.3272 656.607 77.4785 656.729 78.1043 657.437C78.7302 658.145 78.5936 659.171 77.7993 659.729L70.5445 664.824C69.7502 665.382 68.599 665.26 67.9731 664.552ZM51.0721 622.946C50.8819 622.061 51.5329 621.206 52.526 621.036L60.4898 619.677C61.483 619.507 62.4424 620.087 62.6326 620.973C62.8228 621.858 62.1718 622.713 61.1786 622.883L53.2148 624.242C52.2216 624.412 51.2623 623.831 51.0721 622.946ZM112.789 692.597C111.804 692.395 111.189 691.519 111.416 690.641L113.401 682.953C113.628 682.075 114.611 681.527 115.596 681.729C116.582 681.931 117.197 682.807 116.97 683.686L114.985 691.373C114.758 692.251 113.775 692.8 112.789 692.597ZM60.3915 578.287C60.7591 577.447 61.8207 577.032 62.7628 577.36L71.066 580.247C72.0081 580.575 72.4739 581.521 72.1063 582.361C71.7388 583.201 70.6771 583.616 69.735 583.288L61.4318 580.401C60.4897 580.073 60.024 579.127 60.3915 578.287ZM164.936 694.583C163.95 694.783 162.969 694.233 162.745 693.354L160.753 685.553C160.529 684.674 161.146 683.799 162.132 683.599C163.118 683.399 164.099 683.95 164.324 684.829L166.315 692.629C166.54 693.508 165.922 694.383 164.936 694.583ZM206.772 675.43C205.902 675.889 204.779 675.633 204.264 674.858L199.909 668.305C199.394 667.529 199.681 666.528 200.551 666.069C201.421 665.609 202.544 665.865 203.06 666.641L207.415 673.194C207.93 673.97 207.642 674.971 206.772 675.43ZM138.378 533.546C137.507 534.006 136.384 533.749 135.869 532.974L131.203 525.953C130.688 525.177 130.975 524.176 131.845 523.717C132.715 523.257 133.839 523.513 134.354 524.289L139.02 531.31C139.535 532.086 139.248 533.087 138.378 533.546ZM243.852 654.904C242.982 655.363 241.859 655.107 241.344 654.331L236.678 647.31C236.162 646.535 236.45 645.533 237.32 645.074C238.19 644.615 239.313 644.871 239.829 645.646L244.494 652.668C245.01 653.443 244.722 654.444 243.852 654.904ZM175.146 512.552C174.276 513.011 173.153 512.755 172.638 511.979L167.972 504.958C167.457 504.183 167.744 503.181 168.614 502.722C169.484 502.263 170.607 502.519 171.123 503.294L175.788 510.316C176.304 511.091 176.016 512.092 175.146 512.552ZM280.621 633.909C279.751 634.369 278.628 634.112 278.112 633.337L273.447 626.316C272.931 625.54 273.219 624.539 274.089 624.08C274.959 623.62 276.082 623.876 276.597 624.652L281.263 631.673C281.778 632.449 281.491 633.45 280.621 633.909ZM317.283 613.287C316.413 613.747 315.289 613.49 314.774 612.715L310.264 605.928C309.748 605.152 310.036 604.151 310.906 603.692C311.776 603.232 312.899 603.489 313.415 604.264L317.925 611.051C318.44 611.827 318.153 612.828 317.283 613.287ZM251.056 473.974C250.075 474.195 249.08 473.664 248.833 472.79L246.734 465.362C246.487 464.488 247.082 463.601 248.063 463.381C249.043 463.161 250.039 463.691 250.286 464.565L252.384 471.993C252.631 472.867 252.036 473.754 251.056 473.974ZM340.953 575.553C341.346 574.722 342.42 574.333 343.352 574.684L351.392 577.71C352.324 578.061 352.76 579.018 352.367 579.848C351.974 580.679 350.899 581.068 349.968 580.717L341.927 577.691C340.996 577.34 340.559 576.383 340.953 575.553ZM296.834 476.484C295.861 476.24 295.293 475.339 295.567 474.471L298.077 466.507C298.35 465.639 299.361 465.133 300.335 465.377C301.309 465.621 301.876 466.522 301.602 467.39L299.092 475.354C298.819 476.222 297.808 476.728 296.834 476.484ZM349.986 536.872C349.805 535.985 350.465 535.136 351.46 534.974L360.104 533.572C361.099 533.41 362.052 533.998 362.233 534.885C362.415 535.772 361.755 536.622 360.76 536.783L352.115 538.186C351.121 538.347 350.167 537.759 349.986 536.872ZM334.309 499.023C333.654 498.337 333.746 497.307 334.516 496.723L341.353 491.532C342.122 490.948 343.278 491.03 343.934 491.716C344.589 492.403 344.497 493.433 343.727 494.017L336.89 499.208C336.121 499.792 334.965 499.71 334.309 499.023Z" fill="#19737F"/>
</g>
<defs>
<filter id="filter0_d_268_4271" x="0" y="0" width="367" height="671" filterUnits="userSpaceOnUse" color-interpolation-filters="sRGB">
<feFlood flood-opacity="0" result="BackgroundImageFix"/>
<feColorMatrix in="SourceAlpha" type="matrix" values="0 0 0 0 0 0 0 0 0 0 0 0 0 0 0 0 0 0 127 0" result="hardAlpha"/>
<feOffset dy="4"/>
<feGaussianBlur stdDeviation="2"/>
<feComposite in2="hardAlpha" operator="out"/>
<feColorMatrix type="matrix" values="0 0 0 0 0 0 0 0 0 0 0 0 0 0 0 0 0 0 0.25 0"/>
<feBlend mode="normal" in2="BackgroundImageFix" result="effect1_dropShadow_268_4271"/>
<feBlend mode="normal" in="SourceGraphic" in2="effect1_dropShadow_268_4271" result="shape"/>
</filter>
<clipPath id="clip0_268_4271">
<rect width="359" height="663" fill="white" transform="translate(4)"/>
</clipPath>
</defs>
</svg>
