<svg width="40" height="30" viewBox="0 0 40 30" fill="none" xmlns="http://www.w3.org/2000/svg">
<path d="M9.33377 -0.000732422C4.17884 -0.000732422 0 4.17928 0 9.33601C0 14.4909 4.17884 18.6709 9.33377 18.6709C9.33377 18.6709 9.28861 22.1391 6.47111 27.1306C6.15814 28.1308 6.71603 29.1959 7.71681 29.5071C8.42689 29.7304 9.17408 29.5133 9.65658 29.0079C16.1351 21.922 18.6711 13.5823 18.6711 9.33601C18.6711 4.17928 14.4923 -0.000732422 9.33377 -0.000732422Z" fill="#FF90D1"/>
<path d="M30.6629 -0.000732422C25.5079 -0.000732422 21.3291 4.17935 21.3291 9.33601C21.3291 14.4909 25.5079 18.6709 30.6629 18.6709C30.6629 18.6709 30.6177 22.1391 27.8002 27.1306C27.4872 28.1308 28.0452 29.1959 29.0459 29.5071C29.756 29.7304 30.5032 29.5133 30.9856 29.0079C37.4642 21.922 40.0002 13.5823 40.0002 9.33601C40.0002 4.17928 35.8214 -0.000732422 30.6629 -0.000732422Z" fill="#FF90D1"/>
</svg>
