<svg width="194" height="62" viewBox="0 0 194 62" fill="none" xmlns="http://www.w3.org/2000/svg">
<path d="M6 58C38.5381 49.9278 76.1848 48.349 112.26 47.1605C137.86 46.3171 163.353 46 189 46" stroke="#FD9CD6" stroke-width="7" stroke-linecap="round"/>
<path d="M21.5114 21.5568C21.3977 20.3068 20.892 19.3352 19.9943 18.642C19.108 17.9375 17.8409 17.5852 16.1932 17.5852C15.1023 17.5852 14.1932 17.7273 13.4659 18.0114C12.7386 18.2955 12.1932 18.6875 11.8295 19.1875C11.4659 19.6761 11.2784 20.2386 11.267 20.875C11.2443 21.3977 11.3466 21.858 11.5739 22.2557C11.8125 22.6534 12.1534 23.0057 12.5966 23.3125C13.0511 23.608 13.5966 23.8693 14.233 24.0966C14.8693 24.3239 15.5852 24.5227 16.3807 24.6932L19.3807 25.375C21.108 25.75 22.6307 26.25 23.9489 26.875C25.2784 27.5 26.392 28.2443 27.2898 29.108C28.1989 29.9716 28.8864 30.9659 29.3523 32.0909C29.8182 33.2159 30.0568 34.4773 30.0682 35.875C30.0568 38.0795 29.5 39.9716 28.3977 41.5511C27.2955 43.1307 25.7102 44.3409 23.642 45.1818C21.5852 46.0227 19.1023 46.4432 16.1932 46.4432C13.2727 46.4432 10.7273 46.0057 8.55682 45.1307C6.38636 44.2557 4.69886 42.9261 3.49432 41.142C2.28977 39.358 1.67045 37.1023 1.63636 34.375H9.71591C9.78409 35.5 10.0852 36.4375 10.6193 37.1875C11.1534 37.9375 11.8864 38.5057 12.8182 38.892C13.7614 39.2784 14.8523 39.4716 16.0909 39.4716C17.2273 39.4716 18.1932 39.3182 18.9886 39.0114C19.7955 38.7045 20.4148 38.2784 20.8466 37.733C21.2784 37.1875 21.5 36.5625 21.5114 35.858C21.5 35.1989 21.2955 34.6364 20.8977 34.1705C20.5 33.6932 19.8864 33.2841 19.0568 32.9432C18.2386 32.5909 17.1932 32.267 15.9205 31.9716L12.2727 31.1193C9.25 30.4261 6.86932 29.3068 5.13068 27.7614C3.39205 26.2045 2.52841 24.1023 2.53977 21.4545C2.52841 19.2955 3.10795 17.4034 4.27841 15.7784C5.44886 14.1534 7.06818 12.8864 9.13636 11.9773C11.2045 11.0682 13.5625 10.6136 16.2102 10.6136C18.9148 10.6136 21.2614 11.0739 23.25 11.9943C25.25 12.9034 26.8011 14.1818 27.9034 15.8295C29.0057 17.4773 29.5682 19.3864 29.5909 21.5568H21.5114ZM42.767 11.0909V46H34.3295V11.0909H42.767ZM70.973 22.4943C70.7798 21.7784 70.4957 21.1477 70.1207 20.6023C69.7457 20.0455 69.2855 19.5739 68.7401 19.1875C68.1946 18.8011 67.5696 18.5114 66.8651 18.3182C66.1605 18.1136 65.3878 18.0114 64.5469 18.0114C62.8537 18.0114 61.3878 18.4205 60.1491 19.2386C58.9219 20.0568 57.973 21.25 57.3026 22.8182C56.6321 24.375 56.2969 26.267 56.2969 28.4943C56.2969 30.733 56.6207 32.642 57.2685 34.2216C57.9162 35.8011 58.8537 37.0057 60.081 37.8352C61.3082 38.6648 62.7969 39.0795 64.5469 39.0795C66.0923 39.0795 67.3991 38.8295 68.4673 38.3295C69.5469 37.8182 70.3651 37.0966 70.9219 36.1648C71.4787 35.233 71.7571 34.1364 71.7571 32.875L73.3253 33.0625H64.8366V26.9091H79.8878V31.5284C79.8878 34.6534 79.223 37.3295 77.8935 39.5568C76.5753 41.7841 74.7571 43.4943 72.4389 44.6875C70.1321 45.8807 67.4787 46.4773 64.4787 46.4773C61.1491 46.4773 58.223 45.7557 55.7003 44.3125C53.1776 42.8693 51.2116 40.8125 49.8026 38.142C48.3935 35.4602 47.6889 32.2784 47.6889 28.5966C47.6889 25.733 48.1151 23.1932 48.9673 20.9773C49.8196 18.75 51.0071 16.8636 52.5298 15.3182C54.0639 13.7727 55.8366 12.6023 57.848 11.8068C59.8707 11.0114 62.0469 10.6136 64.3764 10.6136C66.3991 10.6136 68.2798 10.9034 70.0185 11.483C71.7685 12.0625 73.3139 12.8807 74.6548 13.9375C76.0071 14.9943 77.1037 16.25 77.9446 17.7045C78.7855 19.1591 79.3082 20.7557 79.5128 22.4943H70.973ZM114.571 11.0909V46H107.412L93.5199 25.8523H93.2983V46H84.8608V11.0909H92.1222L105.861 31.2045H106.151V11.0909H114.571ZM151.308 11.0909H159.729V33.608C159.729 36.2102 159.109 38.4773 157.871 40.4091C156.632 42.3295 154.905 43.8182 152.689 44.875C150.473 45.9205 147.899 46.4432 144.967 46.4432C142.001 46.4432 139.411 45.9205 137.195 44.875C134.979 43.8182 133.257 42.3295 132.03 40.4091C130.803 38.4773 130.189 36.2102 130.189 33.608V11.0909H138.626V32.875C138.626 34.0795 138.888 35.1534 139.411 36.0966C139.945 37.0398 140.689 37.7784 141.643 38.3125C142.598 38.8466 143.706 39.1136 144.967 39.1136C146.229 39.1136 147.331 38.8466 148.274 38.3125C149.229 37.7784 149.973 37.0398 150.507 36.0966C151.041 35.1534 151.308 34.0795 151.308 32.875V11.0909ZM165.017 46V11.0909H179.438C182.051 11.0909 184.307 11.6023 186.205 12.625C188.114 13.6364 189.585 15.0511 190.619 16.8693C191.653 18.6761 192.17 20.7784 192.17 23.1761C192.17 25.5852 191.642 27.6932 190.585 29.5C189.54 31.2955 188.045 32.6875 186.102 33.6761C184.159 34.6648 181.852 35.1591 179.182 35.1591H170.284V28.5114H177.614C178.886 28.5114 179.949 28.2898 180.801 27.8466C181.665 27.4034 182.318 26.7841 182.761 25.9886C183.205 25.1818 183.426 24.2443 183.426 23.1761C183.426 22.0966 183.205 21.1648 182.761 20.3807C182.318 19.5852 181.665 18.9716 180.801 18.5398C179.938 18.108 178.875 17.892 177.614 17.892H173.455V46H165.017Z" fill="#000001"/>
</svg>
