<svg width="1032" height="1346" viewBox="0 0 1032 1346" fill="none" xmlns="http://www.w3.org/2000/svg">
<g clip-path="url(#clip0_268_4716)" filter="url(#filter0_d_268_4716)">
<rect width="1024" height="1338" transform="translate(4)" fill="#096B78"/>
<path fill-rule="evenodd" clip-rule="evenodd" d="M255.11 194.716C253.967 176.573 246.021 163.806 237.361 166.199C228.702 168.592 222.607 185.24 223.75 203.382L241.141 479.601C242.283 497.743 250.229 510.511 258.889 508.118C267.549 505.725 273.643 489.077 272.501 470.935L255.11 194.716ZM565.355 2.00082L10 2.00002L10 970.453L10 1031.23L309.041 935.836C649.119 810.581 889.271 455.601 1034 2.00002L565.355 2.00082ZM612.775 2.00001L993.054 2C852.499 419.993 624.778 747.537 303.574 866.032L10 959.683L10 2.00002L565.355 2.00082L647.964 156.957C654.471 169.164 664.47 168.007 670.297 154.374C676.123 140.74 675.571 119.792 669.064 107.586L612.775 2.00001Z" fill="#045661"/>
<path fill-rule="evenodd" clip-rule="evenodd" d="M565.355 2.00082L10 2.00002L10 959.683L303.574 866.032C624.778 747.537 852.499 419.993 993.054 2L612.775 2.00001L669.064 107.586C675.571 119.792 676.123 140.74 670.297 154.374C664.47 168.007 654.471 169.164 647.964 156.957L565.355 2.00082ZM255.11 194.716C253.967 176.573 246.021 163.806 237.361 166.199C228.702 168.592 222.607 185.24 223.75 203.382L241.141 479.601C242.283 497.743 250.229 510.511 258.889 508.118C267.549 505.725 273.643 489.077 272.501 470.935L255.11 194.716Z" fill="#004852"/>
<path fill-rule="evenodd" clip-rule="evenodd" d="M592.215 1506.59L899.007 1327.08C1043.98 1237.91 1056.05 1099.46 991.908 1001.08C959.782 951.8 908.582 912.675 845.362 894.792C782.36 876.971 706.859 880.087 625.537 916.042L582.522 941.319L651.147 1044.3L693.208 1022.15L693.382 1022.07C770.308 985.981 844.555 1012.89 879.791 1061.83C897.38 1086.26 905.325 1116.26 899.011 1146.61C892.682 1177.04 872.147 1207.26 833.933 1232.28L833.611 1232.49L519.539 1397.86L519.365 1397.94C442.44 1434.03 368.192 1407.12 332.957 1358.18C315.368 1333.75 307.422 1303.75 313.736 1273.4C319.743 1244.51 338.548 1215.82 373.119 1191.59L313.132 1099.33C237.472 1140.76 196.486 1195.66 182.046 1252.36C167.211 1310.61 180.251 1371.33 213.582 1422.13C246.909 1472.92 300.353 1513.52 365.922 1531.69C431.277 1549.81 509.237 1545.79 592.215 1506.59ZM326.622 1091.7L386.425 1183.68L637.405 1051.53L569.183 949.159L326.622 1091.7ZM387.967 1199.37C352.821 1222.47 334.929 1249.59 329.441 1275.98C323.922 1302.52 330.828 1328.89 346.409 1350.53C377.488 1393.7 442.773 1417.73 511.739 1385.46L824.78 1220.64C859.926 1197.54 877.818 1170.42 883.306 1144.03C888.826 1117.49 881.919 1091.12 866.338 1069.48C835.259 1026.31 769.974 1002.28 701.009 1034.55L387.967 1199.37ZM310.574 1084.11L617.54 903.722L617.975 903.529C702.845 865.894 782.789 862.194 850.206 881.264C917.516 900.304 971.777 941.883 1005.73 993.96C1073.73 1098.27 1060.42 1245.1 908.017 1338.8L907.942 1338.85L600.376 1518.81L600.049 1518.97C513.475 1559.96 430.993 1564.6 361.168 1545.25C291.473 1525.93 234.947 1482.87 199.785 1429.28C164.625 1375.69 150.654 1311.32 166.468 1249.22C182.305 1187.04 227.87 1127.71 310.574 1084.11Z" fill="#19737F"/>
<path fill-rule="evenodd" clip-rule="evenodd" d="M274.232 1414.36C272.743 1412.68 273.068 1410.24 274.958 1408.92L292.216 1396.83C294.106 1395.51 296.845 1395.8 298.334 1397.48C299.823 1399.16 299.498 1401.59 297.608 1402.91L280.349 1415C278.46 1416.33 275.721 1416.04 274.232 1414.36ZM234.025 1315.65C233.573 1313.55 235.121 1311.52 237.484 1311.12L256.43 1307.9C258.792 1307.49 261.074 1308.87 261.527 1310.97C261.979 1313.07 260.431 1315.1 258.068 1315.5L239.123 1318.73C236.76 1319.13 234.478 1317.75 234.025 1315.65ZM380.848 1480.89C378.504 1480.41 377.041 1478.33 377.581 1476.25L382.303 1458.01C382.843 1455.93 385.181 1454.63 387.525 1455.11C389.87 1455.59 391.333 1457.66 390.793 1459.75L386.07 1477.99C385.531 1480.07 383.193 1481.37 380.848 1480.89ZM256.196 1209.71C257.07 1207.71 259.596 1206.73 261.837 1207.51L281.59 1214.36C283.831 1215.13 284.939 1217.38 284.065 1219.37C283.19 1221.36 280.665 1222.35 278.424 1221.57L258.67 1214.72C256.429 1213.94 255.321 1211.7 256.196 1209.71ZM504.904 1485.6C502.558 1486.07 500.224 1484.77 499.69 1482.68L494.952 1464.18C494.418 1462.09 495.887 1460.02 498.232 1459.54C500.578 1459.07 502.912 1460.37 503.446 1462.46L508.184 1480.97C508.718 1483.05 507.249 1485.13 504.904 1485.6ZM604.43 1440.16C602.36 1441.25 599.688 1440.64 598.462 1438.8L588.102 1423.26C586.876 1421.42 587.56 1419.04 589.63 1417.95C591.7 1416.86 594.372 1417.47 595.598 1419.31L605.958 1434.86C607.184 1436.7 606.5 1439.07 604.43 1440.16ZM441.721 1103.56C439.652 1104.65 436.98 1104.05 435.754 1102.21L424.654 1085.55C423.428 1083.71 424.112 1081.33 426.182 1080.24C428.251 1079.15 430.923 1079.76 432.149 1081.6L443.249 1098.26C444.475 1100.1 443.791 1102.47 441.721 1103.56ZM692.641 1391.47C690.572 1392.56 687.9 1391.95 686.674 1390.11L675.574 1373.45C674.348 1371.61 675.032 1369.24 677.102 1368.15C679.172 1367.06 681.843 1367.67 683.069 1369.51L694.169 1386.16C695.395 1388 694.711 1390.38 692.641 1391.47ZM529.193 1053.76C527.123 1054.85 524.451 1054.24 523.225 1052.4L512.125 1035.74C510.899 1033.9 511.583 1031.53 513.653 1030.44C515.723 1029.35 518.395 1029.96 519.621 1031.8L530.721 1048.45C531.947 1050.29 531.263 1052.67 529.193 1053.76ZM780.113 1341.66C778.043 1342.75 775.371 1342.14 774.145 1340.3L763.045 1323.65C761.819 1321.81 762.503 1319.43 764.573 1318.34C766.643 1317.25 769.315 1317.86 770.541 1319.7L781.641 1336.36C782.867 1338.2 782.183 1340.57 780.113 1341.66ZM867.33 1292.74C865.26 1293.83 862.588 1293.22 861.362 1291.38L850.632 1275.28C849.406 1273.44 850.09 1271.06 852.16 1269.97C854.23 1268.88 856.902 1269.49 858.128 1271.33L868.858 1287.43C870.084 1289.27 869.4 1291.65 867.33 1292.74ZM709.779 962.239C707.446 962.761 705.079 961.503 704.491 959.43L699.498 941.808C698.911 939.734 700.326 937.63 702.658 937.107C704.991 936.585 707.359 937.843 707.946 939.916L712.939 957.538C713.527 959.612 712.112 961.716 709.779 962.239ZM923.64 1203.22C924.575 1201.25 927.131 1200.33 929.347 1201.16L948.475 1208.34C950.692 1209.17 951.73 1211.44 950.794 1213.41C949.858 1215.38 947.303 1216.3 945.087 1215.47L925.958 1208.29C923.742 1207.46 922.704 1205.19 923.64 1203.22ZM818.684 968.193C816.368 967.614 815.018 965.477 815.668 963.418L821.64 944.523C822.291 942.464 824.696 941.264 827.012 941.842C829.328 942.421 830.678 944.558 830.027 946.617L824.055 965.512C823.405 967.571 821 968.771 818.684 968.193ZM945.13 1111.45C944.7 1109.35 946.269 1107.33 948.636 1106.95L969.201 1103.62C971.567 1103.24 973.835 1104.64 974.266 1106.74C974.697 1108.84 973.128 1110.86 970.761 1111.24L950.196 1114.57C947.829 1114.95 945.561 1113.56 945.13 1111.45ZM907.836 1021.66C906.276 1020.04 906.496 1017.59 908.327 1016.21L924.591 1003.89C926.423 1002.51 929.172 1002.7 930.732 1004.33C932.292 1005.96 932.072 1008.4 930.24 1009.79L913.976 1022.1C912.145 1023.49 909.396 1023.29 907.836 1021.66Z" fill="#19737F"/>
</g>
<defs>
<filter id="filter0_d_268_4716" x="0" y="0" width="1032" height="1346" filterUnits="userSpaceOnUse" color-interpolation-filters="sRGB">
<feFlood flood-opacity="0" result="BackgroundImageFix"/>
<feColorMatrix in="SourceAlpha" type="matrix" values="0 0 0 0 0 0 0 0 0 0 0 0 0 0 0 0 0 0 127 0" result="hardAlpha"/>
<feOffset dy="4"/>
<feGaussianBlur stdDeviation="2"/>
<feComposite in2="hardAlpha" operator="out"/>
<feColorMatrix type="matrix" values="0 0 0 0 0 0 0 0 0 0 0 0 0 0 0 0 0 0 0.25 0"/>
<feBlend mode="normal" in2="BackgroundImageFix" result="effect1_dropShadow_268_4716"/>
<feBlend mode="normal" in="SourceGraphic" in2="effect1_dropShadow_268_4716" result="shape"/>
</filter>
<clipPath id="clip0_268_4716">
<rect width="1024" height="1338" fill="white" transform="translate(4)"/>
</clipPath>
</defs>
</svg>
