<svg width="126" height="66" viewBox="0 0 126 66" fill="none" xmlns="http://www.w3.org/2000/svg">
<g filter="url(#filter0_d_81_17924)">
<path d="M86.6402 43.0231L86.673 42.9496L86.6957 42.8743L92.6972 22.9502L92.7028 22.9316L92.7078 22.913C94.1312 17.5725 92.5462 13.0487 89.3016 9.64028C86.0748 6.25049 81.1957 3.93973 75.8921 2.90418C70.5888 1.8687 64.7507 2.08685 59.5642 3.87818C54.3444 5.68103 49.7786 9.08707 47.2079 14.3474L47.1614 14.4427L47.1319 14.5414L46.1678 17.7747L41.2007 34.4315C39.1698 39.8998 40.4764 44.567 43.6524 48.085C46.8095 51.5821 51.8109 53.9575 57.2778 55.0136C62.7464 56.07 68.8095 55.8313 74.1511 53.9589C79.5293 52.0738 84.1915 48.5182 86.6402 43.0231ZM63.9214 17.0864C64.1518 16.3442 64.7771 15.8047 65.9804 15.4891C67.2196 15.1641 68.8461 15.1632 70.4744 15.4667C72.096 15.769 73.5697 16.3454 74.5207 17.0395C75.525 17.7726 75.6397 18.3766 75.5086 18.7463C74.0675 22.8082 70.7288 32.2115 67.5868 40.822C67.2305 41.7983 66.4001 42.4912 65.1449 42.9093C63.8565 43.3384 62.2285 43.426 60.6526 43.1574C59.0764 42.8888 57.6964 42.2886 56.8483 41.4892C56.0257 40.714 55.7477 39.8154 56.1036 38.7871C57.4274 34.9624 58.8038 31.2813 60.0745 27.8831L60.0857 27.8531C61.6105 23.7752 62.9914 20.0824 63.9214 17.0864Z" fill="#F7FEFF" stroke="#F7FEFF" stroke-width="2.47529"/>
<path d="M53.5958 36.3216C51.4308 45.9131 68.716 48.2316 72.4746 39.8744L79.479 21.1517C81.644 11.5602 64.3588 9.24171 60.6002 17.5989L59.5109 20.5106M53.5958 36.3216L43.7877 34.3961M53.5958 36.3216L59.5109 20.5106M59.5109 20.5106L48.5674 18.4511M48.5674 18.4511L43.7617 34.4655C36.5172 53.8301 75.3515 61.5374 84.0027 42.044L89.7938 22.9332C94.8767 4.05114 58.5746 -3.33553 49.498 15.3499L48.5674 18.4511Z" stroke="black" stroke-width="2.47634"/>
<path d="M83.4622 16.5543L84.9156 16.1492M79.0405 11.73L79.946 10.8225M71.5379 9.24012L71.6781 8.10877M63.3861 10.301L62.5826 9.27147M57.0663 14.1818L55.7501 13.6147M60.9113 49.5979L61.1184 48.4392M53.0275 46.9165L53.8522 46.0737M48.03 41.6644L49.4974 41.222M70.377 48.5048L69.5455 47.5499M77.2095 44.1616L75.8543 43.5473M79.8063 38.5821L78.3256 38.3035M81.6429 33.2189L80.0565 32.9203M83.3738 27.8357L81.7873 27.5371M85.1436 22.4998L83.61 22.2112M51.0525 30.2565L49.4661 29.958M52.7834 24.8734L51.1969 24.5748" stroke="black" stroke-width="0.46456" stroke-linecap="round"/>
<path d="M66.7781 16.2411L66.7781 16.2411L66.7853 16.2397C67.0645 16.1867 67.7797 16.1408 68.5289 16.1408V16.1408L68.535 16.1407C69.4476 16.1335 69.9649 16.1696 70.5587 16.2714C71.0252 16.3576 71.7018 16.5207 72.0539 16.6393C72.3922 16.7572 72.9304 17.0068 73.2248 17.1847C73.5329 17.3873 73.9015 17.6889 74.0202 17.8258L74.0202 17.8259L74.0261 17.8325C74.1485 17.9704 74.3704 18.345 74.4798 18.6325C74.5711 18.8832 74.6051 19.0109 74.6211 19.1512C74.639 19.3076 74.6383 19.5141 74.6109 19.9259L74.6103 19.9348L74.6099 19.9436C74.581 20.6067 74.4831 21.0478 74.1357 22.1411C73.8813 22.9183 73.3948 24.3674 73.0619 25.357C72.733 26.3347 71.9828 28.4 71.4155 29.948C70.8399 31.4888 70.0015 33.6347 69.5422 34.7136C69.0797 35.7997 68.3527 37.407 67.9271 38.277C67.4943 39.1617 66.9561 40.1139 66.7389 40.4013L66.7389 40.4013L66.7343 40.4075C66.4826 40.7475 66.1562 41.0601 65.8562 41.2628C65.5768 41.4516 65.1337 41.6746 64.9131 41.7438L64.9131 41.7438L64.9054 41.7463C64.6673 41.8237 64.1345 41.9344 63.7634 41.9754C63.3096 42.0218 62.8156 42.0229 62.2452 41.9739L62.2452 41.9738L62.2356 41.9731C61.7594 41.9382 60.9237 41.8227 60.4046 41.7225C59.9041 41.6259 58.8387 41.3363 58.0567 41.0794C57.6625 40.95 57.2854 40.8207 56.996 40.7179C56.9869 40.7147 56.9779 40.7115 56.969 40.7083C57.0563 40.436 57.1985 40.0264 57.4193 39.3992C57.8179 38.3074 59.3339 34.3372 60.8083 30.5698C62.2835 26.8003 63.9607 22.4777 64.5299 20.9622C65.1075 19.4538 65.7874 17.7433 66.0556 17.1415C66.1908 16.8418 66.3221 16.565 66.4233 16.3626C66.4331 16.343 66.4425 16.3243 66.4515 16.3065C66.548 16.2851 66.6611 16.2622 66.7781 16.2411ZM56.8603 41.0995C56.86 41.1025 56.8598 41.1041 56.8597 41.1041C56.8597 41.1042 56.8598 41.1027 56.8603 41.0995Z" stroke="#F7FEFF" stroke-width="1.53748"/>
<path fill-rule="evenodd" clip-rule="evenodd" d="M66.2866 10.7816C65.9377 10.8188 65.2397 10.9306 64.7216 11.0349C64.214 11.1392 63.4314 11.3553 62.9873 11.5118C62.5326 11.6758 61.9192 11.9515 61.6126 12.1303C61.3059 12.3092 60.8406 12.652 60.5762 12.8979C60.3013 13.1587 59.9735 13.6058 59.7725 13.9784C59.5928 14.3287 59.1909 15.2303 58.8737 15.9904C58.5564 16.7505 58.0065 18.1738 57.6576 19.1575C57.3086 20.1411 55.7118 24.4334 54.1256 28.6959C52.5288 32.9584 50.9003 37.437 50.4878 38.6442C50.086 39.8514 49.7053 41.0437 49.6419 41.2896C49.5784 41.5356 49.515 42.0646 49.5044 42.467L49.4727 43.1973C50.7839 43.9202 51.4713 44.2779 51.852 44.4716C52.2327 44.6579 53.0152 45.0007 53.5968 45.2466C54.1785 45.4851 55.0985 45.8204 55.6272 45.9992C56.1665 46.1781 57.15 46.4464 57.795 46.6103C58.4507 46.7668 59.487 46.9754 60.1004 47.0723C61.0521 47.2288 61.4962 47.2512 63.1671 47.2512C64.7321 47.2512 65.282 47.2214 65.9165 47.1096C66.3501 47.0351 67.0586 46.8711 67.471 46.7593C67.894 46.6401 68.5814 46.4016 69.0044 46.2303C69.4168 46.0514 70.2099 45.6117 70.7598 45.2391C71.3943 44.8144 71.997 44.3151 72.4306 43.8605C72.7901 43.473 73.2872 42.8694 73.5092 42.5192C73.7419 42.169 74.1543 41.4312 74.4187 40.8798C74.6936 40.3283 75.2435 39.1211 75.6453 38.1971C76.0366 37.2731 76.6605 35.7678 77.0201 34.8437C77.3796 33.9197 78.0987 31.9599 78.6169 30.4844C79.135 29.0089 79.9387 26.6019 80.404 25.1339C80.8693 23.6733 81.324 22.183 81.4086 21.8178C81.5038 21.4601 81.599 20.7522 81.6413 20.238C81.673 19.6717 81.6518 19.001 81.5672 18.5241C81.5038 18.0919 81.3452 17.4883 81.2394 17.1827C81.1231 16.8772 80.8799 16.3556 80.6895 16.0277C80.4992 15.6998 80.0868 15.1335 79.7695 14.7683C79.3888 14.3361 78.8178 13.8443 78.1304 13.3525C77.4431 12.8681 76.7451 12.4582 76.1741 12.2123C75.6771 11.9962 74.8311 11.6832 74.2918 11.5193C73.763 11.3553 72.8747 11.1392 72.3354 11.0424C71.8067 10.9455 70.9924 10.8263 70.5377 10.7816C70.0936 10.7368 69.089 10.707 68.317 10.707C67.5556 10.7145 66.6356 10.7443 66.2866 10.7816ZM65.9905 15.6772C66.0434 15.6474 66.3395 15.5729 66.6567 15.5133C66.9951 15.4462 67.7354 15.4015 68.4544 15.4015C69.3533 15.394 69.8926 15.4313 70.5165 15.5431C70.9818 15.6325 71.6692 15.8039 72.0499 15.938C72.42 16.0722 72.9911 16.3479 73.3189 16.5565C73.6361 16.7726 74.0591 17.1229 74.2389 17.339C74.4292 17.5625 74.683 18.0245 74.8099 18.3748C75.0003 18.9188 75.032 19.1498 74.9791 19.9769C74.9474 20.737 74.8311 21.2512 74.4927 22.3616C74.2495 23.1366 73.7842 24.5822 73.4669 25.5659C73.1497 26.5495 72.4306 28.6137 71.8913 30.1488C71.3414 31.6839 70.5377 33.83 70.0935 34.918C69.6494 36.006 68.9515 37.6156 68.539 38.4949C68.1266 39.3743 67.5873 40.3803 67.3335 40.7305C67.048 41.1329 66.6779 41.5055 66.3183 41.7589C66.0117 41.975 65.5252 42.2358 65.2291 42.3327C64.9436 42.4295 64.3831 42.5488 63.9919 42.5935C63.5054 42.6456 62.9873 42.6456 62.4057 42.5935C61.9192 42.5562 61.0944 42.437 60.5762 42.3327C60.058 42.2283 59.0111 41.9303 58.2497 41.6694C57.4884 41.4086 56.7904 41.1478 56.6952 41.0956C56.526 40.9988 56.5578 40.8646 57.1817 39.0166C57.5624 37.9286 59.0111 33.9716 60.4176 30.2233C61.824 26.475 63.4208 22.1827 63.9602 20.6849C64.51 19.187 65.1657 17.4657 65.43 16.8471C65.6944 16.2361 65.9482 15.707 65.9905 15.6772Z" fill="#221111"/>
<mask id="path-6-outside-1_81_17924" maskUnits="userSpaceOnUse" x="4" y="18.3555" width="35" height="22" fill="black">
<rect fill="white" x="4" y="18.3555" width="35" height="22"/>
<path d="M12.4137 21.2632C12.8118 21.094 13.6301 20.8324 14.2383 20.6632C14.8465 20.5093 15.7754 20.3709 17.2793 20.3555L17.9981 21.2478C18.3962 21.7248 18.7279 22.171 18.7169 22.2479C18.7169 22.3095 18.7943 22.3556 18.8827 22.3556C18.9712 22.3556 19.0486 22.2171 19.0486 22.0479C19.0486 21.8787 19.2255 21.5556 19.4688 21.294C19.69 21.0632 19.9885 20.7863 20.1323 20.6786C20.265 20.5863 20.453 20.5093 20.5414 20.5093C20.652 20.5093 20.7847 20.8632 20.9174 21.5556C21.0391 22.1248 21.216 22.6941 21.3155 22.8172C21.4261 22.971 21.4924 23.2941 21.4924 23.7403C21.4814 24.125 21.5588 24.6173 21.6473 24.8635C21.8021 25.2481 21.78 25.402 21.3155 27.3252C21.0391 28.433 20.7073 30.11 20.5746 31.0485C20.3756 32.5102 20.3535 33.0641 20.4198 35.1258C20.4862 37.2644 20.4751 37.5567 20.2982 37.8798C20.1876 38.0952 19.9332 38.3568 19.7453 38.4645C19.5462 38.5722 19.1592 38.6645 18.8827 38.6645C18.3851 38.6645 18.3851 38.6645 18.1197 37.8644C17.976 37.4182 17.7437 36.5259 17.6 35.895C17.3899 34.9565 17.3567 34.4488 17.3678 33.1256C17.3899 32.2332 17.4452 31.0639 17.5005 30.51C17.5557 29.9562 17.7548 28.8176 17.9538 27.9714C18.1418 27.1252 18.3077 26.079 18.3188 25.6328C18.3188 25.1866 18.3962 24.7404 18.4736 24.6327C18.551 24.525 18.6063 24.325 18.6063 24.2019C18.6063 24.0019 18.4183 23.9865 17.4673 24.0173C16.848 24.048 15.7201 24.2019 14.9571 24.3865C14.1941 24.5558 13.2763 24.8327 12.9113 25.002C12.5464 25.1712 12.1815 25.3866 12.1041 25.4789C12.0267 25.5866 11.9161 25.9405 11.8608 26.279C11.8055 26.6175 11.6618 27.3098 11.5291 27.8175C11.4074 28.3253 11.3079 28.8792 11.3079 29.0484C11.3079 29.3407 11.3521 29.3561 12.2147 29.233C12.7233 29.1715 13.6191 29.0792 14.2162 29.0022C15.2004 28.9099 15.2888 28.9253 15.2888 29.1715C15.2888 29.31 15.3773 29.5254 15.4879 29.6331C15.5985 29.7254 15.7754 29.9869 15.8749 30.2023C16.0518 30.5716 16.0408 30.6177 15.6206 31.4793C15.2999 32.1102 15.0898 32.3717 14.8797 32.4333C14.7027 32.464 14.0946 32.6025 13.5195 32.741C12.9445 32.8641 12.0488 33.0795 11.5291 33.2179C11.0093 33.3564 10.4564 33.4795 10.2906 33.5256C10.1136 33.5564 9.95881 33.6333 9.93669 33.7103C9.90352 33.7718 9.74871 34.3103 9.58283 34.895C9.38379 35.6027 9.28426 36.2181 9.29532 36.7105C9.30638 37.1105 9.24003 37.6336 9.15157 37.8952C9.0631 38.1567 8.87511 38.4337 8.74242 38.526C8.54337 38.6645 8.35538 38.6491 7.95729 38.4952C7.51496 38.3106 7.36015 38.1567 7.09475 37.5875C6.91782 37.2028 6.74089 36.6182 6.70772 36.2797C6.67455 35.8797 6.72984 35.295 7.10581 33.5872L6.80724 33.3256C6.65243 33.1718 6.39809 32.7102 6.25434 32.2794C6.12164 31.864 6 31.3101 6 31.0485C6 30.787 6.09952 30.3716 6.22116 30.11C6.35386 29.8485 6.61926 29.5254 6.82936 29.3869C7.03946 29.2484 7.31592 29.1253 7.43756 29.1253C7.5592 29.1253 7.78036 29.233 7.93517 29.3561C8.08999 29.4792 8.23374 29.5407 8.25586 29.4792C8.27797 29.4023 8.41067 28.9715 8.53231 28.5099C8.66501 28.0483 8.76453 27.5406 8.76453 27.4021C8.76453 27.2329 8.63183 27.0636 8.46596 26.9713C8.28903 26.8944 7.97941 26.4944 7.7693 26.0943C7.48179 25.5405 7.38227 25.1712 7.36015 24.6327C7.33803 24.0942 7.38227 23.8019 7.52602 23.5865C7.6366 23.4172 8.44385 22.971 9.48331 22.4941C10.4564 22.0633 11.3521 21.6786 11.4738 21.6325C11.5954 21.6017 12.0156 21.4325 12.4137 21.2632Z"/>
<path d="M31.3231 20.817C32.2078 20.6632 33.1035 20.4939 33.3136 20.4478C33.5237 20.417 34.0987 20.417 34.5853 20.4478C35.4478 20.5247 35.481 20.5401 35.9454 21.1709C36.2108 21.5248 36.4983 22.0017 36.5868 22.2325C36.6753 22.4787 36.7416 22.8172 36.7416 23.0018C36.7305 23.2018 36.6531 23.4942 36.5426 23.6634C36.443 23.8326 36.1223 24.0634 35.8348 24.1557C35.5363 24.2634 35.0718 24.3558 34.7843 24.3558C34.4857 24.3558 33.5126 24.4942 32.5948 24.6635C31.688 24.8327 30.9361 24.9866 30.925 25.002C30.925 25.0327 30.6928 25.8174 30.4053 26.7405C30.1178 27.6637 29.8856 28.4791 29.8856 28.5407C29.8856 28.6176 29.7307 29.1253 29.5428 29.6946C29.3548 30.2793 29.1004 31.0178 28.9899 31.3563C28.8793 31.6947 28.636 32.464 28.4591 33.0487C28.2821 33.6333 28.0831 34.4949 28.0167 34.9257C27.9504 35.3719 27.8951 35.8335 27.8951 35.9258C27.9062 36.0335 28.1163 36.3874 28.835 37.2644L28.7023 37.8952C28.5918 38.3722 28.4701 38.5568 28.1716 38.7414C27.9614 38.8645 27.6739 38.9722 27.5412 38.9722C27.3975 38.9722 26.9994 38.7568 26.6566 38.4798C26.2696 38.1721 26.0263 37.8644 26.0152 37.7106C26.0152 37.5567 25.982 37.4028 25.9378 37.3721C25.8825 37.3413 25.7498 36.8336 25.6392 36.2643C25.4844 35.4796 25.4402 34.9257 25.4844 34.1257C25.5287 33.3564 25.7277 32.3717 26.159 30.7408C26.4797 29.4792 26.933 27.9099 27.1542 27.279C27.3754 26.6482 27.5634 25.9866 27.5634 25.8174C27.5634 25.5405 27.5191 25.5251 27.2095 25.6328C27.0104 25.6943 26.2253 25.7866 24.08 25.9405L23.7151 25.4943C23.494 25.2327 23.2617 24.7096 23.129 24.2481C23.0185 23.8019 22.9189 23.248 22.9189 23.0172C22.9189 22.771 22.9742 22.4018 23.0516 22.171C23.1954 21.7556 23.2065 21.7402 24.2459 21.7402C24.8209 21.7402 26.0152 21.6325 26.8999 21.5094C28.2821 21.3094 28.5254 21.2478 28.6471 20.9709C28.7134 20.8017 28.8793 20.6632 29.0009 20.6632C29.1226 20.6632 29.3327 20.7709 29.4764 20.894C29.6976 21.094 29.8856 21.094 31.3231 20.817Z"/>
</mask>
<path d="M12.4137 21.2632C12.8118 21.094 13.6301 20.8324 14.2383 20.6632C14.8465 20.5093 15.7754 20.3709 17.2793 20.3555L17.9981 21.2478C18.3962 21.7248 18.7279 22.171 18.7169 22.2479C18.7169 22.3095 18.7943 22.3556 18.8827 22.3556C18.9712 22.3556 19.0486 22.2171 19.0486 22.0479C19.0486 21.8787 19.2255 21.5556 19.4688 21.294C19.69 21.0632 19.9885 20.7863 20.1323 20.6786C20.265 20.5863 20.453 20.5093 20.5414 20.5093C20.652 20.5093 20.7847 20.8632 20.9174 21.5556C21.0391 22.1248 21.216 22.6941 21.3155 22.8172C21.4261 22.971 21.4924 23.2941 21.4924 23.7403C21.4814 24.125 21.5588 24.6173 21.6473 24.8635C21.8021 25.2481 21.78 25.402 21.3155 27.3252C21.0391 28.433 20.7073 30.11 20.5746 31.0485C20.3756 32.5102 20.3535 33.0641 20.4198 35.1258C20.4862 37.2644 20.4751 37.5567 20.2982 37.8798C20.1876 38.0952 19.9332 38.3568 19.7453 38.4645C19.5462 38.5722 19.1592 38.6645 18.8827 38.6645C18.3851 38.6645 18.3851 38.6645 18.1197 37.8644C17.976 37.4182 17.7437 36.5259 17.6 35.895C17.3899 34.9565 17.3567 34.4488 17.3678 33.1256C17.3899 32.2332 17.4452 31.0639 17.5005 30.51C17.5557 29.9562 17.7548 28.8176 17.9538 27.9714C18.1418 27.1252 18.3077 26.079 18.3188 25.6328C18.3188 25.1866 18.3962 24.7404 18.4736 24.6327C18.551 24.525 18.6063 24.325 18.6063 24.2019C18.6063 24.0019 18.4183 23.9865 17.4673 24.0173C16.848 24.048 15.7201 24.2019 14.9571 24.3865C14.1941 24.5558 13.2763 24.8327 12.9113 25.002C12.5464 25.1712 12.1815 25.3866 12.1041 25.4789C12.0267 25.5866 11.9161 25.9405 11.8608 26.279C11.8055 26.6175 11.6618 27.3098 11.5291 27.8175C11.4074 28.3253 11.3079 28.8792 11.3079 29.0484C11.3079 29.3407 11.3521 29.3561 12.2147 29.233C12.7233 29.1715 13.6191 29.0792 14.2162 29.0022C15.2004 28.9099 15.2888 28.9253 15.2888 29.1715C15.2888 29.31 15.3773 29.5254 15.4879 29.6331C15.5985 29.7254 15.7754 29.9869 15.8749 30.2023C16.0518 30.5716 16.0408 30.6177 15.6206 31.4793C15.2999 32.1102 15.0898 32.3717 14.8797 32.4333C14.7027 32.464 14.0946 32.6025 13.5195 32.741C12.9445 32.8641 12.0488 33.0795 11.5291 33.2179C11.0093 33.3564 10.4564 33.4795 10.2906 33.5256C10.1136 33.5564 9.95881 33.6333 9.93669 33.7103C9.90352 33.7718 9.74871 34.3103 9.58283 34.895C9.38379 35.6027 9.28426 36.2181 9.29532 36.7105C9.30638 37.1105 9.24003 37.6336 9.15157 37.8952C9.0631 38.1567 8.87511 38.4337 8.74242 38.526C8.54337 38.6645 8.35538 38.6491 7.95729 38.4952C7.51496 38.3106 7.36015 38.1567 7.09475 37.5875C6.91782 37.2028 6.74089 36.6182 6.70772 36.2797C6.67455 35.8797 6.72984 35.295 7.10581 33.5872L6.80724 33.3256C6.65243 33.1718 6.39809 32.7102 6.25434 32.2794C6.12164 31.864 6 31.3101 6 31.0485C6 30.787 6.09952 30.3716 6.22116 30.11C6.35386 29.8485 6.61926 29.5254 6.82936 29.3869C7.03946 29.2484 7.31592 29.1253 7.43756 29.1253C7.5592 29.1253 7.78036 29.233 7.93517 29.3561C8.08999 29.4792 8.23374 29.5407 8.25586 29.4792C8.27797 29.4023 8.41067 28.9715 8.53231 28.5099C8.66501 28.0483 8.76453 27.5406 8.76453 27.4021C8.76453 27.2329 8.63183 27.0636 8.46596 26.9713C8.28903 26.8944 7.97941 26.4944 7.7693 26.0943C7.48179 25.5405 7.38227 25.1712 7.36015 24.6327C7.33803 24.0942 7.38227 23.8019 7.52602 23.5865C7.6366 23.4172 8.44385 22.971 9.48331 22.4941C10.4564 22.0633 11.3521 21.6786 11.4738 21.6325C11.5954 21.6017 12.0156 21.4325 12.4137 21.2632Z" fill="#221111"/>
<path d="M31.3231 20.817C32.2078 20.6632 33.1035 20.4939 33.3136 20.4478C33.5237 20.417 34.0987 20.417 34.5853 20.4478C35.4478 20.5247 35.481 20.5401 35.9454 21.1709C36.2108 21.5248 36.4983 22.0017 36.5868 22.2325C36.6753 22.4787 36.7416 22.8172 36.7416 23.0018C36.7305 23.2018 36.6531 23.4942 36.5426 23.6634C36.443 23.8326 36.1223 24.0634 35.8348 24.1557C35.5363 24.2634 35.0718 24.3558 34.7843 24.3558C34.4857 24.3558 33.5126 24.4942 32.5948 24.6635C31.688 24.8327 30.9361 24.9866 30.925 25.002C30.925 25.0327 30.6928 25.8174 30.4053 26.7405C30.1178 27.6637 29.8856 28.4791 29.8856 28.5407C29.8856 28.6176 29.7307 29.1253 29.5428 29.6946C29.3548 30.2793 29.1004 31.0178 28.9899 31.3563C28.8793 31.6947 28.636 32.464 28.4591 33.0487C28.2821 33.6333 28.0831 34.4949 28.0167 34.9257C27.9504 35.3719 27.8951 35.8335 27.8951 35.9258C27.9062 36.0335 28.1163 36.3874 28.835 37.2644L28.7023 37.8952C28.5918 38.3722 28.4701 38.5568 28.1716 38.7414C27.9614 38.8645 27.6739 38.9722 27.5412 38.9722C27.3975 38.9722 26.9994 38.7568 26.6566 38.4798C26.2696 38.1721 26.0263 37.8644 26.0152 37.7106C26.0152 37.5567 25.982 37.4028 25.9378 37.3721C25.8825 37.3413 25.7498 36.8336 25.6392 36.2643C25.4844 35.4796 25.4402 34.9257 25.4844 34.1257C25.5287 33.3564 25.7277 32.3717 26.159 30.7408C26.4797 29.4792 26.933 27.9099 27.1542 27.279C27.3754 26.6482 27.5634 25.9866 27.5634 25.8174C27.5634 25.5405 27.5191 25.5251 27.2095 25.6328C27.0104 25.6943 26.2253 25.7866 24.08 25.9405L23.7151 25.4943C23.494 25.2327 23.2617 24.7096 23.129 24.2481C23.0185 23.8019 22.9189 23.248 22.9189 23.0172C22.9189 22.771 22.9742 22.4018 23.0516 22.171C23.1954 21.7556 23.2065 21.7402 24.2459 21.7402C24.8209 21.7402 26.0152 21.6325 26.8999 21.5094C28.2821 21.3094 28.5254 21.2478 28.6471 20.9709C28.7134 20.8017 28.8793 20.6632 29.0009 20.6632C29.1226 20.6632 29.3327 20.7709 29.4764 20.894C29.6976 21.094 29.8856 21.094 31.3231 20.817Z" fill="#221111"/>
<path d="M12.4137 21.2632C12.8118 21.094 13.6301 20.8324 14.2383 20.6632C14.8465 20.5093 15.7754 20.3709 17.2793 20.3555L17.9981 21.2478C18.3962 21.7248 18.7279 22.171 18.7169 22.2479C18.7169 22.3095 18.7943 22.3556 18.8827 22.3556C18.9712 22.3556 19.0486 22.2171 19.0486 22.0479C19.0486 21.8787 19.2255 21.5556 19.4688 21.294C19.69 21.0632 19.9885 20.7863 20.1323 20.6786C20.265 20.5863 20.453 20.5093 20.5414 20.5093C20.652 20.5093 20.7847 20.8632 20.9174 21.5556C21.0391 22.1248 21.216 22.6941 21.3155 22.8172C21.4261 22.971 21.4924 23.2941 21.4924 23.7403C21.4814 24.125 21.5588 24.6173 21.6473 24.8635C21.8021 25.2481 21.78 25.402 21.3155 27.3252C21.0391 28.433 20.7073 30.11 20.5746 31.0485C20.3756 32.5102 20.3535 33.0641 20.4198 35.1258C20.4862 37.2644 20.4751 37.5567 20.2982 37.8798C20.1876 38.0952 19.9332 38.3568 19.7453 38.4645C19.5462 38.5722 19.1592 38.6645 18.8827 38.6645C18.3851 38.6645 18.3851 38.6645 18.1197 37.8644C17.976 37.4182 17.7437 36.5259 17.6 35.895C17.3899 34.9565 17.3567 34.4488 17.3678 33.1256C17.3899 32.2332 17.4452 31.0639 17.5005 30.51C17.5557 29.9562 17.7548 28.8176 17.9538 27.9714C18.1418 27.1252 18.3077 26.079 18.3188 25.6328C18.3188 25.1866 18.3962 24.7404 18.4736 24.6327C18.551 24.525 18.6063 24.325 18.6063 24.2019C18.6063 24.0019 18.4183 23.9865 17.4673 24.0173C16.848 24.048 15.7201 24.2019 14.9571 24.3865C14.1941 24.5558 13.2763 24.8327 12.9113 25.002C12.5464 25.1712 12.1815 25.3866 12.1041 25.4789C12.0267 25.5866 11.9161 25.9405 11.8608 26.279C11.8055 26.6175 11.6618 27.3098 11.5291 27.8175C11.4074 28.3253 11.3079 28.8792 11.3079 29.0484C11.3079 29.3407 11.3521 29.3561 12.2147 29.233C12.7233 29.1715 13.6191 29.0792 14.2162 29.0022C15.2004 28.9099 15.2888 28.9253 15.2888 29.1715C15.2888 29.31 15.3773 29.5254 15.4879 29.6331C15.5985 29.7254 15.7754 29.9869 15.8749 30.2023C16.0518 30.5716 16.0408 30.6177 15.6206 31.4793C15.2999 32.1102 15.0898 32.3717 14.8797 32.4333C14.7027 32.464 14.0946 32.6025 13.5195 32.741C12.9445 32.8641 12.0488 33.0795 11.5291 33.2179C11.0093 33.3564 10.4564 33.4795 10.2906 33.5256C10.1136 33.5564 9.95881 33.6333 9.93669 33.7103C9.90352 33.7718 9.74871 34.3103 9.58283 34.895C9.38379 35.6027 9.28426 36.2181 9.29532 36.7105C9.30638 37.1105 9.24003 37.6336 9.15157 37.8952C9.0631 38.1567 8.87511 38.4337 8.74242 38.526C8.54337 38.6645 8.35538 38.6491 7.95729 38.4952C7.51496 38.3106 7.36015 38.1567 7.09475 37.5875C6.91782 37.2028 6.74089 36.6182 6.70772 36.2797C6.67455 35.8797 6.72984 35.295 7.10581 33.5872L6.80724 33.3256C6.65243 33.1718 6.39809 32.7102 6.25434 32.2794C6.12164 31.864 6 31.3101 6 31.0485C6 30.787 6.09952 30.3716 6.22116 30.11C6.35386 29.8485 6.61926 29.5254 6.82936 29.3869C7.03946 29.2484 7.31592 29.1253 7.43756 29.1253C7.5592 29.1253 7.78036 29.233 7.93517 29.3561C8.08999 29.4792 8.23374 29.5407 8.25586 29.4792C8.27797 29.4023 8.41067 28.9715 8.53231 28.5099C8.66501 28.0483 8.76453 27.5406 8.76453 27.4021C8.76453 27.2329 8.63183 27.0636 8.46596 26.9713C8.28903 26.8944 7.97941 26.4944 7.7693 26.0943C7.48179 25.5405 7.38227 25.1712 7.36015 24.6327C7.33803 24.0942 7.38227 23.8019 7.52602 23.5865C7.6366 23.4172 8.44385 22.971 9.48331 22.4941C10.4564 22.0633 11.3521 21.6786 11.4738 21.6325C11.5954 21.6017 12.0156 21.4325 12.4137 21.2632Z" stroke="#F7FEFF" stroke-width="2.71789" mask="url(#path-6-outside-1_81_17924)"/>
<path d="M31.3231 20.817C32.2078 20.6632 33.1035 20.4939 33.3136 20.4478C33.5237 20.417 34.0987 20.417 34.5853 20.4478C35.4478 20.5247 35.481 20.5401 35.9454 21.1709C36.2108 21.5248 36.4983 22.0017 36.5868 22.2325C36.6753 22.4787 36.7416 22.8172 36.7416 23.0018C36.7305 23.2018 36.6531 23.4942 36.5426 23.6634C36.443 23.8326 36.1223 24.0634 35.8348 24.1557C35.5363 24.2634 35.0718 24.3558 34.7843 24.3558C34.4857 24.3558 33.5126 24.4942 32.5948 24.6635C31.688 24.8327 30.9361 24.9866 30.925 25.002C30.925 25.0327 30.6928 25.8174 30.4053 26.7405C30.1178 27.6637 29.8856 28.4791 29.8856 28.5407C29.8856 28.6176 29.7307 29.1253 29.5428 29.6946C29.3548 30.2793 29.1004 31.0178 28.9899 31.3563C28.8793 31.6947 28.636 32.464 28.4591 33.0487C28.2821 33.6333 28.0831 34.4949 28.0167 34.9257C27.9504 35.3719 27.8951 35.8335 27.8951 35.9258C27.9062 36.0335 28.1163 36.3874 28.835 37.2644L28.7023 37.8952C28.5918 38.3722 28.4701 38.5568 28.1716 38.7414C27.9614 38.8645 27.6739 38.9722 27.5412 38.9722C27.3975 38.9722 26.9994 38.7568 26.6566 38.4798C26.2696 38.1721 26.0263 37.8644 26.0152 37.7106C26.0152 37.5567 25.982 37.4028 25.9378 37.3721C25.8825 37.3413 25.7498 36.8336 25.6392 36.2643C25.4844 35.4796 25.4402 34.9257 25.4844 34.1257C25.5287 33.3564 25.7277 32.3717 26.159 30.7408C26.4797 29.4792 26.933 27.9099 27.1542 27.279C27.3754 26.6482 27.5634 25.9866 27.5634 25.8174C27.5634 25.5405 27.5191 25.5251 27.2095 25.6328C27.0104 25.6943 26.2253 25.7866 24.08 25.9405L23.7151 25.4943C23.494 25.2327 23.2617 24.7096 23.129 24.2481C23.0185 23.8019 22.9189 23.248 22.9189 23.0172C22.9189 22.771 22.9742 22.4018 23.0516 22.171C23.1954 21.7556 23.2065 21.7402 24.2459 21.7402C24.8209 21.7402 26.0152 21.6325 26.8999 21.5094C28.2821 21.3094 28.5254 21.2478 28.6471 20.9709C28.7134 20.8017 28.8793 20.6632 29.0009 20.6632C29.1226 20.6632 29.3327 20.7709 29.4764 20.894C29.6976 21.094 29.8856 21.094 31.3231 20.817Z" stroke="#F7FEFF" stroke-width="2.71789" mask="url(#path-6-outside-1_81_17924)"/>
<path d="M32.9845 16.7425L32.3965 17.134C32.571 17.4037 32.8723 17.5792 33.1418 17.7012C33.4345 17.8336 33.8003 17.9503 34.2192 18.0532C34.7769 18.193 35.1887 18.2767 35.6518 18.2743C36.1017 18.272 36.5689 18.1881 37.2254 18.0592C37.2252 18.0592 37.2249 18.0593 37.2247 18.0593L32.9845 16.7425ZM32.9845 16.7425L32.3965 17.134C32.2666 16.9331 32.1918 16.6535 32.1471 16.4257C32.0978 16.1745 32.0667 15.8863 32.065 15.6112C32.0619 15.1039 32.1365 14.2589 32.2077 13.729L32.2091 13.7188L32.2108 13.7086C32.2392 13.5371 32.2333 13.471 32.225 13.379C32.2228 13.3537 32.2204 13.3265 32.2184 13.2947C32.2119 13.1872 32.2143 13.0477 32.2681 12.8773C32.3151 12.728 32.3907 12.5897 32.4742 12.4579C32.5358 12.3579 32.5971 12.2639 32.6592 12.1857C32.7199 12.1093 32.8305 11.9838 33.0057 11.8992C33.0945 11.8564 33.1737 11.8367 33.2302 11.8265C33.2451 11.8238 33.2585 11.8217 33.2695 11.8202C33.3746 11.7821 33.5029 11.7503 33.6103 11.7255C33.7531 11.6925 33.9292 11.6564 34.1257 11.6197C34.517 11.5468 35.0057 11.4684 35.5045 11.4048M32.9845 16.7425L35.5045 11.4048M35.5045 11.4048L35.5047 11.4015C35.7652 11.371 36.261 11.2271 36.9691 10.9897C37.3054 10.8769 37.6714 10.7495 38.0596 10.6145L38.0755 10.6089C38.4681 10.4723 38.8819 10.3284 39.301 10.1873C40.1365 9.9059 41.0098 9.62991 41.8074 9.43812C42.5856 9.25095 43.368 9.1242 43.9907 9.19231C45.6809 9.36799 46.8623 9.57362 47.5781 9.8928C48.1143 10.1202 48.9129 10.5772 49.3813 10.9441C49.7095 11.1966 49.9748 11.4357 50.1813 11.7396C50.389 12.0452 50.5111 12.3776 50.6168 12.7754C50.7483 13.2362 51.0166 13.7267 51.2221 13.9391C51.7166 14.404 51.9761 15.0228 52.1249 15.8033C52.2425 16.3926 52.3148 17.1777 52.2675 17.5907L52.2656 17.6075L52.2628 17.6242C52.2181 17.8948 52.0707 18.2313 51.9201 18.5255C51.7581 18.842 51.5485 19.1931 51.3209 19.5188C50.8706 20.1729 49.8363 21.2524 49.0321 21.9509L35.5045 11.4048ZM33.3084 11.8154L33.3084 11.8154C33.3084 11.8154 33.3084 11.8154 33.3084 11.8154L33.3084 11.8154Z" fill="#221111" stroke="#F7FEFF" stroke-width="1.35895"/>
<mask id="path-8-outside-2_81_17924" maskUnits="userSpaceOnUse" x="74.8496" y="18.3555" width="47" height="22" fill="black">
<rect fill="white" x="74.8496" y="18.3555" width="47" height="22"/>
<path d="M116.457 22.3207C117.016 21.5256 117.543 20.9255 117.877 20.7155C118.178 20.5205 118.501 20.3555 118.608 20.3555C118.705 20.3555 118.791 20.4455 118.791 20.5505C118.791 20.6405 118.92 20.9105 119.081 21.1205C119.253 21.3306 119.501 21.6006 119.651 21.7356C119.802 21.8556 119.952 22.1556 119.985 22.3957C120.017 22.6357 119.995 22.9957 119.942 23.2057C119.888 23.4158 119.415 24.1808 118.888 24.9309C118.361 25.681 117.92 26.401 117.931 26.551C117.931 26.6861 117.845 26.8211 117.748 26.8511C117.64 26.8811 117.318 27.4061 117.038 28.0212C116.758 28.6362 116.199 29.8964 115.801 30.8264C115.403 31.7565 114.973 32.7766 114.844 33.0766C114.715 33.3767 114.479 34.0067 114.328 34.4568C114.167 34.9068 113.941 35.4769 113.812 35.7319C113.683 35.9869 113.425 36.617 113.242 37.157C113.059 37.6971 112.769 38.3271 112.597 38.5522C112.338 38.9122 112.22 38.9722 111.908 38.8972C111.704 38.8522 111.36 38.6572 111.155 38.4771C110.951 38.2821 110.672 37.8321 110.295 36.782L110.499 35.8069C110.618 35.2668 110.79 34.7268 110.887 34.6068C110.983 34.4868 111.059 34.3218 111.048 34.2318C111.048 34.1417 111.338 33.3617 111.693 32.4766C112.048 31.5765 112.338 30.7664 112.338 30.6764C112.338 30.5714 112.22 30.3164 112.07 30.1064C111.919 29.8964 111.672 29.2963 111.521 28.7562C111.371 28.2162 111.145 27.1061 111.026 26.281C110.908 25.4559 110.801 24.4808 110.779 24.1058C110.768 23.7308 110.725 22.9957 110.672 22.4557C110.607 21.5856 110.618 21.4356 110.822 21.0755C110.951 20.8355 111.145 20.6555 111.263 20.6555C111.381 20.6555 111.768 20.8505 112.123 21.1055C112.478 21.3606 112.908 21.7806 113.091 22.0356C113.274 22.3207 113.414 22.6957 113.414 22.9057C113.414 23.1157 113.457 23.4758 113.511 23.7308C113.564 23.9858 113.672 24.6159 113.758 25.1409C113.833 25.681 113.952 26.221 114.016 26.341C114.113 26.536 114.22 26.416 114.661 25.606C114.952 25.0659 115.274 24.3908 115.382 24.1058C115.489 23.8208 115.973 23.0107 116.457 22.3207Z"/>
<path d="M82.9795 21.4956C83.5387 21.3756 84.4098 21.1655 84.9152 21.0605C85.4207 20.9405 85.9261 20.8805 86.0444 20.9255C86.1627 20.9705 86.3778 21.0005 86.5284 20.9855C86.6789 20.9855 86.937 21.1655 87.1199 21.3906C87.3027 21.6306 87.55 21.8556 87.6898 21.9156C87.8834 22.0056 87.9264 22.1256 87.9264 22.6207C87.9264 23.1157 87.8511 23.3257 87.5285 23.7908C87.2812 24.1358 86.9048 24.4658 86.5821 24.6159C86.2918 24.7509 85.582 24.9609 85.0228 25.0959C84.4636 25.2309 83.8076 25.4559 83.571 25.606C83.3344 25.756 82.9042 25.921 82.6031 25.981C82.3127 26.041 81.9041 26.176 81.7105 26.266C81.3986 26.416 81.3556 26.506 81.4201 27.3461L83.0655 27.3161C84.313 27.2861 84.7002 27.3161 84.7002 27.4661C84.7002 27.5561 84.8507 27.8562 85.0443 28.1262C85.2379 28.3812 85.5282 28.6812 85.7003 28.7562C85.9154 28.8763 85.9907 29.0263 85.9907 29.3413C86.0014 29.6713 85.8831 29.8513 85.3239 30.3764C84.9475 30.7214 84.4528 31.1265 84.2162 31.2615C83.8721 31.4715 83.4634 31.5315 80.6028 31.5465L80.3125 32.2216C80.1512 32.5966 79.9361 33.1517 79.8285 33.4667C79.7317 33.7667 79.678 34.0517 79.7317 34.0967C79.7748 34.1417 80.2157 34.1717 80.7211 34.1717C81.2266 34.1717 82.1729 34.0667 82.8182 33.9467C83.4742 33.8417 84.3668 33.6317 85.6143 33.2567L85.9907 33.7817C86.195 34.0817 86.4208 34.3218 86.4746 34.3218C86.5391 34.3218 86.6682 34.5768 86.765 34.8768C86.9478 35.4469 86.9478 35.4469 86.6252 36.0919C86.4531 36.437 86.109 36.887 85.8616 37.082C85.6035 37.277 85.0335 37.5621 84.5926 37.6971C84.1517 37.8321 83.3021 38.0121 82.7106 38.0871C82.1192 38.1771 81.1728 38.2821 80.6136 38.3271C79.9898 38.3721 79.3661 38.3421 79.0005 38.2371C78.6778 38.1321 78.2477 37.9371 78.0433 37.8021C77.839 37.6671 77.5486 37.277 77.4088 36.947C77.2583 36.617 77.0754 35.8669 76.9894 35.2969C76.9141 34.7268 76.8496 33.9167 76.8496 33.4967C76.8496 33.0166 76.9249 32.5816 77.0647 32.2666C77.183 31.9965 77.2798 31.6815 77.2798 31.5915C77.2798 31.4865 77.3443 31.2915 77.4303 31.1715C77.5056 31.0515 77.8175 30.1814 78.6778 27.5711L78.4735 27.1661C78.3659 26.9261 78.2369 26.581 78.1939 26.371C78.1401 26.161 78.0433 25.5159 77.839 23.8958L78.1724 23.4758C78.366 23.2507 78.8284 22.9357 79.2155 22.7857L79.216 22.7855C79.6033 22.6355 80.3772 22.3356 80.9362 22.1106C81.4954 21.9006 82.4203 21.6306 82.9795 21.4956Z"/>
<path fill-rule="evenodd" clip-rule="evenodd" d="M93.2497 20.7305C93.0132 20.8505 92.6045 21.2406 92.3464 21.5856C92.0883 21.9456 91.5506 22.8307 91.1527 23.5808C90.7548 24.3308 90.3246 25.0659 90.2063 25.2309C90.0342 25.4559 89.9375 25.4859 89.8407 25.3659C89.7654 25.2759 89.5933 25.1559 89.4643 25.0959C89.2814 25.0359 89.1739 25.0959 89.0664 25.3359C88.9803 25.5309 88.733 26.7611 88.5179 28.0812C88.2921 29.4013 88.0662 30.8564 88.0125 31.3065C87.9587 31.7565 87.8942 32.3266 87.8727 32.5816C87.8511 32.8366 87.7651 33.4367 87.6683 33.9317C87.5823 34.4268 87.4963 34.9968 87.4855 35.2068C87.464 35.4169 87.507 35.7169 87.5715 35.8819C87.6361 36.0469 87.7328 36.452 87.7759 36.782C87.8189 37.112 87.9587 37.5171 88.077 37.6821C88.206 37.8471 88.4211 38.0721 88.5717 38.1771C88.7975 38.3421 88.9051 38.3121 89.303 38.0571C89.6686 37.8171 89.8084 37.6071 90.0127 36.962C90.1525 36.542 90.2923 35.9569 90.3354 35.6869C90.3676 35.4319 90.4537 35.2068 90.5074 35.2068C90.5612 35.2068 90.7978 35.4319 91.0236 35.7169C91.2387 35.9869 91.6689 36.422 91.9592 36.677C92.2604 36.932 93.0562 37.442 93.7337 37.8021C94.4112 38.1621 95.3145 38.5822 95.7232 38.7322C96.1426 38.8672 96.7449 38.9722 97.0675 38.9722C97.4116 38.9722 97.7665 38.8672 97.9063 38.7322C98.0354 38.6122 98.1967 38.3571 98.272 38.1621C98.3365 37.9821 98.4118 37.5321 98.4333 37.157C98.4548 36.707 98.401 36.2719 98.2504 35.8369C98.0461 35.2518 98.0031 35.2068 97.5299 35.1318C97.2395 35.0868 96.4545 34.8768 95.777 34.6668C95.0995 34.4418 94.3252 34.1267 94.0563 33.9467C93.7875 33.7517 93.368 33.4217 93.1207 33.2117C92.8626 32.9866 92.6583 32.7466 92.6583 32.6566C92.6583 32.5666 92.8411 32.4166 93.0669 32.2966C93.282 32.1916 93.7552 31.9815 94.1101 31.8315C94.465 31.6965 95.0457 31.3965 95.4006 31.1715C95.7555 30.9464 96.3039 30.4364 96.6158 30.0314C96.9492 29.5963 97.2288 29.0563 97.3041 28.7562C97.3686 28.4712 97.4224 27.9312 97.4116 27.5561C97.4116 27.1661 97.2718 26.386 97.0675 25.681C96.8847 25.0209 96.5943 24.1358 96.4437 23.7308C96.2824 23.3107 96.0566 22.8757 95.9383 22.7557C95.82 22.6357 95.6264 22.3657 95.5081 22.1856C95.3898 21.9906 94.9919 21.5256 94.6263 21.1655C94.2499 20.8055 93.8842 20.5055 93.8197 20.5055C93.7444 20.5205 93.4863 20.6105 93.2497 20.7305ZM91.7226 28.3812C91.7549 28.1262 92.0991 27.4211 92.54 26.6861C92.9594 26.011 93.3788 25.4559 93.4541 25.4559C93.5401 25.4559 93.7444 25.621 93.9165 25.801C94.0778 25.996 94.2606 26.371 94.3144 26.626C94.3789 26.8811 94.422 27.1961 94.422 27.3311C94.422 27.4961 94.1639 27.7211 93.6692 28.0212C93.2605 28.2612 92.6475 28.5612 92.3249 28.6812C92.0023 28.8013 91.7227 28.8763 91.7011 28.8613C91.6796 28.8463 91.6904 28.6362 91.7226 28.3812Z"/>
<path fill-rule="evenodd" clip-rule="evenodd" d="M101.853 21.0905C102.445 20.9105 103.359 20.7155 103.896 20.6555C104.434 20.5955 105.133 20.5655 105.456 20.5955C105.778 20.6255 106.273 20.7005 106.542 20.7605C106.822 20.8205 107.166 21.0305 107.295 21.2105C107.435 21.4056 107.607 21.5556 107.66 21.5556C107.714 21.5556 108.015 21.9006 108.316 22.3357C108.617 22.7707 108.929 23.3707 108.994 23.6558C109.058 23.9408 109.112 24.3458 109.112 24.5559C109.112 24.7659 108.994 25.2609 108.843 25.681C108.704 26.086 108.23 26.9411 107.037 28.6812L107.607 29.3563C107.929 29.7313 108.392 30.3164 108.65 30.6614C108.908 31.0215 109.22 31.5915 109.338 31.9365C109.467 32.2966 109.596 32.9116 109.618 33.3317C109.65 34.0217 109.618 34.1417 109.187 34.9068C108.8 35.5969 108.542 35.8669 107.553 36.587C106.897 37.052 106.004 37.5771 105.563 37.7421C105.122 37.9071 104.563 38.1471 104.327 38.2821C104.09 38.4321 103.585 38.5672 103.197 38.5972C102.606 38.6572 102.423 38.5972 101.53 37.8921L101.294 38.2821C101.122 38.5522 100.95 38.6422 100.735 38.6122C100.563 38.5972 100.261 38.3721 100.057 38.1171C99.8636 37.8471 99.6485 37.5471 99.5947 37.442C99.5409 37.322 99.4119 36.992 99.3151 36.707C99.2076 36.407 99.1538 35.9869 99.1861 35.7319C99.2183 35.4769 99.2936 35.1918 99.3366 35.0868C99.3904 34.9968 99.4119 34.8168 99.3904 34.7118C99.3689 34.6218 99.4442 34.1417 99.5517 33.6617C99.6592 33.1967 99.8206 32.6566 99.9066 32.4766C99.9926 32.2816 100.218 31.2165 100.401 30.1064C100.595 28.9963 100.842 27.7211 100.95 27.3011C101.057 26.8661 101.154 26.311 101.154 26.056C101.154 25.801 101.133 25.606 101.1 25.606C101.068 25.606 100.961 25.666 100.864 25.741C100.756 25.801 100.638 26.041 100.595 26.266C100.53 26.551 100.412 26.6861 100.165 26.7461C99.8958 26.8211 99.6915 26.7611 99.3259 26.476C99.057 26.266 98.6806 25.831 98.487 25.5159C98.2935 25.2009 98.0676 24.7059 97.9816 24.4508C97.8418 24.0158 97.8418 23.9108 97.9816 23.5058C98.0676 23.2507 98.3257 22.8757 98.5516 22.6357C98.7666 22.4107 99.3581 22.0356 99.8636 21.8106C100.369 21.5856 101.262 21.2706 101.853 21.0905ZM104.058 31.0515L103.154 31.3815C102.477 33.9917 102.316 34.8018 102.359 34.8618C102.402 34.9368 102.67 34.9068 102.95 34.8018C103.23 34.7118 104.058 34.2618 104.8 33.8267C105.778 33.2267 106.284 32.8366 106.66 32.3416C106.94 31.9815 107.166 31.6215 107.166 31.5315C107.166 31.4415 106.983 31.2615 106.768 31.1115C106.542 30.9464 106.047 30.7964 105.66 30.7664C105.165 30.7214 104.703 30.7964 104.058 31.0515ZM103.154 24.5409C103.563 24.3608 104.101 24.1658 104.37 24.1058C104.638 24.0458 105.079 23.9858 105.37 23.9708C105.649 23.9708 105.875 24.0308 105.875 24.1058C105.875 24.1808 105.596 24.6159 105.251 25.0359C104.907 25.4709 104.38 26.011 103.509 26.6561L103.165 26.161C102.972 25.891 102.692 25.576 102.552 25.4559C102.402 25.3209 102.316 25.1559 102.359 25.0509C102.402 24.9459 102.756 24.7059 103.154 24.5409Z"/>
</mask>
<path d="M116.457 22.3207C117.016 21.5256 117.543 20.9255 117.877 20.7155C118.178 20.5205 118.501 20.3555 118.608 20.3555C118.705 20.3555 118.791 20.4455 118.791 20.5505C118.791 20.6405 118.92 20.9105 119.081 21.1205C119.253 21.3306 119.501 21.6006 119.651 21.7356C119.802 21.8556 119.952 22.1556 119.985 22.3957C120.017 22.6357 119.995 22.9957 119.942 23.2057C119.888 23.4158 119.415 24.1808 118.888 24.9309C118.361 25.681 117.92 26.401 117.931 26.551C117.931 26.6861 117.845 26.8211 117.748 26.8511C117.64 26.8811 117.318 27.4061 117.038 28.0212C116.758 28.6362 116.199 29.8964 115.801 30.8264C115.403 31.7565 114.973 32.7766 114.844 33.0766C114.715 33.3767 114.479 34.0067 114.328 34.4568C114.167 34.9068 113.941 35.4769 113.812 35.7319C113.683 35.9869 113.425 36.617 113.242 37.157C113.059 37.6971 112.769 38.3271 112.597 38.5522C112.338 38.9122 112.22 38.9722 111.908 38.8972C111.704 38.8522 111.36 38.6572 111.155 38.4771C110.951 38.2821 110.672 37.8321 110.295 36.782L110.499 35.8069C110.618 35.2668 110.79 34.7268 110.887 34.6068C110.983 34.4868 111.059 34.3218 111.048 34.2318C111.048 34.1417 111.338 33.3617 111.693 32.4766C112.048 31.5765 112.338 30.7664 112.338 30.6764C112.338 30.5714 112.22 30.3164 112.07 30.1064C111.919 29.8964 111.672 29.2963 111.521 28.7562C111.371 28.2162 111.145 27.1061 111.026 26.281C110.908 25.4559 110.801 24.4808 110.779 24.1058C110.768 23.7308 110.725 22.9957 110.672 22.4557C110.607 21.5856 110.618 21.4356 110.822 21.0755C110.951 20.8355 111.145 20.6555 111.263 20.6555C111.381 20.6555 111.768 20.8505 112.123 21.1055C112.478 21.3606 112.908 21.7806 113.091 22.0356C113.274 22.3207 113.414 22.6957 113.414 22.9057C113.414 23.1157 113.457 23.4758 113.511 23.7308C113.564 23.9858 113.672 24.6159 113.758 25.1409C113.833 25.681 113.952 26.221 114.016 26.341C114.113 26.536 114.22 26.416 114.661 25.606C114.952 25.0659 115.274 24.3908 115.382 24.1058C115.489 23.8208 115.973 23.0107 116.457 22.3207Z" fill="#221111"/>
<path d="M82.9795 21.4956C83.5387 21.3756 84.4098 21.1655 84.9152 21.0605C85.4207 20.9405 85.9261 20.8805 86.0444 20.9255C86.1627 20.9705 86.3778 21.0005 86.5284 20.9855C86.6789 20.9855 86.937 21.1655 87.1199 21.3906C87.3027 21.6306 87.55 21.8556 87.6898 21.9156C87.8834 22.0056 87.9264 22.1256 87.9264 22.6207C87.9264 23.1157 87.8511 23.3257 87.5285 23.7908C87.2812 24.1358 86.9048 24.4658 86.5821 24.6159C86.2918 24.7509 85.582 24.9609 85.0228 25.0959C84.4636 25.2309 83.8076 25.4559 83.571 25.606C83.3344 25.756 82.9042 25.921 82.6031 25.981C82.3127 26.041 81.9041 26.176 81.7105 26.266C81.3986 26.416 81.3556 26.506 81.4201 27.3461L83.0655 27.3161C84.313 27.2861 84.7002 27.3161 84.7002 27.4661C84.7002 27.5561 84.8507 27.8562 85.0443 28.1262C85.2379 28.3812 85.5282 28.6812 85.7003 28.7562C85.9154 28.8763 85.9907 29.0263 85.9907 29.3413C86.0014 29.6713 85.8831 29.8513 85.3239 30.3764C84.9475 30.7214 84.4528 31.1265 84.2162 31.2615C83.8721 31.4715 83.4634 31.5315 80.6028 31.5465L80.3125 32.2216C80.1512 32.5966 79.9361 33.1517 79.8285 33.4667C79.7317 33.7667 79.678 34.0517 79.7317 34.0967C79.7748 34.1417 80.2157 34.1717 80.7211 34.1717C81.2266 34.1717 82.1729 34.0667 82.8182 33.9467C83.4742 33.8417 84.3668 33.6317 85.6143 33.2567L85.9907 33.7817C86.195 34.0817 86.4208 34.3218 86.4746 34.3218C86.5391 34.3218 86.6682 34.5768 86.765 34.8768C86.9478 35.4469 86.9478 35.4469 86.6252 36.0919C86.4531 36.437 86.109 36.887 85.8616 37.082C85.6035 37.277 85.0335 37.5621 84.5926 37.6971C84.1517 37.8321 83.3021 38.0121 82.7106 38.0871C82.1192 38.1771 81.1728 38.2821 80.6136 38.3271C79.9898 38.3721 79.3661 38.3421 79.0005 38.2371C78.6778 38.1321 78.2477 37.9371 78.0433 37.8021C77.839 37.6671 77.5486 37.277 77.4088 36.947C77.2583 36.617 77.0754 35.8669 76.9894 35.2969C76.9141 34.7268 76.8496 33.9167 76.8496 33.4967C76.8496 33.0166 76.9249 32.5816 77.0647 32.2666C77.183 31.9965 77.2798 31.6815 77.2798 31.5915C77.2798 31.4865 77.3443 31.2915 77.4303 31.1715C77.5056 31.0515 77.8175 30.1814 78.6778 27.5711L78.4735 27.1661C78.3659 26.9261 78.2369 26.581 78.1939 26.371C78.1401 26.161 78.0433 25.5159 77.839 23.8958L78.1724 23.4758C78.366 23.2507 78.8284 22.9357 79.2155 22.7857L79.216 22.7855C79.6033 22.6355 80.3772 22.3356 80.9362 22.1106C81.4954 21.9006 82.4203 21.6306 82.9795 21.4956Z" fill="#221111"/>
<path fill-rule="evenodd" clip-rule="evenodd" d="M93.2497 20.7305C93.0132 20.8505 92.6045 21.2406 92.3464 21.5856C92.0883 21.9456 91.5506 22.8307 91.1527 23.5808C90.7548 24.3308 90.3246 25.0659 90.2063 25.2309C90.0342 25.4559 89.9375 25.4859 89.8407 25.3659C89.7654 25.2759 89.5933 25.1559 89.4643 25.0959C89.2814 25.0359 89.1739 25.0959 89.0664 25.3359C88.9803 25.5309 88.733 26.7611 88.5179 28.0812C88.2921 29.4013 88.0662 30.8564 88.0125 31.3065C87.9587 31.7565 87.8942 32.3266 87.8727 32.5816C87.8511 32.8366 87.7651 33.4367 87.6683 33.9317C87.5823 34.4268 87.4963 34.9968 87.4855 35.2068C87.464 35.4169 87.507 35.7169 87.5715 35.8819C87.6361 36.0469 87.7328 36.452 87.7759 36.782C87.8189 37.112 87.9587 37.5171 88.077 37.6821C88.206 37.8471 88.4211 38.0721 88.5717 38.1771C88.7975 38.3421 88.9051 38.3121 89.303 38.0571C89.6686 37.8171 89.8084 37.6071 90.0127 36.962C90.1525 36.542 90.2923 35.9569 90.3354 35.6869C90.3676 35.4319 90.4537 35.2068 90.5074 35.2068C90.5612 35.2068 90.7978 35.4319 91.0236 35.7169C91.2387 35.9869 91.6689 36.422 91.9592 36.677C92.2604 36.932 93.0562 37.442 93.7337 37.8021C94.4112 38.1621 95.3145 38.5822 95.7232 38.7322C96.1426 38.8672 96.7449 38.9722 97.0675 38.9722C97.4116 38.9722 97.7665 38.8672 97.9063 38.7322C98.0354 38.6122 98.1967 38.3571 98.272 38.1621C98.3365 37.9821 98.4118 37.5321 98.4333 37.157C98.4548 36.707 98.401 36.2719 98.2504 35.8369C98.0461 35.2518 98.0031 35.2068 97.5299 35.1318C97.2395 35.0868 96.4545 34.8768 95.777 34.6668C95.0995 34.4418 94.3252 34.1267 94.0563 33.9467C93.7875 33.7517 93.368 33.4217 93.1207 33.2117C92.8626 32.9866 92.6583 32.7466 92.6583 32.6566C92.6583 32.5666 92.8411 32.4166 93.0669 32.2966C93.282 32.1916 93.7552 31.9815 94.1101 31.8315C94.465 31.6965 95.0457 31.3965 95.4006 31.1715C95.7555 30.9464 96.3039 30.4364 96.6158 30.0314C96.9492 29.5963 97.2288 29.0563 97.3041 28.7562C97.3686 28.4712 97.4224 27.9312 97.4116 27.5561C97.4116 27.1661 97.2718 26.386 97.0675 25.681C96.8847 25.0209 96.5943 24.1358 96.4437 23.7308C96.2824 23.3107 96.0566 22.8757 95.9383 22.7557C95.82 22.6357 95.6264 22.3657 95.5081 22.1856C95.3898 21.9906 94.9919 21.5256 94.6263 21.1655C94.2499 20.8055 93.8842 20.5055 93.8197 20.5055C93.7444 20.5205 93.4863 20.6105 93.2497 20.7305ZM91.7226 28.3812C91.7549 28.1262 92.0991 27.4211 92.54 26.6861C92.9594 26.011 93.3788 25.4559 93.4541 25.4559C93.5401 25.4559 93.7444 25.621 93.9165 25.801C94.0778 25.996 94.2606 26.371 94.3144 26.626C94.3789 26.8811 94.422 27.1961 94.422 27.3311C94.422 27.4961 94.1639 27.7211 93.6692 28.0212C93.2605 28.2612 92.6475 28.5612 92.3249 28.6812C92.0023 28.8013 91.7227 28.8763 91.7011 28.8613C91.6796 28.8463 91.6904 28.6362 91.7226 28.3812Z" fill="#221111"/>
<path fill-rule="evenodd" clip-rule="evenodd" d="M101.853 21.0905C102.445 20.9105 103.359 20.7155 103.896 20.6555C104.434 20.5955 105.133 20.5655 105.456 20.5955C105.778 20.6255 106.273 20.7005 106.542 20.7605C106.822 20.8205 107.166 21.0305 107.295 21.2105C107.435 21.4056 107.607 21.5556 107.66 21.5556C107.714 21.5556 108.015 21.9006 108.316 22.3357C108.617 22.7707 108.929 23.3707 108.994 23.6558C109.058 23.9408 109.112 24.3458 109.112 24.5559C109.112 24.7659 108.994 25.2609 108.843 25.681C108.704 26.086 108.23 26.9411 107.037 28.6812L107.607 29.3563C107.929 29.7313 108.392 30.3164 108.65 30.6614C108.908 31.0215 109.22 31.5915 109.338 31.9365C109.467 32.2966 109.596 32.9116 109.618 33.3317C109.65 34.0217 109.618 34.1417 109.187 34.9068C108.8 35.5969 108.542 35.8669 107.553 36.587C106.897 37.052 106.004 37.5771 105.563 37.7421C105.122 37.9071 104.563 38.1471 104.327 38.2821C104.09 38.4321 103.585 38.5672 103.197 38.5972C102.606 38.6572 102.423 38.5972 101.53 37.8921L101.294 38.2821C101.122 38.5522 100.95 38.6422 100.735 38.6122C100.563 38.5972 100.261 38.3721 100.057 38.1171C99.8636 37.8471 99.6485 37.5471 99.5947 37.442C99.5409 37.322 99.4119 36.992 99.3151 36.707C99.2076 36.407 99.1538 35.9869 99.1861 35.7319C99.2183 35.4769 99.2936 35.1918 99.3366 35.0868C99.3904 34.9968 99.4119 34.8168 99.3904 34.7118C99.3689 34.6218 99.4442 34.1417 99.5517 33.6617C99.6592 33.1967 99.8206 32.6566 99.9066 32.4766C99.9926 32.2816 100.218 31.2165 100.401 30.1064C100.595 28.9963 100.842 27.7211 100.95 27.3011C101.057 26.8661 101.154 26.311 101.154 26.056C101.154 25.801 101.133 25.606 101.1 25.606C101.068 25.606 100.961 25.666 100.864 25.741C100.756 25.801 100.638 26.041 100.595 26.266C100.53 26.551 100.412 26.6861 100.165 26.7461C99.8958 26.8211 99.6915 26.7611 99.3259 26.476C99.057 26.266 98.6806 25.831 98.487 25.5159C98.2935 25.2009 98.0676 24.7059 97.9816 24.4508C97.8418 24.0158 97.8418 23.9108 97.9816 23.5058C98.0676 23.2507 98.3257 22.8757 98.5516 22.6357C98.7666 22.4107 99.3581 22.0356 99.8636 21.8106C100.369 21.5856 101.262 21.2706 101.853 21.0905ZM104.058 31.0515L103.154 31.3815C102.477 33.9917 102.316 34.8018 102.359 34.8618C102.402 34.9368 102.67 34.9068 102.95 34.8018C103.23 34.7118 104.058 34.2618 104.8 33.8267C105.778 33.2267 106.284 32.8366 106.66 32.3416C106.94 31.9815 107.166 31.6215 107.166 31.5315C107.166 31.4415 106.983 31.2615 106.768 31.1115C106.542 30.9464 106.047 30.7964 105.66 30.7664C105.165 30.7214 104.703 30.7964 104.058 31.0515ZM103.154 24.5409C103.563 24.3608 104.101 24.1658 104.37 24.1058C104.638 24.0458 105.079 23.9858 105.37 23.9708C105.649 23.9708 105.875 24.0308 105.875 24.1058C105.875 24.1808 105.596 24.6159 105.251 25.0359C104.907 25.4709 104.38 26.011 103.509 26.6561L103.165 26.161C102.972 25.891 102.692 25.576 102.552 25.4559C102.402 25.3209 102.316 25.1559 102.359 25.0509C102.402 24.9459 102.756 24.7059 103.154 24.5409Z" fill="#221111"/>
<path d="M116.457 22.3207C117.016 21.5256 117.543 20.9255 117.877 20.7155C118.178 20.5205 118.501 20.3555 118.608 20.3555C118.705 20.3555 118.791 20.4455 118.791 20.5505C118.791 20.6405 118.92 20.9105 119.081 21.1205C119.253 21.3306 119.501 21.6006 119.651 21.7356C119.802 21.8556 119.952 22.1556 119.985 22.3957C120.017 22.6357 119.995 22.9957 119.942 23.2057C119.888 23.4158 119.415 24.1808 118.888 24.9309C118.361 25.681 117.92 26.401 117.931 26.551C117.931 26.6861 117.845 26.8211 117.748 26.8511C117.64 26.8811 117.318 27.4061 117.038 28.0212C116.758 28.6362 116.199 29.8964 115.801 30.8264C115.403 31.7565 114.973 32.7766 114.844 33.0766C114.715 33.3767 114.479 34.0067 114.328 34.4568C114.167 34.9068 113.941 35.4769 113.812 35.7319C113.683 35.9869 113.425 36.617 113.242 37.157C113.059 37.6971 112.769 38.3271 112.597 38.5522C112.338 38.9122 112.22 38.9722 111.908 38.8972C111.704 38.8522 111.36 38.6572 111.155 38.4771C110.951 38.2821 110.672 37.8321 110.295 36.782L110.499 35.8069C110.618 35.2668 110.79 34.7268 110.887 34.6068C110.983 34.4868 111.059 34.3218 111.048 34.2318C111.048 34.1417 111.338 33.3617 111.693 32.4766C112.048 31.5765 112.338 30.7664 112.338 30.6764C112.338 30.5714 112.22 30.3164 112.07 30.1064C111.919 29.8964 111.672 29.2963 111.521 28.7562C111.371 28.2162 111.145 27.1061 111.026 26.281C110.908 25.4559 110.801 24.4808 110.779 24.1058C110.768 23.7308 110.725 22.9957 110.672 22.4557C110.607 21.5856 110.618 21.4356 110.822 21.0755C110.951 20.8355 111.145 20.6555 111.263 20.6555C111.381 20.6555 111.768 20.8505 112.123 21.1055C112.478 21.3606 112.908 21.7806 113.091 22.0356C113.274 22.3207 113.414 22.6957 113.414 22.9057C113.414 23.1157 113.457 23.4758 113.511 23.7308C113.564 23.9858 113.672 24.6159 113.758 25.1409C113.833 25.681 113.952 26.221 114.016 26.341C114.113 26.536 114.22 26.416 114.661 25.606C114.952 25.0659 115.274 24.3908 115.382 24.1058C115.489 23.8208 115.973 23.0107 116.457 22.3207Z" stroke="#F7FEFF" stroke-width="2.71789" mask="url(#path-8-outside-2_81_17924)"/>
<path d="M82.9795 21.4956C83.5387 21.3756 84.4098 21.1655 84.9152 21.0605C85.4207 20.9405 85.9261 20.8805 86.0444 20.9255C86.1627 20.9705 86.3778 21.0005 86.5284 20.9855C86.6789 20.9855 86.937 21.1655 87.1199 21.3906C87.3027 21.6306 87.55 21.8556 87.6898 21.9156C87.8834 22.0056 87.9264 22.1256 87.9264 22.6207C87.9264 23.1157 87.8511 23.3257 87.5285 23.7908C87.2812 24.1358 86.9048 24.4658 86.5821 24.6159C86.2918 24.7509 85.582 24.9609 85.0228 25.0959C84.4636 25.2309 83.8076 25.4559 83.571 25.606C83.3344 25.756 82.9042 25.921 82.6031 25.981C82.3127 26.041 81.9041 26.176 81.7105 26.266C81.3986 26.416 81.3556 26.506 81.4201 27.3461L83.0655 27.3161C84.313 27.2861 84.7002 27.3161 84.7002 27.4661C84.7002 27.5561 84.8507 27.8562 85.0443 28.1262C85.2379 28.3812 85.5282 28.6812 85.7003 28.7562C85.9154 28.8763 85.9907 29.0263 85.9907 29.3413C86.0014 29.6713 85.8831 29.8513 85.3239 30.3764C84.9475 30.7214 84.4528 31.1265 84.2162 31.2615C83.8721 31.4715 83.4634 31.5315 80.6028 31.5465L80.3125 32.2216C80.1512 32.5966 79.9361 33.1517 79.8285 33.4667C79.7317 33.7667 79.678 34.0517 79.7317 34.0967C79.7748 34.1417 80.2157 34.1717 80.7211 34.1717C81.2266 34.1717 82.1729 34.0667 82.8182 33.9467C83.4742 33.8417 84.3668 33.6317 85.6143 33.2567L85.9907 33.7817C86.195 34.0817 86.4208 34.3218 86.4746 34.3218C86.5391 34.3218 86.6682 34.5768 86.765 34.8768C86.9478 35.4469 86.9478 35.4469 86.6252 36.0919C86.4531 36.437 86.109 36.887 85.8616 37.082C85.6035 37.277 85.0335 37.5621 84.5926 37.6971C84.1517 37.8321 83.3021 38.0121 82.7106 38.0871C82.1192 38.1771 81.1728 38.2821 80.6136 38.3271C79.9898 38.3721 79.3661 38.3421 79.0005 38.2371C78.6778 38.1321 78.2477 37.9371 78.0433 37.8021C77.839 37.6671 77.5486 37.277 77.4088 36.947C77.2583 36.617 77.0754 35.8669 76.9894 35.2969C76.9141 34.7268 76.8496 33.9167 76.8496 33.4967C76.8496 33.0166 76.9249 32.5816 77.0647 32.2666C77.183 31.9965 77.2798 31.6815 77.2798 31.5915C77.2798 31.4865 77.3443 31.2915 77.4303 31.1715C77.5056 31.0515 77.8175 30.1814 78.6778 27.5711L78.4735 27.1661C78.3659 26.9261 78.2369 26.581 78.1939 26.371C78.1401 26.161 78.0433 25.5159 77.839 23.8958L78.1724 23.4758C78.366 23.2507 78.8284 22.9357 79.2155 22.7857L79.216 22.7855C79.6033 22.6355 80.3772 22.3356 80.9362 22.1106C81.4954 21.9006 82.4203 21.6306 82.9795 21.4956Z" stroke="#F7FEFF" stroke-width="2.71789" mask="url(#path-8-outside-2_81_17924)"/>
<path fill-rule="evenodd" clip-rule="evenodd" d="M93.2497 20.7305C93.0132 20.8505 92.6045 21.2406 92.3464 21.5856C92.0883 21.9456 91.5506 22.8307 91.1527 23.5808C90.7548 24.3308 90.3246 25.0659 90.2063 25.2309C90.0342 25.4559 89.9375 25.4859 89.8407 25.3659C89.7654 25.2759 89.5933 25.1559 89.4643 25.0959C89.2814 25.0359 89.1739 25.0959 89.0664 25.3359C88.9803 25.5309 88.733 26.7611 88.5179 28.0812C88.2921 29.4013 88.0662 30.8564 88.0125 31.3065C87.9587 31.7565 87.8942 32.3266 87.8727 32.5816C87.8511 32.8366 87.7651 33.4367 87.6683 33.9317C87.5823 34.4268 87.4963 34.9968 87.4855 35.2068C87.464 35.4169 87.507 35.7169 87.5715 35.8819C87.6361 36.0469 87.7328 36.452 87.7759 36.782C87.8189 37.112 87.9587 37.5171 88.077 37.6821C88.206 37.8471 88.4211 38.0721 88.5717 38.1771C88.7975 38.3421 88.9051 38.3121 89.303 38.0571C89.6686 37.8171 89.8084 37.6071 90.0127 36.962C90.1525 36.542 90.2923 35.9569 90.3354 35.6869C90.3676 35.4319 90.4537 35.2068 90.5074 35.2068C90.5612 35.2068 90.7978 35.4319 91.0236 35.7169C91.2387 35.9869 91.6689 36.422 91.9592 36.677C92.2604 36.932 93.0562 37.442 93.7337 37.8021C94.4112 38.1621 95.3145 38.5822 95.7232 38.7322C96.1426 38.8672 96.7449 38.9722 97.0675 38.9722C97.4116 38.9722 97.7665 38.8672 97.9063 38.7322C98.0354 38.6122 98.1967 38.3571 98.272 38.1621C98.3365 37.9821 98.4118 37.5321 98.4333 37.157C98.4548 36.707 98.401 36.2719 98.2504 35.8369C98.0461 35.2518 98.0031 35.2068 97.5299 35.1318C97.2395 35.0868 96.4545 34.8768 95.777 34.6668C95.0995 34.4418 94.3252 34.1267 94.0563 33.9467C93.7875 33.7517 93.368 33.4217 93.1207 33.2117C92.8626 32.9866 92.6583 32.7466 92.6583 32.6566C92.6583 32.5666 92.8411 32.4166 93.0669 32.2966C93.282 32.1916 93.7552 31.9815 94.1101 31.8315C94.465 31.6965 95.0457 31.3965 95.4006 31.1715C95.7555 30.9464 96.3039 30.4364 96.6158 30.0314C96.9492 29.5963 97.2288 29.0563 97.3041 28.7562C97.3686 28.4712 97.4224 27.9312 97.4116 27.5561C97.4116 27.1661 97.2718 26.386 97.0675 25.681C96.8847 25.0209 96.5943 24.1358 96.4437 23.7308C96.2824 23.3107 96.0566 22.8757 95.9383 22.7557C95.82 22.6357 95.6264 22.3657 95.5081 22.1856C95.3898 21.9906 94.9919 21.5256 94.6263 21.1655C94.2499 20.8055 93.8842 20.5055 93.8197 20.5055C93.7444 20.5205 93.4863 20.6105 93.2497 20.7305ZM91.7226 28.3812C91.7549 28.1262 92.0991 27.4211 92.54 26.6861C92.9594 26.011 93.3788 25.4559 93.4541 25.4559C93.5401 25.4559 93.7444 25.621 93.9165 25.801C94.0778 25.996 94.2606 26.371 94.3144 26.626C94.3789 26.8811 94.422 27.1961 94.422 27.3311C94.422 27.4961 94.1639 27.7211 93.6692 28.0212C93.2605 28.2612 92.6475 28.5612 92.3249 28.6812C92.0023 28.8013 91.7227 28.8763 91.7011 28.8613C91.6796 28.8463 91.6904 28.6362 91.7226 28.3812Z" stroke="#F7FEFF" stroke-width="2.71789" mask="url(#path-8-outside-2_81_17924)"/>
<path fill-rule="evenodd" clip-rule="evenodd" d="M101.853 21.0905C102.445 20.9105 103.359 20.7155 103.896 20.6555C104.434 20.5955 105.133 20.5655 105.456 20.5955C105.778 20.6255 106.273 20.7005 106.542 20.7605C106.822 20.8205 107.166 21.0305 107.295 21.2105C107.435 21.4056 107.607 21.5556 107.66 21.5556C107.714 21.5556 108.015 21.9006 108.316 22.3357C108.617 22.7707 108.929 23.3707 108.994 23.6558C109.058 23.9408 109.112 24.3458 109.112 24.5559C109.112 24.7659 108.994 25.2609 108.843 25.681C108.704 26.086 108.23 26.9411 107.037 28.6812L107.607 29.3563C107.929 29.7313 108.392 30.3164 108.65 30.6614C108.908 31.0215 109.22 31.5915 109.338 31.9365C109.467 32.2966 109.596 32.9116 109.618 33.3317C109.65 34.0217 109.618 34.1417 109.187 34.9068C108.8 35.5969 108.542 35.8669 107.553 36.587C106.897 37.052 106.004 37.5771 105.563 37.7421C105.122 37.9071 104.563 38.1471 104.327 38.2821C104.09 38.4321 103.585 38.5672 103.197 38.5972C102.606 38.6572 102.423 38.5972 101.53 37.8921L101.294 38.2821C101.122 38.5522 100.95 38.6422 100.735 38.6122C100.563 38.5972 100.261 38.3721 100.057 38.1171C99.8636 37.8471 99.6485 37.5471 99.5947 37.442C99.5409 37.322 99.4119 36.992 99.3151 36.707C99.2076 36.407 99.1538 35.9869 99.1861 35.7319C99.2183 35.4769 99.2936 35.1918 99.3366 35.0868C99.3904 34.9968 99.4119 34.8168 99.3904 34.7118C99.3689 34.6218 99.4442 34.1417 99.5517 33.6617C99.6592 33.1967 99.8206 32.6566 99.9066 32.4766C99.9926 32.2816 100.218 31.2165 100.401 30.1064C100.595 28.9963 100.842 27.7211 100.95 27.3011C101.057 26.8661 101.154 26.311 101.154 26.056C101.154 25.801 101.133 25.606 101.1 25.606C101.068 25.606 100.961 25.666 100.864 25.741C100.756 25.801 100.638 26.041 100.595 26.266C100.53 26.551 100.412 26.6861 100.165 26.7461C99.8958 26.8211 99.6915 26.7611 99.3259 26.476C99.057 26.266 98.6806 25.831 98.487 25.5159C98.2935 25.2009 98.0676 24.7059 97.9816 24.4508C97.8418 24.0158 97.8418 23.9108 97.9816 23.5058C98.0676 23.2507 98.3257 22.8757 98.5516 22.6357C98.7666 22.4107 99.3581 22.0356 99.8636 21.8106C100.369 21.5856 101.262 21.2706 101.853 21.0905ZM104.058 31.0515L103.154 31.3815C102.477 33.9917 102.316 34.8018 102.359 34.8618C102.402 34.9368 102.67 34.9068 102.95 34.8018C103.23 34.7118 104.058 34.2618 104.8 33.8267C105.778 33.2267 106.284 32.8366 106.66 32.3416C106.94 31.9815 107.166 31.6215 107.166 31.5315C107.166 31.4415 106.983 31.2615 106.768 31.1115C106.542 30.9464 106.047 30.7964 105.66 30.7664C105.165 30.7214 104.703 30.7964 104.058 31.0515ZM103.154 24.5409C103.563 24.3608 104.101 24.1658 104.37 24.1058C104.638 24.0458 105.079 23.9858 105.37 23.9708C105.649 23.9708 105.875 24.0308 105.875 24.1058C105.875 24.1808 105.596 24.6159 105.251 25.0359C104.907 25.4709 104.38 26.011 103.509 26.6561L103.165 26.161C102.972 25.891 102.692 25.576 102.552 25.4559C102.402 25.3209 102.316 25.1559 102.359 25.0509C102.402 24.9459 102.756 24.7059 103.154 24.5409Z" stroke="#F7FEFF" stroke-width="2.71789" mask="url(#path-8-outside-2_81_17924)"/>
</g>
<defs>
<filter id="filter0_d_81_17924" x="0.641113" y="0" width="124.718" height="66" filterUnits="userSpaceOnUse" color-interpolation-filters="sRGB">
<feFlood flood-opacity="0" result="BackgroundImageFix"/>
<feColorMatrix in="SourceAlpha" type="matrix" values="0 0 0 0 0 0 0 0 0 0 0 0 0 0 0 0 0 0 127 0" result="hardAlpha"/>
<feOffset dy="4"/>
<feGaussianBlur stdDeviation="2"/>
<feComposite in2="hardAlpha" operator="out"/>
<feColorMatrix type="matrix" values="0 0 0 0 0 0 0 0 0 0 0 0 0 0 0 0 0 0 0.25 0"/>
<feBlend mode="normal" in2="BackgroundImageFix" result="effect1_dropShadow_81_17924"/>
<feBlend mode="normal" in="SourceGraphic" in2="effect1_dropShadow_81_17924" result="shape"/>
</filter>
</defs>
</svg>
