<svg width="67" height="42" viewBox="0 0 67 42" fill="none" xmlns="http://www.w3.org/2000/svg">
<path d="M33.5298 22.0406C33.5298 14.0969 39.9789 7.65848 47.9358 7.65848C53.1608 7.65848 57.3557 10.4455 59.5502 14.6185L65.1931 12.994C61.879 6.49599 55.833 2.08449 47.9358 2.08449C40.0387 2.08449 32.6491 7.04743 29.5887 14.1416L33.5597 22.5771C33.5597 22.3983 33.5298 22.2194 33.5298 22.0406Z" fill="white"/>
<path d="M47.9363 36.4246C44.249 36.4246 40.8901 35.0236 38.3373 32.7434L42.3083 41.164C44.0997 41.6856 45.9807 41.9837 47.9363 41.9837C56.8187 41.9837 63.7306 36.201 66.1042 28.2126H60.312C58.3862 33.0265 54.0271 36.4246 47.9363 36.4246Z" fill="white"/>
<path d="M66.8806 20.2383L46.548 20.1787V25.7527H66.6865C66.8955 24.5455 67 23.3085 67 22.0417C67 21.4008 66.9403 20.7599 66.8806 20.2383Z" fill="white"/>
<path d="M23.542 42H29.5731L19.153 19.6891L16.1823 26.2468L23.542 42Z" fill="white"/>
<path d="M28.7821 33.2055H28.797L32.768 41.9987H39.1275L19.5712 0L0 41.9987H6.35953L10.3305 33.2055H10.3604L14.8389 23.3243L19.5712 12.9364L28.7821 33.2055Z" fill="white"/>
</svg>
