<svg width="832" height="523" viewBox="0 0 832 523" fill="none" xmlns="http://www.w3.org/2000/svg">
<path d="M416.05 273.942C416.05 175.21 496.073 95.1871 594.805 95.1871C659.638 95.1871 711.69 129.827 738.92 181.693L808.94 161.502C767.817 80.7386 692.795 25.9082 594.805 25.9082C496.814 25.9082 405.121 87.5924 367.147 175.766L416.421 280.61C416.421 278.387 416.05 276.164 416.05 273.942Z" fill="white"/>
<path d="M594.811 452.72C549.057 452.72 507.378 435.307 475.703 406.966L524.976 511.625C547.204 518.109 570.544 521.813 594.811 521.813C705.027 521.813 790.792 449.941 820.245 350.654H748.373C724.477 410.486 670.388 452.72 594.811 452.72Z" fill="white"/>
<path d="M829.878 251.541L577.584 250.8V320.079H827.47C830.063 305.075 831.36 289.7 831.36 273.955C831.36 265.99 830.619 258.025 829.878 251.541Z" fill="white"/>
<path d="M292.118 522.016H366.954L237.658 244.715L200.795 326.219L292.118 522.016Z" fill="white"/>
<path d="M357.138 412.71H357.324L406.597 522H485.508L242.847 0L183.571 127.444L146.153 207.837L0 522H78.9113L128.185 412.71H128.555L184.126 289.897L221.174 208.392L242.847 160.786L357.138 412.71Z" fill="white"/>
</svg>
