<svg width="212" height="86" viewBox="0 0 212 86" fill="none" xmlns="http://www.w3.org/2000/svg">
<path d="M44.3524 8.71467C44.3524 13.401 38.6042 16.2827 31.5135 16.2827C24.4228 16.2827 18.6747 13.401 18.6747 8.71467C18.6747 4.02835 24.4228 1.14667 31.5135 1.14667C38.6042 1.14667 44.3524 4.02835 44.3524 8.71467Z" fill="white"/>
<path d="M55.4191 30.9237C56.9738 38.1093 47.4365 44.548 33.6911 47.4184C19.9457 50.2887 8.79563 48.17 7.24098 40.9845C5.68633 33.7989 14.8982 26.9592 28.6436 24.0889C42.389 21.2185 53.8645 23.7382 55.4191 30.9237Z" fill="white"/>
<path d="M63.027 70.9302C63.027 80.3954 49.346 86 31.3642 86C13.3823 86 0 80.3954 0 70.9302C0 61.465 13.3823 55.2693 31.3642 55.2693C49.346 55.2693 63.027 61.465 63.027 70.9302Z" fill="white"/>
<path d="M85.5743 22.24C84.2463 22.24 83.1183 22 82.1903 21.52C81.2623 21.04 80.4303 20.336 79.6943 19.408L81.5663 17.536C82.0303 18.208 82.5823 18.736 83.2223 19.12C83.8623 19.488 84.6783 19.672 85.6703 19.672C86.5983 19.672 87.3343 19.48 87.8783 19.096C88.4383 18.712 88.7183 18.184 88.7183 17.512C88.7183 16.952 88.5743 16.496 88.2863 16.144C87.9983 15.792 87.6143 15.504 87.1343 15.28C86.6703 15.04 86.1503 14.832 85.5743 14.656C85.0143 14.464 84.4463 14.256 83.8703 14.032C83.3103 13.792 82.7903 13.496 82.3103 13.144C81.8463 12.792 81.4703 12.336 81.1823 11.776C80.8943 11.216 80.7503 10.504 80.7503 9.64C80.7503 8.648 80.9903 7.808 81.4703 7.12C81.9663 6.416 82.6303 5.88 83.4623 5.512C84.2943 5.144 85.2223 4.96 86.2463 4.96C87.3503 4.96 88.3343 5.176 89.1983 5.608C90.0783 6.04 90.7903 6.592 91.3343 7.264L89.4623 9.136C88.9823 8.592 88.4783 8.192 87.9503 7.936C87.4383 7.664 86.8463 7.528 86.1743 7.528C85.3423 7.528 84.6863 7.696 84.2063 8.032C83.7423 8.368 83.5103 8.84 83.5103 9.448C83.5103 9.96 83.6543 10.376 83.9423 10.696C84.2303 11 84.6063 11.264 85.0703 11.488C85.5503 11.696 86.0703 11.896 86.6303 12.088C87.2063 12.28 87.7743 12.496 88.3343 12.736C88.9103 12.976 89.4303 13.288 89.8943 13.672C90.3743 14.04 90.7583 14.52 91.0463 15.112C91.3343 15.704 91.4783 16.448 91.4783 17.344C91.4783 18.848 90.9423 20.04 89.8703 20.92C88.8143 21.8 87.3823 22.24 85.5743 22.24ZM98.5536 22.24C97.5136 22.24 96.5696 21.976 95.7216 21.448C94.8896 20.92 94.2256 20.208 93.7296 19.312C93.2496 18.4 93.0096 17.384 93.0096 16.264C93.0096 15.128 93.2496 14.112 93.7296 13.216C94.2256 12.304 94.8896 11.584 95.7216 11.056C96.5696 10.512 97.5136 10.24 98.5536 10.24C99.4336 10.24 100.21 10.432 100.882 10.816C101.57 11.184 102.114 11.696 102.514 12.352C102.914 13.008 103.114 13.752 103.114 14.584V17.896C103.114 18.728 102.914 19.472 102.514 20.128C102.13 20.784 101.594 21.304 100.906 21.688C100.218 22.056 99.4336 22.24 98.5536 22.24ZM98.9856 19.744C99.9616 19.744 100.746 19.416 101.338 18.76C101.946 18.104 102.25 17.264 102.25 16.24C102.25 15.552 102.114 14.944 101.842 14.416C101.57 13.888 101.186 13.48 100.69 13.192C100.21 12.888 99.6416 12.736 98.9856 12.736C98.3456 12.736 97.7776 12.888 97.2816 13.192C96.8016 13.48 96.4176 13.888 96.1296 14.416C95.8576 14.944 95.7216 15.552 95.7216 16.24C95.7216 16.928 95.8576 17.536 96.1296 18.064C96.4176 18.592 96.8016 19.008 97.2816 19.312C97.7776 19.6 98.3456 19.744 98.9856 19.744ZM102.082 22V18.904L102.538 16.096L102.082 13.312V10.48H104.722V22H102.082ZM115.548 22V15.352C115.548 14.584 115.3 13.952 114.804 13.456C114.324 12.96 113.7 12.712 112.932 12.712C112.42 12.712 111.964 12.824 111.564 13.048C111.164 13.272 110.852 13.584 110.628 13.984C110.404 14.384 110.292 14.84 110.292 15.352L109.26 14.776C109.26 13.896 109.452 13.12 109.836 12.448C110.22 11.76 110.748 11.224 111.42 10.84C112.108 10.44 112.876 10.24 113.724 10.24C114.588 10.24 115.356 10.464 116.028 10.912C116.7 11.344 117.228 11.912 117.612 12.616C117.996 13.304 118.188 14.024 118.188 14.776V22H115.548ZM107.652 22V10.48H110.292V22H107.652ZM122.482 22V5.68H125.122V22H122.482ZM119.722 12.88V10.48H127.882V12.88H119.722ZM134.528 22.24C133.552 22.24 132.68 22.024 131.912 21.592C131.16 21.16 130.568 20.568 130.136 19.816C129.72 19.048 129.512 18.168 129.512 17.176V10.48H132.152V17.056C132.152 17.616 132.24 18.096 132.416 18.496C132.608 18.88 132.88 19.176 133.232 19.384C133.6 19.592 134.032 19.696 134.528 19.696C135.296 19.696 135.88 19.472 136.28 19.024C136.696 18.56 136.904 17.904 136.904 17.056V10.48H139.544V17.176C139.544 18.184 139.328 19.072 138.896 19.84C138.48 20.592 137.896 21.184 137.144 21.616C136.392 22.032 135.52 22.24 134.528 22.24ZM142.198 22V4.72H144.838V22H142.198ZM152.601 22.24C151.561 22.24 150.617 21.976 149.769 21.448C148.937 20.92 148.273 20.208 147.777 19.312C147.297 18.4 147.057 17.384 147.057 16.264C147.057 15.128 147.297 14.112 147.777 13.216C148.273 12.304 148.937 11.584 149.769 11.056C150.617 10.512 151.561 10.24 152.601 10.24C153.481 10.24 154.257 10.432 154.929 10.816C155.617 11.184 156.161 11.696 156.561 12.352C156.961 13.008 157.161 13.752 157.161 14.584V17.896C157.161 18.728 156.961 19.472 156.561 20.128C156.177 20.784 155.641 21.304 154.953 21.688C154.265 22.056 153.481 22.24 152.601 22.24ZM153.033 19.744C154.009 19.744 154.793 19.416 155.385 18.76C155.993 18.104 156.297 17.264 156.297 16.24C156.297 15.552 156.161 14.944 155.889 14.416C155.617 13.888 155.233 13.48 154.737 13.192C154.257 12.888 153.689 12.736 153.033 12.736C152.393 12.736 151.825 12.888 151.329 13.192C150.849 13.48 150.465 13.888 150.177 14.416C149.905 14.944 149.769 15.552 149.769 16.24C149.769 16.928 149.905 17.536 150.177 18.064C150.465 18.592 150.849 19.008 151.329 19.312C151.825 19.6 152.393 19.744 153.033 19.744ZM156.129 22V18.904L156.585 16.096L156.129 13.312V10.48H158.769V22H156.129ZM169.594 22V15.352C169.594 14.584 169.346 13.952 168.85 13.456C168.37 12.96 167.746 12.712 166.978 12.712C166.466 12.712 166.01 12.824 165.61 13.048C165.21 13.272 164.898 13.584 164.674 13.984C164.45 14.384 164.338 14.84 164.338 15.352L163.306 14.776C163.306 13.896 163.498 13.12 163.882 12.448C164.266 11.76 164.794 11.224 165.466 10.84C166.154 10.44 166.922 10.24 167.77 10.24C168.634 10.24 169.402 10.464 170.074 10.912C170.746 11.344 171.274 11.912 171.658 12.616C172.042 13.304 172.234 14.024 172.234 14.776V22H169.594ZM161.698 22V10.48H164.338V22H161.698ZM82.7903 42.664V40.264H86.9903C87.5663 40.264 88.0703 40.152 88.5023 39.928C88.9503 39.688 89.3023 39.36 89.5583 38.944C89.8143 38.512 89.9423 38.008 89.9423 37.432C89.9423 36.856 89.8143 36.36 89.5583 35.944C89.3023 35.512 88.9503 35.184 88.5023 34.96C88.0703 34.72 87.5663 34.6 86.9903 34.6H82.7903V32.2H87.1343C88.1903 32.2 89.1343 32.416 89.9663 32.848C90.8143 33.28 91.4783 33.888 91.9583 34.672C92.4543 35.456 92.7023 36.376 92.7023 37.432C92.7023 38.488 92.4543 39.408 91.9583 40.192C91.4783 40.976 90.8143 41.584 89.9663 42.016C89.1343 42.448 88.1903 42.664 87.1343 42.664H82.7903ZM80.8943 49V32.2H83.6543V49H80.8943ZM99.7128 49.24C98.5928 49.24 97.5768 48.976 96.6648 48.448C95.7528 47.904 95.0248 47.176 94.4808 46.264C93.9528 45.352 93.6888 44.336 93.6888 43.216C93.6888 42.096 93.9528 41.088 94.4808 40.192C95.0248 39.296 95.7528 38.584 96.6648 38.056C97.5768 37.512 98.5928 37.24 99.7128 37.24C100.849 37.24 101.873 37.504 102.785 38.032C103.697 38.56 104.417 39.28 104.945 40.192C105.489 41.088 105.761 42.096 105.761 43.216C105.761 44.336 105.489 45.352 104.945 46.264C104.417 47.176 103.697 47.904 102.785 48.448C101.873 48.976 100.849 49.24 99.7128 49.24ZM99.7128 46.696C100.369 46.696 100.945 46.552 101.441 46.264C101.953 45.96 102.345 45.544 102.617 45.016C102.905 44.488 103.049 43.888 103.049 43.216C103.049 42.544 102.905 41.952 102.617 41.44C102.329 40.928 101.937 40.528 101.441 40.24C100.945 39.936 100.369 39.784 99.7128 39.784C99.0728 39.784 98.4968 39.936 97.9848 40.24C97.4888 40.528 97.0968 40.928 96.8088 41.44C96.5368 41.952 96.4008 42.544 96.4008 43.216C96.4008 43.888 96.5368 44.488 96.8088 45.016C97.0968 45.544 97.4888 45.96 97.9848 46.264C98.4968 46.552 99.0728 46.696 99.7128 46.696ZM111.035 49L106.403 37.48H109.139L112.259 45.856L111.443 45.88L114.491 37.48H116.027L119.075 45.88L118.259 45.856L121.379 37.48H124.115L119.483 49H117.947L114.827 41.032H115.691L112.571 49H111.035ZM130.839 49.24C129.687 49.24 128.647 48.984 127.719 48.472C126.807 47.944 126.079 47.224 125.535 46.312C125.007 45.4 124.743 44.376 124.743 43.24C124.743 42.104 125.007 41.088 125.535 40.192C126.063 39.28 126.775 38.56 127.671 38.032C128.583 37.504 129.591 37.24 130.695 37.24C131.767 37.24 132.711 37.488 133.527 37.984C134.359 38.48 135.007 39.16 135.471 40.024C135.951 40.888 136.191 41.872 136.191 42.976C136.191 43.168 136.175 43.368 136.143 43.576C136.127 43.768 136.095 43.984 136.047 44.224H126.591V42.064H134.679L133.695 42.928C133.663 42.224 133.527 41.632 133.287 41.152C133.047 40.672 132.703 40.304 132.255 40.048C131.823 39.792 131.287 39.664 130.647 39.664C129.975 39.664 129.391 39.808 128.895 40.096C128.399 40.384 128.015 40.792 127.743 41.32C127.471 41.832 127.335 42.448 127.335 43.168C127.335 43.888 127.479 44.52 127.767 45.064C128.055 45.608 128.463 46.032 128.991 46.336C129.519 46.624 130.127 46.768 130.815 46.768C131.407 46.768 131.951 46.664 132.447 46.456C132.959 46.248 133.391 45.944 133.743 45.544L135.423 47.248C134.863 47.904 134.183 48.4 133.383 48.736C132.583 49.072 131.735 49.24 130.839 49.24ZM138.308 49V37.48H140.948V49H138.308ZM140.948 42.592L140.036 42.136C140.036 40.68 140.356 39.504 140.996 38.608C141.652 37.696 142.636 37.24 143.948 37.24C144.524 37.24 145.044 37.344 145.508 37.552C145.972 37.76 146.404 38.096 146.804 38.56L145.076 40.336C144.868 40.112 144.636 39.952 144.38 39.856C144.124 39.76 143.828 39.712 143.492 39.712C142.756 39.712 142.148 39.944 141.668 40.408C141.188 40.872 140.948 41.6 140.948 42.592ZM158.244 42.28L151.692 32.2H154.884L159.996 40.24H158.508L163.62 32.2H166.764L160.164 42.28H158.244ZM157.86 49V40.552H160.62V49H157.86ZM170.517 49.24C169.397 49.24 168.381 48.976 167.469 48.448C166.557 47.904 165.829 47.176 165.285 46.264C164.757 45.352 164.493 44.336 164.493 43.216C164.493 42.096 164.757 41.088 165.285 40.192C165.829 39.296 166.557 38.584 167.469 38.056C168.381 37.512 169.397 37.24 170.517 37.24C171.653 37.24 172.677 37.504 173.589 38.032C174.501 38.56 175.221 39.28 175.749 40.192C176.293 41.088 176.565 42.096 176.565 43.216C176.565 44.336 176.293 45.352 175.749 46.264C175.221 47.176 174.501 47.904 173.589 48.448C172.677 48.976 171.653 49.24 170.517 49.24ZM170.517 46.696C171.173 46.696 171.749 46.552 172.245 46.264C172.757 45.96 173.149 45.544 173.421 45.016C173.709 44.488 173.853 43.888 173.853 43.216C173.853 42.544 173.709 41.952 173.421 41.44C173.133 40.928 172.741 40.528 172.245 40.24C171.749 39.936 171.173 39.784 170.517 39.784C169.877 39.784 169.301 39.936 168.789 40.24C168.293 40.528 167.901 40.928 167.613 41.44C167.341 41.952 167.205 42.544 167.205 43.216C167.205 43.888 167.341 44.488 167.613 45.016C167.901 45.544 168.293 45.96 168.789 46.264C169.301 46.552 169.877 46.696 170.517 46.696ZM183.561 54.04C182.345 54.04 181.281 53.816 180.369 53.368C179.457 52.936 178.721 52.32 178.161 51.52L179.889 49.792C180.353 50.368 180.881 50.8 181.473 51.088C182.065 51.376 182.777 51.52 183.609 51.52C184.649 51.52 185.473 51.248 186.081 50.704C186.689 50.176 186.993 49.448 186.993 48.52V45.688L187.449 43.144L186.993 40.576V37.48H189.633V48.52C189.633 49.624 189.377 50.584 188.865 51.4C188.353 52.232 187.641 52.88 186.729 53.344C185.817 53.808 184.761 54.04 183.561 54.04ZM183.441 48.76C182.417 48.76 181.489 48.512 180.657 48.016C179.841 47.504 179.193 46.808 178.713 45.928C178.249 45.048 178.017 44.064 178.017 42.976C178.017 41.888 178.249 40.912 178.713 40.048C179.193 39.184 179.841 38.504 180.657 38.008C181.489 37.496 182.417 37.24 183.441 37.24C184.353 37.24 185.153 37.424 185.841 37.792C186.529 38.16 187.065 38.672 187.449 39.328C187.833 39.968 188.025 40.72 188.025 41.584V44.416C188.025 45.264 187.825 46.016 187.425 46.672C187.041 47.328 186.505 47.84 185.817 48.208C185.129 48.576 184.337 48.76 183.441 48.76ZM183.969 46.264C184.609 46.264 185.169 46.128 185.649 45.856C186.129 45.584 186.497 45.208 186.753 44.728C187.025 44.232 187.161 43.656 187.161 43C187.161 42.344 187.025 41.776 186.753 41.296C186.497 40.8 186.129 40.416 185.649 40.144C185.169 39.872 184.609 39.736 183.969 39.736C183.329 39.736 182.761 39.872 182.265 40.144C181.785 40.416 181.409 40.8 181.137 41.296C180.865 41.776 180.729 42.344 180.729 43C180.729 43.64 180.865 44.208 181.137 44.704C181.409 45.2 181.785 45.584 182.265 45.856C182.761 46.128 183.329 46.264 183.969 46.264ZM197.39 49.24C196.35 49.24 195.406 48.976 194.558 48.448C193.726 47.92 193.062 47.208 192.566 46.312C192.086 45.4 191.846 44.384 191.846 43.264C191.846 42.128 192.086 41.112 192.566 40.216C193.062 39.304 193.726 38.584 194.558 38.056C195.406 37.512 196.35 37.24 197.39 37.24C198.27 37.24 199.046 37.432 199.718 37.816C200.406 38.184 200.95 38.696 201.35 39.352C201.75 40.008 201.95 40.752 201.95 41.584V44.896C201.95 45.728 201.75 46.472 201.35 47.128C200.966 47.784 200.43 48.304 199.742 48.688C199.054 49.056 198.27 49.24 197.39 49.24ZM197.822 46.744C198.798 46.744 199.582 46.416 200.174 45.76C200.782 45.104 201.086 44.264 201.086 43.24C201.086 42.552 200.95 41.944 200.678 41.416C200.406 40.888 200.022 40.48 199.526 40.192C199.046 39.888 198.478 39.736 197.822 39.736C197.182 39.736 196.614 39.888 196.118 40.192C195.638 40.48 195.254 40.888 194.966 41.416C194.694 41.944 194.558 42.552 194.558 43.24C194.558 43.928 194.694 44.536 194.966 45.064C195.254 45.592 195.638 46.008 196.118 46.312C196.614 46.6 197.182 46.744 197.822 46.744ZM200.918 49V45.904L201.374 43.096L200.918 40.312V37.48H203.558V49H200.918ZM85.5743 76.24C84.2463 76.24 83.1183 76 82.1903 75.52C81.2623 75.04 80.4303 74.336 79.6943 73.408L81.5663 71.536C82.0303 72.208 82.5823 72.736 83.2223 73.12C83.8623 73.488 84.6783 73.672 85.6703 73.672C86.5983 73.672 87.3343 73.48 87.8783 73.096C88.4383 72.712 88.7183 72.184 88.7183 71.512C88.7183 70.952 88.5743 70.496 88.2863 70.144C87.9983 69.792 87.6143 69.504 87.1343 69.28C86.6703 69.04 86.1503 68.832 85.5743 68.656C85.0143 68.464 84.4463 68.256 83.8703 68.032C83.3103 67.792 82.7903 67.496 82.3103 67.144C81.8463 66.792 81.4703 66.336 81.1823 65.776C80.8943 65.216 80.7503 64.504 80.7503 63.64C80.7503 62.648 80.9903 61.808 81.4703 61.12C81.9663 60.416 82.6303 59.88 83.4623 59.512C84.2943 59.144 85.2223 58.96 86.2463 58.96C87.3503 58.96 88.3343 59.176 89.1983 59.608C90.0783 60.04 90.7903 60.592 91.3343 61.264L89.4623 63.136C88.9823 62.592 88.4783 62.192 87.9503 61.936C87.4383 61.664 86.8463 61.528 86.1743 61.528C85.3423 61.528 84.6863 61.696 84.2063 62.032C83.7423 62.368 83.5103 62.84 83.5103 63.448C83.5103 63.96 83.6543 64.376 83.9423 64.696C84.2303 65 84.6063 65.264 85.0703 65.488C85.5503 65.696 86.0703 65.896 86.6303 66.088C87.2063 66.28 87.7743 66.496 88.3343 66.736C88.9103 66.976 89.4303 67.288 89.8943 67.672C90.3743 68.04 90.7583 68.52 91.0463 69.112C91.3343 69.704 91.4783 70.448 91.4783 71.344C91.4783 72.848 90.9423 74.04 89.8703 74.92C88.8143 75.8 87.3823 76.24 85.5743 76.24ZM95.6223 76V59.68H98.2623V76H95.6223ZM92.8623 66.88V64.48H101.022V66.88H92.8623ZM107.892 76.24C106.772 76.24 105.756 75.976 104.844 75.448C103.932 74.904 103.204 74.176 102.66 73.264C102.132 72.352 101.868 71.336 101.868 70.216C101.868 69.096 102.132 68.088 102.66 67.192C103.204 66.296 103.932 65.584 104.844 65.056C105.756 64.512 106.772 64.24 107.892 64.24C109.028 64.24 110.052 64.504 110.964 65.032C111.876 65.56 112.596 66.28 113.124 67.192C113.668 68.088 113.94 69.096 113.94 70.216C113.94 71.336 113.668 72.352 113.124 73.264C112.596 74.176 111.876 74.904 110.964 75.448C110.052 75.976 109.028 76.24 107.892 76.24ZM107.892 73.696C108.548 73.696 109.124 73.552 109.62 73.264C110.132 72.96 110.524 72.544 110.796 72.016C111.084 71.488 111.228 70.888 111.228 70.216C111.228 69.544 111.084 68.952 110.796 68.44C110.508 67.928 110.116 67.528 109.62 67.24C109.124 66.936 108.548 66.784 107.892 66.784C107.252 66.784 106.676 66.936 106.164 67.24C105.668 67.528 105.276 67.928 104.988 68.44C104.716 68.952 104.58 69.544 104.58 70.216C104.58 70.888 104.716 71.488 104.988 72.016C105.276 72.544 105.668 72.96 106.164 73.264C106.676 73.552 107.252 73.696 107.892 73.696ZM121.44 76.24C120.304 76.24 119.272 75.976 118.344 75.448C117.432 74.92 116.712 74.2 116.184 73.288C115.656 72.376 115.392 71.36 115.392 70.24C115.392 69.104 115.656 68.088 116.184 67.192C116.712 66.28 117.432 65.56 118.344 65.032C119.272 64.504 120.304 64.24 121.44 64.24C122.336 64.24 123.168 64.416 123.936 64.768C124.72 65.104 125.384 65.592 125.928 66.232L124.2 67.984C123.864 67.584 123.456 67.288 122.976 67.096C122.512 66.888 122 66.784 121.44 66.784C120.784 66.784 120.2 66.936 119.688 67.24C119.192 67.528 118.8 67.928 118.512 68.44C118.24 68.952 118.104 69.552 118.104 70.24C118.104 70.912 118.24 71.512 118.512 72.04C118.8 72.552 119.192 72.96 119.688 73.264C120.2 73.552 120.784 73.696 121.44 73.696C122 73.696 122.512 73.6 122.976 73.408C123.456 73.2 123.864 72.896 124.2 72.496L125.928 74.248C125.384 74.888 124.72 75.384 123.936 75.736C123.168 76.072 122.336 76.24 121.44 76.24ZM135.151 76L130.279 70.12L135.127 64.48H138.271L132.703 70.816L132.823 69.304L138.511 76H135.151ZM127.831 76V58.72H130.471V76H127.831ZM147.985 76V69.352C147.985 68.584 147.737 67.952 147.241 67.456C146.761 66.96 146.137 66.712 145.369 66.712C144.857 66.712 144.401 66.824 144.001 67.048C143.601 67.272 143.289 67.584 143.065 67.984C142.841 68.384 142.729 68.84 142.729 69.352L141.697 68.776C141.697 67.896 141.889 67.12 142.273 66.448C142.657 65.76 143.185 65.224 143.857 64.84C144.545 64.44 145.313 64.24 146.161 64.24C147.025 64.24 147.793 64.432 148.465 64.816C149.137 65.2 149.665 65.736 150.049 66.424C150.433 67.096 150.625 67.88 150.625 68.776V76H147.985ZM140.089 76V58.72H142.729V76H140.089ZM158.588 76.24C157.468 76.24 156.452 75.976 155.54 75.448C154.628 74.904 153.9 74.176 153.356 73.264C152.828 72.352 152.564 71.336 152.564 70.216C152.564 69.096 152.828 68.088 153.356 67.192C153.9 66.296 154.628 65.584 155.54 65.056C156.452 64.512 157.468 64.24 158.588 64.24C159.724 64.24 160.748 64.504 161.66 65.032C162.572 65.56 163.292 66.28 163.82 67.192C164.364 68.088 164.636 69.096 164.636 70.216C164.636 71.336 164.364 72.352 163.82 73.264C163.292 74.176 162.572 74.904 161.66 75.448C160.748 75.976 159.724 76.24 158.588 76.24ZM158.588 73.696C159.244 73.696 159.82 73.552 160.316 73.264C160.828 72.96 161.22 72.544 161.492 72.016C161.78 71.488 161.924 70.888 161.924 70.216C161.924 69.544 161.78 68.952 161.492 68.44C161.204 67.928 160.812 67.528 160.316 67.24C159.82 66.936 159.244 66.784 158.588 66.784C157.948 66.784 157.372 66.936 156.86 67.24C156.364 67.528 155.972 67.928 155.684 68.44C155.412 68.952 155.276 69.544 155.276 70.216C155.276 70.888 155.412 71.488 155.684 72.016C155.972 72.544 156.364 72.96 156.86 73.264C157.372 73.552 157.948 73.696 158.588 73.696ZM166.831 76V58.72H169.471V76H166.831ZM172.409 76V64.48H175.049V76H172.409ZM180.065 76V69.136C180.065 68.368 179.825 67.776 179.345 67.36C178.865 66.928 178.273 66.712 177.569 66.712C177.089 66.712 176.657 66.808 176.273 67C175.905 67.192 175.609 67.472 175.385 67.84C175.161 68.192 175.049 68.624 175.049 69.136L174.017 68.56C174.017 67.68 174.209 66.92 174.593 66.28C174.977 65.64 175.497 65.144 176.153 64.792C176.809 64.424 177.545 64.24 178.361 64.24C179.177 64.24 179.913 64.416 180.569 64.768C181.225 65.12 181.745 65.616 182.129 66.256C182.513 66.896 182.705 67.664 182.705 68.56V76H180.065ZM187.721 76V69.136C187.721 68.368 187.481 67.776 187.001 67.36C186.521 66.928 185.929 66.712 185.225 66.712C184.761 66.712 184.337 66.808 183.953 67C183.569 67.192 183.265 67.472 183.041 67.84C182.817 68.192 182.705 68.624 182.705 69.136L181.217 68.56C181.297 67.68 181.553 66.92 181.985 66.28C182.417 65.64 182.969 65.144 183.641 64.792C184.329 64.424 185.081 64.24 185.897 64.24C186.729 64.24 187.481 64.416 188.153 64.768C188.825 65.12 189.361 65.616 189.761 66.256C190.161 66.896 190.361 67.664 190.361 68.56V76H187.721Z" fill="white"/>
</svg>
