<svg width="485" height="502" viewBox="0 0 485 502" fill="none" xmlns="http://www.w3.org/2000/svg">
<path fill-rule="evenodd" clip-rule="evenodd" d="M185.793 0.615214C243.862 -5.01606 297.292 36.6536 337.496 78.9081C368.927 111.941 355.658 166.98 380.478 205.227C407.068 246.202 476.266 255.887 483.677 304.167C490.975 351.717 456.478 403.3 414.487 426.808C374.515 449.185 324.753 405.128 280.726 417.786C231.694 431.882 207.676 498.643 156.709 500.916C99.0521 503.487 20.4745 485.252 3.36453 430.154C-15.0003 371.015 75.7858 329.343 84.3843 268.015C92.2133 212.176 28.6892 159.64 48.6845 106.916C69.7011 51.4982 126.786 6.33748 185.793 0.615214Z" fill="#DBCBD8"/>
</svg>
