<svg width="937" height="152" viewBox="0 0 937 152" fill="none" xmlns="http://www.w3.org/2000/svg">
<path fill-rule="evenodd" clip-rule="evenodd" d="M279 0H80.5496L0 140H279H658H937L856.45 0H658H279Z" fill="#FA005B" fill-opacity="0.5"/>
<path fill-rule="evenodd" clip-rule="evenodd" d="M279 12H80.5496L0 152H279H658H937L856.45 12H658H279Z" fill="#FA005B"/>
<path d="M243.295 112L250.605 52.5H272.96C276.02 52.5 278.598 53.2933 280.695 54.88C282.848 56.41 284.407 58.4783 285.37 61.085C286.39 63.635 286.702 66.44 286.305 69.5C286.078 71.37 285.54 73.24 284.69 75.11C283.897 76.98 282.678 78.85 281.035 80.72C282.962 82.3067 284.35 84.3183 285.2 86.755C286.107 89.135 286.39 91.77 286.05 94.66C285.823 96.7567 285.172 98.8533 284.095 100.95C283.075 102.99 281.743 104.86 280.1 106.56C278.513 108.203 276.728 109.535 274.745 110.555C272.762 111.518 270.693 112 268.54 112H243.295ZM256.81 77.745H269.56C270.75 77.745 271.883 77.2917 272.96 76.385C274.093 75.4783 275.028 74.3167 275.765 72.9C276.558 71.4833 277.068 70.0383 277.295 68.565C277.465 66.7517 277.125 65.1933 276.275 63.89C275.425 62.53 274.037 61.85 272.11 61.85H258.765L256.81 77.745ZM253.75 102.65H269.305C270.438 102.65 271.543 102.197 272.62 101.29C273.753 100.383 274.717 99.25 275.51 97.89C276.303 96.53 276.757 95.1417 276.87 93.725C277.153 91.7983 276.842 90.155 275.935 88.795C275.028 87.435 273.668 86.755 271.855 86.755H255.705L253.75 102.65ZM309.778 112.85C305.641 112.85 302.099 111.943 299.153 110.13C296.263 108.317 294.138 105.767 292.778 102.48C291.418 99.1933 291.021 95.3967 291.588 91.09C292.154 86.16 293.486 82.08 295.583 78.85C297.736 75.5633 300.428 73.1267 303.658 71.54C306.888 69.8967 310.486 69.075 314.453 69.075C318.533 69.075 322.046 69.925 324.993 71.625C327.939 73.325 330.093 75.875 331.453 79.275C332.813 82.675 333.181 86.8967 332.558 91.94C332.048 96.1333 330.744 99.8167 328.648 102.99C326.551 106.107 323.888 108.543 320.658 110.3C317.428 112 313.801 112.85 309.778 112.85ZM310.118 104.18C312.724 104.18 315.019 103.585 317.003 102.395C318.986 101.148 320.573 99.5333 321.763 97.55C323.009 95.51 323.774 93.3567 324.058 91.09C324.511 87.2367 323.888 84.0633 322.188 81.57C320.544 79.02 317.853 77.745 314.113 77.745C310.259 77.745 307.086 79.0767 304.593 81.74C302.099 84.4033 300.598 87.8033 300.088 91.94C299.748 95.2833 300.399 98.1733 302.043 100.61C303.743 102.99 306.434 104.18 310.118 104.18ZM354.226 112.85C350.089 112.85 346.548 111.943 343.601 110.13C340.711 108.317 338.586 105.767 337.226 102.48C335.866 99.1933 335.469 95.3967 336.036 91.09C336.603 86.16 337.934 82.08 340.031 78.85C342.184 75.5633 344.876 73.1267 348.106 71.54C351.336 69.8967 354.934 69.075 358.901 69.075C362.981 69.075 366.494 69.925 369.441 71.625C372.388 73.325 374.541 75.875 375.901 79.275C377.261 82.675 377.629 86.8967 377.006 91.94C376.496 96.1333 375.193 99.8167 373.096 102.99C370.999 106.107 368.336 108.543 365.106 110.3C361.876 112 358.249 112.85 354.226 112.85ZM354.566 104.18C357.173 104.18 359.468 103.585 361.451 102.395C363.434 101.148 365.021 99.5333 366.211 97.55C367.458 95.51 368.223 93.3567 368.506 91.09C368.959 87.2367 368.336 84.0633 366.636 81.57C364.993 79.02 362.301 77.745 358.561 77.745C354.708 77.745 351.534 79.0767 349.041 81.74C346.548 84.4033 345.046 87.8033 344.536 91.94C344.196 95.2833 344.848 98.1733 346.491 100.61C348.191 102.99 350.883 104.18 354.566 104.18ZM381.039 112L388.349 52.5H397.444L393.789 81.825L406.964 69.585H418.949L400.334 87.35L415.124 112H404.584L392.684 93.47L392.174 95.17L390.134 112H381.039ZM464.494 112.425C460.187 112.312 456.957 111.093 454.804 108.77C452.65 106.447 451.829 103.217 452.339 99.08C452.679 96.1333 453.699 93.64 455.399 91.6C457.099 89.56 459.252 88.0017 461.859 86.925C464.465 85.7917 467.327 85.1117 470.444 84.885C473.617 84.6583 476.819 84.885 480.049 85.565L480.644 82.505C480.814 80.9183 480.417 79.6717 479.454 78.765C478.547 77.8583 477.272 77.2917 475.629 77.065C474.042 76.7817 472.285 76.81 470.359 77.15C468.489 77.49 466.647 78.085 464.834 78.935C463.077 79.785 461.632 80.8333 460.499 82.08L455.654 76.13C457.92 74.0333 460.527 72.4183 463.474 71.285C466.42 70.1517 469.395 69.5 472.399 69.33C475.459 69.1033 478.264 69.415 480.814 70.265C483.42 71.0583 485.517 72.39 487.104 74.26C488.294 75.28 489.03 76.6117 489.314 78.255C489.654 79.8417 489.739 81.655 489.569 83.695C489.455 85.6783 489.257 87.8033 488.974 90.07L486.254 112H477.074L477.754 108.26C475.657 109.847 473.617 110.952 471.634 111.575C469.65 112.198 467.27 112.482 464.494 112.425ZM478.094 100.525L479.454 92.11C473.334 91.5433 468.715 91.9117 465.599 93.215C462.539 94.5183 460.839 96.7567 460.499 99.93C460.272 101.687 460.725 102.933 461.859 103.67C463.049 104.407 464.579 104.747 466.449 104.69C468.375 104.633 470.387 104.237 472.484 103.5C474.58 102.763 476.45 101.772 478.094 100.525ZM558.658 106.39C555.484 109.11 552.198 110.952 548.798 111.915C545.454 112.878 542.224 113.048 539.108 112.425C536.048 111.858 533.356 110.612 531.033 108.685C528.709 106.702 526.953 104.152 525.763 101.035C524.629 97.9183 524.318 94.32 524.828 90.24C525.338 86.1033 526.528 82.5617 528.398 79.615C530.268 76.6117 532.563 74.2317 535.283 72.475C538.059 70.7183 541.034 69.6417 544.208 69.245C547.381 68.8483 550.554 69.1883 553.728 70.265C556.901 71.3417 559.819 73.2117 562.483 75.875L555.938 81.995C554.238 79.8983 552.198 78.6233 549.818 78.17C547.494 77.7167 545.171 77.9717 542.848 78.935C540.524 79.8417 538.513 81.3433 536.813 83.44C535.169 85.5367 534.149 88.0867 533.753 91.09C533.413 94.2067 533.809 96.785 534.943 98.825C536.076 100.865 537.691 102.31 539.788 103.16C541.884 103.953 544.151 104.067 546.588 103.5C549.081 102.933 551.489 101.573 553.813 99.42L558.658 106.39ZM573.776 112H564.766L572.076 52.5H581.086L573.776 112ZM593.561 112.425C589.255 112.312 586.025 111.093 583.871 108.77C581.718 106.447 580.896 103.217 581.406 99.08C581.746 96.1333 582.766 93.64 584.466 91.6C586.166 89.56 588.32 88.0017 590.926 86.925C593.533 85.7917 596.395 85.1117 599.511 84.885C602.685 84.6583 605.886 84.885 609.116 85.565L609.711 82.505C609.881 80.9183 609.485 79.6717 608.521 78.765C607.615 77.8583 606.34 77.2917 604.696 77.065C603.11 76.7817 601.353 76.81 599.426 77.15C597.556 77.49 595.715 78.085 593.901 78.935C592.145 79.785 590.7 80.8333 589.566 82.08L584.721 76.13C586.988 74.0333 589.595 72.4183 592.541 71.285C595.488 70.1517 598.463 69.5 601.466 69.33C604.526 69.1033 607.331 69.415 609.881 70.265C612.488 71.0583 614.585 72.39 616.171 74.26C617.361 75.28 618.098 76.6117 618.381 78.255C618.721 79.8417 618.806 81.655 618.636 83.695C618.523 85.6783 618.325 87.8033 618.041 90.07L615.321 112H606.141L606.821 108.26C604.725 109.847 602.685 110.952 600.701 111.575C598.718 112.198 596.338 112.482 593.561 112.425ZM607.161 100.525L608.521 92.11C602.401 91.5433 597.783 91.9117 594.666 93.215C591.606 94.5183 589.906 96.7567 589.566 99.93C589.34 101.687 589.793 102.933 590.926 103.67C592.116 104.407 593.646 104.747 595.516 104.69C597.443 104.633 599.455 104.237 601.551 103.5C603.648 102.763 605.518 101.772 607.161 100.525ZM621.265 106.39L627.045 100.95C629.822 103.5 632.825 104.775 636.055 104.775C638.379 104.718 640.277 104.01 641.75 102.65C643.224 101.233 643.875 99.59 643.705 97.72C643.535 96.6433 642.884 95.8217 641.75 95.255C640.674 94.6317 639.342 94.065 637.755 93.555C636.225 93.045 634.639 92.45 632.995 91.77C631.352 91.09 629.935 90.155 628.745 88.965C626.592 87.0383 625.402 84.97 625.175 82.76C624.949 80.4933 625.459 78.34 626.705 76.3C627.952 74.26 629.765 72.5883 632.145 71.285C634.525 69.925 637.245 69.1883 640.305 69.075C643.365 69.0183 646.114 69.5 648.55 70.52C650.987 71.54 652.829 72.8717 654.075 74.515L647.955 79.445C646.992 78.5383 645.83 77.915 644.47 77.575C643.11 77.1783 641.807 76.98 640.56 76.98C638.974 76.98 637.557 77.3483 636.31 78.085C635.12 78.765 634.412 79.8983 634.185 81.485C633.959 82.845 634.44 83.8933 635.63 84.63C636.82 85.3667 638.35 86.0467 640.22 86.67C642.09 87.2367 643.96 88.03 645.83 89.05C647.927 89.9567 649.542 91.345 650.675 93.215C651.809 95.085 652.092 97.5217 651.525 100.525C651.129 103.188 650.109 105.427 648.465 107.24C646.879 109.053 644.924 110.413 642.6 111.32C640.277 112.227 637.812 112.652 635.205 112.595C632.599 112.538 630.077 112 627.64 110.98C625.204 109.96 623.079 108.43 621.265 106.39ZM655.006 106.39L660.786 100.95C663.562 103.5 666.566 104.775 669.796 104.775C672.119 104.718 674.017 104.01 675.491 102.65C676.964 101.233 677.616 99.59 677.446 97.72C677.276 96.6433 676.624 95.8217 675.491 95.255C674.414 94.6317 673.082 94.065 671.496 93.555C669.966 93.045 668.379 92.45 666.736 91.77C665.092 91.09 663.676 90.155 662.486 88.965C660.332 87.0383 659.142 84.97 658.916 82.76C658.689 80.4933 659.199 78.34 660.446 76.3C661.692 74.26 663.506 72.5883 665.886 71.285C668.266 69.925 670.986 69.1883 674.046 69.075C677.106 69.0183 679.854 69.5 682.291 70.52C684.727 71.54 686.569 72.8717 687.816 74.515L681.696 79.445C680.732 78.5383 679.571 77.915 678.211 77.575C676.851 77.1783 675.547 76.98 674.301 76.98C672.714 76.98 671.297 77.3483 670.051 78.085C668.861 78.765 668.152 79.8983 667.926 81.485C667.699 82.845 668.181 83.8933 669.371 84.63C670.561 85.3667 672.091 86.0467 673.961 86.67C675.831 87.2367 677.701 88.03 679.571 89.05C681.667 89.9567 683.282 91.345 684.416 93.215C685.549 95.085 685.832 97.5217 685.266 100.525C684.869 103.188 683.849 105.427 682.206 107.24C680.619 109.053 678.664 110.413 676.341 111.32C674.017 112.227 671.552 112.652 668.946 112.595C666.339 112.538 663.817 112 661.381 110.98C658.944 109.96 656.819 108.43 655.006 106.39Z" fill="white"/>
</svg>
