<svg width="105" height="125" viewBox="0 0 105 125" fill="none" xmlns="http://www.w3.org/2000/svg">
<path fill-rule="evenodd" clip-rule="evenodd" d="M68.8902 5.95465C69.1476 3.31626 67.2174 0.968775 64.579 0.711396C61.9406 0.454017 59.5931 2.38421 59.3357 5.0226C59.0784 7.66099 61.0086 10.0085 63.6469 10.2659C66.2853 10.5232 68.6328 8.59304 68.8902 5.95465ZM75.4741 27.3071C79.3511 27.6853 82.1869 31.1396 81.8081 35.0226C81.4293 38.9055 77.9794 41.7466 74.1024 41.3684C70.2255 40.9902 67.3897 37.5359 67.7685 33.653C68.1472 29.7701 71.5972 26.9289 75.4741 27.3071ZM24.5199 40.1287C24.935 35.8734 21.8273 32.0878 17.5786 31.6734C13.3299 31.2589 9.54913 34.3725 9.13403 38.6277C8.71892 42.883 11.8267 46.6685 16.0754 47.083C20.3241 47.4975 24.1048 44.3839 24.5199 40.1287ZM55.6098 45.8346C56.1079 40.7284 52.3786 36.1857 47.2801 35.6883C42.1817 35.191 37.6448 38.9272 37.1467 44.0335C36.6485 49.1398 40.3778 53.6825 45.4763 54.1799C50.5747 54.6772 55.1116 50.941 55.6098 45.8346ZM13.9677 118.436C14.3413 114.606 11.5443 111.199 7.7205 110.826C3.89667 110.453 0.493984 113.256 0.120388 117.085C-0.253207 120.915 2.54376 124.322 6.36759 124.695C10.1914 125.068 13.5941 122.266 13.9677 118.436ZM34.847 71.2178C39.6799 71.6893 43.2149 75.9953 42.7428 80.8357C42.2706 85.676 37.97 89.2177 33.1371 88.7463C28.3042 88.2748 24.7691 83.9687 25.2413 79.1284C25.7135 74.288 30.0141 70.7463 34.847 71.2178ZM10.4335 69.09C10.8434 64.8879 7.77447 61.1497 3.57888 60.7404C-0.616712 60.3311 -4.35021 63.4058 -4.76013 67.6078C-5.17005 71.8099 -2.10115 75.5481 2.09444 75.9574C6.29003 76.3667 10.0235 73.292 10.4335 69.09ZM96.7204 86.1599C101.66 86.6417 105.272 91.0424 104.79 95.9892C104.307 100.936 99.9121 104.555 94.9729 104.074C90.0338 103.592 86.4211 99.1911 86.9036 94.2444C87.3862 89.2976 91.7813 85.6781 96.7204 86.1599ZM56.6356 100.194C59.274 100.451 61.2042 102.799 60.9468 105.437C60.6895 108.075 58.342 110.006 55.7036 109.748C53.0652 109.491 51.135 107.143 51.3924 104.505C51.6498 101.867 53.9973 99.9364 56.6356 100.194ZM-9.21389 100.327C-8.7936 96.0185 -11.9402 92.1857 -16.242 91.766C-20.5438 91.3464 -24.3718 94.4989 -24.7921 98.8073C-25.2124 103.116 -22.0658 106.949 -17.764 107.368C-13.4622 107.788 -9.63419 104.635 -9.21389 100.327Z" fill="#025323"/>
</svg>
