<svg width="127" height="64" viewBox="0 0 127 64" fill="none" xmlns="http://www.w3.org/2000/svg">
<rect y="0.269531" width="126.539" height="63.2696" rx="26.4465" fill="#FA005B"/>
<path d="M43.1904 42.1857C42.034 42.1857 40.9039 41.958 39.8001 41.5024C38.7138 41.0469 37.8027 40.4862 37.0669 39.8204L38.67 38.3487C39.3183 38.8743 40.0454 39.2948 40.8514 39.6102C41.6573 39.908 42.4195 40.057 43.1378 40.057C43.8562 40.057 44.5132 39.9168 45.1089 39.6365C45.7221 39.3561 46.2127 38.9707 46.5807 38.4801C46.9486 37.972 47.1413 37.3851 47.1589 36.7193C47.1764 35.8783 46.8785 35.2037 46.2653 34.6956C45.6521 34.1875 44.7059 33.7758 43.4269 33.4604C42.1829 33.145 41.0967 32.7596 40.1681 32.304C39.2395 31.831 38.5299 31.2352 38.0393 30.5169C37.5487 29.7985 37.3472 28.905 37.4348 27.8362C37.5575 26.417 38.1444 25.3307 39.1957 24.5773C40.2644 23.8064 41.6661 23.421 43.4006 23.421C44.2416 23.421 45.1264 23.5261 46.055 23.7363C47.0012 23.9291 47.886 24.262 48.7094 24.735L47.3165 26.417C46.7033 26.1542 46.0726 25.944 45.4243 25.7863C44.776 25.6111 44.119 25.5147 43.4532 25.4972C42.8049 25.4972 42.1829 25.5848 41.5872 25.76C41.0091 25.9177 40.536 26.1893 40.1681 26.5747C39.8001 26.9427 39.6074 27.442 39.5899 28.0727C39.5899 28.721 39.7651 29.2466 40.1155 29.6496C40.4659 30.0351 40.939 30.3504 41.5347 30.5957C42.1304 30.841 42.7962 31.0688 43.532 31.2791C44.776 31.6119 45.8185 31.9799 46.6595 32.3829C47.518 32.7858 48.1663 33.3202 48.6043 33.986C49.0423 34.6518 49.2613 35.5629 49.2613 36.7193C49.2613 37.753 48.981 38.6816 48.4204 39.5051C47.8772 40.3285 47.1413 40.9856 46.2127 41.4762C45.3016 41.9492 44.2942 42.1857 43.1904 42.1857ZM62.6756 36.0097H52.4523C52.4873 37.1485 52.7939 38.0508 53.3721 38.7166C53.9503 39.3824 54.6862 39.8204 55.5797 40.0307C56.4733 40.2409 57.4282 40.2234 58.4444 39.9781C59.4606 39.7328 60.4242 39.2685 61.3353 38.5852L62.4391 40.2147C61.5806 40.8804 60.687 41.371 59.7584 41.6864C58.8298 42.0018 57.9012 42.1682 56.9726 42.1857C54.7825 42.2383 53.1093 41.6338 51.9529 40.3723C50.7965 39.0933 50.2184 37.315 50.2184 35.0373C50.2184 33.0925 50.7615 31.5419 51.8478 30.3855C52.9516 29.2291 54.546 28.6597 56.631 28.6772C57.9976 28.6772 59.1627 28.9575 60.1264 29.5182C61.09 30.0789 61.7996 30.9111 62.2551 32.0149C62.4829 32.5581 62.6231 33.1625 62.6756 33.8283C62.7457 34.4941 62.7457 35.2212 62.6756 36.0097ZM56.7361 30.622C55.5447 30.622 54.5285 30.9374 53.6875 31.5681C52.864 32.1814 52.4523 33.1012 52.4523 34.3277H60.8097C60.8097 33.1713 60.4417 32.269 59.7059 31.6207C58.9875 30.9549 57.9976 30.622 56.7361 30.622ZM76.2242 41.9492H74.148V34.1437C74.148 33.3027 73.964 32.6282 73.5961 32.1201C73.2457 31.6119 72.7901 31.2528 72.2295 31.0425C71.6863 30.8148 71.1169 30.7009 70.5212 30.7009C69.943 30.7009 69.3648 30.8235 68.7866 31.0688C68.226 31.3141 67.7529 31.6908 67.3675 32.1989C66.982 32.707 66.7893 33.3553 66.7893 34.1437V41.9492H64.7131V28.8086H66.7893V30.2278C67.1922 29.6847 67.7442 29.2904 68.445 29.0451C69.1458 28.7823 69.8729 28.6509 70.6263 28.6509C71.6425 28.6509 72.5711 28.8612 73.4121 29.2817C74.2706 29.7022 74.954 30.3242 75.4621 31.1476C75.9702 31.9536 76.2242 32.9523 76.2242 34.1437V41.9492ZM82.619 41.9229C81.5677 41.8003 80.6742 41.4324 79.9383 40.8191C79.2199 40.2059 78.6768 39.4262 78.3088 38.4801C77.9409 37.5165 77.7569 36.4389 77.7569 35.2475C77.7569 33.9685 77.9847 32.8384 78.4403 31.8572C78.9133 30.8586 79.5879 30.0789 80.4639 29.5182C81.3575 28.94 82.435 28.6509 83.6965 28.6509C84.2046 28.6509 84.7302 28.686 85.2734 28.7561C85.834 28.8261 86.4385 29.0276 87.0868 29.3605V23.5524H89.163V41.9492H87.0868V40.714C86.5962 41.1345 85.9479 41.4762 85.142 41.739C84.336 42.0018 83.495 42.0631 82.619 41.9229ZM87.0868 38.9532V31.3316C85.8253 30.806 84.6426 30.6045 83.5388 30.7271C82.4525 30.8498 81.5677 31.2966 80.8844 32.0675C80.2011 32.8209 79.8594 33.8809 79.8594 35.2475C79.8594 36.3513 80.0609 37.2799 80.4639 38.0333C80.8844 38.7692 81.4451 39.3123 82.1459 39.6628C82.8467 40.0132 83.6177 40.1358 84.4587 40.0307C85.3172 39.9256 86.1932 39.5664 87.0868 38.9532Z" fill="#B9F615"/>
</svg>
