<svg width="454" height="136" viewBox="0 0 454 136" fill="none" xmlns="http://www.w3.org/2000/svg">
<g clip-path="url(#clip0_4_476)">
<path d="M79.3477 0H453V120H0L79.3477 0Z" fill="#FA005B" fill-opacity="0.5"/>
<path d="M80.3477 16H454V136H1L80.3477 16Z" fill="#FA005B"/>
<rect width="351" height="89" transform="translate(89 32)" fill="#FA005B"/>
<path d="M128.736 93.808C127.355 95.4133 125.805 96.4587 124.088 96.944C122.408 97.392 120.635 97.448 118.768 97.112C116.901 96.8133 115.053 96.328 113.224 95.656L115.352 89.944C116.659 90.4667 117.965 90.8213 119.272 91.008C120.579 91.1573 121.699 91.0267 122.632 90.616C123.939 90.28 124.853 89.328 125.376 87.76C125.936 86.192 126.384 84.1013 126.72 81.488L129.576 57.8H135.4L132.488 81.768C132.152 84.5307 131.685 86.9013 131.088 88.88C130.528 90.8213 129.744 92.464 128.736 93.808ZM148.086 97.56C145.36 97.56 143.027 96.9627 141.086 95.768C139.182 94.5733 137.782 92.8933 136.886 90.728C135.99 88.5627 135.728 86.0613 136.102 83.224C136.475 79.976 137.352 77.288 138.734 75.16C140.152 72.9947 141.926 71.3893 144.054 70.344C146.182 69.2613 148.552 68.72 151.166 68.72C153.854 68.72 156.168 69.28 158.11 70.4C160.051 71.52 161.47 73.2 162.366 75.44C163.262 77.68 163.504 80.4613 163.094 83.784C162.758 86.5467 161.899 88.9733 160.518 91.064C159.136 93.1173 157.382 94.7227 155.254 95.88C153.126 97 150.736 97.56 148.086 97.56ZM148.31 91.848C150.027 91.848 151.539 91.456 152.846 90.672C154.152 89.8507 155.198 88.7867 155.982 87.48C156.803 86.136 157.307 84.7173 157.494 83.224C157.792 80.6853 157.382 78.5947 156.262 76.952C155.179 75.272 153.406 74.432 150.942 74.432C148.403 74.432 146.312 75.3093 144.67 77.064C143.027 78.8187 142.038 81.0587 141.702 83.784C141.478 85.9867 141.907 87.8907 142.99 89.496C144.11 91.064 145.883 91.848 148.31 91.848ZM173.759 65.584C172.714 65.584 171.818 65.2293 171.071 64.52C170.362 63.7733 170.007 62.8773 170.007 61.832C170.007 60.824 170.362 59.9653 171.071 59.256C171.818 58.5467 172.714 58.192 173.759 58.192C174.767 58.192 175.626 58.5467 176.335 59.256C177.044 59.9653 177.399 60.824 177.399 61.832C177.399 62.8773 177.044 63.7733 176.335 64.52C175.626 65.2293 174.767 65.584 173.759 65.584ZM172.471 97H166.927L170.399 69H175.943L172.471 97ZM202.285 97H196.349L198.421 80.424C198.608 78.8187 198.44 77.5867 197.917 76.728C197.395 75.8693 196.685 75.2907 195.789 74.992C194.931 74.6933 194.053 74.544 193.157 74.544C192.224 74.544 191.179 74.7307 190.021 75.104C188.864 75.4773 187.837 76.112 186.941 77.008C186.045 77.904 185.504 79.136 185.317 80.704L183.301 97H177.309L180.781 69H186.773L186.325 71.52C186.811 70.8853 187.464 70.3627 188.285 69.952C189.144 69.504 190.059 69.1867 191.029 69C192 68.776 192.915 68.664 193.773 68.664C196.125 68.664 198.141 69.168 199.821 70.176C201.539 71.1467 202.789 72.5467 203.573 74.376C204.395 76.168 204.637 78.2773 204.301 80.704L202.285 97ZM250.942 97H244.95L245.398 94.032C244.54 95.2267 243.42 96.0853 242.038 96.608C240.657 97.0933 239.201 97.2987 237.67 97.224C236.14 97.1867 234.684 96.9067 233.302 96.384C231.958 95.8613 230.857 95.1333 229.998 94.2C228.953 93.2667 228.206 92.016 227.758 90.448C227.31 88.88 227.217 87.1067 227.478 85.128L229.438 69H235.43L233.358 85.408C233.134 87.536 233.564 89.0667 234.646 90C235.729 90.896 237.185 91.344 239.014 91.344C240.022 91.344 241.068 91.12 242.15 90.672C243.233 90.224 244.166 89.552 244.95 88.656C245.772 87.7227 246.276 86.5467 246.462 85.128L248.422 69H254.414L250.942 97ZM255.307 93.304L259.115 89.72C260.945 91.4 262.923 92.24 265.051 92.24C266.582 92.2027 267.833 91.736 268.803 90.84C269.774 89.9067 270.203 88.824 270.091 87.592C269.979 86.8827 269.55 86.3413 268.803 85.968C268.094 85.5573 267.217 85.184 266.171 84.848C265.163 84.512 264.118 84.12 263.035 83.672C261.953 83.224 261.019 82.608 260.235 81.824C258.817 80.5547 258.033 79.192 257.883 77.736C257.734 76.2427 258.07 74.824 258.891 73.48C259.713 72.136 260.907 71.0347 262.475 70.176C264.043 69.28 265.835 68.7947 267.851 68.72C269.867 68.6827 271.678 69 273.283 69.672C274.889 70.344 276.102 71.2213 276.923 72.304L272.891 75.552C272.257 74.9547 271.491 74.544 270.595 74.32C269.699 74.0587 268.841 73.928 268.019 73.928C266.974 73.928 266.041 74.1707 265.219 74.656C264.435 75.104 263.969 75.8507 263.819 76.896C263.67 77.792 263.987 78.4827 264.771 78.968C265.555 79.4533 266.563 79.9013 267.795 80.312C269.027 80.6853 270.259 81.208 271.491 81.88C272.873 82.4773 273.937 83.392 274.683 84.624C275.43 85.856 275.617 87.4613 275.243 89.44C274.982 91.1947 274.31 92.6693 273.227 93.864C272.182 95.0587 270.894 95.9547 269.363 96.552C267.833 97.1493 266.209 97.4293 264.491 97.392C262.774 97.3547 261.113 97 259.507 96.328C257.902 95.656 256.502 94.648 255.307 93.304ZM323.493 97H317.557L319.629 80.424C319.815 78.8187 319.647 77.5867 319.125 76.728C318.602 75.8693 317.893 75.2907 316.997 74.992C316.138 74.6933 315.261 74.544 314.365 74.544C313.431 74.544 312.386 74.7307 311.229 75.104C310.071 75.4773 309.045 76.112 308.149 77.008C307.253 77.904 306.711 79.136 306.525 80.704L304.509 97H298.517L301.989 69H307.981L307.533 71.52C308.018 70.8853 308.671 70.3627 309.493 69.952C310.351 69.504 311.266 69.1867 312.237 69C313.207 68.776 314.122 68.664 314.981 68.664C317.333 68.664 319.349 69.168 321.029 70.176C322.746 71.1467 323.997 72.5467 324.781 74.376C325.602 76.168 325.845 78.2773 325.509 80.704L323.493 97ZM340.628 97.56C337.903 97.56 335.57 96.9627 333.628 95.768C331.724 94.5733 330.324 92.8933 329.428 90.728C328.532 88.5627 328.271 86.0613 328.644 83.224C329.018 79.976 329.895 77.288 331.276 75.16C332.695 72.9947 334.468 71.3893 336.596 70.344C338.724 69.2613 341.095 68.72 343.708 68.72C346.396 68.72 348.711 69.28 350.652 70.4C352.594 71.52 354.012 73.2 354.908 75.44C355.804 77.68 356.047 80.4613 355.636 83.784C355.3 86.5467 354.442 88.9733 353.06 91.064C351.679 93.1173 349.924 94.7227 347.796 95.88C345.668 97 343.279 97.56 340.628 97.56ZM340.852 91.848C342.57 91.848 344.082 91.456 345.388 90.672C346.695 89.8507 347.74 88.7867 348.524 87.48C349.346 86.136 349.85 84.7173 350.036 83.224C350.335 80.6853 349.924 78.5947 348.804 76.952C347.722 75.272 345.948 74.432 343.484 74.432C340.946 74.432 338.855 75.3093 337.212 77.064C335.57 78.8187 334.58 81.0587 334.244 83.784C334.02 85.9867 334.45 87.8907 335.532 89.496C336.652 91.064 338.426 91.848 340.852 91.848ZM404.182 69L391.302 97H383.854L379.99 76.84L371.198 97H363.806L357.646 69H364.198L368.118 90.56L377.694 69H384.078L388.334 90.504L397.518 69H404.182ZM415.109 57.8L411.301 86.92H406.317L409.621 57.8H415.109ZM407.829 97.672C406.784 97.672 405.925 97.3173 405.253 96.608C404.618 95.8613 404.376 94.984 404.525 93.976C404.674 93.1173 405.085 92.408 405.757 91.848C406.429 91.2507 407.213 90.9333 408.109 90.896C409.117 90.896 409.92 91.2507 410.517 91.96C411.114 92.6693 411.376 93.528 411.301 94.536C411.189 95.432 410.797 96.1973 410.125 96.832C409.453 97.4293 408.688 97.7093 407.829 97.672Z" fill="white"/>
</g>
<defs>
<clipPath id="clip0_4_476">
<rect width="454" height="136" fill="white"/>
</clipPath>
</defs>
</svg>
