<svg width="127" height="64" viewBox="0 0 127 64" fill="none" xmlns="http://www.w3.org/2000/svg">
<rect width="126.539" height="63.2696" rx="26.4465" fill="#FA005B"/>
<path d="M43.1904 41.9162C42.034 41.9162 40.9039 41.6884 39.8001 41.2329C38.7138 40.7774 37.8027 40.2167 37.0669 39.5509L38.67 38.0792C39.3183 38.6048 40.0454 39.0253 40.8514 39.3407C41.6573 39.6385 42.4195 39.7874 43.1378 39.7874C43.8562 39.7874 44.5132 39.6473 45.1089 39.3669C45.7221 39.0866 46.2127 38.7012 46.5807 38.2106C46.9486 37.7025 47.1413 37.1155 47.1589 36.4497C47.1764 35.6087 46.8785 34.9342 46.2653 34.4261C45.6521 33.918 44.7059 33.5062 43.4269 33.1909C42.1829 32.8755 41.0967 32.49 40.1681 32.0345C39.2395 31.5614 38.5299 30.9657 38.0393 30.2474C37.5487 29.529 37.3472 28.6355 37.4348 27.5667C37.5575 26.1475 38.1444 25.0612 39.1957 24.3078C40.2644 23.5369 41.6661 23.1514 43.4006 23.1514C44.2416 23.1514 45.1264 23.2566 46.055 23.4668C47.0012 23.6595 47.886 23.9924 48.7094 24.4655L47.3165 26.1475C46.7033 25.8847 46.0726 25.6744 45.4243 25.5168C44.776 25.3415 44.119 25.2452 43.4532 25.2277C42.8049 25.2277 42.1829 25.3153 41.5872 25.4905C41.0091 25.6482 40.536 25.9197 40.1681 26.3052C39.8001 26.6731 39.6074 27.1725 39.5899 27.8032C39.5899 28.4515 39.7651 28.9771 40.1155 29.3801C40.4659 29.7655 40.939 30.0809 41.5347 30.3262C42.1304 30.5715 42.7962 30.7993 43.532 31.0095C44.776 31.3424 45.8185 31.7104 46.6595 32.1133C47.518 32.5163 48.1663 33.0507 48.6043 33.7165C49.0423 34.3823 49.2613 35.2934 49.2613 36.4497C49.2613 37.4835 48.981 38.4121 48.4204 39.2355C47.8772 40.059 47.1413 40.716 46.2127 41.2066C45.3016 41.6797 44.2942 41.9162 43.1904 41.9162ZM62.6756 35.7401H52.4523C52.4873 36.879 52.7939 37.7813 53.3721 38.4471C53.9503 39.1129 54.6862 39.5509 55.5797 39.7612C56.4733 39.9714 57.4282 39.9539 58.4444 39.7086C59.4606 39.4633 60.4242 38.999 61.3353 38.3157L62.4391 39.9451C61.5806 40.6109 60.687 41.1015 59.7584 41.4169C58.8298 41.7322 57.9012 41.8987 56.9726 41.9162C54.7825 41.9688 53.1093 41.3643 51.9529 40.1028C50.7965 38.8238 50.2184 37.0454 50.2184 34.7677C50.2184 32.8229 50.7615 31.2723 51.8478 30.116C52.9516 28.9596 54.546 28.3902 56.631 28.4077C57.9976 28.4077 59.1627 28.688 60.1264 29.2487C61.09 29.8093 61.7996 30.6416 62.2551 31.7454C62.4829 32.2885 62.6231 32.893 62.6756 33.5588C62.7457 34.2246 62.7457 34.9517 62.6756 35.7401ZM56.7361 30.3525C55.5447 30.3525 54.5285 30.6679 53.6875 31.2986C52.864 31.9118 52.4523 32.8317 52.4523 34.0581H60.8097C60.8097 32.9018 60.4417 31.9994 59.7059 31.3512C58.9875 30.6854 57.9976 30.3525 56.7361 30.3525ZM76.2242 41.6797H74.148V33.8742C74.148 33.0332 73.964 32.3586 73.5961 31.8505C73.2457 31.3424 72.7901 30.9832 72.2295 30.773C71.6863 30.5452 71.1169 30.4313 70.5212 30.4313C69.943 30.4313 69.3648 30.554 68.7866 30.7993C68.226 31.0446 67.7529 31.4213 67.3675 31.9294C66.982 32.4375 66.7893 33.0857 66.7893 33.8742V41.6797H64.7131V28.5391H66.7893V29.9583C67.1922 29.4151 67.7442 29.0209 68.445 28.7756C69.1458 28.5128 69.8729 28.3814 70.6263 28.3814C71.6425 28.3814 72.5711 28.5916 73.4121 29.0121C74.2706 29.4326 74.954 30.0546 75.4621 30.8781C75.9702 31.6841 76.2242 32.6828 76.2242 33.8742V41.6797ZM82.619 41.6534C81.5677 41.5308 80.6742 41.1628 79.9383 40.5496C79.2199 39.9364 78.6768 39.1567 78.3088 38.2106C77.9409 37.2469 77.7569 36.1694 77.7569 34.978C77.7569 33.699 77.9847 32.5689 78.4403 31.5877C78.9133 30.589 79.5879 29.8093 80.4639 29.2487C81.3575 28.6705 82.435 28.3814 83.6965 28.3814C84.2046 28.3814 84.7302 28.4164 85.2734 28.4865C85.834 28.5566 86.4385 28.7581 87.0868 29.091V23.2828H89.163V41.6797H87.0868V40.4445C86.5962 40.865 85.9479 41.2066 85.142 41.4694C84.336 41.7322 83.495 41.7936 82.619 41.6534ZM87.0868 38.6836V31.0621C85.8253 30.5365 84.6426 30.335 83.5388 30.4576C82.4525 30.5803 81.5677 31.027 80.8844 31.798C80.2011 32.5514 79.8594 33.6114 79.8594 34.978C79.8594 36.0818 80.0609 37.0104 80.4639 37.7638C80.8844 38.4997 81.4451 39.0428 82.1459 39.3932C82.8467 39.7436 83.6177 39.8663 84.4587 39.7612C85.3172 39.656 86.1932 39.2969 87.0868 38.6836Z" fill="white"/>
</svg>
