<svg width="1108" height="136" viewBox="0 0 1108 136" fill="none" xmlns="http://www.w3.org/2000/svg">
<path d="M1028.74 0H1V120H1108L1028.74 0Z" fill="#0962CF" fill-opacity="0.5"/>
<path d="M1027.74 16H0V136H1107L1027.74 16Z" fill="#0962CF"/>
<path d="M67.295 107L74.605 47.5H96.96C100.02 47.5 102.598 48.2933 104.695 49.88C106.848 51.41 108.407 53.4783 109.37 56.085C110.39 58.635 110.702 61.44 110.305 64.5C110.078 66.37 109.54 68.24 108.69 70.11C107.897 71.98 106.678 73.85 105.035 75.72C106.962 77.3067 108.35 79.3183 109.2 81.755C110.107 84.135 110.39 86.77 110.05 89.66C109.823 91.7567 109.172 93.8533 108.095 95.95C107.075 97.99 105.743 99.86 104.1 101.56C102.513 103.203 100.728 104.535 98.745 105.555C96.7617 106.518 94.6933 107 92.54 107H67.295ZM80.81 72.745H93.56C94.75 72.745 95.8833 72.2917 96.96 71.385C98.0933 70.4783 99.0283 69.3167 99.765 67.9C100.558 66.4833 101.068 65.0383 101.295 63.565C101.465 61.7517 101.125 60.1933 100.275 58.89C99.425 57.53 98.0367 56.85 96.11 56.85H82.765L80.81 72.745ZM77.75 97.65H93.305C94.4383 97.65 95.5433 97.1967 96.62 96.29C97.7533 95.3833 98.7167 94.25 99.51 92.89C100.303 91.53 100.757 90.1417 100.87 88.725C101.153 86.7983 100.842 85.155 99.935 83.795C99.0283 82.435 97.6683 81.755 95.855 81.755H79.705L77.75 97.65ZM151.203 107H142.108L142.788 102.495C141.484 104.308 139.784 105.612 137.688 106.405C135.591 107.142 133.381 107.453 131.058 107.34C128.734 107.283 126.524 106.858 124.428 106.065C122.388 105.272 120.716 104.167 119.413 102.75C117.826 101.333 116.693 99.435 116.013 97.055C115.333 94.675 115.191 91.9833 115.588 88.98L118.563 64.5H127.658L124.513 89.405C124.173 92.635 124.824 94.9583 126.468 96.375C128.111 97.735 130.321 98.415 133.098 98.415C134.628 98.415 136.214 98.075 137.858 97.395C139.501 96.715 140.918 95.695 142.108 94.335C143.354 92.9183 144.119 91.1333 144.403 88.98L147.378 64.5H156.473L151.203 107ZM167.093 87.79L168.878 72.915H162.333L163.353 64.5H169.983L172.023 47.5H180.948L178.908 64.5H185.793L184.773 72.915H177.803L175.933 88.215C175.593 90.8217 175.48 92.805 175.593 94.165C175.763 95.525 176.075 96.4883 176.528 97.055C177.038 97.6217 177.69 97.9617 178.483 98.075C179.276 98.1317 180.183 98.1883 181.203 98.245H183.073L181.968 107.17H180.693C177.746 107.17 175.281 106.943 173.298 106.49C171.315 105.98 169.785 105.045 168.708 103.685C167.631 102.325 166.951 100.37 166.668 97.82C166.441 95.27 166.583 91.9267 167.093 87.79ZM186.376 102.41C186.603 101.107 187.226 100.002 188.246 99.095C189.323 98.1883 190.569 97.735 191.986 97.735C193.516 97.6783 194.734 98.2167 195.641 99.35C196.604 100.483 196.973 101.843 196.746 103.43C196.576 104.45 196.123 105.838 195.386 107.595C194.649 109.352 193.799 111.137 192.836 112.95C191.929 114.82 191.108 116.407 190.371 117.71L186.971 115.84C187.651 114.82 188.303 113.545 188.926 112.015C189.549 110.542 190.116 109.097 190.626 107.68C189.323 107.793 188.246 107.312 187.396 106.235C186.546 105.158 186.206 103.883 186.376 102.41ZM308.139 64.5L288.589 107H277.284L271.419 76.4L258.074 107H246.854L237.504 64.5H247.449L253.399 97.225L267.934 64.5H277.624L284.084 97.14L298.024 64.5H308.139ZM343.975 107H334.965L338.025 82.01C338.421 78.78 337.883 76.485 336.41 75.125C334.936 73.7083 332.811 73 330.035 73C328.278 73 326.635 73.3967 325.105 74.19C323.575 74.9833 322.3 75.975 321.28 77.165C320.316 78.355 319.778 79.5167 319.665 80.65L316.35 107H307.34L314.65 47.5H323.66L321.195 67.305C322.725 65.945 324.51 65.0667 326.55 64.67C328.646 64.2167 330.658 64.075 332.585 64.245C337.911 64.755 341.793 66.6533 344.23 69.94C346.723 73.17 347.658 77.335 347.035 82.435L343.975 107ZM362.947 107.425C358.64 107.312 355.41 106.093 353.257 103.77C351.104 101.447 350.282 98.2167 350.792 94.08C351.132 91.1333 352.152 88.64 353.852 86.6C355.552 84.56 357.705 83.0017 360.312 81.925C362.919 80.7917 365.78 80.1117 368.897 79.885C372.07 79.6583 375.272 79.885 378.502 80.565L379.097 77.505C379.267 75.9183 378.87 74.6717 377.907 73.765C377 72.8583 375.725 72.2917 374.082 72.065C372.495 71.7817 370.739 71.81 368.812 72.15C366.942 72.49 365.1 73.085 363.287 73.935C361.53 74.785 360.085 75.8333 358.952 77.08L354.107 71.13C356.374 69.0333 358.98 67.4183 361.927 66.285C364.874 65.1517 367.849 64.5 370.852 64.33C373.912 64.1033 376.717 64.415 379.267 65.265C381.874 66.0583 383.97 67.39 385.557 69.26C386.747 70.28 387.484 71.6117 387.767 73.255C388.107 74.8417 388.192 76.655 388.022 78.695C387.909 80.6783 387.71 82.8033 387.427 85.07L384.707 107H375.527L376.207 103.26C374.11 104.847 372.07 105.952 370.087 106.575C368.104 107.198 365.724 107.482 362.947 107.425ZM376.547 95.525L377.907 87.11C371.787 86.5433 367.169 86.9117 364.052 88.215C360.992 89.5183 359.292 91.7567 358.952 94.93C358.725 96.6867 359.179 97.9333 360.312 98.67C361.502 99.4067 363.032 99.7467 364.902 99.69C366.829 99.6333 368.84 99.2367 370.937 98.5C373.034 97.7633 374.904 96.7717 376.547 95.525ZM399.584 87.79L401.369 72.915H394.824L395.844 64.5H402.474L404.514 47.5H413.439L411.399 64.5H418.284L417.264 72.915H410.294L408.424 88.215C408.084 90.8217 407.971 92.805 408.084 94.165C408.254 95.525 408.566 96.4883 409.019 97.055C409.529 97.6217 410.181 97.9617 410.974 98.075C411.767 98.1317 412.674 98.1883 413.694 98.245H415.564L414.459 107.17H413.184C410.237 107.17 407.772 106.943 405.789 106.49C403.806 105.98 402.276 105.045 401.199 103.685C400.122 102.325 399.442 100.37 399.159 97.82C398.932 95.27 399.074 91.9267 399.584 87.79ZM464.417 59.315C462.83 59.315 461.47 58.7767 460.337 57.7C459.26 56.5667 458.722 55.2067 458.722 53.62C458.722 52.09 459.26 50.7867 460.337 49.71C461.47 48.6333 462.83 48.095 464.417 48.095C465.947 48.095 467.25 48.6333 468.327 49.71C469.404 50.7867 469.942 52.09 469.942 53.62C469.942 55.2067 469.404 56.5667 468.327 57.7C467.25 58.7767 465.947 59.315 464.417 59.315ZM462.462 107H454.047L459.317 64.5H467.732L462.462 107ZM467.551 101.39L473.331 95.95C476.107 98.5 479.111 99.775 482.341 99.775C484.664 99.7183 486.562 99.01 488.036 97.65C489.509 96.2333 490.161 94.59 489.991 92.72C489.821 91.6433 489.169 90.8217 488.036 90.255C486.959 89.6317 485.627 89.065 484.041 88.555C482.511 88.045 480.924 87.45 479.281 86.77C477.637 86.09 476.221 85.155 475.031 83.965C472.877 82.0383 471.687 79.97 471.461 77.76C471.234 75.4933 471.744 73.34 472.991 71.3C474.237 69.26 476.051 67.5883 478.431 66.285C480.811 64.925 483.531 64.1883 486.591 64.075C489.651 64.0183 492.399 64.5 494.836 65.52C497.272 66.54 499.114 67.8717 500.361 69.515L494.241 74.445C493.277 73.5383 492.116 72.915 490.756 72.575C489.396 72.1783 488.092 71.98 486.846 71.98C485.259 71.98 483.842 72.3483 482.596 73.085C481.406 73.765 480.697 74.8983 480.471 76.485C480.244 77.845 480.726 78.8933 481.916 79.63C483.106 80.3667 484.636 81.0467 486.506 81.67C488.376 82.2367 490.246 83.03 492.116 84.05C494.212 84.9567 495.827 86.345 496.961 88.215C498.094 90.085 498.377 92.5217 497.811 95.525C497.414 98.1883 496.394 100.427 494.751 102.24C493.164 104.053 491.209 105.413 488.886 106.32C486.562 107.227 484.097 107.652 481.491 107.595C478.884 107.538 476.362 107 473.926 105.98C471.489 104.96 469.364 103.43 467.551 101.39ZM545.716 107.425C541.41 107.312 538.18 106.093 536.026 103.77C533.873 101.447 533.051 98.2167 533.561 94.08C533.901 91.1333 534.921 88.64 536.621 86.6C538.321 84.56 540.475 83.0017 543.081 81.925C545.688 80.7917 548.55 80.1117 551.666 79.885C554.84 79.6583 558.041 79.885 561.271 80.565L561.866 77.505C562.036 75.9183 561.64 74.6717 560.676 73.765C559.77 72.8583 558.495 72.2917 556.851 72.065C555.265 71.7817 553.508 71.81 551.581 72.15C549.711 72.49 547.87 73.085 546.056 73.935C544.3 74.785 542.855 75.8333 541.721 77.08L536.876 71.13C539.143 69.0333 541.75 67.4183 544.696 66.285C547.643 65.1517 550.618 64.5 553.621 64.33C556.681 64.1033 559.486 64.415 562.036 65.265C564.643 66.0583 566.74 67.39 568.326 69.26C569.516 70.28 570.253 71.6117 570.536 73.255C570.876 74.8417 570.961 76.655 570.791 78.695C570.678 80.6783 570.48 82.8033 570.196 85.07L567.476 107H558.296L558.976 103.26C556.88 104.847 554.84 105.952 552.856 106.575C550.873 107.198 548.493 107.482 545.716 107.425ZM559.316 95.525L560.676 87.11C554.556 86.5433 549.938 86.9117 546.821 88.215C543.761 89.5183 542.061 91.7567 541.721 94.93C541.495 96.6867 541.948 97.9333 543.081 98.67C544.271 99.4067 545.801 99.7467 547.671 99.69C549.598 99.6333 551.61 99.2367 553.706 98.5C555.803 97.7633 557.673 96.7717 559.316 95.525ZM609.46 101.39C606.287 104.11 603 105.952 599.6 106.915C596.257 107.878 593.027 108.048 589.91 107.425C586.85 106.858 584.159 105.612 581.835 103.685C579.512 101.702 577.755 99.1517 576.565 96.035C575.432 92.9183 575.12 89.32 575.63 85.24C576.14 81.1033 577.33 77.5617 579.2 74.615C581.07 71.6117 583.365 69.2317 586.085 67.475C588.862 65.7183 591.837 64.6417 595.01 64.245C598.184 63.8483 601.357 64.1883 604.53 65.265C607.704 66.3417 610.622 68.2117 613.285 70.875L606.74 76.995C605.04 74.8983 603 73.6233 600.62 73.17C598.297 72.7167 595.974 72.9717 593.65 73.935C591.327 74.8417 589.315 76.3433 587.615 78.44C585.972 80.5367 584.952 83.0867 584.555 86.09C584.215 89.2067 584.612 91.785 585.745 93.825C586.879 95.865 588.494 97.31 590.59 98.16C592.687 98.9533 594.954 99.0667 597.39 98.5C599.884 97.9333 602.292 96.5733 604.615 94.42L609.46 101.39ZM615.228 107L620.498 64.5H629.508L628.913 67.73C631.293 65.52 633.957 64.415 636.903 64.415C639.907 64.3583 643.307 64.925 647.103 66.115L642.088 73.765C639.878 72.9717 637.668 72.8017 635.458 73.255C633.305 73.6517 631.463 74.445 629.933 75.635C628.46 76.825 627.667 78.1567 627.553 79.63L624.238 107H615.228ZM662.793 107.85C658.656 107.85 655.115 106.943 652.168 105.13C649.278 103.317 647.153 100.767 645.793 97.48C644.433 94.1933 644.036 90.3967 644.603 86.09C645.17 81.16 646.501 77.08 648.598 73.85C650.751 70.5633 653.443 68.1267 656.673 66.54C659.903 64.8967 663.501 64.075 667.468 64.075C671.548 64.075 675.061 64.925 678.008 66.625C680.955 68.325 683.108 70.875 684.468 74.275C685.828 77.675 686.196 81.8967 685.573 86.94C685.063 91.1333 683.76 94.8167 681.663 97.99C679.566 101.107 676.903 103.543 673.673 105.3C670.443 107 666.816 107.85 662.793 107.85ZM663.133 99.18C665.74 99.18 668.035 98.585 670.018 97.395C672.001 96.1483 673.588 94.5333 674.778 92.55C676.025 90.51 676.79 88.3567 677.073 86.09C677.526 82.2367 676.903 79.0633 675.203 76.57C673.56 74.02 670.868 72.745 667.128 72.745C663.275 72.745 660.101 74.0767 657.608 76.74C655.115 79.4033 653.613 82.8033 653.103 86.94C652.763 90.2833 653.415 93.1733 655.058 95.61C656.758 97.99 659.45 99.18 663.133 99.18ZM729.387 85.58C728.99 88.81 728.168 91.87 726.922 94.76C725.732 97.5933 724.117 100.058 722.077 102.155C720.037 104.195 717.6 105.668 714.767 106.575C712.84 107.142 710.828 107.34 708.732 107.17C706.692 107.057 704.793 106.66 703.037 105.98C701.28 105.243 699.977 104.337 699.127 103.26L698.447 107H689.437L696.747 47.5H705.757L703.377 65.86C704.907 65.01 706.55 64.4717 708.307 64.245C710.063 64.0183 711.593 63.905 712.897 63.905C716.977 63.905 720.32 64.8683 722.927 66.795C725.59 68.7217 727.46 71.3283 728.537 74.615C729.613 77.845 729.897 81.5 729.387 85.58ZM720.377 84.645C720.83 81.1883 720.263 78.4967 718.677 76.57C717.147 74.6433 714.965 73.51 712.132 73.17C709.298 72.83 706.125 73.34 702.612 74.7L699.722 95.95C702.725 97.99 705.7 98.84 708.647 98.5C711.65 98.16 714.228 96.8 716.382 94.42C718.535 92.04 719.867 88.7817 720.377 84.645ZM743.72 107.425C739.413 107.312 736.183 106.093 734.03 103.77C731.876 101.447 731.055 98.2167 731.565 94.08C731.905 91.1333 732.925 88.64 734.625 86.6C736.325 84.56 738.478 83.0017 741.085 81.925C743.691 80.7917 746.553 80.1117 749.67 79.885C752.843 79.6583 756.045 79.885 759.275 80.565L759.87 77.505C760.04 75.9183 759.643 74.6717 758.68 73.765C757.773 72.8583 756.498 72.2917 754.855 72.065C753.268 71.7817 751.511 71.81 749.585 72.15C747.715 72.49 745.873 73.085 744.06 73.935C742.303 74.785 740.858 75.8333 739.725 77.08L734.88 71.13C737.146 69.0333 739.753 67.4183 742.7 66.285C745.646 65.1517 748.621 64.5 751.625 64.33C754.685 64.1033 757.49 64.415 760.04 65.265C762.646 66.0583 764.743 67.39 766.33 69.26C767.52 70.28 768.256 71.6117 768.54 73.255C768.88 74.8417 768.965 76.655 768.795 78.695C768.681 80.6783 768.483 82.8033 768.2 85.07L765.48 107H756.3L756.98 103.26C754.883 104.847 752.843 105.952 750.86 106.575C748.876 107.198 746.496 107.482 743.72 107.425ZM757.32 95.525L758.68 87.11C752.56 86.5433 747.941 86.9117 744.825 88.215C741.765 89.5183 740.065 91.7567 739.725 94.93C739.498 96.6867 739.951 97.9333 741.085 98.67C742.275 99.4067 743.805 99.7467 745.675 99.69C747.601 99.6333 749.613 99.2367 751.71 98.5C753.806 97.7633 755.676 96.7717 757.32 95.525ZM780.357 87.79L782.142 72.915H775.597L776.617 64.5H783.247L785.287 47.5H794.212L792.172 64.5H799.057L798.037 72.915H791.067L789.197 88.215C788.857 90.8217 788.743 92.805 788.857 94.165C789.027 95.525 789.338 96.4883 789.792 97.055C790.302 97.6217 790.953 97.9617 791.747 98.075C792.54 98.1317 793.447 98.1883 794.467 98.245H796.337L795.232 107.17H793.957C791.01 107.17 788.545 106.943 786.562 106.49C784.578 105.98 783.048 105.045 781.972 103.685C780.895 102.325 780.215 100.37 779.932 97.82C779.705 95.27 779.847 91.9267 780.357 87.79ZM814.77 59.315C813.183 59.315 811.823 58.7767 810.69 57.7C809.613 56.5667 809.075 55.2067 809.075 53.62C809.075 52.09 809.613 50.7867 810.69 49.71C811.823 48.6333 813.183 48.095 814.77 48.095C816.3 48.095 817.603 48.6333 818.68 49.71C819.756 50.7867 820.295 52.09 820.295 53.62C820.295 55.2067 819.756 56.5667 818.68 57.7C817.603 58.7767 816.3 59.315 814.77 59.315ZM812.815 107H804.4L809.67 64.5H818.085L812.815 107ZM853.943 101.39C850.77 104.11 847.483 105.952 844.083 106.915C840.74 107.878 837.51 108.048 834.393 107.425C831.333 106.858 828.642 105.612 826.318 103.685C823.995 101.702 822.238 99.1517 821.048 96.035C819.915 92.9183 819.603 89.32 820.113 85.24C820.623 81.1033 821.813 77.5617 823.683 74.615C825.553 71.6117 827.848 69.2317 830.568 67.475C833.345 65.7183 836.32 64.6417 839.493 64.245C842.667 63.8483 845.84 64.1883 849.013 65.265C852.187 66.3417 855.105 68.2117 857.768 70.875L851.223 76.995C849.523 74.8983 847.483 73.6233 845.103 73.17C842.78 72.7167 840.457 72.9717 838.133 73.935C835.81 74.8417 833.798 76.3433 832.098 78.44C830.455 80.5367 829.435 83.0867 829.038 86.09C828.698 89.2067 829.095 91.785 830.228 93.825C831.362 95.865 832.977 97.31 835.073 98.16C837.17 98.9533 839.437 99.0667 841.873 98.5C844.367 97.9333 846.775 96.5733 849.098 94.42L853.943 101.39ZM857.371 101.39L863.151 95.95C865.928 98.5 868.931 99.775 872.161 99.775C874.485 99.7183 876.383 99.01 877.856 97.65C879.33 96.2333 879.981 94.59 879.811 92.72C879.641 91.6433 878.99 90.8217 877.856 90.255C876.78 89.6317 875.448 89.065 873.861 88.555C872.331 88.045 870.745 87.45 869.101 86.77C867.458 86.09 866.041 85.155 864.851 83.965C862.698 82.0383 861.508 79.97 861.281 77.76C861.055 75.4933 861.565 73.34 862.811 71.3C864.058 69.26 865.871 67.5883 868.251 66.285C870.631 64.925 873.351 64.1883 876.411 64.075C879.471 64.0183 882.22 64.5 884.656 65.52C887.093 66.54 888.935 67.8717 890.181 69.515L884.061 74.445C883.098 73.5383 881.936 72.915 880.576 72.575C879.216 72.1783 877.913 71.98 876.666 71.98C875.08 71.98 873.663 72.3483 872.416 73.085C871.226 73.765 870.518 74.8983 870.291 76.485C870.065 77.845 870.546 78.8933 871.736 79.63C872.926 80.3667 874.456 81.0467 876.326 81.67C878.196 82.2367 880.066 83.03 881.936 84.05C884.033 84.9567 885.648 86.345 886.781 88.215C887.915 90.085 888.198 92.5217 887.631 95.525C887.235 98.1883 886.215 100.427 884.571 102.24C882.985 104.053 881.03 105.413 878.706 106.32C876.383 107.227 873.918 107.652 871.311 107.595C868.705 107.538 866.183 107 863.746 105.98C861.31 104.96 859.185 103.43 857.371 101.39ZM907.752 92.635L908.687 85.92C908.743 85.41 908.828 84.9283 908.942 84.475C909.112 83.965 909.282 83.4267 909.452 82.86C910.132 81.3867 911.038 80.2533 912.172 79.46C913.305 78.6667 914.552 77.9867 915.912 77.42C917.328 76.8533 918.745 76.23 920.162 75.55C922.372 74.7567 924.242 73.595 925.772 72.065C927.358 70.535 928.322 68.2683 928.662 65.265C929.058 62.1483 928.322 59.74 926.452 58.04C924.638 56.2833 922.145 55.405 918.972 55.405C915.515 55.405 912.653 56.255 910.387 57.955C908.12 59.5983 906.788 62.0917 906.392 65.435L897.467 65.01C898.203 58.8333 900.527 54.3 904.437 51.41C908.347 48.4633 913.39 46.99 919.567 46.99C923.647 46.99 927.103 47.8683 929.937 49.625C932.827 51.325 934.923 53.6767 936.227 56.68C937.53 59.6267 937.898 62.9133 937.332 66.54C936.595 71.0167 935.065 74.5583 932.742 77.165C930.475 79.7717 927.132 81.9533 922.712 83.71C920.785 84.4467 919.397 85.155 918.547 85.835C917.753 86.4583 917.243 87.3083 917.017 88.385C916.79 89.405 916.535 90.9067 916.252 92.89L907.752 92.635ZM910.642 107.765C909.112 107.708 907.837 107.142 906.817 106.065C905.853 104.988 905.485 103.657 905.712 102.07C905.938 100.767 906.562 99.69 907.582 98.84C908.602 97.9333 909.792 97.48 911.152 97.48C912.682 97.4233 913.9 97.9617 914.807 99.095C915.713 100.172 916.082 101.475 915.912 103.005C915.798 104.365 915.232 105.527 914.212 106.49C913.192 107.397 912.002 107.822 910.642 107.765Z" fill="white"/>
</svg>
