<svg width="28" height="28" viewBox="0 0 28 28" fill="none" xmlns="http://www.w3.org/2000/svg">
<path d="M26.216 0H1.53151C0.685595 0 0 0.688361 0 1.53769V26.3221C0 27.1711 0.685595 27.8594 1.53151 27.8594H14.8206V17.0709H11.2046V12.8664H14.8206V9.76551C14.8206 6.167 17.0096 4.20794 20.2067 4.20794C21.7382 4.20794 23.0543 4.32208 23.4382 4.37355V8.13418L21.2207 8.13535C19.4818 8.13535 19.1454 8.96494 19.1454 10.1822V12.8668H23.2921L22.7522 17.0713H19.1454V27.8594H26.2164C27.0619 27.8594 27.7475 27.1711 27.7475 26.3218V1.53769C27.7475 0.688361 27.0619 0 26.216 0Z" fill="#F0EAE1"/>
</svg>
