<svg width="71" height="19" viewBox="0 0 71 19" fill="none" xmlns="http://www.w3.org/2000/svg">
<path d="M4.99766 0.155762C6.17433 0.155762 6.9869 1.33359 6.5691 2.43359L4.04572 9.07723C3.65399 10.1086 4.41585 11.2129 5.51909 11.2129C6.38952 11.2129 7.09515 10.5073 7.09515 9.63684V8.22844C7.09515 7.29202 7.85427 6.5329 8.79068 6.5329C9.7271 6.5329 10.4862 7.29202 10.4862 8.22844V16.4602C10.4862 17.3966 9.7271 18.1558 8.79068 18.1558C7.85427 18.1558 7.09515 17.3966 7.09515 16.4602V16.2915C7.09515 15.2619 6.26048 14.4272 5.23087 14.4272H3.20414C2.58973 14.4272 1.96526 14.3064 1.47724 13.9331C0.492414 13.1797 0 12.153 0 10.8529C0 10.1158 0.417362 8.71862 1.25209 6.66148L3.43743 1.21115C3.69305 0.573633 4.31081 0.155762 4.99766 0.155762Z" fill="black"/>
<path d="M14.3292 10.6986C13.6405 10.6986 13.0821 10.1403 13.0821 9.45148C13.0821 8.7627 13.6405 8.20433 14.3292 8.20433H20.5474C21.2362 8.20433 21.7945 8.7627 21.7945 9.45148C21.7945 10.1403 21.2362 10.6986 20.5474 10.6986H14.3292ZM17.4122 13.8615C16.7207 13.8615 16.1601 13.3009 16.1601 12.6094V6.26785C16.1601 5.57634 16.7207 5.01576 17.4122 5.01576C18.1037 5.01576 18.6643 5.57634 18.6643 6.26785V12.6094C18.6643 13.3009 18.1037 13.8615 17.4122 13.8615Z" fill="black"/>
<path d="M23.7444 16.0209C23.7444 15.7328 23.8027 15.4478 23.9157 15.1828L28.9048 3.49305C28.9243 3.44736 28.9241 3.39566 28.9043 3.35011C28.8756 3.28414 28.8105 3.24148 28.7386 3.24148H25.835C24.9829 3.24148 24.2922 2.55072 24.2922 1.69862C24.2922 0.846522 24.9829 0.155762 25.835 0.155762H28.983C29.6058 0.155762 30.2406 0.251715 30.7614 0.593247C31.7178 1.22045 32.196 2.08605 32.196 3.19005C32.196 3.94433 32.0047 4.80148 31.6221 5.76148C31.5177 6.0529 31.4308 6.2929 31.3612 6.48148C31.2917 6.67005 31.1786 6.94433 31.0221 7.30433C30.8656 7.64719 30.7526 7.90433 30.683 8.07576C30.3874 8.74433 30.1091 9.36148 29.8483 9.92719L28.6321 12.6447C28.1007 13.8321 28.9696 15.1729 30.2705 15.1729H30.5741C31.3978 15.1729 32.0655 15.8406 32.0655 16.6643C32.0655 17.488 31.3978 18.1558 30.5741 18.1558H25.8793C24.7002 18.1558 23.7444 17.1999 23.7444 16.0209Z" fill="black"/>
<path d="M42.6259 18.1558C41.6391 18.1558 40.8391 17.3558 40.8391 16.3689V4.9163C40.8391 2.28713 42.9705 0.155762 45.5996 0.155762H48.8173C49.6694 0.155762 50.3602 0.846522 50.3602 1.69862C50.3602 2.55072 49.6694 3.24148 48.8173 3.24148H46.6628C45.4201 3.24148 44.4128 4.24884 44.4128 5.49148C44.4128 6.73412 45.4201 7.74148 46.6628 7.74148H48.0862C48.9099 7.74148 49.5776 8.40921 49.5776 9.2329C49.5776 10.0566 48.9099 10.7243 48.0862 10.7243H46.9952C45.5689 10.7243 44.4128 11.8805 44.4128 13.3068V16.3689C44.4128 17.3558 43.6128 18.1558 42.6259 18.1558Z" fill="black"/>
<path d="M54.9603 18.1558C53.9735 18.1558 53.1735 17.3558 53.1735 16.3689V1.94259C53.1735 0.955753 53.9735 0.155762 54.9603 0.155762C55.9471 0.155762 56.7471 0.955753 56.7471 1.94259V16.3689C56.7471 17.3558 55.9471 18.1558 54.9603 18.1558Z" fill="black"/>
<path d="M63.5136 5.2109C63.5136 4.12322 62.6318 3.24148 61.5441 3.24148H61.1176C60.2655 3.24148 59.5747 2.55072 59.5747 1.69862C59.5747 0.846522 60.2655 0.155762 61.1176 0.155762H69.4571C70.3092 0.155762 71 0.846522 71 1.69862C71 2.55072 70.3092 3.24148 69.4571 3.24148H69.0306C67.9429 3.24148 67.0611 4.12322 67.0611 5.2109V16.382C67.0611 17.3616 66.267 18.1558 65.2874 18.1558C64.3077 18.1558 63.5136 17.3616 63.5136 16.382V5.2109Z" fill="black"/>
</svg>
