<svg width="14" height="23" viewBox="0 0 14 23" fill="none" xmlns="http://www.w3.org/2000/svg">
<path d="M12.4945 16.0911C12.0409 15.3566 11.7743 14.493 11.7743 13.5651C11.7743 12.756 11.9758 11.9949 12.3277 11.3257L12.3166 11.309C13.0256 10.2412 13.4402 8.95963 13.4402 7.58023C13.4402 3.86133 10.4374 0.846741 6.73381 0.846741C3.02985 0.846741 0.0273743 3.86133 0.0273743 7.58023C0.0273743 8.30654 0.145106 9.00461 0.35735 9.66033C0.499935 10.2487 0.729839 10.8013 1.03365 11.3057L1.00226 11.3238L5.85998 19.7719C6.37276 21.2954 7.80483 22.3934 9.49493 22.3934C11.6154 22.3934 13.3353 20.6676 13.3353 18.5383C13.3353 17.6146 13.0108 16.7671 12.4709 16.1032L12.4945 16.0911Z" fill="#F0EAE1"/>
</svg>
