<svg width="36" height="36" viewBox="0 0 36 36" fill="none" xmlns="http://www.w3.org/2000/svg">
<path d="M29.7451 16.9293H6.26591C5.50077 16.9293 4.88049 17.5496 4.88049 18.3147V18.4606C4.88049 19.2257 5.50077 19.846 6.26591 19.846H29.7451C30.5102 19.846 31.1305 19.2257 31.1305 18.4606V18.3147C31.1305 17.5496 30.5102 16.9293 29.7451 16.9293Z" fill="black"/>
<path d="M29.7451 24.2211H6.26591C5.50077 24.2211 4.88049 24.8413 4.88049 25.6065V25.7523C4.88049 26.5175 5.50077 27.1377 6.26591 27.1377H29.7451C30.5102 27.1377 31.1305 26.5175 31.1305 25.7523V25.6065C31.1305 24.8413 30.5102 24.2211 29.7451 24.2211Z" fill="black"/>
<path d="M29.7451 9.6377H6.26591C5.50077 9.6377 4.88049 10.258 4.88049 11.0231V11.1689C4.88049 11.9341 5.50077 12.5544 6.26591 12.5544H29.7451C30.5102 12.5544 31.1305 11.9341 31.1305 11.1689V11.0231C31.1305 10.258 30.5102 9.6377 29.7451 9.6377Z" fill="black"/>
</svg>
