<svg width="28" height="29" viewBox="0 0 28 29" fill="none" xmlns="http://www.w3.org/2000/svg">
<path d="M13.8227 7.73211C10.0189 7.73211 6.9348 10.8286 6.9348 14.6478C6.9348 18.467 10.0189 21.5635 13.8227 21.5635C17.6266 21.5635 20.7106 18.467 20.7106 14.6478C20.7106 10.8286 17.6266 7.73211 13.8227 7.73211ZM13.8227 18.1057C11.9234 18.1057 10.3788 16.5548 10.3788 14.6478C10.3788 12.7408 11.9234 11.19 13.8227 11.19C15.7221 11.19 17.2667 12.7408 17.2667 14.6478C17.2667 16.5548 15.7221 18.1057 13.8227 18.1057ZM18.9887 0.816406H8.65678C3.89895 0.816406 0.046875 4.68402 0.046875 9.46104V19.8346C0.046875 24.6099 3.89895 28.4792 8.65678 28.4792H18.9887C23.7448 28.4792 27.5986 24.6099 27.5986 19.8346V9.46104C27.5986 4.68402 23.7448 0.816406 18.9887 0.816406ZM24.1546 19.8346C24.1546 22.6925 21.8351 25.0214 18.9887 25.0214H8.65678C5.81034 25.0214 3.49084 22.6925 3.49084 19.8346V9.46104C3.49084 6.60313 5.81034 4.27426 8.65678 4.27426H18.9887C21.8351 4.27426 24.1546 6.60313 24.1546 9.46104V19.8346ZM20.7106 6.00319C19.7584 6.00319 18.9887 6.77602 18.9887 7.73211C18.9887 8.68821 19.7584 9.46104 20.7106 9.46104C21.6629 9.46104 22.4326 8.68821 22.4326 7.73211C22.4326 6.77602 21.6629 6.00319 20.7106 6.00319Z" fill="#F0EAE1"/>
</svg>
