<svg width="25" height="24" viewBox="0 0 25 24" fill="none" xmlns="http://www.w3.org/2000/svg">
<path d="M24.4327 7.05204C24.3751 5.77422 24.1685 4.89992 23.8755 4.13611C23.5681 3.34828 23.1597 2.67574 22.492 2.01281C21.8243 1.34988 21.1565 0.931946 20.3687 0.629304C19.6049 0.331465 18.7306 0.129704 17.4528 0.0720576C16.1701 0.0144115 15.7618 0 12.5048 0C9.24299 0 8.83467 0.0144115 7.55685 0.0720576C6.27902 0.129704 5.40472 0.336269 4.64091 0.629304C3.84828 0.93675 3.17574 1.34508 2.51281 2.01281C1.84988 2.68054 1.43195 3.34828 1.1293 4.13611C0.836269 4.89992 0.629704 5.77422 0.572058 7.05204C0.514412 8.33467 0.5 8.743 0.5 12C0.5 15.2618 0.514412 15.6701 0.572058 16.948C0.629704 18.2258 0.836269 19.1001 1.1293 19.8639C1.43675 20.6517 1.84508 21.3243 2.51281 21.9872C3.17574 22.6549 3.84828 23.0681 4.63611 23.3707C5.39992 23.6685 6.27422 23.8703 7.55204 23.9279C8.83467 23.9856 9.24299 24 12.5 24C15.7618 24 16.1701 23.9856 17.448 23.9279C18.7258 23.8703 19.6001 23.6637 20.3639 23.3707C21.1517 23.0633 21.8243 22.6549 22.4872 21.9872C23.1501 21.3195 23.5681 20.6517 23.8707 19.8639C24.1685 19.1001 24.3703 18.2258 24.4279 16.948C24.4856 15.6653 24.5 15.257 24.5 12C24.5 8.743 24.4904 8.32986 24.4327 7.05204ZM22.2758 16.8519C22.223 18.024 22.026 18.6629 21.8627 19.0809C21.6465 19.6381 21.3823 20.0416 20.9596 20.4644C20.5368 20.8871 20.1381 21.1417 19.5761 21.3675C19.1533 21.5308 18.5144 21.7278 17.3471 21.7806C16.0837 21.8383 15.7042 21.8527 12.4952 21.8527C9.28623 21.8527 8.90672 21.8383 7.64331 21.7806C6.47118 21.7278 5.83227 21.5308 5.41433 21.3675C4.85709 21.1513 4.45356 20.8871 4.03082 20.4644C3.60809 20.0416 3.35348 19.6429 3.1277 19.0809C2.96437 18.6581 2.76741 18.0192 2.71457 16.8519C2.65693 15.5885 2.64251 15.209 2.64251 12C2.64251 8.79103 2.65693 8.41153 2.71457 7.14812C2.76741 5.97598 2.96437 5.33707 3.1277 4.91914C3.34388 4.36189 3.60809 3.95837 4.03082 3.53563C4.45356 3.11289 4.85228 2.85829 5.41433 2.63251C5.83707 2.46918 6.47598 2.27222 7.64331 2.21938C8.90672 2.16173 9.28623 2.14732 12.4952 2.14732C15.7042 2.14732 16.0837 2.16173 17.3471 2.21938C18.5192 2.27222 19.1581 2.46918 19.5761 2.63251C20.1333 2.84868 20.5368 3.11289 20.9596 3.53563C21.3823 3.95837 21.6369 4.35709 21.8627 4.91914C22.026 5.34187 22.223 5.98079 22.2758 7.14812C22.3335 8.41153 22.3479 8.79103 22.3479 12C22.3479 15.209 22.3287 15.5885 22.2758 16.8519Z" fill="#252525"/>
<path d="M12.4949 5.83203C9.08419 5.83203 6.32678 8.59424 6.32678 12.0002C6.32678 15.4109 9.08899 18.1683 12.4949 18.1683C15.9008 18.1683 18.6631 15.4013 18.6631 12.0002C18.6631 8.58944 15.9056 5.83203 12.4949 5.83203ZM12.4949 16.0018C10.2851 16.0018 8.49332 14.2099 8.49332 12.0002C8.49332 9.7904 10.2851 7.99856 12.4949 7.99856C14.7047 7.99856 16.4965 9.7904 16.4965 12.0002C16.4965 14.2099 14.7047 16.0018 12.4949 16.0018Z" fill="#252525"/>
<path d="M18.9034 7.0327C19.6994 7.0327 20.3446 6.38747 20.3446 5.59154C20.3446 4.79562 19.6994 4.15039 18.9034 4.15039C18.1075 4.15039 17.4623 4.79562 17.4623 5.59154C17.4623 6.38747 18.1075 7.0327 18.9034 7.0327Z" fill="#252525"/>
</svg>
