<svg width="25" height="24" viewBox="0 0 25 24" fill="none" xmlns="http://www.w3.org/2000/svg">
<path d="M0.5 12C0.5 15.2618 0.514403 15.6701 0.572014 16.948C0.629626 18.2258 0.836067 19.1001 1.12893 19.8639C1.43619 20.6517 1.84427 21.3243 2.5116 21.9872C3.17413 22.6501 3.84627 23.0681 4.63363 23.3707C5.39698 23.6685 6.27075 23.8703 7.54781 23.9279C8.82967 23.9856 9.23775 24 12.4928 24C15.7527 24 16.1607 23.9856 17.4378 23.9279C18.7148 23.8703 19.5886 23.6637 20.352 23.3707C21.1393 23.0633 21.8115 22.6549 22.474 21.9872C23.1365 21.3243 23.5542 20.6517 23.8567 19.8639C24.1543 19.1001 24.356 18.2258 24.4136 16.948C24.4712 15.6653 24.4856 15.257 24.4856 12C24.4856 8.73819 24.4712 8.32986 24.4136 7.05204C24.356 5.77422 24.1495 4.89992 23.8567 4.13611C23.5494 3.34828 23.1413 2.67574 22.474 2.01281C21.8163 1.34508 21.1441 0.931946 20.3568 0.629304C19.5934 0.331465 18.7196 0.129704 17.4426 0.0720576C16.1607 0.0144115 15.7527 0 12.4976 0C9.23775 0 8.82967 0.0144115 7.55261 0.0720576C6.27555 0.129704 5.40178 0.336269 4.63843 0.629304C3.85107 0.93675 3.17894 1.34508 2.5164 2.01281C1.85387 2.68054 1.43619 3.34828 1.13373 4.13611C0.836067 4.89992 0.629626 5.77422 0.572014 7.05204C0.514403 8.32986 0.5 8.73819 0.5 12ZM2.66523 12C2.66523 8.79584 2.67964 8.41153 2.73725 7.14812C2.79006 5.97598 2.9869 5.33707 3.15013 4.91914C3.36617 4.36189 3.63023 3.95837 4.05271 3.53563C4.47519 3.11289 4.87367 2.85829 5.43539 2.63251C5.85787 2.46918 6.4964 2.27222 7.66303 2.21938C8.92568 2.16173 9.30496 2.14732 12.512 2.14732C15.719 2.14732 16.0983 2.16173 17.361 2.21938C18.5324 2.27222 19.1709 2.46918 19.5886 2.63251C20.1455 2.84868 20.5488 3.11289 20.9713 3.53563C21.3938 3.95837 21.6482 4.35709 21.8739 4.91914C22.0371 5.34187 22.2339 5.98079 22.2868 7.14812C22.3444 8.41153 22.3588 8.79103 22.3588 12C22.3588 15.209 22.3444 15.5885 22.2868 16.8519C22.2339 18.024 22.0371 18.6629 21.8739 19.0809C21.6578 19.6381 21.3938 20.0416 20.9713 20.4644C20.5488 20.8871 20.1503 21.1417 19.5886 21.3675C19.1661 21.5308 18.5276 21.7278 17.361 21.7806C16.0983 21.8383 15.719 21.8527 12.512 21.8527C9.30496 21.8527 8.92568 21.8383 7.66303 21.7806C6.4916 21.7278 5.85307 21.5308 5.43539 21.3675C4.87848 21.1513 4.47519 20.8871 4.05271 20.4644C3.63023 20.0416 3.37578 19.6429 3.15013 19.0809C2.9869 18.6581 2.79006 18.0192 2.73725 16.8519C2.67483 15.5885 2.66523 15.2042 2.66523 12Z" fill="black"/>
</svg>
