<svg width="23" height="25" viewBox="0 0 23 25" fill="none" xmlns="http://www.w3.org/2000/svg">
<path fill-rule="evenodd" clip-rule="evenodd" d="M8.47417 8.71553H12.7001V10.9258C13.3089 9.65459 14.87 8.51242 17.2151 8.51242C21.7107 8.51242 22.778 11.0429 22.778 15.6856V24.2841H18.2266V16.743C18.2266 14.099 17.6179 12.608 16.0681 12.608C13.9188 12.608 13.0255 14.2149 13.0255 16.7418V24.2841H8.47417V8.71553ZM0.66969 24.081H5.22107V8.51242H0.66969V24.081ZM5.87305 3.43598C5.87322 3.83655 5.79756 4.23315 5.65048 4.60275C5.50339 4.97234 5.28781 5.30756 5.01626 5.5889C4.466 6.16312 3.72117 6.48454 2.94538 6.48256C2.17095 6.48202 1.42785 6.16142 0.876778 5.5901C0.606211 5.30779 0.391357 4.97221 0.244527 4.60256C0.0976968 4.23292 0.0217771 3.83649 0.0211182 3.43598C0.0211182 2.62715 0.328336 1.85296 0.877915 1.28187C1.4285 0.709783 2.17192 0.389047 2.94652 0.389405C3.72253 0.389405 4.46668 0.710789 5.01626 1.28187C5.5647 1.85296 5.87305 2.62715 5.87305 3.43598Z" fill="white" fill-opacity="0.8"/>
</svg>
