<svg width="27" height="27" viewBox="0 0 27 27" fill="none" xmlns="http://www.w3.org/2000/svg">
<path fill-rule="evenodd" clip-rule="evenodd" d="M7.9293 0.273677C9.33072 0.209161 9.77756 0.194824 13.3474 0.194824C16.9173 0.194824 17.3641 0.210356 18.7644 0.273677C20.1646 0.336998 21.1204 0.560414 21.9567 0.884188C22.8324 1.21513 23.6269 1.73245 24.2841 2.4015C24.9531 3.05741 25.4692 3.85072 25.799 4.72766C26.1239 5.56397 26.3462 6.51976 26.4107 7.9176C26.4752 9.32142 26.4895 9.76825 26.4895 13.3369C26.4895 16.9068 26.474 17.3536 26.4107 18.7551C26.3474 20.1529 26.1239 21.1087 25.799 21.945C25.4692 22.8221 24.9522 23.6167 24.2841 24.2736C23.6269 24.9426 22.8324 25.4587 21.9567 25.7885C21.1204 26.1135 20.1646 26.3357 18.7668 26.4002C17.3641 26.4647 16.9173 26.479 13.3474 26.479C9.77756 26.479 9.33072 26.4635 7.9293 26.4002C6.53146 26.3369 5.57567 26.1135 4.73935 25.7885C3.86232 25.4587 3.0677 24.9417 2.41081 24.2736C1.74221 23.6172 1.22481 22.823 0.894686 21.9462C0.570912 21.1099 0.348691 20.1541 0.284175 18.7563C0.219659 17.3524 0.205322 16.9056 0.205322 13.3369C0.205322 9.76706 0.220854 9.32023 0.284175 7.91999C0.347496 6.51976 0.570912 5.56397 0.894686 4.72766C1.2253 3.85082 1.74309 3.05659 2.412 2.40031C3.06796 1.73185 3.86178 1.21446 4.73815 0.884188C5.57447 0.560414 6.53026 0.338193 7.9281 0.273677H7.9293ZM18.658 2.63926C17.2721 2.57594 16.8564 2.56279 13.3474 2.56279C9.83849 2.56279 9.42272 2.57594 8.03682 2.63926C6.75487 2.6978 6.05953 2.91166 5.59598 3.09206C4.98308 3.33101 4.54461 3.61416 4.08463 4.07414C3.64861 4.49833 3.31305 5.01473 3.10256 5.58548C2.92215 6.04904 2.7083 6.74437 2.64975 8.02633C2.58643 9.41222 2.57329 9.82799 2.57329 13.3369C2.57329 16.8459 2.58643 17.2616 2.64975 18.6475C2.7083 19.9295 2.92215 20.6248 3.10256 21.0884C3.31283 21.6583 3.64855 22.1756 4.08463 22.5997C4.50877 23.0358 5.02609 23.3715 5.59598 23.5818C6.05953 23.7622 6.75487 23.9761 8.03682 24.0346C9.42272 24.0979 9.83729 24.1111 13.3474 24.1111C16.8576 24.1111 17.2721 24.0979 18.658 24.0346C19.94 23.9761 20.6353 23.7622 21.0989 23.5818C21.7118 23.3429 22.1503 23.0597 22.6102 22.5997C23.0463 22.1756 23.382 21.6583 23.5923 21.0884C23.7727 20.6248 23.9866 19.9295 24.0451 18.6475C24.1084 17.2616 24.1216 16.8459 24.1216 13.3369C24.1216 9.82799 24.1084 9.41222 24.0451 8.02633C23.9866 6.74437 23.7727 6.04904 23.5923 5.58548C23.3534 4.97258 23.0702 4.53411 22.6102 4.07414C22.186 3.63814 21.6696 3.30259 21.0989 3.09206C20.6353 2.91166 19.94 2.6978 18.658 2.63926ZM11.6688 17.3883C12.6063 17.7785 13.6502 17.8312 14.6221 17.5373C15.5941 17.2434 16.4339 16.6212 16.9981 15.7769C17.5623 14.9326 17.8158 13.9186 17.7154 12.9081C17.6151 11.8977 17.167 10.9534 16.4478 10.2366C15.9893 9.77838 15.4349 9.42753 14.8245 9.20929C14.2142 8.99105 13.563 8.91086 12.9179 8.97449C12.2728 9.03811 11.6499 9.24397 11.0939 9.57725C10.538 9.91053 10.0628 10.3629 9.70265 10.9019C9.34251 11.4408 9.10634 12.0529 9.01115 12.6941C8.91596 13.3353 8.96412 13.9896 9.15216 14.6099C9.3402 15.2303 9.66344 15.8012 10.0986 16.2816C10.5338 16.762 11.0701 17.14 11.6688 17.3883ZM8.57087 8.56037C9.19814 7.93311 9.94281 7.43553 10.7624 7.09606C11.5819 6.75658 12.4603 6.58186 13.3474 6.58186C14.2345 6.58186 15.1129 6.75658 15.9325 7.09606C16.752 7.43553 17.4967 7.93311 18.124 8.56037C18.7513 9.18764 19.2488 9.93231 19.5883 10.7519C19.9278 11.5714 20.1025 12.4498 20.1025 13.3369C20.1025 14.224 19.9278 15.1024 19.5883 15.922C19.2488 16.7416 18.7513 17.4862 18.124 18.1135C16.8572 19.3803 15.139 20.092 13.3474 20.092C11.5559 20.092 9.83769 19.3803 8.57087 18.1135C7.30405 16.8467 6.59236 15.1285 6.59236 13.3369C6.59236 11.5454 7.30405 9.8272 8.57087 8.56037ZM21.6007 7.58786C21.7561 7.44123 21.8806 7.2649 21.9666 7.06931C22.0527 6.87372 22.0987 6.66285 22.1018 6.44919C22.1049 6.23552 22.0651 6.02341 21.9848 5.82539C21.9044 5.62738 21.7852 5.4475 21.6341 5.2964C21.483 5.1453 21.3031 5.02605 21.1051 4.94572C20.9071 4.86538 20.695 4.8256 20.4813 4.82871C20.2676 4.83183 20.0568 4.87778 19.8612 4.96385C19.6656 5.04992 19.4893 5.17436 19.3426 5.3298C19.0574 5.63211 18.9013 6.03365 18.9074 6.44919C18.9134 6.86473 19.0812 7.26155 19.3751 7.55541C19.6689 7.84927 20.0657 8.01704 20.4813 8.0231C20.8968 8.02916 21.2984 7.87303 21.6007 7.58786Z" fill="white" fill-opacity="0.8"/>
</svg>
