<svg width="512" height="512" viewBox="0 0 512 512" fill="none" xmlns="http://www.w3.org/2000/svg">
<path fill-rule="evenodd" clip-rule="evenodd" d="M37.781 0.0381776H474.069V0.00324376C494.729 -0.265924 511.705 16.2504 512 36.9113V475.05C511.714 495.721 494.739 512.253 474.069 511.997H37.781C17.1512 512.214 0.243038 495.68 0 475.05V36.9429C0.251654 16.3228 17.1612 -0.194523 37.781 0.0381776ZM69.8802 114.522C69.8846 138.836 89.5983 158.543 113.912 158.539C125.588 158.537 136.785 153.896 145.039 145.639C153.294 137.381 157.93 126.182 157.928 114.506C157.924 90.1917 138.21 70.4846 113.896 70.489C89.5825 70.4934 69.8758 90.2075 69.8802 114.522ZM360.386 436.256H436.248L436.28 302.23C436.28 236.434 422.103 185.858 345.213 185.858C315.819 184.767 288.207 199.932 273.357 225.323H272.338V191.935H199.51V436.249H275.372V315.388C275.372 283.517 281.418 252.65 320.929 252.65C359.88 252.65 360.386 289.12 360.386 317.45V436.256ZM151.843 436.256H75.9018V191.935H151.843V436.256Z" fill="#E3F7FC"/>
</svg>
