<svg width="145" height="64" viewBox="0 0 145 64" fill="none" xmlns="http://www.w3.org/2000/svg">
<path fill-rule="evenodd" clip-rule="evenodd" d="M0 0H4.1735V22.2609H8.34783V0H12.5217L36.1593 0.0709794C45.1318 0.0709794 57.0435 4.7205 57.0435 24.3478C57.0435 35.1741 53.765 41.6765 49.1308 45.3312C51.2475 50.4137 52.5218 56.5668 52.5218 64H40C40 59.2338 38.9783 54.0496 36.5105 49.3893C36.3982 49.3906 36.286 49.3913 36.1739 49.3913H20.8696V45.2174H33.7724C29.4769 39.8717 22.6762 35.8231 12.5217 34.9556V64H0V0ZM4.1735 59.8261V26.4348H8.34783V59.8261H4.1735ZM12.5217 30.7681L12.5217 26.4348C22.2846 26.4348 36.4402 31.9069 43.6924 43.6883C42.3386 44.3178 40.9284 44.7171 39.5316 44.9492C34.5593 37.5739 25.5785 31.7866 12.5217 30.7681ZM52.8696 24.3478C52.8696 33.0912 50.4867 38.3188 47.1903 41.3554C38.3267 25.6899 20.725 22.2609 12.5217 22.2609L12.5217 4.17391H36.1593C42.8887 4.17391 52.8696 6.96362 52.8696 24.3478ZM41.7032 48.7957C43.0605 48.4861 44.3916 48.0461 45.6675 47.4535C47.261 51.0793 48.2349 55.1975 48.3478 59.8261H44.1739C44.1739 56.1312 43.3525 52.3545 41.7032 48.7957Z" fill="#210440"/>
<path d="M98.6212 23.3224C99.0386 23.7064 99.5561 23.8984 100.174 23.8984C100.792 23.8984 101.301 23.7064 101.702 23.3224C102.119 22.9217 102.328 22.4292 102.328 21.8449C102.328 21.2605 102.119 20.7764 101.702 20.3924C101.301 19.9917 100.792 19.7913 100.174 19.7913C99.5561 19.7913 99.0386 19.9917 98.6212 20.3924C98.2205 20.7764 98.0201 21.2605 98.0201 21.8449C98.0201 22.4292 98.2205 22.9217 98.6212 23.3224Z" fill="#210440"/>
<path d="M98.3958 39.4254H101.902V25.5513H98.3958V39.4254Z" fill="#210440"/>
<path fill-rule="evenodd" clip-rule="evenodd" d="M74.3952 39.4254L70.5385 32.6136H68.8856V39.4254H65.3795V21.945H71.9409C73.2932 21.945 74.4452 22.1871 75.3969 22.6713C76.3485 23.1388 77.0581 23.7816 77.5256 24.5997C78.0098 25.401 78.2519 26.3026 78.2519 27.3044C78.2519 28.4564 77.9179 29.4998 77.2501 30.4348C76.5823 31.353 75.5889 31.9875 74.2699 32.3381L78.4522 39.4254H74.3952ZM68.8856 29.984H71.8157C72.7673 29.984 73.4769 29.7586 73.9444 29.3078C74.4118 28.8404 74.6456 28.1976 74.6456 27.3795C74.6456 26.5781 74.4118 25.9604 73.9444 25.5263C73.4769 25.0755 72.7673 24.8501 71.8157 24.8501H68.8856V29.984Z" fill="#210440"/>
<path fill-rule="evenodd" clip-rule="evenodd" d="M80.5214 32.4383C80.5214 31.0358 80.7969 29.792 81.3478 28.7068C81.9155 27.6216 82.6752 26.7868 83.6268 26.2024C84.5951 25.6181 85.672 25.3259 86.8574 25.3259C87.8925 25.3259 88.7941 25.5346 89.5621 25.952C90.3468 26.3694 90.9729 26.8953 91.4404 27.5297V25.5513H94.9715V39.4254H91.4404V37.3969C90.9896 38.048 90.3635 38.5906 89.5621 39.0247C88.7774 39.4421 87.8675 39.6508 86.8324 39.6508C85.6637 39.6508 84.5951 39.3503 83.6268 38.7492C82.6752 38.1482 81.9155 37.305 81.3478 36.2198C80.7969 35.1179 80.5214 33.8574 80.5214 32.4383ZM91.4404 32.4883C91.4404 31.6369 91.2734 30.9106 90.9395 30.3096C90.6056 29.6918 90.1548 29.2244 89.5872 28.9071C89.0195 28.5732 88.4101 28.4063 87.759 28.4063C87.1078 28.4063 86.5068 28.5649 85.9558 28.8821C85.4049 29.1993 84.9541 29.6668 84.6035 30.2845C84.2696 30.8856 84.1026 31.6035 84.1026 32.4383C84.1026 33.273 84.2696 34.0077 84.6035 34.6421C84.9541 35.2598 85.4049 35.7357 85.9558 36.0696C86.5235 36.4035 87.1245 36.5704 87.759 36.5704C88.4101 36.5704 89.0195 36.4118 89.5872 36.0946C90.1548 35.7607 90.6056 35.2932 90.9395 34.6922C91.2734 34.0744 91.4404 33.3398 91.4404 32.4883Z" fill="#210440"/>
<path d="M110.675 39.6508C109.54 39.6508 108.521 39.4504 107.62 39.0497C106.718 38.6324 106 38.073 105.466 37.3718C104.949 36.6706 104.665 35.8943 104.615 35.0428H108.146C108.213 35.577 108.471 36.0195 108.922 36.3701C109.39 36.7207 109.966 36.896 110.65 36.896C111.318 36.896 111.835 36.7624 112.203 36.4953C112.587 36.2282 112.779 35.8859 112.779 35.4685C112.779 35.0177 112.545 34.6838 112.078 34.4668C111.627 34.233 110.901 33.9826 109.899 33.7155C108.864 33.465 108.012 33.2063 107.344 32.9391C106.693 32.672 106.126 32.263 105.641 31.712C105.174 31.161 104.94 30.4181 104.94 29.4831C104.94 28.7151 105.157 28.0139 105.591 27.3795C106.042 26.745 106.677 26.2442 107.495 25.8769C108.329 25.5096 109.306 25.3259 110.425 25.3259C112.078 25.3259 113.397 25.7433 114.382 26.5781C115.367 27.3962 115.909 28.5064 116.009 29.9089H112.654C112.603 29.3579 112.37 28.9238 111.952 28.6066C111.552 28.2727 111.009 28.1057 110.325 28.1057C109.69 28.1057 109.198 28.2226 108.847 28.4564C108.513 28.6901 108.346 29.0157 108.346 29.433C108.346 29.9005 108.58 30.2595 109.047 30.5099C109.515 30.7437 110.241 30.9857 111.226 31.2362C112.228 31.4866 113.054 31.7454 113.705 32.0125C114.357 32.2797 114.916 32.6971 115.383 33.2647C115.867 33.8157 116.118 34.5503 116.135 35.4685C116.135 36.2699 115.909 36.9878 115.458 37.6223C115.024 38.2567 114.39 38.7576 113.555 39.1249C112.737 39.4755 111.777 39.6508 110.675 39.6508Z" fill="#210440"/>
<path fill-rule="evenodd" clip-rule="evenodd" d="M131.81 33.5402C131.877 33.1395 131.91 32.6887 131.91 32.1878C131.91 30.8355 131.618 29.6417 131.034 28.6066C130.466 27.5548 129.656 26.745 128.604 26.1774C127.569 25.6097 126.392 25.3259 125.073 25.3259C123.704 25.3259 122.494 25.6181 121.442 26.2024C120.39 26.7868 119.572 27.6216 118.988 28.7068C118.403 29.792 118.111 31.0525 118.111 32.4883C118.111 33.9075 118.403 35.1597 118.988 36.2449C119.589 37.3301 120.415 38.1732 121.467 38.7743C122.535 39.3586 123.738 39.6508 125.073 39.6508C126.726 39.6508 128.12 39.225 129.255 38.3736C130.391 37.5054 131.159 36.4035 131.559 35.0678H127.778C127.227 36.1864 126.3 36.7457 124.998 36.7457C124.096 36.7457 123.337 36.4619 122.719 35.8943C122.101 35.3266 121.751 34.5419 121.667 33.5402H131.81ZM127.302 29.0324C127.936 29.5666 128.262 30.2845 128.279 31.1861H121.692C121.826 30.2511 122.185 29.5249 122.769 29.0073C123.37 28.473 124.105 28.2059 124.973 28.2059C125.891 28.2059 126.668 28.4814 127.302 29.0324Z" fill="#210440"/>
<path d="M71.415 63.9485C70.1962 63.9485 69.0943 63.7398 68.1092 63.3224C67.1409 62.905 66.3729 62.304 65.8052 61.5193C65.2376 60.7346 64.9454 59.808 64.9287 58.7395H68.6852C68.7353 59.4574 68.9858 60.025 69.4365 60.4424C69.904 60.8598 70.5385 61.0685 71.3399 61.0685C72.1579 61.0685 72.8007 60.8765 73.2682 60.4925C73.7357 60.0918 73.9694 59.5743 73.9694 58.9398C73.9694 58.4223 73.8108 57.9965 73.4936 57.6626C73.1764 57.3287 72.7757 57.0699 72.2915 56.8863C71.824 56.6859 71.1729 56.4689 70.3381 56.2351C69.2028 55.9012 68.2762 55.5757 67.5583 55.2584C66.8571 54.9245 66.2477 54.432 65.7301 53.7809C65.2292 53.113 64.9788 52.2282 64.9788 51.1263C64.9788 50.0911 65.2376 49.1896 65.7551 48.4216C66.2727 47.6536 66.999 47.0692 67.9339 46.6685C68.8689 46.2511 69.9374 46.0424 71.1395 46.0424C72.9426 46.0424 74.4035 46.4849 75.5221 47.3697C76.6574 48.2379 77.2835 49.4567 77.4004 51.0261H73.5437C73.5103 50.425 73.2515 49.9325 72.7673 49.5485C72.2998 49.1478 71.6738 48.9475 70.8891 48.9475C70.2045 48.9475 69.6536 49.1228 69.2362 49.4734C68.8355 49.824 68.6351 50.3332 68.6351 51.001C68.6351 51.4685 68.7854 51.8609 69.0859 52.1781C69.4031 52.4786 69.7871 52.729 70.2379 52.9294C70.7054 53.113 71.3565 53.3301 72.1913 53.5805C73.3266 53.9144 74.2532 54.2483 74.9711 54.5823C75.6891 54.9162 76.3068 55.417 76.8244 56.0849C77.3419 56.7527 77.6007 57.6292 77.6007 58.7144C77.6007 59.6494 77.3586 60.5176 76.8745 61.319C76.3903 62.1204 75.6807 62.7631 74.7458 63.2473C73.8108 63.7148 72.7005 63.9485 71.415 63.9485Z" fill="#210440"/>
<path d="M84.7225 59.4908V52.7791H87.8278V49.8991H84.7225V46.4682H81.1913V49.8991H79.5385V52.7791H81.1913V59.4657C81.1913 62.3374 82.6689 63.7732 85.624 63.7732H87.8278V60.8181H86.2C85.6658 60.8181 85.2818 60.7179 85.048 60.5176C84.831 60.3005 84.7225 59.9583 84.7225 59.4908Z" fill="#210440"/>
<path d="M103.447 49.8991V63.7732H99.9162V62.0202C99.4654 62.6212 98.8727 63.097 98.1381 63.4477C97.4202 63.7816 96.6355 63.9485 95.784 63.9485C94.6988 63.9485 93.7388 63.7231 92.904 63.2724C92.0693 62.8049 91.4098 62.1287 90.9256 61.2438C90.4581 60.3423 90.2244 59.2737 90.2244 58.0383V49.8991H93.7305V57.5374C93.7305 58.6393 94.006 59.4908 94.5569 60.0918C95.1079 60.6762 95.8592 60.9684 96.8108 60.9684C97.7792 60.9684 98.5388 60.6762 99.0898 60.0918C99.6407 59.4908 99.9162 58.6393 99.9162 57.5374V49.8991H103.447Z" fill="#210440"/>
<path fill-rule="evenodd" clip-rule="evenodd" d="M106.832 53.0546C106.281 54.1398 106.005 55.3837 106.005 56.7861C106.005 58.2052 106.281 59.4657 106.832 60.5677C107.399 61.6529 108.167 62.496 109.136 63.097C110.104 63.6981 111.172 63.9986 112.341 63.9986C113.376 63.9986 114.286 63.7899 115.071 63.3725C115.856 62.9551 116.465 62.4042 116.899 61.7197V63.7732H120.455V45.241H116.899V51.8275C116.415 51.1764 115.764 50.6588 114.946 50.2748C114.128 49.8741 113.268 49.6737 112.366 49.6737C111.181 49.6737 110.104 49.9659 109.136 50.5503C108.167 51.1346 107.399 51.9694 106.832 53.0546ZM116.423 54.6574C116.757 55.2584 116.924 55.9847 116.924 56.8362C116.924 57.6877 116.757 58.4223 116.423 59.04C116.089 59.641 115.638 60.1085 115.071 60.4424C114.503 60.7597 113.894 60.9183 113.243 60.9183C112.608 60.9183 112.007 60.7513 111.44 60.4174C110.889 60.0835 110.438 59.6077 110.087 58.9899C109.753 58.3555 109.586 57.6209 109.586 56.7861C109.586 55.9513 109.753 55.2334 110.087 54.6323C110.438 54.0146 110.889 53.5471 111.44 53.2299C111.991 52.9127 112.592 52.7541 113.243 52.7541C113.894 52.7541 114.503 52.921 115.071 53.255C115.638 53.5722 116.089 54.0397 116.423 54.6574Z" fill="#210440"/>
<path d="M125.658 48.2463C125.04 48.2463 124.522 48.0543 124.105 47.6703C123.704 47.2696 123.504 46.777 123.504 46.1927C123.504 45.6084 123.704 45.1242 124.105 44.7402C124.522 44.3395 125.04 44.1391 125.658 44.1391C126.275 44.1391 126.785 44.3395 127.185 44.7402C127.603 45.1242 127.811 45.6084 127.811 46.1927C127.811 46.777 127.603 47.2696 127.185 47.6703C126.785 48.0543 126.275 48.2463 125.658 48.2463Z" fill="#210440"/>
<path d="M127.386 49.8991V63.7732H123.88V49.8991H127.386Z" fill="#210440"/>
<path fill-rule="evenodd" clip-rule="evenodd" d="M133.404 63.1221C134.473 63.7064 135.675 63.9986 137.01 63.9986C138.363 63.9986 139.581 63.7064 140.667 63.1221C141.769 62.521 142.637 61.6779 143.271 60.5927C143.922 59.5075 144.248 58.2553 144.248 56.8362C144.248 55.417 143.931 54.1649 143.296 53.0797C142.678 51.9944 141.827 51.1597 140.742 50.5753C139.657 49.9743 138.446 49.6737 137.11 49.6737C135.775 49.6737 134.564 49.9743 133.479 50.5753C132.394 51.1597 131.534 51.9944 130.9 53.0797C130.282 54.1649 129.973 55.417 129.973 56.8362C129.973 58.2553 130.274 59.5075 130.875 60.5927C131.492 61.6779 132.336 62.521 133.404 63.1221ZM138.788 60.4925C138.237 60.793 137.645 60.9433 137.01 60.9433C136.009 60.9433 135.174 60.5927 134.506 59.8915C133.855 59.1736 133.529 58.1551 133.529 56.8362C133.529 55.5172 133.863 54.5071 134.531 53.8059C135.216 53.088 136.059 52.729 137.06 52.729C138.062 52.729 138.905 53.088 139.59 53.8059C140.291 54.5071 140.642 55.5172 140.642 56.8362C140.642 57.7211 140.475 58.4724 140.141 59.0901C139.807 59.7078 139.356 60.1753 138.788 60.4925Z" fill="#210440"/>
</svg>
