<svg width="217" height="71" viewBox="0 0 217 71" fill="none" xmlns="http://www.w3.org/2000/svg">
<path fill-rule="evenodd" clip-rule="evenodd" d="M25.9544 2.24153C22.0549 5.20512 15.175 12.3174 11.616 17.064C6.65798 23.6762 5.47748 27.3793 7.50598 29.9584C8.89397 31.723 10.854 32.023 14.697 31.0595C20.8839 29.5079 21.7184 30.6569 18.7559 36.6506C16.3984 41.4213 9.60097 48.638 4.00299 52.3132C1.80149 53.7587 0 55.0247 0 55.1262C0 55.2277 1.144 54.8767 2.54199 54.3452C11.6535 50.8831 22.0294 41.1203 23.7829 34.3601C24.5914 31.2435 24.0099 28.7894 22.1079 27.2888C20.7044 26.1818 19.2424 26.1543 12.625 27.1118C11.4065 27.2883 10.5 27.2178 10.5 26.9468C10.5 25.2728 19.0074 12.8574 25.4074 5.19112C27.6939 2.45253 29.4734 0.119955 29.3619 0.00845153C29.2504 -0.103052 27.7169 0.901982 25.9544 2.24153ZM54.7498 18.5781C53.6498 18.9406 52.1308 19.2546 51.3748 19.2756C49.6578 19.3236 49.5793 20.1001 51.2498 20.5196C52.0733 20.7261 52.4998 21.1821 52.4998 21.8557C52.4998 22.8677 50.0343 31.463 46.7153 42.0223C44.9264 47.7145 44.5829 50.6981 45.5999 51.7151C45.9299 52.0451 47.0128 52.3152 48.0063 52.3152C50.2303 52.3152 52.1153 50.5311 53.2303 47.37C54.1233 44.8394 54.1268 44.8149 53.6003 44.8149C53.3803 44.8149 52.8968 45.6589 52.5258 46.69C51.2153 50.3316 49.4058 51.9546 48.7018 50.1201C48.5553 49.7381 49.7083 45.0689 51.2648 39.7447C56.7223 21.0721 57.4998 18.373 57.4998 18.0945C57.4998 17.727 57.1408 17.79 54.7498 18.5781ZM206.249 18.5781C205.149 18.9406 203.63 19.2546 202.874 19.2756C201.5 19.3141 200.863 20.3141 202.214 20.3141C202.606 20.3141 203.265 20.6516 203.678 21.0646C204.345 21.7317 204.327 22.1612 203.515 24.9398C201.379 32.2485 195.943 50.6161 195.746 51.1901C195.598 51.6186 196.131 51.8151 197.438 51.8151H199.345L200.466 47.94C202.654 40.3798 207.515 31.8345 210.196 30.8375C213.211 29.7164 213.176 31.549 209.999 41.1673C207.395 49.051 207.096 50.7121 208.099 51.7151C208.964 52.5802 212.08 52.4527 213.446 51.4961C214.089 51.0456 215.152 49.4641 215.807 47.9815C217.149 44.9484 217.18 44.8149 216.541 44.8149C216.288 44.8149 215.699 45.8164 215.232 47.0405C214.255 49.6001 212.865 51.0621 211.799 50.6531C210.954 50.3291 211.693 47.267 214.788 38.2717C216.727 32.635 216.806 31.9745 215.721 30.4259C215.126 29.5764 214.446 29.3144 212.837 29.3144C210.012 29.3144 207.404 31.1435 205.504 34.4576C204.681 35.8916 204.007 36.8206 204.004 36.5226C204.001 36.2246 205.124 32.103 206.499 27.3638C207.874 22.6242 208.999 18.5366 208.999 18.28C208.999 17.716 208.798 17.738 206.249 18.5781ZM68.9608 19.4511C66.7203 20.9611 65.3073 23.1487 64.2123 26.8033L63.3103 29.8144H61.1258C59.7963 29.8144 59.0618 30.0104 59.2498 30.3144C59.4198 30.5894 60.3483 30.8145 61.3128 30.8145C62.7483 30.8145 63.0203 30.9735 62.8093 31.6895C59.9188 41.5048 55.3508 59.3329 55.6498 59.6319C55.7818 59.7639 56.6298 59.6809 57.5338 59.4464C59.3818 58.9674 59.0633 59.8854 64.2998 39.9397L66.6953 30.8145H69.0678C70.3728 30.8145 71.5798 30.5894 71.7498 30.3144C71.9388 30.0089 71.1718 29.8144 69.7793 29.8144C67.0618 29.8144 67.0043 29.5684 68.5303 24.4918C69.1513 22.4262 70.0563 20.6171 70.8083 19.9391C72.9728 17.9865 75.5213 18.7926 73.5178 20.7961C71.1428 23.1712 73.3563 25.3478 76.0913 23.3257C77.8642 22.0147 78.9997 22.3102 78.9997 24.0827C78.9997 26.5288 73.3118 47.9065 72.1863 49.6901C71.7618 50.3631 70.9788 50.8151 70.2383 50.8151C69.5573 50.8151 68.9998 51.0401 68.9998 51.3151C68.9998 51.6166 71.0833 51.8151 74.2498 51.8151C77.4163 51.8151 79.4997 51.6166 79.4997 51.3151C79.4997 51.0401 79.0427 50.8151 78.4842 50.8151C77.9252 50.8151 77.3228 50.4361 77.1453 49.9731C76.8003 49.074 79.3287 38.4867 80.1387 37.4397C80.4812 36.9972 82.5012 36.8146 87.0607 36.8146C92.4187 36.8146 93.4997 36.9392 93.4997 37.5562C93.4997 37.9642 92.8152 40.8333 91.9792 43.9314C90.4842 49.4696 89.6937 50.8151 87.9337 50.8151C87.4522 50.8151 86.9197 51.0401 86.7497 51.3151C86.5507 51.6371 88.4112 51.8151 91.9702 51.8151C95.0477 51.8151 97.4997 51.6086 97.4997 51.3501C97.4997 51.0941 96.9937 50.8126 96.3747 50.7251C95.6602 50.6236 95.1927 50.1631 95.0932 49.4641C95.0067 48.858 95.9752 44.3579 97.2447 39.4637C101.486 23.1137 101.814 22.3142 104.285 22.3142C104.953 22.3142 105.5 22.0892 105.5 21.8142C105.5 21.5112 103.333 21.3141 99.9997 21.3141C94.7932 21.3141 92.9877 21.8262 95.7497 22.5197C97.2372 22.8927 97.3762 24.3157 96.2947 28.0984C95.9067 29.4549 95.2252 31.8585 94.7807 33.4395L93.9717 36.3146H87.2357C83.1547 36.3146 80.4997 36.1206 80.4997 35.8231C80.4997 35.5526 81.1812 32.796 82.0142 29.6979C83.5582 23.9562 84.5682 22.3142 86.5552 22.3142C87.0747 22.3142 87.4997 22.0892 87.4997 21.8142C87.4997 21.5127 85.4162 21.3141 82.2497 21.3141C78.1852 21.3141 76.9998 21.1621 76.9998 20.6416C76.9998 18.2345 71.8888 17.4775 68.9608 19.4511ZM109.25 21.8142C109.08 22.0892 109.376 22.3142 109.909 22.3142C112.521 22.3142 112.37 23.4617 107.421 41.3148C105.145 49.5281 104.51 50.8151 102.738 50.8151C102.057 50.8151 101.5 51.0401 101.5 51.3151C101.5 51.6331 105.497 51.8151 112.49 51.8151H123.481L123.792 50.4401C123.963 49.6841 124.408 47.837 124.781 46.3365C125.154 44.8354 125.325 43.4854 125.161 43.3364C124.997 43.1869 124.776 43.2899 124.669 43.5649C123.596 46.332 121.504 49.1881 120 49.9391C117.611 51.1326 110.115 51.1981 109.667 50.0296C109.375 49.2681 111.701 39.4562 112.593 37.6897C113.232 36.4246 116.218 36.5331 117.555 37.8697C118.408 38.7232 118.551 39.2962 118.299 40.8698C117.943 43.0949 118.811 43.6004 119.278 41.4398C119.441 40.6838 120.12 38.0857 120.787 35.6671C121.454 33.2485 122 31.0415 122 30.7625C122 29.8394 120.996 30.857 120.311 32.4735C119.941 33.3485 119.174 34.4776 118.608 34.9821C117.44 36.0216 113.786 36.6826 113.326 35.9381C112.803 35.0916 116.302 23.6972 117.318 22.9367C117.982 22.4407 119.378 22.2882 122.169 22.4077C126.81 22.6067 127.651 23.2927 127.404 26.6773C127.319 27.8394 127.452 28.8519 127.699 28.9274C128.106 29.0514 129.94 23.4382 129.982 21.9392C130.004 21.1461 109.738 21.0236 109.25 21.8142ZM145.973 24.4392C136.384 38.2402 127.871 49.7146 126.793 50.2916C124.643 51.4426 125.304 51.8151 129.5 51.8151C131.833 51.8151 133.5 51.6066 133.5 51.3151C133.5 51.0401 133.095 50.8151 132.6 50.8151C131.465 50.8151 130.5 49.8716 130.5 48.762C130.5 48.2925 131.659 46.193 133.076 44.0954L135.652 40.2823L146.25 40.5648L146.395 44.9894C146.552 49.7901 146.164 50.8151 144.189 50.8151C143.535 50.8151 143 51.0401 143 51.3151C143 51.6131 144.916 51.8151 147.75 51.8151C150.362 51.8151 152.5 51.6641 152.5 51.4796C152.5 51.2951 152.138 50.7441 151.696 50.2551C151.05 49.5421 150.711 46.6225 149.978 35.4651C149.476 27.8199 149.051 21.5082 149.032 21.4391C148.859 20.7786 147.784 21.8327 145.973 24.4392ZM162.749 21.8142C162.579 22.0892 162.876 22.3142 163.409 22.3142C165.286 22.3142 165.618 23.4572 164.74 26.8958C162.109 37.2002 158.796 48.721 158.185 49.6901C157.769 50.3511 156.978 50.8151 156.268 50.8151C155.603 50.8151 154.92 51.0401 154.75 51.3151C154.547 51.6426 158.324 51.8151 165.71 51.8151H176.98L177.292 50.4401C177.463 49.6841 177.93 47.7465 178.329 46.1345C178.729 44.5229 178.899 43.0604 178.709 42.8843C178.518 42.7088 178.253 42.8743 178.118 43.2524C177.115 46.0789 175.04 49.062 173.507 49.8826C171.158 51.1401 163.631 51.2406 163.163 50.0211C162.828 49.1481 168.697 26.4068 169.834 24.1722C170.284 23.2892 171.082 22.6727 172.021 22.4847C172.834 22.3222 173.499 21.9922 173.499 21.7517C173.499 21.1381 163.13 21.1981 162.749 21.8142ZM190.596 23.2437C190.237 23.4717 189.55 24.9868 189.069 26.6113L188.195 29.5644L186.086 29.7189C183.749 29.8899 183.701 30.8145 186.029 30.8145C186.838 30.8145 187.499 31.061 187.499 31.3625C187.499 31.664 186.487 35.4916 185.249 39.8687C182.766 48.6535 182.644 49.5861 183.778 51.2036C184.67 52.4782 187.553 52.7247 189.766 51.7166C191.095 51.1111 192.583 48.708 193.188 46.19C193.684 44.1259 193.084 44.5344 192.039 46.9715C191.531 48.1575 190.735 49.5076 190.271 49.9716C189.215 51.0281 187.066 51.0696 186.671 50.0406C186.507 49.6151 187.564 45.1149 189.02 40.0403L191.666 30.8145H194.303C195.753 30.8145 197.079 30.5894 197.249 30.3144C197.441 30.0039 196.501 29.8144 194.769 29.8144H191.98L192.313 28.4394C192.497 27.6834 192.929 26.1083 193.274 24.9393C193.901 22.8147 193.901 22.8142 192.575 22.8217C191.846 22.8262 190.955 23.0157 190.596 23.2437ZM27.2854 24.5998C26.3429 25.5428 26.2589 27.8079 27.1249 28.9414C27.4689 29.3914 28.3574 29.9059 29.0999 30.0849C31.0354 30.5514 33.2404 28.3404 32.7574 26.4168C32.5714 25.6763 32.1849 24.7873 31.8984 24.4422C31.1659 23.5592 28.2254 23.6602 27.2854 24.5998ZM145.95 35.6896L146 39.3147H136.432L139.004 35.6896C140.419 33.6955 142.403 30.89 143.413 29.4549L145.25 26.8453L145.575 29.4549C145.754 30.89 145.923 33.6955 145.95 35.6896ZM35.9849 30.2919C31.1084 32.871 26.9324 39.7127 26.5959 45.6744C26.3999 49.147 26.4499 49.3416 27.9074 50.7996C29.1569 52.0491 29.8279 52.3152 31.7314 52.3152C34.4994 52.3152 37.3734 50.9541 39.2074 48.774C40.9944 46.6505 40.3959 46.237 38.3674 48.1935C36.7804 49.7246 34.6379 50.8151 33.2174 50.8151C31.5354 50.8151 30.4999 48.911 30.4999 45.8199V42.8248L33.6919 41.3773C38.1389 39.3607 41.7209 36.9222 42.7204 35.2296C43.7459 33.494 43.8809 31.126 43.0144 30.0819C42.1269 29.0129 38.1804 29.1309 35.9849 30.2919ZM40.1539 33.001C39.7524 35.1171 38.8299 36.8506 37.4224 38.1332C36.0349 39.3977 32.0109 41.4923 31.6539 41.1353C30.5984 40.0803 35.0404 32.3855 37.6119 30.815C39.1094 29.9004 39.3014 29.8844 39.8499 30.6259C40.1959 31.0935 40.3244 32.1005 40.1539 33.001Z" fill="#E3F7FC"/>
<path d="M8.8254 68.7749C8.29207 68.7749 7.79541 68.6849 7.33541 68.5049C6.88208 68.3249 6.48875 68.0749 6.15541 67.7549C5.82208 67.4282 5.56208 67.0482 5.37542 66.6149C5.18875 66.1815 5.09542 65.7082 5.09542 65.1948C5.09542 64.6815 5.18875 64.2081 5.37542 63.7748C5.56208 63.3414 5.82208 62.9648 6.15541 62.6447C6.48875 62.3181 6.88208 62.0647 7.33541 61.8847C7.78874 61.7047 8.28541 61.6147 8.8254 61.6147C9.35874 61.6147 9.84873 61.7047 10.2954 61.8847C10.7487 62.0581 11.1421 62.3081 11.4754 62.6347C11.8154 62.9548 12.0754 63.3314 12.2554 63.7648C12.4421 64.1981 12.5354 64.6748 12.5354 65.1948C12.5354 65.7148 12.4421 66.1915 12.2554 66.6249C12.0754 67.0582 11.8154 67.4382 11.4754 67.7649C11.1421 68.0849 10.7487 68.3349 10.2954 68.5149C9.84873 68.6883 9.35874 68.7749 8.8254 68.7749ZM8.8254 67.8849C9.21207 67.8849 9.56874 67.8182 9.8954 67.6849C10.2287 67.5516 10.5154 67.3649 10.7554 67.1249C11.0021 66.8782 11.1921 66.5915 11.3254 66.2649C11.4654 65.9382 11.5354 65.5815 11.5354 65.1948C11.5354 64.8081 11.4654 64.4515 11.3254 64.1248C11.1921 63.7981 11.0021 63.5148 10.7554 63.2748C10.5154 63.0281 10.2287 62.8381 9.8954 62.7047C9.56874 62.5714 9.21207 62.5047 8.8254 62.5047C8.43207 62.5047 8.06874 62.5714 7.73541 62.7047C7.40874 62.8381 7.12208 63.0281 6.87541 63.2748C6.62874 63.5148 6.43541 63.7981 6.29541 64.1248C6.16208 64.4515 6.09541 64.8081 6.09541 65.1948C6.09541 65.5815 6.16208 65.9382 6.29541 66.2649C6.43541 66.5915 6.62874 66.8782 6.87541 67.1249C7.12208 67.3649 7.40874 67.5516 7.73541 67.6849C8.06874 67.8182 8.43207 67.8849 8.8254 67.8849Z" fill="#E3F7FC"/>
<path d="M17.2538 63.3448C17.6871 63.3448 18.0671 63.4281 18.3938 63.5948C18.7271 63.7614 18.9871 64.0148 19.1738 64.3548C19.3605 64.6948 19.4538 65.1248 19.4538 65.6448V68.6949H18.4938V65.7548C18.4938 65.2415 18.3671 64.8548 18.1138 64.5948C17.8671 64.3348 17.5171 64.2048 17.0638 64.2048C16.7238 64.2048 16.4272 64.2715 16.1738 64.4048C15.9205 64.5381 15.7238 64.7348 15.5838 64.9948C15.4505 65.2548 15.3838 65.5782 15.3838 65.9648V68.6949H14.4238V63.3948H15.3438V64.8248L15.1938 64.4448C15.3672 64.0981 15.6338 63.8281 15.9938 63.6348C16.3538 63.4414 16.7738 63.3448 17.2538 63.3448Z" fill="#E3F7FC"/>
<path d="M21.7304 68.6949V61.2747H22.6904V68.6949H21.7304Z" fill="#E3F7FC"/>
<path d="M25.0234 68.6949V63.3948H25.9834V68.6949H25.0234ZM25.5034 62.3747C25.3167 62.3747 25.1601 62.3147 25.0334 62.1947C24.9134 62.0747 24.8534 61.9281 24.8534 61.7547C24.8534 61.5747 24.9134 61.4247 25.0334 61.3047C25.1601 61.1847 25.3167 61.1247 25.5034 61.1247C25.6901 61.1247 25.8434 61.1847 25.9634 61.3047C26.0901 61.418 26.1534 61.5614 26.1534 61.7347C26.1534 61.9147 26.0934 62.0681 25.9734 62.1947C25.8534 62.3147 25.6967 62.3747 25.5034 62.3747Z" fill="#E3F7FC"/>
<path d="M31.1463 63.3448C31.5797 63.3448 31.9597 63.4281 32.2863 63.5948C32.6197 63.7614 32.8797 64.0148 33.0663 64.3548C33.253 64.6948 33.3463 65.1248 33.3463 65.6448V68.6949H32.3863V65.7548C32.3863 65.2415 32.2597 64.8548 32.0063 64.5948C31.7597 64.3348 31.4097 64.2048 30.9563 64.2048C30.6163 64.2048 30.3197 64.2715 30.0664 64.4048C29.813 64.5381 29.6164 64.7348 29.4764 64.9948C29.343 65.2548 29.2764 65.5782 29.2764 65.9648V68.6949H28.3164V63.3948H29.2364V64.8248L29.0864 64.4448C29.2597 64.0981 29.5264 63.8281 29.8864 63.6348C30.2464 63.4414 30.6663 63.3448 31.1463 63.3448Z" fill="#E3F7FC"/>
<path d="M37.983 68.7549C37.4163 68.7549 36.9163 68.6383 36.483 68.4049C36.0563 68.1716 35.723 67.8516 35.483 67.4449C35.2496 67.0382 35.133 66.5715 35.133 66.0449C35.133 65.5182 35.2463 65.0515 35.473 64.6448C35.7063 64.2381 36.023 63.9214 36.423 63.6948C36.8296 63.4614 37.2863 63.3448 37.793 63.3448C38.3063 63.3448 38.7596 63.4581 39.153 63.6848C39.5463 63.9114 39.853 64.2315 40.073 64.6448C40.2996 65.0515 40.413 65.5282 40.413 66.0749C40.413 66.1149 40.4096 66.1615 40.403 66.2149C40.403 66.2682 40.3996 66.3182 40.393 66.3649H35.883V65.6748H39.893L39.503 65.9148C39.5096 65.5748 39.4396 65.2715 39.293 65.0048C39.1463 64.7381 38.943 64.5315 38.683 64.3848C38.4296 64.2315 38.133 64.1548 37.793 64.1548C37.4596 64.1548 37.163 64.2315 36.903 64.3848C36.643 64.5315 36.4396 64.7415 36.293 65.0148C36.1463 65.2815 36.073 65.5882 36.073 65.9348V66.0949C36.073 66.4482 36.153 66.7649 36.313 67.0449C36.4796 67.3182 36.7096 67.5316 37.003 67.6849C37.2963 67.8382 37.633 67.9149 38.013 67.9149C38.3263 67.9149 38.6096 67.8616 38.863 67.7549C39.123 67.6482 39.3496 67.4882 39.543 67.2749L40.073 67.8949C39.833 68.1749 39.533 68.3883 39.173 68.5349C38.8196 68.6816 38.423 68.7549 37.983 68.7549Z" fill="#E3F7FC"/>
<path d="M45.5715 68.6949V61.6947H46.5715V67.8249H50.3615V68.6949H45.5715Z" fill="#E3F7FC"/>
<path d="M51.869 68.6949V63.3948H52.829V68.6949H51.869ZM52.349 62.3747C52.1623 62.3747 52.0057 62.3147 51.879 62.1947C51.759 62.0747 51.699 61.9281 51.699 61.7547C51.699 61.5747 51.759 61.4247 51.879 61.3047C52.0057 61.1847 52.1623 61.1247 52.349 61.1247C52.5357 61.1247 52.689 61.1847 52.809 61.3047C52.9357 61.418 52.999 61.5614 52.999 61.7347C52.999 61.9147 52.939 62.0681 52.819 62.1947C52.699 62.3147 52.5423 62.3747 52.349 62.3747Z" fill="#E3F7FC"/>
<path d="M55.302 68.6949V62.9248C55.302 62.4047 55.452 61.9914 55.752 61.6847C56.0586 61.3714 56.492 61.2147 57.052 61.2147C57.2586 61.2147 57.4553 61.2414 57.642 61.2947C57.8353 61.3414 57.9986 61.418 58.132 61.5247L57.842 62.2547C57.742 62.1747 57.6286 62.1147 57.502 62.0747C57.3753 62.0281 57.242 62.0047 57.102 62.0047C56.822 62.0047 56.6086 62.0847 56.462 62.2447C56.3153 62.3981 56.242 62.6281 56.242 62.9347V63.6448L56.262 64.0848V68.6949H55.302ZM54.402 64.1848V63.3948H57.782V64.1848H54.402Z" fill="#E3F7FC"/>
<path d="M61.4692 68.7549C60.9026 68.7549 60.4026 68.6383 59.9692 68.4049C59.5426 68.1716 59.2092 67.8516 58.9692 67.4449C58.7359 67.0382 58.6192 66.5715 58.6192 66.0449C58.6192 65.5182 58.7326 65.0515 58.9592 64.6448C59.1926 64.2381 59.5092 63.9214 59.9092 63.6948C60.3159 63.4614 60.7726 63.3448 61.2792 63.3448C61.7926 63.3448 62.2459 63.4581 62.6392 63.6848C63.0325 63.9114 63.3392 64.2315 63.5592 64.6448C63.7859 65.0515 63.8992 65.5282 63.8992 66.0749C63.8992 66.1149 63.8959 66.1615 63.8892 66.2149C63.8892 66.2682 63.8859 66.3182 63.8792 66.3649H59.3692V65.6748H63.3792L62.9892 65.9148C62.9959 65.5748 62.9259 65.2715 62.7792 65.0048C62.6326 64.7381 62.4292 64.5315 62.1692 64.3848C61.9159 64.2315 61.6192 64.1548 61.2792 64.1548C60.9459 64.1548 60.6492 64.2315 60.3892 64.3848C60.1292 64.5315 59.9259 64.7415 59.7792 65.0148C59.6326 65.2815 59.5592 65.5882 59.5592 65.9348V66.0949C59.5592 66.4482 59.6392 66.7649 59.7992 67.0449C59.9659 67.3182 60.1959 67.5316 60.4892 67.6849C60.7826 67.8382 61.1192 67.9149 61.4992 67.9149C61.8126 67.9149 62.0959 67.8616 62.3492 67.7549C62.6092 67.6482 62.8359 67.4882 63.0292 67.2749L63.5592 67.8949C63.3192 68.1749 63.0192 68.3883 62.6592 68.5349C62.3059 68.6816 61.9092 68.7549 61.4692 68.7549Z" fill="#E3F7FC"/>
<path d="M67.2522 68.7549C66.8122 68.7549 66.3922 68.6949 65.9922 68.5749C65.5989 68.4549 65.2889 68.3083 65.0623 68.1349L65.4623 67.3749C65.6889 67.5282 65.9689 67.6582 66.3023 67.7649C66.6356 67.8716 66.9756 67.9249 67.3222 67.9249C67.7689 67.9249 68.0889 67.8616 68.2822 67.7349C68.4822 67.6082 68.5822 67.4316 68.5822 67.2049C68.5822 67.0382 68.5222 66.9082 68.4022 66.8149C68.2822 66.7215 68.1222 66.6515 67.9222 66.6049C67.7289 66.5582 67.5122 66.5182 67.2722 66.4849C67.0322 66.4449 66.7923 66.3982 66.5523 66.3449C66.3123 66.2849 66.0923 66.2049 65.8923 66.1049C65.6923 65.9982 65.5322 65.8548 65.4122 65.6748C65.2923 65.4882 65.2323 65.2415 65.2323 64.9348C65.2323 64.6148 65.3223 64.3348 65.5023 64.0948C65.6823 63.8548 65.9356 63.6714 66.2623 63.5448C66.5956 63.4114 66.9889 63.3448 67.4422 63.3448C67.7889 63.3448 68.1389 63.3881 68.4922 63.4748C68.8522 63.5548 69.1456 63.6714 69.3722 63.8248L68.9622 64.5848C68.7222 64.4248 68.4722 64.3148 68.2122 64.2548C67.9522 64.1948 67.6922 64.1648 67.4322 64.1648C67.0122 64.1648 66.6989 64.2348 66.4922 64.3748C66.2856 64.5081 66.1823 64.6815 66.1823 64.8948C66.1823 65.0748 66.2423 65.2148 66.3623 65.3148C66.4889 65.4082 66.6489 65.4815 66.8422 65.5348C67.0422 65.5882 67.2622 65.6348 67.5022 65.6748C67.7422 65.7082 67.9822 65.7548 68.2222 65.8148C68.4622 65.8682 68.6789 65.9448 68.8722 66.0449C69.0722 66.1449 69.2322 66.2849 69.3522 66.4649C69.4789 66.6449 69.5422 66.8849 69.5422 67.1849C69.5422 67.5049 69.4489 67.7816 69.2622 68.0149C69.0756 68.2483 68.8122 68.4316 68.4722 68.5649C68.1322 68.6916 67.7256 68.7549 67.2522 68.7549Z" fill="#E3F7FC"/>
<path d="M73.062 68.7549C72.5287 68.7549 72.1153 68.6116 71.822 68.3249C71.5287 68.0382 71.382 67.6282 71.382 67.0949V62.2347H72.342V67.0549C72.342 67.3416 72.412 67.5616 72.552 67.7149C72.6987 67.8682 72.9053 67.9449 73.172 67.9449C73.472 67.9449 73.722 67.8616 73.922 67.6949L74.222 68.3849C74.0753 68.5116 73.8987 68.6049 73.692 68.6649C73.492 68.7249 73.282 68.7549 73.062 68.7549ZM70.482 64.1848V63.3948H73.862V64.1848H70.482Z" fill="#E3F7FC"/>
<path d="M76.015 70.695C75.7616 70.695 75.515 70.6517 75.275 70.565C75.035 70.485 74.8283 70.365 74.655 70.205L75.065 69.485C75.1983 69.6116 75.345 69.7083 75.505 69.775C75.665 69.8416 75.835 69.875 76.015 69.875C76.2483 69.875 76.4416 69.815 76.595 69.695C76.7483 69.575 76.8916 69.3616 77.025 69.055L77.355 68.3249L77.455 68.2049L79.5349 63.3948H80.4749L77.9049 69.225C77.7516 69.5983 77.5783 69.8916 77.385 70.105C77.1983 70.3183 76.9916 70.4683 76.765 70.555C76.5383 70.6483 76.2883 70.695 76.015 70.695ZM77.275 68.8649L74.855 63.3948H75.855L77.9149 68.1149L77.275 68.8649Z" fill="#E3F7FC"/>
<path d="M81.8709 68.6949V61.2747H82.8309V68.6949H81.8709Z" fill="#E3F7FC"/>
<path d="M87.5238 68.7549C86.9572 68.7549 86.4572 68.6383 86.0238 68.4049C85.5972 68.1716 85.2638 67.8516 85.0238 67.4449C84.7905 67.0382 84.6738 66.5715 84.6738 66.0449C84.6738 65.5182 84.7872 65.0515 85.0138 64.6448C85.2472 64.2381 85.5638 63.9214 85.9638 63.6948C86.3705 63.4614 86.8272 63.3448 87.3338 63.3448C87.8472 63.3448 88.3005 63.4581 88.6938 63.6848C89.0872 63.9114 89.3938 64.2315 89.6138 64.6448C89.8405 65.0515 89.9538 65.5282 89.9538 66.0749C89.9538 66.1149 89.9505 66.1615 89.9438 66.2149C89.9438 66.2682 89.9405 66.3182 89.9338 66.3649H85.4238V65.6748H89.4338L89.0438 65.9148C89.0505 65.5748 88.9805 65.2715 88.8338 65.0048C88.6872 64.7381 88.4838 64.5315 88.2238 64.3848C87.9705 64.2315 87.6738 64.1548 87.3338 64.1548C87.0005 64.1548 86.7038 64.2315 86.4438 64.3848C86.1838 64.5315 85.9805 64.7415 85.8338 65.0148C85.6872 65.2815 85.6138 65.5882 85.6138 65.9348V66.0949C85.6138 66.4482 85.6938 66.7649 85.8538 67.0449C86.0205 67.3182 86.2505 67.5316 86.5438 67.6849C86.8372 67.8382 87.1738 67.9149 87.5538 67.9149C87.8672 67.9149 88.1505 67.8616 88.4038 67.7549C88.6638 67.6482 88.8905 67.4882 89.0838 67.2749L89.6138 67.8949C89.3738 68.1749 89.0738 68.3883 88.7138 68.5349C88.3605 68.6816 87.9638 68.7549 87.5238 68.7549Z" fill="#E3F7FC"/>
<path d="M95.1124 68.6949V61.6947H96.1124V68.6949H95.1124Z" fill="#E3F7FC"/>
<path d="M105.198 63.3448C105.625 63.3448 106.001 63.4281 106.328 63.5948C106.655 63.7614 106.908 64.0148 107.088 64.3548C107.275 64.6948 107.368 65.1248 107.368 65.6448V68.6949H106.408V65.7548C106.408 65.2415 106.288 64.8548 106.048 64.5948C105.808 64.3348 105.471 64.2048 105.038 64.2048C104.718 64.2048 104.438 64.2715 104.198 64.4048C103.958 64.5381 103.771 64.7348 103.638 64.9948C103.511 65.2548 103.448 65.5782 103.448 65.9648V68.6949H102.488V65.7548C102.488 65.2415 102.368 64.8548 102.128 64.5948C101.895 64.3348 101.558 64.2048 101.118 64.2048C100.805 64.2048 100.528 64.2715 100.288 64.4048C100.048 64.5381 99.8614 64.7348 99.7281 64.9948C99.5947 65.2548 99.5281 65.5782 99.5281 65.9648V68.6949H98.5681V63.3948H99.4881V64.8048L99.3381 64.4448C99.5047 64.0981 99.7614 63.8281 100.108 63.6348C100.455 63.4414 100.858 63.3448 101.318 63.3448C101.825 63.3448 102.261 63.4714 102.628 63.7248C102.995 63.9715 103.235 64.3481 103.348 64.8548L102.958 64.6948C103.118 64.2881 103.398 63.9615 103.798 63.7148C104.198 63.4681 104.665 63.3448 105.198 63.3448Z" fill="#E3F7FC"/>
<path d="M112.444 68.7549C112.004 68.7549 111.601 68.6549 111.234 68.4549C110.874 68.2483 110.584 67.9449 110.364 67.5449C110.151 67.1449 110.044 66.6449 110.044 66.0449C110.044 65.4448 110.148 64.9448 110.354 64.5448C110.568 64.1448 110.854 63.8448 111.214 63.6448C111.581 63.4448 111.991 63.3448 112.444 63.3448C112.964 63.3448 113.424 63.4581 113.824 63.6848C114.224 63.9114 114.541 64.2281 114.774 64.6348C115.008 65.0348 115.124 65.5048 115.124 66.0449C115.124 66.5849 115.008 67.0582 114.774 67.4649C114.541 67.8716 114.224 68.1883 113.824 68.4149C113.424 68.6416 112.964 68.7549 112.444 68.7549ZM109.634 70.635V63.3948H110.554V64.8248L110.494 66.0549L110.594 67.2849V70.635H109.634ZM112.364 67.9149C112.704 67.9149 113.008 67.8382 113.274 67.6849C113.548 67.5316 113.761 67.3149 113.914 67.0349C114.074 66.7482 114.154 66.4182 114.154 66.0449C114.154 65.6648 114.074 65.3382 113.914 65.0648C113.761 64.7848 113.548 64.5681 113.274 64.4148C113.008 64.2615 112.704 64.1848 112.364 64.1848C112.031 64.1848 111.728 64.2615 111.454 64.4148C111.188 64.5681 110.974 64.7848 110.814 65.0648C110.661 65.3382 110.584 65.6648 110.584 66.0449C110.584 66.4182 110.661 66.7482 110.814 67.0349C110.974 67.3149 111.188 67.5316 111.454 67.6849C111.728 67.8382 112.031 67.9149 112.364 67.9149Z" fill="#E3F7FC"/>
<path d="M116.951 68.6949V63.3948H117.871V64.8348L117.781 64.4748C117.927 64.1081 118.174 63.8281 118.521 63.6348C118.868 63.4414 119.294 63.3448 119.801 63.3448V64.2748C119.761 64.2681 119.721 64.2648 119.681 64.2648C119.647 64.2648 119.614 64.2648 119.581 64.2648C119.067 64.2648 118.661 64.4181 118.361 64.7248C118.061 65.0315 117.911 65.4748 117.911 66.0549V68.6949H116.951Z" fill="#E3F7FC"/>
<path d="M123.705 68.7549C123.172 68.7549 122.699 68.6383 122.285 68.4049C121.872 68.1716 121.545 67.8516 121.305 67.4449C121.065 67.0316 120.945 66.5649 120.945 66.0449C120.945 65.5182 121.065 65.0515 121.305 64.6448C121.545 64.2381 121.872 63.9214 122.285 63.6948C122.699 63.4614 123.172 63.3448 123.705 63.3448C124.232 63.3448 124.702 63.4614 125.115 63.6948C125.535 63.9214 125.862 64.2381 126.095 64.6448C126.335 65.0448 126.455 65.5115 126.455 66.0449C126.455 66.5715 126.335 67.0382 126.095 67.4449C125.862 67.8516 125.535 68.1716 125.115 68.4049C124.702 68.6383 124.232 68.7549 123.705 68.7549ZM123.705 67.9149C124.045 67.9149 124.349 67.8382 124.615 67.6849C124.889 67.5316 125.102 67.3149 125.255 67.0349C125.409 66.7482 125.485 66.4182 125.485 66.0449C125.485 65.6648 125.409 65.3382 125.255 65.0648C125.102 64.7848 124.889 64.5681 124.615 64.4148C124.349 64.2615 124.045 64.1848 123.705 64.1848C123.365 64.1848 123.062 64.2615 122.795 64.4148C122.529 64.5681 122.315 64.7848 122.155 65.0648C121.995 65.3382 121.915 65.6648 121.915 66.0449C121.915 66.4182 121.995 66.7482 122.155 67.0349C122.315 67.3149 122.529 67.5316 122.795 67.6849C123.062 67.8382 123.365 67.9149 123.705 67.9149Z" fill="#E3F7FC"/>
<path d="M129.526 68.6949L127.206 63.3948H128.206L130.266 68.1949H129.786L131.886 63.3948H132.826L130.506 68.6949H129.526Z" fill="#E3F7FC"/>
<path d="M136.436 68.7549C135.869 68.7549 135.369 68.6383 134.936 68.4049C134.509 68.1716 134.176 67.8516 133.936 67.4449C133.702 67.0382 133.586 66.5715 133.586 66.0449C133.586 65.5182 133.699 65.0515 133.926 64.6448C134.159 64.2381 134.476 63.9214 134.876 63.6948C135.282 63.4614 135.739 63.3448 136.246 63.3448C136.759 63.3448 137.212 63.4581 137.606 63.6848C137.999 63.9114 138.306 64.2315 138.526 64.6448C138.752 65.0515 138.866 65.5282 138.866 66.0749C138.866 66.1149 138.862 66.1615 138.856 66.2149C138.856 66.2682 138.852 66.3182 138.846 66.3649H134.336V65.6748H138.346L137.956 65.9148C137.962 65.5748 137.892 65.2715 137.746 65.0048C137.599 64.7381 137.396 64.5315 137.136 64.3848C136.882 64.2315 136.586 64.1548 136.246 64.1548C135.912 64.1548 135.616 64.2315 135.356 64.3848C135.096 64.5315 134.892 64.7415 134.746 65.0148C134.599 65.2815 134.526 65.5882 134.526 65.9348V66.0949C134.526 66.4482 134.606 66.7649 134.766 67.0449C134.932 67.3182 135.162 67.5316 135.456 67.6849C135.749 67.8382 136.086 67.9149 136.466 67.9149C136.779 67.9149 137.062 67.8616 137.316 67.7549C137.576 67.6482 137.802 67.4882 137.996 67.2749L138.526 67.8949C138.286 68.1749 137.986 68.3883 137.626 68.5349C137.272 68.6816 136.876 68.7549 136.436 68.7549Z" fill="#E3F7FC"/>
<path d="M147.329 63.3448C147.755 63.3448 148.132 63.4281 148.459 63.5948C148.785 63.7614 149.039 64.0148 149.219 64.3548C149.405 64.6948 149.499 65.1248 149.499 65.6448V68.6949H148.539V65.7548C148.539 65.2415 148.419 64.8548 148.179 64.5948C147.939 64.3348 147.602 64.2048 147.169 64.2048C146.849 64.2048 146.569 64.2715 146.329 64.4048C146.089 64.5381 145.902 64.7348 145.769 64.9948C145.642 65.2548 145.579 65.5782 145.579 65.9648V68.6949H144.619V65.7548C144.619 65.2415 144.499 64.8548 144.259 64.5948C144.025 64.3348 143.689 64.2048 143.249 64.2048C142.935 64.2048 142.659 64.2715 142.419 64.4048C142.179 64.5381 141.992 64.7348 141.859 64.9948C141.725 65.2548 141.659 65.5782 141.659 65.9648V68.6949H140.699V63.3948H141.619V64.8048L141.469 64.4448C141.635 64.0981 141.892 63.8281 142.239 63.6348C142.585 63.4414 142.989 63.3448 143.449 63.3448C143.955 63.3448 144.392 63.4714 144.759 63.7248C145.125 63.9715 145.365 64.3481 145.479 64.8548L145.089 64.6948C145.249 64.2881 145.529 63.9615 145.929 63.7148C146.329 63.4681 146.795 63.3448 147.329 63.3448Z" fill="#E3F7FC"/>
<path d="M154.125 68.7549C153.559 68.7549 153.059 68.6383 152.625 68.4049C152.199 68.1716 151.865 67.8516 151.625 67.4449C151.392 67.0382 151.275 66.5715 151.275 66.0449C151.275 65.5182 151.389 65.0515 151.615 64.6448C151.849 64.2381 152.165 63.9214 152.565 63.6948C152.972 63.4614 153.429 63.3448 153.935 63.3448C154.449 63.3448 154.902 63.4581 155.295 63.6848C155.689 63.9114 155.995 64.2315 156.215 64.6448C156.442 65.0515 156.555 65.5282 156.555 66.0749C156.555 66.1149 156.552 66.1615 156.545 66.2149C156.545 66.2682 156.542 66.3182 156.535 66.3649H152.025V65.6748H156.035L155.645 65.9148C155.652 65.5748 155.582 65.2715 155.435 65.0048C155.289 64.7381 155.085 64.5315 154.825 64.3848C154.572 64.2315 154.275 64.1548 153.935 64.1548C153.602 64.1548 153.305 64.2315 153.045 64.3848C152.785 64.5315 152.582 64.7415 152.435 65.0148C152.289 65.2815 152.215 65.5882 152.215 65.9348V66.0949C152.215 66.4482 152.295 66.7649 152.455 67.0449C152.622 67.3182 152.852 67.5316 153.145 67.6849C153.438 67.8382 153.775 67.9149 154.155 67.9149C154.469 67.9149 154.752 67.8616 155.005 67.7549C155.265 67.6482 155.492 67.4882 155.685 67.2749L156.215 67.8949C155.975 68.1749 155.675 68.3883 155.315 68.5349C154.962 68.6816 154.565 68.7549 154.125 68.7549Z" fill="#E3F7FC"/>
<path d="M161.218 63.3448C161.652 63.3448 162.032 63.4281 162.358 63.5948C162.692 63.7614 162.952 64.0148 163.138 64.3548C163.325 64.6948 163.418 65.1248 163.418 65.6448V68.6949H162.458V65.7548C162.458 65.2415 162.332 64.8548 162.078 64.5948C161.832 64.3348 161.482 64.2048 161.028 64.2048C160.688 64.2048 160.392 64.2715 160.138 64.4048C159.885 64.5381 159.688 64.7348 159.548 64.9948C159.415 65.2548 159.348 65.5782 159.348 65.9648V68.6949H158.388V63.3948H159.308V64.8248L159.158 64.4448C159.332 64.0981 159.598 63.8281 159.958 63.6348C160.318 63.4414 160.738 63.3448 161.218 63.3448Z" fill="#E3F7FC"/>
<path d="M167.515 68.7549C166.981 68.7549 166.568 68.6116 166.275 68.3249C165.981 68.0382 165.835 67.6282 165.835 67.0949V62.2347H166.795V67.0549C166.795 67.3416 166.865 67.5616 167.005 67.7149C167.151 67.8682 167.358 67.9449 167.625 67.9449C167.925 67.9449 168.175 67.8616 168.375 67.6949L168.675 68.3849C168.528 68.5116 168.351 68.6049 168.145 68.6649C167.945 68.7249 167.735 68.7549 167.515 68.7549ZM164.935 64.1848V63.3948H168.315V64.1848H164.935Z" fill="#E3F7FC"/>
<path d="M175.701 68.7749C175.168 68.7749 174.658 68.6949 174.171 68.5349C173.684 68.3683 173.301 68.1549 173.021 67.8949L173.391 67.1149C173.658 67.3482 173.998 67.5416 174.411 67.6949C174.824 67.8482 175.254 67.9249 175.701 67.9249C176.108 67.9249 176.438 67.8782 176.691 67.7849C176.944 67.6916 177.131 67.5649 177.251 67.4049C177.371 67.2382 177.431 67.0516 177.431 66.8449C177.431 66.6049 177.351 66.4115 177.191 66.2649C177.038 66.1182 176.834 66.0015 176.581 65.9148C176.334 65.8215 176.061 65.7415 175.761 65.6748C175.461 65.6082 175.158 65.5315 174.851 65.4448C174.551 65.3515 174.274 65.2348 174.021 65.0948C173.774 64.9548 173.574 64.7681 173.421 64.5348C173.268 64.2948 173.191 63.9881 173.191 63.6148C173.191 63.2548 173.284 62.9248 173.471 62.6247C173.664 62.3181 173.958 62.0747 174.351 61.8947C174.751 61.708 175.258 61.6147 175.871 61.6147C176.278 61.6147 176.681 61.668 177.081 61.7747C177.481 61.8814 177.828 62.0347 178.121 62.2347L177.791 63.0348C177.491 62.8347 177.174 62.6914 176.841 62.6047C176.508 62.5114 176.184 62.4647 175.871 62.4647C175.478 62.4647 175.154 62.5147 174.901 62.6147C174.648 62.7147 174.461 62.8481 174.341 63.0148C174.228 63.1814 174.171 63.3681 174.171 63.5748C174.171 63.8214 174.248 64.0181 174.401 64.1648C174.561 64.3115 174.764 64.4281 175.011 64.5148C175.264 64.6015 175.541 64.6815 175.841 64.7548C176.141 64.8215 176.441 64.8981 176.741 64.9848C177.048 65.0715 177.324 65.1848 177.571 65.3248C177.824 65.4648 178.028 65.6515 178.181 65.8848C178.334 66.1182 178.411 66.4182 178.411 66.7849C178.411 67.1382 178.314 67.4682 178.121 67.7749C177.928 68.0749 177.628 68.3183 177.221 68.5049C176.821 68.6849 176.314 68.7749 175.701 68.7749Z" fill="#E3F7FC"/>
<path d="M182.592 68.7549C182.025 68.7549 181.525 68.6383 181.092 68.4049C180.665 68.1716 180.332 67.8516 180.092 67.4449C179.859 67.0382 179.742 66.5715 179.742 66.0449C179.742 65.5182 179.855 65.0515 180.082 64.6448C180.315 64.2381 180.632 63.9214 181.032 63.6948C181.439 63.4614 181.895 63.3448 182.402 63.3448C182.915 63.3448 183.369 63.4581 183.762 63.6848C184.155 63.9114 184.462 64.2315 184.682 64.6448C184.909 65.0515 185.022 65.5282 185.022 66.0749C185.022 66.1149 185.019 66.1615 185.012 66.2149C185.012 66.2682 185.009 66.3182 185.002 66.3649H180.492V65.6748H184.502L184.112 65.9148C184.119 65.5748 184.049 65.2715 183.902 65.0048C183.755 64.7381 183.552 64.5315 183.292 64.3848C183.039 64.2315 182.742 64.1548 182.402 64.1548C182.069 64.1548 181.772 64.2315 181.512 64.3848C181.252 64.5315 181.049 64.7415 180.902 65.0148C180.755 65.2815 180.682 65.5882 180.682 65.9348V66.0949C180.682 66.4482 180.762 66.7649 180.922 67.0449C181.089 67.3182 181.319 67.5316 181.612 67.6849C181.905 67.8382 182.242 67.9149 182.622 67.9149C182.935 67.9149 183.219 67.8616 183.472 67.7549C183.732 67.6482 183.959 67.4882 184.152 67.2749L184.682 67.8949C184.442 68.1749 184.142 68.3883 183.782 68.5349C183.429 68.6816 183.032 68.7549 182.592 68.7549Z" fill="#E3F7FC"/>
<path d="M186.855 68.6949V63.3948H187.775V64.8348L187.685 64.4748C187.832 64.1081 188.078 63.8281 188.425 63.6348C188.772 63.4414 189.198 63.3448 189.705 63.3448V64.2748C189.665 64.2681 189.625 64.2648 189.585 64.2648C189.552 64.2648 189.518 64.2648 189.485 64.2648C188.972 64.2648 188.565 64.4181 188.265 64.7248C187.965 65.0315 187.815 65.4748 187.815 66.0549V68.6949H186.855Z" fill="#E3F7FC"/>
<path d="M192.993 68.6949L190.673 63.3948H191.673L193.733 68.1949H193.253L195.353 63.3948H196.293L193.973 68.6949H192.993Z" fill="#E3F7FC"/>
<path d="M197.689 68.6949V63.3948H198.649V68.6949H197.689ZM198.169 62.3747C197.982 62.3747 197.826 62.3147 197.699 62.1947C197.579 62.0747 197.519 61.9281 197.519 61.7547C197.519 61.5747 197.579 61.4247 197.699 61.3047C197.826 61.1847 197.982 61.1247 198.169 61.1247C198.356 61.1247 198.509 61.1847 198.629 61.3047C198.756 61.418 198.819 61.5614 198.819 61.7347C198.819 61.9147 198.759 62.0681 198.639 62.1947C198.519 62.3147 198.362 62.3747 198.169 62.3747Z" fill="#E3F7FC"/>
<path d="M203.292 68.7549C202.752 68.7549 202.268 68.6383 201.842 68.4049C201.422 68.1716 201.092 67.8516 200.852 67.4449C200.612 67.0382 200.492 66.5715 200.492 66.0449C200.492 65.5182 200.612 65.0515 200.852 64.6448C201.092 64.2381 201.422 63.9214 201.842 63.6948C202.268 63.4614 202.752 63.3448 203.292 63.3448C203.772 63.3448 204.198 63.4414 204.572 63.6348C204.952 63.8214 205.245 64.1015 205.452 64.4748L204.722 64.9448C204.548 64.6848 204.335 64.4948 204.082 64.3748C203.835 64.2481 203.568 64.1848 203.282 64.1848C202.935 64.1848 202.625 64.2615 202.352 64.4148C202.078 64.5681 201.862 64.7848 201.702 65.0648C201.542 65.3382 201.462 65.6648 201.462 66.0449C201.462 66.4249 201.542 66.7549 201.702 67.0349C201.862 67.3149 202.078 67.5316 202.352 67.6849C202.625 67.8382 202.935 67.9149 203.282 67.9149C203.568 67.9149 203.835 67.8549 204.082 67.7349C204.335 67.6082 204.548 67.4149 204.722 67.1549L205.452 67.6149C205.245 67.9816 204.952 68.2649 204.572 68.4649C204.198 68.6583 203.772 68.7549 203.292 68.7549Z" fill="#E3F7FC"/>
<path d="M209.477 68.7549C208.91 68.7549 208.41 68.6383 207.977 68.4049C207.55 68.1716 207.217 67.8516 206.977 67.4449C206.743 67.0382 206.627 66.5715 206.627 66.0449C206.627 65.5182 206.74 65.0515 206.967 64.6448C207.2 64.2381 207.517 63.9214 207.917 63.6948C208.323 63.4614 208.78 63.3448 209.287 63.3448C209.8 63.3448 210.253 63.4581 210.647 63.6848C211.04 63.9114 211.347 64.2315 211.567 64.6448C211.793 65.0515 211.907 65.5282 211.907 66.0749C211.907 66.1149 211.903 66.1615 211.897 66.2149C211.897 66.2682 211.893 66.3182 211.887 66.3649H207.377V65.6748H211.387L210.997 65.9148C211.003 65.5748 210.933 65.2715 210.787 65.0048C210.64 64.7381 210.437 64.5315 210.177 64.3848C209.923 64.2315 209.627 64.1548 209.287 64.1548C208.953 64.1548 208.657 64.2315 208.397 64.3848C208.137 64.5315 207.933 64.7415 207.787 65.0148C207.64 65.2815 207.567 65.5882 207.567 65.9348V66.0949C207.567 66.4482 207.647 66.7649 207.807 67.0449C207.973 67.3182 208.203 67.5316 208.497 67.6849C208.79 67.8382 209.127 67.9149 209.507 67.9149C209.82 67.9149 210.103 67.8616 210.357 67.7549C210.617 67.6482 210.843 67.4882 211.037 67.2749L211.567 67.8949C211.327 68.1749 211.027 68.3883 210.667 68.5349C210.313 68.6816 209.917 68.7549 209.477 68.7549Z" fill="#E3F7FC"/>
</svg>
