<svg width="603" height="136" viewBox="0 0 603 136" fill="none" xmlns="http://www.w3.org/2000/svg">
<path d="M523.24 0H0V120H602.5L523.24 0Z" fill="#B9F615" fill-opacity="0.5"/>
<path d="M523.24 16H0V136H602.5L523.24 16Z" fill="#B9F615"/>
<g clip-path="url(#clip0_10_395)">
<path d="M126.73 77.845C126.22 81.9817 125.002 85.835 123.075 89.405C121.148 92.975 118.712 96.12 115.765 98.84C112.818 101.56 109.503 103.685 105.82 105.215C102.193 106.688 98.3967 107.425 94.43 107.425C90.35 107.425 86.61 106.632 83.21 105.045C79.8667 103.458 77.005 101.277 74.625 98.5C72.245 95.6667 70.5167 92.4083 69.44 88.725C68.42 85.0417 68.165 81.1317 68.675 76.995C69.185 72.8583 70.4033 69.005 72.33 65.435C74.2567 61.8083 76.6933 58.635 79.64 55.915C82.5867 53.1383 85.8733 50.985 89.5 49.455C93.1833 47.8683 97.0083 47.075 100.975 47.075C104.998 47.075 108.682 47.8967 112.025 49.54C115.425 51.1267 118.315 53.3367 120.695 56.17C123.075 59.0033 124.803 62.29 125.88 66.03C126.957 69.7133 127.24 73.6517 126.73 77.845ZM117.55 76.995C118.003 73.1417 117.522 69.6283 116.105 66.455C114.745 63.225 112.705 60.675 109.985 58.805C107.265 56.8783 104.148 55.915 100.635 55.915C97.8583 55.915 95.195 56.51 92.645 57.7C90.095 58.8333 87.7717 60.42 85.675 62.46C83.5783 64.5 81.8217 66.8517 80.405 69.515C79.045 72.1217 78.195 74.8983 77.855 77.845C77.4017 81.6417 77.855 85.1267 79.215 88.3C80.6317 91.4167 82.7 93.91 85.42 95.78C88.14 97.65 91.2567 98.585 94.77 98.585C97.49 98.585 100.125 98.0183 102.675 96.885C105.282 95.7517 107.633 94.1933 109.73 92.21C111.827 90.2267 113.555 87.9317 114.915 85.325C116.332 82.7183 117.21 79.9417 117.55 76.995ZM164.48 107H155.385L156.065 102.495C154.762 104.308 153.062 105.612 150.965 106.405C148.868 107.142 146.658 107.453 144.335 107.34C142.012 107.283 139.802 106.858 137.705 106.065C135.665 105.272 133.993 104.167 132.69 102.75C131.103 101.333 129.97 99.435 129.29 97.055C128.61 94.675 128.468 91.9833 128.865 88.98L131.84 64.5H140.935L137.79 89.405C137.45 92.635 138.102 94.9583 139.745 96.375C141.388 97.735 143.598 98.415 146.375 98.415C147.905 98.415 149.492 98.075 151.135 97.395C152.778 96.715 154.195 95.695 155.385 94.335C156.632 92.9183 157.397 91.1333 157.68 88.98L160.655 64.5H169.75L164.48 107ZM171.785 107L177.055 64.5H186.065L185.47 67.73C187.85 65.52 190.514 64.415 193.46 64.415C196.464 64.3583 199.864 64.925 203.66 66.115L198.645 73.765C196.435 72.9717 194.225 72.8017 192.015 73.255C189.862 73.6517 188.02 74.445 186.49 75.635C185.017 76.825 184.224 78.1567 184.11 79.63L180.795 107H171.785ZM269.729 101.39C266.555 104.11 263.269 105.952 259.869 106.915C256.525 107.878 253.295 108.048 250.179 107.425C247.119 106.858 244.427 105.612 242.104 103.685C239.78 101.702 238.024 99.1517 236.834 96.035C235.7 92.9183 235.389 89.32 235.899 85.24C236.409 81.1033 237.599 77.5617 239.469 74.615C241.339 71.6117 243.634 69.2317 246.354 67.475C249.13 65.7183 252.105 64.6417 255.279 64.245C258.452 63.8483 261.625 64.1883 264.799 65.265C267.972 66.3417 270.89 68.2117 273.554 70.875L267.009 76.995C265.309 74.8983 263.269 73.6233 260.889 73.17C258.565 72.7167 256.242 72.9717 253.919 73.935C251.595 74.8417 249.584 76.3433 247.884 78.44C246.24 80.5367 245.22 83.0867 244.824 86.09C244.484 89.2067 244.88 91.785 246.014 93.825C247.147 95.865 248.762 97.31 250.859 98.16C252.955 98.9533 255.222 99.0667 257.659 98.5C260.152 97.9333 262.56 96.5733 264.884 94.42L269.729 101.39ZM284.847 107H275.837L283.147 47.5H292.157L284.847 107ZM304.632 107.425C300.326 107.312 297.096 106.093 294.942 103.77C292.789 101.447 291.967 98.2167 292.477 94.08C292.817 91.1333 293.837 88.64 295.537 86.6C297.237 84.56 299.391 83.0017 301.997 81.925C304.604 80.7917 307.466 80.1117 310.582 79.885C313.756 79.6583 316.957 79.885 320.187 80.565L320.782 77.505C320.952 75.9183 320.556 74.6717 319.592 73.765C318.686 72.8583 317.411 72.2917 315.767 72.065C314.181 71.7817 312.424 71.81 310.497 72.15C308.627 72.49 306.786 73.085 304.972 73.935C303.216 74.785 301.771 75.8333 300.637 77.08L295.792 71.13C298.059 69.0333 300.666 67.4183 303.612 66.285C306.559 65.1517 309.534 64.5 312.537 64.33C315.597 64.1033 318.402 64.415 320.952 65.265C323.559 66.0583 325.656 67.39 327.242 69.26C328.432 70.28 329.169 71.6117 329.452 73.255C329.792 74.8417 329.877 76.655 329.707 78.695C329.594 80.6783 329.396 82.8033 329.112 85.07L326.392 107H317.212L317.892 103.26C315.796 104.847 313.756 105.952 311.772 106.575C309.789 107.198 307.409 107.482 304.632 107.425ZM318.232 95.525L319.592 87.11C313.472 86.5433 308.854 86.9117 305.737 88.215C302.677 89.5183 300.977 91.7567 300.637 94.93C300.411 96.6867 300.864 97.9333 301.997 98.67C303.187 99.4067 304.717 99.7467 306.587 99.69C308.514 99.6333 310.526 99.2367 312.622 98.5C314.719 97.7633 316.589 96.7717 318.232 95.525ZM332.336 101.39L338.116 95.95C340.893 98.5 343.896 99.775 347.126 99.775C349.45 99.7183 351.348 99.01 352.821 97.65C354.295 96.2333 354.946 94.59 354.776 92.72C354.606 91.6433 353.955 90.8217 352.821 90.255C351.745 89.6317 350.413 89.065 348.826 88.555C347.296 88.045 345.71 87.45 344.066 86.77C342.423 86.09 341.006 85.155 339.816 83.965C337.663 82.0383 336.473 79.97 336.246 77.76C336.02 75.4933 336.53 73.34 337.776 71.3C339.023 69.26 340.836 67.5883 343.216 66.285C345.596 64.925 348.316 64.1883 351.376 64.075C354.436 64.0183 357.185 64.5 359.621 65.52C362.058 66.54 363.9 67.8717 365.146 69.515L359.026 74.445C358.063 73.5383 356.901 72.915 355.541 72.575C354.181 72.1783 352.878 71.98 351.631 71.98C350.045 71.98 348.628 72.3483 347.381 73.085C346.191 73.765 345.483 74.8983 345.256 76.485C345.03 77.845 345.511 78.8933 346.701 79.63C347.891 80.3667 349.421 81.0467 351.291 81.67C353.161 82.2367 355.031 83.03 356.901 84.05C358.998 84.9567 360.613 86.345 361.746 88.215C362.88 90.085 363.163 92.5217 362.596 95.525C362.2 98.1883 361.18 100.427 359.536 102.24C357.95 104.053 355.995 105.413 353.671 106.32C351.348 107.227 348.883 107.652 346.276 107.595C343.67 107.538 341.148 107 338.711 105.98C336.275 104.96 334.15 103.43 332.336 101.39ZM366.077 101.39L371.857 95.95C374.633 98.5 377.637 99.775 380.867 99.775C383.19 99.7183 385.088 99.01 386.562 97.65C388.035 96.2333 388.687 94.59 388.517 92.72C388.347 91.6433 387.695 90.8217 386.562 90.255C385.485 89.6317 384.153 89.065 382.567 88.555C381.037 88.045 379.45 87.45 377.807 86.77C376.163 86.09 374.747 85.155 373.557 83.965C371.403 82.0383 370.213 79.97 369.987 77.76C369.76 75.4933 370.27 73.34 371.517 71.3C372.763 69.26 374.577 67.5883 376.957 66.285C379.337 64.925 382.057 64.1883 385.117 64.075C388.177 64.0183 390.925 64.5 393.362 65.52C395.798 66.54 397.64 67.8717 398.887 69.515L392.767 74.445C391.803 73.5383 390.642 72.915 389.282 72.575C387.922 72.1783 386.618 71.98 385.372 71.98C383.785 71.98 382.368 72.3483 381.122 73.085C379.932 73.765 379.223 74.8983 378.997 76.485C378.77 77.845 379.252 78.8933 380.442 79.63C381.632 80.3667 383.162 81.0467 385.032 81.67C386.902 82.2367 388.772 83.03 390.642 84.05C392.738 84.9567 394.353 86.345 395.487 88.215C396.62 90.085 396.903 92.5217 396.337 95.525C395.94 98.1883 394.92 100.427 393.277 102.24C391.69 104.053 389.735 105.413 387.412 106.32C385.088 107.227 382.623 107.652 380.017 107.595C377.41 107.538 374.888 107 372.452 105.98C370.015 104.96 367.89 103.43 366.077 101.39ZM442.147 89.32H411.292C411.122 92.2667 411.802 94.5333 413.332 96.12C414.919 97.65 416.987 98.585 419.537 98.925C422.144 99.2083 424.892 98.925 427.782 98.075C430.729 97.1683 433.505 95.7517 436.112 93.825L440.447 100.965C437.217 103.458 433.959 105.215 430.672 106.235C427.442 107.255 424.325 107.765 421.322 107.765C414.069 107.822 408.827 105.782 405.597 101.645C402.424 97.5083 401.29 91.7 402.197 84.22C402.934 78.0433 405.314 73.1417 409.337 69.515C413.36 65.8317 418.545 64.0183 424.892 64.075C429.539 64.075 433.307 65.0383 436.197 66.965C439.144 68.8917 441.099 71.64 442.062 75.21C442.742 77.08 443.054 79.1767 442.997 81.5C442.997 83.8233 442.714 86.43 442.147 89.32ZM425.402 72.49C421.662 72.49 418.602 73.4817 416.222 75.465C413.842 77.4483 412.482 79.8567 412.142 82.69H435.177C435.517 79.9133 434.837 77.5333 433.137 75.55C431.494 73.51 428.915 72.49 425.402 72.49ZM445.594 101.39L451.374 95.95C454.15 98.5 457.154 99.775 460.384 99.775C462.707 99.7183 464.605 99.01 466.079 97.65C467.552 96.2333 468.204 94.59 468.034 92.72C467.864 91.6433 467.212 90.8217 466.079 90.255C465.002 89.6317 463.67 89.065 462.084 88.555C460.554 88.045 458.967 87.45 457.324 86.77C455.68 86.09 454.264 85.155 453.074 83.965C450.92 82.0383 449.73 79.97 449.504 77.76C449.277 75.4933 449.787 73.34 451.034 71.3C452.28 69.26 454.094 67.5883 456.474 66.285C458.854 64.925 461.574 64.1883 464.634 64.075C467.694 64.0183 470.442 64.5 472.879 65.52C475.315 66.54 477.157 67.8717 478.404 69.515L472.284 74.445C471.32 73.5383 470.159 72.915 468.799 72.575C467.439 72.1783 466.135 71.98 464.889 71.98C463.302 71.98 461.885 72.3483 460.639 73.085C459.449 73.765 458.74 74.8983 458.514 76.485C458.287 77.845 458.769 78.8933 459.959 79.63C461.149 80.3667 462.679 81.0467 464.549 81.67C466.419 82.2367 468.289 83.03 470.159 84.05C472.255 84.9567 473.87 86.345 475.004 88.215C476.137 90.085 476.42 92.5217 475.854 95.525C475.457 98.1883 474.437 100.427 472.794 102.24C471.207 104.053 469.252 105.413 466.929 106.32C464.605 107.227 462.14 107.652 459.534 107.595C456.927 107.538 454.405 107 451.969 105.98C449.532 104.96 447.407 103.43 445.594 101.39Z" fill="black"/>
</g>
<defs>
<clipPath id="clip0_10_395">
<rect width="421" height="91" fill="white" transform="translate(60 29)"/>
</clipPath>
</defs>
</svg>
