<svg width="523" height="515" viewBox="0 0 523 515" fill="none" xmlns="http://www.w3.org/2000/svg">
<g style="mix-blend-mode:multiply" opacity="0.5">
<path d="M425.937 139.45C399.869 146.768 372.835 169.662 362.576 180.194C357.237 185.141 343.867 198.556 333.1 212.638C319.641 230.241 318.062 250.695 321.751 265.754C325.439 280.814 335.654 292.393 351.433 297.79C367.212 303.187 393.779 301.392 409.098 294.66C418.581 290.492 456.063 271.673 469.822 232.236C480.828 200.686 474.262 171.663 469.603 161.095C465.909 150.831 452.005 132.131 425.937 139.45Z" fill="#464646"/>
<path d="M391.133 101.883C381.852 127.318 356.967 152.531 345.684 161.959C340.345 166.906 325.951 179.216 311.09 188.88C292.513 200.96 271.999 200.977 257.264 196.152C242.529 191.328 231.761 180.261 227.581 164.117C223.401 147.973 227.213 121.621 235.092 106.858C239.969 97.7197 261.587 61.7787 301.957 51.0626C334.253 42.4897 362.692 51.2464 372.875 56.6963C382.828 61.1607 400.415 76.4483 391.133 101.883Z" fill="#464646"/>
<path d="M438.927 315.778C414.649 315.279 387.826 323.776 377.449 328.087C335.044 343.255 316.338 365.72 311.501 373.794C306.664 381.868 296.532 403.062 318.977 422.3C341.421 441.538 363.695 446.05 388.087 440.386C408.784 435.58 433.161 416.465 453.787 387.21C470.643 363.303 472.558 343.641 471.501 334.869C470.758 328.713 463.205 316.277 438.927 315.778Z" fill="#464646"/>
<path d="M216.392 75.6041C215.041 99.8494 204.527 125.948 199.438 135.966C181.086 177.094 157.263 194.035 148.843 198.243C140.424 202.451 118.521 210.941 101.048 187.097C83.5739 163.253 80.7704 140.701 88.2748 116.81C94.6421 96.5389 115.557 73.6886 146.298 55.349C171.419 40.3617 191.169 39.949 199.835 41.6714C205.917 42.88 217.742 51.3587 216.392 75.6041Z" fill="#464646"/>
<path d="M212.782 216.844C179.953 222.626 149.624 221.985 138.563 220.941C66.7438 211.011 46.9875 274.519 44.0438 282.343C40.4864 291.799 37.9453 341.886 73.201 363.112C104.837 382.159 121.977 397.474 142.546 437.953C148.877 450.413 184.983 484.861 230.856 469.559C276.73 454.257 289.485 413.183 288.545 388.904C287.606 364.624 290.761 344.764 299.73 305.144C308.7 265.524 290.613 243.788 281.913 234.398C273.213 225.008 253.819 209.616 212.782 216.844Z" fill="#464646"/>
</g>
</svg>
