<svg width="512" height="512" viewBox="0 0 512 512" fill="none" xmlns="http://www.w3.org/2000/svg">
<g clip-path="url(#clip0_2318_85028)">
<path fill-rule="evenodd" clip-rule="evenodd" d="M0 256C0 360.82 63.0668 450.89 153.287 490.476C152.534 472.595 153.136 451.131 157.712 431.684C162.649 410.913 190.645 292.184 190.645 292.184C190.645 292.184 182.457 275.838 182.457 251.695C182.457 213.735 204.463 185.407 231.827 185.407C255.127 185.407 266.386 202.897 266.386 223.849C266.386 247.27 251.454 282.28 243.778 314.702C237.366 341.855 257.385 363.981 284.177 363.981C332.674 363.981 365.336 301.727 365.336 227.883C365.336 171.801 327.556 129.806 258.83 129.806C181.163 129.806 132.786 187.725 132.786 252.388C132.786 274.694 139.379 290.438 149.644 302.6C154.401 308.199 155.063 310.457 153.347 316.899C152.143 321.565 149.313 332.944 148.139 337.43C146.423 343.902 141.185 346.22 135.315 343.842C99.5522 329.212 82.905 290.047 82.905 246.036C82.905 173.306 144.196 86.096 265.844 86.096C363.59 86.096 427.921 156.839 427.921 232.76C427.921 333.185 372.079 408.203 289.776 408.203C262.141 408.203 236.162 393.272 227.251 376.294C227.251 376.294 212.38 435.266 209.219 446.675C203.831 466.393 193.174 486.111 183.481 501.494C206.48 508.297 230.803 512 256.03 512C397.396 512 512 397.366 512 256C512 114.604 397.396 0 256.03 0C114.634 0 0 114.604 0 256Z" fill="#E3F7FC"/>
</g>
<defs>
<clipPath id="clip0_2318_85028">
<rect width="512" height="512" fill="white"/>
</clipPath>
</defs>
</svg>
