<svg width="114" height="17" viewBox="0 0 114 17" fill="none" xmlns="http://www.w3.org/2000/svg">
<path d="M93.2059 12.1529C93.2059 12.1529 93.1847 12.1609 93.1741 12.1635C93.1662 12.1689 93.1583 12.1769 93.1477 12.1822C93.1107 12.1955 93.0736 12.2062 93.034 12.2195C93.0155 12.2355 92.9969 12.2541 92.9784 12.2701C92.9044 12.2914 92.8303 12.3101 92.7563 12.3314C92.7377 12.3474 92.7192 12.366 92.7007 12.382C92.4494 12.446 92.1982 12.5126 91.9443 12.5685C91.8887 12.5819 91.8253 12.5499 91.7644 12.5499C88.908 12.5499 86.0515 12.5499 83.1976 12.5526C83.1844 12.5526 83.1712 12.5526 83.1553 12.5499C83.1474 12.5419 83.1394 12.5339 83.1342 12.5259C83.1342 12.4806 83.1315 12.4326 83.1315 12.3874C83.1315 8.59314 83.1315 4.80159 83.1315 1.00738V0.83419C83.1897 0.83419 83.2399 0.83419 83.2876 0.83419C86.0197 0.83419 88.7519 0.83419 91.4841 0.83419C91.5581 0.83419 91.6322 0.83419 91.7062 0.842183C91.7697 0.850177 91.7935 0.828861 91.7856 0.767578C91.7962 0.767578 91.8041 0.767578 91.8147 0.767578C91.8808 0.804881 91.9469 0.868828 92.0157 0.876822C92.7245 0.951427 93.3355 1.24452 93.8592 1.72146C94.3167 2.13712 94.6579 2.63005 94.8589 3.21889C94.8669 3.24021 94.8695 3.26419 94.8748 3.28551C94.8907 3.31482 94.9092 3.34146 94.9251 3.37077C94.9568 3.56261 94.9912 3.75179 95.015 3.94363C95.0361 4.10617 95.0652 4.27136 95.0652 4.43656C95.0679 5.93666 95.0652 7.43942 95.0679 8.93952C95.0679 9.07008 95.0838 9.20064 95.0917 9.33387C95.0309 9.33387 94.9833 9.34452 95.0414 9.41913C94.9859 9.65627 94.9304 9.89607 94.8722 10.1332C94.8563 10.2051 94.8325 10.2744 94.814 10.3437C94.8034 10.3624 94.7955 10.3783 94.7849 10.397C94.6817 10.5942 94.5786 10.7913 94.4754 10.9858C94.4596 11.0045 94.4437 11.0231 94.4305 11.0445C94.3749 11.1191 94.3167 11.1937 94.2612 11.2683C94.2533 11.2763 94.2427 11.2843 94.2348 11.2896C94.0285 11.4868 93.8195 11.6866 93.6132 11.8838C93.5973 11.8998 93.5815 11.9157 93.5682 11.9317C93.4545 12.001 93.3408 12.0676 93.2297 12.1369C93.2218 12.1422 93.2165 12.1475 93.2085 12.1529H93.2059ZM91.8702 9.76018C91.9178 9.74952 91.9628 9.74153 92.0104 9.73087C92.0659 9.70423 92.1215 9.67758 92.177 9.64827C92.2246 9.60031 92.2722 9.54969 92.3198 9.50173C92.3463 9.46709 92.3754 9.42979 92.4018 9.39515C92.4362 9.31788 92.4706 9.23794 92.5023 9.16067C92.4891 9.14469 92.4785 9.1287 92.4653 9.11271C92.4653 9.10472 92.4627 9.09406 92.46 9.08607C92.5182 9.08607 92.5632 9.07541 92.5156 9.00347C92.5209 8.9262 92.5288 8.84627 92.5288 8.769C92.5235 7.30087 92.5262 5.83275 92.5076 4.36462C92.505 4.03156 92.3384 3.73314 91.9284 3.62656C91.7829 3.58926 91.6269 3.57593 91.4761 3.57593C89.5983 3.57327 87.7204 3.57593 85.8425 3.57593H85.6891V9.81613C87.7257 9.81613 89.7543 9.81613 91.7856 9.81613C91.8147 9.80015 91.8438 9.7815 91.8702 9.76551V9.76018Z" fill="white"/>
<path d="M107.01 10.6768C107.308 10.3517 107.607 10.0293 107.904 9.70156C108.234 9.33653 108.565 8.96883 108.893 8.6038C109.213 8.24676 109.527 7.88705 109.85 7.53268C110.072 7.28755 110.305 7.05041 110.527 6.80261C110.779 6.52551 111.019 6.24041 111.27 5.96597C111.524 5.6862 111.786 5.41176 112.04 5.13199C112.365 4.77228 112.686 4.40725 113.011 4.04755C113.265 3.76778 113.521 3.49067 113.778 3.21357C113.852 3.13363 113.926 3.05636 114 2.97643V16.5279H101.699C101.96 16.2428 102.225 15.9577 102.482 15.67C102.701 15.4249 102.913 15.1717 103.13 14.9239C103.222 14.8174 103.317 14.7108 103.415 14.6095C103.672 14.3351 103.934 14.0633 104.19 13.7862C104.486 13.4665 104.777 13.1414 105.068 12.819C105.145 12.7337 105.216 12.6458 105.29 12.5605C105.298 12.5579 105.309 12.5552 105.317 12.5499C105.846 12.5499 106.372 12.5552 106.901 12.5552C106.92 12.5552 106.936 12.5366 106.954 12.5286C106.954 12.4646 106.959 12.398 106.959 12.3341C106.959 11.8012 106.962 11.2683 106.965 10.7327C106.98 10.7141 106.996 10.6981 107.012 10.6794L107.01 10.6768Z" fill="#2AA8E0"/>
<path d="M108.681 0.767578C108.718 0.804881 108.747 0.855506 108.79 0.879486C109.16 1.07666 109.353 1.37508 109.385 1.80406C109.403 2.04653 109.345 2.25169 109.223 2.44353C108.932 2.90715 108.38 3.06169 107.893 2.81123C107.655 2.68866 107.483 2.48883 107.412 2.23037C107.356 2.02787 107.282 1.78807 107.34 1.60422C107.409 1.38041 107.539 1.15393 107.75 0.999387C107.935 0.863499 108.134 0.783565 108.364 0.794223C108.411 0.794223 108.462 0.778236 108.512 0.767578C108.567 0.767578 108.623 0.767578 108.678 0.767578H108.681ZM109.099 1.85468C109.099 1.82271 109.099 1.78807 109.099 1.7561C109.054 1.20722 108.591 0.895473 108.089 1.09264C107.602 1.28449 107.451 1.99324 107.837 2.4462C107.964 2.59541 108.131 2.69133 108.329 2.69399C108.79 2.70465 109.102 2.35827 109.099 1.85202V1.85468Z" fill="white"/>
<path d="M30.969 7.76715C31.17 7.14633 31.3737 6.52551 31.572 5.90469C31.7916 5.21459 32.0058 4.52182 32.228 3.83439C32.4396 3.17626 32.6617 2.5208 32.876 1.86534C32.9765 1.55893 33.0717 1.25251 33.1722 0.948762C33.1907 0.887479 33.2013 0.831526 33.2965 0.831526C34.1773 0.836854 35.058 0.831526 35.9255 0.831526C35.944 0.922118 35.952 1.00472 35.9758 1.08465C36.153 1.64685 36.3302 2.20639 36.5127 2.76593C36.7164 3.38409 36.9279 4.00225 37.1316 4.62041C37.2427 4.9588 37.3432 5.29985 37.4543 5.63824C37.6606 6.26439 37.8748 6.89054 38.0838 7.51669C38.1155 7.60995 38.1393 7.70587 38.1922 7.79913C38.261 7.58597 38.3297 7.37015 38.4011 7.15699C38.6127 6.52817 38.8243 5.90202 39.0359 5.27321C39.3639 4.29534 39.6918 3.31748 40.0198 2.33695C40.1785 1.86801 40.3346 1.39639 40.4985 0.930111C40.5144 0.887479 40.5779 0.836854 40.6176 0.836854C41.4666 0.831526 42.3156 0.83419 43.1646 0.83419C43.1778 0.83419 43.1884 0.839519 43.2096 0.844848C41.9056 4.7483 40.6017 8.6491 39.2978 12.5499H37.0919C36.9306 12.0676 36.7692 11.58 36.6079 11.0951C36.1636 9.75752 35.7192 8.41995 35.2749 7.08238C35.1453 6.69071 35.021 6.29903 34.8887 5.91001C34.7935 5.63024 34.6877 5.35314 34.5846 5.07337C34.5899 5.05205 34.5925 5.03074 34.5978 5.00942C34.5899 5.00942 34.5819 5.00676 34.574 5.00409C34.5687 5.02807 34.5608 5.04939 34.5555 5.07337C34.373 5.62225 34.1931 6.17113 34.0106 6.72002C33.8017 7.34883 33.5927 7.98031 33.3811 8.60913C33.2039 9.13136 33.0188 9.65094 32.8469 10.1732C32.585 10.9645 32.3311 11.7585 32.0693 12.5552C31.5641 12.5552 31.0695 12.5552 30.5723 12.5552C30.358 12.5552 30.1464 12.5605 29.9322 12.5526C29.8899 12.5526 29.8211 12.5152 29.8079 12.4806C29.5751 11.7878 29.3503 11.0951 29.1255 10.3997C29.1096 10.381 29.0911 10.3624 29.0753 10.3437C28.9457 9.9387 28.8187 9.5337 28.6865 9.1287C28.4749 8.48656 28.2606 7.84709 28.0464 7.20761C27.7819 6.41627 27.5148 5.62758 27.2503 4.8389C26.8879 3.75712 26.5282 2.67801 26.1685 1.59623C26.0865 1.34843 26.0045 1.09797 25.9199 0.83419H26.2505C26.9884 0.83419 27.7264 0.836854 28.4643 0.831526C28.5833 0.831526 28.6362 0.85817 28.6732 0.978072C29.0726 2.20107 29.4826 3.41873 29.8846 4.64172C30.2258 5.67821 30.5643 6.71469 30.9055 7.75117C30.9082 7.76182 30.9214 7.77248 30.932 7.78048C30.9373 7.79113 30.9452 7.80179 30.9505 7.80979C30.9531 7.79646 30.9558 7.78314 30.9584 7.76982L30.969 7.76715Z" fill="white"/>
<path d="M105.314 12.5472C105.314 12.5472 105.296 12.5526 105.288 12.5579C105.232 12.5579 105.177 12.5526 105.121 12.5526C102.119 12.5526 99.1199 12.5526 96.1179 12.5526H95.9486V0.831526C96.0042 0.831526 96.0544 0.831526 96.1047 0.831526C99.6726 0.831526 103.238 0.831526 106.806 0.831526C106.856 0.831526 106.906 0.836854 106.957 0.842183C106.965 0.852841 106.973 0.866164 106.98 0.876822V3.53863C106.98 3.53863 106.965 3.55462 106.957 3.56261C106.901 3.56261 106.846 3.56794 106.79 3.56794C104.082 3.56794 101.373 3.56794 98.6649 3.56794C98.6147 3.56794 98.5644 3.56794 98.5036 3.56794V5.32117H106.385V8.06025H98.5036V9.81081H98.6517C101.355 9.81081 104.061 9.81081 106.764 9.81081C106.819 9.81081 106.875 9.81081 106.93 9.81347C106.938 9.82146 106.946 9.82946 106.954 9.83479C106.957 10.1146 106.962 10.3943 106.965 10.6741C106.965 10.6927 106.965 10.7087 106.965 10.7274C106.965 11.2603 106.962 11.7932 106.959 12.3287C106.959 12.3927 106.957 12.4593 106.954 12.5232C106.457 12.5232 105.96 12.5232 105.462 12.5232C105.415 12.5232 105.364 12.5366 105.317 12.5446L105.314 12.5472Z" fill="white"/>
<path d="M43.5243 12.5259C43.5216 12.4833 43.5164 12.4433 43.5164 12.4007C43.5164 8.58781 43.5164 4.77761 43.5164 0.964749C43.5164 0.927447 43.5164 0.890144 43.5164 0.842183H54.5429V3.56794H46.0607V5.32383H53.9531V8.06291H46.0634V9.80814H54.527V12.5472C54.4847 12.5472 54.4424 12.5526 54.4027 12.5526C50.8136 12.5526 47.2219 12.5526 43.6327 12.5526C43.6063 12.5526 43.5772 12.5526 43.5507 12.5499C43.5428 12.5419 43.5349 12.5339 43.5269 12.5286L43.5243 12.5259Z" fill="white"/>
<path d="M63.0568 11.0125C63.0224 10.9752 62.9854 10.9379 62.951 10.9006C62.9404 10.8819 62.9298 10.8633 62.9166 10.8446C62.8822 10.8073 62.8452 10.77 62.8108 10.7327C62.8002 10.7141 62.7897 10.6954 62.7764 10.6768C62.7421 10.6395 62.705 10.6022 62.6706 10.5649C62.6601 10.5462 62.6495 10.5275 62.6363 10.5089C62.6019 10.4716 62.5648 10.4343 62.5305 10.397C62.5199 10.3783 62.5093 10.3597 62.4961 10.341C62.4617 10.3037 62.4247 10.2664 62.3903 10.2291C62.3797 10.2105 62.3691 10.1918 62.3559 10.1732C62.3215 10.1359 62.2845 10.0986 62.2501 10.0613C62.2395 10.0426 62.229 10.024 62.2157 10.0053C62.1813 9.96801 62.1443 9.93071 62.1099 9.8934C62.0993 9.87475 62.0888 9.8561 62.0755 9.83745C62.0412 9.80015 62.0041 9.76285 61.9698 9.72554C61.9592 9.70689 61.9486 9.68824 61.9354 9.66959C61.901 9.63229 61.864 9.59498 61.8296 9.55768C61.819 9.53903 61.8084 9.52038 61.7952 9.50173C61.7608 9.46442 61.7238 9.42712 61.6894 9.38982C61.6788 9.37117 61.6682 9.35252 61.655 9.33387C61.6206 9.29656 61.5836 9.25926 61.5492 9.22196C61.5386 9.20331 61.5281 9.18465 61.5148 9.166C61.4804 9.1287 61.4434 9.0914 61.409 9.0541C61.3985 9.03544 61.3879 9.01679 61.3747 8.99814C61.3403 8.96084 61.3032 8.92354 61.2689 8.88623C61.2583 8.86758 61.2477 8.84893 61.2345 8.83028C61.2001 8.79298 61.1631 8.75567 61.1287 8.71837C61.1181 8.69972 61.1049 8.68107 61.0943 8.65975C61.0837 8.65975 61.0784 8.65442 61.0758 8.64377C61.0652 8.63311 61.0573 8.61979 61.0467 8.60913C60.3722 7.7938 59.6978 6.98113 59.0233 6.1658C58.981 6.11251 58.9228 6.07255 58.8726 6.02459C58.8726 6.01393 58.8726 6.00327 58.8726 5.99261C58.9281 5.98995 58.9837 5.98462 59.0392 5.98462C61.1207 5.98462 63.2023 5.97396 65.2838 5.98995C65.8657 5.99528 66.0059 5.67021 66.0773 5.25189C66.1143 5.0334 66.1169 4.80959 66.1064 4.58844C66.0958 4.39926 66.0587 4.20475 66.0032 4.02357C65.9159 3.73314 65.7281 3.57327 65.3711 3.57327C64.649 3.57061 63.9243 3.57327 63.2023 3.57327C61.5704 3.57327 59.9385 3.57327 58.3066 3.57327C58.2563 3.57327 58.2061 3.57327 58.1452 3.57327C58.1452 3.63988 58.1452 3.69584 58.1452 3.74913C58.1452 6.62143 58.1452 9.4964 58.1452 12.3687C58.1452 12.422 58.132 12.4753 58.1267 12.5286C58.1161 12.5366 58.1082 12.5446 58.0976 12.5499C57.2724 12.5499 56.4472 12.5499 55.622 12.5499C55.6141 12.5419 55.6088 12.5339 55.6009 12.5259C55.6009 12.4939 55.5982 12.462 55.5982 12.4273C55.5982 8.60113 55.5982 4.77495 55.5982 0.948762C55.5982 0.916789 55.5982 0.884815 55.6009 0.850177C55.6088 0.844848 55.6167 0.836854 55.622 0.831526C58.9228 0.831526 62.2263 0.831526 65.5271 0.831526C65.8948 0.831526 66.2571 0.882151 66.6036 1.01804C66.6618 1.03935 66.7279 1.04735 66.7808 1.07666C66.8496 1.1113 66.9078 1.17524 66.9765 1.20189C67.2146 1.28982 67.3521 1.50031 67.5399 1.64952C67.7303 1.80139 67.8229 2.02255 67.9763 2.19574C67.9948 2.20906 68.0133 2.22238 68.0318 2.23837C68.0345 2.27034 68.0318 2.30498 68.0424 2.33162C68.1562 2.57409 68.2619 2.81922 68.3942 3.05103C68.492 3.22156 68.4973 3.41074 68.5344 3.59192C68.574 3.77843 68.5873 3.97028 68.619 4.15945C68.6269 4.19942 68.6666 4.23672 68.6825 4.2607C68.6693 4.34863 68.6481 4.4259 68.6481 4.50584C68.6428 4.7563 68.6613 5.00942 68.6428 5.25988C68.582 6.09919 68.3413 6.87988 67.8335 7.55932C67.7171 7.71653 67.5769 7.85508 67.4473 8.00163C67.4394 8.00962 67.4341 8.01495 67.4262 8.02294C67.1088 8.32936 66.7332 8.5212 66.31 8.6411C65.8868 8.761 65.4557 8.71304 65.0272 8.72636C64.8976 8.72903 64.768 8.72903 64.6384 8.73169C64.6305 8.73169 64.6252 8.73169 64.6173 8.73169L64.6332 8.75301C64.7363 8.87025 64.8421 8.98482 64.94 9.10472C65.0537 9.24327 65.1568 9.38982 65.2706 9.52837C65.4769 9.7815 65.6858 10.0293 65.8921 10.2798C65.9133 10.3064 65.9424 10.3277 65.9688 10.349C65.9794 10.365 65.99 10.3837 66.0006 10.3997C66.1196 10.5409 66.2412 10.6821 66.3603 10.8233C66.4052 10.8579 66.4475 10.8952 66.4925 10.9299C66.4952 10.9379 66.5004 10.9485 66.5031 10.9565L66.5877 11.0977C66.6248 11.1377 66.6591 11.1777 66.6962 11.2176C66.7015 11.223 66.7094 11.231 66.7147 11.2363C66.8125 11.3509 66.9157 11.4601 67.0109 11.5774C67.167 11.7692 67.3151 11.9637 67.4711 12.1529C67.5531 12.2515 67.6457 12.3421 67.733 12.438C67.7435 12.4513 67.7409 12.4753 67.7462 12.4966C67.7409 12.4913 67.733 12.4886 67.7277 12.4833C67.733 12.4886 67.7409 12.4939 67.7462 12.4966C67.7541 12.5046 67.7647 12.5126 67.7726 12.5206C67.7488 12.5286 67.725 12.5366 67.7012 12.5446C66.5983 12.5446 65.498 12.5499 64.3951 12.5446C64.329 12.5446 64.2629 12.4566 64.1941 12.4087C64.1835 12.39 64.1729 12.3714 64.1624 12.3527L64.0566 12.2408C64.046 12.2222 64.0354 12.2035 64.0248 12.1849C63.9904 12.1475 63.9534 12.1102 63.919 12.0729C63.9085 12.0543 63.8979 12.0356 63.8873 12.017C63.8529 11.9797 63.8159 11.9424 63.7815 11.9051C63.7709 11.8864 63.7603 11.8678 63.7498 11.8491C63.7154 11.8118 63.6783 11.7745 63.644 11.7372C63.6334 11.7186 63.6228 11.6999 63.6122 11.6813C63.5778 11.644 63.5408 11.6067 63.5064 11.5694C63.4959 11.5507 63.4853 11.5321 63.4747 11.5134C63.4403 11.4761 63.4033 11.4388 63.3689 11.4015C63.3583 11.3828 63.3477 11.3642 63.3372 11.3455C63.3028 11.3082 63.2657 11.2709 63.2314 11.2336C63.2208 11.215 63.2102 11.1963 63.1996 11.1777C63.1652 11.1404 63.1282 11.1031 63.0938 11.0658C63.0832 11.0471 63.0727 11.0285 63.0594 11.0098L63.0568 11.0125Z" fill="white"/>
<path d="M82.1291 12.5499C81.3039 12.5499 80.4787 12.5499 79.6535 12.5499C79.6455 12.5419 79.6376 12.5339 79.6297 12.5259C79.6297 11.3962 79.627 10.2691 79.6244 9.13936C79.6244 9.04344 79.6244 8.94485 79.6244 8.84094H71.941V12.5472C71.0867 12.5472 70.2483 12.5472 69.4098 12.5472C69.4019 12.5392 69.3966 12.5312 69.3887 12.5232C69.3887 12.1689 69.386 11.8145 69.386 11.4601C69.386 9.15002 69.386 6.84258 69.386 4.53248C69.386 4.38594 69.3649 4.23939 69.3569 4.09284C69.3569 4.06353 69.3702 4.03156 69.3807 4.00225C69.3887 3.97294 69.4178 3.9383 69.4098 3.91432C69.3384 3.67985 69.4892 3.48534 69.5394 3.28018C69.6452 2.85919 69.833 2.46485 70.0869 2.11047C70.3302 1.76676 70.6133 1.45235 70.973 1.23653C71.4279 0.964749 71.9304 0.828861 72.4673 0.831526C74.6705 0.836854 76.8737 0.826197 79.0769 0.836854C80.4099 0.842183 81.2722 1.56959 81.8196 2.73396C82.0074 3.1363 82.0974 3.56794 82.1423 4.01291C82.1714 4.28735 82.1661 4.55913 82.1661 4.8309C82.1688 7.34617 82.1661 9.85877 82.1661 12.374C82.1661 12.4247 82.1608 12.4753 82.1582 12.5259C82.1503 12.5339 82.1423 12.5419 82.1317 12.5472L82.1291 12.5499ZM71.9383 6.08853H79.6006C79.6006 5.44906 79.6217 4.81492 79.5926 4.18343C79.5741 3.80774 79.4445 3.56794 78.9288 3.57061C76.7996 3.57593 74.6705 3.57061 72.5414 3.57061C72.2213 3.57061 72.0679 3.67452 71.9965 3.98893C71.9542 4.17278 71.9436 4.36728 71.941 4.55646C71.933 5.06271 71.941 5.57163 71.941 6.08587L71.9383 6.08853Z" fill="white"/>
<path d="M19.5986 0.83419C20.609 0.83419 21.622 0.828861 22.6323 0.83419C23.8966 0.842183 24.8858 1.38307 25.6025 2.42222C25.904 2.85919 26.1051 3.34679 26.15 3.88235C26.1818 4.24205 26.2082 4.60176 26.2082 4.96146C26.2161 6.25373 26.2108 7.546 26.2082 8.83827C26.2082 9.71222 25.986 10.5142 25.4306 11.2017C25.0524 11.6706 24.5948 12.0356 24.042 12.2781C23.7379 12.4113 23.4231 12.4913 23.0952 12.5232C22.9127 12.5419 22.7302 12.5499 22.545 12.5499C20.5746 12.5499 18.6015 12.5499 16.6311 12.5472C16.2264 12.5472 15.8535 12.4167 15.4726 12.2914C15.1843 12.1955 14.9304 12.0356 14.7029 11.8491C14.3168 11.5347 13.9941 11.159 13.7349 10.7247C13.5048 10.3357 13.4122 9.91206 13.3223 9.48574C13.2747 9.26725 13.2906 9.03278 13.2906 8.8063C13.2906 7.27156 13.2826 5.73682 13.2906 4.20209C13.2932 3.62656 13.5022 3.10166 13.7799 2.60873C14.092 2.05985 14.5337 1.6362 15.0679 1.30847C15.4329 1.08465 15.827 0.948762 16.2476 0.884815C16.4591 0.852841 16.6787 0.839519 16.8929 0.836854C17.7922 0.831526 18.6914 0.836854 19.5933 0.836854L19.5986 0.83419ZM19.7626 9.81081C20.7677 9.81081 21.7754 9.81613 22.7804 9.80548C23.111 9.80281 23.4099 9.67492 23.5527 9.35252C23.6321 9.17133 23.6665 8.95817 23.6665 8.761C23.6665 7.29288 23.6559 5.82475 23.6453 4.35663C23.6453 4.03422 23.4496 3.75179 23.1454 3.65587C22.9682 3.59992 22.7725 3.57327 22.5874 3.57327C20.8444 3.56794 19.1014 3.56794 17.3558 3.57327C17.1098 3.57327 16.8665 3.58393 16.6205 3.59725C16.1629 3.6239 15.8191 4.00225 15.8244 4.46587C15.8297 5.26255 15.8297 6.06189 15.8297 6.85857C15.8297 7.54334 15.8138 8.23077 15.8297 8.91554C15.8376 9.25659 15.946 9.59232 16.3692 9.7362C16.5041 9.78416 16.6549 9.81081 16.7977 9.81081C17.7842 9.81613 18.7734 9.81347 19.76 9.81347L19.7626 9.81081Z" fill="white"/>
<path d="M5.6918 8.66508C5.64419 8.61979 5.59394 8.57715 5.54898 8.52919C5.23159 8.19347 4.9142 7.86041 4.60211 7.52202C4.30323 7.19696 4.00965 6.86656 3.71342 6.53883C3.54944 6.35765 3.38281 6.18179 3.21619 6.00327C3.21619 5.99528 3.21619 5.98995 3.21619 5.98196C3.27173 5.98196 3.32727 5.97663 3.38281 5.97663C5.41409 5.97663 7.44536 5.9713 9.47664 5.98196C9.84428 5.98196 10.0003 5.73682 10.0294 5.49702C10.0717 5.14265 10.0929 4.78028 10.085 4.42324C10.0823 4.23406 10.0347 4.03156 9.95007 3.8637C9.8575 3.67718 9.69881 3.55195 9.45019 3.55462C7.18616 3.56261 4.92214 3.55995 2.66076 3.55995H2.52058V12.5019H0V0.823532H0.158693C3.24792 0.823532 6.33715 0.83419 9.42638 0.818203C10.5029 0.812874 11.3122 1.25251 11.9046 2.14245C12.2088 2.59807 12.4178 3.09366 12.5341 3.62656C12.5923 3.89301 12.6188 4.17278 12.6241 4.44455C12.6346 4.80692 12.632 5.17462 12.595 5.53432C12.5447 6.0086 12.4125 6.46423 12.1956 6.89054C11.9734 7.32752 11.6931 7.71386 11.3333 8.04959C11.0345 8.32669 10.6906 8.51587 10.3018 8.61446C10.0797 8.67041 9.84957 8.70771 9.62211 8.71038C8.33405 8.71837 7.04334 8.71038 5.75528 8.71038L5.69445 8.66242L5.6918 8.66508Z" fill="white"/>
<path d="M66.5057 10.9299C66.4608 10.8952 66.4184 10.8579 66.3735 10.8233C66.4581 10.8073 66.519 10.8233 66.5057 10.9299Z" fill="white"/>
<path d="M95.0441 9.41913C94.9885 9.34719 95.0362 9.33653 95.0943 9.33387C95.0785 9.36317 95.06 9.38982 95.0441 9.41913Z" fill="white"/>
<path d="M34.5608 5.0707C34.5661 5.04672 34.574 5.02541 34.5793 5.00143C34.5872 5.00143 34.5951 5.00409 34.6031 5.00676C34.5978 5.02807 34.5951 5.04939 34.5899 5.0707C34.5793 5.0707 34.5713 5.0707 34.5608 5.0707Z" fill="white"/>
<path d="M61.9433 9.66692C61.9539 9.68558 61.9645 9.70423 61.9777 9.72288C61.9671 9.70423 61.9565 9.68558 61.9433 9.66692Z" fill="white"/>
<path d="M61.1075 8.65975C61.1181 8.6784 61.1313 8.69706 61.1419 8.71837C61.1313 8.69972 61.1181 8.68107 61.1075 8.65975Z" fill="white"/>
<path d="M61.2477 8.82761C61.2583 8.84627 61.2689 8.86492 61.2821 8.88357C61.2715 8.86492 61.2609 8.84627 61.2477 8.82761Z" fill="white"/>
<path d="M61.3879 8.99548C61.3985 9.01413 61.409 9.03278 61.4223 9.05143C61.4117 9.03278 61.4011 9.01413 61.3879 8.99548Z" fill="white"/>
<path d="M61.5254 9.16334C61.536 9.18199 61.5466 9.20064 61.5598 9.21929C61.5492 9.20064 61.5386 9.18199 61.5254 9.16334Z" fill="white"/>
<path d="M61.6656 9.3312C61.6762 9.34985 61.6867 9.3685 61.7 9.38715C61.6894 9.3685 61.6788 9.34985 61.6656 9.3312Z" fill="white"/>
<path d="M61.8058 9.49906C61.8163 9.51771 61.8269 9.53636 61.8401 9.55502C61.8296 9.53636 61.819 9.51771 61.8058 9.49906Z" fill="white"/>
<path d="M93.5682 11.9291C93.5841 11.9131 93.6 11.8971 93.6132 11.8811C93.5973 11.8971 93.5815 11.9131 93.5682 11.9291Z" fill="white"/>
<path d="M62.0835 9.83479C62.0941 9.85344 62.1046 9.87209 62.1179 9.89074C62.1073 9.87209 62.0967 9.85344 62.0835 9.83479Z" fill="white"/>
<path d="M62.2237 10.0026C62.2342 10.0213 62.2448 10.04 62.258 10.0586C62.2475 10.04 62.2369 10.0213 62.2237 10.0026Z" fill="white"/>
<path d="M62.3612 10.1705C62.3718 10.1892 62.3824 10.2078 62.3956 10.2265C62.385 10.2078 62.3744 10.1892 62.3612 10.1705Z" fill="white"/>
<path d="M62.5014 10.3384C62.512 10.357 62.5225 10.3757 62.5358 10.3943C62.5252 10.3757 62.5146 10.357 62.5014 10.3384Z" fill="white"/>
<path d="M62.6389 10.5062C62.6495 10.5249 62.6601 10.5435 62.6733 10.5622C62.6627 10.5435 62.6521 10.5249 62.6389 10.5062Z" fill="white"/>
<path d="M62.7791 10.6741C62.7897 10.6927 62.8002 10.7114 62.8135 10.73C62.8029 10.7114 62.7923 10.6927 62.7791 10.6741Z" fill="white"/>
<path d="M62.9193 10.842C62.9298 10.8606 62.9404 10.8793 62.9537 10.8979C62.9431 10.8793 62.9325 10.8606 62.9193 10.842Z" fill="white"/>
<path d="M68.0424 2.23837C68.0239 2.22505 68.0054 2.21172 67.9869 2.19574C68.0054 2.20906 68.0239 2.22238 68.0424 2.23837Z" fill="white"/>
<path d="M94.4305 11.0445C94.4463 11.0258 94.4622 11.0072 94.4754 10.9858C94.4596 11.0045 94.4437 11.0231 94.4305 11.0445Z" fill="white"/>
<path d="M106.962 10.73C106.962 10.7114 106.962 10.6954 106.962 10.6768C106.978 10.6768 106.994 10.6768 107.01 10.6768C106.994 10.6954 106.978 10.7114 106.962 10.73Z" fill="white"/>
<path d="M58.8885 5.99261C58.8885 5.99261 58.8885 6.01393 58.8885 6.02459C58.8805 6.01926 58.8726 6.01393 58.8647 6.00594C58.8726 6.00061 58.8805 5.99528 58.8885 5.99261Z" fill="white"/>
<path d="M61.0626 8.60646C61.0626 8.60646 61.0811 8.63044 61.0916 8.6411C61.0811 8.63044 61.0731 8.61712 61.0626 8.60646Z" fill="white"/>
<path d="M30.969 7.76715C30.969 7.76715 30.9637 7.7938 30.9611 7.80712C30.9558 7.79646 30.9478 7.7858 30.9426 7.77781C30.9531 7.77515 30.9611 7.77248 30.9717 7.76982L30.969 7.76715Z" fill="white"/>
<path d="M55.6326 0.83419C55.6326 0.83419 55.6167 0.847512 55.6114 0.852841C55.6194 0.847512 55.6273 0.839519 55.6326 0.83419Z" fill="white"/>
<path d="M93.2059 12.1529C93.2059 12.1529 93.2191 12.1422 93.2271 12.1369C93.2191 12.1422 93.2138 12.1475 93.2059 12.1529Z" fill="white"/>
<path d="M93.1503 12.1822C93.1503 12.1822 93.1662 12.1689 93.1768 12.1635C93.1689 12.1689 93.1609 12.1769 93.1503 12.1822Z" fill="white"/>
<path d="M3.21883 5.98196C3.21883 5.98196 3.21883 5.99528 3.21883 6.00327C3.2109 5.99794 3.20561 5.98995 3.19767 5.98462C3.20561 5.98462 3.2109 5.98462 3.21883 5.98462V5.98196Z" fill="white"/>
<path d="M64.6464 8.75034C64.6464 8.75034 64.6358 8.73702 64.6305 8.72903C64.6384 8.72903 64.6437 8.72903 64.6517 8.72903C64.6543 8.73702 64.6517 8.74502 64.649 8.75034H64.6464Z" fill="white"/>
<path d="M67.7568 12.4993C67.7568 12.4993 67.7435 12.4886 67.7383 12.4859C67.7435 12.4913 67.7515 12.4939 67.7568 12.4993Z" fill="white"/>
<path d="M43.5243 12.5259C43.5243 12.5259 43.5402 12.5419 43.5481 12.5472C43.5402 12.5392 43.5322 12.5312 43.5243 12.5259Z" fill="white"/>
<path d="M55.6088 12.5259C55.6088 12.5259 55.622 12.5419 55.63 12.5499C55.622 12.5419 55.6167 12.5339 55.6088 12.5259Z" fill="white"/>
<path d="M58.1082 12.5499C58.1082 12.5499 58.1267 12.5339 58.1373 12.5286C58.1267 12.5366 58.1188 12.5446 58.1082 12.5499Z" fill="white"/>
<path d="M94.2374 11.2869C94.2374 11.2869 94.2559 11.2709 94.2638 11.2656C94.2559 11.2736 94.2453 11.2816 94.2374 11.2869Z" fill="white"/>
<path d="M69.3887 12.5259C69.3887 12.5259 69.4019 12.5419 69.4098 12.5499C69.4019 12.5419 69.3966 12.5339 69.3887 12.5259Z" fill="white"/>
<path d="M79.627 12.5259C79.627 12.5259 79.6429 12.5419 79.6508 12.5499C79.6429 12.5419 79.635 12.5339 79.627 12.5259Z" fill="white"/>
<path d="M82.1291 12.5499C82.1291 12.5499 82.145 12.5339 82.1555 12.5286C82.1476 12.5366 82.1397 12.5446 82.1291 12.5499Z" fill="white"/>
<path d="M83.1368 12.5259C83.1368 12.5259 83.1527 12.5419 83.158 12.5499C83.15 12.5419 83.1421 12.5339 83.1368 12.5259Z" fill="white"/>
<path d="M106.957 3.56528C106.957 3.56528 106.973 3.54929 106.98 3.5413C106.973 3.54929 106.965 3.55728 106.957 3.56528Z" fill="white"/>
<path d="M92.0104 9.73087C92.0659 9.70423 92.1215 9.67758 92.177 9.64827C92.1215 9.67492 92.0659 9.70156 92.0104 9.73087Z" fill="white"/>
<path d="M92.46 9.0834C92.4785 9.05676 92.4971 9.02745 92.5156 9.0008C92.5632 9.07275 92.5156 9.0834 92.46 9.0834Z" fill="white"/>
<path d="M91.7856 9.81081C91.8147 9.79482 91.8438 9.77617 91.8702 9.76018C91.8411 9.77617 91.812 9.79482 91.7856 9.81081Z" fill="white"/>
<path d="M105.314 12.5472C105.362 12.5392 105.412 12.5259 105.46 12.5259C105.957 12.5259 106.454 12.5259 106.951 12.5259C106.933 12.5339 106.917 12.5526 106.898 12.5526C106.37 12.5526 105.843 12.5499 105.314 12.5472Z" fill="white"/>
<path d="M108.184 2.44087H107.983V1.27383C108.179 1.27383 108.374 1.26317 108.565 1.27649C108.734 1.28982 108.821 1.40439 108.821 1.58024C108.821 1.82005 108.768 1.88932 108.541 1.92929C108.636 2.09715 108.731 2.26501 108.827 2.43287C108.663 2.47551 108.559 2.43287 108.507 2.27567C108.48 2.1984 108.425 2.12912 108.393 2.05452C108.353 1.9586 108.295 1.91597 108.181 1.9506V2.4382L108.184 2.44087ZM108.184 1.74544C108.292 1.74544 108.388 1.75077 108.483 1.74544C108.57 1.73745 108.623 1.6735 108.596 1.59357C108.581 1.54294 108.517 1.48432 108.467 1.47366C108.377 1.45501 108.279 1.46834 108.184 1.46834V1.7481V1.74544Z" fill="white"/>
</svg>
