<svg width="47" height="37" viewBox="0 0 47 37" fill="none" xmlns="http://www.w3.org/2000/svg">
<path opacity="0.15" d="M0.359375 36.8203L1.90625 26.8359C2.42188 23.4609 3.38281 20.2266 4.78906 17.1328C6.19531 13.9922 7.92969 11.0391 9.99219 8.27344C12.0547 5.50781 14.3516 3.02344 16.8828 0.820312L25.1094 6.375C23.1875 9.60938 21.4531 12.8672 19.9062 16.1484C18.3594 19.4297 17.2578 22.9453 16.6016 26.6953L14.8438 36.8203H0.359375ZM21.3125 36.8203L22.8594 26.8359C23.375 23.4609 24.3359 20.2266 25.7422 17.1328C27.1484 13.9922 28.8828 11.0391 30.9453 8.27344C33.0078 5.50781 35.3047 3.02344 37.8359 0.820312L46.0625 6.375C44.1406 9.60938 42.4062 12.8672 40.8594 16.1484C39.3125 19.4297 38.2109 22.9453 37.5547 26.6953L35.7969 36.8203H21.3125Z" fill="#95A6B5"/>
</svg>
