<svg width="568" height="479" viewBox="0 0 568 479" fill="none" xmlns="http://www.w3.org/2000/svg">
<path fill-rule="evenodd" clip-rule="evenodd" d="M214.695 22.0915C214.695 22.0915 254.327 -17.0373 315.766 8.86657C358.858 27.0352 416.925 -13.7274 448.65 22.0916C480.041 57.534 461.786 112.816 478.255 157.349C500.608 217.795 590.404 272.416 561.362 326.88C531.539 382.809 434.396 316.551 378.669 344.106C325.119 370.586 319.769 462.5 261.169 475.319C199.896 488.723 131.872 454.281 84.1404 408.537C35.6831 362.096 -12.7343 291.785 3.22575 228.113C19.9106 161.549 132.377 174.14 158.612 111.434C186.651 44.4152 214.695 22.0915 214.695 22.0915Z" fill="#F2FDFF"/>
</svg>
