<svg width="360" height="479" viewBox="0 0 360 479" fill="none" xmlns="http://www.w3.org/2000/svg">
<path fill-rule="evenodd" clip-rule="evenodd" d="M135.93 22.2251C135.93 22.2251 175.561 -16.9038 237 9.00011C280.092 27.1687 338.159 -13.5939 369.884 22.2251C401.275 57.6676 383.021 112.95 399.489 157.482C421.842 217.928 511.639 272.549 482.597 327.013C452.773 382.943 355.63 316.684 299.904 344.24C246.353 370.719 241.004 462.634 182.404 475.453C121.13 488.857 53.1064 454.415 5.37482 408.67C-43.0825 362.23 -91.4999 291.919 -75.5399 228.246C-58.855 161.682 53.6111 174.274 79.8462 111.567C107.885 44.5487 135.93 22.2251 135.93 22.2251Z" fill="#F2FDFF"/>
</svg>
