<svg width="640" height="103" viewBox="0 0 640 103" fill="none" xmlns="http://www.w3.org/2000/svg">
<g clip-path="url(#clip0_9_180)">
<path d="M30.1708 0.360179C24.6912 0.618709 20.9493 1.49318 17.678 2.77862C14.2924 4.09805 11.4228 5.86862 8.56762 8.73408C5.71246 11.5995 3.95425 14.4712 2.64409 17.8619C1.37616 21.1404 0.517143 24.8855 0.275093 30.3682C0.0330435 35.8509 -0.0205165 37.6132 0.00626351 51.5986C0.0330435 65.5839 0.0948435 67.337 0.360583 72.831C0.622203 78.3095 1.49358 82.0505 2.77902 85.3228C4.10051 88.7084 5.86902 91.577 8.73551 94.4332C11.602 97.2894 14.4716 99.0434 17.8706 100.356C21.146 101.622 24.8921 102.485 30.3738 102.725C35.8554 102.965 37.6198 103.02 51.601 102.993C65.5822 102.967 67.3425 102.905 72.8355 102.644C78.3285 102.384 82.0499 101.506 85.3232 100.227C88.7088 98.9023 91.5794 97.1369 94.4336 94.2694C97.2877 91.4019 99.0449 88.5282 100.354 85.1354C101.623 81.86 102.485 78.1139 102.723 72.6363C102.963 67.1392 103.02 65.3841 102.993 51.4008C102.966 37.4175 102.903 35.6645 102.643 30.1725C102.382 24.6805 101.51 20.9509 100.225 17.6765C98.9017 14.2909 97.1353 11.4244 94.2698 8.56619C91.4043 5.70794 88.5286 3.95179 85.1368 2.64575C81.8593 1.37782 78.1153 0.513649 72.6336 0.276749C67.152 0.0398487 65.3876 -0.0209213 51.4012 0.0058587C37.4148 0.0326387 35.6638 0.0923787 30.1708 0.360179ZM30.7724 93.4598C25.7511 93.2415 23.0247 92.4072 21.2078 91.7088C18.8017 90.7818 17.0878 89.6612 15.277 87.868C13.4663 86.0747 12.3539 84.3546 11.4145 81.9537C10.709 80.1368 9.85924 77.4135 9.6244 72.3922C9.36896 66.9651 9.3154 65.3357 9.28553 51.5862C9.25566 37.8367 9.30819 36.2093 9.54612 30.7802C9.76036 25.7631 10.5998 23.0336 11.2971 21.2177C12.2241 18.8085 13.3406 17.0977 15.138 15.288C16.9353 13.4783 18.6503 12.3638 21.0533 11.4244C22.8681 10.7158 25.5915 9.87326 30.6107 9.6343C36.0418 9.3768 37.6692 9.3253 51.4167 9.29543C65.1641 9.26556 66.7956 9.31706 72.2288 9.55602C77.246 9.77438 79.9765 10.6056 81.7903 11.307C84.1974 12.234 85.9103 13.3475 87.72 15.1479C89.5297 16.9483 90.6452 18.6571 91.5846 21.0652C92.2943 22.875 93.1368 25.5972 93.3737 30.6195C93.6322 36.0507 93.6909 37.6791 93.7157 51.4255C93.7404 65.1719 93.692 66.8045 93.454 72.2315C93.2346 77.2528 92.4024 79.9802 91.703 81.7992C90.776 84.2042 89.6585 85.9192 87.8601 87.7279C86.0617 89.5365 84.3488 90.651 81.9448 91.5904C80.132 92.298 77.4056 93.1426 72.3905 93.3815C66.9594 93.637 65.3319 93.6905 51.5794 93.7204C37.8268 93.7503 36.2046 93.6947 30.7734 93.4598M72.7562 23.975C72.7582 25.1974 73.1227 26.3917 73.8036 27.4069C74.4844 28.4221 75.4511 29.2126 76.5812 29.6784C77.7113 30.1442 78.9542 30.2644 80.1527 30.0238C81.3512 29.7831 82.4513 29.1925 83.3141 28.3266C84.1769 27.4606 84.7635 26.3583 84.9997 25.159C85.2359 23.9596 85.1112 22.7172 84.6412 21.5888C84.1713 20.4603 83.3772 19.4966 82.3595 18.8195C81.3418 18.1424 80.1462 17.7822 78.9238 17.7847C77.2851 17.788 75.7149 18.4419 74.5583 19.6028C73.4017 20.7636 72.7534 22.3363 72.7562 23.975ZM25.0569 51.5512C25.0857 66.1566 36.9472 77.9697 51.5495 77.9418C66.1518 77.914 77.9731 66.0536 77.9453 51.4482C77.9175 36.8428 66.0529 25.0266 51.4486 25.0555C36.8442 25.0843 25.0291 36.9478 25.0569 51.5512ZM34.3331 51.5326C34.3264 48.1373 35.3266 44.8163 37.2074 41.9895C39.0881 39.1626 41.7649 36.957 44.8991 35.6515C48.0334 34.3459 51.4844 33.9991 54.8158 34.6549C58.1472 35.3107 61.2093 36.9397 63.6149 39.3358C66.0205 41.7318 67.6615 44.7875 68.3305 48.1162C68.9995 51.445 68.6664 54.8974 67.3733 58.0368C66.0802 61.1762 63.8851 63.8617 61.0658 65.7536C58.2464 67.6455 54.9294 68.6589 51.5341 68.6657C49.2796 68.6704 47.0463 68.231 44.9616 67.3725C42.877 66.514 40.9819 65.2532 39.3846 63.6622C37.7873 62.0712 36.519 60.1811 35.6523 58.0999C34.7855 56.0187 34.3373 53.7871 34.3331 51.5326Z" fill="#B9F615"/>
</g>
<g clip-path="url(#clip1_9_180)">
<path d="M360.5 51.5001C360.5 23.0575 337.443 0.000144958 309 0.000144958C280.557 0.000144958 257.5 23.0575 257.5 51.5001C257.5 77.2053 276.333 98.511 300.953 102.375V66.3869H287.877V51.5001H300.953V40.1541C300.953 27.2469 308.642 20.1173 320.405 20.1173C326.04 20.1173 331.934 21.1232 331.934 21.1232V33.797H325.44C319.042 33.797 317.047 37.7668 317.047 41.8396V51.5001H331.33L329.047 66.3869H317.047V102.375C341.667 98.511 360.5 77.2053 360.5 51.5001Z" fill="#B9F615"/>
</g>
<g clip-path="url(#clip2_9_180)">
<path d="M626.845 25.8963C626.921 26.9919 626.921 28.0875 626.921 29.1933C626.921 62.8854 601.321 101.743 554.512 101.743V101.722C540.684 101.743 527.144 97.7741 515.503 90.2915C517.514 90.5338 519.534 90.655 521.56 90.66C533.019 90.6701 544.151 86.8177 553.166 79.7238C542.276 79.5168 532.727 72.4028 529.391 62.0169C533.206 62.7541 537.136 62.6026 540.881 61.5777C529.008 59.1743 520.467 48.7229 520.467 36.585C520.467 36.4739 520.467 36.3679 520.467 36.2619C524.004 38.2361 527.965 39.3317 532.017 39.4529C520.834 31.9652 517.388 17.0605 524.14 5.40733C537.061 21.337 556.124 31.021 576.589 32.046C574.538 23.19 577.34 13.9099 583.951 7.68444C594.201 -1.96929 610.321 -1.47448 619.956 8.79017C625.656 7.66424 631.118 5.5689 636.117 2.60008C634.218 8.50238 630.242 13.5161 624.93 16.702C629.974 16.1062 634.903 14.7531 639.544 12.688C636.127 17.8178 631.824 22.2862 626.845 25.8963Z" fill="#B9F615"/>
</g>
<defs>
<clipPath id="clip0_9_180">
<rect width="103" height="103" fill="white"/>
</clipPath>
<clipPath id="clip1_9_180">
<rect width="103" height="103" fill="white" transform="translate(257.5)"/>
</clipPath>
<clipPath id="clip2_9_180">
<rect width="124.973" height="103" fill="white" transform="translate(515)"/>
</clipPath>
</defs>
</svg>
