<svg width="22" height="21" viewBox="0 0 22 21" fill="none" xmlns="http://www.w3.org/2000/svg">
<path d="M12.3526 5.29845H9.74932V11.0698L14.037 15.3708L15.8762 13.5202L12.3526 9.98242V5.29845ZM11.051 0.0708008C5.29894 0.0708008 0.637695 4.75085 0.637695 10.5261C0.637695 16.3013 5.29894 20.9814 11.051 20.9814C16.803 20.9814 21.4643 16.3013 21.4643 10.5261C21.4643 4.75085 16.803 0.0708008 11.051 0.0708008ZM11.051 18.3676C6.73988 18.3676 3.24102 14.8546 3.24102 10.5261C3.24102 6.1976 6.73988 2.68462 11.051 2.68462C15.3621 2.68462 18.8609 6.1976 18.8609 10.5261C18.8609 14.8546 15.3621 18.3676 11.051 18.3676Z" fill="#F0EAE1"/>
</svg>
