<svg width="125" height="102" viewBox="0 0 125 102" fill="none" xmlns="http://www.w3.org/2000/svg">
<path d="M111.845 25.8963C111.921 26.9919 111.921 28.0875 111.921 29.1933C111.921 62.8854 86.3213 101.743 39.5117 101.743V101.722C25.6841 101.743 12.1436 97.7741 0.50293 90.2915C2.51359 90.5338 4.53433 90.655 6.56011 90.66C18.0194 90.6701 29.1511 86.8177 38.1663 79.7238C27.2765 79.5168 17.7271 72.4028 14.3911 62.0169C18.2058 62.7541 22.1364 62.6026 25.8806 61.5777C14.0081 59.1743 5.46659 48.7229 5.46659 36.585C5.46659 36.4739 5.46659 36.3679 5.46659 36.2619C9.00414 38.2361 12.965 39.3317 17.0165 39.4529C5.83445 31.9652 2.38761 17.0605 9.1402 5.40733C22.0608 21.337 41.1243 31.021 61.5887 32.046C59.5377 23.19 62.3395 13.9099 68.951 7.68444C79.2009 -1.96929 95.3214 -1.47448 104.956 8.79017C110.656 7.66424 116.118 5.5689 121.117 2.60008C119.218 8.50238 115.242 13.5161 109.93 16.702C114.974 16.1062 119.903 14.7531 124.544 12.688C121.127 17.8178 116.824 22.2862 111.845 25.8963Z" fill="#B9F615"/>
</svg>
