<svg width="512" height="512" viewBox="0 0 512 512" fill="none" xmlns="http://www.w3.org/2000/svg">
<path fill-rule="evenodd" clip-rule="evenodd" d="M456.035 87.6964C478.065 93.5841 495.412 110.935 501.299 132.96C512 172.893 512 256.197 512 256.197C512 256.197 512 339.505 501.299 379.433C495.412 401.458 478.065 418.814 456.035 424.697C416.107 435.398 255.998 435.398 255.998 435.398C255.998 435.398 95.8928 435.398 55.9645 424.697C33.9352 418.814 16.5883 401.458 10.7006 379.433C0 339.505 0 256.197 0 256.197C0 256.197 0 172.893 10.7006 132.96C16.5883 110.935 33.9352 93.5841 55.9645 87.6964C95.8928 77 255.998 77 255.998 77C255.998 77 416.107 77 456.035 87.6964ZM337.814 256.201L204.8 332.998V179.396L337.814 256.201Z" fill="#E3F7FC"/>
</svg>
