<svg width="28" height="20" viewBox="0 0 28 20" fill="none" xmlns="http://www.w3.org/2000/svg">
<path d="M11.2393 13.9445V5.71827L18.4389 9.83139L11.2393 13.9445ZM27.2572 3.13007C26.9403 1.93192 26.0053 0.987929 24.8206 0.668078C22.6716 0.0871582 14.0565 0.0871582 14.0565 0.0871582C14.0565 0.0871582 5.44142 0.0871582 3.29238 0.668078C2.10766 0.987929 1.17263 1.93192 0.855781 3.13007C0.28064 5.3016 0.28064 9.83139 0.28064 9.83139C0.28064 9.83139 0.28064 14.3612 0.855781 16.5327C1.17263 17.7309 2.10766 18.6749 3.29238 18.9947C5.44142 19.5756 14.0565 19.5756 14.0565 19.5756C14.0565 19.5756 22.6716 19.5756 24.8206 18.9947C26.0053 18.6749 26.9403 17.7309 27.2572 16.5327C27.8323 14.3612 27.8323 9.83139 27.8323 9.83139C27.8323 9.83139 27.8323 5.3016 27.2572 3.13007Z" fill="#F0EAE1"/>
</svg>
