<svg width="431" height="527" viewBox="0 0 431 527" fill="none" xmlns="http://www.w3.org/2000/svg">
<path d="M280.598 512.944L280.597 512.944C221.95 529.499 158.185 522.753 106.571 498.193C54.9066 473.526 15.9793 431.135 6.53305 386.747L6.53226 386.743C1.78658 364.546 4.31371 341.518 9.14691 317.199C10.9163 308.296 13.0186 299.134 15.1622 289.792C18.7951 273.96 22.5468 257.61 24.9983 241.124C26.9657 227.894 28.122 214.47 29.1464 201.146C29.3332 198.717 29.5155 196.292 29.6974 193.872C30.5164 182.98 31.3278 172.189 32.5048 161.525C35.3807 135.472 40.3988 110.674 52.6884 88.4634C77.3356 43.9199 131.745 8.96398 189.807 4.76405C247.837 0.622288 309.695 27.2192 347.871 69.8063C386.017 112.36 400.804 171.048 413.407 232.48C426.032 294.074 435.908 355.793 414.335 406.176C392.793 456.487 339.44 496.35 280.598 512.944Z" stroke="#DDEAE8" stroke-width="8"/>
</svg>
