<svg width="149" height="41" viewBox="0 0 149 41" fill="none" xmlns="http://www.w3.org/2000/svg">
<path d="M128.46 0.426892L148.715 40.4876L0.318554 40.8889L0.254292 0.795816L128.46 0.426892Z" fill="#0962CF"/>
<path d="M20.2366 28.1484H13.3486L15.1546 13.4484H17.3806L15.8686 25.9644H20.5096L20.2366 28.1484ZM32.1161 23.7804H24.4931C24.4511 24.5084 24.6191 25.0684 24.9971 25.4604C25.3891 25.8384 25.9001 26.0694 26.5301 26.1534C27.1741 26.2234 27.8531 26.1534 28.5671 25.9434C29.2951 25.7194 29.9811 25.3694 30.6251 24.8934L31.6961 26.6574C30.8981 27.2734 30.0931 27.7074 29.2811 27.9594C28.4831 28.2114 27.7131 28.3374 26.9711 28.3374C25.1791 28.3514 23.8841 27.8474 23.0861 26.8254C22.3021 25.8034 22.0221 24.3684 22.2461 22.5204C22.4281 20.9944 23.0161 19.7834 24.0101 18.8874C25.0041 17.9774 26.2851 17.5294 27.8531 17.5434C29.0011 17.5434 29.9321 17.7814 30.6461 18.2574C31.3741 18.7334 31.8571 19.4124 32.0951 20.2944C32.2631 20.7564 32.3401 21.2744 32.3261 21.8484C32.3261 22.4224 32.2561 23.0664 32.1161 23.7804ZM27.9791 19.6224C27.0551 19.6224 26.2991 19.8674 25.7111 20.3574C25.1231 20.8474 24.7871 21.4424 24.7031 22.1424H30.3941C30.4781 21.4564 30.3101 20.8684 29.8901 20.3784C29.4841 19.8744 28.8471 19.6224 27.9791 19.6224ZM36.2226 28.2534C35.1586 28.2254 34.3606 27.9244 33.8286 27.3504C33.2966 26.7764 33.0936 25.9784 33.2196 24.9564C33.3036 24.2284 33.5556 23.6124 33.9756 23.1084C34.3956 22.6044 34.9276 22.2194 35.5716 21.9534C36.2156 21.6734 36.9226 21.5054 37.6926 21.4494C38.4766 21.3934 39.2676 21.4494 40.0656 21.6174L40.2126 20.8614C40.2546 20.4694 40.1566 20.1614 39.9186 19.9374C39.6946 19.7134 39.3796 19.5734 38.9736 19.5174C38.5816 19.4474 38.1476 19.4544 37.6716 19.5384C37.2096 19.6224 36.7546 19.7694 36.3066 19.9794C35.8726 20.1894 35.5156 20.4484 35.2356 20.7564L34.0386 19.2864C34.5986 18.7684 35.2426 18.3694 35.9706 18.0894C36.6986 17.8094 37.4336 17.6484 38.1756 17.6064C38.9316 17.5504 39.6246 17.6274 40.2546 17.8374C40.8986 18.0334 41.4166 18.3624 41.8086 18.8244C42.1026 19.0764 42.2846 19.4054 42.3546 19.8114C42.4386 20.2034 42.4596 20.6514 42.4176 21.1554C42.3896 21.6454 42.3406 22.1704 42.2706 22.7304L41.5986 28.1484H39.3306L39.4986 27.2244C38.9806 27.6164 38.4766 27.8894 37.9866 28.0434C37.4966 28.1974 36.9086 28.2674 36.2226 28.2534ZM39.5826 25.3134L39.9186 23.2344C38.4066 23.0944 37.2656 23.1854 36.4956 23.5074C35.7396 23.8294 35.3196 24.3824 35.2356 25.1664C35.1796 25.6004 35.2916 25.9084 35.5716 26.0904C35.8656 26.2724 36.2436 26.3564 36.7056 26.3424C37.1816 26.3284 37.6786 26.2304 38.1966 26.0484C38.7146 25.8664 39.1766 25.6214 39.5826 25.3134ZM43.2351 28.1484L44.5371 17.6484H46.7631L46.6161 18.4464C47.2041 17.9004 47.8621 17.6274 48.5901 17.6274C49.3321 17.6134 50.1721 17.7534 51.1101 18.0474L49.8711 19.9374C49.3251 19.7414 48.7791 19.6994 48.2331 19.8114C47.7011 19.9094 47.2461 20.1054 46.8681 20.3994C46.5041 20.6934 46.3081 21.0224 46.2801 21.3864L45.4611 28.1484H43.2351ZM60.5263 28.1484H58.3003L59.0773 21.9324C59.1473 21.3304 59.0843 20.8684 58.8883 20.5464C58.6923 20.2244 58.4263 20.0074 58.0903 19.8954C57.7683 19.7834 57.4393 19.7274 57.1033 19.7274C56.7533 19.7274 56.3613 19.7974 55.9273 19.9374C55.4933 20.0774 55.1083 20.3154 54.7723 20.6514C54.4363 20.9874 54.2333 21.4494 54.1633 22.0374L53.4073 28.1484H51.1603L52.4623 17.6484H54.7093L54.5413 18.5934C54.7233 18.3554 54.9683 18.1594 55.2763 18.0054C55.5983 17.8374 55.9413 17.7184 56.3053 17.6484C56.6693 17.5644 57.0123 17.5224 57.3343 17.5224C58.2163 17.5224 58.9723 17.7114 59.6023 18.0894C60.2463 18.4534 60.7153 18.9784 61.0093 19.6644C61.3173 20.3364 61.4083 21.1274 61.2823 22.0374L60.5263 28.1484ZM85.6607 28.1484H83.4347L84.1907 21.9954C84.3027 21.1834 84.1837 20.6094 83.8337 20.2734C83.4977 19.9374 83.0077 19.7694 82.3637 19.7694C81.6637 19.7694 81.0407 19.9584 80.4947 20.3364C79.9487 20.7004 79.6197 21.2884 79.5077 22.1004L78.7727 28.1484H76.6097L77.3657 21.9954C77.4777 21.1694 77.3377 20.5954 76.9457 20.2734C76.5677 19.9514 76.0707 19.7904 75.4547 19.7904C75.0487 19.7904 74.6357 19.8674 74.2157 20.0214C73.7957 20.1754 73.4387 20.4274 73.1447 20.7774C72.8507 21.1134 72.6687 21.5544 72.5987 22.1004L71.8427 28.1484H69.6167L70.9187 17.6484H73.1447L72.9977 18.5094C73.3757 18.1454 73.7957 17.8934 74.2577 17.7534C74.7337 17.6134 75.1957 17.5434 75.6437 17.5434C76.3297 17.5434 76.9667 17.6694 77.5547 17.9214C78.1427 18.1734 78.5837 18.5444 78.8777 19.0344C79.3257 18.5164 79.8927 18.1384 80.5787 17.9004C81.2787 17.6624 81.9437 17.5434 82.5737 17.5434C83.3577 17.5434 84.0577 17.7324 84.6737 18.1104C85.3037 18.4884 85.7797 19.0204 86.1017 19.7064C86.4237 20.3924 86.5287 21.1904 86.4167 22.1004L85.6607 28.1484ZM92.1141 28.3584C91.0921 28.3584 90.2171 28.1344 89.4891 27.6864C88.7751 27.2384 88.2501 26.6084 87.9141 25.7964C87.5781 24.9844 87.4801 24.0464 87.6201 22.9824C87.7601 21.7644 88.0891 20.7564 88.6071 19.9584C89.1391 19.1464 89.8041 18.5444 90.6021 18.1524C91.4001 17.7464 92.2891 17.5434 93.2691 17.5434C94.2771 17.5434 95.1451 17.7534 95.8731 18.1734C96.6011 18.5934 97.1331 19.2234 97.4691 20.0634C97.8051 20.9034 97.8961 21.9464 97.7421 23.1924C97.6161 24.2284 97.2941 25.1384 96.7761 25.9224C96.2581 26.6924 95.6001 27.2944 94.8021 27.7284C94.0041 28.1484 93.1081 28.3584 92.1141 28.3584ZM92.1981 26.2164C92.8421 26.2164 93.4091 26.0694 93.8991 25.7754C94.3891 25.4674 94.7811 25.0684 95.0751 24.5784C95.3831 24.0744 95.5721 23.5424 95.6421 22.9824C95.7541 22.0304 95.6001 21.2464 95.1801 20.6304C94.7741 20.0004 94.1091 19.6854 93.1851 19.6854C92.2331 19.6854 91.4491 20.0144 90.8331 20.6724C90.2171 21.3304 89.8461 22.1704 89.7201 23.1924C89.6361 24.0184 89.7971 24.7324 90.2031 25.3344C90.6231 25.9224 91.2881 26.2164 92.1981 26.2164ZM98.6546 28.1484L99.9566 17.6484H102.183L102.036 18.4464C102.624 17.9004 103.282 17.6274 104.01 17.6274C104.752 17.6134 105.592 17.7534 106.53 18.0474L105.291 19.9374C104.745 19.7414 104.199 19.6994 103.653 19.8114C103.121 19.9094 102.666 20.1054 102.288 20.3994C101.924 20.6934 101.728 21.0224 101.7 21.3864L100.881 28.1484H98.6546ZM115.845 23.7804H108.222C108.18 24.5084 108.348 25.0684 108.726 25.4604C109.118 25.8384 109.629 26.0694 110.259 26.1534C110.903 26.2234 111.582 26.1534 112.296 25.9434C113.024 25.7194 113.71 25.3694 114.354 24.8934L115.425 26.6574C114.627 27.2734 113.822 27.7074 113.01 27.9594C112.212 28.2114 111.442 28.3374 110.7 28.3374C108.908 28.3514 107.613 27.8474 106.815 26.8254C106.031 25.8034 105.751 24.3684 105.975 22.5204C106.157 20.9944 106.745 19.7834 107.739 18.8874C108.733 17.9774 110.014 17.5294 111.582 17.5434C112.73 17.5434 113.661 17.7814 114.375 18.2574C115.103 18.7334 115.586 19.4124 115.824 20.2944C115.992 20.7564 116.069 21.2744 116.055 21.8484C116.055 22.4224 115.985 23.0664 115.845 23.7804ZM111.708 19.6224C110.784 19.6224 110.028 19.8674 109.44 20.3574C108.852 20.8474 108.516 21.4424 108.432 22.1424H114.123C114.207 21.4564 114.039 20.8684 113.619 20.3784C113.213 19.8744 112.576 19.6224 111.708 19.6224Z" fill="white"/>
</svg>
