<svg width="64" height="64" viewBox="0 0 64 64" fill="none" xmlns="http://www.w3.org/2000/svg">
<path fill-rule="evenodd" clip-rule="evenodd" d="M0 32C0 45.1025 7.88335 56.3612 19.1609 61.3095C19.0668 59.0743 19.1421 56.3913 19.714 53.9605C20.3311 51.3641 23.8307 36.523 23.8307 36.523C23.8307 36.523 22.8071 34.4798 22.8071 31.4619C22.8071 26.7168 25.5579 23.1759 28.9784 23.1759C31.8909 23.1759 33.2982 25.3622 33.2982 27.9812C33.2982 30.9087 31.4318 35.285 30.4722 39.3377C29.6707 42.7319 32.1731 45.4976 35.5221 45.4976C41.5842 45.4976 45.667 37.7159 45.667 28.4854C45.667 21.4751 40.9445 16.2258 32.3537 16.2258C22.6453 16.2258 16.5983 23.4657 16.5983 31.5484C16.5983 34.3368 17.4224 36.3048 18.7056 37.825C19.3001 38.5249 19.3829 38.8072 19.1684 39.6124C19.0179 40.1957 18.6642 41.6181 18.5174 42.1787C18.3029 42.9878 17.6482 43.2775 16.9144 42.9802C12.444 41.1515 10.3631 36.2559 10.3631 30.7545C10.3631 21.6632 18.0245 10.762 33.2305 10.762C45.4487 10.762 53.4901 19.6049 53.4901 29.095C53.4901 41.6482 46.5099 51.0254 36.222 51.0254C32.7676 51.0254 29.5202 49.159 28.4064 47.0367C28.4064 47.0367 26.5475 54.4083 26.1524 55.8344C25.4788 58.2992 24.1468 60.7639 22.9351 62.6867C25.81 63.5372 28.8504 64 32.0038 64C49.6745 64 64 49.6707 64 32C64 14.3255 49.6745 0 32.0038 0C14.3293 0 0 14.3255 0 32Z" fill="#E3F7FC"/>
</svg>
